<svg width="1500" height="502" viewBox="0 0 1500 502" fill="none" xmlns="http://www.w3.org/2000/svg">
<g clip-path="url(#clip0_1019_1189)">
<g clip-path="url(#clip1_1019_1189)">
<path d="M1789 -778H-289V1300H1789V-778Z" fill="white"/>
<g clip-path="url(#clip2_1019_1189)">
<g clip-path="url(#clip3_1019_1189)">
<g clip-path="url(#clip4_1019_1189)">
<path d="M325.389 189.363C325.389 181.746 321.977 175.571 317.769 175.571C313.561 175.571 310.15 181.746 310.15 189.363V331.605C310.15 339.222 313.561 345.397 317.769 345.397C321.977 345.397 325.389 339.222 325.389 331.605V189.363Z" fill="#3FA476"/>
<g clip-path="url(#clip5_1019_1189)">
<g clip-path="url(#clip6_1019_1189)">
<g clip-path="url(#clip7_1019_1189)">
<g clip-path="url(#clip8_1019_1189)">
<path d="M424.368 251.639C423.35 251.639 422.086 251.476 420.578 251.15C419.03 250.865 417.583 250.356 416.238 249.622C414.934 248.929 413.773 248.013 412.754 246.872C411.735 245.771 411.226 244.61 411.226 243.387C411.226 241.757 412.204 239.76 414.16 237.397C416.075 235.074 419.274 233.301 423.757 232.079C429.87 230.652 436.288 229.776 443.012 229.45C449.736 229.165 456.461 229.165 463.185 229.45C469.909 229.776 476.531 230.184 483.051 230.673C489.571 231.202 495.684 231.569 501.39 231.773C504.65 231.773 506.789 232.384 507.808 233.607C508.827 234.829 509.336 236.256 509.336 237.886C509.336 241.553 507.706 244.406 504.446 246.444C501.186 248.481 497.926 249.398 494.665 249.194C491.202 248.991 487.595 248.889 483.846 248.889C480.056 248.889 476.123 248.889 472.048 248.889C472.048 254.594 472.313 260.951 472.843 267.961C473.332 275.011 473.882 282.102 474.493 289.233C475.105 296.365 475.757 303.191 476.449 309.711C477.183 316.231 477.855 321.733 478.467 326.216C478.874 327.846 478.528 329.313 477.427 330.617C476.286 331.962 474.595 332.634 472.354 332.634C468.075 332.634 464.917 329.985 462.879 324.687C459.008 314.703 456.257 303.293 454.627 290.456C443.624 297.18 432.824 301.357 422.229 302.987C411.633 304.617 402.118 304.25 393.682 301.887C385.206 299.564 378.38 295.489 373.204 289.661C367.988 283.874 365.38 276.804 365.38 268.45C365.38 260.503 366.806 251.945 369.659 242.776C372.511 233.607 376.587 224.743 381.884 216.185C387.182 207.627 393.458 199.823 400.712 192.773C407.925 185.764 416.014 180.425 424.98 176.758C428.036 175.943 430.95 175.78 433.721 176.269C436.451 176.799 438.998 177.817 441.362 179.325C443.685 180.874 445.824 182.708 447.78 184.827C449.696 186.987 451.367 189.085 452.793 191.123C453.812 192.549 454.423 194.077 454.627 195.707C454.83 197.337 454.219 198.866 452.793 200.292C449.736 202.533 447.088 202.33 444.846 199.681C441.382 195.402 438.489 192.794 436.166 191.856C433.802 190.96 430.583 191.836 426.508 194.485C422.433 197.338 417.95 201.657 413.06 207.444C408.169 213.272 403.646 219.69 399.489 226.699C395.292 233.749 391.971 240.983 389.525 248.4C387.08 255.857 386.265 262.744 387.08 269.061C387.692 274.562 390.748 278.475 396.249 280.798C401.751 283.161 408.027 284.241 415.077 284.037C422.086 283.834 429.116 282.509 436.166 280.064C443.175 277.619 448.616 274.359 452.487 270.284C452.283 266.82 452.08 263.295 451.876 259.708C451.672 256.163 451.57 252.658 451.57 249.194C447.088 249.602 442.605 249.948 438.122 250.234C433.639 250.56 429.055 251.028 424.368 251.639ZM601.334 219.242C602.149 224.947 602.801 230.999 603.29 237.397C603.82 243.835 604.227 250.315 604.512 256.835C604.838 263.356 605.001 269.672 605.001 275.785C605.001 281.898 604.9 287.399 604.696 292.29C611.216 296.772 615.128 300.746 616.432 304.21C617.777 307.673 617.94 310.73 616.921 313.379C615.699 317.046 613.498 318.921 610.32 319.003C607.182 319.125 603.575 318.065 599.5 315.824C596.647 317.861 593.387 320.042 589.719 322.365C586.052 324.728 582.18 326.97 578.105 329.089C574.03 331.248 569.955 333.143 565.88 334.774C561.804 336.404 558.035 337.524 554.571 338.136C548.051 339.154 542.182 337.932 536.966 334.468C531.791 331.004 528.286 325.808 526.452 318.88C525.229 314.194 524.924 309.344 525.535 304.332C526.146 299.36 527.675 294.572 530.12 289.967C532.565 285.403 535.866 281.287 540.022 277.619C544.22 273.951 549.171 271.099 554.877 269.061C556.303 268.45 558.279 267.94 560.806 267.533C563.373 267.125 566.022 266.962 568.753 267.044C571.524 267.166 574.336 267.737 577.188 268.755C580.041 269.774 582.69 271.506 585.135 273.951C585.135 270.487 585.074 266.657 584.951 262.459C584.87 258.302 584.727 254.085 584.524 249.806C584.32 245.527 584.055 241.492 583.729 237.702C583.444 233.953 583.097 230.754 582.69 228.105C582.282 225.049 581.1 223.154 579.144 222.42C577.229 221.728 574.845 221.891 571.992 222.909C567.102 224.539 561.397 227.698 554.877 232.384C548.356 237.071 542.142 242.063 536.232 247.361C534.399 249.194 532.3 250.009 529.936 249.806C527.613 249.602 525.637 248.685 524.007 247.055C522.377 245.425 521.46 243.53 521.256 241.37C521.052 239.251 521.867 236.969 523.701 234.524C527.165 230.856 531.037 227.086 535.316 223.215C539.595 219.344 544.077 215.819 548.764 212.64C553.45 209.502 558.239 206.914 563.129 204.877C568.019 202.839 572.909 201.718 577.799 201.515C584.931 201.311 590.433 202.88 594.304 206.221C598.175 209.604 600.519 213.944 601.334 219.242ZM565.88 284.954C563.231 285.566 560.419 286.829 557.444 288.744C554.51 290.7 551.861 293.044 549.497 295.774C547.174 298.545 545.442 301.601 544.301 304.943C543.201 308.325 543.16 311.647 544.179 314.907C544.587 316.129 545.442 317.046 546.746 317.658C548.091 318.269 549.579 318.371 551.209 317.963C556.099 316.945 561.641 314.948 567.836 311.973C574.071 309.039 579.022 305.84 582.69 302.376C582.69 301.153 582.078 299.564 580.856 297.608C579.633 295.692 578.207 293.757 576.577 291.801C574.947 289.885 573.154 288.214 571.198 286.788C569.282 285.362 567.51 284.75 565.88 284.954ZM652.987 233.607C653.191 236.867 653.537 240.881 654.026 245.649C654.556 250.458 655.126 255.45 655.738 260.625C656.349 265.842 657.001 270.997 657.694 276.091C658.427 281.185 659.1 285.871 659.711 290.15C661.952 285.667 664.703 280.166 667.963 273.646C671.223 267.125 674.626 260.849 678.172 254.818C681.758 248.828 685.425 243.734 689.175 239.536C692.965 235.379 696.388 233.301 699.444 233.301C702.704 233.301 705.7 234.87 708.43 238.008C711.201 241.187 713.605 245.017 715.643 249.5C717.681 253.983 719.453 258.771 720.961 263.865C722.51 268.959 723.793 273.442 724.812 277.313C725.627 274.664 726.687 271.649 727.991 268.266C729.336 264.925 730.762 261.461 732.27 257.875C733.818 254.329 735.55 250.824 737.466 247.361C739.422 243.897 741.52 240.84 743.762 238.191C746.411 235.339 749.263 233.24 752.32 231.895C755.376 230.591 757.618 229.939 759.044 229.939C760.878 229.939 763.058 230.489 765.585 231.59C768.152 232.731 770.76 234.218 773.409 236.052C776.058 237.886 778.544 240.066 780.867 242.593C783.23 245.16 785.125 247.768 786.551 250.417C789.404 255.918 791.686 261.929 793.398 268.45C795.109 274.97 796.393 281.185 797.249 287.094C798.064 293.003 798.614 298.239 798.899 302.804C799.225 307.409 799.49 310.628 799.694 312.462C799.694 315.111 799.388 317.087 798.777 318.391C798.166 319.736 797.045 320.816 795.415 321.631C793.174 322.65 791.238 322.996 789.608 322.67C787.978 322.385 786.653 321.733 785.634 320.714C784.616 319.695 783.801 318.534 783.189 317.23C782.537 315.885 782.13 314.703 781.967 313.684C781.356 308.998 780.683 304.21 779.95 299.319C779.257 294.429 778.482 289.681 777.627 285.076C776.852 280.512 775.895 276.254 774.754 272.301C773.613 268.307 772.451 264.782 771.269 261.726C770.862 260.911 770.19 259.851 769.252 258.547C768.356 257.202 767.337 255.918 766.196 254.696C765.096 253.473 764.036 252.455 763.017 251.639C761.998 250.824 761.265 250.315 760.817 250.111C758.779 250.111 756.66 251.986 754.459 255.735C752.218 259.525 750.078 264.069 748.041 269.367C746.003 274.664 744.108 280.207 742.356 285.993C740.644 291.821 739.381 296.772 738.566 300.848C738.566 306.145 737.547 310.078 735.51 312.645C733.472 315.172 731.333 316.435 729.091 316.435C726.809 316.435 724.405 315.559 721.878 313.807C719.351 312.095 717.681 310.119 716.866 307.877C715.643 304.617 714.319 300.949 712.892 296.874C711.466 292.799 709.978 288.622 708.43 284.343C706.922 280.064 705.394 275.887 703.845 271.812C702.337 267.737 700.87 264.069 699.444 260.809C696.591 264.68 693.78 268.959 691.008 273.646C688.278 278.332 685.629 283.12 683.062 288.011C680.535 292.901 678.09 297.73 675.726 302.498C673.404 307.307 671.223 311.545 669.186 315.213C667.759 317.454 666.231 319.43 664.601 321.142C662.971 322.894 661.035 323.77 658.794 323.77C657.164 323.77 655.432 322.996 653.598 321.448C651.764 319.94 650.032 318.065 648.402 315.824C646.772 313.582 645.285 311.035 643.94 308.183C642.636 305.33 641.678 302.478 641.067 299.625C639.437 290.863 638.051 281.246 636.91 270.773C635.81 260.259 634.75 250.009 633.732 240.025C633.528 236.561 633.976 233.342 635.076 230.367C636.217 227.433 638.418 225.456 641.678 224.438C645.142 223.826 647.791 224.336 649.625 225.966C651.459 227.596 652.579 230.143 652.987 233.607ZM898.354 260.503C890.408 265.19 881.85 268.796 872.681 271.323C863.511 273.89 853.629 275.174 843.034 275.174C843.441 282.305 845.479 287.95 849.146 292.106C852.814 296.304 857.399 298.81 862.9 299.625C866.16 300.032 869.482 299.931 872.864 299.319C876.206 298.708 879.364 297.73 882.339 296.385C885.273 295.081 887.963 293.614 890.408 291.984C892.853 290.354 894.992 288.724 896.826 287.094C898.66 285.464 900.596 284.384 902.633 283.854C904.671 283.365 906.199 283.324 907.218 283.732C910.071 284.75 911.089 287.807 910.274 292.901C907.014 299.421 902.328 304.963 896.215 309.528C890.102 314.133 883.276 317.046 875.737 318.269C869.217 319.492 862.493 319.186 855.565 317.352C848.637 315.518 842.422 311.952 836.921 306.655C832.234 301.968 828.669 296.467 826.223 290.15C823.778 283.834 822.25 277.313 821.639 270.589C821.028 264.273 821.598 258.262 823.35 252.556C825.062 246.851 827.752 241.798 831.419 237.397C835.087 233.036 839.672 229.43 845.173 226.577C850.675 223.724 857.093 222.094 864.428 221.687C873.19 221.076 881.137 222.706 888.268 226.577C895.4 230.448 900.392 235.848 903.245 242.776C904.875 246.647 905.343 250.009 904.651 252.862C903.917 255.715 901.818 258.262 898.354 260.503ZM863.206 239.72C861.168 240.127 858.988 240.84 856.665 241.859C854.302 242.878 852.162 244.141 850.247 245.649C848.291 247.198 846.559 248.929 845.051 250.845C843.502 252.801 842.626 255.002 842.422 257.447C845.886 257.447 849.717 257.141 853.914 256.53C858.071 255.918 862.146 255.144 866.14 254.207C870.093 253.31 873.761 252.251 877.143 251.028C880.485 249.806 883.276 248.481 885.518 247.055C883.887 243.183 880.892 240.779 876.532 239.842C872.131 238.945 867.689 238.905 863.206 239.72ZM1085.1 343.637C1082.86 343.637 1080.58 341.905 1078.25 338.441C1075.89 334.977 1074.61 331.615 1074.4 328.355C1072.77 316.537 1070.8 302.722 1068.47 286.91C1066.11 271.139 1062.99 252.455 1059.12 230.856C1053.01 242.47 1047 253.983 1041.09 265.393C1035.18 276.804 1029.27 288.214 1023.36 299.625C1019.69 306.757 1015.92 310.322 1012.05 310.322C1006.35 310.322 1001.86 307.368 998.604 301.459C991.473 291.067 984.097 281.348 976.476 272.301C968.815 263.213 960.909 254.186 952.758 245.221C952.351 258.873 952.514 272.26 953.247 285.382C953.94 298.545 955.203 311.341 957.037 323.77C957.445 326.012 957.2 327.988 956.304 329.7C955.366 331.452 954.388 332.532 953.37 332.94C950.517 333.958 947.664 333.347 944.812 331.106C941.959 328.864 940.227 326.419 939.616 323.77C937.782 316.435 936.458 308.285 935.642 299.319C934.827 290.354 934.277 281.287 933.992 272.117C933.666 262.948 933.503 253.881 933.503 244.915C933.503 235.95 933.605 227.8 933.809 220.464C933.809 212.314 936.458 208.239 941.755 208.239C945.015 208.239 947.766 209.4 950.008 211.723C952.249 214.087 953.471 217.408 953.675 221.687C963.863 231.875 973.501 242.307 982.589 252.984C991.636 263.702 1000.44 274.562 1009 285.566C1016.13 272.729 1023.36 259.525 1030.7 245.955C1038.03 232.425 1046.28 219.242 1055.45 206.405C1055.86 204.163 1056.98 201.861 1058.82 199.497C1060.65 197.174 1062.69 195.606 1064.93 194.791C1067.17 193.975 1069.51 194.892 1071.96 197.541C1074.4 200.19 1076.03 203.247 1076.85 206.71C1080.31 227.29 1083.33 247.87 1085.89 268.45C1088.42 289.029 1090.91 309.609 1093.35 330.189C1093.76 334.06 1093.05 337.259 1091.21 339.786C1089.38 342.353 1087.34 343.637 1085.1 343.637ZM1194.52 219.242C1195.33 224.947 1195.99 230.999 1196.48 237.397C1197.01 243.835 1197.41 250.315 1197.7 256.835C1198.02 263.356 1198.19 269.672 1198.19 275.785C1198.19 281.898 1198.09 287.399 1197.88 292.29C1204.4 296.772 1208.31 300.746 1209.62 304.21C1210.96 307.673 1211.13 310.73 1210.11 313.379C1208.88 317.046 1206.68 318.921 1203.51 319.003C1200.37 319.125 1196.76 318.065 1192.69 315.824C1189.83 317.861 1186.57 320.042 1182.91 322.365C1179.24 324.728 1175.37 326.97 1171.29 329.089C1167.22 331.248 1163.14 333.143 1159.07 334.774C1154.99 336.404 1151.22 337.524 1147.76 338.136C1141.24 339.154 1135.37 337.932 1130.15 334.468C1124.98 331.004 1121.47 325.808 1119.64 318.88C1118.42 314.194 1118.11 309.344 1118.72 304.332C1119.33 299.36 1120.86 294.572 1123.31 289.967C1125.75 285.403 1129.05 281.287 1133.21 277.619C1137.41 273.951 1142.36 271.099 1148.06 269.061C1149.49 268.45 1151.46 267.94 1153.99 267.533C1156.56 267.125 1159.21 266.962 1161.94 267.044C1164.71 267.166 1167.52 267.737 1170.37 268.755C1173.23 269.774 1175.88 271.506 1178.32 273.951C1178.32 270.487 1178.26 266.657 1178.14 262.459C1178.06 258.302 1177.91 254.085 1177.71 249.806C1177.51 245.527 1177.24 241.492 1176.91 237.702C1176.63 233.953 1176.28 230.754 1175.88 228.105C1175.47 225.049 1174.29 223.154 1172.33 222.42C1170.41 221.728 1168.03 221.891 1165.18 222.909C1160.29 224.539 1154.58 227.698 1148.06 232.384C1141.54 237.071 1135.33 242.063 1129.42 247.361C1127.58 249.194 1125.49 250.009 1123.12 249.806C1120.8 249.602 1118.82 248.685 1117.19 247.055C1115.56 245.425 1114.65 243.53 1114.44 241.37C1114.24 239.251 1115.05 236.969 1116.89 234.524C1120.35 230.856 1124.22 227.086 1128.5 223.215C1132.78 219.344 1137.26 215.819 1141.95 212.64C1146.64 209.502 1151.42 206.914 1156.31 204.877C1161.2 202.839 1166.09 201.718 1170.99 201.515C1178.12 201.311 1183.62 202.88 1187.49 206.221C1191.36 209.604 1193.7 213.944 1194.52 219.242ZM1159.07 284.954C1156.42 285.566 1153.6 286.829 1150.63 288.744C1147.7 290.7 1145.05 293.044 1142.68 295.774C1140.36 298.545 1138.63 301.601 1137.49 304.943C1136.39 308.325 1136.35 311.647 1137.36 314.907C1137.77 316.129 1138.63 317.046 1139.93 317.658C1141.28 318.269 1142.76 318.371 1144.39 317.963C1149.28 316.945 1154.83 314.948 1161.02 311.973C1167.26 309.039 1172.21 305.84 1175.88 302.376C1175.88 301.153 1175.26 299.564 1174.04 297.608C1172.82 295.692 1171.39 293.757 1169.76 291.801C1168.13 289.885 1166.34 288.214 1164.38 286.788C1162.47 285.362 1160.7 284.75 1159.07 284.954ZM1297.21 250.417C1301.04 250.213 1304.92 251.13 1308.83 253.168C1312.7 255.205 1314.64 258.364 1314.64 262.643C1314.23 266.106 1312.33 268.307 1308.95 269.244C1305.61 270.141 1302.92 270.589 1300.88 270.589C1296.81 270.589 1292.41 270.691 1287.68 270.895C1282.99 271.099 1278.22 271.404 1273.37 271.812C1272.97 278.536 1272.6 284.852 1272.27 290.761C1271.99 296.67 1271.72 301.907 1271.48 306.471C1271.32 311.076 1271.23 314.805 1271.23 317.658C1271.23 320.51 1271.32 322.039 1271.48 322.242C1276 321.427 1280.85 320.042 1286.03 318.086C1291.2 316.17 1296.4 314.031 1301.62 311.667C1306.83 309.344 1311.93 306.899 1316.9 304.332C1321.87 301.805 1326.6 299.421 1331.08 297.18C1333.12 296.161 1335.01 295.855 1336.76 296.263C1338.52 296.67 1339.6 297.587 1340 299.014C1340.41 301.255 1340.11 304.006 1339.09 307.266C1338.07 310.526 1336.21 313.481 1333.52 316.129C1330.47 318.575 1326.45 321.366 1321.48 324.504C1316.51 327.683 1311.17 330.698 1305.47 333.551C1299.72 336.404 1293.95 338.889 1288.17 341.009C1282.38 343.168 1277.25 344.452 1272.76 344.86C1266.04 345.471 1260.95 343.637 1257.48 339.358C1254.02 335.079 1252.06 329.68 1251.61 323.159C1251.21 316.639 1251.16 309.1 1251.49 300.542C1251.82 291.984 1252.16 282.917 1252.53 273.34C1248.7 273.747 1244.99 274.094 1241.4 274.379C1237.86 274.705 1234.44 275.072 1231.13 275.479C1228.49 275.479 1225.59 274.868 1222.45 273.646C1219.32 272.423 1217.75 270.08 1217.75 266.616C1217.75 265.393 1218.26 263.763 1219.28 261.726C1220.29 259.688 1222.54 258.16 1226 257.141C1234.35 255.715 1243.63 254.492 1253.81 253.473C1254.38 243.897 1255.1 234.626 1255.95 225.66C1256.73 216.695 1257.44 208.544 1258.09 201.209C1258.3 198.764 1258.99 196.624 1260.17 194.791C1261.43 192.957 1262.78 192.04 1264.21 192.04C1267.63 191.836 1270.93 192.692 1274.11 194.607C1277.29 196.563 1278.88 198.764 1278.88 201.209C1278.02 208.137 1277.25 215.982 1276.55 224.743C1275.82 233.505 1275.15 242.47 1274.54 251.639C1278.61 251.232 1282.54 250.967 1286.33 250.845C1290.12 250.763 1293.75 250.621 1297.21 250.417ZM1426.44 260.503C1418.49 265.19 1409.93 268.796 1400.77 271.323C1391.6 273.89 1381.71 275.174 1371.12 275.174C1371.53 282.305 1373.56 287.95 1377.23 292.106C1380.9 296.304 1385.48 298.81 1390.98 299.625C1394.24 300.032 1397.57 299.931 1400.95 299.319C1404.29 298.708 1407.45 297.73 1410.42 296.385C1413.36 295.081 1416.05 293.614 1418.49 291.984C1420.94 290.354 1423.08 288.724 1424.91 287.094C1426.74 285.464 1428.68 284.384 1430.72 283.854C1432.76 283.365 1434.28 283.324 1435.3 283.732C1438.15 284.75 1439.17 287.807 1438.36 292.901C1435.1 299.421 1430.41 304.963 1424.3 309.528C1418.19 314.133 1411.36 317.046 1403.82 318.269C1397.3 319.492 1390.58 319.186 1383.65 317.352C1376.72 315.518 1370.51 311.952 1365.01 306.655C1360.32 301.968 1356.75 296.467 1354.31 290.15C1351.86 283.834 1350.33 277.313 1349.72 270.589C1349.11 264.273 1349.68 258.262 1351.43 252.556C1353.15 246.851 1355.84 241.798 1359.5 237.397C1363.17 233.036 1367.76 229.43 1373.26 226.577C1378.76 223.724 1385.18 222.094 1392.51 221.687C1401.27 221.076 1409.22 222.706 1416.35 226.577C1423.48 230.448 1428.48 235.848 1431.33 242.776C1432.96 246.647 1433.43 250.009 1432.73 252.862C1432 255.715 1429.9 258.262 1426.44 260.503ZM1391.29 239.72C1389.25 240.127 1387.07 240.84 1384.75 241.859C1382.39 242.878 1380.25 244.141 1378.33 245.649C1376.37 247.198 1374.64 248.929 1373.14 250.845C1371.59 252.801 1370.71 255.002 1370.51 257.447C1373.97 257.447 1377.8 257.141 1382 256.53C1386.16 255.918 1390.23 255.144 1394.22 254.207C1398.18 253.31 1401.84 252.251 1405.23 251.028C1408.57 249.806 1411.36 248.481 1413.6 247.055C1411.97 243.183 1408.98 240.779 1404.62 239.842C1400.21 238.945 1395.77 238.905 1391.29 239.72Z" fill="#3FA476"/>
</g>
</g>
</g>
</g>
<g clip-path="url(#clip9_1019_1189)">
<g clip-path="url(#clip10_1019_1189)">
<path d="M206.108 255.477C208.611 255.477 210.802 253.913 211.74 251.722C212.992 248.593 211.74 244.838 208.611 243.586C165.427 224.81 75.93 227.627 71.8619 227.94C68.4197 227.94 65.6034 231.069 65.9163 234.511C65.9163 237.953 68.7327 240.77 72.4878 240.457C72.8007 240.457 92.828 239.831 118.175 241.083V291.777C118.175 301.165 115.985 313.369 106.284 318.063C96.8961 322.757 81.8756 319.314 69.6715 309.927C66.8551 307.736 63.1 308.362 60.9095 311.178C58.719 313.995 59.3449 317.75 62.1612 319.94C73.1136 328.389 85.3178 332.77 96.5832 332.77C102.216 332.77 107.223 331.518 111.917 329.328C118.175 326.199 128.189 318.376 130.379 299.913C133.509 300.539 137.577 301.165 141.958 301.165C149.468 301.165 158.543 299.6 168.243 294.906C173.563 303.042 187.958 324.947 201.727 342.471C202.978 344.036 204.856 344.974 206.733 344.974C207.985 344.974 209.55 344.661 210.489 343.723C213.305 341.532 213.618 337.777 211.427 334.961C196.407 315.872 180.448 291.151 177.318 286.144C174.502 272.688 171.999 255.477 170.434 246.402C182.951 248.593 194.842 251.409 203.917 255.477H206.108ZM130.379 287.083V241.708C139.141 242.334 148.216 242.96 156.978 244.212C157.917 250.157 160.42 267.681 163.237 283.015C149.155 290.525 136.325 288.647 130.379 287.083Z" fill="#074D0F"/>
<path d="M247.727 289.273C235.21 289.273 225.196 299.6 225.196 311.804C225.196 324.008 235.523 334.334 247.727 334.334C259.931 334.334 270.258 324.008 270.258 311.804C270.258 299.6 260.244 289.273 247.727 289.273ZM247.727 322.13C242.094 322.13 237.713 317.436 237.713 312.117C237.713 306.797 242.407 302.103 247.727 302.103C253.047 302.103 257.741 306.797 257.741 312.117C257.741 317.436 253.36 322.13 247.727 322.13Z" fill="#074D0F"/>
<path d="M121.304 200.402C121.304 213.858 132.257 224.81 145.713 224.81C159.168 224.81 170.121 213.858 170.121 200.402C170.121 186.946 159.168 175.994 145.713 175.994C132.257 175.994 121.304 186.946 121.304 200.402ZM157.291 200.402C157.291 206.973 151.971 212.293 145.4 212.293C138.828 212.293 133.508 206.973 133.508 200.402C133.508 193.83 138.828 188.511 145.4 188.511C151.971 188.511 157.291 193.83 157.291 200.402Z" fill="#074D0F"/>
</g>
</g>
</g>
</g>
</g>
</g>
</g>
<defs>
<clipPath id="clip0_1019_1189">
<rect width="1500" height="502" fill="white"/>
</clipPath>
<clipPath id="clip1_1019_1189">
<rect width="2078" height="2078" fill="white" transform="translate(-289 -778)"/>
</clipPath>
<clipPath id="clip2_1019_1189">
<rect width="1385.33" height="170.858" fill="white" transform="translate(56.4937 175.055)"/>
</clipPath>
<clipPath id="clip3_1019_1189">
<rect width="1379.14" height="169.825" fill="white" transform="translate(59.5923 175.571)"/>
</clipPath>
<clipPath id="clip4_1019_1189">
<rect width="1379.14" height="169.825" fill="white" transform="translate(59.5923 175.571)"/>
</clipPath>
<clipPath id="clip5_1019_1189">
<rect width="1073.45" height="168.981" fill="white" transform="translate(365.281 175.994)"/>
</clipPath>
<clipPath id="clip6_1019_1189">
<rect width="1073.45" height="168.981" fill="white" transform="translate(365.281 175.994)"/>
</clipPath>
<clipPath id="clip7_1019_1189">
<rect width="1073.45" height="168.981" fill="white" transform="translate(365.281 175.994)"/>
</clipPath>
<clipPath id="clip8_1019_1189">
<rect width="1073.45" height="168.981" fill="white" transform="translate(365.281 175.994)"/>
</clipPath>
<clipPath id="clip9_1019_1189">
<rect width="210.665" height="168.981" fill="white" transform="translate(59.5923 175.994)"/>
</clipPath>
<clipPath id="clip10_1019_1189">
<rect width="210.665" height="168.981" fill="white" transform="translate(59.5923 175.994)"/>
</clipPath>
</defs>
</svg>
