<?xml version="1.0" encoding="UTF-8"?>
<!DOCTYPE svg PUBLIC "-//W3C//DTD SVG 1.1//EN" "http://www.w3.org/Graphics/SVG/1.1/DTD/svg11.dtd">
<!-- Creator: CorelDRAW -->
<svg xmlns="http://www.w3.org/2000/svg" xml:space="preserve" width="2048px" height="2048px" style="shape-rendering:geometricPrecision; text-rendering:geometricPrecision; image-rendering:optimizeQuality; fill-rule:evenodd; clip-rule:evenodd"
viewBox="0 0 2048 2048"
 xmlns:xlink="http://www.w3.org/1999/xlink">
 <defs>
  <style type="text/css">
   <![CDATA[
    .fil2 {fill:none}
    .fil1 {fill:#1E88E5}
    .fil0 {fill:#64B5F6}
    .fil6 {fill:#DA6203;fill-rule:nonzero}
    .fil8 {fill:#E3841D;fill-rule:nonzero}
    .fil7 {fill:#E79222;fill-rule:nonzero}
    .fil3 {fill:#EF6C00;fill-rule:nonzero}
    .fil5 {fill:#FB961F;fill-rule:nonzero}
    .fil4 {fill:#FFA726;fill-rule:nonzero}
   ]]>
  </style>
   <clipPath id="id0">
    <path d="M1024 0c565.539,0 1024,458.461 1024,1024 0,565.539 -458.461,1024 -1024,1024 -565.539,0 -1024,-458.461 -1024,-1024 0,-565.539 458.461,-1024 1024,-1024z"/>
   </clipPath>
 </defs>
 <g id="Layer_x0020_1">
  <metadata id="CorelCorpID_0Corel-Layer"/>
  <path class="fil0" d="M1024 0c565.539,0 1024,458.461 1024,1024 0,565.539 -458.461,1024 -1024,1024 -565.539,0 -1024,-458.461 -1024,-1024 0,-565.539 458.461,-1024 1024,-1024z"/>
  <g style="clip-path:url(#id0)">
   <g id="_478219480">
    <g>
     <polygon id="_3926274241" class="fil1" points="1023.99,464 2159.87,1599.88 2159.88,1599.88 1024,464 "/>
     <polygon id="_392644392" class="fil1" points="1024,860.666 2159.88,1996.55 2159.88,2116.81 1024,980.926 "/>
     <polygon id="_392627208" class="fil1" points="951.178,585.592 2087.06,1721.47 2087.8,1722.92 2088.56,1724.35 2089.35,1725.77 2090.17,1727.17 2091.01,1728.55 2091.88,1729.91 2092.77,1731.25 2093.69,1732.58 2094.63,1733.88 2095.59,1735.17 2096.58,1736.43 2097.59,1737.68 2098.63,1738.91 2099.68,1740.11 2100.76,1741.29 964.882,605.411 963.803,604.228 962.746,603.023 961.711,601.797 960.7,600.551 959.711,599.285 958.746,597.998 957.805,596.693 956.889,595.369 955.997,594.025 955.129,592.663 954.287,591.284 953.47,589.887 952.68,588.472 951.916,587.04 "/>
     <polygon id="_392630256" class="fil1" points="1112.03,980.508 2247.91,2116.39 2247.85,2116.81 1111.97,980.926 "/>
     <polygon id="_392645136" class="fil1" points="935.884,980.508 2071.76,2116.39 2069.8,2116.47 2067.8,2116.55 2065.79,2116.61 2063.76,2116.66 2061.72,2116.69 2059.66,2116.71 2057.6,2116.7 2055.54,2116.67 2053.47,2116.61 2051.41,2116.53 2049.36,2116.41 2047.32,2116.26 2045.3,2116.08 2043.29,2115.86 2041.3,2115.6 2039.34,2115.3 903.461,979.413 905.421,979.717 907.406,979.978 909.414,980.199 911.44,980.382 913.481,980.531 915.533,980.645 917.592,980.73 919.657,980.786 921.72,980.817 923.781,980.824 925.836,980.811 927.881,980.778 929.911,980.729 931.924,980.667 933.916,980.592 "/>
     <polygon id="_392636856" class="fil1" points="1024,1249.24 2159.88,2385.12 2159.88,2507.22 1024,1371.34 "/>
     <polygon id="_392623008" class="fil1" points="1024,1371.34 2159.88,2507.22 2159.88,2629.32 1024,1493.43 "/>
     <polygon id="_392617560" class="fil1" points="1024,1493.43 2159.88,2629.32 2159.88,2719.88 1024,1584 "/>
     <polygon id="_392614800" class="fil1" points="813.955,1583.91 1949.84,2719.79 1949.56,2719.79 813.681,1583.91 "/>
     <polygon id="_392623248" class="fil1" points="1024,1584 2159.88,2719.88 1949.84,2719.88 813.955,1584 "/>
     <polygon id="_392620944" class="fil1" points="813.681,1583.91 1949.56,2719.79 1947.19,2719.64 1944.88,2719.26 1942.66,2718.67 1940.54,2717.86 1938.52,2716.86 1936.61,2715.67 1934.84,2714.31 798.96,1578.43 800.733,1579.79 802.635,1580.97 804.656,1581.98 806.782,1582.78 809.003,1583.38 811.306,1583.76 "/>
     <polygon id="_392636448" class="fil1" points="903.461,979.413 2039.34,2115.3 2037.4,2114.94 2035.49,2114.53 2033.62,2114.07 2031.79,2113.56 2030,2113 2028.24,2112.4 2026.53,2111.74 2024.85,2111.04 2023.21,2110.3 2021.61,2109.51 2020.05,2108.68 2018.52,2107.81 2017.04,2106.9 2015.59,2105.94 2014.18,2104.95 2012.81,2103.92 2011.48,2102.86 2010.19,2101.76 2008.94,2100.63 2007.72,2099.46 871.841,963.578 873.055,964.745 874.309,965.879 875.601,966.978 876.931,968.042 878.301,969.07 879.709,970.061 881.156,971.013 882.641,971.926 884.164,972.798 885.727,973.629 887.327,974.417 888.967,975.161 890.645,975.862 892.36,976.515 894.115,977.122 895.908,977.681 897.739,978.19 899.609,978.649 901.516,979.058 "/>
     <polygon id="_392624088" class="fil1" points="1024,980.926 2159.88,2116.81 2159.88,2385.12 1024,1249.24 "/>
     <polygon id="_392637144" class="fil1" points="1024,631.467 2159.88,1767.35 2159.88,1996.55 1024,860.666 "/>
     <polygon id="_392641704" class="fil1" points="1084.63,491.797 2220.51,1627.68 2221.8,1629.18 2223.05,1630.71 2224.26,1632.27 2225.44,1633.86 2226.59,1635.48 2227.69,1637.13 2228.76,1638.81 2229.79,1640.51 2230.78,1642.25 2231.73,1644 2232.64,1645.79 2233.51,1647.6 2234.34,1649.43 2235.13,1651.28 2235.87,1653.16 2236.57,1655.06 2237.23,1656.98 2237.84,1658.92 2238.41,1660.89 2238.93,1662.87 2239.4,1664.87 2239.83,1666.89 2240.21,1668.93 2240.54,1670.98 2240.82,1673.05 2241.05,1675.14 2241.23,1677.24 2241.36,1679.35 2241.44,1681.48 2241.47,1683.62 1105.59,547.74 1105.56,545.599 1105.48,543.47 1105.35,541.355 1105.17,539.255 1104.94,537.169 1104.66,535.099 1104.33,533.045 1103.95,531.007 1103.52,528.989 1103.05,526.987 1102.53,525.005 1101.96,523.042 1101.35,521.1 1100.69,519.179 1099.99,517.278 1099.25,515.399 1098.46,513.545 1097.63,511.713 1096.76,509.905 1095.85,508.122 1094.9,506.364 1093.91,504.632 1092.88,502.928 1091.81,501.251 1090.71,499.601 1089.56,497.98 1088.38,496.389 1087.17,494.828 1085.92,493.297 "/>
     <polygon id="_392640696" class="fil1" points="1105.59,547.74 2241.47,1683.62 2241.46,1684.9 2241.43,1686.17 2241.39,1687.43 2241.32,1688.69 2241.24,1689.95 2241.14,1691.2 2241.02,1692.45 2240.88,1693.69 2240.73,1694.92 2240.56,1696.15 2240.37,1697.37 2240.16,1698.59 2239.94,1699.8 2239.7,1701.01 2239.44,1702.2 2239.17,1703.4 2238.88,1704.58 2238.57,1705.76 2238.25,1706.94 2237.91,1708.1 2237.56,1709.26 2237.18,1710.41 2236.8,1711.55 2236.4,1712.69 2235.98,1713.82 2235.54,1714.94 2235.1,1716.05 2234.63,1717.16 2234.15,1718.25 2233.66,1719.34 2233.15,1720.42 2232.63,1721.49 1096.75,585.609 1097.27,584.537 1097.78,583.458 1098.27,582.37 1098.75,581.274 1099.22,580.169 1099.66,579.056 1100.1,577.935 1100.51,576.807 1100.92,575.671 1101.3,574.528 1101.67,573.376 1102.03,572.219 1102.37,571.053 1102.69,569.88 1103,568.701 1103.29,567.515 1103.56,566.322 1103.82,565.124 1104.06,563.919 1104.28,562.707 1104.49,561.489 1104.68,560.267 1104.85,559.037 1105,557.803 1105.14,556.563 1105.26,555.317 1105.36,554.066 1105.44,552.811 1105.5,551.55 1105.55,550.284 1105.58,549.015 "/>
     <polygon id="_392635008" class="fil1" points="1096.75,585.609 2232.63,1721.49 2231.89,1722.94 2231.13,1724.37 2230.34,1725.78 2229.53,1727.18 2228.69,1728.56 2227.82,1729.92 2226.93,1731.26 2226.01,1732.59 2225.07,1733.89 2224.11,1735.18 2223.12,1736.44 2222.11,1737.69 2221.08,1738.91 2220.03,1740.12 2218.95,1741.3 2217.85,1742.46 1081.97,606.579 1083.07,605.418 1084.15,604.236 1085.2,603.031 1086.23,601.806 1087.24,600.561 1088.23,599.295 1089.19,598.01 1090.13,596.705 1091.05,595.381 1091.94,594.039 1092.81,592.678 1093.64,591.299 1094.46,589.902 1095.25,588.488 1096.01,587.057 "/>
     <polygon id="_392619144" class="fil1" points="1081.97,606.579 2217.85,1742.46 2216.44,1743.89 2215,1745.28 2213.53,1746.63 2212.03,1747.95 2210.49,1749.23 2208.93,1750.47 2207.34,1751.67 2205.72,1752.84 2204.07,1753.96 2202.39,1755.05 2200.68,1756.09 2198.95,1757.1 2197.2,1758.05 2195.42,1758.97 2193.61,1759.84 2191.79,1760.67 2189.94,1761.46 2188.06,1762.19 2186.17,1762.89 2184.26,1763.53 2182.32,1764.13 2180.37,1764.67 2178.39,1765.17 2176.4,1765.62 2174.39,1766.02 2172.36,1766.37 2170.32,1766.67 2168.26,1766.91 2166.19,1767.1 2164.1,1767.24 2162,1767.32 2159.88,1767.35 1024,631.467 1026.12,631.439 1028.22,631.356 1030.31,631.219 1032.38,631.028 1034.44,630.784 1036.48,630.487 1038.51,630.14 1040.52,629.741 1042.51,629.291 1044.48,628.791 1046.44,628.243 1048.37,627.647 1050.29,627.003 1052.18,626.311 1054.06,625.574 1055.91,624.789 1057.73,623.962 1059.54,623.089 1061.32,622.172 1063.07,621.213 1064.8,620.21 1066.51,619.166 1068.18,618.082 1069.83,616.956 1071.46,615.792 1073.05,614.587 1074.61,613.345 1076.15,612.064 1077.65,610.747 1079.12,609.394 1080.56,608.004 "/>
    </g>
    <path id="_478236664" class="fil1" d="M1023.99 464l0.0129921 0c-0.00472441,0 -0.00826772,0 -0.0129921,0zm88.0383 516.508l-0.0543308 0.418111c0.0165354,-0.13937 0.0354331,-0.27874 0.0543308,-0.418111zm-88.0253 -349.041l0 229.199 0 120.26 0 268.312 0 122.098 0 122.097 0 90.567 -210.046 0 0 -0.090945 -0.274016 0c-12.8362,-0.15 -23.1189,-10.6795 -22.9689,-23.5158 0.251575,-18.3378 6.53386,-37.2425 17.0882,-53.6823 2.95866,-4.61103 6.27166,-9.05906 9.89646,-13.278 0.370866,-0.432284 0.745276,-0.861024 1.12323,-1.28858 -2.83347,-2.6374 -5.4378,-5.44961 -7.82008,-8.37993 -13.8626,-17.0551 -19.989,-39.0874 -19.7256,-52.8863 0.301181,-15.678 5.92796,-30.8173 16.3134,-45.2492 3.48189,-4.84016 7.50591,-9.60709 12.0437,-14.2925 0.0153543,-0.0165354 0.0318898,-0.0318898 0.0472441,-0.0484252 -4.80709,-5.92796 -8.50985,-12.9473 -11.0599,-20.6445 -2.77677,-8.38229 -4.05118,-17.7236 -3.72874,-27.2646 0.316536,-9.40158 2.18032,-18.9248 5.6752,-27.8185 8.5193,-21.6768 26.061,-40.3016 53.6622,-46.3241 1.22717,-0.266929 2.47559,-0.510237 3.74292,-0.72756 20.5158,-49.2993 45.9496,-117.142 59.4934,-177.91 7.66772,-34.4044 11.5736,-66.0993 8.47442,-89.6729l-0.0543308 -0.418111c-10.4221,0.465355 -22.0441,0.641339 -32.4225,-1.09488 -20.9587,-3.51142 -35.3977,-16.141 -43.167,-32.0126 -4.30276,-8.79449 -6.43347,-18.5315 -6.36851,-28.1351 0.0673229,-9.78426 2.36811,-19.5803 6.92363,-28.2921 7.98308,-15.274 22.3866,-27.1099 43.2496,-30.0697 0.612993,-0.0862205 1.25197,-0.165354 1.91575,-0.237402 6.75237,-0.731103 16.0039,-0.721654 25.05,-0.526772 -0.747638,-25.4232 -5.30552,-49.6796 -12.1654,-71.6812 -10.676,-34.2461 -26.7331,-62.6693 -42.5422,-81.3473l0.0177165 -0.0141732c-0.485433,-0.574016 -0.948426,-1.17756 -1.38425,-1.80827 -2.57126,-3.70985 -6.31063,-7.6193 -10.128,-11.6079 -18.3366,-19.1658 -37.8012,-39.5114 -24.0366,-79.1316l0.0236221 0.00826772c0.651969,-1.86378 1.55079,-3.67441 2.71063,-5.38583 7.59213,-11.2146 17.0008,-17.8618 26.3504,-21.5929 12.1252,-4.83898 24.2339,-4.41733 32.1709,-2.73544 0.977954,0.147638 1.95709,0.357874 2.93268,0.635434 3.15591,0.904725 6.00591,2.03386 9.33544,3.34961 6.4004,2.52992 15.4571,6.11103 23.413,6.11103 2.95984,0 8.17087,-4.61457 13.415,-9.34725 3.86339,7.76812 8.87481,14.8417 14.8051,20.9811 14.8465,15.3709 35.3504,24.8941 58.0052,24.8941l0.0129921 0zm0 -167.467c22.6276,0.00354331 43.1256,9.51261 57.9615,24.8953 14.5949,15.1288 23.6256,35.9351 23.6256,58.8449 0,13.6193 -3.18898,26.491 -8.83938,37.8685 -3.8563,7.76575 -8.85946,14.8358 -14.7791,20.9705 -14.8406,15.3815 -35.3398,24.8847 -57.9685,24.8882l0 -42.6674 0 -124.8z"/>
   </g>
  </g>
  <path class="fil2" d="M1024 0c565.539,0 1024,458.461 1024,1024 0,565.539 -458.461,1024 -1024,1024 -565.539,0 -1024,-458.461 -1024,-1024 0,-565.539 458.461,-1024 1024,-1024z"/>
  <path class="fil3" d="M942.323 547.74c0,-22.9169 9.03072,-43.728 23.6386,-58.8556 14.8512,-15.3791 35.3646,-24.8847 58.0264,-24.8847 22.6323,0 43.1363,9.51024 57.9745,24.8953 14.5949,15.1288 23.6256,35.9351 23.6256,58.8449 0,22.9169 -9.02835,43.7162 -23.6185,58.839 -14.8429,15.3839 -35.3481,24.8882 -57.9815,24.8882 -22.6547,0 -43.1587,-9.52324 -58.0052,-24.8941 -14.6197,-15.1358 -23.6599,-35.9563 -23.6599,-58.8331z"/>
  <path class="fil4" d="M951.74 585.085c3.84213,-3.4689 7.67363,-6.92953 11.7484,-9.93898l0.0106299 0.0153543c7.80709,-5.79095 18.7453,-6.25158 27.1512,-0.379134 13.0228,9.08387 23.824,13.9016 33.6107,14.0221 9.39213,0.115748 19.6536,-4.21536 32.0882,-13.389 8.03386,-6.21024 19.5154,-6.61418 28.0736,-0.269292 4.07363,3.00945 7.90512,6.47008 11.7473,9.93898 5.43071,4.90394 10.911,9.85394 13.9772,9.85394 7.95709,0 17.0126,-3.58111 23.413,-6.11103 3.32953,-1.31575 6.17953,-2.44488 9.33544,-3.34961l0.0236221 0.0838583c7.65709,-2.2004 21.3603,-3.45945 35.0799,2.01614 8.97875,3.58347 18.0118,9.85749 25.4398,20.2831 1.53543,1.96181 2.77914,4.20473 3.64488,6.68741 13.7658,39.6201 -5.7,59.9658 -24.0366,79.1316 -3.59292,3.75355 -7.11497,7.43741 -9.66142,10.95 -0.548032,0.855119 -1.15866,1.68425 -1.83307,2.48032 -15.8091,18.678 -31.8662,47.1012 -42.5422,81.3473 -6.85867,22.0016 -11.4177,46.2579 -12.1654,71.6812 9.93544,-0.21378 20.1189,-0.204331 26.9658,0.764174 20.863,2.96221 35.2666,14.7969 43.2496,30.0697 4.55552,8.71182 6.8563,18.5079 6.92363,28.2921 0.0673229,9.60237 -2.06339,19.3406 -6.36851,28.1339 -7.76812,15.8728 -22.2083,28.5024 -43.167,32.0138 -10.3784,1.73622 -22.0004,1.56024 -32.4225,1.09488 -3.19961,23.6162 0.707481,55.4835 8.42127,90.091 13.5425,60.7678 38.9764,128.61 59.4922,177.91 29.7662,5.09882 48.5067,24.411 57.4052,47.0516 3.4937,8.89371 5.35867,18.4169 5.6752,27.8173 0.322441,9.54213 -0.951969,18.8823 -3.72874,27.2658 -2.55118,7.69961 -6.24804,14.7248 -11.0445,20.6599 4.55197,4.69607 8.58544,9.47481 12.0756,14.3256 10.3854,14.4319 16.0122,29.5713 16.3134,45.2492 0.263386,13.7988 -5.863,35.8311 -19.7256,52.8863 -2.3811,2.93032 -4.98544,5.74252 -7.8189,8.37993 4.06536,4.59922 7.75631,9.48426 11.0185,14.5665 10.0807,15.7016 16.2638,33.652 17.0173,51.2079 0.106299,0.901182 0.161811,1.8189 0.161811,2.74725 0,12.887 -10.448,23.3339 -23.3339,23.3339l-420 0 0 -0.090945 -0.274016 0c-12.8362,-0.15 -23.1189,-10.6795 -22.9689,-23.5158 0.251575,-18.3378 6.53386,-37.2425 17.0882,-53.6823 3.26221,-5.08229 6.95315,-9.96733 11.0197,-14.5665 -2.83347,-2.6374 -5.4378,-5.44961 -7.82008,-8.37993 -13.8626,-17.0551 -19.989,-39.0874 -19.7256,-52.8863 0.301181,-15.678 5.92796,-30.8173 16.3134,-45.2492 3.49488,-4.8567 7.53308,-9.64016 12.091,-14.341 -4.80709,-5.92796 -8.50985,-12.9473 -11.0599,-20.6445 -2.77677,-8.38229 -4.05118,-17.7236 -3.72874,-27.2646 0.316536,-9.40158 2.18032,-18.9248 5.6752,-27.8185 8.89843,-22.6406 27.639,-41.9528 57.4052,-47.0516 20.5158,-49.2993 45.9496,-117.142 59.4934,-177.91 7.7126,-34.6075 11.6197,-66.4749 8.42009,-90.091 -10.4221,0.465355 -22.0441,0.641339 -32.4225,-1.09488 -20.9587,-3.51142 -35.3977,-16.141 -43.167,-32.0126 -4.30276,-8.79449 -6.43347,-18.5315 -6.36851,-28.1351 0.0673229,-9.78426 2.36811,-19.5803 6.92363,-28.2921 7.98308,-15.274 22.3866,-27.1099 43.2496,-30.0697 6.84804,-0.968505 17.0303,-0.977954 26.9658,-0.764174 -0.747638,-25.4232 -5.30552,-49.6796 -12.1654,-71.6812 -10.676,-34.2461 -26.7331,-62.6693 -42.5422,-81.3473l0.0177165 -0.0141732c-0.485433,-0.574016 -0.948426,-1.17756 -1.38425,-1.80827 -2.57126,-3.70985 -6.31063,-7.6193 -10.128,-11.6079 -18.3366,-19.1658 -37.8012,-39.5114 -24.0366,-79.1316l0.0236221 0.00826772c0.651969,-1.86378 1.55079,-3.67441 2.71063,-5.38583 7.59213,-11.2146 17.0008,-17.8618 26.3504,-21.5929 12.1252,-4.83898 24.2339,-4.41733 32.1709,-2.73544 0.977954,0.147638 1.95709,0.357874 2.93268,0.635434 3.15591,0.904725 6.00591,2.03386 9.33544,3.34961 6.4004,2.52992 15.4571,6.11103 23.413,6.11103 3.06614,0 8.54646,-4.95 13.9772,-9.85394z"/>
  <path class="fil5" d="M1230.21 1493.43c3.62481,4.2189 6.9378,8.66694 9.89646,13.278 10.0807,15.7016 16.2638,33.652 17.0173,51.2079 0.106299,0.901182 0.161811,1.8189 0.161811,2.74725 0,12.887 -10.448,23.3339 -23.3339,23.3339l-420 0 0 -0.090945 -0.274016 0c-12.8362,-0.15 -23.1189,-10.6795 -22.9689,-23.5158 0.251575,-18.3378 6.53386,-37.2425 17.0882,-53.6823 2.95866,-4.61103 6.27166,-9.05906 9.89646,-13.278l412.517 0z"/>
  <path class="fil4" d="M1228.28 1371.34c4.53898,4.68544 8.56182,9.45237 12.0437,14.2925 10.3854,14.4319 16.0122,29.5713 16.3134,45.2492 0.263386,13.7988 -5.863,35.8311 -19.7256,52.8863 -2.3811,2.93032 -4.98544,5.74252 -7.8189,8.37993 0.376772,0.427559 0.751182,0.8563 1.12205,1.28858l-412.517 0c0.370866,-0.432284 0.745276,-0.861024 1.12323,-1.28858 -2.83347,-2.6374 -5.4378,-5.44961 -7.82008,-8.37993 -13.8626,-17.0551 -19.989,-39.0874 -19.7256,-52.8863 0.301181,-15.678 5.92796,-30.8173 16.3134,-45.2492 3.48189,-4.84016 7.50591,-9.60709 12.0437,-14.2925l408.648 0z"/>
  <path class="fil5" d="M1183.68 1249.24c27.6012,6.02245 45.1429,24.6461 53.6622,46.3217 3.4937,8.89371 5.35867,18.4169 5.6752,27.8173 0.322441,9.54213 -0.951969,18.8823 -3.72874,27.2658 -2.55118,7.69961 -6.24804,14.7248 -11.0445,20.6599l0.0318898 0.0330709 -408.648 0 0.0472441 -0.0484252c-4.80709,-5.92796 -8.50985,-12.9473 -11.0599,-20.6445 -2.77677,-8.38229 -4.05118,-17.7236 -3.72874,-27.2646 0.316536,-9.40158 2.18032,-18.9248 5.6752,-27.8185 8.5193,-21.6756 26.061,-40.2992 53.6622,-46.3217l319.455 0z"/>
  <path class="fil5" d="M1141.9 860.666c0.66378,0.0720473 1.30276,0.15 1.91575,0.237402 20.863,2.96221 35.2666,14.7969 43.2496,30.0697 4.55552,8.71182 6.8563,18.5079 6.92363,28.2921 0.0673229,9.60237 -2.06339,19.3406 -6.36851,28.1339 -7.76812,15.8728 -22.2083,28.5024 -43.167,32.0138 -10.3784,1.73622 -22.0004,1.56024 -32.4225,1.09488l-0.0543308 0.418111 -176.034 0 -0.0543308 -0.418111c-10.4221,0.465355 -22.0441,0.641339 -32.4225,-1.09488 -20.9587,-3.51142 -35.3977,-16.141 -43.167,-32.0126 -4.30276,-8.79449 -6.43347,-18.5315 -6.36851,-28.1351 0.0673229,-9.78426 2.36811,-19.5803 6.92363,-28.2921 7.98308,-15.274 22.3866,-27.1099 43.2496,-30.0697 0.612993,-0.0874016 1.25197,-0.165354 1.91575,-0.237402l235.88 0z"/>
  <path class="fil6" d="M942.323 547.74c0,-22.9169 9.03072,-43.728 23.6386,-58.8556 14.8512,-15.3791 35.3646,-24.8847 58.0264,-24.8847l0.0129921 0 0 167.467 -0.0129921 0c-22.6547,0 -43.1587,-9.52324 -58.0052,-24.8941 -14.6197,-15.1358 -23.6599,-35.9563 -23.6599,-58.8331z"/>
  <path class="fil7" d="M951.74 585.085c3.84213,-3.4689 7.67363,-6.92953 11.7484,-9.93898l0.0106299 0.0153543c7.80709,-5.79095 18.7453,-6.25158 27.1512,-0.379134 12.9083,9.00355 23.6339,13.8154 33.3508,14.0173l0 995.2 -210.046 0 0 -0.090945 -0.274016 0c-12.8362,-0.15 -23.1189,-10.6795 -22.9689,-23.5158 0.251575,-18.3378 6.53386,-37.2425 17.0882,-53.6823 3.26221,-5.08229 6.95315,-9.96733 11.0197,-14.5665 -2.83347,-2.6374 -5.4378,-5.44961 -7.82008,-8.37993 -13.8626,-17.0551 -19.989,-39.0874 -19.7256,-52.8863 0.301181,-15.678 5.92796,-30.8173 16.3134,-45.2492 3.49488,-4.8567 7.53308,-9.64016 12.091,-14.341 -4.80709,-5.92796 -8.50985,-12.9473 -11.0599,-20.6445 -2.77677,-8.38229 -4.05118,-17.7236 -3.72874,-27.2646 0.316536,-9.40158 2.18032,-18.9248 5.6752,-27.8185 8.89843,-22.6406 27.639,-41.9528 57.4052,-47.0516 20.5158,-49.2993 45.9496,-117.142 59.4934,-177.91 7.7126,-34.6075 11.6197,-66.4749 8.42009,-90.091 -10.4221,0.465355 -22.0441,0.641339 -32.4225,-1.09488 -20.9587,-3.51142 -35.3977,-16.141 -43.167,-32.0126 -4.30276,-8.79449 -6.43347,-18.5315 -6.36851,-28.1351 0.0673229,-9.78426 2.36811,-19.5803 6.92363,-28.2921 7.98308,-15.274 22.3866,-27.1099 43.2496,-30.0697 6.84804,-0.968505 17.0303,-0.977954 26.9658,-0.764174 -0.747638,-25.4232 -5.30552,-49.6796 -12.1654,-71.6812 -10.676,-34.2461 -26.7331,-62.6693 -42.5422,-81.3473l0.0177165 -0.0141732c-0.485433,-0.574016 -0.948426,-1.17756 -1.38425,-1.80827 -2.57126,-3.70985 -6.31063,-7.6193 -10.128,-11.6079 -18.3366,-19.1658 -37.8012,-39.5114 -24.0366,-79.1316l0.0236221 0.00826772c0.651969,-1.86378 1.55079,-3.67441 2.71063,-5.38583 7.59213,-11.2146 17.0008,-17.8618 26.3504,-21.5929 12.1252,-4.83898 24.2339,-4.41733 32.1709,-2.73544 0.977954,0.147638 1.95709,0.357874 2.93268,0.635434 3.15591,0.904725 6.00591,2.03386 9.33544,3.34961 6.4004,2.52992 15.4571,6.11103 23.413,6.11103 3.06614,0 8.54646,-4.95 13.9772,-9.85394z"/>
  <path class="fil8" d="M1024 1584l-210.046 0 0 -0.090945 -0.274016 0c-12.8362,-0.15 -23.1189,-10.6795 -22.9689,-23.5158 0.251575,-18.3378 6.53386,-37.2425 17.0882,-53.6823 2.95866,-4.61103 6.27166,-9.05906 9.89646,-13.278l206.304 0 0 90.567z"/>
  <path class="fil7" d="M1024 1493.43l-206.304 0c0.370866,-0.432284 0.745276,-0.861024 1.12323,-1.28858 -2.83347,-2.6374 -5.4378,-5.44961 -7.82008,-8.37993 -13.8626,-17.0551 -19.989,-39.0874 -19.7256,-52.8863 0.301181,-15.678 5.92796,-30.8173 16.3134,-45.2492 3.48189,-4.84016 7.50591,-9.60709 12.0437,-14.2925l204.37 0 0 122.097z"/>
  <path class="fil8" d="M1024 1371.34l-204.37 0 0.0472441 -0.0484252c-4.80709,-5.92796 -8.50985,-12.9473 -11.0599,-20.6445 -2.77677,-8.38229 -4.05118,-17.7236 -3.72874,-27.2646 0.316536,-9.40158 2.18032,-18.9248 5.6752,-27.8185 8.5193,-21.6756 26.061,-40.2992 53.6622,-46.3217l159.774 0 0 122.098z"/>
  <path class="fil8" d="M1024 980.926l-88.0631 0 -0.0543308 -0.418111c-10.4221,0.465355 -22.0441,0.641339 -32.4225,-1.09488 -20.9587,-3.51142 -35.3977,-16.141 -43.167,-32.0126 -4.30276,-8.79449 -6.43347,-18.5315 -6.36851,-28.1351 0.0673229,-9.78426 2.36811,-19.5803 6.92363,-28.2921 7.98308,-15.274 22.3866,-27.1099 43.2496,-30.0697 0.612993,-0.0874016 1.25197,-0.165354 1.91575,-0.237402l117.986 0 0 120.26z"/>
 </g>
</svg>
