<?xml version="1.0" encoding="UTF-8"?>
<!DOCTYPE svg PUBLIC "-//W3C//DTD SVG 1.1//EN" "http://www.w3.org/Graphics/SVG/1.1/DTD/svg11.dtd">
<!-- Creator: CorelDRAW -->
<svg xmlns="http://www.w3.org/2000/svg" xml:space="preserve" width="2048px" height="2048px" style="shape-rendering:geometricPrecision; text-rendering:geometricPrecision; image-rendering:optimizeQuality; fill-rule:evenodd; clip-rule:evenodd"
viewBox="0 0 2048 2048"
 xmlns:xlink="http://www.w3.org/1999/xlink">
 <defs>
  <style type="text/css">
   <![CDATA[
    .fil2 {fill:none}
    .fil1 {fill:#00897B}
    .fil0 {fill:#4DB6AC}
    .fil8 {fill:#3C3C3C;fill-rule:nonzero}
    .fil4 {fill:#424242;fill-rule:nonzero}
    .fil9 {fill:#656565;fill-rule:nonzero}
    .fil10 {fill:#6F6F6F;fill-rule:nonzero}
    .fil5 {fill:#757575;fill-rule:nonzero}
    .fil6 {fill:#828282;fill-rule:nonzero}
    .fil7 {fill:#FA8900;fill-rule:nonzero}
    .fil3 {fill:#FF9800;fill-rule:nonzero}
   ]]>
  </style>
   <clipPath id="id0">
    <path d="M1024 0c565.539,0 1024,458.461 1024,1024 0,565.539 -458.461,1024 -1024,1024 -565.539,0 -1024,-458.461 -1024,-1024 0,-565.539 458.461,-1024 1024,-1024z"/>
   </clipPath>
 </defs>
 <g id="Layer_x0020_1">
  <metadata id="CorelCorpID_0Corel-Layer"/>
  <path class="fil0" d="M1024 0c565.539,0 1024,458.461 1024,1024 0,565.539 -458.461,1024 -1024,1024 -565.539,0 -1024,-458.461 -1024,-1024 0,-565.539 458.461,-1024 1024,-1024z"/>
  <g style="clip-path:url(#id0)">
   <g id="_478212544">
    <g>
     <path id="_3926310481" class="fil1" d="M2585.21 2334.89l0 0zm-1135.88 -1135.88l0 0z"/>
     <path id="_392629128" class="fil1" d="M2583.28 2334.79l0 0zm-1135.88 -1135.88l0 0z"/>
     <path id="_392618184" class="fil1" d="M2581.37 2334.64l0 0zm-1135.88 -1135.88l0 0z"/>
     <path id="_392638896" class="fil1" d="M1738.39 2334.64l0 0zm-1135.88 -1135.88l0 0z"/>
     <path id="_392613672" class="fil1" d="M1735.19 2334.87l0 0zm-1135.88 -1135.88l0 0z"/>
     <polygon id="_392615928" class="fil1" points="1430.69,800.35 2566.57,1936.23 2567.52,1937.35 2568.44,1938.5 2569.33,1939.66 2570.2,1940.85 2571.04,1942.05 2571.84,1943.28 2572.62,1944.53 2573.36,1945.79 2574.07,1947.08 2574.76,1948.38 2575.4,1949.7 2576.02,1951.03 2576.6,1952.39 2577.15,1953.76 2577.67,1955.15 2578.15,1956.55 2578.59,1957.96 2579,1959.39 2579.37,1960.84 2579.7,1962.3 2580,1963.77 2580.26,1965.25 2580.48,1966.75 2580.66,1968.25 2580.8,1969.77 2580.9,1971.3 2580.97,1972.84 2580.99,1974.39 1445.11,838.505 1445.09,836.957 1445.02,835.418 1444.92,833.89 1444.78,832.372 1444.6,830.865 1444.38,829.37 1444.12,827.886 1443.82,826.414 1443.49,824.957 1443.12,823.512 1442.71,822.081 1442.26,820.665 1441.78,819.263 1441.27,817.877 1440.72,816.507 1440.14,815.153 1439.52,813.816 1438.87,812.495 1438.19,811.194 1437.48,809.908 1436.74,808.644 1435.96,807.397 1435.15,806.17 1434.32,804.964 1433.45,803.779 1432.56,802.614 1431.64,801.471 "/>
     <polygon id="_392638968" class="fil1" points="1445.11,838.505 2580.99,1974.39 2580.99,1985.17 1445.11,849.283 "/>
     <polygon id="_392637336" class="fil1" points="1526.63,866.871 2662.51,2002.75 2664.18,2004.7 2665.75,2006.71 2667.2,2008.8 2668.53,2010.96 2669.73,2013.18 2670.81,2015.47 2671.76,2017.81 2672.57,2020.21 2673.24,2022.66 2673.77,2025.16 2674.15,2027.71 2674.39,2030.3 2674.46,2032.94 1538.58,897.055 1538.51,894.422 1538.27,891.831 1537.89,889.282 1537.36,886.781 1536.69,884.327 1535.87,881.929 1534.93,879.584 1533.85,877.3 1532.64,875.077 1531.32,872.919 1529.87,870.831 1528.3,868.814 "/>
     <polygon id="_392627232" class="fil1" points="1538.58,897.055 2674.46,2032.94 2674.46,2124.88 1538.58,989 "/>
     <polygon id="_392635920" class="fil1" points="1573.7,994.978 2709.58,2130.86 2711.38,2132.88 2713.04,2135.13 2714.55,2137.62 2715.89,2140.31 2717.06,2143.2 2718.05,2146.26 2718.83,2149.47 2719.41,2152.83 2719.76,2156.3 2719.88,2159.88 1584,1024 1583.88,1020.42 1583.53,1016.95 1582.95,1013.59 1582.16,1010.38 1581.18,1007.32 1580.01,1004.43 1578.66,1001.74 1577.16,999.251 1575.5,996.993 "/>
     <polygon id="_392626272" class="fil1" points="1584,1024 2719.88,2159.88 2719.76,2163.46 2719.41,2166.94 2718.83,2170.29 2718.05,2173.51 2717.06,2176.56 2715.89,2179.45 2714.55,2182.14 2713.04,2184.63 2711.38,2186.89 2709.58,2188.9 2707.65,2190.66 2705.61,2192.13 2703.46,2193.31 2701.22,2194.17 2698.9,2194.7 2696.51,2194.88 1560.63,1059 1563.02,1058.82 1565.34,1058.29 1567.58,1057.43 1569.73,1056.25 1571.77,1054.77 1573.7,1053.02 1575.5,1051.01 1577.16,1048.75 1578.66,1046.26 1580.01,1043.57 1581.18,1040.68 1582.16,1037.62 1582.95,1034.41 1583.53,1031.05 1583.88,1027.58 "/>
     <polygon id="_392629608" class="fil1" points="1560.63,1059 2696.51,2194.88 2674.46,2194.88 1538.58,1059 "/>
     <polygon id="_380776912" class="fil1" points="1538.58,1059 2674.46,2194.88 2674.46,2286.83 1538.58,1150.95 "/>
     <polygon id="_380789104" class="fil1" points="1538.58,1150.95 2674.46,2286.83 2674.39,2289.46 2674.15,2292.05 2673.77,2294.6 2673.24,2297.11 2672.57,2299.56 2671.76,2301.96 2670.81,2304.3 2669.73,2306.59 2668.53,2308.81 2667.2,2310.97 2665.75,2313.05 2664.18,2315.07 2662.51,2317.01 2660.72,2318.88 2658.83,2320.66 2656.84,2322.36 1520.96,1186.48 1522.95,1184.78 1524.84,1183 1526.63,1181.13 1528.3,1179.19 1529.87,1177.17 1531.32,1175.08 1532.64,1172.93 1533.85,1170.7 1534.93,1168.42 1535.87,1166.07 1536.69,1163.67 1537.36,1161.22 1537.89,1158.72 1538.27,1156.17 1538.51,1153.58 "/>
     <polygon id="_380788312" class="fil1" points="1520.96,1186.48 2656.84,2322.36 2655.02,2323.78 2653.12,2325.13 2651.15,2326.4 2649.11,2327.59 2647.01,2328.71 2644.84,2329.74 2642.63,2330.69 2640.35,2331.55 2638.03,2332.32 2635.66,2332.99 2633.24,2333.57 2630.79,2334.05 2628.29,2334.43 2625.77,2334.7 2623.21,2334.87 2620.63,2334.92 1484.75,1199.04 1487.33,1198.98 1489.89,1198.82 1492.41,1198.54 1494.91,1198.17 1497.36,1197.69 1499.78,1197.11 1502.15,1196.43 1504.47,1195.66 1506.74,1194.81 1508.96,1193.86 1511.13,1192.83 1513.23,1191.71 1515.27,1190.52 1517.24,1189.24 1519.14,1187.9 "/>
     <polygon id="_380776480" class="fil1" points="1484.75,1199.04 2620.63,2334.92 2619.7,2334.92 1483.82,1199.04 "/>
     <polygon id="_380767936" class="fil1" points="1483.82,1199.04 2619.7,2334.92 2588.08,2334.92 1452.2,1199.04 "/>
     <polygon id="_380782264" class="fil1" points="1452.2,1199.04 2588.08,2334.92 2587.97,2334.92 1452.09,1199.04 "/>
     <polygon id="_380781184" class="fil1" points="1452.09,1199.04 2587.97,2334.92 2587.86,2334.92 1451.98,1199.04 "/>
     <polygon id="_380777992" class="fil1" points="1451.98,1199.04 2587.86,2334.92 2587.15,2334.92 1451.27,1199.04 "/>
     <polygon id="_380767912" class="fil1" points="1451.27,1199.04 2587.15,2334.92 2587.05,2334.92 1451.17,1199.04 "/>
     <polygon id="_380772280" class="fil1" points="1451.17,1199.04 2587.05,2334.92 2586.96,2334.92 1451.07,1199.04 "/>
     <polygon id="_380769208" class="fil1" points="1451.07,1199.04 2586.96,2334.92 2586.86,2334.92 1450.98,1199.04 "/>
     <polygon id="_380763376" class="fil1" points="1450.98,1199.04 2586.86,2334.92 2586.76,2334.92 1450.88,1199.04 "/>
     <polygon id="_380784160" class="fil1" points="1450.88,1199.04 2586.76,2334.92 2586.66,2334.92 1450.78,1199.04 "/>
     <polygon id="_380764120" class="fil1" points="1450.78,1199.04 2586.66,2334.92 2586.57,2334.92 1450.68,1199.04 "/>
     <polygon id="_380760448" class="fil1" points="1450.68,1199.04 2586.57,2334.92 2586.5,2334.92 1450.62,1199.03 "/>
     <polygon id="_380762224" class="fil1" points="1450.62,1199.03 2586.5,2334.92 2586.47,2334.92 1450.59,1199.03 "/>
     <polygon id="_380780344" class="fil1" points="1450.59,1199.03 2586.47,2334.92 2586.37,2334.92 1450.49,1199.03 "/>
     <polygon id="_380763496" class="fil1" points="1450.49,1199.03 2586.37,2334.92 2586.18,2334.91 1450.3,1199.03 "/>
     <polygon id="_380780584" class="fil1" points="1450.3,1199.03 2586.18,2334.91 2586.08,2334.91 1450.2,1199.03 "/>
     <polygon id="_380779216" class="fil1" points="1450.2,1199.03 2586.08,2334.91 2585.98,2334.91 1450.1,1199.03 "/>
     <polygon id="_380779480" class="fil1" points="1450.1,1199.03 2585.98,2334.91 2585.89,2334.91 1450,1199.03 "/>
     <polygon id="_380765008" class="fil1" points="1450,1199.03 2585.89,2334.91 2585.86,2334.91 1449.97,1199.02 "/>
     <polygon id="_380788264" class="fil1" points="1449.97,1199.02 2585.86,2334.91 2585.79,2334.91 1449.91,1199.02 "/>
     <polygon id="_380789272" class="fil1" points="1449.91,1199.02 2585.79,2334.91 2585.69,2334.9 1449.81,1199.02 "/>
     <polygon id="_380774896" class="fil1" points="1449.81,1199.02 2585.69,2334.9 2585.4,2334.89 1449.52,1199.01 "/>
     <polygon id="_380761960" class="fil1" points="1449.52,1199.01 2585.4,2334.89 2585.3,2334.89 1449.42,1199.01 "/>
     <polygon id="_380770840" class="fil1" points="1449.42,1199.01 2585.3,2334.89 2585.21,2334.89 1449.33,1199.01 "/>
     <polygon id="_380774944" class="fil1" points="1449.33,1199.01 2585.21,2334.89 2585.11,2334.89 1449.23,1199 "/>
     <polygon id="_380765224" class="fil1" points="1449.23,1199 2585.11,2334.89 2584.82,2334.87 1448.94,1198.99 "/>
     <polygon id="_380767024" class="fil1" points="1448.94,1198.99 2584.82,2334.87 2584.72,2334.87 1448.84,1198.99 "/>
     <polygon id="_380765536" class="fil1" points="1448.84,1198.99 2584.72,2334.87 2584.63,2334.87 1448.75,1198.99 "/>
     <polygon id="_380769832" class="fil1" points="1448.75,1198.99 2584.63,2334.87 2584.57,2334.87 1448.69,1198.98 "/>
     <polygon id="_380791840" class="fil1" points="1448.69,1198.98 2584.57,2334.87 2584.53,2334.86 1448.65,1198.98 "/>
     <polygon id="_380773000" class="fil1" points="1448.65,1198.98 2584.53,2334.86 2584.43,2334.86 1448.55,1198.98 "/>
     <polygon id="_380779432" class="fil1" points="1448.55,1198.98 2584.43,2334.86 2584.34,2334.85 1448.46,1198.97 "/>
     <polygon id="_380791120" class="fil1" points="1448.46,1198.97 2584.34,2334.85 2584.24,2334.85 1448.36,1198.97 "/>
     <polygon id="_380770000" class="fil1" points="1448.36,1198.97 2584.24,2334.85 2584.15,2334.85 1448.26,1198.96 "/>
     <polygon id="_380784304" class="fil1" points="1448.26,1198.96 2584.15,2334.85 2584.05,2334.84 1448.17,1198.96 "/>
     <polygon id="_380772136" class="fil1" points="1448.17,1198.96 2584.05,2334.84 2583.95,2334.83 1448.07,1198.95 "/>
     <polygon id="_380766064" class="fil1" points="1448.07,1198.95 2583.95,2334.83 2583.93,2334.83 1448.04,1198.95 "/>
     <polygon id="_380778328" class="fil1" points="1448.04,1198.95 2583.93,2334.83 2583.86,2334.83 1447.97,1198.95 "/>
     <polygon id="_380787160" class="fil1" points="1447.97,1198.95 2583.86,2334.83 2583.76,2334.82 1447.88,1198.94 "/>
     <polygon id="_380792416" class="fil1" points="1447.88,1198.94 2583.76,2334.82 2583.57,2334.81 1447.69,1198.93 "/>
     <polygon id="_380765320" class="fil1" points="1447.69,1198.93 2583.57,2334.81 2583.47,2334.81 1447.59,1198.92 "/>
     <polygon id="_380778112" class="fil1" points="1447.59,1198.92 2583.47,2334.81 2583.38,2334.8 1447.49,1198.92 "/>
     <polygon id="_380775904" class="fil1" points="1447.49,1198.92 2583.38,2334.8 2583.28,2334.79 1447.4,1198.91 "/>
     <polygon id="_380790424" class="fil1" points="1447.4,1198.91 2583.28,2334.79 2583.18,2334.79 1447.3,1198.91 "/>
     <polygon id="_380764312" class="fil1" points="1447.3,1198.91 2583.18,2334.79 2583.09,2334.78 1447.21,1198.9 "/>
     <polygon id="_380791408" class="fil1" points="1447.21,1198.9 2583.09,2334.78 2582.99,2334.78 1447.11,1198.89 "/>
     <polygon id="_380787856" class="fil1" points="1447.11,1198.89 2582.99,2334.78 2582.9,2334.77 1447.01,1198.89 "/>
     <polygon id="_380770360" class="fil1" points="1447.01,1198.89 2582.9,2334.77 2582.8,2334.76 1446.92,1198.88 "/>
     <polygon id="_380760592" class="fil1" points="1446.92,1198.88 2582.8,2334.76 2582.7,2334.75 1446.82,1198.87 "/>
     <polygon id="_380774056" class="fil1" points="1446.82,1198.87 2582.7,2334.75 2582.65,2334.75 1446.77,1198.87 "/>
     <polygon id="_380790688" class="fil1" points="1446.77,1198.87 2582.65,2334.75 2582.61,2334.75 1446.73,1198.86 "/>
     <polygon id="_380774440" class="fil1" points="1446.73,1198.86 2582.61,2334.75 2582.51,2334.74 1446.63,1198.86 "/>
     <polygon id="_380761216" class="fil1" points="1446.63,1198.86 2582.51,2334.74 2582.42,2334.73 1446.54,1198.85 "/>
     <polygon id="_380779264" class="fil1" points="1446.54,1198.85 2582.42,2334.73 2582.32,2334.72 1446.44,1198.84 "/>
     <polygon id="_380772856" class="fil1" points="1446.44,1198.84 2582.32,2334.72 2582.23,2334.72 1446.34,1198.83 "/>
     <polygon id="_380774656" class="fil1" points="1446.34,1198.83 2582.23,2334.72 2582.13,2334.71 1446.25,1198.83 "/>
     <polygon id="_380780776" class="fil1" points="1446.25,1198.83 2582.13,2334.71 2582.03,2334.7 1446.15,1198.82 "/>
     <polygon id="_380787256" class="fil1" points="1446.15,1198.82 2582.03,2334.7 2582.01,2334.7 1446.13,1198.82 "/>
     <polygon id="_380788240" class="fil1" points="1446.13,1198.82 2582.01,2334.7 2581.94,2334.69 1446.06,1198.81 "/>
     <polygon id="_380764840" class="fil1" points="1446.06,1198.81 2581.94,2334.69 2581.84,2334.68 1445.96,1198.8 "/>
     <polygon id="_380779984" class="fil1" points="1445.96,1198.8 2581.84,2334.68 2581.75,2334.68 1445.87,1198.79 "/>
     <polygon id="_380782096" class="fil1" points="1445.87,1198.79 2581.75,2334.68 2581.65,2334.67 1445.77,1198.78 "/>
     <polygon id="_380786512" class="fil1" points="1445.77,1198.78 2581.65,2334.67 2581.56,2334.66 1445.68,1198.77 "/>
     <polygon id="_380770768" class="fil1" points="1445.68,1198.77 2581.56,2334.66 2581.46,2334.65 1445.58,1198.77 "/>
     <polygon id="_380789872" class="fil1" points="1445.58,1198.77 2581.46,2334.65 2581.37,2334.64 1445.49,1198.76 "/>
     <polygon id="_380785984" class="fil1" points="1445.49,1198.76 2581.37,2334.64 2581.27,2334.63 1445.39,1198.75 "/>
     <polygon id="_380777368" class="fil1" points="1445.39,1198.75 2581.27,2334.63 2581.18,2334.62 1445.3,1198.74 "/>
     <polygon id="_380791384" class="fil1" points="1445.3,1198.74 2581.18,2334.62 2581.08,2334.61 1445.2,1198.73 "/>
     <polygon id="_380788096" class="fil1" points="1445.2,1198.73 2581.08,2334.61 2580.99,2334.6 1445.11,1198.72 "/>
     <polygon id="_380769928" class="fil1" points="1445.11,1198.72 2580.99,2334.6 2580.99,2345.38 1445.11,1209.49 "/>
     <polygon id="_380762872" class="fil1" points="749.979,797.124 1885.86,1933.01 1886.89,1934.06 1887.9,1935.13 1888.87,1936.23 1889.82,1937.35 1890.75,1938.5 1891.64,1939.66 1892.5,1940.85 1893.34,1942.05 1894.15,1943.28 1894.92,1944.53 1895.67,1945.79 1896.38,1947.08 1897.06,1948.38 1897.71,1949.7 1898.32,1951.03 1898.91,1952.39 1899.46,1953.76 1899.97,1955.15 1900.45,1956.55 1900.89,1957.96 1901.3,1959.39 1901.67,1960.84 1902.01,1962.3 1902.3,1963.77 1902.56,1965.25 1902.78,1966.75 1902.96,1968.25 1903.11,1969.77 1903.21,1971.3 1903.27,1972.84 1903.29,1974.39 767.41,838.505 767.39,836.957 767.327,835.418 767.226,833.89 767.083,832.372 766.902,830.865 766.681,829.37 766.423,827.886 766.125,826.416 765.791,824.957 765.42,823.512 765.011,822.082 764.568,820.665 764.089,819.264 763.575,817.877 763.026,816.507 762.443,815.153 761.827,813.816 761.179,812.496 760.497,811.194 759.785,809.91 759.04,808.645 758.265,807.397 757.458,806.171 756.623,804.964 755.757,803.779 754.864,802.614 753.942,801.471 752.991,800.35 752.014,799.251 751.009,798.175 "/>
     <polygon id="_380785264" class="fil1" points="767.41,838.505 1903.29,1974.39 1903.29,2124.88 767.41,989 "/>
     <polygon id="_380776168" class="fil1" points="1280.59,1059 2416.47,2194.88 1903.29,2194.88 767.41,1059 "/>
     <polygon id="_380768824" class="fil1" points="1382.92,1269 2518.8,2404.88 2518.6,2404.88 1382.72,1269 "/>
     <polygon id="_380780872" class="fil1" points="1382.72,1269 2518.6,2404.88 2477.92,2404.88 1342.03,1269 "/>
     <polygon id="_380787976" class="fil1" points="1342.03,1269 2477.92,2404.88 2476.36,2404.86 2474.81,2404.81 2473.28,2404.71 2471.75,2404.58 2470.23,2404.41 2468.72,2404.21 2467.23,2403.97 2465.74,2403.7 2464.27,2403.39 2462.82,2403.04 2461.37,2402.67 2459.94,2402.26 2458.52,2401.81 2457.12,2401.34 2455.73,2400.83 2454.36,2400.29 2453.01,2399.72 2451.67,2399.12 2450.35,2398.49 2449.04,2397.83 2447.76,2397.14 2446.49,2396.43 2445.24,2395.68 2444.01,2394.91 2442.81,2394.11 2441.62,2393.28 2440.45,2392.43 2439.31,2391.55 2438.19,2390.65 2437.09,2389.72 2436.01,2388.76 2434.96,2387.79 1299.08,1251.9 1300.13,1252.88 1301.21,1253.83 1302.31,1254.76 1303.43,1255.67 1304.57,1256.55 1305.74,1257.4 1306.93,1258.23 1308.13,1259.03 1309.36,1259.8 1310.61,1260.54 1311.88,1261.26 1313.16,1261.95 1314.46,1262.61 1315.79,1263.24 1317.12,1263.84 1318.48,1264.41 1319.85,1264.95 1321.24,1265.45 1322.64,1265.93 1324.06,1266.37 1325.49,1266.78 1326.93,1267.16 1328.39,1267.5 1329.86,1267.81 1331.35,1268.09 1332.84,1268.33 1334.35,1268.53 1335.87,1268.7 1337.39,1268.83 1338.93,1268.93 1340.48,1268.98 "/>
     <polygon id="_380770408" class="fil1" points="1299.08,1251.9 2434.96,2387.79 2433.9,2386.76 1298.02,1250.88 "/>
     <polygon id="_380770264" class="fil1" points="1445.11,1209.49 2580.99,2345.38 2580.97,2346.93 2580.9,2348.46 2580.8,2349.99 2580.66,2351.51 2580.48,2353.02 2580.26,2354.51 2580,2356 2579.7,2357.47 2579.37,2358.93 2579,2360.37 2578.59,2361.8 2578.15,2363.22 2577.67,2364.62 2577.15,2366 2576.6,2367.38 2576.02,2368.73 2575.41,2370.07 2574.76,2371.39 2574.08,2372.69 2573.36,2373.97 2572.62,2375.24 2571.84,2376.48 2571.04,2377.71 2570.2,2378.92 2569.34,2380.1 2568.44,2381.27 2567.52,2382.41 2566.57,2383.53 2565.59,2384.63 2564.59,2385.71 2563.56,2386.76 2562.5,2387.79 1426.62,1251.9 1427.68,1250.88 1428.71,1249.82 1429.71,1248.75 1430.69,1247.65 1431.64,1246.53 1432.56,1245.39 1433.45,1244.22 1434.32,1243.04 1435.16,1241.83 1435.96,1240.6 1436.74,1239.36 1437.48,1238.09 1438.19,1236.81 1438.87,1235.5 1439.52,1234.19 1440.14,1232.85 1440.72,1231.49 1441.27,1230.12 1441.78,1228.74 1442.26,1227.34 1442.71,1225.92 1443.12,1224.49 1443.49,1223.04 1443.82,1221.59 1444.12,1220.11 1444.38,1218.63 1444.6,1217.14 1444.78,1215.63 1444.92,1214.11 1445.02,1212.58 1445.09,1211.04 "/>
     <polygon id="_380760352" class="fil1" points="767.41,1059 1903.29,2194.88 1903.29,2345.38 767.41,1209.49 "/>
     <polygon id="_380791888" class="fil1" points="767.41,1209.49 1903.29,2345.38 1903.27,2346.93 1903.21,2348.46 1903.11,2349.99 1902.96,2351.51 1902.78,2353.02 1902.56,2354.51 1902.3,2356 1902.01,2357.47 1901.67,2358.93 1901.3,2360.37 1900.89,2361.8 1900.45,2363.22 1899.97,2364.62 1899.46,2366 1898.91,2367.38 1898.32,2368.73 1897.71,2370.07 1897.06,2371.39 1896.38,2372.69 1895.67,2373.97 1894.92,2375.24 1894.15,2376.48 1893.34,2377.71 1892.5,2378.92 1891.64,2380.1 1890.75,2381.27 1889.82,2382.41 1888.87,2383.53 1887.9,2384.63 1886.89,2385.71 1885.86,2386.76 1884.8,2387.79 748.922,1251.9 749.979,1250.88 751.009,1249.82 752.014,1248.75 752.991,1247.65 753.942,1246.53 754.864,1245.39 755.757,1244.22 756.623,1243.04 757.458,1241.83 758.265,1240.6 759.04,1239.36 759.785,1238.09 760.497,1236.81 761.179,1235.5 761.827,1234.18 762.443,1232.85 763.026,1231.49 763.575,1230.12 764.089,1228.74 764.568,1227.34 765.011,1225.92 765.42,1224.49 765.791,1223.04 766.125,1221.58 766.423,1220.11 766.681,1218.63 766.902,1217.14 767.083,1215.63 767.226,1214.11 767.327,1212.58 767.39,1211.04 "/>
     <polygon id="_380781400" class="fil1" points="510.35,1059 1646.23,2194.88 1623.25,2194.88 487.368,1059 "/>
     <polygon id="_380790640" class="fil1" points="603.826,1198.61 1739.71,2334.5 1739.65,2334.5 603.767,1198.62 "/>
     <polygon id="_380789464" class="fil1" points="596.731,1199.04 1732.61,2334.92 1700.06,2334.92 564.182,1199.04 "/>
     <polygon id="_380767744" class="fil1" points="603.767,1198.62 1739.65,2334.5 1739.6,2334.51 603.717,1198.63 "/>
     <polygon id="_380772760" class="fil1" points="603.717,1198.63 1739.6,2334.51 1739.49,2334.52 603.608,1198.64 "/>
     <polygon id="_380784424" class="fil1" points="603.608,1198.64 1739.49,2334.52 1739.27,2334.55 603.389,1198.67 "/>
     <polygon id="_380787232" class="fil1" points="603.389,1198.67 1739.27,2334.55 1739.16,2334.56 603.28,1198.68 "/>
     <polygon id="_380761240" class="fil1" points="603.28,1198.68 1739.16,2334.56 1739.05,2334.57 603.171,1198.69 "/>
     <polygon id="_380766424" class="fil1" points="603.171,1198.69 1739.05,2334.57 1739.02,2334.58 603.136,1198.69 "/>
     <polygon id="_380767336" class="fil1" points="603.136,1198.69 1739.02,2334.58 1738.94,2334.58 603.061,1198.7 "/>
     <polygon id="_380783920" class="fil1" points="603.061,1198.7 1738.94,2334.58 1738.83,2334.59 602.952,1198.71 "/>
     <polygon id="_380763424" class="fil1" points="602.952,1198.71 1738.83,2334.59 1738.72,2334.61 602.842,1198.72 "/>
     <polygon id="_380783344" class="fil1" points="602.842,1198.72 1738.72,2334.61 1738.61,2334.62 602.732,1198.74 "/>
     <polygon id="_380784832" class="fil1" points="602.732,1198.74 1738.61,2334.62 1738.5,2334.63 602.623,1198.75 "/>
     <polygon id="_380762632" class="fil1" points="602.623,1198.75 1738.5,2334.63 1738.39,2334.64 602.504,1198.76 "/>
     <polygon id="_380761576" class="fil1" points="602.504,1198.76 1738.39,2334.64 1738.28,2334.65 602.403,1198.77 "/>
     <polygon id="_380788456" class="fil1" points="602.403,1198.77 1738.28,2334.65 1738.17,2334.66 602.293,1198.78 "/>
     <polygon id="_380780440" class="fil1" points="602.293,1198.78 1738.17,2334.66 1737.95,2334.68 602.073,1198.8 "/>
     <polygon id="_380773672" class="fil1" points="602.073,1198.8 1737.95,2334.68 1737.84,2334.69 601.963,1198.81 "/>
     <polygon id="_380788552" class="fil1" points="601.963,1198.81 1737.84,2334.69 1737.75,2334.7 601.87,1198.82 "/>
     <polygon id="_380786920" class="fil1" points="601.87,1198.82 1737.75,2334.7 1737.73,2334.7 601.854,1198.82 "/>
     <polygon id="_380784568" class="fil1" points="601.854,1198.82 1737.73,2334.7 1737.62,2334.71 601.743,1198.83 "/>
     <polygon id="_380764240" class="fil1" points="601.743,1198.83 1737.62,2334.71 1737.51,2334.72 601.633,1198.84 "/>
     <polygon id="_380760280" class="fil1" points="601.633,1198.84 1737.51,2334.72 1737.4,2334.73 601.523,1198.85 "/>
     <polygon id="_380784952" class="fil1" points="601.523,1198.85 1737.4,2334.73 1737.29,2334.74 601.412,1198.85 "/>
     <polygon id="_380785048" class="fil1" points="601.412,1198.85 1737.29,2334.74 1737.18,2334.75 601.302,1198.86 "/>
     <polygon id="_380763664" class="fil1" points="601.302,1198.86 1737.18,2334.75 1737.11,2334.75 601.234,1198.87 "/>
     <polygon id="_380769448" class="fil1" points="601.234,1198.87 1737.11,2334.75 1737.07,2334.75 601.191,1198.87 "/>
     <polygon id="_380767384" class="fil1" points="601.191,1198.87 1737.07,2334.75 1736.96,2334.76 601.081,1198.88 "/>
     <polygon id="_380790520" class="fil1" points="601.081,1198.88 1736.96,2334.76 1736.85,2334.77 600.97,1198.89 "/>
     <polygon id="_380787472" class="fil1" points="600.97,1198.89 1736.85,2334.77 1736.74,2334.78 600.859,1198.9 "/>
     <polygon id="_380792032" class="fil1" points="600.859,1198.9 1736.74,2334.78 1736.63,2334.78 600.749,1198.9 "/>
     <polygon id="_380770936" class="fil1" points="600.749,1198.9 1736.63,2334.78 1736.52,2334.79 600.638,1198.91 "/>
     <polygon id="_380777008" class="fil1" points="600.638,1198.91 1736.52,2334.79 1736.48,2334.8 600.596,1198.91 "/>
     <polygon id="_380761984" class="fil1" points="600.596,1198.91 1736.48,2334.8 1736.41,2334.8 600.527,1198.92 "/>
     <polygon id="_380770720" class="fil1" points="600.527,1198.92 1736.41,2334.8 1736.19,2334.81 600.305,1198.93 "/>
     <polygon id="_380790184" class="fil1" points="600.305,1198.93 1736.19,2334.81 1736.08,2334.82 600.194,1198.94 "/>
     <polygon id="_380763448" class="fil1" points="600.194,1198.94 1736.08,2334.82 1735.96,2334.83 600.083,1198.94 "/>
     <polygon id="_380761168" class="fil1" points="600.083,1198.94 1735.96,2334.83 1735.85,2334.83 599.972,1198.95 "/>
     <polygon id="_380761696" class="fil1" points="599.972,1198.95 1735.85,2334.83 1735.84,2334.83 599.956,1198.95 "/>
     <polygon id="_380778088" class="fil1" points="599.956,1198.95 1735.84,2334.83 1735.63,2334.84 599.75,1198.96 "/>
     <polygon id="_380771896" class="fil1" points="599.75,1198.96 1735.63,2334.84 1735.52,2334.85 599.639,1198.97 "/>
     <polygon id="_380783392" class="fil1" points="599.639,1198.97 1735.52,2334.85 1735.41,2334.86 599.528,1198.97 "/>
     <polygon id="_380785912" class="fil1" points="599.528,1198.97 1735.41,2334.86 1735.3,2334.86 599.417,1198.98 "/>
     <polygon id="_380769160" class="fil1" points="599.417,1198.98 1735.3,2334.86 1735.19,2334.87 599.305,1198.98 "/>
     <polygon id="_380765464" class="fil1" points="599.305,1198.98 1735.19,2334.87 1735.07,2334.87 599.194,1198.99 "/>
     <polygon id="_380789944" class="fil1" points="599.194,1198.99 1735.07,2334.87 1734.96,2334.87 599.083,1198.99 "/>
     <polygon id="_380777416" class="fil1" points="599.083,1198.99 1734.96,2334.87 1734.85,2334.88 598.971,1199 "/>
     <polygon id="_380772928" class="fil1" points="598.971,1199 1734.85,2334.88 1734.74,2334.88 598.86,1199 "/>
     <polygon id="_380777896" class="fil1" points="598.86,1199 1734.74,2334.88 1734.63,2334.89 598.747,1199 "/>
     <polygon id="_380764360" class="fil1" points="598.747,1199 1734.63,2334.89 1734.55,2334.89 598.671,1199.01 "/>
     <polygon id="_380772664" class="fil1" points="598.671,1199.01 1734.55,2334.89 1734.52,2334.89 598.636,1199.01 "/>
     <polygon id="_380780512" class="fil1" points="598.636,1199.01 1734.52,2334.89 1734.41,2334.89 598.524,1199.01 "/>
     <polygon id="_380759872" class="fil1" points="598.524,1199.01 1734.41,2334.89 1734.07,2334.9 598.189,1199.02 "/>
     <polygon id="_380771944" class="fil1" points="598.189,1199.02 1734.07,2334.9 1733.96,2334.91 598.078,1199.02 "/>
     <polygon id="_380791264" class="fil1" points="598.078,1199.02 1733.96,2334.91 1733.91,2334.91 598.026,1199.02 "/>
     <polygon id="_380774968" class="fil1" points="598.026,1199.02 1733.91,2334.91 1733.85,2334.91 597.965,1199.03 "/>
     <polygon id="_380767048" class="fil1" points="597.965,1199.03 1733.85,2334.91 1733.73,2334.91 597.853,1199.03 "/>
     <polygon id="_380784472" class="fil1" points="597.853,1199.03 1733.73,2334.91 1733.51,2334.91 597.629,1199.03 "/>
     <polygon id="_380783008" class="fil1" points="597.629,1199.03 1733.51,2334.91 1733.4,2334.92 597.518,1199.03 "/>
     <polygon id="_380761384" class="fil1" points="597.518,1199.03 1733.4,2334.92 1733.29,2334.92 597.406,1199.03 "/>
     <polygon id="_380777968" class="fil1" points="597.406,1199.03 1733.29,2334.92 1733.26,2334.92 597.38,1199.03 "/>
     <polygon id="_380780392" class="fil1" points="597.38,1199.03 1733.26,2334.92 1733.17,2334.92 597.293,1199.04 "/>
     <polygon id="_380766808" class="fil1" points="597.293,1199.04 1733.17,2334.92 1732.61,2334.92 596.731,1199.04 "/>
     <polygon id="_380776120" class="fil1" points="487.368,1059 1623.25,2194.88 1620.86,2194.7 1618.54,2194.17 1616.3,2193.31 1614.15,2192.13 1612.11,2190.66 476.229,1054.77 478.272,1056.25 480.42,1057.43 482.659,1058.29 484.979,1058.82 "/>
     <polygon id="_380769232" class="fil1" points="665.278,1269 1801.16,2404.88 1799.6,2404.86 1798.06,2404.81 1796.52,2404.71 1794.99,2404.58 1793.47,2404.41 1791.97,2404.21 1790.47,2403.97 1788.99,2403.7 1787.51,2403.39 1786.06,2403.04 1784.61,2402.67 1783.18,2402.26 1781.76,2401.81 1780.36,2401.34 1778.97,2400.83 1777.6,2400.29 1776.25,2399.72 1774.91,2399.12 1773.59,2398.49 1772.28,2397.83 1771,2397.14 1769.73,2396.43 1768.48,2395.68 1767.25,2394.91 1766.05,2394.11 1764.86,2393.28 1763.69,2392.43 1762.55,2391.55 1761.43,2390.65 1760.33,2389.72 1759.25,2388.76 623.369,1252.88 624.445,1253.83 625.544,1254.76 626.667,1255.67 627.812,1256.55 628.978,1257.4 630.165,1258.23 631.373,1259.03 632.601,1259.8 633.849,1260.54 635.116,1261.26 636.401,1261.95 637.705,1262.61 639.026,1263.24 640.365,1263.84 641.719,1264.41 643.092,1264.95 644.478,1265.45 645.882,1265.93 647.299,1266.37 648.73,1266.78 650.175,1267.16 651.634,1267.5 653.105,1267.81 654.589,1268.09 656.084,1268.33 657.591,1268.53 659.109,1268.7 660.637,1268.83 662.175,1268.93 663.722,1268.98 "/>
     <polygon id="_380768944" class="fil1" points="564.182,1199.04 1700.06,2334.92 1697.48,2334.87 1694.92,2334.7 1692.4,2334.43 1689.91,2334.05 1687.45,2333.57 1685.04,2332.99 1682.67,2332.32 1680.34,2331.55 1678.07,2330.69 1675.85,2329.74 1673.69,2328.71 1671.59,2327.59 1669.55,2326.4 1667.58,2325.13 1665.68,2323.78 1663.85,2322.36 527.971,1186.48 529.797,1187.9 531.696,1189.24 533.667,1190.52 535.705,1191.71 537.806,1192.83 539.969,1193.86 542.188,1194.81 544.461,1195.67 546.786,1196.43 549.156,1197.11 551.572,1197.69 554.026,1198.17 556.518,1198.54 559.043,1198.82 561.599,1198.98 "/>
     <polygon id="_380777248" class="fil1" points="527.971,1186.48 1663.85,2322.36 1661.86,2320.66 525.982,1184.78 "/>
     <polygon id="_380786560" class="fil1" points="748.922,1251.9 1884.8,2387.79 1883.75,2388.76 1882.67,2389.72 1881.57,2390.65 1880.45,2391.55 1879.31,2392.43 1878.14,2393.28 1876.95,2394.11 1875.75,2394.91 1874.52,2395.68 1873.27,2396.43 1872.01,2397.14 1870.72,2397.83 1869.42,2398.49 1868.1,2399.12 1866.76,2399.72 1865.4,2400.29 1864.03,2400.83 1862.64,2401.34 1861.24,2401.81 1859.82,2402.26 1858.39,2402.67 1856.95,2403.04 1855.49,2403.39 1854.02,2403.7 1852.53,2403.97 1851.04,2404.21 1849.53,2404.41 1848.01,2404.58 1846.49,2404.71 1844.95,2404.81 1843.4,2404.86 1841.85,2404.88 705.966,1269 707.521,1268.98 709.068,1268.93 710.606,1268.83 712.133,1268.7 713.651,1268.53 715.158,1268.33 716.653,1268.09 718.137,1267.81 719.607,1267.5 721.066,1267.16 722.512,1266.78 723.943,1266.37 725.359,1265.93 726.762,1265.45 728.149,1264.95 729.52,1264.41 730.876,1263.84 732.214,1263.24 733.536,1262.61 734.839,1261.95 736.125,1261.26 737.391,1260.54 738.638,1259.8 739.867,1259.03 741.074,1258.23 742.261,1257.4 743.427,1256.55 744.571,1255.67 745.693,1254.76 746.793,1253.83 747.87,1252.88 "/>
     <polygon id="_380763808" class="fil1" points="705.966,1269 1841.85,2404.88 1801.16,2404.88 665.278,1269 "/>
     <polygon id="_380762608" class="fil1" points="1426.62,1251.9 2562.5,2387.79 2561.45,2388.76 2560.37,2389.72 2559.27,2390.65 2558.15,2391.55 2557,2392.43 2555.84,2393.28 2554.65,2394.11 2553.44,2394.91 2552.21,2395.68 2550.97,2396.43 2549.7,2397.14 2548.41,2397.83 2547.11,2398.49 2545.79,2399.12 2544.45,2399.72 2543.09,2400.29 2541.72,2400.83 2540.34,2401.34 2538.93,2401.81 2537.52,2402.25 2536.09,2402.66 2534.64,2403.04 2533.18,2403.38 2531.71,2403.69 2530.23,2403.97 2528.73,2404.21 2527.22,2404.41 2525.71,2404.58 2524.18,2404.71 2522.64,2404.81 2521.09,2404.86 2519.54,2404.88 1383.66,1269 1385.21,1268.98 1386.76,1268.92 1388.3,1268.83 1389.82,1268.7 1391.34,1268.53 1392.85,1268.33 1394.34,1268.09 1395.83,1267.81 1397.3,1267.5 1398.76,1267.16 1400.2,1266.78 1401.64,1266.37 1403.05,1265.93 1404.45,1265.45 1405.84,1264.95 1407.21,1264.41 1408.57,1263.84 1409.91,1263.24 1411.23,1262.61 1412.53,1261.95 1413.82,1261.26 1415.08,1260.54 1416.33,1259.8 1417.56,1259.03 1418.77,1258.23 1419.96,1257.4 1421.12,1256.55 1422.27,1255.67 1423.39,1254.76 1424.49,1253.83 1425.56,1252.88 "/>
     <polygon id="_380782312" class="fil1" points="1383.66,1269 2519.54,2404.88 2518.8,2404.88 1382.92,1269 "/>
    </g>
    <path id="_478213216" class="fil1" d="M1449.33 1199.01l0 0zm-1.9311 -0.0944883l0 0zm-1.91221 -0.154725l0 0zm-842.973 0l0 0zm-3.20788 0.225591l0 0zm699.773 -402.887c11.1024,-10.5473 26.3162,-17.0965 42.9567,-17.0965l40.6878 0 0.194882 0.0011811 0.73819 0c16.6429,0 31.8579,6.54804 42.9626,17.0953 11.4059,10.8366 18.4878,25.8461 18.4878,42.4099l0 10.7776c2.02559,-0.211417 4.08307,-0.320079 6.163,-0.320079l0.707481 0 0.112205 0 0.112205 0 31.617 0 0.93189 0c13.8413,0 26.6788,4.81181 36.2126,12.5587 10.8732,8.83701 17.6209,21.3933 17.6209,35.5335l0 91.9453 22.0488 0c12.9047,0 23.3693,15.6697 23.3693,34.9996 0,19.3288 -10.4646,34.9996 -23.3693,34.9996l-22.0488 0 0 91.9501c0,14.1378 -6.74882,26.6941 -17.6209,35.5311 -9.53387,7.74568 -22.3725,12.5575 -36.2126,12.5575l-0.93189 0 -31.617 0 -0.112205 0 -0.112205 0 -0.707481 0 -0.0980316 0 -0.0968505 0 -0.0980316 -0.0011811 -0.0968505 0 -0.0968505 -0.0011811 -0.0980316 0 -0.0637796 -0.0011811 -0.0330709 0 -0.0968505 -0.0011811 -0.194882 -0.00354331 -0.0968505 -0.0011811 -0.0968505 -0.00236221 -0.0980316 -0.0011811 -0.0295276 -0.0011811 -0.0673229 -0.0011811 -0.0968505 -0.00236221 -0.290551 -0.00826772 -0.0968505 -0.00236221 -0.0968505 -0.00354331 -0.0968505 -0.00354331 -0.28937 -0.0106299 -0.0968505 -0.00354331 -0.0968505 -0.00354331 -0.0602363 -0.00236221 -0.0366142 -0.00236221 -0.0956694 -0.00354331 -0.0968505 -0.00472441 -0.0968505 -0.00472441 -0.0956694 -0.00472441 -0.0968505 -0.00472441 -0.0956694 -0.00590552 -0.0271654 -0.0011811 -0.0696851 -0.00354331 -0.0956694 -0.00590552 -0.19252 -0.0106299 -0.0968505 -0.00590552 -0.0956694 -0.00590552 -0.0956694 -0.00708662 -0.0956694 -0.00590552 -0.0968505 -0.00590552 -0.0956694 -0.00708662 -0.0956694 -0.00708662 -0.0956694 -0.00708662 -0.0956694 -0.00708662 -0.056693 -0.00354331 -0.0389764 -0.00354331 -0.0956694 -0.00708662 -0.0956694 -0.00826772 -0.0956694 -0.00708662 -0.0956694 -0.00826772 -0.0956694 -0.00826772 -0.0956694 -0.00708662 -0.0236221 -0.00236221 -0.0720473 -0.00590552 -0.0956694 -0.00944883 -0.0944883 -0.00826772 -0.0956694 -0.00826772 -0.0956694 -0.00944883 -0.0944883 -0.00944883 -0.0956694 -0.00826772 -0.0956694 -0.00944883 -0.0944883 -0.00944883 -0.0956694 -0.0106299 -0.0944883 -0.00944883 0 10.7764c0,16.5638 -7.08071,31.5744 -18.4878,42.4099 -11.1047,10.5473 -26.3197,17.0953 -42.9626,17.0953l-0.73819 0 -0.194882 0.0011811 -40.6878 0c-16.6406,0 -31.8544,-6.54922 -42.9567,-17.0965 -11.4059,-10.8378 -18.4878,-25.8461 -18.4878,-42.4099l0 -150.495 -513.18 0 0 150.495c0,16.5638 -7.0819,31.5721 -18.4878,42.4099 -11.1024,10.5473 -26.3162,17.0965 -42.9567,17.0965l-40.6878 0c-16.6429,0 -31.8567,-6.54922 -42.9626,-17.0965 -11.4083,-10.8366 -18.489,-25.8461 -18.489,-42.4099l0 -10.8803 -0.0590552 0.00708662 -0.0496063 0.00590552 -0.109843 0.0129921 -0.218504 0.0248032 -0.108662 0.011811 -0.109843 0.0129921 -0.034252 0.00354331 -0.0755906 0.00826772 -0.108662 0.0106299 -0.109843 0.011811 -0.109843 0.011811 -0.109843 0.0106299 -0.11811 0.011811 -0.101575 0.00944883 -0.109843 0.0106299 -0.219685 0.0200788 -0.109843 0.00944883 -0.0933072 0.00826772 -0.0165354 0.00236221 -0.111024 0.00826772 -0.109843 0.00944883 -0.109843 0.00944883 -0.111024 0.00826772 -0.109843 0.00944883 -0.068504 0.00472441 -0.0425197 0.00354331 -0.109843 0.00826772 -0.111024 0.00708662 -0.111024 0.00826772 -0.109843 0.00708662 -0.111024 0.00826772 -0.0425197 0.00236221 -0.068504 0.00472441 -0.222047 0.0129921 -0.111024 0.00708662 -0.111024 0.00590552 -0.111024 0.00708662 -0.0165354 0 -0.205512 0.0106299 -0.111024 0.00590552 -0.111024 0.00590552 -0.111024 0.00472441 -0.112205 0.00472441 -0.111024 0.00472441 -0.111024 0.00472441 -0.112205 0.00354331 -0.111024 0.00472441 -0.112205 0.00354331 -0.0767717 0.00236221 -0.034252 0.0011811 -0.112205 0.00354331 -0.335433 0.00944883 -0.111024 0.00236221 -0.0519685 0.0011811 -0.0602363 0.0011811 -0.112205 0.00236221 -0.22441 0.00354331 -0.111024 0.00236221 -0.112205 0.0011811 -0.0259843 0 -0.0862205 0.0011811 -0.562205 0.00236221 -32.5488 0c-13.8402,0 -26.6776,-4.81063 -36.2114,-12.5575 -10.8721,-8.83701 -17.6209,-21.3933 -17.6209,-35.5311l0 -91.9501 -22.9819 0c-12.9047,0 -23.3693,-15.6709 -23.3693,-35.0008 0,-19.3288 10.4646,-34.9985 23.3693,-34.9985l22.9819 0 0 -91.9453c0,-14.1402 6.74764,-26.6965 17.6197,-35.5335 9.53505,-7.74686 22.3701,-12.5587 36.2126,-12.5587l32.5488 0c2.39882,0 4.76811,0.144095 7.09489,0.424016l0 -10.8815c0,-16.5626 7.08071,-31.5721 18.489,-42.4099 11.1047,-10.5473 26.3185,-17.0965 42.9626,-17.0965l40.6878 0c16.6406,0 31.8544,6.54922 42.9567,17.0965 11.4059,10.8378 18.4878,25.8461 18.4878,42.4099l0 150.495 513.18 0 0 -150.495c0,-16.5638 7.0819,-31.5721 18.4878,-42.4099z"/>
   </g>
  </g>
  <path class="fil2" d="M1024 0c565.539,0 1024,458.461 1024,1024 0,565.539 -458.461,1024 -1024,1024 -565.539,0 -1024,-458.461 -1024,-1024 0,-565.539 458.461,-1024 1024,-1024z"/>
  <g id="_389303872">
   <path id="_389308000" class="fil3" d="M753.979 989c-12.0579,0 -21.8351,15.6709 -21.8351,34.9996 0,19.3288 9.77717,34.9996 21.8351,34.9996l540.955 0c12.0591,0 21.8351,-15.6709 21.8351,-34.9996 0,-19.3288 -9.77599,-34.9996 -21.8351,-34.9996l-540.955 0z"/>
   <path id="_389294632" class="fil3" d="M1518.19 989c-12.9059,0 -23.3693,15.6709 -23.3693,34.9996 0,19.3288 10.4634,34.9996 23.3693,34.9996l42.4429 0c12.9059,0 23.3693,-15.6709 23.3693,-34.9996 0,-19.3288 -10.4634,-34.9996 -23.3693,-34.9996l-42.4429 0z"/>
   <path id="_389301928" class="fil4" d="M1342.97 1269l40.6878 0c16.6429,0 31.8579,-6.54804 42.9626,-17.0953 11.4071,-10.8354 18.4878,-25.8461 18.4878,-42.4099l0 -370.989c0,-16.5638 -7.0819,-31.5733 -18.4878,-42.4099 -11.1047,-10.5473 -26.3197,-17.0953 -42.9626,-17.0953l-40.6878 0c-16.6406,0 -31.8532,6.54804 -42.9579,17.0965 -11.4071,10.8366 -18.4878,25.8449 -18.4878,42.4087l0 370.989c0,16.5638 7.0819,31.5721 18.4878,42.4099 11.1036,10.5484 26.3173,17.0953 42.9579,17.0953z"/>
   <path id="_389297224" class="fil4" d="M1452.2 1199.04l32.5488 0c13.8402,0 26.6788,-4.81181 36.2126,-12.5575 10.8721,-8.83701 17.6209,-21.3933 17.6209,-35.5311l0 -253.895c0,-14.1402 -6.74764,-26.6965 -17.6209,-35.5335 -9.53387,-7.74686 -22.3713,-12.5587 -36.2126,-12.5587l-32.5488 0c-13.8425,0 -26.6776,4.81181 -36.2126,12.5587 -10.8721,8.83701 -17.6209,21.3933 -17.6209,35.5335l0 253.895c0,14.1378 6.75001,26.6941 17.6221,35.5311 9.53387,7.74686 22.3713,12.5575 36.2114,12.5575z"/>
   <path id="_389300944" class="fil3" d="M487.369 989c-12.9059,0 -23.3693,15.6709 -23.3693,34.9996 0,19.3288 10.4634,34.9996 23.3693,34.9996l43.3394 0c12.9059,0 23.3693,-15.6709 23.3693,-34.9996 0,-19.3288 -10.4634,-34.9996 -23.3693,-34.9996l-43.3394 0z"/>
   <path id="_389301208" class="fil5" d="M564.182 1199.04l32.5488 0c13.8402,0 26.6788,-4.81063 36.2126,-12.5575 10.8721,-8.83701 17.6209,-21.3933 17.6209,-35.5311l0 -253.895c0,-14.1402 -6.74764,-26.6965 -17.6209,-35.5335 -9.53387,-7.74686 -22.3701,-12.5587 -36.2126,-12.5587l-32.5488 0c-13.8425,0 -26.6776,4.81181 -36.2126,12.5587 -10.8721,8.83701 -17.6197,21.3933 -17.6197,35.5335l0 253.895c0,14.1378 6.74882,26.6941 17.6209,35.5311 9.53387,7.74686 22.3713,12.5575 36.2114,12.5575z"/>
   <path id="_389286928" class="fil6" d="M665.278 1269l40.6878 0c16.6406,0 31.8544,-6.54922 42.9567,-17.0965 11.4059,-10.8378 18.4878,-25.8461 18.4878,-42.4099l0 -370.989c0,-16.5638 -7.0819,-31.5721 -18.4878,-42.4099 -11.1024,-10.5473 -26.3162,-17.0965 -42.9567,-17.0965l-40.6878 0c-16.6441,0 -31.8579,6.54922 -42.9626,17.0965 -11.4083,10.8378 -18.489,25.8473 -18.489,42.4099l0 370.989c0,16.5638 7.08071,31.5733 18.489,42.4099 11.1059,10.5473 26.3197,17.0965 42.9626,17.0965z"/>
   <path id="_389284696" class="fil5" d="M1483.82 1199.04l-32.5488 0c-13.8402,0 -26.6788,-4.81063 -36.2126,-12.5575 -10.8721,-8.83701 -17.6209,-21.3933 -17.6209,-35.5311l0 -253.895c0,-14.1402 6.74764,-26.6965 17.6209,-35.5335 9.53387,-7.74686 22.3701,-12.5587 36.2126,-12.5587l32.5488 0c13.8425,0 26.6776,4.81181 36.2126,12.5587 10.8721,8.83701 17.6197,21.3933 17.6197,35.5335l0 253.895c0,14.1378 -6.74882,26.6941 -17.6209,35.5311 -9.53387,7.74686 -22.3713,12.5575 -36.2114,12.5575z"/>
   <path id="_389286520" class="fil6" d="M1382.72 1269l-40.6878 0c-16.6406,0 -31.8544,-6.54922 -42.9567,-17.0965 -11.4059,-10.8378 -18.4878,-25.8461 -18.4878,-42.4099l0 -370.989c0,-16.5638 7.0819,-31.5721 18.4878,-42.4099 11.1024,-10.5473 26.3162,-17.0965 42.9567,-17.0965l40.6878 0c16.6441,0 31.8579,6.54922 42.9626,17.0965 11.4083,10.8378 18.489,25.8473 18.489,42.4099l0 370.989c0,16.5638 -7.08071,31.5733 -18.489,42.4099 -11.1059,10.5473 -26.3197,17.0965 -42.9626,17.0965z"/>
   <path id="_389287384" class="fil7" d="M732.145 1024l0 0.0011811c0,19.3288 9.77481,34.9996 21.8339,34.9996l540.956 0c12.0579,0 21.8339,-15.6709 21.8339,-34.9996l0 -0.0011811 -584.624 0z"/>
   <path id="_389296360" class="fil7" d="M1494.82 1024l0 0.0011811c0,19.3288 10.4634,34.9996 23.3693,34.9996l42.4441 0c12.9047,0 23.3693,-15.6709 23.3693,-34.9996l0 -0.0011811 -89.1827 0z"/>
   <path id="_389306104" class="fil8" d="M1342.97 1269l40.6878 0c16.6429,0 31.8579,-6.54804 42.9626,-17.0953 11.4071,-10.8354 18.4878,-25.8461 18.4878,-42.4099l0 -185.496 -163.584 0 0 185.496c0,16.5638 7.0819,31.5721 18.4878,42.4099 11.1036,10.5484 26.3173,17.0953 42.9579,17.0953z"/>
   <path id="_389307424" class="fil8" d="M1452.2 1199.04l32.5488 0c13.8402,0 26.6788,-4.81181 36.2126,-12.5575 10.8721,-8.83701 17.6209,-21.3933 17.6209,-35.5311l0 -126.951 -140.216 0 0 126.951c0,14.1378 6.75001,26.6941 17.6221,35.5311 9.53387,7.74686 22.3713,12.5575 36.2114,12.5575z"/>
   <path id="_389298424" class="fil7" d="M463.999 1024l0 0.0011811c0,19.3288 10.4646,34.9996 23.3693,34.9996l43.3406 0c12.9059,0 23.3693,-15.6709 23.3693,-34.9996l0 -0.0011811 -90.0792 0z"/>
   <path id="_389288488" class="fil9" d="M564.182 1199.04l32.5488 0c13.8402,0 26.6788,-4.81063 36.2126,-12.5575 10.8721,-8.83701 17.6209,-21.3933 17.6209,-35.5311l0 -126.951 -140.215 0 0 126.951c0,14.1378 6.74882,26.6941 17.6209,35.5311 9.53387,7.74686 22.3713,12.5575 36.2114,12.5575z"/>
   <path id="_389290624" class="fil10" d="M665.278 1269l40.6878 0c16.6406,0 31.8544,-6.54922 42.9567,-17.0965 11.4059,-10.8378 18.4878,-25.8461 18.4878,-42.4099l0 -185.496 -163.584 0 0 185.496c0,16.5638 7.08071,31.5733 18.489,42.4099 11.1059,10.5473 26.3197,17.0965 42.9626,17.0965z"/>
   <path id="_389287696" class="fil9" d="M1483.82 1199.04l-32.5488 0c-13.8402,0 -26.6788,-4.81063 -36.2126,-12.5575 -10.8721,-8.83701 -17.6209,-21.3933 -17.6209,-35.5311l0 -126.951 140.215 0 0 126.951c0,14.1378 -6.74882,26.6941 -17.6209,35.5311 -9.53387,7.74686 -22.3713,12.5575 -36.2114,12.5575z"/>
   <path id="_389309512" class="fil10" d="M1382.72 1269l-40.6878 0c-16.6406,0 -31.8544,-6.54922 -42.9567,-17.0965 -11.4059,-10.8378 -18.4878,-25.8461 -18.4878,-42.4099l0 -185.496 163.584 0 0 185.496c0,16.5638 -7.08071,31.5733 -18.489,42.4099 -11.1059,10.5473 -26.3197,17.0965 -42.9626,17.0965z"/>
  </g>
 </g>
</svg>
