<?xml version="1.0" encoding="UTF-8"?>
<!DOCTYPE svg PUBLIC "-//W3C//DTD SVG 1.1//EN" "http://www.w3.org/Graphics/SVG/1.1/DTD/svg11.dtd">
<!-- Creator: CorelDRAW -->
<svg xmlns="http://www.w3.org/2000/svg" xml:space="preserve" width="2048px" height="2048px" style="shape-rendering:geometricPrecision; text-rendering:geometricPrecision; image-rendering:optimizeQuality; fill-rule:evenodd; clip-rule:evenodd"
viewBox="0 0 2048 2048"
 xmlns:xlink="http://www.w3.org/1999/xlink">
 <defs>
  <style type="text/css">
   <![CDATA[
    .fil2 {fill:none}
    .fil1 {fill:#43A047}
    .fil0 {fill:#81C784}
    .fil5 {fill:#CD2C04}
    .fil3 {fill:#DD2C00}
    .fil6 {fill:#ECE9E9}
    .fil4 {fill:white}
   ]]>
  </style>
   <clipPath id="id0">
    <path d="M1024 0c565.539,0 1024,458.461 1024,1024 0,565.539 -458.461,1024 -1024,1024 -565.539,0 -1024,-458.461 -1024,-1024 0,-565.539 458.461,-1024 1024,-1024z"/>
   </clipPath>
 </defs>
 <g id="Layer_x0020_1">
  <metadata id="CorelCorpID_0Corel-Layer"/>
  <path class="fil0" d="M1024 0c565.539,0 1024,458.461 1024,1024 0,565.539 -458.461,1024 -1024,1024 -565.539,0 -1024,-458.461 -1024,-1024 0,-565.539 458.461,-1024 1024,-1024z"/>
  <g style="clip-path:url(#id0)">
   <g id="_478205752">
    <g>
     <polygon id="_3968164721" class="fil1" points="1456.12,667.788 2592.01,1803.67 2608.63,1824.82 2624.24,1846.78 2638.81,1869.5 2652.29,1892.95 2664.66,1917.1 2675.87,1941.91 2685.9,1967.34 2694.71,1993.36 2702.25,2019.93 2708.5,2047.02 2713.43,2074.6 2716.99,2102.63 2719.15,2131.06 2719.88,2159.88 2719.15,2188.7 2716.99,2217.14 2713.43,2245.17 2708.5,2272.74 2702.25,2299.83 2694.71,2326.41 2685.9,2352.43 2675.87,2377.86 2664.66,2402.67 2652.29,2426.81 2638.81,2450.26 2624.24,2472.98 2608.63,2494.94 2592.01,2516.09 2574.4,2536.41 2555.86,2555.86 2536.41,2574.41 2516.09,2592.01 2494.94,2608.63 2472.98,2624.24 2450.26,2638.81 2426.81,2652.29 2402.67,2664.66 2377.86,2675.88 2352.43,2685.9 2326.41,2694.71 2299.83,2702.25 2272.74,2708.51 2245.16,2713.43 2217.14,2716.99 2188.7,2719.15 2159.88,2719.88 2131.06,2719.15 2102.62,2716.99 2074.6,2713.43 2047.02,2708.51 2019.93,2702.25 1993.35,2694.71 1967.33,2685.9 1941.9,2675.88 1917.1,2664.66 1892.95,2652.29 1869.5,2638.81 1846.78,2624.24 1824.82,2608.63 1803.67,2592.01 667.788,1456.12 688.942,1472.75 710.898,1488.36 733.619,1502.93 757.071,1516.41 781.216,1528.78 806.023,1539.99 831.453,1550.02 857.473,1558.82 884.048,1566.37 911.14,1572.62 938.717,1577.55 966.744,1581.11 995.182,1583.27 1024,1584 1052.82,1583.27 1081.26,1581.11 1109.28,1577.55 1136.86,1572.62 1163.95,1566.37 1190.53,1558.82 1216.55,1550.02 1241.98,1539.99 1266.78,1528.78 1290.93,1516.41 1314.38,1502.93 1337.1,1488.36 1359.06,1472.75 1380.21,1456.12 1400.53,1438.52 1419.98,1419.98 1438.52,1400.53 1456.12,1380.21 1472.75,1359.06 1488.36,1337.1 1502.93,1314.38 1516.41,1290.93 1528.78,1266.78 1539.99,1241.98 1550.02,1216.55 1558.82,1190.53 1566.37,1163.95 1572.62,1136.86 1577.55,1109.28 1581.11,1081.26 1583.27,1052.82 1584,1024 1583.27,995.182 1581.11,966.744 1577.55,938.717 1572.62,911.14 1566.37,884.048 1558.82,857.473 1550.02,831.453 1539.99,806.023 1528.78,781.216 1516.41,757.071 1502.93,733.619 1488.36,710.898 1472.75,688.942 "/>
    </g>
    <path id="_478237456" class="fil1" d="M1024 463.999c309.28,0 560.001,250.721 560.001,560.001 0,309.28 -250.721,560.001 -560.001,560.001 -309.28,0 -560.001,-250.721 -560.001,-560.001 0,-309.28 250.721,-560.001 560.001,-560.001z"/>
   </g>
  </g>
  <path class="fil2" d="M1024 0c565.539,0 1024,458.461 1024,1024 0,565.539 -458.461,1024 -1024,1024 -565.539,0 -1024,-458.461 -1024,-1024 0,-565.539 458.461,-1024 1024,-1024z"/>
  <path class="fil3" d="M1024 463.999c309.28,0 560.001,250.721 560.001,560.001 0,309.28 -250.721,560.001 -560.001,560.001 -309.28,0 -560.001,-250.721 -560.001,-560.001 0,-309.28 250.721,-560.001 560.001,-560.001z"/>
  <path class="fil4" d="M1584 1024c0,5.36693 -0.0933072,10.7114 -0.243307,16.0429l-543.715 0 0 177.983 6.84095 0.422835c61.0004,3.77481 119.234,22.513 172.554,52.0016 54.8599,30.339 103.828,71.6504 145.168,118.768 1.22008,1.39016 29.9953,33.5126 40.3866,45.1524 -7.79882,7.24371 -15.7854,14.2878 -23.9882,21.0827 -10.5709,-11.8606 -40.3618,-45.1229 -42.0555,-47.0374 -38.5335,-43.539 -84.0036,-81.7583 -134.877,-109.893 -48.2965,-26.7095 -101.026,-43.963 -156.225,-47.8548l-7.80473 -0.550394 0 333.64c-5.3315,0.15 -10.676,0.243307 -16.0429,0.243307 -5.36693,0 -10.7114,-0.0933072 -16.0429,-0.243307l0 -333.64 -7.80473 0.550394c-55.1989,3.89174 -107.928,21.1453 -156.225,47.8548 -51.5304,28.5295 -95.8111,67.2733 -136.326,111.744 -1.1315,1.24134 -25.1315,31.4977 -37.8425,47.4449 -8.25237,-6.74882 -16.311,-13.728 -24.1618,-20.9303 12.7228,-16.0051 37.0028,-46.6618 38.204,-48.0284 41.2548,-46.9241 90.0816,-88.0642 144.761,-118.303 53.3209,-29.4886 111.554,-48.2268 172.554,-52.0016l6.84095 -0.422835 0 -177.983 -543.715 0c-0.15,-5.3315 -0.243307,-10.676 -0.243307,-16.0429 0,-5.36693 0.0933072,-10.7114 0.243307,-16.0429l543.715 0 0 -177.983 -6.84095 -0.422835c-61.0004,-3.77481 -119.234,-22.513 -172.554,-52.0016 -54.6792,-30.2386 -103.506,-71.3788 -144.761,-118.303 -1.20118,-1.36654 -25.4811,-32.0233 -38.204,-48.0284 7.85079,-7.20237 15.9095,-14.1815 24.1618,-20.9303 12.711,15.9473 36.7111,46.2036 37.8425,47.4449 40.5154,44.4709 84.7961,83.2146 136.326,111.744 48.2965,26.7095 101.026,43.963 156.225,47.8548l7.80473 0.550394 0 -333.64c5.3315,-0.15 10.676,-0.243307 16.0429,-0.243307 5.36693,0 10.7114,0.0933072 16.0429,0.243307l0 333.64 7.80473 -0.550394c55.1989,-3.89174 107.928,-21.1453 156.225,-47.8548 50.8737,-28.1351 96.3438,-66.3544 134.877,-109.893 1.6937,-1.91457 31.4847,-35.1768 42.0555,-47.0374 8.20276,6.79489 16.1894,13.839 23.9882,21.0827 -10.3913,11.6398 -39.1666,43.7622 -40.3866,45.1524 -41.3398,47.1178 -90.3083,88.4292 -145.168,118.768 -53.3209,29.4886 -111.554,48.2268 -172.554,52.0016l-6.84095 0.422835 0 177.983 543.715 0c0.15,5.3315 0.243307,10.676 0.243307,16.0429z"/>
  <path class="fil5" d="M1024 463.999c309.28,0 560.001,250.721 560.001,560.001 0,309.28 -250.721,560.001 -560.001,560.001l-0.0011811 0 0 -1120 0.0011811 0z"/>
  <path class="fil6" d="M1584 1024c0,5.36693 -0.0933072,10.7114 -0.243307,16.0429l-543.715 0 0 177.983 6.84095 0.422835c61.0004,3.77481 119.234,22.513 172.554,52.0016 54.8599,30.339 103.828,71.6504 145.168,118.768 1.22008,1.39016 29.9953,33.5126 40.3866,45.1524 -7.79882,7.24371 -15.7854,14.2878 -23.9882,21.0827 -10.5709,-11.8606 -40.3618,-45.1229 -42.0555,-47.0374 -38.5335,-43.539 -84.0036,-81.7583 -134.877,-109.893 -48.2965,-26.7095 -101.026,-43.963 -156.225,-47.8548l-7.80473 -0.550394 0 333.64c-5.3315,0.15 -10.676,0.243307 -16.0429,0.243307l-0.0011811 0 0 -1120 0.0011811 0c5.36693,0 10.7114,0.0933072 16.0429,0.243307l0 333.64 7.80473 -0.550394c55.1989,-3.89174 107.928,-21.1453 156.225,-47.8548 50.8737,-28.1351 96.3438,-66.3544 134.877,-109.893 1.6937,-1.91457 31.4847,-35.1768 42.0555,-47.0374 8.20276,6.79489 16.1894,13.839 23.9882,21.0827 -10.3913,11.6398 -39.1666,43.7622 -40.3866,45.1524 -41.3398,47.1178 -90.3083,88.4292 -145.168,118.768 -53.3209,29.4886 -111.554,48.2268 -172.554,52.0016l-6.84095 0.422835 0 177.983 543.715 0c0.15,5.3315 0.243307,10.676 0.243307,16.0429z"/>
 </g>
</svg>
