<?xml version="1.0" encoding="UTF-8"?>
<!DOCTYPE svg PUBLIC "-//W3C//DTD SVG 1.1//EN" "http://www.w3.org/Graphics/SVG/1.1/DTD/svg11.dtd">
<!-- Creator: CorelDRAW -->
<svg xmlns="http://www.w3.org/2000/svg" xml:space="preserve" width="2048px" height="2048px" style="shape-rendering:geometricPrecision; text-rendering:geometricPrecision; image-rendering:optimizeQuality; fill-rule:evenodd; clip-rule:evenodd"
viewBox="0 0 2048 2048"
 xmlns:xlink="http://www.w3.org/1999/xlink">
 <defs>
  <style type="text/css">
   <![CDATA[
    .fil2 {fill:none}
    .fil4 {fill:none;fill-rule:nonzero}
    .fil1 {fill:#00897B}
    .fil6 {fill:#49302A}
    .fil0 {fill:#4DB6AC}
    .fil5 {fill:#4E342E;fill-rule:nonzero}
    .fil3 {fill:#E9BB77;fill-rule:nonzero}
   ]]>
  </style>
   <clipPath id="id0">
    <path d="M1024 0c565.539,0 1024,458.461 1024,1024 0,565.539 -458.461,1024 -1024,1024 -565.539,0 -1024,-458.461 -1024,-1024 0,-565.539 458.461,-1024 1024,-1024z"/>
   </clipPath>
 </defs>
 <g id="Layer_x0020_1">
  <metadata id="CorelCorpID_0Corel-Layer"/>
  <path class="fil0" d="M1024 0c565.539,0 1024,458.461 1024,1024 0,565.539 -458.461,1024 -1024,1024 -565.539,0 -1024,-458.461 -1024,-1024 0,-565.539 458.461,-1024 1024,-1024z"/>
  <g style="clip-path:url(#id0)">
   <g id="_478212280">
    <g>
     <path id="_3807875921" class="fil1" d="M2175.26 1772.14l0 0zm-1135.88 -1135.88l0 0z"/>
     <polygon id="_380762392" class="fil1" points="1311.73,644.638 2447.61,1780.52 2222.9,1879.99 2221.02,1880.79 2219.11,1881.51 2217.2,1882.17 2215.27,1882.75 2213.33,1883.27 2211.39,1883.72 2209.44,1884.09 2207.48,1884.41 2205.52,1884.65 2203.55,1884.83 2201.59,1884.94 2199.63,1884.98 2197.67,1884.96 2195.71,1884.88 2193.76,1884.72 2191.82,1884.51 2189.89,1884.23 2187.97,1883.89 2186.06,1883.49 2184.17,1883.02 2182.29,1882.49 2180.43,1881.9 2178.59,1881.25 2176.77,1880.54 2174.97,1879.77 2173.2,1878.94 2171.45,1878.05 2169.74,1877.11 2168.05,1876.1 2166.39,1875.04 2164.76,1873.92 2163.17,1872.75 1027.29,736.864 1028.88,738.04 1030.51,739.159 1032.16,740.221 1033.85,741.226 1035.57,742.172 1037.32,743.06 1039.09,743.891 1040.89,744.661 1042.71,745.371 1044.55,746.02 1046.41,746.61 1048.29,747.138 1050.18,747.604 1052.09,748.008 1054.01,748.349 1055.94,748.627 1057.88,748.842 1059.83,748.993 1061.79,749.078 1063.75,749.099 1065.71,749.055 1067.67,748.945 1069.64,748.768 1071.6,748.524 1073.56,748.212 1075.51,747.833 1077.45,747.387 1079.39,746.871 1081.32,746.285 1083.23,745.629 1085.14,744.904 1087.02,744.108 "/>
     <polygon id="_380774176" class="fil1" points="1331.79,551.393 2467.67,1687.28 2469.34,1689.22 2470.92,1691.22 2472.41,1693.29 2473.81,1695.41 2475.11,1697.6 2476.32,1699.83 2477.42,1702.11 2478.43,1704.44 2479.33,1706.81 2480.13,1709.22 2480.83,1711.67 2481.42,1714.15 2481.91,1716.66 2482.28,1719.19 2482.54,1721.74 2482.69,1724.32 2482.73,1726.91 2482.65,1729.51 2482.45,1732.12 2482.13,1734.74 2481.69,1737.36 2481.13,1739.98 2480.45,1742.6 2479.64,1745.21 2478.7,1747.81 2477.62,1750.43 2476.41,1752.99 2475.08,1755.5 2473.63,1757.94 2472.07,1760.32 2470.38,1762.62 2468.59,1764.85 2466.68,1766.99 2464.66,1769.04 2462.53,1771 2460.3,1772.86 2457.97,1774.62 2455.53,1776.27 2452.99,1777.81 2450.35,1779.22 2447.61,1780.52 1311.73,644.638 1314.47,643.342 1317.1,641.924 1319.64,640.387 1322.08,638.738 1324.42,636.98 1326.65,635.118 1328.78,633.159 1330.8,631.106 1332.71,628.966 1334.5,626.741 1336.18,624.439 1337.75,622.062 1339.2,619.619 1340.53,617.111 1341.74,614.546 1342.82,611.926 1343.76,609.328 1344.57,606.719 1345.25,604.102 1345.81,601.482 1346.25,598.861 1346.57,596.242 1346.76,593.63 1346.85,591.026 1346.81,588.436 1346.66,585.861 1346.4,583.306 1346.03,580.773 1345.54,578.266 1344.95,575.788 1344.25,573.342 1343.45,570.931 1342.55,568.561 1341.54,566.232 1340.43,563.948 1339.23,561.715 1337.93,559.532 1336.53,557.406 1335.04,555.338 1333.46,553.333 "/>
     <path id="_380777224" class="fil1" d="M2466.67 1965.73l0 0zm-1135.88 -1135.88l0 0z"/>
     <polygon id="_380760664" class="fil1" points="1027.29,736.864 2163.17,1872.75 2157.52,1875.78 2151.79,1878.89 2146,1882.08 2140.14,1885.34 2134.21,1888.69 2128.22,1892.1 2122.16,1895.6 2116.04,1899.18 2109.87,1902.83 2103.63,1906.56 2097.34,1910.37 2091,1914.26 2084.6,1918.23 2078.16,1922.27 2071.66,1926.4 2065.12,1930.6 2058.54,1934.88 2051.91,1939.24 2045.25,1943.68 2038.54,1948.2 2031.8,1952.8 2025.03,1957.48 2018.22,1962.24 2011.38,1967.08 2004.51,1972.01 1997.61,1977.01 1990.69,1982.09 1983.75,1987.25 1976.78,1992.49 1969.8,1997.82 1962.79,2003.22 1955.77,2008.71 819.892,872.828 826.912,867.341 833.914,861.936 840.901,856.612 847.867,851.368 854.812,846.205 861.733,841.124 868.628,836.123 875.498,831.203 882.337,826.362 889.145,821.601 895.921,816.922 902.663,812.321 909.367,807.801 916.033,803.36 922.659,798.999 929.242,794.716 935.782,790.514 942.275,786.389 948.72,782.344 955.116,778.378 961.459,774.49 967.749,770.681 973.984,766.948 980.161,763.295 986.279,759.72 992.336,756.223 998.33,752.803 1004.26,749.461 1010.12,746.196 1015.91,743.008 1021.64,739.897 "/>
     <polygon id="_380770600" class="fil1" points="1126.42,977.949 2262.3,2113.83 2267.99,2119.76 2273.46,2125.85 2278.71,2132.1 2283.73,2138.52 2288.52,2145.09 2293.07,2151.82 2297.37,2158.71 2301.42,2165.77 2305.22,2172.98 2308.75,2180.35 2312.02,2187.89 2315.01,2195.58 2317.72,2203.43 2320.15,2211.45 2322.29,2219.62 2324.13,2227.95 1188.24,1092.07 1186.41,1083.74 1184.27,1075.56 1181.84,1067.55 1179.13,1059.7 1176.14,1052.01 1172.87,1044.47 1169.34,1037.1 1165.54,1029.89 1161.49,1022.83 1157.18,1015.94 1152.64,1009.21 1147.85,1002.63 1142.83,996.222 1137.58,989.97 1132.11,983.879 "/>
     <polygon id="_380764576" class="fil1" points="1570.49,630.628 2706.37,1766.51 2708.13,1768.74 2709.76,1771.04 2711.28,1773.4 2712.67,1775.83 2713.95,1778.31 2715.1,1780.84 2716.13,1783.42 2717.03,1786.03 2717.81,1788.69 2718.47,1791.37 2719.01,1794.08 2719.41,1796.81 2719.69,1799.56 2719.85,1802.32 2719.87,1805.08 2719.77,1807.85 2719.53,1810.61 2719.17,1813.37 2718.68,1816.11 2718.05,1818.84 2717.29,1821.54 2716.4,1824.21 2715.37,1826.85 2714.21,1829.46 2712.92,1832.02 2711.49,1834.53 2709.92,1836.99 2708.22,1839.4 1572.34,703.516 1574.04,701.111 1575.61,698.649 1577.04,696.135 1578.33,693.573 1579.49,690.97 1580.52,688.328 1581.41,685.655 1582.17,682.953 1582.79,680.229 1583.29,677.487 1583.65,674.731 1583.89,671.967 1583.99,669.201 1583.96,666.436 1583.81,663.677 1583.53,660.93 1583.12,658.199 1582.59,655.489 1581.93,652.805 1581.15,650.152 1580.24,647.535 1579.22,644.958 1578.06,642.428 1576.79,639.947 1575.4,637.522 1573.88,635.157 1572.25,632.858 "/>
     <polygon id="_380774416" class="fil1" points="1572.34,703.516 2708.22,1839.4 2561.17,2036.29 2559.83,2038.02 2558.43,2039.69 2556.98,2041.29 2555.48,2042.83 2553.94,2044.31 2552.35,2045.73 2550.71,2047.08 2549.03,2048.37 2547.31,2049.59 2545.55,2050.74 2543.76,2051.84 2541.93,2052.86 2540.07,2053.81 2538.19,2054.7 2536.27,2055.52 2534.33,2056.28 2532.36,2056.96 2530.37,2057.58 2528.36,2058.12 2526.34,2058.59 2524.29,2059 2522.24,2059.33 2520.17,2059.59 2518.09,2059.78 2516.01,2059.89 2513.92,2059.93 2511.82,2059.9 2509.73,2059.79 2507.63,2059.61 2505.54,2059.35 2503.45,2059.02 2501.37,2058.61 1365.49,922.727 1367.57,923.137 1369.66,923.469 1371.75,923.727 1373.85,923.909 1375.94,924.016 1378.04,924.049 1380.13,924.008 1382.21,923.893 1384.29,923.705 1386.36,923.447 1388.41,923.115 1390.46,922.712 1392.48,922.237 1394.49,921.694 1396.48,921.079 1398.45,920.396 1400.39,919.642 1402.31,918.822 1404.19,917.932 1406.05,916.976 1407.88,915.953 1409.67,914.863 1411.43,913.706 1413.15,912.484 1414.83,911.198 1416.47,909.845 1418.06,908.43 1419.6,906.951 1421.1,905.409 1422.55,903.804 1423.95,902.137 1425.29,900.408 "/>
     <polygon id="_380783824" class="fil1" points="1365.49,922.727 2501.37,2058.61 2495.3,2067.8 2489.28,2076.87 2483.31,2085.82 2477.38,2094.65 2471.5,2103.37 2465.66,2111.96 2459.87,2120.45 2454.12,2128.81 2448.41,2137.07 2442.75,2145.21 2437.13,2153.24 2431.55,2161.15 2426.01,2168.96 2420.51,2176.66 2415.05,2184.25 2409.63,2191.73 2404.24,2199.11 2398.9,2206.38 2393.59,2213.55 2388.32,2220.61 2383.09,2227.57 2377.89,2234.43 2372.72,2241.18 2367.59,2247.84 2362.49,2254.4 2357.43,2260.86 2352.4,2267.22 2347.4,2273.49 2342.43,2279.66 2337.5,2285.73 2332.59,2291.71 2327.71,2297.6 1191.83,1161.72 1196.71,1155.83 1201.62,1149.85 1206.55,1143.77 1211.52,1137.6 1216.52,1131.34 1221.55,1124.98 1226.61,1118.52 1231.71,1111.96 1236.84,1105.3 1242,1098.55 1247.2,1091.69 1252.44,1084.73 1257.71,1077.67 1263.02,1070.5 1268.36,1063.23 1273.75,1055.85 1279.17,1048.37 1284.63,1040.78 1290.13,1033.08 1295.67,1025.27 1301.25,1017.36 1306.87,1009.33 1312.53,1001.18 1318.24,992.931 1323.99,984.563 1329.78,976.081 1335.62,967.483 1341.5,958.769 1347.43,949.937 1353.4,940.987 1359.42,931.918 "/>
     <polygon id="_380761504" class="fil1" points="1191.83,1161.72 2327.71,2297.6 2327.62,2298.66 2327.53,2299.71 2327.43,2300.75 2327.34,2301.8 2327.24,2302.84 2327.13,2303.88 2327.03,2304.92 2326.92,2305.95 2326.81,2306.98 2326.7,2308.01 2326.59,2309.03 2326.47,2310.05 2326.35,2311.07 2326.23,2312.09 2326.11,2313.1 2325.98,2314.11 1190.1,1178.22 1190.23,1177.22 1190.35,1176.2 1190.47,1175.19 1190.59,1174.17 1190.71,1173.15 1190.82,1172.12 1190.93,1171.1 1191.04,1170.07 1191.15,1169.03 1191.25,1168 1191.35,1166.96 1191.45,1165.92 1191.55,1164.87 1191.65,1163.82 1191.74,1162.77 "/>
     <polygon id="_380759776" class="fil1" points="1190.1,1178.22 2325.98,2314.11 2324.45,2325.1 2322.63,2335.92 2320.54,2346.57 2318.18,2357.04 2315.55,2367.33 2312.66,2377.45 2309.51,2387.4 2306.11,2397.16 2302.47,2406.76 2298.58,2416.17 2294.46,2425.41 2290.1,2434.47 2285.52,2443.35 2280.72,2452.05 2275.7,2460.57 2270.47,2468.92 2265.03,2477.08 2259.39,2485.07 2253.56,2492.87 2247.53,2500.49 2241.32,2507.94 2234.92,2515.2 2228.35,2522.28 2221.61,2529.17 2214.7,2535.89 2207.63,2542.42 2200.4,2548.77 2193.03,2554.93 2185.5,2560.91 2177.83,2566.71 2170.03,2572.32 2162.1,2577.74 2154.13,2582.92 2146.04,2587.92 2137.83,2592.73 2129.52,2597.36 2121.1,2601.8 2112.58,2606.06 2103.97,2610.13 2095.26,2614.02 2086.48,2617.72 2077.61,2621.23 2068.67,2624.56 2059.65,2627.7 2050.58,2630.65 2041.44,2633.41 2032.24,2635.99 2023,2638.37 2013.71,2640.57 2004.38,2642.57 1995.01,2644.39 1985.62,2646.01 1976.2,2647.45 1966.75,2648.69 1957.29,2649.74 1947.82,2650.6 1938.35,2651.27 1928.87,2651.74 1919.4,2652.03 1909.93,2652.11 1900.48,2652.01 1891.05,2651.71 1881.64,2651.21 1872.26,2650.53 1862.34,2649.59 1852.37,2648.43 1842.39,2647.06 1832.4,2645.47 1822.41,2643.65 1812.46,2641.6 1802.54,2639.33 1792.68,2636.82 1782.88,2634.07 1773.18,2631.08 1763.58,2627.86 1754.09,2624.39 1744.74,2620.67 1735.54,2616.7 1726.51,2612.47 1717.65,2607.99 1708.99,2603.25 1700.54,2598.24 1692.32,2592.97 1684.34,2587.44 1676.62,2581.63 1669.17,2575.54 533.286,1439.66 540.734,1445.74 548.456,1451.55 556.435,1457.09 564.658,1462.36 573.108,1467.36 581.769,1472.11 590.625,1476.59 599.661,1480.81 608.862,1484.78 618.213,1488.5 627.697,1491.98 637.299,1495.2 647.002,1498.19 656.794,1500.93 666.656,1503.44 676.575,1505.72 686.533,1507.76 696.515,1509.58 706.508,1511.18 716.493,1512.55 726.455,1513.7 736.381,1514.64 745.762,1515.33 755.17,1515.83 764.601,1516.13 774.053,1516.23 783.517,1516.14 792.99,1515.86 802.468,1515.39 811.942,1514.72 821.412,1513.86 830.872,1512.81 840.315,1511.56 849.736,1510.13 859.133,1508.51 868.498,1506.69 877.829,1504.68 887.118,1502.49 896.363,1500.1 905.555,1497.53 914.695,1494.77 923.773,1491.81 932.786,1488.68 941.728,1485.35 950.596,1481.84 959.383,1478.14 968.087,1474.25 976.699,1470.18 985.217,1465.92 993.636,1461.48 1001.95,1456.85 1010.15,1452.04 1018.24,1447.04 1026.21,1441.86 1034.15,1436.43 1041.95,1430.82 1049.62,1425.03 1057.14,1419.05 1064.52,1412.88 1071.75,1406.54 1078.82,1400 1085.73,1393.29 1092.47,1386.39 1099.04,1379.31 1105.44,1372.05 1111.65,1364.61 1117.68,1356.99 1123.51,1349.18 1129.15,1341.2 1134.59,1333.03 1139.82,1324.69 1144.84,1316.17 1149.64,1307.46 1154.22,1298.58 1158.57,1289.53 1162.7,1280.29 1166.58,1270.87 1170.23,1261.28 1173.63,1251.51 1176.78,1241.57 1179.67,1231.45 1182.3,1221.15 1184.66,1210.68 1186.75,1200.04 1188.57,1189.22 "/>
    </g>
    <path id="_478234168" class="fil1" d="M1330.79 829.853l0 0zm-291.415 -193.596l0 0zm224.724 -99.4749c18.0414,-7.59804 37.2839,-6.4063 53.5985,3.14055 24.5008,14.3362 35.8028,44.354 25.1221,72.0036 -5.44725,14.1024 -16.2484,26.1414 -31.0878,32.7118l-224.711 99.4702c-20.0374,8.87009 -42.9343,5.59607 -59.7355,-7.24371 -59.8737,31.9488 -132.444,77.002 -207.393,135.964 66.13,-1.14567 132.783,9.62127 190.814,32.1425 89.8536,34.8721 159.528,97.3713 177.538,187.097 42.2752,-53.9918 88.193,-118.617 139.371,-196.413l-1.81654 -3.24685 -0.50315 -0.993308 -1.24725 -2.68819 -0.571654 -1.36417 -0.79252 -2.06929 -0.246851 -0.69567 -0.794883 -2.45551 -0.501969 -1.77284 -0.688583 -2.86299c-3.36969,-16.0583 -0.185433,-34.037 10.3382,-47.654l147.051 -196.896c8.70237,-12.326 23.9634,-20.8642 38.8536,-23.0209 14.4,-2.08583 29.2087,1.21772 41.2276,9.32481l4.38426 3.24567c24.3106,19.7811 28.9453,55.6784 10.0287,81.0095l-147.047 196.892c-14.015,18.7665 -37.6335,27.0933 -59.8016,22.3193 -64.9689,98.6682 -121.788,176.666 -173.655,238.993 -0.477166,5.62796 -1.05473,11.1307 -1.73032,16.5047 -14.8441,118.194 -78.5646,206.754 -163.886,263.633 -84.3638,56.2394 -189.949,81.1772 -289.833,72.7855 -105.617,-8.87245 -220.314,-54.0343 -259.112,-151.572 -11.6646,-29.3244 -16.0854,-62.3752 -11.4732,-99.0898 1.77638,-14.1473 4.9063,-28.8744 9.48426,-44.1721 -26.3185,-106.42 3.59528,-188.671 63.9945,-246.862 50.0646,-48.2351 121.218,-78.9142 198.127,-92.3398 19.6205,-16.9701 39.1902,-32.9941 58.5485,-48.0886 75.8989,-59.1792 148.65,-104.145 208.627,-136.207l-0.250394 -8.31969 1.53425 -11.1744c4.12796,-17.5417 16.5921,-33.4311 33.5209,-40.5638l224.718 -99.4713z"/>
   </g>
  </g>
  <path class="fil2" d="M1024 0c565.539,0 1024,458.461 1024,1024 0,565.539 -458.461,1024 -1024,1024 -565.539,0 -1024,-458.461 -1024,-1024 0,-565.539 458.461,-1024 1024,-1024z"/>
  <g id="_397637104">
   <path id="_397644640" class="fil3" d="M1053.45 723.308c-62.3091,31.2945 -143.411,79.2131 -228.878,145.853 -1.55906,1.21536 -3.11811,2.43898 -4.67953,3.66733 66.13,-1.14567 132.783,9.62127 190.814,32.1425 89.8536,34.8721 159.528,97.3713 177.538,187.097 44.8973,-57.3402 93.9024,-126.673 148.955,-211.04l39.0118 25.3394c-69.469,106.459 -129.678,189.619 -184.38,255.352 -0.477166,5.62796 -1.05473,11.1307 -1.73032,16.5047 -14.8441,118.194 -78.5646,206.754 -163.886,263.633 -84.3638,56.2394 -189.949,81.1772 -289.833,72.7855 -6.1441,-0.516142 -12.2032,-1.14921 -18.1677,-1.89803 -73.2036,-9.19489 -139.806,-33.9414 -186.366,-74.3162 -24.1323,-20.928 -42.9142,-46.0359 -54.5776,-75.3579 -11.6646,-29.3244 -16.0854,-62.3752 -11.4732,-99.0898 1.77638,-14.1473 4.9063,-28.8744 9.48426,-44.1721 -26.3185,-106.42 3.59528,-188.671 63.9945,-246.862 50.0646,-48.2351 121.218,-78.9142 198.127,-92.3398 19.6205,-16.9701 39.1902,-32.9941 58.5485,-48.0886 88.1894,-68.7627 172.132,-118.337 236.718,-150.775l20.7815 41.5642zm-295.485 201.077c-43.6985,38.5099 -87.5268,81.9012 -129.62,130.441 -54.3674,62.6965 -87.7949,118.038 -104.531,166.191 4.1315,14.5228 9.44883,29.5843 16.0642,45.202 20.7709,49.0418 68.5997,86.4993 130.557,103.394 59.5099,16.2272 131.708,13.4091 205.859,-16.0583 67.6772,-26.8996 131.252,-66.2552 203.117,-137.354 21.3945,-21.1677 43.513,-45.1264 66.665,-72.3556 1.82244,-95.5513 -63.417,-161.053 -152.141,-195.487 -68.4449,-26.563 -150.469,-35.0374 -227.692,-25.1138 -2.76614,0.355512 -5.5252,0.73819 -8.27717,1.14095zm-164.804 99.9981c23.0008,-26.524 46.5059,-51.5611 70.2308,-75.1548 -35.3374,14.0929 -66.8398,33.1666 -91.8485,57.2611 -33.9709,32.7296 -55.8414,75.4123 -58.6004,128.276 19.9063,-34.5331 46.3583,-71.3375 80.2182,-110.382zm-81.241 288.234c1.5378,11.8618 4.4374,22.9654 8.55591,33.3189 8.75788,22.0169 23.1591,41.1307 41.8158,57.3095 39.2374,34.0252 97.0737,55.0937 161.574,63.1949 5.49095,0.689764 10.9441,1.2626 16.3465,1.71614 89.9032,7.55434 184.74,-14.7591 260.297,-65.1296 60.2304,-40.1516 108.142,-98.354 131.197,-173.653 -6.55749,6.85158 -13.05,13.4599 -19.4811,19.8225 -76.9134,76.0938 -145.476,118.421 -218.795,147.563 -84.0568,33.404 -166.628,36.4004 -235.21,17.6988 -63.7737,-17.3894 -115.713,-53.5855 -146.301,-101.842z"/>
   <line id="_397637776" class="fil4" x1="1330.79" y1="829.854" x2="1330.79" y2= "829.853" />
   <path id="_397621312" class="fil5" d="M1560.36 620.991c13.0004,9.70631 20.8488,23.8666 23.0221,38.8583 2.16142,14.9162 -1.34764,30.6733 -11.0504,43.6666l-147.047 196.892c-9.70867,13.0016 -23.8677,20.8512 -38.8607,23.0244 -14.9162,2.16378 -30.6721,-1.34646 -43.6666,-11.0492l-0.00944883 -0.00944883c-12.9945,-9.70513 -20.8429,-23.863 -23.0138,-38.8512 -2.1626,-14.9126 1.34882,-30.6697 11.0469,-43.663l0.00590552 -0.00708662 147.051 -196.896 0.00708662 0 -0.00472441 -0.00354331c9.70513,-12.998 23.863,-20.8453 38.8512,-23.0173 14.9138,-2.16024 30.6673,1.34882 43.663,11.0492l0 0.0129921 0.00590552 -0.00708662z"/>
   <path id="_397630840" class="fil5" d="M1341.85 566.918c6.53268,14.7721 6.41693,30.9095 0.970867,45.0083 -5.44725,14.1024 -16.2484,26.1414 -31.0878,32.7118l-224.711 99.4702c-14.7815,6.54331 -30.9296,6.43347 -45.039,0.982678 -14.1024,-5.44489 -26.1414,-16.2473 -32.7107,-31.0866l-0.00236221 -0.011811c-6.53977,-14.7756 -6.42993,-30.9201 -0.979135,-45.0272 5.44489,-14.1 16.2461,-26.1366 31.0855,-32.7083l0.00590552 -0.00236221 0 -0.0011811 224.718 -99.4713 0.00354331 -0.0011811c14.7756,-6.54213 30.9189,-6.42993 45.0248,-0.980316 14.0988,5.44489 26.1378,16.2461 32.7083,31.0831l0.0129921 0.034252z"/>
   <path id="_397642240" class="fil6" d="M1039.38 636.257l0 0zm-31.0855 32.7083c-3.32835,8.61379 -4.66536,17.987 -3.71339,27.3437 0.585827,5.75434 2.03622,11.5016 4.42205,17.0634l32.1414 -14.6835 298.451 -136.341c-6.87402,-12.5091 -17.8429,-21.6744 -30.463,-26.5477 -14.5358,-5.61615 -29.7933,-5.43544 -45.0284,0.981497l-224.724 99.4749c-14.8394,6.57166 -25.6406,18.6083 -31.0855,32.7083z"/>
   <path id="_397636576" class="fil6" d="M1330.79 829.853l0 0zm229.567 -208.867l0 0zm-82.5166 11.9717l-147.057 196.903c-9.69804,12.9933 -13.2095,28.7504 -11.0469,43.663 1.12559,7.7693 3.77599,15.3154 7.87796,22.1339 3.62953,6.03189 8.39646,11.4957 14.2465,16.0394l14.0906 -18.4854 206.354 -270.705c-0.634252,-0.516142 -1.2815,-1.02165 -1.94882,-1.52008 -26.0445,-19.4421 -63.1465,-13.9725 -82.5166,11.9717z"/>
  </g>
 </g>
</svg>
