<?xml version="1.0" encoding="UTF-8"?>
<!DOCTYPE svg PUBLIC "-//W3C//DTD SVG 1.1//EN" "http://www.w3.org/Graphics/SVG/1.1/DTD/svg11.dtd">
<!-- Creator: CorelDRAW -->
<svg xmlns="http://www.w3.org/2000/svg" xml:space="preserve" width="2048px" height="2048px" style="shape-rendering:geometricPrecision; text-rendering:geometricPrecision; image-rendering:optimizeQuality; fill-rule:evenodd; clip-rule:evenodd"
viewBox="0 0 2048 2048"
 xmlns:xlink="http://www.w3.org/1999/xlink">
 <defs>
  <style type="text/css">
   <![CDATA[
    .fil2 {fill:none}
    .fil1 {fill:#5E35B1}
    .fil0 {fill:#9575CD}
    .fil8 {fill:#9F908B}
    .fil4 {fill:#B4A19A}
    .fil7 {fill:#361510;fill-rule:nonzero}
    .fil3 {fill:#401911;fill-rule:nonzero}
    .fil9 {fill:#C7C1CE;fill-rule:nonzero}
    .fil6 {fill:#D7CDD6;fill-rule:nonzero}
    .fil5 {fill:#E0D8E4;fill-rule:nonzero}
   ]]>
  </style>
   <clipPath id="id0">
    <path d="M1024 0c565.539,0 1024,458.461 1024,1024 0,565.539 -458.461,1024 -1024,1024 -565.539,0 -1024,-458.461 -1024,-1024 0,-565.539 458.461,-1024 1024,-1024z"/>
   </clipPath>
 </defs>
 <g id="Layer_x0020_1">
  <metadata id="CorelCorpID_0Corel-Layer"/>
  <path class="fil0" d="M1024 0c565.539,0 1024,458.461 1024,1024 0,565.539 -458.461,1024 -1024,1024 -565.539,0 -1024,-458.461 -1024,-1024 0,-565.539 458.461,-1024 1024,-1024z"/>
  <g style="clip-path:url(#id0)">
   <g id="_478224160">
    <g>
     <polygon id="_3968274641" class="fil1" points="1359.74,734.735 2495.62,1870.62 2501.07,1876.82 2506.44,1883.12 2511.74,1889.49 2516.96,1895.95 2522.1,1902.49 2527.18,1909.11 2532.17,1915.81 2537.1,1922.58 2541.95,1929.43 2546.72,1936.35 2551.42,1943.34 2556.06,1950.39 2560.61,1957.52 2565.1,1964.7 2569.51,1971.95 2573.85,1979.26 2578.13,1986.63 2582.33,1994.06 2586.46,2001.54 2590.52,2009.07 2594.51,2016.66 2598.43,2024.3 2602.28,2031.98 2606.06,2039.71 2609.78,2047.48 2613.42,2055.29 2617,2063.15 2620.51,2071.04 1484.63,935.161 1481.12,927.268 1477.54,919.412 1473.89,911.597 1470.18,903.824 1466.4,896.095 1462.55,888.413 1458.63,880.777 1454.63,873.191 1450.58,865.657 1446.45,858.177 1442.25,850.75 1437.97,843.381 1433.63,836.071 1429.22,828.822 1424.73,821.634 1420.17,814.511 1415.54,807.455 1410.84,800.467 1406.06,793.549 1401.21,786.702 1396.29,779.929 1391.29,773.232 1386.22,766.612 1381.08,760.069 1375.86,753.61 1370.56,747.233 1365.19,740.94 "/>
     <polygon id="_396802504" class="fil1" points="1484.63,935.161 2620.51,2071.04 2624.51,2080.27 2628.42,2089.55 2632.24,2098.87 2635.96,2108.23 2639.6,2117.63 2643.15,2127.06 2646.61,2136.53 2649.99,2146.02 2653.27,2155.54 2656.47,2165.08 2659.58,2174.64 2662.61,2184.22 2665.55,2193.82 2668.41,2203.42 2671.18,2213.03 2673.87,2222.65 2676.48,2232.27 2679,2241.89 2681.44,2251.5 2683.8,2261.11 2686.07,2270.71 2688.27,2280.29 2690.39,2289.86 2692.42,2299.41 2694.38,2308.94 2696.26,2318.45 2698.06,2327.92 2699.78,2337.37 2701.43,2346.78 2702.99,2356.16 2704.49,2365.5 2705.9,2374.79 1570.02,1238.91 1568.6,1229.61 1567.11,1220.28 1565.54,1210.9 1563.9,1201.49 1562.18,1192.04 1560.38,1182.56 1558.5,1173.06 1556.54,1163.53 1554.51,1153.98 1552.39,1144.41 1550.19,1134.83 1547.91,1125.23 1545.56,1115.62 1543.12,1106.01 1540.59,1096.39 1537.99,1086.77 1535.3,1077.15 1532.53,1067.54 1529.67,1057.93 1526.73,1048.34 1523.7,1038.76 1520.59,1029.2 1517.39,1019.66 1514.1,1010.14 1510.73,1000.64 1507.27,991.18 1503.72,981.746 1500.08,972.348 1496.35,962.988 1492.54,953.668 1488.63,944.391 "/>
     <polygon id="_396802648" class="fil1" points="1570.02,1238.91 2705.9,2374.79 2706.88,2381.55 2707.83,2388.27 2708.73,2394.96 2709.59,2401.61 2710.42,2408.22 2711.21,2414.78 2711.96,2421.31 2712.68,2427.79 2713.35,2434.23 2713.99,2440.62 2714.6,2446.96 2715.17,2453.25 2715.71,2459.49 2716.21,2465.67 2716.67,2471.8 2717.11,2477.88 2717.51,2483.9 2717.87,2489.86 2718.21,2495.76 2718.51,2501.6 2718.78,2507.38 2719.02,2513.09 2719.23,2518.74 2719.41,2524.32 2719.56,2529.83 2719.68,2535.27 2719.78,2540.64 2719.84,2545.94 2719.87,2551.16 2719.88,2556.3 2719.86,2561.37 2719.81,2566.36 1583.93,1430.48 1583.98,1425.49 1584,1420.42 1583.99,1415.27 1583.96,1410.05 1583.89,1404.76 1583.8,1399.39 1583.68,1393.95 1583.53,1388.44 1583.35,1382.86 1583.14,1377.21 1582.9,1371.5 1582.63,1365.72 1582.33,1359.88 1581.99,1353.98 1581.63,1348.02 1581.23,1342 1580.79,1335.92 1580.33,1329.79 1579.82,1323.6 1579.29,1317.36 1578.72,1311.07 1578.11,1304.73 1577.47,1298.34 1576.79,1291.91 1576.08,1285.43 1575.33,1278.9 1574.54,1272.33 1573.71,1265.72 1572.85,1259.08 1571.95,1252.39 1571,1245.67 "/>
     <polygon id="_396816688" class="fil1" points="1583.93,1430.48 2719.81,2566.36 2719.71,2572.63 2719.55,2578.78 2719.35,2584.81 2719.09,2590.73 2718.79,2596.52 2718.43,2602.18 2718.03,2607.71 2717.59,2613.1 2717.1,2618.37 2716.56,2623.49 2715.98,2628.47 2715.36,2633.31 2714.7,2638 2714,2642.54 2713.26,2646.93 2712.48,2651.17 2711.66,2655.24 2710.81,2659.16 2709.93,2662.91 2709.01,2666.49 2708.05,2669.91 2707.07,2673.15 2706.05,2676.22 2705,2679.11 2703.93,2681.82 2702.82,2684.35 2701.69,2686.69 2700.53,2688.84 2699.35,2690.8 2698.14,2692.56 2696.91,2694.13 2695.66,2695.5 1559.78,1559.61 1561.03,1558.25 1562.26,1556.68 1563.47,1554.92 1564.65,1552.96 1565.81,1550.81 1566.94,1548.46 1568.04,1545.94 1569.12,1543.23 1570.17,1540.34 1571.19,1537.27 1572.17,1534.03 1573.12,1530.61 1574.04,1527.03 1574.93,1523.28 1575.78,1519.36 1576.6,1515.29 1577.38,1511.05 1578.12,1506.66 1578.82,1502.12 1579.48,1497.43 1580.1,1492.59 1580.68,1487.61 1581.21,1482.49 1581.71,1477.22 1582.15,1471.82 1582.55,1466.29 1582.9,1460.63 1583.21,1454.85 1583.47,1448.93 1583.67,1442.9 1583.83,1436.75 "/>
     <polygon id="_396825808" class="fil1" points="1559.78,1559.61 2695.66,2695.5 2695.64,2695.51 2695.63,2695.53 2695.62,2695.54 2695.6,2695.55 2695.59,2695.57 2695.57,2695.58 2695.56,2695.6 2695.54,2695.61 1559.66,1559.73 1559.68,1559.71 1559.69,1559.7 1559.71,1559.69 1559.72,1559.67 1559.73,1559.66 1559.75,1559.64 1559.76,1559.63 "/>
     <polygon id="_396797512" class="fil1" points="1559.66,1559.73 2695.54,2695.61 2694.28,2696.77 2692.87,2697.92 2691.29,2699.04 2689.56,2700.14 2687.68,2701.22 2685.65,2702.27 2683.47,2703.3 2681.15,2704.31 2678.68,2705.29 2676.07,2706.24 2673.32,2707.17 2670.42,2708.07 2667.4,2708.95 2664.24,2709.79 2660.94,2710.61 2657.52,2711.39 2653.97,2712.15 2650.29,2712.87 2646.48,2713.56 2642.56,2714.22 2638.51,2714.85 2634.35,2715.44 2630.07,2716 2625.67,2716.52 2621.16,2717 2616.54,2717.45 2611.82,2717.86 2606.98,2718.24 2602.05,2718.57 2597.01,2718.87 2591.87,2719.12 2586.63,2719.33 1450.75,1583.45 1455.98,1583.24 1461.13,1582.98 1466.16,1582.69 1471.1,1582.35 1475.94,1581.98 1480.66,1581.57 1485.28,1581.12 1489.79,1580.64 1494.18,1580.11 1498.47,1579.56 1502.63,1578.97 1506.68,1578.34 1510.6,1577.68 1514.4,1576.99 1518.08,1576.27 1521.64,1575.51 1525.06,1574.72 1528.35,1573.91 1531.52,1573.07 1534.54,1572.19 1537.43,1571.29 1540.19,1570.36 1542.8,1569.41 1545.27,1568.42 1547.59,1567.42 1549.77,1566.39 1551.8,1565.33 1553.68,1564.26 1555.41,1563.16 1556.98,1562.03 1558.4,1560.89 "/>
     <polygon id="_396805048" class="fil1" points="1450.75,1583.45 2586.63,2719.33 2582.34,2719.48 2577.97,2719.6 2573.54,2719.7 2569.03,2719.78 2564.46,2719.84 2559.81,2719.87 2555.11,2719.88 2550.33,2719.87 2545.49,2719.83 2540.59,2719.77 2535.62,2719.68 2530.6,2719.57 2525.51,2719.43 2520.37,2719.27 2515.16,2719.09 2509.9,2718.87 2504.59,2718.63 2499.22,2718.37 2493.8,2718.07 2488.33,2717.75 2482.8,2717.4 2477.23,2717.03 2471.61,2716.62 2465.94,2716.19 2460.23,2715.72 2454.47,2715.23 2448.66,2714.71 2442.82,2714.16 2436.93,2713.57 2431,2712.96 2425.04,2712.32 2419.03,2711.64 1283.15,1575.76 1289.16,1576.43 1295.12,1577.08 1301.05,1577.69 1306.94,1578.27 1312.78,1578.83 1318.59,1579.35 1324.35,1579.84 1330.06,1580.3 1335.73,1580.74 1341.35,1581.14 1346.92,1581.52 1352.45,1581.87 1357.92,1582.19 1363.34,1582.48 1368.71,1582.75 1374.02,1582.99 1379.28,1583.2 1384.48,1583.39 1389.63,1583.55 1394.72,1583.69 1399.74,1583.8 1404.71,1583.89 1409.61,1583.95 1414.45,1583.98 1419.22,1584 1423.93,1583.99 1428.58,1583.95 1433.15,1583.9 1437.66,1583.82 1442.09,1583.72 1446.45,1583.59 "/>
     <polygon id="_396828040" class="fil1" points="1283.15,1575.76 2419.03,2711.64 2417.89,2711.51 2416.73,2711.37 2415.57,2711.23 2414.39,2711.09 2413.21,2710.95 2412.02,2710.8 2410.82,2710.65 2409.61,2710.5 2408.39,2710.34 2407.17,2710.19 2405.94,2710.03 2404.69,2709.86 2403.45,2709.7 2402.19,2709.53 2400.92,2709.36 2399.65,2709.19 1263.77,1573.3 1265.04,1573.48 1266.31,1573.65 1267.56,1573.82 1268.81,1573.98 1270.05,1574.14 1271.29,1574.31 1272.51,1574.46 1273.73,1574.62 1274.94,1574.77 1276.14,1574.92 1277.33,1575.07 1278.51,1575.21 1279.69,1575.35 1280.85,1575.49 1282.01,1575.63 "/>
     <polygon id="_396827056" class="fil1" points="1263.77,1573.3 2399.65,2709.19 2399.65,2709.19 2399.64,2709.19 2399.64,2709.2 2399.63,2709.2 2399.63,2709.2 2399.63,2709.21 2399.62,2709.21 2399.62,2709.21 1263.73,1573.33 1263.74,1573.33 1263.74,1573.32 1263.75,1573.32 1263.75,1573.32 1263.76,1573.31 1263.76,1573.31 1263.77,1573.31 "/>
     <polygon id="_396796480" class="fil1" points="1263.73,1573.33 2399.62,2709.21 2398.07,2709.01 2396.52,2708.81 2394.97,2708.61 2393.42,2708.4 2391.87,2708.19 2390.31,2707.98 2388.75,2707.77 2387.19,2707.55 2385.63,2707.33 2384.07,2707.11 2382.5,2706.89 2380.93,2706.67 2379.36,2706.44 2377.79,2706.22 2376.22,2705.99 2374.64,2705.76 1238.76,1569.87 1240.34,1570.1 1241.91,1570.33 1243.48,1570.56 1245.05,1570.79 1246.62,1571.01 1248.18,1571.23 1249.75,1571.45 1251.31,1571.67 1252.87,1571.88 1254.43,1572.1 1255.99,1572.31 1257.54,1572.52 1259.09,1572.72 1260.64,1572.93 1262.19,1573.13 "/>
     <polygon id="_396827560" class="fil1" points="1140.23,1550.93 2276.11,2686.82 2272.69,2686.06 2269.28,2685.3 2265.87,2684.53 2262.48,2683.75 2259.1,2682.97 2255.73,2682.19 2252.38,2681.4 2249.05,2680.61 2245.73,2679.81 2242.43,2679 2239.15,2678.19 2235.88,2677.38 2232.65,2676.56 2229.43,2675.74 2226.24,2674.92 2223.07,2674.09 2219.94,2673.26 2216.82,2672.43 2213.74,2671.59 2210.69,2670.75 2207.67,2669.91 2204.69,2669.07 2201.73,2668.22 2198.82,2667.38 2195.94,2666.53 2193.09,2665.68 2190.29,2664.83 2187.52,2663.97 2184.8,2663.12 2182.12,2662.26 2179.49,2661.41 2176.89,2660.55 1041.01,1524.67 1043.61,1525.52 1046.24,1526.38 1048.92,1527.24 1051.64,1528.09 1054.41,1528.94 1057.21,1529.79 1060.06,1530.64 1062.94,1531.49 1065.85,1532.34 1068.81,1533.19 1071.79,1534.03 1074.81,1534.87 1077.86,1535.71 1080.94,1536.55 1084.05,1537.38 1087.19,1538.21 1090.36,1539.04 1093.55,1539.86 1096.76,1540.68 1100,1541.5 1103.26,1542.31 1106.54,1543.12 1109.84,1543.92 1113.17,1544.72 1116.5,1545.52 1119.85,1546.31 1123.22,1547.09 1126.6,1547.87 1129.99,1548.65 1133.4,1549.41 1136.81,1550.18 "/>
     <polygon id="_396795568" class="fil1" points="1238.76,1569.87 2374.64,2705.76 2371.6,2705.3 2368.56,2704.84 2365.51,2704.37 2362.45,2703.89 2359.39,2703.41 2356.33,2702.92 2353.26,2702.41 2350.19,2701.9 2347.12,2701.39 2344.04,2700.86 2340.96,2700.32 2337.87,2699.78 2334.78,2699.23 2331.69,2698.67 2328.59,2698.1 2325.49,2697.53 2322.39,2696.94 2319.29,2696.35 2316.18,2695.75 2313.07,2695.14 2309.95,2694.52 2306.84,2693.89 2303.72,2693.26 2300.6,2692.61 2297.47,2691.96 2294.35,2691.3 2291.22,2690.63 2288.09,2689.95 2284.96,2689.27 2281.83,2688.57 2278.69,2687.87 2275.55,2687.16 1139.67,1551.28 1142.81,1551.99 1145.94,1552.69 1149.08,1553.39 1152.21,1554.07 1155.34,1554.75 1158.47,1555.42 1161.59,1556.08 1164.72,1556.73 1167.84,1557.38 1170.96,1558.01 1174.07,1558.64 1177.19,1559.25 1180.3,1559.86 1183.41,1560.47 1186.51,1561.06 1189.61,1561.64 1192.71,1562.22 1195.81,1562.79 1198.9,1563.35 1201.99,1563.9 1205.08,1564.44 1208.16,1564.98 1211.24,1565.5 1214.31,1566.02 1217.38,1566.53 1220.45,1567.03 1223.51,1567.53 1226.57,1568.01 1229.63,1568.49 1232.67,1568.96 1235.72,1569.42 "/>
     <polygon id="_396813616" class="fil1" points="1041.01,1524.67 2176.89,2660.55 2176.89,2660.58 1041.01,1524.7 "/>
     <polygon id="_396798952" class="fil1" points="1041.01,1524.7 2176.89,2660.58 2170.93,2658.68 2164.97,2656.75 2159.01,2654.78 2153.06,2652.78 2147.11,2650.74 2141.16,2648.67 2135.23,2646.55 2129.29,2644.41 2123.37,2642.22 2117.45,2639.99 2111.54,2637.73 2105.65,2635.43 2099.76,2633.09 2093.88,2630.71 2088.02,2628.3 2082.17,2625.84 2076.33,2623.35 2070.5,2620.82 2064.69,2618.24 2058.9,2615.63 2053.12,2612.97 2047.36,2610.28 2041.62,2607.55 2035.9,2604.77 2030.2,2601.96 2024.51,2599.1 2018.85,2596.2 2013.21,2593.26 2007.6,2590.27 2002,2587.25 1996.43,2584.18 1990.89,2581.07 855.009,1445.18 860.553,1448.3 866.122,1451.36 871.714,1454.39 877.332,1457.37 882.97,1460.31 888.633,1463.21 894.315,1466.07 900.017,1468.89 905.741,1471.66 911.482,1474.4 917.241,1477.09 923.018,1479.75 928.813,1482.36 934.621,1484.93 940.445,1487.47 946.285,1489.96 952.136,1492.42 958.001,1494.83 963.877,1497.21 969.765,1499.55 975.663,1501.85 981.571,1504.11 987.487,1506.34 993.412,1508.52 999.344,1510.67 1005.28,1512.78 1011.23,1514.86 1017.18,1516.9 1023.13,1518.9 1029.09,1520.87 1035.04,1522.8 "/>
     <polygon id="_396823264" class="fil1" points="855.009,1445.18 1990.89,2581.07 1985.96,2578.26 1981.06,2575.41 1976.18,2572.53 1971.32,2569.61 1966.48,2566.66 1961.67,2563.67 1956.88,2560.65 1952.12,2557.6 1947.38,2554.5 1942.67,2551.38 1937.99,2548.21 1933.33,2545.01 1928.7,2541.78 1924.1,2538.5 1919.52,2535.19 1914.98,2531.85 1910.46,2528.47 1905.98,2525.05 1901.52,2521.59 1897.1,2518.09 1892.71,2514.56 1888.35,2510.99 1884.03,2507.39 1879.73,2503.74 1875.48,2500.06 1871.25,2496.33 735.371,1360.45 739.595,1364.17 743.852,1367.86 748.144,1371.5 752.469,1375.11 756.827,1378.68 761.219,1382.21 765.641,1385.71 770.095,1389.16 774.581,1392.58 779.095,1395.97 783.641,1399.31 788.214,1402.62 792.817,1405.89 797.448,1409.13 802.106,1412.33 806.792,1415.49 811.503,1418.62 816.242,1421.71 821.004,1424.77 825.792,1427.79 830.604,1430.78 835.44,1433.73 840.298,1436.64 845.18,1439.53 850.084,1442.37 "/>
    </g>
    <path id="_478227016" class="fil1" d="M764.848 472.241c102.529,11.7827 220.937,40.6949 329.212,85.6572 93.8032,38.9528 180.336,90.1335 243.078,152.962l0.0448819 -0.046063c61.7965,61.7965 110.361,139.949 147.444,224.347 43.1457,98.1934 70.6867,204.842 85.3926,303.747 10.6878,72.2764 14.5559,138.777 13.911,191.569 -0.82441,67.4788 -10.6784,115.632 -24.1547,129.138 -0.0377953,0.0377953 -0.0755906,0.0755906 -0.115748,0.112205 -12.5776,12.5173 -52.5154,21.665 -108.915,23.7236 -45.378,1.65473 -103.35,-0.316536 -167.593,-7.69253 -6.09213,-0.699213 -12.5776,-1.52244 -19.3819,-2.45551 -0.011811,0.00944883 -0.0248032,0.0177165 -0.0366142,0.0271654 -8.2382,-1.06299 -16.5673,-2.21457 -24.9744,-3.45709 -32.4059,-4.78937 -65.6221,-10.9559 -99.0875,-18.5977 0.185433,-0.113386 0.372048,-0.227953 0.558662,-0.34252 -36.5433,-8.03505 -71.8205,-17.1343 -99.2174,-26.263l-0.00826772 0.0259843c-63.5918,-20.0268 -126.999,-46.0961 -185.997,-79.5107 -52.6465,-29.817 -101.718,-65.4733 -144.216,-107.883l-0.090945 -0.0921261c-61.9311,-62.0599 -110.528,-140.247 -147.566,-224.599 -43.0677,-98.0906 -70.5343,-204.571 -85.1552,-303.518 -10.689,-72.2764 -14.5571,-138.777 -13.9122,-191.57 0.825591,-67.4776 10.6784,-115.632 24.1547,-129.138 0.0153543,-0.0153543 0.0318898,-0.0318898 0.0472441,-0.0472441 12.5043,-12.5504 52.487,-21.7276 108.984,-23.7886 45.3768,-1.65591 103.35,0.316536 167.594,7.69134z"/>
   </g>
  </g>
  <path class="fil2" d="M1024 0c565.539,0 1024,458.461 1024,1024 0,565.539 -458.461,1024 -1024,1024 -565.539,0 -1024,-458.461 -1024,-1024 0,-565.539 458.461,-1024 1024,-1024z"/>
  <path class="fil3" d="M597.254 464.549c45.3768,-1.65591 103.35,0.315355 167.594,7.69134 102.529,11.7827 220.937,40.6949 329.212,85.6572 93.8032,38.9516 180.336,90.1335 243.078,152.962l0.046063 -0.046063c61.7953,61.7965 110.36,139.949 147.443,224.347 43.1457,98.1934 70.6867,204.842 85.3926,303.747 10.6878,72.2764 14.5571,138.777 13.911,191.569 -0.82441,67.4788 -10.6784,115.632 -24.1547,129.138 -12.4524,12.5752 -52.4622,21.7725 -109.031,23.8358 -45.378,1.65473 -103.351,-0.316536 -167.593,-7.69134 -34.7587,-3.99331 -82.2886,-11.9811 -128.973,-21.8232 -41.4201,-8.7319 -82.2957,-18.9803 -113.166,-29.2666l-0.00826772 0.0259843c-63.5918,-20.0268 -126.999,-46.0961 -185.997,-79.5107 -52.6453,-29.817 -101.718,-65.4733 -144.216,-107.884l-0.090945 -0.090945c-61.9311,-62.0599 -110.529,-140.247 -147.566,-224.599 -43.0677,-98.0906 -70.5343,-204.571 -85.1564,-303.518 -10.6866,-72.2776 -14.5559,-138.777 -13.911,-191.57 0.825591,-67.4776 10.6784,-115.632 24.1547,-129.138 12.4524,-12.574 52.4634,-21.7725 109.031,-23.8358z"/>
  <path class="fil4" d="M478.126 809.239c4.78937,32.4071 10.9559,65.6233 18.5977,99.0875 36.7229,-60.0119 103.465,-141.664 186.667,-224.867 82.5414,-82.5426 163.557,-148.884 223.433,-185.786 -41.9859,-10.0193 -83.3363,-17.674 -122.662,-22.9075 -49.5721,37.3713 -106.629,87.2339 -164.43,145.035 -57.815,57.8138 -107.688,114.884 -145.062,164.465 1.06181,8.23701 2.21339,16.5673 3.45591,24.9732z"/>
  <path class="fil4" d="M1238.76 1569.87c-32.4071,-4.78937 -65.6221,-10.9559 -99.0863,-18.5977 60.0119,-36.7217 141.664,-103.465 224.866,-186.666 82.5426,-82.5426 148.885,-163.558 185.786,-223.433 10.0205,41.9847 17.6752,83.3363 22.9087,122.662 -37.3713,49.5721 -87.2339,106.629 -145.035,164.43 -57.815,57.8138 -114.885,107.687 -164.465,145.061 -8.2382,-1.06181 -16.5673,-2.21339 -24.9744,-3.45591z"/>
  <path class="fil5" d="M840.389 861.086c-5.69646,-5.69646 -5.69646,-14.9315 0,-20.628 5.69528,-5.69528 14.9315,-5.69528 20.6268,0l346.526 346.526c5.69528,5.69528 5.69528,14.9315 0,20.6268 -5.69646,5.69646 -14.9315,5.69646 -20.628,0l-346.525 -346.525z"/>
  <path class="fil5" d="M1028.09 1084.88c-4.27205,4.27205 -11.198,4.27205 -15.4701,0 -4.27087,-4.27087 -4.27087,-11.198 0,-15.4689l56.7225 -56.7225c4.27205,-4.27205 11.198,-4.27205 15.4701,0 4.27205,4.27205 4.27205,11.198 0,15.4701l-56.7225 56.7213z"/>
  <path class="fil5" d="M879.574 936.366c-4.27087,4.27087 -11.1969,4.27087 -15.4689,0 -4.27205,-4.27205 -4.27205,-11.198 0,-15.4701l56.7213 -56.7225c4.27205,-4.27205 11.198,-4.27205 15.4701,0 4.27205,4.27205 4.27205,11.198 0,15.4701l-56.7225 56.7225z"/>
  <path class="fil5" d="M929.081 985.872c-4.27205,4.27205 -11.198,4.27205 -15.4701,0 -4.27205,-4.27205 -4.27205,-11.198 0,-15.4701l56.7225 -56.7225c4.27087,-4.27205 11.198,-4.27205 15.4689,0 4.27205,4.27205 4.27205,11.198 0,15.4701l-56.7213 56.7225z"/>
  <path class="fil5" d="M978.587 1035.38c-4.27205,4.27205 -11.198,4.27205 -15.4701,0 -4.27205,-4.27205 -4.27205,-11.198 0,-15.4701l56.7225 -56.7225c4.27205,-4.27205 11.198,-4.27205 15.4701,0 4.27087,4.27205 4.27087,11.198 0,15.4701l-56.7225 56.7225z"/>
  <path class="fil5" d="M1077.6 1134.39c-4.27205,4.27205 -11.198,4.27205 -15.4701,0 -4.27205,-4.27205 -4.27205,-11.198 0,-15.4701l56.7225 -56.7213c4.27205,-4.27205 11.198,-4.27205 15.4701,0 4.27205,4.27087 4.27205,11.198 0,15.4689l-56.7225 56.7225z"/>
  <path class="fil6" d="M1127.1 1183.9c-4.27205,4.27205 -11.198,4.27205 -15.4701,0 -4.27087,-4.27205 -4.27087,-11.198 0,-15.4701l56.7225 -56.7213c4.27205,-4.27205 11.198,-4.27205 15.4701,0 4.27205,4.27205 4.27205,11.198 0,15.4701l-56.7225 56.7213z"/>
  <path class="fil7" d="M1559.66 1559.73c-12.5787,12.5173 -52.5166,21.665 -108.915,23.7236 -45.378,1.65473 -103.35,-0.316536 -167.593,-7.69253 -34.7587,-3.99213 -82.2875,-11.9799 -128.973,-21.8221 -41.4201,-8.7319 -82.2957,-18.9803 -113.166,-29.2666l-0.00826772 0.0271654c-63.5918,-20.028 -126.999,-46.0973 -185.997,-79.5119 -52.6465,-29.817 -101.718,-65.4721 -144.216,-107.884l-0.090945 -0.090945c-61.9311,-62.0599 -110.528,-140.247 -147.566,-224.599 -43.0677,-98.0918 -70.5343,-204.571 -85.1552,-303.518 -10.6878,-72.2764 -14.5571,-138.777 -13.9122,-191.57 0.825591,-67.4776 10.6784,-115.632 24.1559,-129.138l0.0472441 -0.046063 1071.39 1071.39z"/>
  <path class="fil8" d="M478.126 809.239c4.78937,32.4071 10.9559,65.6233 18.5977,99.0875 36.7229,-60.0119 103.465,-141.664 186.667,-224.867l0.0011811 -0.0011811 -63.6591 -63.6591 -0.0011811 0.0011811c-57.815,57.8138 -107.688,114.884 -145.062,164.465 1.06181,8.23701 2.21339,16.5673 3.45591,24.9732z"/>
  <path class="fil8" d="M1238.76 1569.87c-32.4071,-4.78937 -65.6221,-10.9559 -99.0863,-18.5977 60.0119,-36.7217 141.664,-103.465 224.866,-186.666l0.0011811 -0.0011811 63.6603 63.6591 -0.0011811 0.0011811c-57.815,57.8138 -114.885,107.687 -164.465,145.061 -8.2382,-1.06181 -16.5673,-2.21339 -24.9744,-3.45591z"/>
  <path class="fil9" d="M840.389 861.086c-5.69646,-5.69646 -5.69646,-14.9315 0,-20.628l0.0011811 -0.0011811 367.153 367.153 -0.0011811 0.0011811c-5.69646,5.69646 -14.9315,5.69646 -20.628,0l-346.525 -346.525z"/>
  <path class="fil9" d="M1028.09 1084.88c-4.27205,4.27205 -11.198,4.27205 -15.4701,0 -4.27087,-4.27087 -4.27087,-11.198 0,-15.4689l28.363 -28.363 15.4701 15.4701 -28.363 28.3618z"/>
  <path class="fil9" d="M879.574 936.366c-4.27087,4.27087 -11.1969,4.27087 -15.4689,0 -4.27205,-4.27205 -4.27205,-11.198 0,-15.4701l28.3618 -28.363 15.4701 15.4701 -28.363 28.363z"/>
  <path class="fil9" d="M929.081 985.872c-4.27205,4.27205 -11.198,4.27205 -15.4701,0 -4.27205,-4.27205 -4.27205,-11.198 0,-15.4701l28.3618 -28.3618 15.4701 15.4689 -28.3618 28.363z"/>
  <path class="fil9" d="M978.587 1035.38c-4.27205,4.27205 -11.198,4.27205 -15.4701,0 -4.27205,-4.27205 -4.27205,-11.198 0,-15.4701l28.3618 -28.3618 15.4701 15.4689 -28.3618 28.363z"/>
  <path class="fil9" d="M1077.6 1134.39c-4.27205,4.27205 -11.198,4.27205 -15.4701,0 -4.27205,-4.27205 -4.27205,-11.198 0,-15.4701l28.363 -28.3618 15.4701 15.4701 -28.363 28.3618z"/>
  <path class="fil9" d="M1127.1 1183.9c-4.27205,4.27205 -11.198,4.27205 -15.4701,0 -4.27087,-4.27205 -4.27087,-11.198 0,-15.4701l28.363 -28.3618 15.4701 15.4701 -28.363 28.3618z"/>
 </g>
</svg>
