<?xml version="1.0" encoding="UTF-8"?>
<!DOCTYPE svg PUBLIC "-//W3C//DTD SVG 1.1//EN" "http://www.w3.org/Graphics/SVG/1.1/DTD/svg11.dtd">
<!-- Creator: CorelDRAW -->
<svg xmlns="http://www.w3.org/2000/svg" xml:space="preserve" width="2048px" height="2048px" style="shape-rendering:geometricPrecision; text-rendering:geometricPrecision; image-rendering:optimizeQuality; fill-rule:evenodd; clip-rule:evenodd"
viewBox="0 0 2048 2048"
 xmlns:xlink="http://www.w3.org/1999/xlink">
 <defs>
  <style type="text/css">
   <![CDATA[
    .fil2 {fill:none}
    .fil7 {fill:#01579B}
    .fil4 {fill:#1F1F1F}
    .fil11 {fill:#212121}
    .fil8 {fill:#2C6C2F}
    .fil9 {fill:#2E7D32}
    .fil1 {fill:#8E24AA}
    .fil10 {fill:#B19A75}
    .fil0 {fill:#BA68C8}
    .fil5 {fill:#E0E0E0}
    .fil12 {fill:#E2CDAA}
    .fil13 {fill:#E7B691}
    .fil6 {fill:#E9C1A0}
    .fil3 {fill:#FFD3AE}
   ]]>
  </style>
   <clipPath id="id0">
    <path d="M1024 0c565.539,0 1024,458.461 1024,1024 0,565.539 -458.461,1024 -1024,1024 -565.539,0 -1024,-458.461 -1024,-1024 0,-565.539 458.461,-1024 1024,-1024z"/>
   </clipPath>
 </defs>
 <g id="Layer_x0020_1">
  <metadata id="CorelCorpID_0Corel-Layer"/>
  <path class="fil0" d="M1024 0c565.539,0 1024,458.461 1024,1024 0,565.539 -458.461,1024 -1024,1024 -565.539,0 -1024,-458.461 -1024,-1024 0,-565.539 458.461,-1024 1024,-1024z"/>
  <g style="clip-path:url(#id0)">
   <g id="_478210912">
    <g>
     <polygon id="_3872050961" class="fil1" points="1203.33,630.532 2339.22,1766.41 2340.22,1767.73 2341.01,1769.1 1205.13,633.22 1204.34,631.843 "/>
     <polygon id="_387216448" class="fil1" points="1262.03,686.519 2397.91,1822.4 2399.31,1823.97 2400.59,1825.54 2401.76,1827.13 2402.81,1828.75 2403.76,1830.41 2404.59,1832.13 2405.31,1833.91 2405.92,1835.77 2406.42,1837.72 2406.81,1839.78 2407.09,1841.95 1271.2,706.065 1270.92,703.895 1270.53,701.841 1270.03,699.89 1269.42,698.03 1268.71,696.247 1267.87,694.531 1266.93,692.869 1265.88,691.249 1264.71,689.659 1263.42,688.086 "/>
     <polygon id="_387188752" class="fil1" points="1002.32,466.212 2138.2,1602.09 2139.28,1603.32 2140.12,1604.72 2140.75,1606.26 2141.2,1607.88 2141.5,1609.54 2141.7,1611.19 2141.82,1612.8 2141.89,1614.3 2141.95,1615.66 2142.04,1616.83 2142.18,1617.77 2142.42,1618.42 1006.54,482.54 1006.3,481.885 1006.16,480.95 1006.07,479.778 1006.01,478.418 1005.93,476.913 1005.82,475.31 1005.62,473.655 1005.32,471.996 1004.87,470.376 1004.24,468.84 1003.4,467.438 "/>
     <polygon id="_387200848" class="fil1" points="1026.9,474.044 2162.79,1609.93 2163.95,1611.55 2164.8,1613.48 2165.38,1615.66 2165.71,1618 2165.85,1620.43 2165.82,1622.87 2165.66,1625.25 2165.41,1627.49 2165.1,1629.51 2164.77,1631.24 2164.46,1632.61 2164.2,1633.53 1028.32,497.645 1028.58,496.724 1028.89,495.359 1029.22,493.628 1029.53,491.605 1029.78,489.367 1029.94,486.989 1029.97,484.549 1029.83,482.119 1029.5,479.778 1028.92,477.602 1028.07,475.665 "/>
     <polygon id="_387208096" class="fil1" points="1011.5,548.653 2147.39,1684.54 2147.45,1685.15 2147.36,1686.75 2147.13,1689.29 2146.77,1692.7 2146.3,1696.94 2145.74,1701.94 2145.11,1707.66 2144.42,1714.03 2143.68,1721.01 2142.92,1728.53 2142.15,1736.55 2141.39,1745 2140.65,1753.84 2139.95,1763.01 2139.31,1772.45 2138.75,1782.11 2138.27,1791.93 2137.9,1801.87 2137.65,1811.85 2137.54,1821.84 2137.59,1831.76 2137.81,1841.58 2138.22,1851.23 2138.84,1860.66 2139.67,1869.81 2140.75,1878.63 2142.08,1887.07 2143.68,1895.07 2145.57,1902.57 2147.77,1909.52 2150.29,1915.86 2153.14,1921.55 1017.26,785.663 1014.4,779.979 1011.89,773.634 1009.69,766.685 1007.8,759.185 1006.2,751.189 1004.87,742.752 1003.79,733.929 1002.96,724.776 1002.34,715.347 1001.93,705.696 1001.71,695.88 1001.66,685.953 1001.77,675.969 1002.02,665.984 1002.39,656.052 1002.87,646.229 1003.43,636.57 1004.07,627.129 1004.77,617.961 1005.51,609.122 1006.27,600.667 1007.04,592.648 1007.8,585.123 1008.53,578.147 1009.23,571.773 1009.86,566.057 1010.42,561.054 1010.89,556.818 1011.24,553.406 1011.48,550.871 1011.57,549.269 "/>
     <polygon id="_387192928" class="fil1" points="1203.56,816.839 2339.44,1952.72 2338.3,1954.87 2337.19,1956.97 2336.12,1959.03 2335.08,1961.03 2334.04,1962.98 2333,1964.87 2331.95,1966.69 2330.86,1968.45 2329.74,1970.14 2328.56,1971.75 2327.32,1973.29 2326,1974.75 2324.58,1976.11 2323.07,1977.39 2321.44,1978.58 2319.68,1979.67 1183.8,843.791 1185.56,842.701 1187.19,841.512 1188.7,840.232 1190.12,838.863 1191.44,837.408 1192.68,835.872 1193.86,834.257 1194.98,832.568 1196.06,830.809 1197.12,828.983 1198.16,827.095 1199.2,825.147 1200.24,823.144 1201.31,821.089 1202.41,818.986 "/>
     <polygon id="_387199240" class="fil1" points="1183.8,843.791 2319.68,1979.67 2318.86,1980.37 2317.79,1980.87 2316.49,1981.17 2314.97,1981.29 2313.25,1981.24 2311.34,1981.01 2309.25,1980.61 2307.02,1980.06 1171.13,844.178 1173.37,844.73 1175.45,845.124 1177.37,845.353 1179.09,845.41 1180.61,845.29 1181.91,844.984 1182.98,844.486 "/>
     <polygon id="_387212608" class="fil1" points="1171.13,844.178 2307.02,1980.06 2306.36,1981.56 2305.77,1982.96 2305.23,1984.28 2304.76,1985.51 2304.36,1986.69 2304.03,1987.8 2303.77,1988.87 2303.59,1989.89 1167.7,854.01 1167.89,852.983 1168.15,851.918 1168.48,850.804 1168.88,849.633 1169.35,848.394 1169.88,847.078 1170.48,845.676 "/>
     <polygon id="_387198016" class="fil1" points="1167.7,854.01 2303.59,1989.89 2303.51,1990.97 2303.51,1992.06 2303.62,1993.17 2303.83,1994.31 2304.15,1995.49 2304.6,1996.7 2305.17,1997.96 2305.88,1999.26 1170,863.381 1169.29,862.073 1168.72,860.816 1168.27,859.603 1167.95,858.429 1167.74,857.288 1167.63,856.176 1167.62,855.085 "/>
     <polygon id="_387216232" class="fil1" points="1170,863.381 2305.88,1999.26 2305.88,1999.27 2305.89,1999.28 2305.89,1999.29 2305.9,1999.29 2305.9,1999.3 2305.91,1999.31 2305.91,1999.32 2305.91,1999.32 1170.03,863.441 1170.03,863.434 1170.02,863.425 1170.02,863.418 1170.02,863.41 1170.01,863.403 1170.01,863.396 1170,863.388 "/>
     <polygon id="_387196888" class="fil1" points="1170.03,863.441 2305.91,1999.32 2305.94,1999.37 2305.97,1999.42 2306,1999.47 2306.03,1999.52 2306.06,1999.57 2306.09,1999.63 2306.13,1999.68 2306.16,1999.73 1170.27,863.845 1170.24,863.794 1170.21,863.743 1170.18,863.692 1170.15,863.642 1170.12,863.592 1170.09,863.541 1170.06,863.49 "/>
     <polygon id="_387216568" class="fil1" points="1170.27,863.845 2306.16,1999.73 2306.16,1999.73 2306.16,1999.74 2306.17,1999.74 2306.17,1999.75 1170.29,863.867 1170.29,863.861 1170.28,863.855 1170.28,863.851 "/>
     <polygon id="_387184168" class="fil1" points="1170.29,863.867 2306.17,1999.75 2307.31,2001.5 1171.42,865.616 "/>
     <polygon id="_387203008" class="fil1" points="1171.42,865.616 2307.31,2001.5 2307.31,2001.51 2307.31,2001.51 2307.32,2001.52 2307.33,2001.53 2307.33,2001.54 2307.33,2001.54 2307.34,2001.55 2307.34,2001.56 1171.46,865.677 1171.46,865.668 1171.45,865.661 1171.45,865.653 1171.44,865.646 1171.44,865.639 1171.43,865.632 1171.43,865.624 "/>
     <polygon id="_387191272" class="fil1" points="1171.46,865.677 2307.34,2001.56 2307.34,2001.56 2307.34,2001.57 2307.34,2001.57 2307.34,2001.57 1171.46,865.691 1171.46,865.687 1171.46,865.684 1171.46,865.68 "/>
     <polygon id="_387194800" class="fil1" points="1171.46,865.691 2307.34,2001.57 2307.33,2001.59 2307.32,2001.61 2307.31,2001.63 2307.3,2001.65 2307.29,2001.67 2307.27,2001.69 2307.26,2001.71 2307.25,2001.73 1171.37,865.843 1171.38,865.825 1171.39,865.807 1171.4,865.788 1171.42,865.769 1171.43,865.75 1171.44,865.731 1171.45,865.711 "/>
     <polygon id="_387211840" class="fil1" points="1200.08,883.156 2335.96,2019.04 2336.17,2019.34 2336.36,2019.73 2336.54,2020.19 1200.66,884.312 1200.48,883.844 1200.28,883.458 "/>
     <polygon id="_387199480" class="fil1" points="1209.57,891.767 2345.46,2027.65 2346.51,2028.78 2347.41,2029.86 1211.53,893.974 1210.63,892.893 "/>
     <polygon id="_387197200" class="fil1" points="1219.18,901.674 2355.06,2037.56 2357.62,2040.37 2360.18,2043.3 2362.73,2046.34 2365.27,2049.46 2367.78,2052.68 2370.26,2055.98 2372.71,2059.35 2375.12,2062.78 2377.48,2066.27 2379.78,2069.81 2382.03,2073.39 2384.21,2077 2386.32,2080.63 2388.35,2084.28 2390.3,2087.94 2392.15,2091.61 2393.91,2095.26 2395.56,2098.89 2397.11,2102.51 2398.53,2106.09 2399.84,2109.63 2401.02,2113.13 2402.06,2116.57 2402.96,2119.95 2403.72,2123.25 2404.32,2126.48 2404.77,2129.62 2405.04,2132.66 2405.15,2135.6 1269.27,999.72 1269.16,996.779 1268.88,993.734 1268.44,990.595 1267.84,987.369 1267.08,984.063 1266.18,980.687 1265.14,977.246 1263.96,973.751 1262.65,970.208 1261.22,966.626 1259.68,963.013 1258.03,959.375 1256.27,955.723 1254.41,952.063 1252.47,948.402 1250.44,944.752 1248.33,941.116 1246.15,937.505 1243.9,933.928 1241.6,930.389 1239.24,926.9 1236.83,923.467 1234.38,920.097 1231.9,916.8 1229.39,913.582 1226.85,910.453 1224.3,907.42 1221.74,904.491 "/>
     <polygon id="_387191224" class="fil1" points="1269.27,999.72 2405.15,2135.6 2404.74,2135.78 2404.29,2135.97 2403.8,2136.19 2403.26,2136.43 2402.67,2136.69 2402.05,2136.96 2401.39,2137.25 2400.69,2137.56 1264.81,1001.68 1265.51,1001.37 1266.17,1001.08 1266.79,1000.8 1267.37,1000.55 1267.91,1000.31 1268.41,1000.09 1268.86,999.895 "/>
     <polygon id="_387210040" class="fil1" points="1019.61,784.928 2155.49,1920.81 2155.56,1920.9 2155.77,1921.18 2156.11,1921.63 2156.57,1922.24 2157.15,1923.01 2157.84,1923.93 2158.63,1925 2159.52,1926.2 2160.49,1927.53 2161.55,1928.98 2162.68,1930.54 2163.87,1932.21 2165.13,1933.97 2166.44,1935.83 2167.79,1937.76 2169.18,1939.78 2170.61,1941.86 2172.06,1943.99 2173.53,1946.19 2175,1948.42 2176.49,1950.69 2177.96,1953 2179.43,1955.32 2180.88,1957.66 2182.3,1960 2183.69,1962.34 2185.04,1964.68 2186.35,1967 2187.6,1969.29 2188.79,1971.55 2189.92,1973.78 2190.97,1975.96 1055.09,840.073 1054.04,837.895 1052.91,835.671 1051.72,833.408 1050.47,831.114 1049.16,828.796 1047.81,826.46 1046.42,824.118 1045,821.774 1043.55,819.436 1042.08,817.113 1040.6,814.811 1039.12,812.539 1037.65,810.303 1036.18,808.112 1034.73,805.973 1033.3,803.893 1031.91,801.882 1030.56,799.945 1029.25,798.089 1027.99,796.325 1026.79,794.657 1025.66,793.095 1024.61,791.646 1023.64,790.318 1022.75,789.116 1021.96,788.051 1021.27,787.129 1020.69,786.356 1020.23,785.743 1019.89,785.295 1019.68,785.021 "/>
     <polygon id="_387207184" class="fil1" points="1199.61,1236.92 2335.5,2372.81 2335.32,2373.12 2335.14,2373.43 2334.93,2373.73 2334.71,2374.01 2334.47,2374.29 2334.21,2374.56 2333.94,2374.82 2333.64,2375.07 1197.76,1239.18 1198.06,1238.94 1198.33,1238.68 1198.59,1238.41 1198.83,1238.13 1199.05,1237.84 1199.26,1237.55 1199.44,1237.24 "/>
     <polygon id="_387212848" class="fil1" points="1197.76,1239.18 2333.64,2375.07 2331.97,2376.41 2330.27,2377.78 2328.56,2379.18 2326.82,2380.59 2325.07,2382.02 2323.3,2383.46 2321.52,2384.91 2319.71,2386.36 2317.9,2387.82 2316.07,2389.27 2314.23,2390.72 2312.37,2392.16 2310.51,2393.58 2308.63,2394.99 2306.75,2396.38 2304.86,2397.74 1168.98,1261.86 1170.87,1260.49 1172.75,1259.11 1174.63,1257.7 1176.49,1256.28 1178.35,1254.84 1180.19,1253.39 1182.02,1251.94 1183.83,1250.48 1185.63,1249.03 1187.42,1247.58 1189.19,1246.14 1190.94,1244.71 1192.67,1243.29 1194.39,1241.9 1196.09,1240.53 "/>
     <polygon id="_387190552" class="fil1" points="1168.98,1261.86 2304.86,2397.74 2304.15,2398.25 2303.43,2398.76 2302.69,2399.29 2301.95,2399.82 2301.2,2400.35 2300.44,2400.89 2299.67,2401.43 2298.89,2401.98 1163.01,1266.09 1163.79,1265.55 1164.56,1265.01 1165.32,1264.47 1166.07,1263.93 1166.81,1263.4 1167.54,1262.88 1168.27,1262.36 "/>
     <polygon id="_387212392" class="fil1" points="1019.67,1172.26 2155.55,2308.14 2130.23,2383.53 994.35,1247.64 "/>
     <polygon id="_387192136" class="fil1" points="1019.97,1158.32 2155.85,2294.2 2155.55,2308.14 1019.67,1172.26 "/>
     <polygon id="_387198208" class="fil1" points="1065.89,1250.52 2201.77,2386.4 2200.21,2386.17 2198.72,2385.94 2197.29,2385.71 2195.94,2385.49 2194.67,2385.27 2193.49,2385.06 2192.39,2384.86 2191.39,2384.68 2190.49,2384.51 2189.69,2384.35 2189,2384.22 2188.42,2384.1 2187.97,2384.01 2187.64,2383.94 2187.44,2383.9 2187.37,2383.88 1051.49,1248 1051.56,1248.02 1051.76,1248.06 1052.09,1248.13 1052.54,1248.22 1053.12,1248.34 1053.81,1248.47 1054.6,1248.63 1055.51,1248.8 1056.51,1248.98 1057.61,1249.18 1058.79,1249.39 1060.06,1249.6 1061.41,1249.83 1062.84,1250.05 1064.33,1250.29 "/>
     <polygon id="_387206680" class="fil1" points="994.35,1247.64 2130.23,2383.53 2130,2383.59 2129.34,2383.77 2128.27,2384.06 2126.83,2384.44 2125.04,2384.89 2122.94,2385.4 2120.55,2385.96 2117.91,2386.56 982.029,1250.67 984.672,1250.08 987.06,1249.52 989.162,1249.01 990.949,1248.55 992.392,1248.18 993.459,1247.89 994.122,1247.71 "/>
     <polygon id="_387189712" class="fil1" points="982.029,1250.67 2117.91,2386.56 2117.03,2388.33 2116.12,2390.12 2115.17,2391.92 2114.19,2393.72 2113.18,2395.53 2112.15,2397.34 2111.1,2399.15 2110.03,2400.95 2108.95,2402.75 2107.85,2404.53 2106.75,2406.31 2105.65,2408.07 2104.54,2409.81 2103.44,2411.53 2102.34,2413.23 2101.25,2414.9 2100.17,2416.54 2099.11,2418.15 2098.07,2419.73 2097.05,2421.27 2096.06,2422.77 2095.1,2424.22 2094.17,2425.64 2093.27,2427 2092.42,2428.31 2091.6,2429.58 2090.84,2430.78 2090.12,2431.92 2089.45,2433.01 2088.85,2434.03 2088.3,2434.98 2087.81,2435.86 951.928,1299.98 952.415,1299.1 952.965,1298.15 953.573,1297.13 954.238,1296.04 954.956,1294.9 955.723,1293.69 956.535,1292.43 957.39,1291.12 958.286,1289.75 959.216,1288.34 960.179,1286.88 961.172,1285.38 962.191,1283.84 963.232,1282.27 964.292,1280.66 965.368,1279.01 966.457,1277.34 967.555,1275.65 968.659,1273.92 969.766,1272.18 970.872,1270.42 971.974,1268.65 973.067,1266.86 974.15,1265.07 975.22,1263.26 976.272,1261.46 977.303,1259.65 978.31,1257.84 979.289,1256.03 980.238,1254.24 981.152,1252.45 "/>
     <polygon id="_387210112" class="fil1" points="1207.33,1445.51 2343.21,2581.39 2343.38,2583.51 2343.56,2585.65 2343.76,2587.78 2343.97,2589.91 2344.19,2592.05 2344.43,2594.18 2344.67,2596.31 2344.92,2598.43 2345.19,2600.55 2345.46,2602.65 2345.74,2604.75 2346.02,2606.83 2346.31,2608.9 2346.61,2610.94 2346.91,2612.97 2347.21,2614.98 2347.52,2616.97 2347.82,2618.93 2348.13,2620.87 2348.44,2622.78 2348.74,2624.66 2349.05,2626.51 2349.35,2628.32 2349.65,2630.1 2349.94,2631.84 2350.23,2633.54 2350.51,2635.21 2350.78,2636.83 2351.05,2638.4 2351.31,2639.93 2351.56,2641.41 2351.8,2642.84 1215.92,1506.96 1215.68,1505.53 1215.43,1504.05 1215.17,1502.52 1214.9,1500.94 1214.63,1499.32 1214.35,1497.66 1214.06,1495.96 1213.77,1494.22 1213.47,1492.44 1213.17,1490.62 1212.86,1488.78 1212.56,1486.9 1212.25,1484.99 1211.94,1483.05 1211.64,1481.09 1211.33,1479.1 1211.03,1477.09 1210.73,1475.06 1210.43,1473.01 1210.14,1470.95 1209.86,1468.87 1209.58,1466.77 1209.31,1464.67 1209.04,1462.55 1208.79,1460.43 1208.54,1458.3 1208.31,1456.17 1208.09,1454.03 1207.88,1451.9 1207.68,1449.76 1207.5,1447.63 "/>
     <polygon id="_387204736" class="fil1" points="1223.14,1509.65 2359.02,2645.54 2359.58,2646.57 2360.33,2647.85 2361.25,2649.36 2362.34,2651.06 2363.56,2652.93 2364.92,2654.94 2366.4,2657.07 2367.98,2659.29 2369.65,2661.56 2371.39,2663.87 2373.2,2666.19 2375.04,2668.49 2376.93,2670.74 2378.82,2672.91 2380.73,2674.99 2382.62,2676.94 1246.73,1541.06 1244.84,1539.11 1242.94,1537.03 1241.04,1534.85 1239.16,1532.6 1237.31,1530.31 1235.51,1527.99 1233.77,1525.68 1232.1,1523.4 1230.52,1521.19 1229.04,1519.06 1227.68,1517.05 1226.46,1515.18 1225.37,1513.48 1224.45,1511.97 1223.7,1510.69 "/>
     <polygon id="_387186712" class="fil1" points="1317.15,1567.06 2453.03,2702.94 2453.53,2703.55 2453.88,2704.13 2454.11,2704.7 2454.27,2705.24 2454.39,2705.75 2454.53,2706.24 2454.72,2706.71 1318.84,1570.82 1318.65,1570.36 1318.51,1569.87 1318.39,1569.36 1318.23,1568.82 1318,1568.25 1317.65,1567.67 "/>
     <polygon id="_387200296" class="fil1" points="1222.59,1508.83 2358.47,2644.71 2359.02,2645.54 1223.14,1509.65 "/>
     <polygon id="_387194272" class="fil1" points="1163.01,1266.09 2298.89,2401.98 2299.6,2403.95 2300.31,2405.94 2301.01,2407.92 2301.72,2409.92 2302.42,2411.91 2303.11,2413.91 2303.81,2415.91 2304.49,2417.91 2305.18,2419.91 2305.86,2421.92 2306.54,2423.92 2307.21,2425.92 2307.87,2427.93 2308.54,2429.93 2309.19,2431.93 2309.84,2433.93 2310.49,2435.93 2311.12,2437.92 2311.75,2439.91 2312.38,2441.89 2313,2443.87 2313.61,2445.85 2314.21,2447.82 2314.8,2449.78 2315.39,2451.74 2315.97,2453.69 2316.54,2455.63 2317.1,2457.57 2317.65,2459.49 2318.19,2461.41 2318.72,2463.32 2319.25,2465.21 2319.89,2467.62 2320.49,2470.02 2321.07,2472.39 2321.6,2474.75 2322.1,2477.09 2322.57,2479.4 2323.01,2481.69 2323.42,2483.95 2323.8,2486.19 2324.15,2488.41 2324.47,2490.59 2324.77,2492.74 2325.04,2494.87 2325.29,2496.96 2325.52,2499.02 2325.72,2501.05 2325.91,2503.04 2326.07,2504.99 2326.22,2506.9 2326.34,2508.78 2326.46,2510.62 2326.55,2512.41 2326.64,2514.16 2326.7,2515.87 2326.76,2517.53 2326.81,2519.15 2326.85,2520.72 2326.87,2522.23 2326.89,2523.7 2326.91,2525.12 2326.92,2526.49 2326.92,2527.8 1191.04,1391.92 1191.03,1390.61 1191.03,1389.24 1191.01,1387.82 1190.99,1386.35 1190.96,1384.83 1190.93,1383.26 1190.88,1381.65 1190.82,1379.99 1190.75,1378.28 1190.67,1376.53 1190.58,1374.73 1190.46,1372.9 1190.33,1371.02 1190.19,1369.11 1190.03,1367.15 1189.84,1365.16 1189.64,1363.14 1189.41,1361.08 1189.16,1358.99 1188.89,1356.86 1188.59,1354.71 1188.27,1352.52 1187.92,1350.31 1187.54,1348.07 1187.13,1345.81 1186.69,1343.52 1186.22,1341.2 1185.72,1338.87 1185.18,1336.51 1184.61,1334.14 1184.01,1331.74 1183.36,1329.33 1182.84,1327.43 1182.31,1325.53 1181.77,1323.61 1181.22,1321.69 1180.66,1319.75 1180.09,1317.81 1179.51,1315.86 1178.92,1313.9 1178.33,1311.94 1177.72,1309.97 1177.11,1307.99 1176.5,1306.01 1175.87,1304.03 1175.24,1302.04 1174.6,1300.04 1173.96,1298.05 1173.31,1296.05 1172.65,1294.05 1171.99,1292.05 1171.33,1290.04 1170.66,1288.04 1169.98,1286.03 1169.3,1284.03 1168.61,1282.03 1167.92,1280.03 1167.23,1278.03 1166.54,1276.03 1165.84,1274.03 1165.13,1272.04 1164.43,1270.05 1163.72,1268.07 "/>
     <polygon id="_387206632" class="fil1" points="1204.12,1399.83 2340,2535.71 2340.47,2536.38 2340.89,2537.07 2341.26,2537.78 2341.59,2538.51 2341.86,2539.27 2342.1,2540.06 2342.29,2540.88 2342.45,2541.74 2342.58,2542.64 2342.68,2543.58 2342.75,2544.57 2342.79,2545.61 2342.82,2546.69 2342.82,2547.84 2342.81,2549.04 2342.79,2550.3 2342.76,2551.63 2342.72,2553.03 2342.68,2554.49 2342.64,2556.03 2342.6,2557.65 2342.57,2559.34 2342.55,2561.12 2342.54,2562.99 2342.54,2564.94 2342.56,2566.99 2342.6,2569.13 2342.66,2571.37 2342.75,2573.72 2342.87,2576.16 2343.02,2578.72 2343.21,2581.39 1207.33,1445.51 1207.14,1442.84 1206.99,1440.28 1206.87,1437.83 1206.78,1435.49 1206.72,1433.25 1206.68,1431.11 1206.66,1429.06 1206.66,1427.1 1206.67,1425.24 1206.69,1423.46 1206.72,1421.76 1206.76,1420.15 1206.8,1418.61 1206.84,1417.14 1206.88,1415.75 1206.91,1414.42 1206.93,1413.16 1206.94,1411.96 1206.93,1410.81 1206.91,1409.72 1206.86,1408.69 1206.79,1407.7 1206.7,1406.76 1206.57,1405.86 1206.41,1405 1206.22,1404.18 1205.98,1403.39 1205.7,1402.63 1205.38,1401.9 1205.01,1401.19 1204.59,1400.5 "/>
     <polygon id="_387190864" class="fil1" points="1201.4,1396.68 2337.28,2532.57 2338.17,2533.49 2339.07,2534.54 2340,2535.71 1204.12,1399.83 1203.19,1398.66 1202.28,1397.61 "/>
     <polygon id="_387198088" class="fil1" points="1246.73,1541.06 2382.62,2676.94 2383.59,2677.86 1247.71,1541.98 "/>
     <polygon id="_387192664" class="fil1" points="951.928,1299.98 2087.81,2435.86 2086.76,2437.78 2085.71,2439.68 2084.64,2441.55 2083.57,2443.39 2082.48,2445.21 2081.39,2447.01 2080.29,2448.78 2079.19,2450.54 2078.08,2452.27 2076.96,2453.99 2075.84,2455.69 2074.72,2457.37 2073.6,2459.04 2072.47,2460.69 2071.34,2462.33 2070.22,2463.96 2069.09,2465.58 2067.97,2467.18 2066.84,2468.78 2065.73,2470.37 2064.61,2471.95 2063.51,2473.53 2062.4,2475.1 2061.31,2476.67 2060.22,2478.23 2059.14,2479.79 2058.07,2481.36 2057.01,2482.92 2055.96,2484.48 2054.92,2486.05 2053.89,2487.62 2052.88,2489.19 916.996,1353.31 918.009,1351.74 919.035,1350.17 920.075,1348.6 921.125,1347.04 922.185,1345.47 923.257,1343.91 924.337,1342.35 925.425,1340.78 926.521,1339.22 927.624,1337.64 928.732,1336.07 929.846,1334.49 930.963,1332.9 932.085,1331.3 933.209,1329.69 934.334,1328.08 935.461,1326.45 936.588,1324.81 937.715,1323.16 938.839,1321.49 939.962,1319.81 941.081,1318.11 942.197,1316.39 943.307,1314.66 944.413,1312.9 945.512,1311.13 946.603,1309.33 947.688,1307.51 948.763,1305.66 949.829,1303.8 950.884,1301.9 "/>
     <polygon id="_387186208" class="fil1" points="1318.84,1570.82 2454.72,2706.71 2455.34,2708.71 2455.06,2710.51 2453.94,2712.12 2452.04,2713.55 2449.4,2714.81 2446.09,2715.91 2442.16,2716.85 2437.65,2717.65 2432.63,2718.31 2427.16,2718.84 2421.27,2719.25 2415.04,2719.55 2408.5,2719.75 2401.73,2719.86 2394.76,2719.88 2387.66,2719.83 2380.47,2719.7 2373.26,2719.52 2366.08,2719.3 2358.98,2719.02 2352.01,2718.72 2345.23,2718.4 2338.7,2718.05 2332.46,2717.71 2326.58,2717.36 2321.1,2717.03 2316.08,2716.72 2311.58,2716.43 2307.64,2716.19 2304.33,2715.98 2301.69,2715.84 2299.78,2715.76 1163.9,1579.88 1165.81,1579.96 1168.44,1580.1 1171.76,1580.3 1175.69,1580.55 1180.2,1580.83 1185.22,1581.15 1190.7,1581.48 1196.58,1581.82 1202.82,1582.17 1209.35,1582.51 1216.13,1582.84 1223.1,1583.14 1230.2,1583.41 1237.38,1583.64 1244.59,1583.82 1251.78,1583.94 1258.88,1584 1265.85,1583.98 1272.62,1583.87 1279.16,1583.67 1285.39,1583.37 1291.28,1582.96 1296.75,1582.43 1301.77,1581.77 1306.27,1580.97 1310.21,1580.03 1313.52,1578.93 1316.15,1577.67 1318.06,1576.24 1319.18,1574.63 1319.46,1572.82 "/>
     <polygon id="_387184600" class="fil1" points="916.996,1353.31 2052.88,2489.19 2052.44,2489.9 2051.99,2490.65 2051.54,2491.45 2051.08,2492.28 2050.61,2493.16 2050.14,2494.09 2049.66,2495.05 2049.18,2496.06 2048.7,2497.1 2048.21,2498.18 2047.72,2499.31 2047.22,2500.46 2046.72,2501.66 2046.22,2502.89 2045.72,2504.16 2045.22,2505.46 2044.72,2506.8 2044.21,2508.17 2043.71,2509.57 2043.21,2511.01 2042.71,2512.47 2042.21,2513.97 2041.71,2515.49 2041.21,2517.05 2040.72,2518.63 2040.23,2520.24 2039.74,2521.88 2039.26,2523.54 2038.78,2525.23 2038.3,2526.95 2037.84,2528.68 2037.37,2530.45 901.492,1394.56 901.955,1392.8 902.423,1391.06 902.897,1389.35 903.375,1387.66 903.858,1386 904.345,1384.36 904.836,1382.75 905.329,1381.17 905.825,1379.61 906.324,1378.09 906.824,1376.59 907.326,1375.13 907.829,1373.69 908.332,1372.29 908.835,1370.92 909.338,1369.58 909.84,1368.28 910.342,1367.01 910.842,1365.78 911.339,1364.58 911.834,1363.42 912.327,1362.3 912.816,1361.22 913.3,1360.17 913.782,1359.17 914.258,1358.2 914.729,1357.28 915.196,1356.4 915.655,1355.56 916.109,1354.77 916.556,1354.02 "/>
     <polygon id="_387203608" class="fil1" points="901.492,1394.56 2037.37,2530.45 2038.17,2531.26 2038.95,2532.28 2039.7,2533.47 2040.42,2534.83 2041.1,2536.33 2041.73,2537.96 2042.3,2539.7 2042.82,2541.52 2043.27,2543.42 2043.64,2545.37 2043.93,2547.35 2044.12,2549.35 2044.22,2551.35 2044.22,2553.32 2044.1,2555.26 2043.86,2557.14 907.979,1421.26 908.216,1419.38 908.335,1417.44 908.34,1415.46 908.241,1413.47 908.044,1411.47 907.757,1409.48 907.386,1407.54 906.94,1405.64 906.424,1403.82 905.847,1402.08 905.215,1400.45 904.536,1398.95 903.817,1397.59 903.066,1396.39 902.288,1395.38 "/>
     <polygon id="_387184336" class="fil1" points="907.979,1421.26 2043.86,2557.14 2043.69,2558.17 2043.5,2559.25 2043.29,2560.37 2043.07,2561.54 2042.82,2562.75 2042.56,2564 2042.29,2565.29 2041.99,2566.61 2041.68,2567.96 2041.36,2569.34 2041.01,2570.75 2040.66,2572.18 2040.29,2573.64 2039.9,2575.12 2039.49,2576.62 2039.08,2578.13 2038.64,2579.65 2038.2,2581.19 2037.74,2582.74 2037.26,2584.29 2036.78,2585.84 2036.27,2587.4 2035.76,2588.96 2035.23,2590.51 2034.69,2592.06 2034.14,2593.6 2033.58,2595.13 2033,2596.65 2032.41,2598.15 2031.81,2599.64 2031.2,2601.11 2030.58,2602.56 894.701,1466.67 895.322,1465.23 895.933,1463.76 896.532,1462.27 897.12,1460.77 897.696,1459.25 898.26,1457.72 898.813,1456.18 899.352,1454.63 899.879,1453.07 900.393,1451.52 900.895,1449.96 901.383,1448.4 901.856,1446.85 902.317,1445.31 902.763,1443.77 903.196,1442.25 903.613,1440.73 904.016,1439.24 904.404,1437.76 904.777,1436.3 905.134,1434.87 905.476,1433.46 905.801,1432.08 906.112,1430.72 906.405,1429.4 906.681,1428.12 906.941,1426.87 907.184,1425.66 907.409,1424.49 907.616,1423.37 907.807,1422.29 "/>
     <polygon id="_387215248" class="fil1" points="894.701,1466.67 2030.58,2602.56 2030.16,2603.55 2029.7,2604.67 2029.2,2605.89 2028.68,2607.22 2028.14,2608.65 2027.56,2610.17 2026.96,2611.76 2026.34,2613.44 2025.7,2615.18 2025.05,2616.98 2024.37,2618.84 2023.69,2620.74 2022.99,2622.68 2022.29,2624.66 2021.57,2626.66 2020.85,2628.67 2020.13,2630.7 2019.4,2632.73 2018.68,2634.76 2017.96,2636.78 2017.24,2638.78 2016.53,2640.75 2015.83,2642.69 2015.14,2644.6 2014.46,2646.45 2013.8,2648.25 2013.15,2649.99 2012.52,2651.67 2011.92,2653.26 2011.33,2654.78 2010.77,2656.21 2010.24,2657.53 874.359,1521.65 874.892,1520.32 875.451,1518.9 876.036,1517.38 876.643,1515.78 877.272,1514.11 877.919,1512.37 878.581,1510.57 879.259,1508.71 879.95,1506.81 880.652,1504.87 881.362,1502.89 882.079,1500.9 882.799,1498.88 883.523,1496.85 884.248,1494.82 884.971,1492.79 885.69,1490.77 886.404,1488.77 887.111,1486.8 887.808,1484.86 888.493,1482.96 889.165,1481.1 889.822,1479.3 890.461,1477.56 891.081,1475.88 891.679,1474.28 892.254,1472.77 892.802,1471.34 893.323,1470.01 893.815,1468.79 894.275,1467.67 "/>
     <polygon id="_387197440" class="fil1" points="874.359,1521.65 2010.24,2657.53 2010.22,2657.58 2010.21,2657.62 2010.19,2657.66 2010.17,2657.7 2010.16,2657.74 2010.14,2657.78 2010.12,2657.82 2010.11,2657.87 874.225,1521.98 874.242,1521.94 874.259,1521.9 874.275,1521.86 874.292,1521.82 874.308,1521.78 874.326,1521.74 874.342,1521.69 "/>
     <polygon id="_387194512" class="fil1" points="877.144,1524.02 2013.03,2659.9 2013.66,2660.52 2014.31,2661.23 2014.95,2662.03 2015.59,2662.92 2016.22,2663.91 2016.83,2665.01 2017.42,2666.22 2017.98,2667.54 2018.52,2668.99 2019.02,2670.56 2019.47,2672.27 883.589,1536.39 883.135,1534.68 882.637,1533.11 882.103,1531.66 881.538,1530.34 880.946,1529.13 880.334,1528.03 879.706,1527.04 879.067,1526.15 878.424,1525.35 877.781,1524.64 "/>
     <polygon id="_387215320" class="fil1" points="883.589,1536.39 2019.47,2672.27 2019.78,2673.67 2020.06,2675.15 2020.3,2676.69 2020.51,2678.3 2020.68,2679.96 2020.83,2681.67 2020.95,2683.41 2021.04,2685.18 2021.11,2686.98 2021.16,2688.78 2021.18,2690.59 2021.19,2692.4 2021.17,2694.2 2021.15,2695.98 2021.11,2697.73 2021.05,2699.45 2020.99,2701.13 2020.91,2702.75 2020.84,2704.32 2020.75,2705.82 2020.66,2707.25 2020.57,2708.59 2020.49,2709.85 2020.4,2711 2020.31,2712.05 2020.24,2712.99 2020.16,2713.8 2020.1,2714.48 2020.05,2715.03 2020.01,2715.43 2019.99,2715.67 2019.98,2715.76 884.098,1579.88 884.107,1579.79 884.131,1579.55 884.17,1579.15 884.221,1578.6 884.284,1577.92 884.355,1577.1 884.433,1576.17 884.516,1575.12 884.604,1573.96 884.692,1572.71 884.782,1571.37 884.87,1569.94 884.955,1568.44 885.034,1566.87 885.106,1565.25 885.17,1563.57 885.224,1561.85 885.265,1560.1 885.292,1558.32 885.304,1556.52 885.298,1554.71 885.275,1552.9 885.229,1551.09 885.16,1549.3 885.068,1547.53 884.95,1545.79 884.802,1544.08 884.626,1542.42 884.418,1540.81 884.177,1539.27 883.902,1537.79 "/>
     <polygon id="_387209464" class="fil1" points="884.098,1579.88 2019.98,2715.76 2018.07,2715.84 2015.44,2715.98 2012.13,2716.19 2008.19,2716.43 2003.69,2716.72 1998.67,2717.03 1993.19,2717.36 1987.3,2717.71 1981.07,2718.05 1974.53,2718.4 1967.75,2718.72 1960.79,2719.02 1953.68,2719.3 1946.5,2719.52 1939.29,2719.7 1932.11,2719.83 1925,2719.88 1918.04,2719.86 1911.26,2719.75 1904.73,2719.55 1898.49,2719.25 1892.61,2718.84 1887.13,2718.31 1882.11,2717.65 1877.61,2716.85 1873.67,2715.91 1870.36,2714.81 1867.73,2713.55 1865.82,2712.12 729.942,1576.24 731.846,1577.67 734.481,1578.93 737.792,1580.03 741.727,1580.97 746.229,1581.77 751.247,1582.43 756.725,1582.96 762.609,1583.37 768.844,1583.67 775.378,1583.87 782.155,1583.98 789.122,1584 796.224,1583.94 803.409,1583.82 810.62,1583.64 817.803,1583.41 824.906,1583.14 831.873,1582.84 838.651,1582.51 845.186,1582.17 851.422,1581.82 857.306,1581.48 862.785,1581.15 867.804,1580.83 872.307,1580.55 876.244,1580.3 879.557,1580.1 882.193,1579.96 "/>
     <polygon id="_387192112" class="fil1" points="1045.05,493.443 2180.93,1629.32 2181.71,1630.31 2182.36,1631.34 2182.86,1632.41 2183.24,1633.48 2183.5,1634.53 2183.63,1635.54 2183.64,1636.49 2183.55,1637.36 2183.34,1638.11 2183.03,1638.74 1047.15,502.861 1047.46,502.231 1047.67,501.473 1047.76,500.608 1047.75,499.657 1047.61,498.646 1047.36,497.594 1046.98,496.525 1046.47,495.462 1045.83,494.428 "/>
     <polygon id="_387193288" class="fil1" points="1047.15,502.861 2183.03,1638.74 2182.41,1640.3 2181.75,1641.86 2181.03,1643.41 2180.26,1644.96 2179.45,1646.5 2178.59,1648.05 2177.69,1649.58 2176.75,1651.11 2175.78,1652.64 2174.76,1654.16 2173.72,1655.66 2172.64,1657.17 2171.53,1658.66 2170.39,1660.14 2169.23,1661.62 2168.04,1663.08 2166.83,1664.53 2165.6,1665.97 2164.36,1667.4 2163.09,1668.82 2161.81,1670.22 2160.52,1671.6 2159.22,1672.97 2157.91,1674.33 2156.6,1675.67 2155.28,1676.99 2153.96,1678.3 2152.64,1679.58 2151.32,1680.85 2150,1682.1 2148.69,1683.33 2147.39,1684.54 1011.5,548.653 1012.81,547.446 1014.12,546.218 1015.44,544.969 1016.76,543.701 1018.08,542.415 1019.4,541.109 1020.72,539.788 1022.03,538.448 1023.34,537.093 1024.64,535.721 1025.93,534.335 1027.21,532.934 1028.47,531.52 1029.72,530.092 1030.95,528.652 1032.16,527.2 1033.35,525.736 1034.51,524.262 1035.65,522.779 1036.76,521.285 1037.84,519.782 1038.88,518.273 1039.89,516.755 1040.87,515.23 1041.81,513.7 1042.71,512.163 1043.56,510.62 1044.38,509.076 1045.15,507.526 1045.86,505.973 1046.53,504.417 "/>
     <polygon id="_387185488" class="fil1" points="1271.2,706.065 2407.09,1841.95 2407.21,1843.93 2407.18,1845.98 2407.01,1848.07 2406.7,1850.22 2406.25,1852.42 2405.68,1854.66 2404.98,1856.94 2404.16,1859.27 2403.23,1861.63 2402.19,1864.03 2401.05,1866.47 2399.8,1868.94 2398.47,1871.44 2397.04,1873.97 2395.53,1876.52 2393.95,1879.1 2392.29,1881.69 2390.56,1884.31 2388.77,1886.94 2386.93,1889.58 2385.03,1892.24 2383.08,1894.91 2381.09,1897.58 2379.06,1900.26 2377.01,1902.94 2374.92,1905.62 2372.82,1908.3 2370.69,1910.98 2368.56,1913.65 2366.41,1916.31 2364.27,1918.96 2362.13,1921.59 1226.25,785.708 1228.39,783.073 1230.53,780.423 1232.67,777.764 1234.81,775.095 1236.93,772.42 1239.04,769.74 1241.13,767.058 1243.18,764.377 1245.21,761.698 1247.2,759.025 1249.15,756.358 1251.05,753.701 1252.89,751.055 1254.68,748.424 1256.41,745.809 1258.07,743.213 1259.65,740.637 1261.16,738.084 1262.59,735.557 1263.92,733.058 1265.16,730.589 1266.31,728.151 1267.35,725.75 1268.28,723.384 1269.1,721.058 1269.8,718.773 1270.37,716.533 1270.82,714.337 1271.13,712.191 1271.3,710.096 1271.33,708.053 "/>
     <polygon id="_387199408" class="fil1" points="1227.92,787.094 2363.8,1922.98 2364.5,1923.82 2365.09,1924.76 2365.55,1925.82 2365.88,1926.98 2366.05,1928.25 2366.06,1929.64 2365.88,1931.15 2365.51,1932.77 2364.94,1934.52 2364.14,1936.4 2363.1,1938.41 2361.82,1940.54 2360.26,1942.81 2358.43,1945.22 1222.55,809.34 1224.38,806.931 1225.93,804.66 1227.22,802.523 1228.26,800.518 1229.06,798.642 1229.63,796.892 1230,795.265 1230.18,793.759 1230.17,792.37 1230,791.097 1229.67,789.936 1229.21,788.882 1228.62,787.936 "/>
     <polygon id="_387194464" class="fil1" points="1222.55,809.34 2358.43,1945.22 2357.99,1945.73 2357.41,1946.3 2356.69,1946.93 2355.85,1947.6 2354.89,1948.29 2353.83,1948.99 2352.68,1949.67 2351.44,1950.33 2350.12,1950.95 2348.73,1951.51 2347.28,1951.99 2345.78,1952.38 2344.24,1952.67 2342.66,1952.83 2341.06,1952.85 2339.44,1952.72 1203.56,816.839 1205.18,816.97 1206.78,816.947 1208.35,816.784 1209.9,816.498 1211.4,816.106 1212.85,815.623 1214.24,815.065 1215.56,814.449 1216.8,813.79 1217.95,813.105 1219.01,812.409 1219.97,811.719 1220.81,811.052 1221.52,810.422 1222.11,809.846 "/>
     <polygon id="_387215848" class="fil1" points="1264.81,1001.68 2400.69,2137.56 2401.87,2140.55 2402.98,2143.67 2404.02,2146.92 2404.99,2150.29 2405.89,2153.77 2406.72,2157.36 2407.49,2161.06 2408.19,2164.85 2408.83,2168.73 2409.4,2172.69 2409.91,2176.73 2410.36,2180.85 2410.76,2185.02 2411.09,2189.26 2411.38,2193.55 2411.6,2197.88 2411.77,2202.26 2411.89,2206.67 2411.96,2211.1 2411.98,2215.56 2411.95,2220.03 2411.87,2224.51 2411.75,2229 2411.58,2233.47 2411.36,2237.94 2411.11,2242.4 2410.81,2246.83 2410.48,2251.23 2410.11,2255.6 2409.69,2259.92 2409.25,2264.2 2408.77,2268.42 2408.13,2272.89 2407.31,2277.31 2406.31,2281.68 2405.13,2286.01 2403.78,2290.29 2402.28,2294.51 2400.63,2298.67 2398.83,2302.77 2396.91,2306.8 2394.86,2310.76 2392.7,2314.64 2390.42,2318.45 2388.05,2322.18 2385.59,2325.82 2383.05,2329.38 2380.44,2332.84 2377.76,2336.2 2375.02,2339.47 2372.23,2342.64 2369.41,2345.7 2366.55,2348.65 2363.68,2351.48 2360.78,2354.2 2357.88,2356.8 2354.99,2359.27 2352.1,2361.62 2349.24,2363.83 2346.4,2365.91 2343.6,2367.85 2340.84,2369.65 2338.14,2371.3 2335.5,2372.81 1199.61,1236.92 1202.26,1235.42 1204.96,1233.77 1207.72,1231.97 1210.52,1230.03 1213.36,1227.95 1216.22,1225.73 1219.11,1223.39 1222,1220.91 1224.9,1218.32 1227.79,1215.6 1230.67,1212.76 1233.53,1209.81 1236.35,1206.76 1239.14,1203.59 1241.87,1200.32 1244.55,1196.95 1247.17,1193.49 1249.71,1189.94 1252.17,1186.3 1254.54,1182.57 1256.81,1178.76 1258.98,1174.87 1261.03,1170.91 1262.95,1166.88 1264.75,1162.79 1266.4,1158.63 1267.9,1154.41 1269.25,1150.13 1270.43,1145.8 1271.43,1141.43 1272.25,1137 1272.88,1132.54 1273.37,1128.32 1273.81,1124.04 1274.22,1119.71 1274.6,1115.35 1274.93,1110.94 1275.23,1106.51 1275.48,1102.06 1275.7,1097.59 1275.86,1093.11 1275.99,1088.63 1276.07,1084.15 1276.1,1079.68 1276.08,1075.22 1276.01,1070.78 1275.89,1066.38 1275.72,1062 1275.49,1057.67 1275.21,1053.38 1274.88,1049.14 1274.48,1044.96 1274.03,1040.85 1273.52,1036.81 1272.94,1032.85 1272.31,1028.97 1271.61,1025.18 1270.84,1021.48 1270.01,1017.89 1269.11,1014.4 1268.14,1011.04 1267.1,1007.79 1265.99,1004.67 "/>
    </g>
    <path id="_478221904" class="fil1" d="M1141.22 651.404c10.3146,-37.7386 56.667,-33.2185 63.9071,-18.1843 42.789,46.9689 63.6497,49.05 66.0733,72.8445 2.12835,20.8996 -22.1776,51.613 -44.9528,79.643 4.86496,3.18071 6.83032,10.4126 -3.69922,23.6327 -1.97717,2.4815 -10.3488,8.64095 -18.9898,7.49882 -6.2752,11.5618 -10.0252,21.3992 -19.761,26.9516 -1.84488,2.12599 -6.50434,2.06457 -12.6673,0.387402 -1.8248,4.13032 -3.03898,7.13741 -3.42992,9.8315 -0.327166,2.85 0.21378,5.81221 2.29252,9.37087 0.011811,0.0200788 0.0236221,0.0401575 0.0354331,0.0602363 0.0779528,0.133465 0.159449,0.26811 0.242126,0.403937 0.00472441,0.00708662 0.00944883,0.0141732 0.0141732,0.022441l1.13504 1.74921c0.0129921,0.0200788 0.0271654,0.0389764 0.0389764,0.0602363 -0.00236221,0.00472441 -0.00354331,0.00944883 -0.00590552,0.0141732 -0.0248032,0.0531496 -0.0543308,0.105118 -0.090945,0.152362l1.71496 0.955513c7.64528,4.3937 17.7496,10.4681 25.9276,16.3146 0.5563,-0.696851 1.18228,-0.15 1.65473,1.19882 4.74213,3.4878 8.67993,6.84686 10.8626,9.66142 26.9622,25.2059 57.5587,74.9528 57.7394,105.747 -1.01457,0.438189 -2.5441,1.11378 -4.4563,1.96181 13.011,31.1221 13.3913,86.1119 8.0752,130.858 -5.68111,47.8217 -45.4418,89.1579 -73.2697,104.384 -0.433465,0.853938 -1.04291,1.61221 -1.85315,2.26063 -8.87835,7.09253 -18.6709,15.4772 -28.7847,22.6725 -1.87914,1.33819 -3.88701,2.78858 -5.96575,4.23662 7.58032,21.0732 14.8335,43.0607 20.3528,63.2375 7.06064,25.8083 7.65591,48.8835 7.67363,62.5867 4.01221,0.467717 8.0752,1.30158 13.0819,7.91103 5.35394,7.06536 1.01575,16.6217 3.21024,45.678 1.71142,22.6406 6.09804,46.4611 8.58662,61.454 2.81575,-0.168898 5.97638,0.259843 7.22599,2.69292 2.45669,4.80355 13.5638,21.3969 23.5925,31.402 10.0335,10.0028 30.3177,15.7961 51.9886,19.7929 21.6709,3.99803 18.887,7.5756 20.1189,9.97678 11.5075,22.4162 -138.705,9.5504 -154.939,9.05079 0,0 -3.02717,-28.9866 0.507874,-43.4882 2.30551,-9.45827 6.63189,-13.05 9.36379,-14.4047 -0.0437008,-0.108662 -0.0885827,-0.219685 -0.133465,-0.330709 -5.53465,-13.6323 -15.9815,-45.0036 -20.341,-54.978 -6.68741,-15.3036 -11.5394,-34.7008 -13.2791,-45.4146 -1.59803,-9.84804 2.20748,-22.9051 6.48662,-26.6965 -4.90276,-18.9024 -10.852,-33.9638 -15.502,-41.2512 -10.735,-16.8248 -23.8583,-32.6918 -34.9323,-53.3304 -4.8626,-9.06024 -21.0496,-30.561 -30.1796,-49.4658 -8.48741,-1.22835 -14.4071,-2.51457 -14.4071,-2.51457l-30.124 -73.5945 -1.39134 -16.0866 -0.303544 13.9417 -25.3181 75.3827c0,0 -4.96063,1.41851 -12.3201,3.02953 -9.14292,18.8669 -25.2532,40.2721 -30.1016,49.3075 -11.074,20.6386 -24.1973,36.5055 -34.9323,53.3304 -4.65118,7.28741 -10.6004,22.3488 -15.5032,41.2512 4.27914,3.79134 8.08465,16.8496 6.48662,26.6965 -1.73858,10.7138 -6.59174,30.111 -13.278,45.4146 -4.36063,9.97442 -14.8063,41.3457 -20.3421,54.978 -0.0448819,0.112205 -0.0897638,0.222047 -0.133465,0.330709 2.73189,1.35473 7.05827,4.94646 9.36379,14.4047 3.53622,14.5016 0.509056,43.4882 0.509056,43.4882 -16.2343,0.499607 -166.448,13.3654 -154.941,-9.05079 1.23189,-2.40118 -1.55079,-5.97874 20.1201,-9.97678 21.6709,-3.99685 41.954,-9.79017 51.9874,-19.7929 10.0287,-10.0051 21.1358,-26.5984 23.5937,-31.402 1.24843,-2.43307 4.41024,-2.86181 7.22599,-2.69292 2.48858,-14.9929 6.8752,-38.8134 8.58544,-61.454 2.19449,-29.0563 -2.1437,-38.6126 3.21024,-45.678 5.00552,-6.60945 9.07087,-7.44331 13.0819,-7.91103 0.0177165,-13.7032 0.614174,-36.7784 7.67481,-62.5867 9.0189,-32.9646 22.663,-70.7623 34.8012,-101.515 -0.8563,-1.2248 -1.29331,-1.94646 -1.29331,-1.94646 0,0 18.6248,-102.451 25.9099,-121.943 2.94567,-7.88505 8.82638,-21.0874 14.7839,-34.0146 -1.34528,-1.90394 -2.60788,-3.85866 -3.78071,-5.86772 -0.483071,-0.762993 41.4898,-91.3843 79.454,-159.801 -16.8142,-17.9646 -27.9166,-40.1953 -41.0587,-61.93 -8.20749,-13.5768 -12.7075,-20.8784 -12.7075,-20.8784 1.67599,-0.755906 4.92993,-2.72008 9.08387,-5.36811 -40.9004,-51.378 -35.0315,-229.251 -2.98465,-284.038 -0.0625985,-0.748819 -0.0011811,-1.51536 0.200788,-2.30315 2.82638,-11.0067 5.60552,-23.5949 9.3567,-35.426 4.08071,-12.8823 9.33544,-31.5095 20.85,-30.2386 11.778,1.30158 7.32875,18.0154 9.64725,18.8055 3.09213,-7.26615 3.97914,-8.80276 11.4945,-10.6347 16.1067,-3.9189 11.0894,21.8138 9.92481,25.4126 5.14961,-5.88071 1.50118,-8.25355 8.86654,-7.79646 9.56457,0.590552 11.8819,10.0429 9.96497,13.0122 -6.30119,16.6158 -21.7902,33.0248 -35.6469,45.7926 1.60039,1.09961 -26.5524,180.101 5.75552,237.01 1.2685,-0.624804 2.09055,-0.89882 2.34803,-0.734646 0,0 24.6969,32.1933 35.4803,55.1445 3.17362,-3.81024 6.04371,-6.72166 8.5382,-8.55709 4.27677,-3.14764 7.86024,-4.84961 13.2024,-4.65827 6.68623,0.239764 16.2709,3.70512 32.7378,10.839 -4.80237,-7.7752 -8.91261,-16.0181 -11.7284,-24.6118 -0.178347,-0.536221 -0.347244,-1.07008 -0.509056,-1.60158 -0.046063,-0.151181 -0.0921261,-0.303544 -0.138189,-0.454725 -3.09331,-10.2685 -4.29449,-21.0189 -2.59725,-32.0587 -0.298819,-3.33307 1.3441,-9.94843 4.26851,-18.4075 -3.85748,-5.58898 -4.03111,-13.1528 -3.45355,-15.6236 2.78268,-11.8949 7.3004,-16.089 11.563,-16.5024 0.483071,-14.2417 2.7626,-29.0941 11.6162,-50.589 4.13504,-10.0406 12.5539,-29.0729 22.637,-26.4425z"/>
   </g>
  </g>
  <path class="fil2" d="M1024 0c565.539,0 1024,458.461 1024,1024 0,565.539 -458.461,1024 -1024,1024 -565.539,0 -1024,-458.461 -1024,-1024 0,-565.539 458.461,-1024 1024,-1024z"/>
  <path class="fil3" d="M1060.01 1225.05c-5.11418,18.3496 28.6465,61.1079 36.0626,74.9268 11.074,20.6386 24.1973,36.5055 34.9323,53.3304 5.79567,9.08387 13.6099,30.2445 18.9024,55.8662 2.55591,3.58937 29.9587,-2.76496 41.1756,-6.86812 -0.394488,-8.8878 1.71496,-38.4933 -7.71969,-72.9792 -19.2059,-70.2036 -59.3941,-162.323 -61.3252,-161.636l-1.17874 0.418111c-23.8784,8.4756 -59.8406,53.341 -60.8493,56.9422z"/>
  <path class="fil4" d="M1318.84 1570.82c-1.23189,-2.40118 1.55197,-5.97874 -20.1189,-9.97678 -21.6709,-3.99685 -41.9552,-9.79017 -51.9886,-19.7929 -10.0287,-10.0051 -21.1358,-26.5984 -23.5925,-31.402 -2.46614,-4.80237 -12.3839,-1.79646 -12.3839,-1.79646 0,0 -2.97874,5.61024 -4.82481,14.9587 -1.84134,9.34961 -6.9815,13.963 -16.6382,11.4484 -9.66142,-2.51929 -13.0595,-13.089 -13.0595,-13.089 0,0 -8.29016,0.707481 -11.8252,15.2126 -3.53504,14.5016 -0.507874,43.4882 -0.507874,43.4882 16.2343,0.499607 166.447,13.3654 154.939,-9.05079z"/>
  <path class="fil5" d="M1147.64 1393.79c-4.70315,2.25355 -9.3567,16.761 -7.6193,27.4713 1.73977,10.7138 6.59174,30.111 13.2791,45.4146 4.35945,9.97442 14.8063,41.3457 20.341,54.978 2.95158,7.28386 2.57481,8.85473 8.93741,12.8504 6.35315,3.99449 16.011,2.57362 25.6973,0.0755906 9.68623,-2.49567 10.3831,-6.77599 9.19371,-17.2323 -1.34291,-11.7957 -7.9441,-42.789 -10.1398,-71.8394 -2.19449,-29.0563 2.1437,-38.6126 -3.21024,-45.678 -5.34922,-7.063 -9.62245,-7.53071 -13.9063,-8.00316 -4.2874,-0.467717 -37.8697,-0.288189 -42.5729,1.96299z"/>
  <path class="fil3" d="M987.989 1225.05c5.11418,18.3496 -28.6465,61.1079 -36.0614,74.9268 -11.074,20.6386 -24.1973,36.5055 -34.9323,53.3304 -5.79685,9.08387 -13.611,30.2445 -18.9024,55.8662 -2.55709,3.58937 -29.9599,-2.76496 -41.1768,-6.86812 0.394488,-8.8878 -1.71378,-38.4933 7.72087,-72.9792 19.2059,-70.2036 59.3941,-162.323 61.3241,-161.636l1.17874 0.418111c23.8784,8.4756 59.8406,53.341 60.8493,56.9422z"/>
  <path class="fil4" d="M729.158 1570.82c1.23189,-2.40118 -1.55079,-5.97874 20.1201,-9.97678 21.6709,-3.99685 41.954,-9.79017 51.9874,-19.7929 10.0287,-10.0051 21.1358,-26.5984 23.5937,-31.402 2.46496,-4.80237 12.3827,-1.79646 12.3827,-1.79646 0,0 2.97874,5.61024 4.82481,14.9587 1.84252,9.34961 6.98268,13.963 16.6394,11.4484 9.66142,-2.51929 13.0583,-13.089 13.0583,-13.089 0,0 8.29016,0.707481 11.8252,15.2126 3.53622,14.5016 0.509056,43.4882 0.509056,43.4882 -16.2343,0.499607 -166.448,13.3654 -154.941,-9.05079z"/>
  <path class="fil5" d="M900.36 1393.79c4.70315,2.25355 9.35788,16.761 7.6193,27.4713 -1.73858,10.7138 -6.59174,30.111 -13.278,45.4146 -4.36063,9.97442 -14.8063,41.3457 -20.3421,54.978 -2.9504,7.28386 -2.57481,8.85473 -8.93741,12.8504 -6.35197,3.99449 -16.011,2.57362 -25.6961,0.0755906 -9.68741,-2.49567 -10.3843,-6.77599 -9.19489,-17.2323 1.3441,-11.7957 7.94528,-42.789 10.1398,-71.8394 2.19449,-29.0563 -2.1437,-38.6126 3.21024,-45.678 5.34922,-7.063 9.62363,-7.53071 13.9063,-8.00316 4.28859,-0.467717 37.8697,-0.288189 42.5729,1.96299z"/>
  <path class="fil3" d="M1026.54 797.082c-46.4292,-37.5981 -13.2992,-247.238 -15.0319,-248.429 -5.99646,-4.11851 -33.7205,-19.2036 -40.1374,-23.2973 -41.4177,51.9284 -46.1977,298.934 21.6626,304.627 1.95,1.8378 28.2945,-24.1465 33.5067,-32.9008z"/>
  <path class="fil6" d="M1213.11 1008.39c16.9973,21.7559 10.6949,51.6024 11.315,104.915 0.530315,45.5032 -46.813,86.6705 -46.7363,87.7997 0.486615,7.25788 5.40591,34.2425 6.17481,41.8146 25.037,-3.85394 82.1257,-52.3394 89.0198,-110.375 6.59292,-55.4882 4.42441,-126.731 -19.7256,-148.674 -1.48583,-2.22992 -33.0012,17.1614 -40.0477,24.5197z"/>
  <path class="fil3" d="M1047.15 502.861c1.91693,-2.96929 -0.400394,-12.4217 -9.96497,-13.0122 -7.36536,-0.457087 -3.71693,1.91575 -8.86654,7.79646 1.16457,-3.59882 6.18189,-29.3315 -9.92481,-25.4126 -7.51536,1.83189 -8.40237,3.36851 -11.4945,10.6347 -2.31851,-0.790158 2.13071,-17.504 -9.64725,-18.8055 -11.5146,-1.27087 -16.7693,17.3563 -20.85,30.2386 -3.75118,11.8311 -6.53032,24.4193 -9.3567,35.426 -3.11221,12.1429 27.0236,19.539 35.204,27.1914 15.4205,-13.4209 37.1362,-33.5823 44.9008,-54.0567z"/>
  <path class="fil7" d="M1019.67 1172.26l-25.3181 75.3827c0,0 -46.8744,13.3996 -66.2079,4.63465 -19.3323,-8.76615 -29.9965,-26.4095 -29.9965,-26.4095 0,0 18.6248,-102.451 25.9099,-121.943 7.2815,-19.4906 32.4922,-71.4709 32.4922,-71.4709 0,0 10.6276,19.7268 39.5138,15.9898 9.25749,-1.19764 18.2457,-2.0374 26.3622,-2.63268l-2.75551 126.449z"/>
  <path class="fil7" d="M1021.36 1174.41l30.124 73.5945c0,0 47.641,10.3524 66.3697,0.359055 18.7264,-9.9945 28.2319,-28.2886 28.2319,-28.2886 0,0 -25.1882,-101.037 -33.7146,-120.019 -8.52284,-18.9803 -37.0311,-69.228 -37.0311,-69.228 0,0 -9.33426,20.3705 -38.4012,18.502 -9.31536,-0.597638 -18.3378,-0.8563 -26.4756,-0.928347l10.8969 126.008z"/>
  <path class="fil8" d="M1055.13 871.137c3.81496,-10.024 7.57442,3.11575 4.72559,-17.1744 -2.85355,-20.289 -40.2473,-69.0343 -40.2473,-69.0343 -2.32087,-1.48228 -50.4532,32.7118 -58.8615,36.5067 0,0 4.5,7.30158 12.7075,20.8784 18.274,30.2209 32.6044,61.402 63.8292,80.739 -1.79646,4.50945 -5.39764,-8.42481 0.0661418,-18.1181 7.06536,-12.5374 15.6366,-28.1445 17.7803,-33.7973z"/>
  <path class="fil8" d="M1179.97 935.337c-3.97914,9.95906 -7.52245,-3.23977 -5.0067,17.0941 2.51929,20.3327 39.1063,69.6863 39.1063,69.6863 2.29606,1.52008 46.7244,-18.7417 55.1941,-22.3973 -0.210236,-35.8583 -41.6646,-97.4174 -70.5957,-115.999 1.87087,-4.47992 5.25827,8.51221 -0.36378,18.1146 -7.26969,12.4193 -16.0973,27.8823 -18.3343,33.5008z"/>
  <path class="fil9" d="M1161.62 860.411l0.00472441 0.00236221 0.0106299 0.00590552 0.0165354 0.00944883 0.0011811 0.0011811 0.022441 0.0106299 0.0307087 0.0177165 0.0389764 0.0188977 0.00472441 0.00236221 0.0389764 0.0212599 0.0496063 0.0271654 0.0578741 0.0307087 0.0129921 0.00826772 0.0507874 0.0271654 0.0696851 0.0366142 0.0767717 0.0413386 0.0212599 0.0106299 0.0614174 0.034252 0.0885827 0.0484252 0.0956694 0.0507874 0.0318898 0.0177165 0.068504 0.0366142 0.10748 0.056693 0.112205 0.0614174 0.0472441 0.0259843 0.0708662 0.0389764 0.124016 0.0673229 0.129921 0.0696851 0.0637796 0.0354331 0.0720473 0.0377953 0.141732 0.0779528 0.146457 0.080315 0.0814961 0.0448819 0.0708662 0.0366142 0.155906 0.0862205 0.162992 0.0885827 0.101575 0.056693 0.0673229 0.0354331 0.172441 0.0944883 0.178347 0.0980316 0.122835 0.068504 0.0602363 0.0318898 0.188977 0.102756 0.191339 0.106299 0.147638 0.0814961 0.0507874 0.0283465 0.201969 0.112205 0.209055 0.114567 0.17126 0.0944883 0.0401575 0.0212599 0.216142 0.120473 0.220866 0.122835 0.198425 0.109843 0.0271654 0.0153543 0.230315 0.126378 0.232677 0.131102 0.226772 0.125197 0.0106299 0.00708662 0.243307 0.135827 0.246851 0.137008 0.250394 0.13937 0.00354331 0.00236221 0.250394 0.13937 0.258662 0.145276 0.261024 0.147638 0.022441 0.0129921 0.244488 0.135827 0.26811 0.152362 0.275197 0.153543 0.0413386 0.0248032 0.233858 0.132284 0.281103 0.158268 0.282284 0.159449 0.0637796 0.0366142 0.223229 0.126378 0.290551 0.165354 0.294095 0.166536 0.0850394 0.0496063 0.211417 0.119291 0.3 0.17126 0.302362 0.172441 0.10748 0.0625985 0.197244 0.112205 0.308268 0.178347 0.311811 0.178347c13.7976,7.92993 35.6103,21.3366 39.6426,28.9902 5.98229,11.3504 -8.18859,22.0819 -15.5658,43.4138 -7.37599,21.3142 -77.5465,216.049 -86.1922,206.7 -37.5697,-10.8213 -142.639,-24.9024 -175.908,-81.8587 -0.944883,-1.38189 96.0461,-207.049 126.913,-231.266l0.240945 -0.190158 0.239764 -0.185433 0.0318898 -0.0248032 0.206693 -0.158268 0.236221 -0.180709 0.0614174 -0.0472441 0.405118 -0.304725 0.0933072 -0.068504 0.13937 -0.102756 0.231496 -0.170079 0.121654 -0.0885827 0.106299 -0.0767717 0.229134 -0.162992 0.151181 -0.108662 0.0767717 -0.0519685 0.4063 -0.281103 0.0437008 -0.0307087 0.225591 -0.151181 0.0472441 -0.0307087 0.283465 -0.188977 0.338977 -0.217323 0.0141732 -0.00826772c0.292914,-0.185433 0.582284,-0.362599 0.871654,-0.531496l0.0720473 -0.0425197c0.457087,-0.264567 0.915355,-0.511418 1.37244,-0.737008l0.0401575 -0.0200788 0.0590552 -0.0283465 0.222047 -0.105118 0.191339 -0.0885827 0.0295276 -0.0153543 0.445276 -0.194882 0.448819 -0.183071 0.0295276 -0.0106299 0.421654 -0.158268 0.0590552 -0.0212599 0.168898 -0.0578741c0.226772,-0.0791339 0.455906,-0.152362 0.687402,-0.222047l0.120473 -0.0354331 0.109843 -0.0307087 0.347244 -0.0933072 0.0413386 -0.0106299 0.0791339 -0.0200788 0.236221 -0.056693 0.187795 -0.0437008 0.0496063 -0.00944883 0.0141732 -0.00354331c0.309449,-0.0673229 0.623623,-0.125197 0.94252,-0.175984l0.0106299 -0.0011811 0.0153543 -0.00236221 0.0318898 -0.00354331 0.448819 -0.0637796 0.0472441 -0.00590552 0.0129921 -0.00236221 0.442914 -0.0484252 0.0838583 -0.00708662 0.0271654 -0.0011811 0.402756 -0.0318898 0.11811 -0.00826772 0.140551 -0.00826772 0.263386 -0.011811 0.155906 -0.00590552 0.109843 -0.00354331 0.454725 -0.00590552 0.00826772 0 0.0744095 -0.0011811 0.448819 0.00708662 0.0625985 0.0011811 0.0389764 0.0011811 0.279921 0.00826772 0.279921 0.011811 0.00236221 0.0011811c6.86812,0.35315 16.4941,3.87874 33.8433,11.4284l2.09055 0.910631 0.0153543 0.00590552 0.420473 0.184252 0.0921261 0.0401575 0.50315 0.219685 0.0472441 0.0200788 1.21181 0.527953 0.0614174 0.0271654 0.596457 0.259843 0.126378 0.056693 0.564567 0.245669 0.196063 0.0850394 0.526772 0.230315 0.270473 0.119291 0.48189 0.209055 0.351969 0.152362 0.42874 0.187795 0.435827 0.190158 0.372048 0.162992 0.52441 0.227953 0.308268 0.135827 0.615355 0.269292 0.242126 0.103937 0.711024 0.31063 0.167717 0.0732284 0.810237 0.354331 0.0897638 0.0377953 0.90945 0.398032 0.00944883 0.00472441 0.937796 0.407481 0.0744095 0.034252 0.879922 0.381496 0.161811 0.0720473 0.805512 0.351969 0.252756 0.109843 0.729922 0.318898 0.34252 0.15 0.650788 0.284646 0.435827 0.190158 0.568111 0.246851 0.531496 0.232677 0.48189 0.210236 0.625985 0.272835 0.394488 0.172441 0.720473 0.315355 0.305906 0.131102 0.814961 0.356693 0.21378 0.0944883 0.911812 0.398032 0.122835 0.0531496 1.00394 0.438189 0.0307087 0.0141732 1.03347 0.451181 0.0614174 0.0259843 0.970867 0.424016 0.154725 0.0673229 0.875198 0.382677 0.244488 0.106299 0.780709 0.340158 0.334252 0.146457 0.683859 0.298819 0.422835 0.184252 0.588189 0.257481 0.507874 0.222047 0.494882 0.214961 0.590552 0.258662 0.400394 0.174803 0.670867 0.291733 0.307087 0.134646 0.747638 0.327166 0.218504 0.0944883 0.819686 0.357874 0.129921 0.056693 0.887009 0.387402 0.0472441 0.0200788 0.915355 0.400394 0.034252 0.0153543 0.859843 0.37441 0.114567 0.0507874 0.759449 0.33189 0.187795 0.0826772 0.66378 0.288189 0.257481 0.113386 0.569292 0.248032 0.32126 0.140551 0.480709 0.210236 0.379134 0.165354 0.394488 0.172441 0.433465 0.188977 0.314173 0.135827 0.477166 0.209055 0.237402 0.103937 0.517323 0.226772 0.166536 0.0720473 0.550394 0.239764 0.100394 0.0437008 0.574016 0.250394 0.0413386 0.0188977 0.578741 0.252756 0.011811 0.00472441 0.530315 0.231496 0.0578741 0.0248032 0.445276 0.194882 0.0944883 0.0425197 0.367323 0.159449 0.125197 0.0543308 0.294095 0.12874 0.146457 0.0649607 0.229134 0.0992127 0.159449 0.068504 0.17126 0.0767717 0.164173 0.0708662 0.119291 0.0519685 0.158268 0.068504 0.0779528 0.034252 0.141732 0.0614174 0.0448819 0.0212599 0.114567 0.0484252 0.0200788 0.00944883 0.0767717 0.0330709 0.00472441 0.00236221 0.0271654 0.011811z"/>
  <path class="fil10" d="M1117.94 738.089c0.651969,-6.04016 -15.8894,-21.5622 -22.5366,6.84922 -0.77126,3.30236 -0.201969,15.7004 8.70946,20.3232 9.24568,4.79528 12.3236,-16.9288 13.8272,-27.1725z"/>
  <path class="fil11" d="M1205.13 633.22c42.789,46.9689 63.6497,49.05 66.0733,72.8445 2.52874,24.8244 -32.2406,63.4961 -57.4382,95.0694 -14.3587,17.9906 -16.0323,34.7114 -29.9646,42.6567 -6.85512,7.89804 -52.5709,-14.3906 -69.926,-37.6134 -11.6811,-15.6295 -7.94056,-19.2177 -7.063,-41.5028 1.2189,-30.9118 -4.18819,-48.0756 11.7744,-86.8276 4.13504,-10.0406 12.5539,-29.0729 22.637,-26.4425 10.3146,-37.7386 56.667,-33.2185 63.9071,-18.1843z"/>
  <path class="fil3" d="M1244.52 719.701c-1.79055,16.3205 -24.326,58.6997 -45.978,91.578 -3.29055,4.99725 -9.51261,11.1957 -15.1677,17.0492 -5.11536,5.29607 -9.76772,10.3087 -11.3693,13.8933 -5.10591,11.4354 -6.463,14.7791 -0.540945,23.4543 -1.09724,2.31969 -10.1079,-0.0614174 -14.4154,0.422835 -7.02166,0.787796 -21.8882,12.952 -30.4961,10.1161 -6.89528,-2.27126 -1.37244,-16.9654 -4.31929,-20.6669 -16.9937,-21.3449 -32.0362,-47.9941 -27.6402,-76.578 -1.45276,-16.2059 42.9744,-109.97 57.6461,-116.164 12.7984,-10.9831 23.0551,18.3603 41.1957,22.1504 45.5717,10.6772 52.363,26.4709 51.0851,34.7445z"/>
  <path class="fil10" d="M1190.18 821.262l-0.102756 0.108662 -0.0295276 0.0318898 -0.0744095 0.0779528 -0.103937 0.109843 -0.0826772 0.0874016 -0.0212599 0.0236221 -0.105118 0.109843 -0.105118 0.109843 -0.0307087 0.0330709 -0.0732284 0.0779528 -0.105118 0.111024 -0.0862205 0.0885827 -0.0188977 0.0212599 -0.106299 0.109843 -0.105118 0.111024 -0.0330709 0.034252 -0.0720473 0.0755906 -0.106299 0.111024 -0.211417 0.220866 -0.106299 0.111024 -0.0354331 0.0366142 -0.0708662 0.0744095 -0.106299 0.109843 -0.106299 0.111024 -0.106299 0.111024 -0.10748 0.109843 -0.0366142 0.0389764 -0.0696851 0.0720473 -0.106299 0.111024 -0.0921261 0.0944883 -0.0153543 0.0165354 -0.106299 0.109843 -0.10748 0.112205 -0.0389764 0.0401575 -0.0673229 0.0696851 -0.10748 0.111024 -0.0944883 0.0980316 -0.0129921 0.0129921 -0.10748 0.111024 -0.106299 0.109843 -0.0425197 0.0425197 -0.0661418 0.068504 -0.106299 0.111024 -0.0956694 0.0992127 -0.011811 0.011811 -0.10748 0.109843 -0.10748 0.111024 -0.0437008 0.0448819 -0.0637796 0.0661418 -0.10748 0.111024 -0.0980316 0.101575 -0.00944883 0.00826772 -0.10748 0.111024 -0.10748 0.111024 -0.0448819 0.046063 -0.0625985 0.0649607 -0.10748 0.109843 -0.0992127 0.103937 -0.00708662 0.00590552 -0.108662 0.112205 -0.106299 0.109843 -0.0472441 0.0484252 -0.0590552 0.0625985 -0.10748 0.109843 -0.101575 0.103937 -0.00590552 0.00590552 -0.10748 0.111024 -0.106299 0.109843 -0.0496063 0.0496063 -0.0578741 0.0602363 -0.106299 0.111024 -0.102756 0.106299 -0.00472441 0.00354331 -0.106299 0.109843 -0.106299 0.109843 -0.0507874 0.0519685 -0.056693 0.0578741 -0.106299 0.109843 -0.103937 0.108662 -0.0011811 0.0011811 -0.10748 0.109843 -0.106299 0.109843 -0.0507874 0.0531496 -0.0543308 0.0555119 -0.106299 0.111024 -0.105118 0.108662c-5.11536,5.29489 -9.76772,10.3075 -11.3693,13.8933l-0.0141732 0.0318898 -0.0141732 0.0318898 -0.0141732 0.0318898 -0.0141732 0.0307087 -0.0141732 0.0318898 -0.0141732 0.0318898 -0.0129921 0.0318898 -0.0141732 0.0318898 -0.0153543 0.0307087 -0.0129921 0.0318898 -0.0141732 0.0307087 -0.0141732 0.0318898 -0.0141732 0.0318898 -0.0141732 0.0307087 -0.0141732 0.0307087 -0.0129921 0.0318898 -0.011811 0.0248032 -0.00236221 0.00590552 -0.0129921 0.0318898 -0.0153543 0.0307087 -0.0129921 0.0307087 -0.0141732 0.0318898 -0.0141732 0.0307087 -0.0129921 0.0318898 -0.0141732 0.0295276 -0.0141732 0.0307087 -0.0129921 0.0318898 -0.0141732 0.0307087 -0.0129921 0.0307087 -0.0141732 0.0295276 -0.0141732 0.0318898 -0.0129921 0.0307087 -0.0129921 0.0295276 -0.0141732 0.0318898 -0.00826772 0.0188977 -0.00590552 0.0106299 -0.0129921 0.0307087 -0.0141732 0.0307087 -0.0129921 0.0307087 -0.0129921 0.0295276 -0.0141732 0.0307087 -0.0129921 0.0307087 -0.0141732 0.0295276 -0.0129921 0.0307087 -0.0129921 0.0295276 -0.0141732 0.0307087 -0.0129921 0.0295276 -0.0129921 0.0295276 -0.0129921 0.0307087 -0.0141732 0.0307087 -0.0129921 0.0295276 -0.0129921 0.0295276 -0.00590552 0.0129921 -0.00826772 0.0177165 -0.0129921 0.0295276 -0.0129921 0.0295276 -0.0141732 0.0295276 -0.011811 0.0295276 -0.0129921 0.0307087 -0.0129921 0.0295276 -0.0141732 0.0283465 -0.0129921 0.0295276 -0.0129921 0.0307087 -0.0129921 0.0295276 -0.0129921 0.0283465 -0.0129921 0.0295276 -0.0129921 0.0295276 -0.0425197 0.0956694 -0.159449 0.36378 -0.0543308 0.121654 -0.142913 0.328347 -0.0637796 0.146457c-3.00945,6.90119 -4.73386,11.0858 -0.809056,17.9185l0.124016 0.212599 0.0271654 0.046063 0.184252 0.305906 0.00944883 0.0165354 0.0673229 0.111024 0.162992 0.263386 0.0011811 0.00236221 0.173622 0.275197 0.0661418 0.103937 0.0437008 0.068504 0.206693 0.320079 0.0307087 0.046063 0.231496 0.349607 0.0165354 0.0236221 0.255118 0.379134 -0.00354331 0.00826772 -0.00590552 0.0106299 -0.0141732 0.0248032 -0.0425197 0.0744095 -0.0248032 0.0354331 -0.0413386 0.0578741 -0.0437008 0.0496063 -0.034252 0.0401575 -0.0472441 0.0437008 -0.0484252 0.0448819 -0.00590552 0.00472441 -0.0838583 0.0661418 -0.0177165 0.0129921 -0.0354331 0.022441 -0.0732284 0.0484252 -0.0188977 0.0106299 -0.101575 0.0543308 -0.00472441 0.00236221 -0.109843 0.0519685 -0.0212599 0.00944883 -0.11811 0.0472441 -0.022441 0.00826772 -0.126378 0.0425197 -0.022441 0.00708662 -0.133465 0.0389764 -0.0248032 0.00590552 -0.141732 0.034252 -0.162992 0.034252 -0.0106299 0.00236221 -0.0248032 0.00590552 -0.155906 0.0259843 -0.0271654 0.00354331 -0.162992 0.0236221 -0.0259843 0.00354331 -0.170079 0.0200788 -0.0271654 0.0011811 -0.175984 0.0165354 -0.210236 0.0141732 -0.0271654 0.00236221 -0.188977 0.00944883 -0.0283465 0 -0.194882 0.00708662 -0.0271654 0.0011811 -0.200788 0.00236221 -0.0283465 0.0011811 -0.205512 0 -0.0283465 0 -0.210236 -0.00236221 -0.0283465 0 -0.216142 -0.00472441 -0.0271654 -0.0011811 -0.222047 -0.00708662 -0.0271654 -0.0011811 -0.225591 -0.00944883 -0.0271654 -0.0011811 -0.230315 -0.011811 -0.0259843 -0.0011811 -0.23504 -0.0141732 -0.0271654 -0.0011811 -0.237402 -0.0153543 -0.0259843 -0.00236221 -0.240945 -0.0177165 -0.0259843 -0.0011811 -0.245669 -0.0188977 -0.0248032 -0.00236221 -0.248032 -0.0200788 -0.0248032 -0.0011811 -0.251575 -0.022441 -0.0236221 -0.00236221 -0.253937 -0.022441 -0.022441 -0.00236221 -0.256299 -0.0236221 -0.0236221 -0.00236221 -0.257481 -0.0236221 -0.022441 -0.00236221 -0.259843 -0.0248032 -0.0212599 -0.00236221 -0.262205 -0.0259843 -0.0200788 -0.0011811 -0.263386 -0.0271654 -0.0188977 -0.0011811 -0.264567 -0.0271654 -0.0200788 -0.0011811 -0.264567 -0.0259843 -0.0177165 -0.00236221 -0.265748 -0.0259843 -0.0177165 -0.0011811 -0.265748 -0.0259843 -0.0165354 -0.0011811 -0.265748 -0.0259843 -0.0165354 -0.0011811 -0.264567 -0.0248032 -0.0153543 -0.0011811 -0.264567 -0.0248032 -0.0141732 -0.0011811 -0.264567 -0.022441 -0.0129921 -0.0011811 -0.263386 -0.0212599 -0.011811 -0.0011811 -0.262205 -0.0212599 -0.0106299 0 -0.261024 -0.0188977 -0.00944883 -0.0011811 -0.258662 -0.0177165 -0.0106299 0 -0.255118 -0.0165354 -0.00826772 0 -0.253937 -0.0141732 -0.00708662 0 -0.250394 -0.011811 -0.00708662 0 -0.246851 -0.00944883 -0.00708662 0 -0.243307 -0.00590552 -0.00590552 0 -0.239764 -0.00472441 -0.00472441 0 -0.236221 0 -0.00472441 -0.0011811 -0.230315 0.00236221 -0.00354331 0.0011811 -0.226772 0.00472441 -0.00236221 0 -0.220866 0.00944883 -0.00236221 0 -0.216142 0.011811 -0.0011811 0 -0.211417 0.0165354 0 0.0011811 -0.204331 0.0200788c-7.02284,0.787796 -29.1697,17.0965 -37.7776,14.2595 -0.812599,-0.266929 -1.57914,-0.876379 -2.30551,-1.74095 -2.98465,-4.62756 5.08819,-21.2197 -3.81733,-35.3859 -5.64922,-8.9882 -11.6232,-20.1012 -14.152,-26.8205l-0.0330709 -0.0897638 -0.00590552 -0.0177165 -0.407481 -1.12559 -0.0708662 -0.20315c-0.119291,-0.338977 -0.236221,-0.676772 -0.350788,-1.01575l-0.034252 -0.0980316 -0.046063 -0.13937 -0.354331 -1.07717 -0.0011811 -0.00354331 -0.00590552 -0.0177165 -0.0129921 -0.0401575c-0.125197,-0.392126 -0.249213,-0.785434 -0.369685,-1.17992l-0.0188977 -0.0590552 -0.0933072 -0.316536c10.5059,25.8957 33.5457,28.65 54.0662,24.8292 20.3327,-3.78544 38.191,-14.0244 38.9256,-14.5937z"/>
  <path class="fil12" d="M1213.19 785.425c4.72678,-4.63937 29.1886,-0.972048 9.36497,23.915 -2.30433,2.89252 -13.2992,10.7835 -23.2784,6.27993 -10.3512,-4.67126 6.16182,-21.9851 13.9134,-30.1949z"/>
  <path class="fil11" d="M1226.1 785.407l8.59961 -36.6166c-4.01575,7.41142 -33.3945,50.0882 -40.474,51.7276 9.15001,8.16851 25.8898,-19.7847 31.8744,-15.111z"/>
  <path class="fil13" d="M1117.61 1212.46c-3.31654,1.2189 -7.15158,10.1646 0.133465,16.389 5.60906,4.79646 4.12205,0.7063 11.7721,-0.894095 -3.09449,2.17441 -22.5803,19.7126 -7.35591,26.2713 7.10434,3.0567 8.73662,2.36221 15.5788,-1.5815 1.37717,2.02559 -12.2315,12.7004 -3.60591,20.8252 8.43308,7.94174 23.837,-3.77717 34.8449,-11.6138 10.1138,-7.19528 19.9063,-15.5799 28.7847,-22.6725 9.79017,-7.82835 -9.83387,-31.8638 -11.7662,-42.8977 -20.3917,1.44567 -49.8674,4.48937 -68.3859,16.174z"/>
 </g>
</svg>
