<?xml version="1.0" encoding="UTF-8"?>
<!DOCTYPE svg PUBLIC "-//W3C//DTD SVG 1.1//EN" "http://www.w3.org/Graphics/SVG/1.1/DTD/svg11.dtd">
<!-- Creator: CorelDRAW -->
<svg xmlns="http://www.w3.org/2000/svg" xml:space="preserve" width="2048px" height="2048px" style="shape-rendering:geometricPrecision; text-rendering:geometricPrecision; image-rendering:optimizeQuality; fill-rule:evenodd; clip-rule:evenodd"
viewBox="0 0 2048 2048"
 xmlns:xlink="http://www.w3.org/1999/xlink">
 <defs>
  <style type="text/css">
   <![CDATA[
    .fil2 {fill:none}
    .fil10 {fill:#00695C}
    .fil13 {fill:#00B8D4}
    .fil1 {fill:#3949AB}
    .fil14 {fill:#3E2723}
    .fil11 {fill:#40C4FF}
    .fil0 {fill:#7986CB}
    .fil3 {fill:#8D6E63}
    .fil9 {fill:#E9BB77}
    .fil12 {fill:black;fill-rule:nonzero}
    .fil8 {fill:#00B0FF;fill-rule:nonzero}
    .fil5 {fill:#00B8D4;fill-rule:nonzero}
    .fil4 {fill:#424242;fill-rule:nonzero}
    .fil15 {fill:#4E342E;fill-rule:nonzero}
    .fil7 {fill:#8BC34A;fill-rule:nonzero}
    .fil6 {fill:#FF6F00;fill-rule:nonzero}
   ]]>
  </style>
   <clipPath id="id0">
    <path d="M1024 0c565.539,0 1024,458.461 1024,1024 0,565.539 -458.461,1024 -1024,1024 -565.539,0 -1024,-458.461 -1024,-1024 0,-565.539 458.461,-1024 1024,-1024z"/>
   </clipPath>
 </defs>
 <g id="Layer_x0020_1">
  <metadata id="CorelCorpID_0Corel-Layer"/>
  <path class="fil0" d="M1024 0c565.539,0 1024,458.461 1024,1024 0,565.539 -458.461,1024 -1024,1024 -565.539,0 -1024,-458.461 -1024,-1024 0,-565.539 458.461,-1024 1024,-1024z"/>
  <g style="clip-path:url(#id0)">
   <g id="_478210192">
    <g>
     <polygon id="_3807710081" class="fil1" points="1396.19,618.981 2532.07,1754.86 2535.15,1758.48 2538.15,1762.18 2541.07,1765.96 2543.9,1769.83 2546.65,1773.78 2549.31,1777.82 2551.89,1781.93 2554.37,1786.13 2556.76,1790.41 2559.06,1794.77 2561.25,1799.21 2563.36,1803.72 2565.36,1808.32 2567.26,1813 1431.38,677.117 1429.48,672.44 1427.48,667.842 1425.37,663.323 1423.17,658.884 1420.88,654.525 1418.49,650.247 1416,646.049 1413.43,641.933 1410.77,637.9 1408.02,633.949 1405.18,630.081 1402.27,626.297 1399.27,622.596 "/>
     <polygon id="_380788216" class="fil1" points="1161.06,523.336 2296.94,1659.22 2298.74,1661.25 2300.51,1663.31 2302.25,1665.39 2303.97,1667.5 2305.66,1669.64 2307.31,1671.81 2308.94,1673.99 2310.54,1676.21 2312.11,1678.45 2313.65,1680.71 2315.16,1683 2316.64,1685.31 2318.09,1687.64 2319.52,1690 2320.91,1692.38 1185.02,556.497 1183.63,554.117 1182.21,551.759 1180.76,549.426 1179.28,547.115 1177.77,544.828 1176.23,542.565 1174.66,540.326 1173.06,538.112 1171.43,535.923 1169.78,533.759 1168.09,531.622 1166.37,529.511 1164.63,527.425 1162.86,525.368 "/>
     <polygon id="_380779456" class="fil1" points="1555.76,975.341 2691.64,2111.22 2690.18,2113.65 2688.67,2116.05 2687.12,2118.4 2685.52,2120.71 2683.88,2122.99 2682.2,2125.22 2680.47,2127.41 2678.69,2129.55 2676.87,2131.65 2675,2133.71 2673.09,2135.71 2671.12,2137.67 2669.11,2139.58 2667.05,2141.44 2664.94,2143.25 2662.78,2145.01 2660.56,2146.72 2658.3,2148.37 2655.99,2149.96 2653.62,2151.5 2651.2,2152.98 2648.73,2154.41 2646.2,2155.77 2643.62,2157.08 2640.99,2158.32 2638.3,2159.51 2635.55,2160.63 2632.75,2161.68 2629.89,2162.67 2626.98,2163.59 2624,2164.45 2620.97,2165.24 1485.09,1029.36 1488.12,1028.57 1491.09,1027.71 1494.01,1026.79 1496.87,1025.8 1499.67,1024.74 1502.42,1023.62 1505.11,1022.44 1507.74,1021.2 1510.32,1019.89 1512.85,1018.53 1515.32,1017.1 1517.74,1015.62 1520.11,1014.08 1522.42,1012.48 1524.68,1010.83 1526.89,1009.13 1529.06,1007.37 1531.17,1005.56 1533.23,1003.7 1535.24,1001.79 1537.21,999.832 1539.12,997.824 1540.99,995.77 1542.81,993.67 1544.59,991.527 1546.32,989.337 1548,987.106 1549.64,984.832 1551.24,982.518 1552.79,980.165 1554.29,977.772 "/>
     <polygon id="_380767984" class="fil1" points="1485.09,1029.36 2620.97,2165.24 2366.86,2453.3 1230.97,1317.42 "/>
     <polygon id="_380762320" class="fil1" points="1230.97,1317.42 2366.86,2453.3 2366.8,2453.37 2366.74,2453.43 2366.69,2453.5 2366.63,2453.57 2366.57,2453.63 2366.51,2453.7 2366.46,2453.76 2366.4,2453.83 1230.52,1317.95 1230.57,1317.88 1230.63,1317.81 1230.69,1317.75 1230.75,1317.68 1230.8,1317.62 1230.86,1317.55 1230.92,1317.49 "/>
     <polygon id="_380780320" class="fil1" points="1230.52,1317.95 2366.4,2453.83 2367.47,2455.79 2368.33,2457.81 2369,2459.88 2369.46,2461.99 2369.73,2464.12 2369.81,2466.25 2369.7,2468.38 2369.39,2470.49 2368.9,2472.56 2368.22,2474.59 2367.36,2476.55 2366.32,2478.44 2365.09,2480.24 2363.69,2481.93 2362.11,2483.51 2360.36,2484.96 1224.48,1349.08 1226.23,1347.63 1227.81,1346.05 1229.21,1344.36 1230.43,1342.56 1231.48,1340.67 1232.34,1338.7 1233.02,1336.68 1233.51,1334.6 1233.81,1332.5 1233.93,1330.37 1233.85,1328.23 1233.58,1326.11 1233.11,1324 1232.45,1321.93 1231.58,1319.91 "/>
     <polygon id="_380790256" class="fil1" points="1224.48,1349.08 2360.36,2484.96 2357.65,2486.99 2354.95,2488.99 2352.26,2490.96 2349.58,2492.91 2346.91,2494.83 2344.26,2496.73 2341.61,2498.61 2338.98,2500.46 2336.35,2502.28 2333.73,2504.08 2331.13,2505.85 2328.53,2507.6 2325.94,2509.33 2323.37,2511.03 2320.8,2512.7 2318.24,2514.35 2315.69,2515.98 2313.15,2517.58 2310.62,2519.15 2308.1,2520.7 2305.58,2522.23 2303.08,2523.73 2300.58,2525.2 2298.1,2526.66 2295.62,2528.08 2293.14,2529.49 2290.68,2530.86 2288.22,2532.22 2285.78,2533.55 2283.34,2534.85 2280.9,2536.13 2278.48,2537.39 1142.6,1401.5 1145.02,1400.25 1147.45,1398.97 1149.89,1397.66 1152.34,1396.33 1154.8,1394.98 1157.26,1393.6 1159.73,1392.2 1162.21,1390.77 1164.7,1389.32 1167.2,1387.85 1169.7,1386.34 1172.22,1384.82 1174.74,1383.27 1177.27,1381.69 1179.81,1380.09 1182.36,1378.47 1184.92,1376.82 1187.49,1375.14 1190.06,1373.45 1192.65,1371.72 1195.25,1369.97 1197.85,1368.2 1200.47,1366.4 1203.09,1364.57 1205.73,1362.73 1208.38,1360.85 1211.03,1358.95 1213.7,1357.03 1216.38,1355.08 1219.07,1353.1 1221.77,1351.1 "/>
     <polygon id="_380779024" class="fil1" points="1142.6,1401.5 2278.48,2537.39 2278.48,2596.09 2278.45,2597.92 2278.38,2599.73 2278.27,2601.54 2278.11,2603.33 2277.91,2605.11 2277.66,2606.88 2277.36,2608.63 2277.03,2610.37 2276.65,2612.09 2276.23,2613.8 2275.77,2615.49 2275.27,2617.17 2274.73,2618.83 2274.15,2620.47 2273.53,2622.09 2272.88,2623.69 2272.18,2625.27 2271.45,2626.84 2270.68,2628.38 2269.88,2629.9 2269.04,2631.4 2268.16,2632.88 2267.25,2634.33 2266.31,2635.76 2265.33,2637.17 2264.33,2638.55 2263.29,2639.91 2262.21,2641.24 2261.11,2642.55 2259.98,2643.83 2258.81,2645.08 2257.62,2646.3 1121.74,1510.42 1122.93,1509.2 1124.1,1507.94 1125.23,1506.67 1126.33,1505.36 1127.4,1504.03 1128.44,1502.67 1129.45,1501.29 1130.43,1499.88 1131.37,1498.45 1132.28,1497 1133.16,1495.52 1133.99,1494.02 1134.8,1492.5 1135.57,1490.96 1136.3,1489.39 1136.99,1487.81 1137.65,1486.21 1138.27,1484.58 1138.85,1482.94 1139.39,1481.29 1139.89,1479.61 1140.35,1477.92 1140.77,1476.21 1141.15,1474.49 1141.48,1472.75 1141.77,1471 1142.02,1469.23 1142.23,1467.45 1142.39,1465.66 1142.5,1463.85 1142.57,1462.04 1142.6,1460.21 "/>
     <polygon id="_380788360" class="fil1" points="1121.74,1510.42 2257.62,2646.3 2257.84,2647.83 2258.05,2649.38 2258.26,2650.94 2258.46,2652.51 2258.66,2654.09 2258.86,2655.7 2259.05,2657.31 2259.24,2658.94 2259.43,2660.58 2259.61,2662.24 2259.78,2663.91 2259.96,2665.6 2260.12,2667.31 2260.29,2669.03 2260.44,2670.76 2260.59,2672.51 1124.71,1536.63 1124.56,1534.88 1124.4,1533.14 1124.24,1531.42 1124.07,1529.72 1123.9,1528.03 1123.73,1526.36 1123.55,1524.7 1123.36,1523.06 1123.17,1521.43 1122.98,1519.81 1122.78,1518.21 1122.58,1516.63 1122.38,1515.05 1122.17,1513.5 1121.96,1511.95 "/>
     <polygon id="_380779096" class="fil1" points="1124.71,1536.63 2260.59,2672.51 2260.62,2674.2 2260.4,2675.82 2259.94,2677.32 2259.26,2678.68 2258.34,2679.86 2257.2,2680.82 2255.85,2681.52 2254.28,2681.93 2247.3,2682.98 2246.71,2683.04 2246.11,2683.07 2245.51,2683.05 2244.91,2682.99 2244.31,2682.89 2243.72,2682.76 2243.14,2682.58 2242.57,2682.37 1106.69,1546.49 1107.25,1546.7 1107.84,1546.87 1108.43,1547.01 1109.02,1547.11 1109.62,1547.17 1110.23,1547.19 1110.83,1547.16 1111.42,1547.1 1118.4,1546.05 1119.97,1545.64 1121.32,1544.94 1122.46,1543.98 1123.37,1542.8 1124.06,1541.44 1124.52,1539.93 1124.74,1538.32 "/>
     <polygon id="_380776432" class="fil1" points="574.822,1029.4 1710.7,2165.28 1709.33,2165.59 1707.93,2165.82 1706.52,2165.97 1705.09,2166.02 1703.64,2165.99 1702.19,2165.87 1700.73,2165.66 1699.27,2165.36 563.385,1029.47 564.847,1029.78 566.306,1029.99 567.76,1030.11 569.204,1030.14 570.636,1030.08 572.051,1029.94 573.448,1029.71 "/>
     <polygon id="_380773120" class="fil1" points="937.626,1547.08 2073.51,2682.96 2066.63,2681.93 2065.06,2681.52 2063.71,2680.82 2062.57,2679.86 926.688,1543.98 927.824,1544.94 929.179,1545.64 930.747,1546.05 "/>
     <polygon id="_380785600" class="fil1" points="905.404,1401.71 2041.29,2537.59 2038.84,2536.32 2036.39,2535.03 2033.94,2533.71 2031.48,2532.36 2029.01,2530.99 2026.53,2529.6 2024.05,2528.18 2021.56,2526.74 2019.07,2525.28 2016.56,2523.79 2014.05,2522.27 2011.53,2520.74 2009.01,2519.18 2006.48,2517.59 2003.94,2515.98 2001.39,2514.35 1998.83,2512.69 1996.27,2511.01 1993.69,2509.3 1991.11,2507.57 1988.52,2505.82 1985.92,2504.04 1983.31,2502.24 1980.69,2500.41 1978.06,2498.56 1975.43,2496.69 1972.78,2494.8 1970.13,2492.88 1967.46,2490.93 1964.78,2488.97 1962.1,2486.98 1959.4,2484.96 823.521,1349.08 826.217,1351.09 828.903,1353.08 831.578,1355.05 834.244,1356.99 836.9,1358.91 839.546,1360.81 842.183,1362.68 844.81,1364.53 847.427,1366.36 850.036,1368.16 852.636,1369.93 855.227,1371.69 857.811,1373.42 860.384,1375.12 862.949,1376.8 865.505,1378.46 868.055,1380.1 870.596,1381.71 873.128,1383.29 875.653,1384.85 878.172,1386.39 880.681,1387.91 883.184,1389.4 885.68,1390.86 888.168,1392.3 890.651,1393.72 893.125,1395.11 895.594,1396.48 898.055,1397.82 900.512,1399.14 902.961,1400.44 "/>
     <polygon id="_380788576" class="fil1" points="823.521,1349.08 1959.4,2484.96 1957.54,2483.41 821.662,1347.53 "/>
     <polygon id="_380763136" class="fil1" points="563.385,1029.47 1699.27,2165.36 1696.21,2164.57 1693.21,2163.72 1690.28,2162.8 1687.4,2161.82 1684.57,2160.77 1681.81,2159.65 1679.1,2158.47 1676.44,2157.23 1673.84,2155.92 1671.3,2154.56 1668.81,2153.13 1666.37,2151.65 1663.99,2150.11 1661.66,2148.51 1659.38,2146.85 1657.16,2145.15 1654.98,2143.38 1652.86,2141.57 1650.78,2139.7 514.9,1003.82 516.975,1005.69 519.1,1007.5 521.275,1009.26 523.502,1010.97 525.78,1012.62 528.11,1014.22 530.494,1015.77 532.929,1017.25 535.419,1018.67 537.963,1020.04 540.561,1021.34 543.217,1022.59 545.926,1023.77 548.692,1024.88 551.515,1025.94 554.395,1026.92 557.333,1027.84 560.33,1028.69 "/>
     <polygon id="_380771536" class="fil1" points="1106.69,1546.49 2242.57,2682.37 2239.82,2719.88 1103.94,1584 "/>
     <polygon id="_380762536" class="fil1" points="1103.94,1584 2239.82,2719.88 2075.31,2719.88 939.428,1584 "/>
     <polygon id="_380778616" class="fil1" points="1582.94,871.71 2718.82,2007.59 2718.6,2011 2718.34,2014.42 2718.05,2017.84 2717.73,2021.26 2717.38,2024.68 2716.99,2028.1 2716.56,2031.52 2716.1,2034.94 2715.6,2038.34 2715.06,2041.74 2714.48,2045.13 2713.87,2048.51 2713.21,2051.88 2712.5,2055.23 2711.76,2058.57 2710.97,2061.89 2710.14,2065.19 2709.26,2068.46 2708.33,2071.72 2707.36,2074.95 2706.33,2078.15 2705.26,2081.33 2704.14,2084.48 2702.97,2087.6 2701.74,2090.68 2700.47,2093.73 2699.13,2096.75 2697.75,2099.72 2696.31,2102.66 2694.81,2105.56 2693.25,2108.41 2691.64,2111.22 1555.76,975.341 1557.37,972.531 1558.93,969.676 1560.43,966.779 1561.87,963.842 1563.25,960.865 1564.58,957.85 1565.86,954.8 1567.09,951.715 1568.26,948.598 1569.38,945.451 1570.45,942.272 1571.47,939.068 1572.45,935.837 1573.37,932.581 1574.25,929.304 1575.09,926.005 1575.88,922.686 1576.62,919.351 1577.32,915.999 1577.98,912.631 1578.6,909.252 1579.18,905.861 1579.72,902.462 1580.22,899.055 1580.68,895.64 1581.11,892.222 1581.5,888.8 1581.85,885.379 1582.17,881.957 1582.46,878.537 1582.71,875.121 "/>
     <polygon id="_380769520" class="fil1" points="1539.47,737.285 2675.35,1873.17 2678.34,1876.78 2681.22,1880.47 2683.99,1884.22 2686.65,1888.02 2689.2,1891.89 2691.65,1895.81 2693.99,1899.78 2696.22,1903.8 2698.35,1907.87 2700.37,1911.98 2702.29,1916.13 2704.1,1920.32 2705.81,1924.54 2707.41,1928.79 2708.91,1933.08 2710.3,1937.38 2711.6,1941.72 2712.79,1946.07 2713.87,1950.44 2714.85,1954.83 2715.74,1959.23 2716.52,1963.64 2717.2,1968.05 2717.78,1972.47 2718.25,1976.88 2718.63,1981.3 2718.91,1985.71 2719.09,1990.12 2719.17,1994.51 2719.15,1998.89 2719.03,2003.25 2718.82,2007.59 1582.94,871.71 1583.15,867.367 1583.27,863.004 1583.29,858.625 1583.21,854.233 1583.03,849.83 1582.75,845.418 1582.37,841.002 1581.89,836.585 1581.32,832.168 1580.64,827.754 1579.86,823.346 1578.97,818.947 1577.99,814.561 1576.9,810.19 1575.71,805.836 1574.42,801.503 1573.03,797.194 1571.53,792.91 1569.93,788.656 1568.22,784.433 1566.41,780.245 1564.49,776.095 1562.47,771.986 1560.34,767.919 1558.11,763.899 1555.77,759.927 1553.32,756.008 1550.77,752.142 1548.11,748.334 1545.34,744.588 1542.46,740.903 "/>
    </g>
    <path id="_478228840" class="fil1" d="M1431.38 677.117c47.302,8.27245 83.0741,30.6827 108.092,60.1678 32.439,38.2323 46.2804,88.2083 43.467,134.425 -2.21457,36.3461 -9.65552,73.8969 -27.1784,103.631 -15.3969,26.1248 -38.0174,45.9709 -70.669,54.0166l-254.116 288.06c-0.151181,0.178347 -0.303544,0.354331 -0.455906,0.527953 6.22796,10.265 3.76536,23.7792 -6.03898,31.1339 -28.9748,21.7323 -56.0504,39.1642 -81.8823,52.4233l0 58.7067c0,19.5449 -7.98662,37.3146 -20.8559,50.2087 1.15158,8.13544 2.17795,16.8272 2.97166,26.2134 0.38504,4.56142 -1.85079,8.75198 -6.313,9.4193l-6.97796 1.0441c-1.57914,0.236221 -3.2374,0 -4.73622,-0.604725l-2.74725 37.5095 -164.51 0 -1.80236 -36.9201 -6.87875 -1.02874c-4.46221,-0.667323 -6.69804,-4.85788 -6.313,-9.4193 0.761812,-9.00709 1.7374,-17.374 2.83347,-25.2248 -13.4599,-12.9662 -21.8634,-31.1481 -21.8634,-51.1973l0 -58.4989c-26.0303,-13.4291 -53.0705,-31.0217 -81.8835,-52.6311 -10.4374,-7.82953 -12.5539,-22.6394 -4.72441,-33.078 1.37244,-1.82953 2.95866,-3.40276 4.69843,-4.7126l-248.673 -281.89c-3.63071,0.935434 -7.5378,1.01811 -11.4366,0.0744095 -32.9067,-7.9689 -55.6725,-27.8811 -71.1438,-54.1323 -17.5228,-29.7343 -24.9638,-67.2851 -27.1784,-103.631 -2.81339,-46.2166 11.028,-96.1926 43.467,-134.425 25.0181,-29.4851 60.7902,-51.8953 108.092,-60.1678 19.7221,-50.302 57.1075,-87.2717 102.147,-108.168 44.6717,-20.726 96.9083,-25.552 146.785,-11.7555 8.413,-13.9382 18.4028,-26.7319 29.7449,-38.074 34.0406,-34.0418 80.1449,-55.1209 132.429,-55.1209 37.2331,0 70.6382,10.748 98.6186,29.3032 24.1158,15.9945 44.015,37.6902 58.6784,63.1949 49.0949,-12.9284 100.305,-7.91694 144.207,12.4524 45.039,20.8961 82.4245,57.8658 102.147,108.168z"/>
   </g>
  </g>
  <path class="fil2" d="M1024 0c565.539,0 1024,458.461 1024,1024 0,565.539 -458.461,1024 -1024,1024 -565.539,0 -1024,-458.461 -1024,-1024 0,-565.539 458.461,-1024 1024,-1024z"/>
  <rect class="fil3" x="905.404" y="1151.86" width="237.192" height="379.508" rx="71.1579" ry="71.1579"/>
  <path class="fil4" d="M846.506 786.675c-0.0259843,-13.0488 5.24292,-23.6693 11.7673,-23.7201 6.52441,-0.0507874 11.8347,10.4858 11.8595,23.5347l2.01851 533.985c0.0259843,13.0488 -5.24174,23.6693 -11.7662,23.7201 -6.52441,0.0507874 -11.8347,-10.4858 -11.8606,-23.5347l-2.01851 -533.985z"/>
  <path class="fil4" d="M1213.37 786.675c0.0259843,-13.0488 -5.24292,-23.6693 -11.7673,-23.7201 -6.52441,-0.0507874 -11.8347,10.4858 -11.8595,23.5347l-2.01851 533.985c-0.0259843,13.0488 5.24174,23.6693 11.7662,23.7201 6.52441,0.0507874 11.8347,-10.4858 11.8606,-23.5347l2.01851 -533.985z"/>
  <path class="fil4" d="M660.631 922.835c-5.17559,-11.9787 -4.52953,-23.8158 1.44449,-26.439 5.9752,-2.62323 15.0142,4.96063 20.1898,16.9394l176.801 394.248c5.17559,11.9787 4.52953,23.8169 -1.44567,26.439 -5.97402,2.62323 -15.013,-4.96063 -20.1886,-16.9382l-176.801 -394.249z"/>
  <path class="fil4" d="M1399.24 922.835c5.17559,-11.9787 4.52953,-23.8158 -1.44449,-26.439 -5.9752,-2.62323 -15.0142,4.96063 -20.1898,16.9394l-176.801 394.248c-5.17559,11.9787 -4.52953,23.8169 1.44567,26.439 5.97402,2.62323 15.013,-4.96063 20.1886,-16.9382l176.801 -394.249z"/>
  <path class="fil4" d="M562.921 1015.91c-8.44843,-9.94489 -11.2878,-21.4547 -6.34016,-25.7079 4.94764,-4.25315 15.8079,0.359055 24.2563,10.3039l265.981 301.51c8.44843,9.94489 11.2866,21.4547 6.33898,25.7079 -4.94764,4.25315 -15.8067,-0.359055 -24.2551,-10.3039l-265.981 -301.51z"/>
  <path class="fil4" d="M1496.95 1015.91c8.44843,-9.94489 11.2878,-21.4547 6.34016,-25.7079 -4.94764,-4.25315 -15.8079,0.359055 -24.2563,10.3039l-265.981 301.51c-8.44843,9.94489 -11.2866,21.4547 -6.33898,25.7079 4.94764,4.25315 15.8067,-0.359055 24.2551,-10.3039l265.981 -301.51z"/>
  <path class="fil5" d="M823.521 1349.08c-10.4374,-7.82953 -12.5539,-22.6394 -4.72441,-33.078 7.82953,-10.4386 22.6394,-12.5539 33.078,-4.72441 127.696,95.7733 216.555,95.7745 344.251,0 10.4386,-7.82953 25.2484,-5.71418 33.078,4.72441 7.82953,10.4386 5.713,25.2484 -4.72441,33.078 -154.467,115.854 -254.939,109.514 -400.959,0z"/>
  <path class="fil6" d="M508.53 737.285c27.3921,-32.2831 67.6749,-56.0847 121.869,-62.1343l0.550394 -0.0897638c12.9461,-1.9441 25.0193,6.97441 26.9634,19.9205l32.4461 211.645 -0.0590552 0.00944883c1.61929,10.7138 -4.33229,21.4937 -14.8583,25.5638 -9.4382,3.64725 -19.7847,0.829134 -26.1532,-6.29174 -0.739371,0.264567 -1.63937,0.597638 -2.68229,0.993308 -5.69882,2.16142 -12.1583,6.04016 -18.639,11.4295 -17.5701,14.6102 -33.9638,39.0307 -35.3953,69.2764l-0.00944883 -0.0011811c-0.0708662,1.47284 -0.27874,2.96103 -0.638977,4.44803 -3.06969,12.6898 -15.848,20.4898 -28.5378,17.4189 -32.9067,-7.9689 -55.6725,-27.8811 -71.1438,-54.1323 -17.5228,-29.7343 -24.9638,-67.2851 -27.1784,-103.631 -2.81339,-46.2166 11.028,-96.1926 43.467,-134.425z"/>
  <path class="fil6" d="M1417.6 675.151c54.1937,6.04961 94.4765,29.8512 121.869,62.1343 32.439,38.2323 46.2804,88.2083 43.467,134.425 -2.21457,36.3461 -9.65552,73.8969 -27.1784,103.631 -15.4713,26.2512 -38.237,46.1634 -71.1438,54.1323 -12.6898,3.07087 -25.4681,-4.72914 -28.5378,-17.4189 -0.360236,-1.48701 -0.568111,-2.9752 -0.638977,-4.44803l-0.00944883 0.0011811c-1.4315,-30.2457 -17.8252,-54.6662 -35.3953,-69.2764 -6.48071,-5.38937 -12.9402,-9.26812 -18.639,-11.4295 -1.04291,-0.39567 -1.94291,-0.728741 -2.68229,-0.993308 -6.36851,7.12087 -16.715,9.93898 -26.1532,6.29174 -10.526,-4.07008 -16.4776,-14.85 -14.8583,-25.5638l-0.0590552 -0.00944883 32.4461 -211.645c1.9441,-12.9461 14.0173,-21.8646 26.9634,-19.9205l0.550394 0.0897638z"/>
  <path class="fil7" d="M1169.39 561.283c2.4874,-0.865749 4.50118,-1.53898 6.0567,-2.02677 51.9603,-16.2756 107.016,-12.0036 153.781,9.69331 47.1473,21.874 85.9075,61.3619 104.799,115.319 0.959056,2.73662 1.69488,4.9252 2.20866,6.56339 1.09961,3.53386 1.32992,7.12914 0.812599,10.5591l0.0212599 0.00354331 -33.0378 215.443c-1.9441,12.9449 -14.0162,21.8646 -26.9622,19.9205 -11.9008,-1.78819 -20.3977,-12.1347 -20.1815,-23.8512 -0.0578741,-0.745276 -0.146457,-1.80709 -0.265748,-3.17362 -2.75197,-31.4764 -23.9067,-56.113 -51.7158,-72.8327 -30.0024,-18.039 -67.0819,-26.9469 -98.615,-25.865 -1.41732,0.0484252 -3.78307,0.217323 -7.10434,0.507874 -0.831497,0.0720473 -1.65827,0.0992127 -2.47441,0.0850394 -12.3236,0.284646 -22.9288,-9.03544 -24.0567,-21.4925 -0.0307087,-0.341339 -0.0519685,-0.681497 -0.068504,-1.02047l-0.0236221 0.0011811 -6.56457 -131.769c-0.54567,-11.015 -2.10591,-21.913 -4.59922,-32.5441 -2.51339,-10.715 -5.90552,-20.8477 -10.0949,-30.254 -5.32087,-11.9221 0.0307087,-25.9028 11.9528,-31.2236 0.977954,-0.437008 1.97008,-0.800788 2.97047,-1.09606l-0.00590552 -0.0165354 3.16772 -0.930709z"/>
  <path class="fil7" d="M872.549 559.256c1.55551,0.487796 3.56929,1.16102 6.0567,2.02677l3.16772 0.930709 -0.00590552 0.0165354c1.00039,0.295276 1.99252,0.659056 2.97047,1.09606 11.9221,5.32087 17.2736,19.3016 11.9528,31.2236 -4.18937,9.40631 -7.5815,19.539 -10.0949,30.254 -2.49331,10.6311 -4.05355,21.5292 -4.59922,32.5441l-6.56457 131.769 -0.0236221 -0.0011811c-0.0165354,0.338977 -0.0377953,0.679134 -0.068504,1.02047 -1.12795,12.4571 -11.7331,21.7772 -24.0567,21.4925 -0.816142,0.0141732 -1.64291,-0.0129921 -2.47441,-0.0850394 -3.32126,-0.290551 -5.68701,-0.459449 -7.10434,-0.507874 -31.5331,-1.08189 -68.6127,7.82599 -98.615,25.865 -27.8091,16.7197 -48.9638,41.3563 -51.7158,72.8327 -0.119291,1.36654 -0.207874,2.42835 -0.265748,3.17362 0.216142,11.7165 -8.28072,22.063 -20.1815,23.8512 -12.9461,1.9441 -25.0181,-6.9756 -26.9622,-19.9205l-33.0378 -215.443 0.0212599 -0.00354331c-0.517323,-3.42992 -0.287008,-7.0252 0.812599,-10.5591 0.51378,-1.63819 1.24961,-3.82677 2.20866,-6.56339 18.8917,-53.9575 57.652,-93.4453 104.799,-115.319 46.7646,-21.6969 101.821,-25.9689 153.781,-9.69331z"/>
  <path class="fil8" d="M1027.73 463.999c37.2331,0 70.6382,10.748 98.6186,29.3032 29.3977,19.4977 52.5284,47.4662 67.5485,80.4827 0.197244,0.432284 0.376772,0.868111 0.54567,1.30512 5.43426,12.1618 9.77954,24.9437 12.9331,38.1662 3.16181,13.2614 5.15788,27.274 5.88426,41.8677l6.61064 132.793c0.612993,13.0488 -9.46654,24.1252 -22.5154,24.7382 -6.99567,0.329528 -13.4221,-2.41536 -17.9752,-7.04174 -19.689,-19.9181 -43.3548,-36.0437 -69.7359,-47.1095 -25.2343,-10.5839 -52.9146,-16.441 -81.9142,-16.441 -30.0792,0 -60.404,6.05434 -88.0264,17.0634 -27.3355,10.8933 -52.0394,26.5831 -71.2182,45.9863 -9.15946,9.313 -24.1358,9.43702 -33.4488,0.277559 -5.03977,-4.95591 -7.38662,-11.615 -7.02993,-18.1595l-0.011811 -0.0011811 7.59213 -132.291c3.04134,-52.9737 25.0666,-101.171 59.7142,-135.819 34.0406,-34.0418 80.1449,-55.1209 132.429,-55.1209z"/>
  <path class="fil9" d="M1021.46 1170.89c47.3386,0 88.2568,32.3327 88.2568,83.9186 0,51.5859 -38.3764,118.56 -85.715,118.56 -47.3386,0 -85.715,-66.9745 -85.715,-118.56 0,-51.5859 35.8347,-83.9186 83.1733,-83.9186z"/>
  <path class="fil10" d="M1021.46 1170.89c47.0764,0 87.7949,31.9796 88.2461,83.0658 -22.3205,-14.6681 -53.2394,-23.752 -87.4099,-23.752 -32.4461,0 -61.9571,8.19331 -83.9623,21.5776 1.37599,-49.8178 36.7217,-80.8914 83.126,-80.8914z"/>
  <path class="fil11" d="M971.909 1231.63c19.2815,0 52.0914,2.9374 52.0914,22.2189 0,19.2815 -32.8099,47.6079 -52.0914,47.6079 -19.2815,0 -34.9134,-15.6319 -34.9134,-34.9134 0,-19.2815 15.6319,-34.9134 34.9134,-34.9134z"/>
  <path class="fil12" d="M971.907 1229.17c11.6091,0 28.0689,1.06063 39.737,6.0378 8.70001,3.70985 14.8193,9.55631 14.8193,18.6437 0,10.1528 -8.18977,22.4008 -18.9118,32.2016 -11.1449,10.1858 -25.1764,17.8713 -35.6445,17.8713 -10.3205,0 -19.6654,-4.18465 -26.4295,-10.9476 -6.763,-6.763 -10.9465,-16.1079 -10.9465,-26.4295 0,-10.3205 4.18347,-19.6654 10.9465,-26.4295 6.76418,-6.763 16.1091,-10.9476 26.4295,-10.9476zm37.8118 10.5626c-10.8874,-4.6441 -26.6469,-5.63386 -37.8118,-5.63386 -8.95985,0 -17.0717,3.63189 -22.9441,9.50316 -5.87126,5.87126 -9.50434,13.9866 -9.50434,22.9453 0,8.95985 3.63307,17.0728 9.50434,22.9453 5.87245,5.87126 13.9843,9.50316 22.9441,9.50316 9.24568,0 22.004,-7.12205 32.3327,-16.5614 9.8067,-8.96221 17.2961,-19.8862 17.2961,-28.5827 0,-6.69686 -4.88032,-11.1614 -11.8169,-14.1189z"/>
  <path class="fil11" d="M1076.09 1231.63c-19.2815,0 -52.0914,2.9374 -52.0914,22.2189 0,19.2815 32.8099,47.6079 52.0914,47.6079 19.2815,0 34.9134,-15.6319 34.9134,-34.9134 0,-19.2815 -15.6319,-34.9134 -34.9134,-34.9134z"/>
  <path class="fil12" d="M1076.09 1234.1c-11.165,0 -26.9244,0.989765 -37.8118,5.63386 -6.93662,2.95748 -11.8169,7.42205 -11.8169,14.1189 0,8.69646 7.48938,19.6205 17.2961,28.5827 10.3287,9.43938 23.087,16.5614 32.3327,16.5614 8.95867,0 17.0728,-3.63307 22.9441,-9.50316 5.87126,-5.87245 9.50434,-13.9854 9.50434,-22.9453 0,-8.95867 -3.63307,-17.074 -9.50434,-22.9453 -5.87126,-5.87008 -13.9854,-9.50316 -22.9441,-9.50316zm-39.737 1.10906c11.6681,-4.97717 28.128,-6.0378 39.737,-6.0378 10.3205,0 19.6654,4.18465 26.4295,10.9476 6.763,6.76418 10.9465,16.1091 10.9465,26.4295 0,10.3217 -4.18347,19.6666 -10.9465,26.4295 -6.76418,6.763 -16.1091,10.9476 -26.4295,10.9476 -10.4681,0 -24.4996,-7.68544 -35.6445,-17.8713 -10.7221,-9.80079 -18.9118,-22.0488 -18.9118,-32.2016 0,-9.08741 6.1193,-14.9339 14.8193,-18.6437z"/>
  <polygon class="fil13" points="930.163,1394.25 1117.84,1394.25 1103.94,1584 939.428,1584 "/>
  <path class="fil14" d="M922.998 1324.07l7.12914 0c4.56378,0 5.63032,4.3878 7.69725,8.29607 47.8465,90.456 17.3622,116.111 9.82324,207.738 -0.37441,4.55906 -5.46142,7.65945 -9.92363,6.99213l-6.97678 -1.0441c-4.46221,-0.667323 -6.69804,-4.85788 -6.313,-9.4193 7.74804,-91.6595 37.7351,-117.134 -10.3299,-204.267 -2.13425,-3.87048 4.32992,-8.29607 8.89371,-8.29607z"/>
  <path class="fil14" d="M1126.15 1324.07l-7.12914 0c-4.56378,0 -5.63032,4.3878 -7.69725,8.29607 -47.8465,90.456 -17.3622,116.111 -9.82324,207.738 0.37441,4.55906 5.46142,7.65945 9.92363,6.99213l6.97678 -1.0441c4.46221,-0.667323 6.69804,-4.85788 6.313,-9.4193 -7.74804,-91.6595 -37.7351,-117.134 10.3299,-204.267 2.13425,-3.87048 -4.32992,-8.29607 -8.89371,-8.29607z"/>
  <path class="fil15" d="M956.346 1477.41c2.42835,1.30866 5.75788,3.22559 9.24213,5.23111 28.1894,16.2213 75.3296,36.1701 127.709,-15.8681l10.4232 10.4811c-60.3756,59.9823 -113.304,36.7028 -145.486,18.1843 -2.86063,-1.64528 -5.58071,-3.21142 -8.89607,-5.00079l7.00749 -13.0276z"/>
 </g>
</svg>
