<?xml version="1.0" encoding="UTF-8"?>
<!DOCTYPE svg PUBLIC "-//W3C//DTD SVG 1.1//EN" "http://www.w3.org/Graphics/SVG/1.1/DTD/svg11.dtd">
<!-- Creator: CorelDRAW -->
<svg xmlns="http://www.w3.org/2000/svg" xml:space="preserve" width="2048px" height="2048px" style="shape-rendering:geometricPrecision; text-rendering:geometricPrecision; image-rendering:optimizeQuality; fill-rule:evenodd; clip-rule:evenodd"
viewBox="0 0 2048 2048"
 xmlns:xlink="http://www.w3.org/1999/xlink">
 <defs>
  <style type="text/css">
   <![CDATA[
    .fil2 {fill:none}
    .fil24 {fill:#005187}
    .fil23 {fill:#00558E}
    .fil12 {fill:#01579B}
    .fil21 {fill:#0277BD}
    .fil22 {fill:#0284CB}
    .fil19 {fill:#0288D1}
    .fil3 {fill:#212121}
    .fil8 {fill:#B09176}
    .fil26 {fill:#B5D7D9}
    .fil11 {fill:#BF9E83}
    .fil10 {fill:#BFE3E6}
    .fil13 {fill:#C3E8EA}
    .fil28 {fill:#CCA98B}
    .fil25 {fill:#D7B293}
    .fil1 {fill:#D81B60}
    .fil17 {fill:#DCB696}
    .fil15 {fill:#E3BC9B}
    .fil27 {fill:#E5BD9C}
    .fil29 {fill:#E65100}
    .fil20 {fill:#EAC2A0}
    .fil0 {fill:#F06292}
    .fil16 {fill:#F7CCA9}
    .fil18 {fill:#F7D5B8}
    .fil9 {fill:#FFD3AE}
    .fil14 {fill:#FFDCBE}
    .fil7 {fill:#656565;fill-rule:nonzero}
    .fil6 {fill:#757575;fill-rule:nonzero}
    .fil5 {fill:#A81D1D;fill-rule:nonzero}
    .fil4 {fill:#FCE4EC;fill-rule:nonzero}
   ]]>
  </style>
   <clipPath id="id0">
    <path d="M1024 0c565.539,0 1024,458.461 1024,1024 0,565.539 -458.461,1024 -1024,1024 -565.539,0 -1024,-458.461 -1024,-1024 0,-565.539 458.461,-1024 1024,-1024z"/>
   </clipPath>
 </defs>
 <g id="Layer_x0020_1">
  <metadata id="CorelCorpID_0Corel-Layer"/>
  <path class="fil0" d="M1024 0c565.539,0 1024,458.461 1024,1024 0,565.539 -458.461,1024 -1024,1024 -565.539,0 -1024,-458.461 -1024,-1024 0,-565.539 458.461,-1024 1024,-1024z"/>
  <g style="clip-path:url(#id0)">
   <g id="_478230544">
    <g>
     <polygon id="_3872038481" class="fil1" points="743.043,903.015 1878.92,2038.9 1878.93,2038.89 1878.93,2038.88 1878.93,2038.88 1878.93,2038.87 1878.94,2038.86 1878.94,2038.86 1878.94,2038.85 1878.94,2038.84 743.058,902.962 743.057,902.969 743.057,902.975 743.056,902.982 743.053,902.988 743.052,902.995 743.05,903.002 743.046,903.008 "/>
     <polygon id="_387192328" class="fil1" points="1298.05,730.687 2433.93,1866.57 2440.17,1874.9 2446.41,1883.25 2452.64,1891.64 2458.86,1900.04 2465.05,1908.48 2471.19,1916.94 2477.28,1925.43 2483.3,1933.94 2489.24,1942.48 2495.09,1951.04 2500.84,1959.63 2506.46,1968.24 2511.96,1976.87 2517.31,1985.53 2522.5,1994.21 2527.53,2002.92 2532.38,2011.65 2537.03,2020.4 2541.48,2029.17 2545.71,2037.97 2549.7,2046.78 2553.46,2055.62 2556.95,2064.48 2560.18,2073.36 2563.13,2082.26 2565.78,2091.19 2568.12,2100.13 2570.15,2109.09 2571.84,2118.07 2573.19,2127.07 2574.19,2136.09 2574.81,2145.13 1438.93,1009.25 1438.3,1000.21 1437.31,991.191 1435.96,982.19 1434.27,973.208 1432.24,964.246 1429.9,955.303 1427.25,946.381 1424.3,937.479 1421.07,928.599 1417.58,919.738 1413.82,910.9 1409.83,902.083 1405.6,893.287 1401.15,884.514 1396.5,875.763 1391.65,867.035 1386.62,858.33 1381.43,849.648 1376.08,840.989 1370.58,832.354 1364.95,823.743 1359.21,815.156 1353.36,806.594 1347.42,798.057 1341.4,789.545 1335.31,781.059 1329.16,772.597 1322.98,764.162 1316.76,755.754 1310.53,747.371 1304.29,739.015 "/>
     <polygon id="_387192976" class="fil1" points="1570.1,1023.99 2705.98,2159.88 2696.4,2169.45 1560.52,1033.57 "/>
     <polygon id="_387185536" class="fil1" points="1506.05,1038.74 2641.93,2174.62 2574.81,2174.62 1438.93,1038.74 "/>
     <polygon id="_387189184" class="fil1" points="1560.52,1033.57 2696.4,2169.45 2641.93,2223.92 1506.05,1088.03 "/>
     <polygon id="_387205312" class="fil1" points="985.451,609.044 2121.33,1744.93 2124.2,1748.84 2126.37,1752.81 2127.92,1756.83 2128.89,1760.87 2129.35,1764.9 2129.36,1768.9 2128.98,1772.85 2128.26,1776.73 2127.27,1780.51 2126.08,1784.17 2124.72,1787.68 2123.28,1791.02 2121.8,1794.18 2120.35,1797.11 2118.99,1799.81 2117.78,1802.25 2116.77,1804.41 2116.03,1806.26 2115.61,1807.77 979.733,671.889 980.147,670.374 980.889,668.527 981.896,666.373 983.11,663.932 984.473,661.232 985.922,658.294 987.399,655.14 988.843,651.795 990.194,648.283 991.393,644.626 992.381,640.847 993.096,636.97 993.479,633.018 993.47,629.015 993.009,624.984 992.037,620.949 990.493,616.93 988.318,612.955 "/>
     <polygon id="_387199720" class="fil1" points="1356.52,1236.81 2492.4,2372.69 2492.12,2374.36 2491.64,2375.95 2490.97,2377.44 2490.12,2378.83 2489.11,2380.09 2487.96,2381.21 2486.68,2382.18 2485.28,2382.99 1349.4,1247.11 1350.8,1246.3 1352.08,1245.33 1353.23,1244.2 1354.24,1242.94 1355.09,1241.56 1355.76,1240.07 1356.24,1238.48 "/>
     <polygon id="_387201832" class="fil1" points="1349.4,1247.11 2485.28,2382.99 2484.99,2383.41 2484.69,2383.83 2484.4,2384.25 2484.11,2384.67 2483.81,2385.09 2483.52,2385.51 2483.22,2385.93 2482.93,2386.35 1347.05,1250.47 1347.34,1250.05 1347.64,1249.63 1347.93,1249.21 1348.23,1248.79 1348.52,1248.37 1348.81,1247.95 1349.11,1247.53 "/>
     <polygon id="_387203536" class="fil1" points="1349.54,1252.62 2485.42,2388.5 2486.44,2389.79 2487.29,2391.21 2487.96,2392.73 2488.43,2394.35 2488.69,2396.04 2488.72,2397.79 1352.84,1261.91 1352.81,1260.16 1352.55,1258.46 1352.08,1256.85 1351.41,1255.33 1350.56,1253.91 "/>
     <polygon id="_387208144" class="fil1" points="1352.84,1261.91 2488.72,2397.79 2488.59,2399.11 2488.33,2400.39 2487.96,2401.61 2487.46,2402.78 2486.86,2403.88 2486.16,2404.92 2485.37,2405.88 2484.49,2406.76 2483.53,2407.55 2482.5,2408.25 2481.4,2408.84 2480.24,2409.33 2479.03,2409.71 2477.77,2409.97 2476.48,2410.11 2475.15,2410.11 1339.27,1274.22 1340.6,1274.22 1341.89,1274.09 1343.15,1273.83 1344.36,1273.45 1345.52,1272.96 1346.62,1272.36 1347.65,1271.67 1348.61,1270.88 1349.49,1270 1350.28,1269.04 1350.98,1268 1351.58,1266.9 1352.08,1265.73 1352.45,1264.5 1352.71,1263.23 "/>
     <polygon id="_387197776" class="fil1" points="1339.27,1274.22 2475.15,2410.11 2467.91,2409.85 1332.03,1273.97 "/>
     <polygon id="_387198232" class="fil1" points="1337.35,1277.03 2473.24,2412.91 2474.58,2414.46 2475.65,2416.2 2476.42,2418.12 2476.86,2420.18 2476.94,2422.34 1341.06,1286.46 1340.98,1284.3 1340.54,1282.24 1339.77,1280.32 1338.69,1278.57 "/>
     <polygon id="_387189520" class="fil1" points="1341.06,1286.46 2476.94,2422.34 2476.58,2424.81 2475.74,2427.09 2474.51,2429.13 2472.91,2430.88 2471.02,2432.3 2468.87,2433.33 2466.52,2433.94 2464.02,2434.07 1328.14,1298.19 1330.64,1298.06 1332.99,1297.45 1335.14,1296.42 1337.03,1295 1338.63,1293.25 1339.86,1291.21 1340.69,1288.93 "/>
     <polygon id="_387186640" class="fil1" points="1328.14,1298.19 2464.02,2434.07 2448.62,2433.53 1312.74,1297.65 "/>
     <polygon id="_387195592" class="fil1" points="1312.74,1297.65 2448.62,2433.53 2447.7,2434.77 2446.78,2436 2445.87,2437.23 2444.95,2438.46 2444.03,2439.69 2443.11,2440.92 2442.19,2442.15 2441.27,2443.38 2440.36,2444.61 2439.44,2445.83 2438.52,2447.06 2437.6,2448.29 2436.68,2449.51 2435.77,2450.74 2434.85,2451.96 2433.93,2453.19 1298.05,1317.31 1298.97,1316.08 1299.89,1314.86 1300.8,1313.63 1301.72,1312.41 1302.64,1311.18 1303.56,1309.95 1304.47,1308.73 1305.39,1307.5 1306.31,1306.27 1307.23,1305.04 1308.15,1303.81 1309.07,1302.58 1309.98,1301.35 1310.9,1300.12 1311.82,1298.88 "/>
     <polygon id="_387203368" class="fil1" points="928.423,1255.39 2064.3,2391.27 2063.84,2396.38 2063.38,2401.44 2062.92,2406.43 2062.45,2411.35 2061.99,2416.2 2061.52,2420.96 2061.06,2425.64 2060.61,2430.23 2060.15,2434.72 2059.71,2439.1 2059.27,2443.37 2058.84,2447.53 2058.41,2451.56 2058,2455.47 2057.59,2459.24 2057.2,2462.88 2056.82,2466.37 2056.46,2469.71 2056.1,2472.89 2055.77,2475.92 2055.45,2478.77 2055.15,2481.45 2054.87,2483.95 2054.61,2486.27 2054.37,2488.39 2054.15,2490.32 2053.95,2492.05 2053.78,2493.57 2053.63,2494.87 2053.51,2495.95 2053.42,2496.81 2053.35,2497.44 917.469,1361.55 917.535,1360.93 917.629,1360.07 917.75,1358.99 917.898,1357.68 918.069,1356.17 918.265,1354.44 918.485,1352.51 918.726,1350.39 918.987,1348.07 919.269,1345.57 919.569,1342.89 919.888,1340.03 920.224,1337.01 920.574,1333.83 920.939,1330.49 921.32,1327 921.712,1323.36 922.116,1319.59 922.53,1315.68 922.954,1311.64 923.387,1307.49 923.827,1303.22 924.274,1298.83 924.726,1294.35 925.183,1289.76 925.644,1285.08 926.107,1280.32 926.571,1275.47 927.036,1270.55 927.5,1265.56 927.963,1260.5 "/>
     <polygon id="_387205360" class="fil1" points="1189.86,1553.65 2325.75,2689.53 2326.35,2691.84 2326.71,2694.16 2326.83,2696.46 2326.73,2698.74 2326.41,2700.98 2325.87,2703.16 2325.13,2705.28 2324.19,2707.31 2323.07,2709.25 2321.76,2711.07 2320.28,2712.76 2318.63,2714.31 2316.82,2715.7 2314.86,2716.92 2312.76,2717.96 2310.52,2718.79 1174.64,1582.91 1176.88,1582.07 1178.98,1581.04 1180.94,1579.82 1182.75,1578.43 1184.4,1576.88 1185.88,1575.18 1187.19,1573.36 1188.31,1571.43 1189.25,1569.4 1189.99,1567.28 1190.52,1565.1 1190.85,1562.86 1190.95,1560.58 1190.83,1558.27 1190.47,1555.96 "/>
     <polygon id="_387192400" class="fil1" points="1174.64,1582.91 2310.52,2718.79 2309.21,2719.16 2307.89,2719.46 2306.57,2719.67 2305.26,2719.81 2303.95,2719.87 2302.64,2719.86 2301.35,2719.77 2300.06,2719.62 1164.18,1583.74 1165.46,1583.89 1166.76,1583.98 1168.06,1583.99 1169.38,1583.93 1170.69,1583.79 1172.01,1583.57 1173.33,1583.28 "/>
     <polygon id="_387196072" class="fil1" points="1164.18,1583.74 2300.06,2719.62 2298.48,2719.32 2296.92,2718.92 2295.4,2718.42 2293.92,2717.81 2292.48,2717.1 2291.1,2716.29 2289.77,2715.4 2288.5,2714.41 2287.31,2713.33 1151.43,1577.45 1152.62,1578.52 1153.89,1579.51 1155.21,1580.41 1156.6,1581.22 1158.04,1581.92 1159.52,1582.53 1161.04,1583.04 1162.6,1583.44 "/>
     <polygon id="_387215080" class="fil1" points="672.46,965.767 1808.34,2101.65 1810.99,2104.29 675.104,968.411 "/>
     <polygon id="_387196312" class="fil1" points="694.48,1201.9 1830.36,2337.78 1826,2336.92 1821.38,2336.01 1816.51,2335.04 1811.42,2334.02 1806.13,2332.95 1800.65,2331.83 1795,2330.68 1789.21,2329.48 1783.29,2328.25 1777.26,2326.98 1771.14,2325.68 1764.95,2324.36 1758.72,2323.01 1752.45,2321.63 1746.17,2320.24 1739.9,2318.83 1733.66,2317.41 1727.46,2315.98 1721.33,2314.53 1715.29,2313.09 1709.35,2311.64 1703.53,2310.2 1697.86,2308.76 1692.36,2307.32 1687.03,2305.9 1681.91,2304.49 1677.01,2303.09 1672.35,2301.72 1667.95,2300.36 1663.82,2299.03 1660,2297.73 1656.5,2296.46 520.616,1160.57 524.12,1161.85 527.944,1163.15 532.065,1164.48 536.465,1165.83 541.127,1167.21 546.029,1168.61 551.151,1170.02 556.476,1171.44 561.983,1172.87 567.654,1174.32 573.468,1175.76 579.407,1177.21 585.45,1178.65 591.58,1180.09 597.776,1181.53 604.019,1182.95 610.289,1184.36 616.568,1185.75 622.835,1187.12 629.072,1188.47 635.259,1189.8 641.377,1191.1 647.405,1192.37 653.326,1193.6 659.119,1194.8 664.766,1195.95 670.248,1197.07 675.543,1198.14 680.633,1199.16 685.498,1200.12 690.121,1201.04 "/>
     <polygon id="_387209008" class="fil1" points="767.332,1537.33 1903.21,2673.22 1882.41,2719.88 746.525,1584 "/>
     <polygon id="_387190624" class="fil1" points="520.616,1160.57 1656.5,2296.46 1653.6,2295.31 1650.81,2294.11 1648.13,2292.85 1645.56,2291.53 1643.1,2290.16 1640.75,2288.73 1638.5,2287.25 1636.36,2285.72 1634.33,2284.14 1632.4,2282.5 496.518,1146.62 498.448,1148.25 500.482,1149.84 502.621,1151.37 504.867,1152.85 507.219,1154.28 509.68,1155.65 512.249,1156.97 514.928,1158.23 517.717,1159.43 "/>
     <polygon id="_387190984" class="fil1" points="746.525,1584 1882.41,2719.88 1731.1,2719.88 595.222,1584 "/>
     <polygon id="_387199432" class="fil1" points="917.469,1361.55 2053.35,2497.44 2073.81,2719.88 937.933,1584 "/>
     <polygon id="_387200344" class="fil1" points="937.933,1584 2073.81,2719.88 1909.75,2719.88 773.869,1584 "/>
     <polygon id="_387194968" class="fil1" points="1298.05,1317.31 2433.93,2453.19 2427.74,2461.47 2421.58,2469.71 2415.48,2477.92 2409.44,2486.1 2403.48,2494.23 2397.61,2502.32 2391.85,2510.37 2386.22,2518.37 2380.73,2526.32 2375.39,2534.22 2370.21,2542.06 2365.22,2549.84 2360.42,2557.57 2355.83,2565.23 2351.47,2572.82 2347.34,2580.35 2343.48,2587.81 2339.87,2595.2 2336.56,2602.51 2333.54,2609.74 2330.83,2616.89 2328.44,2623.96 2326.4,2630.94 2324.71,2637.84 2323.4,2644.64 2322.46,2651.36 2321.93,2657.97 2321.81,2664.49 2322.12,2670.91 2322.86,2677.22 2324.07,2683.43 2325.75,2689.53 1189.86,1553.65 1188.19,1547.55 1186.98,1541.34 1186.24,1535.03 1185.93,1528.61 1186.05,1522.09 1186.58,1515.47 1187.52,1508.76 1188.83,1501.96 1190.52,1495.06 1192.56,1488.08 1194.94,1481.01 1197.65,1473.86 1200.67,1466.62 1203.99,1459.31 1207.59,1451.93 1211.46,1444.47 1215.59,1436.94 1219.95,1429.35 1224.54,1421.68 1229.33,1413.96 1234.33,1406.18 1239.5,1398.33 1244.85,1390.44 1250.34,1382.49 1255.97,1374.49 1261.73,1366.44 1267.6,1358.35 1273.56,1350.21 1279.6,1342.04 1285.7,1333.83 1291.86,1325.58 "/>
     <polygon id="_387193528" class="fil1" points="979.733,671.889 2115.61,1807.77 2115.65,1808 2115.69,1808.23 2115.72,1808.45 2115.76,1808.68 2115.79,1808.91 2115.83,1809.14 2115.86,1809.37 2115.89,1809.6 980.013,673.72 979.98,673.489 979.946,673.258 979.912,673.028 979.876,672.799 979.842,672.571 979.805,672.343 979.77,672.116 "/>
     <polygon id="_387185224" class="fil1" points="980.013,673.72 2115.89,1809.6 2116.06,1810.78 2116.22,1811.96 2116.37,1813.17 2116.51,1814.4 2116.64,1815.64 2116.76,1816.9 2116.88,1818.18 2116.98,1819.47 2117.08,1820.79 2117.17,1822.12 2117.25,1823.47 2117.32,1824.84 2117.38,1826.23 2117.43,1827.63 2117.47,1829.06 2117.51,1830.5 2117.53,1831.97 2117.55,1833.45 2117.55,1834.95 2117.55,1836.48 2117.54,1838.02 2117.52,1839.58 2117.48,1841.16 2117.44,1842.76 2117.39,1844.38 2117.33,1846.03 2117.26,1847.69 2117.18,1849.37 2117.09,1851.08 2117,1852.8 2116.89,1854.55 2116.77,1856.31 980.886,720.432 981.005,718.665 981.114,716.919 981.213,715.195 981.302,713.49 981.381,711.807 981.451,710.145 981.511,708.503 981.562,706.881 981.603,705.279 981.634,703.698 981.656,702.136 981.668,700.594 981.672,699.071 981.666,697.569 981.649,696.086 981.624,694.622 981.591,693.178 981.548,691.752 981.496,690.345 981.434,688.956 981.365,687.588 981.285,686.236 981.197,684.904 981.1,683.591 980.995,682.294 980.88,681.016 980.757,679.757 980.625,678.514 980.486,677.289 980.337,676.082 980.179,674.893 "/>
     <polygon id="_387202528" class="fil1" points="980.886,720.432 2116.77,1856.31 2116.35,1872.37 980.468,736.49 "/>
     <polygon id="_387185896" class="fil1" points="1438.93,1038.74 2574.81,2174.62 2574.41,2180.97 2573.83,2187.31 2573.07,2193.63 2572.13,2199.95 2571.02,2206.26 2569.75,2212.56 2568.31,2218.85 2566.72,2225.13 2564.97,2231.41 2563.07,2237.67 2561.03,2243.92 2558.85,2250.16 2556.53,2256.39 2554.08,2262.61 2551.5,2268.82 2548.8,2275.02 2545.98,2281.21 2543.05,2287.38 2540,2293.55 2536.85,2299.71 2533.6,2305.85 2530.25,2311.98 2526.81,2318.11 2523.28,2324.22 2519.67,2330.32 2515.98,2336.41 2512.21,2342.48 2508.37,2348.55 2504.47,2354.6 2500.5,2360.64 2496.48,2366.67 2492.4,2372.69 1356.52,1236.81 1360.59,1230.79 1364.62,1224.76 1368.59,1218.72 1372.49,1212.66 1376.33,1206.6 1380.1,1200.52 1383.79,1194.43 1387.4,1188.34 1390.93,1182.22 1394.37,1176.1 1397.72,1169.97 1400.97,1163.82 1404.12,1157.67 1407.17,1151.5 1410.1,1145.32 1412.92,1139.14 1415.62,1132.94 1418.2,1126.73 1420.65,1120.51 1422.97,1114.28 1425.15,1108.04 1427.19,1101.79 1429.09,1095.52 1430.84,1089.25 1432.43,1082.97 1433.87,1076.68 1435.14,1070.38 1436.25,1064.07 1437.19,1057.75 1437.95,1051.42 1438.53,1045.09 "/>
     <polygon id="_387203272" class="fil1" points="1184.4,471.116 2320.28,1607 2321.76,1608.69 2323.07,1610.51 2324.19,1612.44 2325.13,1614.48 2325.87,1616.59 2326.41,1618.78 2326.73,1621.02 2326.83,1623.3 2326.71,1625.6 2326.35,1627.92 2325.75,1630.23 1189.86,494.344 1190.47,492.033 1190.83,489.72 1190.95,487.415 1190.85,485.136 1190.52,482.896 1189.99,480.711 1189.25,478.595 1188.31,476.562 1187.19,474.629 1185.88,472.809 "/>
     <polygon id="_387205672" class="fil1" points="1189.86,494.344 2325.75,1630.23 2324.07,1636.33 2322.86,1642.54 2322.12,1648.85 2321.81,1655.27 2321.93,1661.79 2322.46,1668.4 2323.4,1675.11 2324.71,1681.92 2326.4,1688.81 2328.44,1695.8 2330.83,1702.87 2333.54,1710.02 2336.56,1717.25 2339.87,1724.56 2343.48,1731.95 2347.34,1739.4 2351.47,1746.93 2355.83,1754.53 2360.42,1762.19 2365.22,1769.92 2370.21,1777.7 2375.39,1785.54 2380.73,1793.44 2386.22,1801.39 2391.85,1809.39 2397.61,1817.43 2403.48,1825.53 2409.44,1833.66 2415.48,1841.83 2421.58,1850.05 2427.74,1858.29 2433.93,1866.57 1298.05,730.687 1291.86,722.409 1285.7,714.164 1279.6,705.951 1273.56,697.778 1267.6,689.644 1261.73,681.552 1255.97,673.505 1250.34,665.506 1244.85,657.557 1239.5,649.66 1234.33,641.817 1229.33,634.034 1224.54,626.31 1219.95,618.648 1215.59,611.052 1211.46,603.523 1207.59,596.065 1203.99,588.68 1200.67,581.369 1197.65,574.137 1194.94,566.984 1192.56,559.915 1190.52,552.932 1188.83,546.036 1187.52,539.232 1186.58,532.519 1186.05,525.903 1185.93,519.384 1186.24,512.967 1186.98,506.653 1188.19,500.444 "/>
    </g>
    <path id="_478223224" class="fil1" d="M743.043 903.015c0.011811,-0.0177165 0.0129921,-0.0354331 0.0153543,-0.0531496 -0.00590552,0.0165354 -0.0106299,0.0354331 -0.0153543,0.0531496zm555.011 -172.328c66.3839,88.6926 136.252,182.047 140.873,278.563l67.1268 0 0 -49.2957 54.4666 54.463 9.57639 9.57639 -9.57639 9.57639 -54.4666 54.463 0 -49.2957 -67.1256 0c-3.24331,67.754 -38.6386,133.949 -82.4115,198.067 -0.453544,4.55788 -3.24567,8.37638 -7.11733,10.3063 -0.780709,1.1185 -1.56378,2.23701 -2.34921,3.35433 3.68268,2.44134 6.02363,6.70394 5.79213,11.4413 -0.34252,7.14804 -6.42048,12.6638 -13.5709,12.3177l-7.24371 -0.257481c5.44489,1.50236 9.32363,6.61654 9.03662,12.4925 -0.327166,6.80197 -6.11575,12.0567 -12.9213,11.7284l-15.4039 -0.537402c-4.89567,6.57638 -9.79961,13.128 -14.6847,19.6547 -66.2126,88.4635 -128.633,171.86 -108.189,236.343 3.8752,12.2823 -2.93977,25.3819 -15.2221,29.2571 -3.49725,1.10433 -7.06182,1.34055 -10.4599,0.830316 -8.53465,-1.28032 -16.0264,-7.26733 -18.7973,-16.0512 -9.04371,-28.5272 -9.5067,-57.6934 -4.09134,-87.3969l-212.871 -224.901c-4.88859,54.8339 -10.4032,100.737 -10.9536,106.167l20.4638 222.445 -164.064 0 -6.53741 -46.6666 -20.8075 46.6666 -151.303 0 81.8552 -263.677c2.30551,-16.6536 9.04607,-62.693 17.4036,-118.427 -45.0284,-8.82993 -138.248,-27.9248 -173.864,-41.3233 -31.5248,-11.8536 -43.9748,-34.2154 -41.6717,-59.2406 -1.95591,-27.5492 13.3488,-54.5245 39.9922,-66.2233 0.22441,-0.100394 0.448819,-0.197244 0.675591,-0.294095l116.074 -49.5709 -19.0902 -18.1122 55.8638 -1.36536 2.64449 2.64449 2.45197 -1.04882 57.5079 -24.5575c3.95906,-22.9441 6.83977,-37.7469 7.97835,-39.7902 0.00354331,-0.0188977 0.00826772,-0.0366142 0.0153543,-0.0531496 -0.00236221,-0.00590552 -0.0011811,-0.0106299 0.0011811,-0.0153543 1.85788,-23.1177 3.41929,-53.8193 3.73111,-93.2186 -1.72087,-3.52677 -3.37087,-7.0193 -4.93465,-10.4539 -0.0271654,-0.046063 -0.0496063,-0.0944883 -0.0673229,-0.145276 -0.0106299,-0.011811 -0.0165354,-0.0248032 -0.022441,-0.0389764 -84.9709,-186.197 50.6327,-235.564 116.244,-224.354 192.649,8.01379 124.182,82.8355 121.723,97.154 0.0980316,0.602363 0.191339,1.21299 0.279921,1.83071 1.81299,12.4146 2.19331,27.7536 0.872835,46.7115l-0.418111 16.0583 160.386 -168.488 0.270473 0.253937c-5.27717,-30.1642 -4.73859,-59.5595 4.26142,-87.9485 2.77087,-8.78387 10.2626,-14.7709 18.7973,-16.0524 3.39803,-0.509056 6.9626,-0.272835 10.4599,0.831497 12.2823,3.8752 19.0973,16.9748 15.2221,29.2571 -20.4437,64.4835 41.9764,147.88 108.189,236.343z"/>
   </g>
  </g>
  <path class="fil2" d="M1024 0c565.539,0 1024,458.461 1024,1024 0,565.539 -458.461,1024 -1024,1024 -565.539,0 -1024,-458.461 -1024,-1024 0,-565.539 458.461,-1024 1024,-1024z"/>
  <polygon class="fil3" points="1150.33,576.919 1140.85,568.002 708.102,1022.61 1142.35,1481.4 1151.77,1472.44 722.141,1024.43 "/>
  <polygon class="fil4" points="687.57,1009.25 1531.97,1009.25 1531.97,1038.74 687.57,1038.74 "/>
  <polygon class="fil5" points="672.46,965.767 731.273,1024.58 673.628,1082.22 616.596,1082 677.138,1024.58 616.596,967.132 "/>
  <polygon class="fil4" points="1506.05,959.955 1560.52,1014.42 1570.1,1023.99 1560.52,1033.57 1506.05,1088.03 "/>
  <path class="fil6" d="M1189.86 1553.65c3.8752,12.2823 -2.93977,25.3819 -15.2221,29.2571 -12.2811,3.87638 -25.3819,-2.93858 -29.2571,-15.2209 -52.8851,-166.81 187.651,-355.49 180.993,-545.409 -6.43701,-183.664 -232.552,-379.347 -180.993,-541.969 3.8752,-12.2823 16.976,-19.0973 29.2571,-15.2209 12.2823,3.8752 19.0973,16.9748 15.2221,29.2571 -20.4437,64.4835 41.9764,147.88 108.189,236.343 69.7595,93.202 143.366,191.551 141.063,293.309 2.30315,101.758 -71.3032,200.108 -141.063,293.309 -66.2126,88.4635 -128.633,171.86 -108.189,236.343z"/>
  <path class="fil7" d="M1164.18 1583.74c-8.53465,-1.28032 -16.0264,-7.26733 -18.7973,-16.0512 -52.8851,-166.81 187.651,-355.49 180.993,-545.409 -6.43701,-183.664 -232.552,-379.347 -180.993,-541.969 2.77087,-8.78387 10.2626,-14.7709 18.7973,-16.05 0.950788,0.178347 1.9004,0.453544 2.84646,0.829134 9.74765,3.8752 15.1559,16.9748 12.0803,29.2571 -16.2248,64.4835 33.3142,147.88 85.8627,236.343 55.363,93.202 113.78,191.551 111.952,293.309 1.82835,101.758 -56.589,200.108 -111.952,293.309 -52.5485,88.4635 -102.087,171.86 -85.8627,236.343 3.07559,12.2823 -2.33268,25.3819 -12.0803,29.2571 -0.946064,0.375591 -1.89567,0.650788 -2.84646,0.830316z"/>
  <path class="fil8" d="M735.645 960.603c-3.39567,34.9937 33.2764,43.0512 74.1969,47.0256 40.9335,3.97796 50.8737,44.6469 54.2717,9.66024 0,0 11.5878,-107.391 14.5158,-211.028 0.993308,-35.1425 -2.15197,-59.2548 -43.0725,-63.2292 -40.9311,-3.97559 -88.7091,16.9772 -88.7091,52.1327 0,119.053 -11.2016,165.439 -11.2028,165.438z"/>
  <path class="fil9" d="M746.983 823.988c-3.61772,33.9685 65.6741,98.4048 119.394,99.8009l11.8949 -0.419292c53.7189,1.39488 98.4048,-41.0197 99.7985,-94.7422l2.81575 -108.196c7.58859,-108.989 -41.0126,-98.4036 -94.7351,-99.802l-36.5599 0.424016c-53.7142,-1.40197 -98.3942,41.0138 -99.7997,94.7398l-2.80866 108.195z"/>
  <path class="fil3" d="M747.328 810.827c-96.1761,-195.866 43.7126,-247.533 110.682,-236.092 203.587,8.46851 115.566,91.5473 122.003,98.9847 -197.877,-40.5414 -158.325,78.7453 -194.92,81.7134 -36.6071,2.96929 -12.2244,42.528 -37.7658,55.3937z"/>
  <path class="fil9" d="M734.685 772.208c0,18.0118 14.5925,32.6079 32.5985,32.6079 18.0071,0 32.6079,-14.5961 32.6079,-32.6079 -0.0011811,-18.0059 -14.5996,-32.6008 -32.6079,-32.6008 -18.0059,-0.0011811 -32.5985,14.5961 -32.5985,32.6008z"/>
  <path class="fil10" d="M746.79 809.728l0 0c-1.72087,-3.52677 -3.37087,-7.0193 -4.93465,-10.4539 1.56378,3.43701 3.21142,6.92363 4.93465,10.4539l0 0zm-5.00197 -10.5992c-0.00354331,-0.00944883 -0.0129921,-0.0307087 -0.0188977,-0.0401575 0.00590552,0.011811 0.0129921,0.0283465 0.0188977,0.0401575z"/>
  <path class="fil11" d="M746.921 824.646c0,-0.00354331 0.0011811,-0.00590552 0.0011811,-0.0129921 -0.0011811,0.00354331 0,0.0106299 0,0.0141732l-0.0011811 -0.0011811zm0.0165354 -0.200788c0,-0.0129921 0,-0.0188977 0.00354331,-0.0318898 -0.00354331,0.011811 -0.00354331,0.0188977 -0.00354331,0.0318898zm0.00590552 -0.0838583c0.00236221,-0.011811 0.00354331,-0.0248032 0.00354331,-0.0377953 -0.0011811,0.0129921 0,0.0259843 -0.00236221,0.0389764l-0.0011811 -0.0011811zm0.00944883 -0.0814961c0,-0.0271654 0.00354331,-0.0543308 0.00708662,-0.0767717 -0.00354331,0.0212599 -0.00708662,0.0507874 -0.00708662,0.0767717zm0.00944883 -0.115748c0.00354331,-0.0188977 0.00354331,-0.0354331 0.00708662,-0.0543308 -0.00354331,0.0153543 -0.00354331,0.0354331 -0.00590552,0.0543308l-0.0011811 0zm0.00944883 -0.0897638c0.00354331,-0.0283465 0.00708662,-0.056693 0.0106299,-0.0850394 -0.00354331,0.0271654 -0.00590552,0.056693 -0.0106299,0.0862205l0 -0.0011811zm0.351969 -13.2543l0 0c-0.179528,-0.364961 -0.354331,-0.721654 -0.533859,-1.09252l0 0c0.175984,0.36378 0.355512,0.728741 0.533859,1.09252z"/>
  <path class="fil9" d="M519.612 1034.82c-34.1138,14.5453 -49.9843,53.9811 -35.439,88.0961 14.5382,34.1103 49.6748,20.0008 83.7957,5.45906l228.467 -65.7556c34.1091,-14.5394 49.9748,-53.9835 35.4307,-88.0949 -14.5417,-34.1114 -53.9882,-49.9748 -88.089,-35.4366l-224.165 95.732z"/>
  <path class="fil12" d="M677.556 967.363l66.2209 -28.2792c34.1008,-14.5394 73.5473,1.3252 88.089,35.4366 14.5441,34.1114 -1.32165,73.5567 -35.4296,88.0961l-119.576 35.876 0.69567 -131.13z"/>
  <path class="fil9" d="M719.538 1206.72c23.4839,7.84961 33.7666,-5.87953 41.6103,-29.3658 7.85552,-23.4709 13.2791,-30.4299 -10.1976,-38.2784l-200.457 -74.191c-31.5284,-10.5354 -57.3567,-12.0295 -67.8934,19.5118 -10.539,31.539 -0.49252,61.7008 38.0162,76.18 47.7307,17.9563 198.921,46.1433 198.921,46.1433z"/>
  <path class="fil13" d="M532.219 1413.24c0.00354331,0 0.00472441,0 0.00708662,0 -0.00354331,0 -0.00236221,0 -0.00708662,0l0 0zm-0.0578741 0c-4.7563,-0.0259843 -9.15827,-3.10512 -10.6358,-7.89804l-0.0011811 0c1.47874,4.79174 5.88071,7.87323 10.6382,7.89804l-0.0011811 0zm3.36614 -0.504331l0 0c0.598819,-0.185433 1.17165,-0.414567 1.71142,-0.682678 -0.544489,0.26811 -1.11142,0.497244 -1.71142,0.682678l0 0zm1.73977 -0.700394c0.00590552,-0.00236221 0.0153543,-0.00472441 0.022441,-0.00826772 -0.00708662,0.00354331 -0.0153543,0.00590552 -0.022441,0.00944883l0 -0.0011811zm8.15079 -4.6252l0 0 -2.14016 -7.22717c0,0 0,0 0,0.00354331l2.14016 7.22363zm-39.4725 -108.632l0 0c0,0 -27.7418,-151.271 -28.0429,-202.267 0,-0.068504 0,-0.131102 0,-0.200788 0,0.0696851 0,0.133465 0,0.200788 0.3,50.9953 28.0429,202.267 28.0429,202.267l0 0zm-28.0429 -202.588c0,-0.022441 0,-0.0507874 0,-0.0732284 0,0.0259843 0,0.0484252 0,0.0732284zm41.0339 -61.0808c0.225591,-0.0992127 0.45,-0.197244 0.676772,-0.294095 -0.227953,0.0956694 -0.453544,0.194882 -0.676772,0.294095z"/>
  <path class="fil9" d="M786.436 1146.85c-0.398032,6.01772 4.1563,11.2134 10.1787,11.6091l40.2048 3.18544c6.00945,0.393307 11.211,-4.16929 11.6126,-10.1728 0.386221,-6.02126 -4.16221,-11.2193 -10.1776,-11.6221l-40.2048 -3.18071c-6.02245,-0.39567 -11.2122,4.15985 -11.6138,10.1811z"/>
  <path class="fil9" d="M773.043 1215.12c-0.405118,6.17363 4.27087,11.5146 10.4398,11.9221l41.1426 3.23622c6.17481,0.408662 11.5063,-4.26733 11.9126,-10.4327 0.411024,-6.18071 -4.27087,-11.5217 -10.4457,-11.928l-41.126 -3.23859c-6.17717,-0.403937 -11.5169,4.26615 -11.9232,10.441z"/>
  <path class="fil9" d="M784.947 1169.49c-0.431103,6.48071 4.47166,12.0874 10.9559,12.5162l42.9992 3.3626c6.48189,0.427559 12.0744,-4.49055 12.5126,-10.9654 0.429922,-6.4878 -4.47284,-12.0839 -10.9642,-12.5221l-42.9922 -3.3626c-6.48544,-0.426378 -12.0969,4.47756 -12.5114,10.9713z"/>
  <path class="fil9" d="M781.152 1192.82c-0.431103,6.48308 4.47756,12.0921 10.9642,12.515l42.9851 3.36378c6.48189,0.427559 12.0921,-4.48347 12.5162,-10.9665 0.431103,-6.48308 -4.47048,-12.091 -10.9606,-12.515l-42.9922 -3.36851c-6.48544,-0.426378 -12.0886,4.48111 -12.5126,10.9713z"/>
  <path class="fil9" d="M812.586 1139.25c0,0 -15.9343,-9.92481 -21.9047,-11.615 -36.5646,-10.402 -68.6493,23.9398 -70.3004,48.8646 -2.46024,37.3394 31.6819,49.291 56.6245,50.9386l17.6386 0.314173 17.9421 -88.5024z"/>
  <path class="fil14" d="M821.182 1173.1c1.39252,-3.6378 -0.418111,-7.70197 -4.04882,-9.09213 -0.552756,-0.210236 -1.11496,-0.348425 -1.6748,-0.412205 -0.488977,3.4004 -1.37126,6.73229 -2.60079,9.94371 -0.429922,1.12087 -0.902363,2.23229 -1.41496,3.32008 0.212599,0.106299 0.431103,0.20315 0.657875,0.290551 3.63071,1.39016 7.69253,-0.425197 9.0815,-4.05z"/>
  <path class="fil14" d="M822.664 1150.84c0.393307,-1.02874 0.553937,-2.16732 0.416929,-3.3378 -0.45,-3.86103 -3.94961,-6.62008 -7.81182,-6.16772 -0.79252,0.090945 -1.54488,0.314173 -2.22756,0.648426 0.682678,1.50945 1.19646,3.09803 1.58032,4.70433 0.494882,1.90866 0.779528,3.8563 0.987402,5.80985 0.0779528,0.956694 0.162992,1.90512 0.222047,2.86063 0.356693,0.0106299 0.721654,-0.0011811 1.08425,-0.0389764 2.68819,-0.316536 4.84252,-2.11063 5.74843,-4.47874z"/>
  <path class="fil15" d="M808.7 1136.89c1.69016,0.98504 2.61496,2.79449 3.3378,4.51063 0.69567,1.77165 1.14213,3.63425 1.40669,5.52402 0.294095,1.88386 0.411024,3.79134 0.533859,5.6941 0.0448819,1.90748 0.119291,3.83977 -0.0507874,5.70355 -0.282284,3.75237 -1.15394,7.46812 -2.3315,11.0504 -1.17165,3.58583 -2.72362,7.05945 -4.71378,10.2295 -1.98898,3.1252 -4.40906,6.11575 -7.40434,7.91103 -1.46811,0.922442 -3.07087,1.46693 -4.63583,1.39134 -0.381496,-0.056693 -0.777166,-0.0578741 -1.15039,-0.187795l-0.507874 -0.13937 -0.673229 -0.27874c-0.579922,-0.279921 -1.27677,-0.779528 -1.71969,-1.35591 -0.954331,-1.1752 -1.35236,-2.85945 -1.34764,-4.60512 0,-1.74921 0.366142,-3.56103 0.908268,-5.31615 1.09843,-3.51378 2.81339,-6.93544 5.09764,-9.90355l0.0141732 -0.0177165c0.325985,-0.425197 0.250394,-1.03701 -0.175984,-1.36063 -0.349607,-0.266929 -0.82441,-0.259843 -1.16575,-0.0106299 -0.620079,0.458268 -1.45276,0.902363 -2.24528,1.26614 -0.820867,0.344882 -1.65709,0.667323 -2.53229,0.878741 -1.73977,0.445276 -3.54331,0.67441 -5.37166,0.66378 -0.907087,-0.0661418 -1.83189,-0.0720473 -2.73307,-0.252756 -0.916536,-0.115748 -1.81063,-0.341339 -2.70591,-0.584646 -1.78937,-0.497244 -3.52205,-1.20236 -5.22874,-2.00315 1.58977,0.999213 3.23504,1.96063 5.02205,2.61378 0.894095,0.333071 1.79764,0.654331 2.73307,0.863386 0.922442,0.276378 1.88386,0.37441 2.83937,0.529134 0.96378,0.0720473 1.93465,0.153543 2.90906,0.0992127 0.969686,-0.0259843 1.95,-0.153543 2.90197,-0.356693 0.967324,-0.178347 1.90866,-0.474804 2.83937,-0.809056 0.93189,-0.370866 1.79882,-0.751182 2.72599,-1.35236l-1.32638 -1.3937c-2.5878,3.04607 -4.70315,6.51024 -6.01536,10.3524 -0.630709,1.92638 -1.09134,3.9437 -1.13976,6.06851 -0.0377953,2.09764 0.36378,4.43268 1.83189,6.33898 0.746457,0.951969 1.62402,1.66772 2.78032,2.23701l0.66378 0.284646c0.38504,0.145276 0.583465,0.19252 0.882284,0.287008 0.543308,0.184252 1.13268,0.227953 1.70551,0.303544 2.3315,0.158268 4.55079,-0.602363 6.36024,-1.72087 3.62835,-2.29961 6.11457,-5.61378 8.20749,-9.00355 4.07126,-6.87756 6.48189,-14.661 6.66378,-22.6347 0.0673229,-2.00906 -0.116929,-3.94607 -0.279921,-5.90552 -0.207874,-1.95236 -0.491339,-3.90118 -0.987402,-5.80985 -0.457087,-1.91221 -1.0937,-3.79725 -1.9878,-5.55827 -0.885827,-1.72323 -2.1189,-3.47481 -3.93425,-4.24016z"/>
  <path class="fil15" d="M809.306 1205.67c0,0 -0.811418,-0.383859 -2.30906,-0.853938 -1.50236,-0.432284 -3.67441,-1.08898 -6.40749,-1.34291 -1.35827,-0.15 -2.86654,-0.174803 -4.47048,-0.0295276 -1.58977,0.204331 -3.33662,0.49252 -4.99725,1.37126 -1.68662,0.762993 -3.25866,2.15669 -4.29803,3.87874l-0.696851 1.34646c-0.296457,0.628347 -0.316536,0.897638 -0.487796,1.36181 -0.308268,0.767717 -0.472441,1.86969 -0.65315,2.87481 -0.16063,2.00315 0.15,4.09134 1.02165,5.91497 0.818505,1.87323 2.30669,3.23859 3.73583,4.32874 1.45512,1.1185 3.06378,1.76575 4.5626,2.31496 1.51417,0.525591 2.97756,0.84567 4.33111,1.0441 2.70591,0.431103 4.97244,0.344882 6.53032,0.318898 1.56851,-0.0956694 2.45433,-0.194882 2.45433,-0.194882 0,0 -0.887009,-0.165354 -2.42126,-0.383859 -1.52717,-0.22441 -3.69803,-0.677953 -6.19016,-1.40315 -1.24843,-0.36378 -2.55591,-0.848032 -3.87992,-1.4374 -1.30158,-0.627166 -2.64449,-1.35118 -3.78544,-2.32559 -1.14213,-0.962599 -2.17087,-2.11536 -2.7437,-3.47717 -0.602363,-1.3441 -0.800788,-2.86299 -0.661418,-4.39607 0.16063,-1.35591 0.646063,-3.28347 1.35236,-4.43268 0.748819,-1.2437 1.73032,-2.35866 3.05788,-3.03071 2.54764,-1.49173 5.63268,-1.8189 8.18741,-1.94764 2.59016,-0.0874016 4.80827,0.0295276 6.34016,0.209055 1.54134,0.16063 2.42835,0.290551 2.42835,0.291733z"/>
  <path class="fil15" d="M826.424 1207.51c0,0 -2.44843,-0.435827 -6.12402,-1.0937 -3.63189,-0.656693 -8.46969,-1.47638 -13.0358,-2.86299 -1.15748,-0.318898 -2.2689,-0.718111 -3.34016,-1.14213 -1.04055,-0.477166 -2.1,-0.889371 -2.99882,-1.46339 -1.85788,-1.07244 -3.26339,-2.43898 -3.99449,-3.93189 -0.386221,-0.732284 -0.614174,-1.49291 -0.715749,-2.19213 -0.159449,-0.703938 -0.105118,-1.33937 -0.144095,-1.87323 0.080315,-1.08425 0.122835,-1.70433 0.122835,-1.70433 -0.0011811,0.0011811 -0.291733,0.548032 -0.705119,1.60039 -0.126378,0.543308 -0.39567,1.20236 -0.409843,2.01732 -0.0885827,0.800788 -0.0496063,1.76221 0.252756,2.74961 0.506693,2.03386 2.09764,4.08544 4.14922,5.50985 2.0315,1.50591 4.4752,2.5063 6.92245,3.26929 4.93583,1.46929 10.011,1.79882 13.7728,1.71614 3.76772,-0.068504 6.24804,-0.598819 6.24804,-0.598819z"/>
  <path class="fil15" d="M833.845 1185c0,0 -1.55079,-0.960237 -4.04055,-1.90276 -2.48504,-0.964961 -5.90434,-1.93583 -9.44174,-2.40236 -1.77165,-0.19252 -3.5563,-0.36378 -5.25,-0.28937 -1.6878,0.0236221 -3.27992,0.209055 -4.61221,0.56693 -0.670867,0.124016 -1.27205,0.337796 -1.79173,0.562205 -0.525591,0.199606 -0.969686,0.381496 -1.30748,0.62126 -0.683859,0.435827 -1.03347,0.698032 -1.03347,0.698032 0,0 0.442914,-0.0496063 1.2189,-0.138189 0.753544,-0.0767717 1.82126,-0.122835 3.09685,-0.0519685 2.53465,0.0992127 5.89843,0.512599 9.29174,0.970867 3.39331,0.431103 6.82441,0.889371 9.44528,1.11496 2.61142,0.248032 4.42441,0.250394 4.42441,0.250394z"/>
  <path class="fil15" d="M837.023 1161.62c0,0 -1.31929,-0.668504 -3.36024,-1.26614 -2.03858,-0.616536 -4.79055,-1.18583 -7.58386,-1.45866 -2.79449,-0.255118 -5.61378,-0.258662 -7.76457,0.0661418 -2.14252,0.209055 -3.54803,0.987402 -3.5067,0.924804 0,0 0.356693,0.0850394 0.98504,0.232677 0.6,0.100394 1.43504,0.314173 2.47323,0.548032 1.01693,0.207874 2.20748,0.447638 3.49252,0.65315 1.28268,0.210236 2.65984,0.364961 4.03701,0.526772 2.75906,0.250394 5.55237,0.32126 7.66654,0.190158 2.11417,-0.101575 3.56103,-0.416929 3.56103,-0.416929z"/>
  <path class="fil14" d="M815.868 1195.85c1.38898,-3.62835 -0.432284,-7.71379 -4.05945,-9.10276 -3.62362,-1.38662 -7.69725,0.440552 -9.08623,4.0689 -1.38898,3.62481 0.425197,7.70079 4.04764,9.08741 3.62835,1.39016 7.70906,-0.42874 9.09804,-4.05355z"/>
  <path class="fil16" d="M835.825 1223.11c0.0011811,-0.00354331 0.00236221,-0.00472441 0.00236221,-0.00708662 0.387402,-1.02047 0.637796,-2.1189 0.709843,-3.26339l0 0c0.0413386,-0.625985 0.0307087,-1.23898 -0.0259843,-1.84252 -0.00354331,-0.0106299 -0.00236221,-0.0212599 -0.00472441,-0.0318898 -0.0011811,-0.00708662 0,-0.0177165 -0.0011811,-0.0248032 -0.520867,-5.02559 -4.41851,-9.10985 -9.49961,-9.87284l0.583465 0.046063c-0.00354331,-0.0011811 -0.00354331,-0.0011811 -0.00354331,-0.0011811l-3.40748 -0.269292c-1.0441,0.119291 -2.40591,0.233858 -4.00276,0.262205 -3.6874,0.0814961 -8.62914,-0.231496 -13.4752,-1.62874l-7.6252 -0.595276 -0.420473 2.08937c1.57559,-0.399213 3.28347,-0.333071 4.91457,0.290551 4.2189,1.61575 6.32245,6.33544 4.70906,10.5484 -1.61339,4.20945 -6.33308,6.32599 -10.552,4.71024 -0.733465,-0.281103 -1.40315,-0.656693 -1.99961,-1.10787l-0.488977 2.40827c1.2874,0.568111 2.55827,1.03347 3.77244,1.38898 2.49213,0.725197 4.66418,1.17756 6.19016,1.40315 1.53425,0.219685 2.42126,0.383859 2.42126,0.383859 0,0 -0.884646,0.0980316 -2.45433,0.194882 -1.55788,0.0259843 -3.82323,0.111024 -6.53032,-0.318898 -1.20827,-0.174803 -2.50158,-0.45 -3.83977,-0.879922l-0.153543 0.755906 -2.67874 -0.0484252 32.6599 2.57244c5.00433,0.333071 9.45591,-2.67638 11.1803,-7.11024 0.00708662,-0.0177165 0.0141732,-0.0354331 0.0200788,-0.0519685z"/>
  <path class="fil16" d="M835.101 1208.7l-34.8969 -8.37402 -0.0307087 0.151181c0.240945,0.16063 0.491339,0.317717 0.751182,0.467717 0.897638,0.574016 1.95827,0.986221 2.99882,1.46339 1.07126,0.424016 2.18386,0.823229 3.34016,1.14213 4.56615,1.3878 9.40394,2.2063 13.0358,2.86299 3.67559,0.659056 6.12402,1.0937 6.12402,1.0937 0,0 -0.823229,0.177165 -2.24528,0.336614l3.40748 0.269292 7.51536 0.587008zm-28.402 -2.22402c-0.0992127,-0.0271654 -0.199606,-0.0555119 -0.296457,-0.0862205 -1.14331,-0.355512 -2.28543,-0.765355 -3.38504,-1.25197 -0.774804,-0.00826772 -1.60748,-0.00354331 -2.48032,0.0248032 -0.429922,0.0248032 -0.876379,0.0472441 -1.33228,0.0885827l-0.129921 0.630709 7.62402 0.594095zm-6.83032 -3.07677c-0.0874016,-0.0578741 -0.170079,-0.116929 -0.252756,-0.178347l-0.0307087 0.159449c0.0944883,0.00472441 0.186614,0.011811 0.283465,0.0188977z"/>
  <path class="fil17" d="M807.622 1228c0,0 -0.887009,-0.165354 -2.42126,-0.383859 -1.52717,-0.22441 -3.69803,-0.677953 -6.19016,-1.40315 -1.21536,-0.354331 -2.48504,-0.820867 -3.77126,-1.38898 -0.0377953,-0.0177165 -0.0720473,-0.034252 -0.108662,-0.0484252 -1.30158,-0.627166 -2.64449,-1.35118 -3.78544,-2.32559 -1.14213,-0.962599 -2.17087,-2.11536 -2.7437,-3.47717 -0.602363,-1.3441 -0.800788,-2.86299 -0.661418,-4.39607 0.113386,-0.964961 0.389764,-2.21339 0.793701,-3.26811 0.165354,-0.433465 0.35315,-0.832678 0.558662,-1.16457 0.748819,-1.2437 1.73032,-2.35866 3.05788,-3.03071 2.11536,-1.24016 4.6063,-1.6748 6.85512,-1.85906 0.455906,-0.0413386 0.903544,-0.0649607 1.33228,-0.0885827 0.872835,-0.0271654 1.70551,-0.034252 2.48032,-0.0248032 -1.10787,-0.488977 -2.17087,-1.05945 -3.14882,-1.73858 -0.0968505,-0.00590552 -0.188977,-0.0141732 -0.282284,-0.0200788 -1.08543,-0.0661418 -2.25,-0.0543308 -3.46772,0.0578741 -1.58977,0.204331 -3.33662,0.49252 -4.99725,1.37126 -1.68662,0.762993 -3.25866,2.15669 -4.29803,3.87874l-0.696851 1.34646c-0.0732284,0.157087 -0.129921,0.291733 -0.175984,0.414567 -0.138189,0.361418 -0.18189,0.6 -0.311811,0.947245 -0.00826772,0.0212599 -0.0141732,0.0389764 -0.0212599,0.056693 -0.294095,0.766536 -0.453544,1.83662 -0.63189,2.81811 -0.16063,2.00315 0.15,4.09134 1.02165,5.91497 0.818505,1.87323 2.30669,3.23859 3.73583,4.32874 1.45512,1.1185 3.06378,1.76575 4.5626,2.31496 0.165354,0.056693 0.329528,0.113386 0.491339,0.164173 1.33819,0.431103 2.63268,0.703938 3.83977,0.879922 2.70591,0.431103 4.97244,0.344882 6.53032,0.318898 1.56851,-0.0956694 2.45433,-0.194882 2.45433,-0.194882z"/>
  <path class="fil17" d="M826.424 1207.51c0,0 -2.44843,-0.435827 -6.12402,-1.0937 -3.63189,-0.656693 -8.46969,-1.47638 -13.0358,-2.86299 -1.15748,-0.318898 -2.2689,-0.718111 -3.34016,-1.14213 -1.04055,-0.477166 -2.1,-0.889371 -2.99882,-1.46339 -0.259843,-0.15 -0.510237,-0.307087 -0.750001,-0.467717 -0.124016,-0.080315 -0.242126,-0.16063 -0.357874,-0.245669l-3.81614 -0.915355c0.767717,1.43268 2.00197,2.78032 3.47953,3.80433 0.0437008,0.034252 0.0897638,0.068504 0.135827,0.100394 0.0826772,0.0614174 0.166536,0.121654 0.252756,0.178347 0.977954,0.679134 2.04213,1.24961 3.14882,1.73858 1.09961,0.486615 2.24173,0.896457 3.38504,1.25197 0.0956694,0.0307087 0.198425,0.0590552 0.297638,0.0874016 4.84607,1.39725 9.7878,1.71024 13.4752,1.62874 1.59567,-0.0283465 2.95866,-0.142913 4.00276,-0.262205 1.42205,-0.159449 2.24528,-0.336614 2.24528,-0.336614z"/>
  <path class="fil18" d="M808.277 1218.81c1.61339,-4.213 -0.488977,-8.93268 -4.70788,-10.5484 -1.6311,-0.623623 -3.33898,-0.689764 -4.91339,-0.291733l-2.92914 14.4437c0.596457,0.45 1.26614,0.825591 1.99961,1.10669 4.2189,1.61575 8.93977,-0.500788 10.5508,-4.71024z"/>
  <path class="fil18" d="M795.727 1222.42l2.92796 -14.4425c-2.48977,0.628347 -4.6441,2.41772 -5.63268,4.99725 -1.3311,3.47481 -0.124016,7.30749 2.70473,9.44528z"/>
  <path class="fil19" d="M691.249 1322.73c-4.72205,-0.800788 -9.44292,-1.60276 -14.1721,-2.40355 7.3689,-53.2347 60.0603,-406.713 65.9658,-417.309 1.42087,-5.5193 20.6587,34.9099 127.136,48.7453 29.6256,30.313 48.73,65.9989 61.5083,112.436 15.0213,54.58 -12.9413,284.77 -14.2181,297.357 -83.3871,-11.3717 -140.094,-24.176 -226.22,-38.8264z"/>
  <path class="fil20" d="M981.813 1182l0.00472441 -0.00708662c-14.9469,-8.55591 -28.4622,-16.6205 -38.3422,-23.4508l-0.0011811 0c9.87875,6.83032 23.3988,14.9055 38.341,23.4532l-0.00236221 0.00472441z"/>
  <path class="fil21" d="M775.068 1337.78l40.2284 -174.131 -22.8118 -36.0213 -51.6426 -81.528c-6.95552,-11.0043 -10.2756,-23.2725 -10.2756,-35.3941l0 -0.0011811c0.00354331,-21.9792 10.9217,-43.48 30.874,-56.1 0.11811,-0.0779528 0.236221,-0.15 0.357874,-0.22441 0.0129921,-0.00826772 0.0283465,-0.0188977 0.0413386,-0.0271654 10.8957,-6.78544 23.002,-10.0252 34.9736,-10.0287 0.00236221,0 0.00944883,0 0.0129921,0l0 0c0.00826772,0 0.0188977,0 0.0248032,0 21.5421,0.00944883 42.6201,10.5071 55.3288,29.7095 0.0437008,0.0661418 0.0862205,0.131102 0.131102,0.197244 0.0318898,0.0472441 0.0602363,0.0968505 0.0921261,0.144095 0.00590552,0.00708662 0.0106299,0.0165354 0.0165354,0.022441 0.0531496,0.0862205 0.111024,0.172441 0.168898,0.258662 0.114567,0.18189 0.230315,0.360236 0.344882,0.542126l7.25552 15.1228 9.98977 -38.5618c-99.7513,-12.9614 -122.937,-49.2591 -126.636,-49.2591 -0.248032,0 -0.411024,0.166536 -0.500788,0.51378l-65.9658 417.309 97.9914 17.4579z"/>
  <path class="fil9" d="M941.546 1214.57c29.2831,21.9921 70.8556,16.0902 92.8489,-13.2036 21.9957,-29.2736 -9.61536,-56.4402 -38.9032,-78.4453l-166.888 -158.855c-29.2843,-21.9886 -70.8485,-16.0854 -92.8465,13.2024 -21.9957,29.2866 -16.0784,70.8508 13.2012,92.8513l192.587 144.45z"/>
  <path class="fil22" d="M826.457 1129.74l-78.6461 -58.9878c-29.8264,-22.4114 -35.8524,-64.7516 -13.4469,-94.5851 22.4091,-29.8358 64.7504,-35.8488 94.5816,-13.4492l63.6048 60.5445c-18.2197,40.4965 -47.876,65.98 -66.0934,106.478z"/>
  <path class="fil9" d="M1203.39 1271.82c48.6591,3.66969 32.028,-5.57126 40.2154,-31.5839 8.17796,-26.0032 16.2366,-35.4402 -9.77363,-43.624l-225.656 -81.5823c-34.9347,-10.9866 -62.1674,-6.68623 -73.1564,28.2496 -10.9902,34.9299 0.661418,67.9571 43.3559,83.1603 52.9111,18.8362 225.013,45.3803 225.014,45.3803z"/>
  <path class="fil23" d="M867.877 1246.66c-0.00590552,-0.011811 -0.0129921,-0.0248032 -0.0188977,-0.0377953l-52.5615 -82.9784 0 0.00354331 52.5804 83.0127z"/>
  <path class="fil24" d="M815.297 1163.65l0 -0.00354331 -22.8118 -36.0177c0,0 0,0.0011811 0,0.0011811l-51.6426 -81.5292c-6.95552,-11.0043 -10.2756,-23.2725 -10.2756,-35.3941 0,12.1217 3.32008,24.3898 10.2768,35.3941l51.6414 81.528 22.8118 36.0213z"/>
  <path class="fil9" d="M1277.88 1208c-0.318898,6.63308 4.79882,12.2728 11.4354,12.5929l50.9244 1.76575c6.63189,0.318898 12.2705,-4.79528 12.587,-11.4295 0.324803,-6.63308 -4.79292,-12.2681 -11.4307,-12.5953l-39.5705 -1.91103c-6.63189,-0.320079 -23.6209,4.94646 -23.9457,11.5772z"/>
  <path class="fil9" d="M1264.45 1283.45c-0.327166,6.81142 4.92284,12.5917 11.7319,12.926l51.9556 1.81417c6.80552,0.328347 12.5941,-4.92638 12.9213,-11.7284 0.33189,-6.8067 -4.92402,-12.5906 -11.7307,-12.9225l-51.9532 -1.81772c-6.81142,-0.325985 -12.5941,4.92166 -12.9248,11.7284z"/>
  <path class="fil9" d="M1276.67 1232.96c-0.34252,7.14804 5.17441,13.2272 12.3236,13.5744l54.0024 1.91221c7.15512,0.349607 13.2248,-5.16733 13.5685,-12.3154 0.346063,-7.15276 -5.16496,-13.2295 -12.3177,-13.5768l-54.0012 -1.91339c-7.1504,-0.348425 -13.2272,5.17087 -13.5756,12.3189z"/>
  <path class="fil9" d="M1272.95 1258.74c-0.348425,7.14804 5.16969,13.2225 12.3177,13.5709l54.0012 1.91575c7.1504,0.346063 13.2284,-5.16969 13.5709,-12.3177 0.349607,-7.15512 -5.16851,-13.2295 -12.3189,-13.5756l-54 -1.91929c-7.15158,-0.34252 -13.2319,5.17678 -13.5709,12.326z"/>
  <path class="fil9" d="M1309.03 1196.78c0,0 -23.9091,-14.1921 -30.5114,-15.9425 -37.487,0.350788 -75.5481,32.8359 -76.8721,60.326 -1.98898,41.1697 35.8548,53.6693 63.3437,54.9969l17.2866 0.562205 26.7532 -99.9426z"/>
  <path class="fil15" d="M1330.94 1273.93c0,0 -0.761812,-0.125197 -2.09173,-0.275197 -1.33583,-0.080315 -3.22087,-0.48189 -5.4815,-0.722835 -1.12441,-0.124016 -2.34567,-0.259843 -3.63662,-0.401575 -1.28858,-0.0968505 -2.64449,-0.314173 -4.05473,-0.494882 -2.80748,-0.398032 -5.81339,-0.709843 -8.81575,-1.02992 -3.01772,-0.184252 -6.00473,-0.629528 -8.82284,-0.977954 -2.81339,-0.343701 -5.45552,-0.602363 -7.72914,-0.770079 -4.55197,-0.327166 -7.64056,-0.351969 -7.64056,-0.351969 -0.0011811,0 2.9126,0.93189 7.36064,2.03504 2.22402,0.54567 4.83426,1.12441 7.6441,1.67599 2.80394,0.598819 5.81693,1.08662 8.86654,1.33819 3.04488,0.261024 6.08623,0.531496 8.94568,0.679134 2.84764,0.237402 5.55945,0.0578741 7.84725,-0.00590552 4.59567,-0.142913 7.60867,-0.698032 7.60867,-0.698032z"/>
  <path class="fil15" d="M1341.95 1248.19c0,0 -2.85118,-0.855119 -7.17284,-1.74803 -2.15551,-0.47126 -4.69489,-0.885827 -7.37599,-1.49528 -2.68937,-0.581103 -5.56654,-1.08898 -8.44135,-1.60512 -5.76497,-0.961418 -11.5665,-1.69016 -15.9591,-2.04685 -4.38898,-0.381496 -7.37599,-0.376772 -7.37599,-0.376772 0,-0.0011811 2.79803,0.976772 7.07953,2.05748 4.27677,1.10079 10.0394,2.31851 15.8398,3.30355 2.90315,0.458268 5.8063,0.922442 8.53701,1.25315 2.72717,0.399213 5.29725,0.50315 7.49882,0.596457 4.40552,0.191339 7.37008,0.0625985 7.37008,0.0614174z"/>
  <path class="fil15" d="M1342.8 1222.29c0,0 -2.85236,-0.853938 -7.17402,-1.74685 -2.15788,-0.473622 -4.69843,-0.88819 -7.37953,-1.49646 -2.68465,-0.578741 -5.56182,-1.0878 -8.44016,-1.60512 -5.76142,-0.960237 -11.5642,-1.68898 -15.9591,-2.04331 -4.39134,-0.382677 -7.37363,-0.379134 -7.37363,-0.379134 0,0 2.79331,0.976772 7.07835,2.05512 4.27796,1.10315 10.0406,2.32087 15.841,3.30591 2.90315,0.453544 5.80394,0.921261 8.53701,1.25433 2.72835,0.398032 5.29489,0.499607 7.49882,0.590552 4.40315,0.193701 7.37127,0.0649607 7.37127,0.0649607z"/>
  <path class="fil15" d="M1309.03 1196.78c0,0 -2.03622,-0.646063 -5.09174,-1.29449 -3.05433,-0.675591 -7.14213,-1.33583 -11.2193,-1.94055 -2.04095,-0.262205 -4.08544,-0.522048 -5.99764,-0.766536 -1.91457,-0.225591 -3.70276,-0.441733 -5.23465,-0.622441 -1.56732,-0.109843 -2.77441,-0.426378 -3.70512,-0.523229 -0.927166,-0.113386 -1.45866,-0.175984 -1.45866,-0.175984 0,-0.0011811 0.43937,0.277559 1.25079,0.729922 0.814961,0.408662 1.99725,1.17047 3.50079,1.62165 1.49291,0.510237 3.26221,1.15748 5.1815,1.5437 1.91693,0.453544 3.98504,0.844489 6.05315,1.1315 4.14685,0.587008 8.32442,0.760631 11.4685,0.689764 3.14528,-0.0496063 5.25237,-0.392126 5.25237,-0.393307z"/>
  <path class="fil10" d="M1143.68 1262.01c4.30866,0.741733 8.48505,1.45276 12.4784,2.12953 -0.0011811,-0.00236221 -0.0011811,-0.00236221 -0.0011811,-0.00236221 -4.00158,-0.67441 -8.16024,-1.38307 -12.476,-2.12599l-0.0011811 -0.0011811zm30.2244 17.6622l0 0c0.522048,0.196063 1.04291,0.38504 1.56969,0.56693 -0.525591,-0.179528 -1.04764,-0.369685 -1.56969,-0.56693l0 0zm1.57441 0.565748c0.0212599,0.0106299 0.0437008,0.0177165 0.0673229,0.0248032 -0.0236221,-0.00826772 -0.0448819,-0.0165354 -0.068504,-0.0236221l0.0011811 -0.0011811zm0.0874016 0.0295276c0.0188977,0.00826772 0.034252,0.0141732 0.0531496,0.022441 -0.0177165,-0.00826772 -0.034252,-0.0141732 -0.0531496,-0.0212599l0 -0.0011811zm0.0862205 0.0330709c0.0141732,0.00354331 0.0259843,0.00944883 0.0389764,0.0129921 -0.0106299,-0.00590552 -0.0248032,-0.00944883 -0.0377953,-0.0129921l-0.0011811 0zm0.0814961 0.0271654c0.0106299,0.00236221 0.0200788,0.00708662 0.0295276,0.00944883 -0.00826772,-0.00354331 -0.0188977,-0.00708662 -0.0295276,-0.00826772l0 -0.0011811zm0.090945 0.0283465c0.0011811,0.0011811 0.00236221,0.00236221 0.00354331,0.00472441 -0.00236221,-0.00354331 -0.0011811,-0.00236221 -0.00472441,-0.00472441l0.0011811 0zm83.8713 15.4181c1.79646,0.177165 3.56693,0.303544 5.29489,0.387402l17.2866 0.562205 -17.2866 -0.562205c-1.72795,-0.0850394 -3.49843,-0.209055 -5.29489,-0.387402z"/>
  <path class="fil25" d="M1282.67 1268.91c0,0 2.56536,0.820867 6.55867,1.83543 0.261024,0.0637796 0.527953,0.129921 0.80315,0.199606 2.22402,0.54567 4.83426,1.12441 7.6441,1.67599 0.255118,0.0519685 0.516142,0.10748 0.772442,0.16063 2.58071,0.525591 5.31969,0.949607 8.0941,1.17756 3.04488,0.261024 6.08623,0.531496 8.94568,0.679134 2.84764,0.237402 5.55945,0.0578741 7.84725,-0.00590552 4.49764,-0.141732 7.47875,-0.675591 7.60394,-0.698032 0.00472441,0 0.00472441,0 0.00472441,0 0,0 -0.761812,-0.125197 -2.09173,-0.275197 -1.33583,-0.080315 -3.22087,-0.48189 -5.4815,-0.722835 -1.12441,-0.124016 -2.34567,-0.259843 -3.63662,-0.401575 -1.28858,-0.0968505 -2.64449,-0.314173 -4.05473,-0.494882 -2.80748,-0.398032 -5.81339,-0.709843 -8.81575,-1.02992 -3.01772,-0.184252 -6.00473,-0.629528 -8.82284,-0.977954 -2.81339,-0.343701 -5.45552,-0.602363 -7.72914,-0.770079 -0.229134,-0.0165354 -0.452363,-0.0318898 -0.670867,-0.0472441 -4.18229,-0.283465 -6.96969,-0.304725 -6.97087,-0.304725z"/>
  <path class="fil26" d="M1302.53 1221.06l30.4276 1.05473c-0.00354331,0 -0.00944883,0 -0.0153543,-0.0011811l-30.0957 -1.04528 -0.316536 -0.00826772zm36.6225 1.26969l1.08189 0.0366142 -1.08189 -0.0366142c0,0 0,0 0,0z"/>
  <path class="fil27" d="M1302.85 1221.06l30.0957 1.04528c-0.994489,-0.0555119 -2.04213,-0.127559 -3.12166,-0.242126l-26.974 -0.80315zm36.3059 1.26142l1.08189 0.0366142c0.548032,0.0259843 1.08898,0.00472441 1.62165,-0.0496063 -0.628347,0.0141732 -1.54843,0.0248032 -2.70355,0.0129921z"/>
  <path class="fil28" d="M1329.82 1221.87c1.07835,0.114567 2.1248,0.187795 3.12047,0.242126 0.00590552,0.0011811 0.011811,0.0011811 0.0153543,0.0011811l6.19489 0.214961c0,0 0,0 0,0 1.15512,0.0106299 2.0752,0.0011811 2.70355,-0.0129921 0.188977,-0.0188977 0.377953,-0.0401575 0.563386,-0.0661418l0.377953 0.0413386 -0.274016 -0.0437008 -12.7016 -0.376772z"/>
  <polygon class="fil29" points="677.077,1320.32 917.469,1361.55 937.933,1584 773.869,1584 767.332,1537.33 746.525,1584 595.222,1584 "/>
 </g>
</svg>
