<?xml version="1.0" encoding="UTF-8"?>
<!DOCTYPE svg PUBLIC "-//W3C//DTD SVG 1.1//EN" "http://www.w3.org/Graphics/SVG/1.1/DTD/svg11.dtd">
<!-- Creator: CorelDRAW -->
<svg xmlns="http://www.w3.org/2000/svg" xml:space="preserve" width="2048px" height="2048px" style="shape-rendering:geometricPrecision; text-rendering:geometricPrecision; image-rendering:optimizeQuality; fill-rule:evenodd; clip-rule:evenodd"
viewBox="0 0 2048 2048"
 xmlns:xlink="http://www.w3.org/1999/xlink">
 <defs>
  <style type="text/css">
   <![CDATA[
    .fil2 {fill:none}
    .fil3 {fill:#212121}
    .fil1 {fill:#7CB342}
    .fil0 {fill:#AED581}
    .fil7 {fill:#656565;fill-rule:nonzero}
    .fil6 {fill:#757575;fill-rule:nonzero}
    .fil5 {fill:#A81D1D;fill-rule:nonzero}
    .fil4 {fill:#B71C1C;fill-rule:nonzero}
   ]]>
  </style>
   <clipPath id="id0">
    <path d="M1024 0c565.539,0 1024,458.461 1024,1024 0,565.539 -458.461,1024 -1024,1024 -565.539,0 -1024,-458.461 -1024,-1024 0,-565.539 458.461,-1024 1024,-1024z"/>
   </clipPath>
 </defs>
 <g id="Layer_x0020_1">
  <metadata id="CorelCorpID_0Corel-Layer"/>
  <path class="fil0" d="M1024 0c565.539,0 1024,458.461 1024,1024 0,565.539 -458.461,1024 -1024,1024 -565.539,0 -1024,-458.461 -1024,-1024 0,-565.539 458.461,-1024 1024,-1024z"/>
  <g style="clip-path:url(#id0)">
   <g id="_478220560">
    <g>
     <polygon id="_3968123921" class="fil1" points="1120.52,494.345 2256.4,1630.23 2254.72,1636.33 2253.52,1642.54 2252.77,1648.85 2252.46,1655.27 2252.58,1661.79 2253.12,1668.4 2254.05,1675.12 2255.37,1681.92 2257.06,1688.82 2259.1,1695.8 2261.48,1702.87 2264.19,1710.02 2267.21,1717.25 2270.53,1724.56 2274.13,1731.95 2278,1739.41 2282.12,1746.94 2286.48,1754.53 2291.07,1762.19 2295.87,1769.92 2300.86,1777.7 2306.04,1785.54 2311.38,1793.44 2316.88,1801.39 2322.51,1809.39 2328.27,1817.44 2334.13,1825.53 2340.09,1833.66 2346.13,1841.84 2352.24,1850.05 2358.4,1858.29 2364.59,1866.57 1228.71,730.688 1222.52,722.41 1216.36,714.165 1210.25,705.954 1204.21,697.779 1198.25,689.645 1192.39,681.553 1186.63,673.506 1181,665.508 1175.5,657.558 1170.16,649.661 1164.98,641.82 1159.99,634.035 1155.19,626.311 1150.6,618.65 1146.24,611.053 1142.12,603.525 1138.25,596.066 1134.65,588.681 1131.33,581.37 1128.31,574.138 1125.6,566.986 1123.22,559.917 1121.17,552.933 1119.49,546.037 1118.17,539.233 1117.24,532.52 1116.7,525.904 1116.58,519.385 1116.89,512.969 1117.64,506.654 1118.84,500.445 "/>
     <polygon id="_396820600" class="fil1" points="1228.71,730.688 2364.59,1866.57 2370.82,1874.9 2377.06,1883.25 2383.3,1891.64 2389.51,1900.05 2395.7,1908.48 2401.85,1916.94 2407.94,1925.43 2413.96,1933.94 2419.9,1942.48 2425.75,1951.04 2431.49,1959.63 2437.12,1968.24 2442.61,1976.87 2447.97,1985.53 2453.16,1994.21 2458.19,2002.92 2463.03,2011.65 2467.69,2020.4 2472.14,2029.17 2476.36,2037.97 2480.36,2046.78 2484.11,2055.62 2487.61,2064.48 2490.84,2073.36 2493.78,2082.27 2496.44,2091.19 2498.78,2100.13 2500.81,2109.09 2502.5,2118.07 2503.85,2127.08 2504.84,2136.1 2505.46,2145.14 1369.58,1009.25 1368.96,1000.21 1367.97,991.195 1366.62,982.192 1364.92,973.211 1362.9,964.249 1360.55,955.306 1357.9,946.384 1354.96,937.482 1351.73,928.601 1348.23,919.742 1344.48,910.902 1340.48,902.085 1336.25,893.29 1331.81,884.516 1327.15,875.766 1322.31,867.037 1317.28,858.331 1312.08,849.65 1306.73,840.992 1301.24,832.357 1295.61,823.745 1289.87,815.159 1284.02,806.597 1278.08,798.06 1272.05,789.547 1265.96,781.06 1259.82,772.599 1253.63,764.164 1247.42,755.755 1241.18,747.373 1234.94,739.017 "/>
     <polygon id="_396802024" class="fil1" points="1500.75,1024 2636.63,2159.88 2627.06,2169.46 1491.18,1033.57 "/>
     <polygon id="_396828136" class="fil1" points="1436.71,1038.74 2572.59,2174.62 2505.46,2174.62 1369.58,1038.74 "/>
     <polygon id="_396815608" class="fil1" points="1491.18,1033.57 2627.06,2169.46 2572.59,2223.92 1436.71,1088.04 "/>
     <polygon id="_396798616" class="fil1" points="1369.58,1038.74 2505.46,2174.62 2504.84,2183.66 2503.85,2192.68 2502.5,2201.69 2500.81,2210.67 2498.78,2219.63 2496.44,2228.57 2493.78,2237.5 2490.84,2246.4 2487.61,2255.28 2484.12,2264.14 2480.36,2272.98 2476.36,2281.79 2472.14,2290.59 2467.69,2299.36 2463.04,2308.11 2458.19,2316.84 2453.16,2325.55 2447.97,2334.23 2442.61,2342.89 2437.12,2351.52 2431.49,2360.14 2425.75,2368.72 2419.9,2377.28 2413.96,2385.82 2407.94,2394.33 2401.85,2402.82 2395.7,2411.28 2389.51,2419.72 2383.3,2428.13 2377.06,2436.51 2370.82,2444.86 2364.59,2453.19 1228.71,1317.31 1234.94,1308.98 1241.18,1300.63 1247.42,1292.25 1253.63,1283.84 1259.82,1275.4 1265.97,1266.94 1272.06,1258.45 1278.08,1249.94 1284.02,1241.4 1289.87,1232.84 1295.61,1224.25 1301.24,1215.64 1306.73,1207.01 1312.09,1198.35 1317.28,1189.67 1322.31,1180.96 1327.15,1172.23 1331.81,1163.48 1336.26,1154.71 1340.48,1145.91 1344.48,1137.1 1348.23,1128.26 1351.73,1119.4 1354.96,1110.51 1357.9,1101.61 1360.56,1092.69 1362.9,1083.75 1364.93,1074.79 1366.62,1065.8 1367.97,1056.8 1368.96,1047.78 "/>
     <polygon id="_396811168" class="fil1" points="654.016,1038.74 1789.9,2174.62 1783.64,2174.62 647.763,1038.74 "/>
     <polygon id="_396822112" class="fil1" points="647.763,1038.74 1783.64,2174.62 1740.16,2218.11 604.28,1082.22 "/>
     <polygon id="_396805840" class="fil1" points="604.28,1082.22 1740.16,2218.11 1683.13,2217.89 547.248,1082 "/>
     <polygon id="_396820720" class="fil1" points="1094.84,1583.74 2230.72,2719.62 2229.13,2719.33 2227.57,2718.93 2226.05,2718.42 2224.57,2717.81 2223.14,2717.1 2221.75,2716.3 2220.42,2715.4 2219.16,2714.41 2217.96,2713.34 1082.08,1577.45 1083.28,1578.53 1084.54,1579.52 1085.87,1580.42 1087.25,1581.22 1088.69,1581.93 1090.17,1582.54 1091.69,1583.05 1093.25,1583.45 "/>
     <polygon id="_396815344" class="fil1" points="603.113,965.77 1738.99,2101.65 1782.48,2145.14 646.597,1009.25 "/>
     <polygon id="_396816592" class="fil1" points="1120.52,1553.66 2256.4,2689.54 2257,2691.85 2257.36,2694.16 2257.49,2696.47 2257.38,2698.75 2257.06,2700.98 2256.53,2703.17 2255.79,2705.29 2254.85,2707.32 2253.72,2709.25 2252.41,2711.07 2250.93,2712.77 2249.28,2714.32 2247.48,2715.71 2245.52,2716.93 2243.42,2717.96 2241.18,2718.8 1105.3,1582.91 1107.53,1582.08 1109.64,1581.05 1111.6,1579.83 1113.4,1578.43 1115.05,1576.88 1116.53,1575.19 1117.84,1573.37 1118.97,1571.44 1119.9,1569.4 1120.64,1567.29 1121.18,1565.1 1121.5,1562.86 1121.61,1560.58 1121.48,1558.28 1121.12,1555.97 "/>
     <polygon id="_396799120" class="fil1" points="1105.3,1582.91 2241.18,2718.8 2239.86,2719.17 2238.55,2719.46 2237.23,2719.68 2235.91,2719.82 2234.6,2719.88 2233.29,2719.87 2232,2719.78 2230.72,2719.62 1094.84,1583.74 1096.12,1583.9 1097.41,1583.98 1098.72,1584 1100.03,1583.93 1101.35,1583.8 1102.67,1583.58 1103.98,1583.29 "/>
     <polygon id="_396798664" class="fil1" points="1228.71,1317.31 2364.59,2453.19 2358.4,2461.47 2352.24,2469.72 2346.13,2477.93 2340.09,2486.1 2334.13,2494.24 2328.27,2502.33 2322.51,2510.38 2316.88,2518.37 2311.38,2526.32 2306.04,2534.22 2300.86,2542.06 2295.87,2549.85 2291.07,2557.57 2286.48,2565.23 2282.12,2572.83 2278,2580.36 2274.13,2587.82 2270.53,2595.2 2267.21,2602.51 2264.19,2609.74 2261.48,2616.9 2259.1,2623.97 2257.06,2630.95 2255.37,2637.85 2254.05,2644.65 2253.12,2651.36 2252.58,2657.98 2252.46,2664.5 2252.77,2670.91 2253.52,2677.23 2254.72,2683.44 2256.4,2689.54 1120.52,1553.66 1118.84,1547.55 1117.64,1541.35 1116.89,1535.03 1116.58,1528.61 1116.7,1522.1 1117.24,1515.48 1118.17,1508.77 1119.49,1501.96 1121.17,1495.07 1123.22,1488.08 1125.6,1481.01 1128.31,1473.86 1131.33,1466.63 1134.65,1459.32 1138.25,1451.93 1142.12,1444.48 1146.24,1436.95 1150.6,1429.35 1155.19,1421.69 1159.99,1413.96 1164.98,1406.18 1170.16,1398.34 1175.5,1390.44 1181,1382.49 1186.63,1374.49 1192.39,1366.45 1198.25,1358.35 1204.21,1350.22 1210.25,1342.05 1216.36,1333.84 1222.52,1325.59 "/>
     <polygon id="_396797824" class="fil1" points="1115.05,471.116 2250.93,1607 2252.41,1608.69 2253.72,1610.51 2254.85,1612.45 2255.79,1614.48 2256.53,1616.59 2257.06,1618.78 2257.38,1621.02 2257.49,1623.3 2257.36,1625.6 2257,1627.92 2256.4,1630.23 1120.52,494.345 1121.12,492.035 1121.48,489.721 1121.61,487.417 1121.5,485.137 1121.18,482.898 1120.64,480.711 1119.9,478.596 1118.97,476.563 1117.84,474.63 1116.53,472.809 "/>
    </g>
    <path id="_478220656" class="fil1" d="M1120.52 494.345c-20.4437,64.4835 41.9776,147.881 108.19,236.343 66.3851,88.6938 136.253,182.048 140.873,278.566l67.1292 0 0 -49.2969 54.4654 54.4642 9.57639 9.57639 -9.57639 9.57639 -54.4654 54.4642 0 -49.2969 -67.128 0c-4.61811,96.5198 -74.4875,189.875 -140.874,278.57 -66.2126,88.4623 -128.634,171.86 -108.19,236.343 3.87638,12.2823 -2.93858,25.3819 -15.2209,29.2583 -3.49843,1.10315 -7.063,1.34055 -10.461,0.829134 -8.53465,-1.28032 -16.0252,-7.26733 -18.7973,-16.0512 -9.04371,-28.5272 -9.5067,-57.6945 -4.09134,-87.3981l-417.932 -441.552 -6.25276 0 -43.4835 43.4823 -57.0319 -0.220866 60.5434 -57.4229 -60.5434 -57.4441 55.865 -1.36536 43.4847 43.4835 4.87914 0 420.031 -441.251 0.270473 0.255118c-5.27717,-30.1642 -4.73859,-59.5607 4.26142,-87.9497 2.77205,-8.78387 10.2626,-14.7709 18.7973,-16.0524 3.39803,-0.510237 6.9626,-0.272835 10.461,0.830316 12.2823,3.87638 19.0973,16.976 15.2209,29.2583z"/>
   </g>
  </g>
  <path class="fil2" d="M1024 0c565.539,0 1024,458.461 1024,1024 0,565.539 -458.461,1024 -1024,1024 -565.539,0 -1024,-458.461 -1024,-1024 0,-565.539 458.461,-1024 1024,-1024z"/>
  <polygon class="fil3" points="1080.99,576.921 1071.51,568.003 638.755,1022.62 1073,1481.41 1082.43,1472.44 652.792,1024.43 "/>
  <polygon class="fil4" points="618.221,1009.25 1462.63,1009.25 1462.63,1038.74 618.221,1038.74 "/>
  <polygon class="fil5" points="603.113,965.77 661.925,1024.58 604.28,1082.22 547.248,1082 607.791,1024.58 547.248,967.136 "/>
  <polygon class="fil5" points="1436.71,959.957 1491.18,1014.42 1500.75,1024 1491.18,1033.57 1436.71,1088.04 "/>
  <path class="fil6" d="M1120.52 1553.66c3.87638,12.2823 -2.93858,25.3819 -15.2209,29.2583 -12.2823,3.8752 -25.3819,-2.93977 -29.2583,-15.2221 -52.8851,-166.81 187.653,-355.492 180.995,-545.411 -6.43701,-183.665 -232.552,-379.348 -180.995,-541.972 3.87638,-12.2823 16.976,-19.0973 29.2583,-15.2221 12.2823,3.87638 19.0973,16.976 15.2209,29.2583 -20.4437,64.4835 41.9776,147.881 108.19,236.343 69.7607,93.2032 143.367,191.553 141.063,293.312 2.30433,101.759 -71.302,200.108 -141.063,293.312 -66.2126,88.4623 -128.634,171.86 -108.19,236.343z"/>
  <path class="fil7" d="M1094.84 1583.74c-8.53465,-1.28032 -16.0252,-7.26733 -18.7973,-16.0512 -52.8851,-166.81 187.653,-355.492 180.995,-545.411 -6.43701,-183.665 -232.552,-379.348 -180.995,-541.972 2.77205,-8.78387 10.2626,-14.7709 18.7973,-16.0512 0.950788,0.179528 1.90158,0.454725 2.84646,0.829134 9.74765,3.87638 15.1559,16.976 12.0803,29.2583 -16.2248,64.4835 33.3142,147.881 85.8638,236.343 55.3642,93.2032 113.782,191.553 111.953,293.312 1.82835,101.759 -56.589,200.108 -111.953,293.312 -52.5496,88.4623 -102.089,171.86 -85.8638,236.343 3.07559,12.2823 -2.33268,25.3819 -12.0803,29.2583 -0.944883,0.37441 -1.89567,0.649607 -2.84646,0.829134z"/>
 </g>
</svg>
