<?xml version="1.0" encoding="UTF-8"?>
<!DOCTYPE svg PUBLIC "-//W3C//DTD SVG 1.1//EN" "http://www.w3.org/Graphics/SVG/1.1/DTD/svg11.dtd">
<!-- Creator: CorelDRAW -->
<svg xmlns="http://www.w3.org/2000/svg" xml:space="preserve" width="2048px" height="2048px" style="shape-rendering:geometricPrecision; text-rendering:geometricPrecision; image-rendering:optimizeQuality; fill-rule:evenodd; clip-rule:evenodd"
viewBox="0 0 2048 2048"
 xmlns:xlink="http://www.w3.org/1999/xlink">
 <defs>
  <style type="text/css">
   <![CDATA[
    .fil2 {fill:none}
    .fil1 {fill:#7CB342}
    .fil0 {fill:#AED581}
    .fil5 {fill:#B26506}
    .fil4 {fill:#D47500}
    .fil3 {fill:#FB8C00}
    .fil6 {fill:#212121;fill-rule:nonzero}
   ]]>
  </style>
   <clipPath id="id0">
    <path d="M1024 0c565.539,0 1024,458.461 1024,1024 0,565.539 -458.461,1024 -1024,1024 -565.539,0 -1024,-458.461 -1024,-1024 0,-565.539 458.461,-1024 1024,-1024z"/>
   </clipPath>
 </defs>
 <g id="Layer_x0020_1">
  <metadata id="CorelCorpID_0Corel-Layer"/>
  <path class="fil0" d="M1024 0c565.539,0 1024,458.461 1024,1024 0,565.539 -458.461,1024 -1024,1024 -565.539,0 -1024,-458.461 -1024,-1024 0,-565.539 458.461,-1024 1024,-1024z"/>
  <g style="clip-path:url(#id0)">
   <g id="_478226488">
    <g>
     <path id="_3926360401" class="fil1" d="M1869.28 2671.9l0 0zm-1135.88 -1135.88l0 0z"/>
     <polygon id="_392639136" class="fil1" points="1445.96,665.142 2581.84,1801.02 2589.2,1809.56 2596.39,1818.26 2603.42,1827.12 2610.28,1836.15 2616.97,1845.33 2623.49,1854.67 2629.82,1864.17 2635.97,1873.82 2641.93,1883.62 2647.7,1893.57 2653.28,1903.67 2658.66,1913.91 2663.84,1924.3 2668.82,1934.82 2673.58,1945.48 2678.14,1956.28 2682.48,1967.22 2686.6,1978.28 2690.5,1989.47 2694.18,2000.8 2697.62,2012.24 2700.83,2023.81 2703.81,2035.5 2706.54,2047.31 1570.66,911.429 1567.92,899.619 1564.95,887.93 1561.74,876.36 1558.29,864.914 1554.62,853.592 1550.72,842.398 1546.6,831.334 1542.26,820.401 1537.7,809.603 1532.94,798.94 1527.96,788.416 1522.78,778.031 1517.4,767.789 1511.82,757.692 1506.05,747.741 1500.09,737.939 1493.94,728.288 1487.6,718.791 1481.09,709.449 1474.4,700.264 1467.54,691.238 1460.51,682.375 1453.32,673.675 "/>
     <polygon id="_392634888" class="fil1" points="1570.66,911.429 2706.54,2047.31 2707.34,2051.02 2708.12,2054.74 2708.88,2058.47 2709.61,2062.21 2710.32,2065.97 2711,2069.73 2711.66,2073.51 2712.29,2077.29 2712.9,2081.09 2713.49,2084.9 2714.05,2088.71 2714.58,2092.54 2715.09,2096.38 2715.58,2100.23 2716.04,2104.09 2716.47,2107.96 2716.88,2111.84 2717.27,2115.73 2717.62,2119.63 2717.95,2123.54 2718.26,2127.46 2718.54,2131.39 2718.79,2135.33 2719.02,2139.28 2719.22,2143.24 2719.4,2147.21 2719.54,2151.18 2719.67,2155.17 2719.76,2159.17 2719.83,2163.18 2719.87,2167.19 2719.88,2171.22 1584,1035.33 1583.99,1031.31 1583.95,1027.29 1583.88,1023.29 1583.79,1019.29 1583.66,1015.3 1583.52,1011.32 1583.34,1007.36 1583.14,1003.4 1582.91,999.447 1582.66,995.507 1582.38,991.578 1582.07,987.657 1581.74,983.747 1581.38,979.847 1581,975.957 1580.59,972.078 1580.16,968.207 1579.7,964.348 1579.21,960.499 1578.7,956.659 1578.17,952.831 1577.61,949.014 1577.02,945.206 1576.41,941.41 1575.78,937.624 1575.12,933.849 1574.44,930.085 1573.73,926.331 1573,922.589 1572.24,918.858 1571.46,915.138 "/>
     <polygon id="_392636496" class="fil1" points="1584,1035.33 2719.88,2171.22 2719.85,2177.2 2719.77,2183.17 2719.62,2189.15 2719.42,2195.11 2719.17,2201.07 2718.85,2207.02 2718.48,2212.97 2718.05,2218.9 2717.56,2224.83 2717.02,2230.75 2716.42,2236.66 2715.76,2242.56 2715.05,2248.45 2714.28,2254.32 2713.45,2260.19 2712.57,2266.04 2711.63,2271.88 2710.63,2277.71 2709.57,2283.52 2708.46,2289.32 2707.3,2295.11 2706.07,2300.88 2704.79,2306.63 2703.46,2312.37 2702.06,2318.09 2700.61,2323.79 2699.11,2329.47 2697.55,2335.14 2695.93,2340.78 2694.25,2346.41 2692.52,2352.02 2690.74,2357.61 1554.85,1221.72 1556.64,1216.14 1558.37,1210.53 1560.05,1204.9 1561.66,1199.26 1563.23,1193.59 1564.73,1187.91 1566.18,1182.2 1567.57,1176.48 1568.91,1170.75 1570.19,1164.99 1571.42,1159.23 1572.58,1153.44 1573.69,1147.64 1574.75,1141.83 1575.75,1136 1576.69,1130.16 1577.57,1124.31 1578.4,1118.44 1579.17,1112.57 1579.88,1106.68 1580.54,1100.78 1581.14,1094.87 1581.68,1088.95 1582.17,1083.02 1582.6,1077.09 1582.97,1071.14 1583.29,1065.19 1583.54,1059.23 1583.74,1053.26 1583.89,1047.29 1583.97,1041.32 "/>
     <polygon id="_392617656" class="fil1" points="1554.85,1221.72 2690.74,2357.61 2688.93,2363.05 2687.08,2368.46 2685.17,2373.86 2683.21,2379.24 2681.2,2384.59 2679.13,2389.92 2677,2395.22 2674.83,2400.5 2672.6,2405.76 2670.32,2410.99 2667.98,2416.2 2665.59,2421.38 2663.15,2426.53 2660.66,2431.66 2658.11,2436.76 2655.51,2441.83 2652.85,2446.88 2650.14,2451.89 2647.38,2456.88 2644.57,2461.83 2641.7,2466.76 2638.78,2471.65 2635.81,2476.51 2632.79,2481.34 2629.71,2486.14 2626.58,2490.91 2623.39,2495.64 2620.16,2500.34 2616.87,2505 2613.53,2509.63 2610.13,2514.23 2606.68,2518.79 1470.8,1382.9 1474.25,1378.34 1477.64,1373.75 1480.99,1369.12 1484.27,1364.46 1487.51,1359.76 1490.7,1355.03 1493.83,1350.26 1496.9,1345.46 1499.93,1340.63 1502.9,1335.77 1505.82,1330.87 1508.69,1325.95 1511.5,1320.99 1514.26,1316.01 1516.97,1310.99 1519.63,1305.95 1522.23,1300.88 1524.78,1295.78 1527.27,1290.65 1529.71,1285.5 1532.1,1280.32 1534.44,1275.11 1536.72,1269.88 1538.95,1264.62 1541.12,1259.34 1543.25,1254.04 1545.31,1248.71 1547.33,1243.35 1549.29,1237.98 1551.2,1232.58 1553.05,1227.16 "/>
     <polygon id="_392618160" class="fil1" points="1470.8,1382.9 2606.68,2518.79 2606.18,2519.45 2605.65,2520.1 2605.09,2520.73 2604.51,2521.35 2603.91,2521.94 2603.27,2522.52 2602.62,2523.08 2601.93,2523.63 1466.05,1387.74 1466.74,1387.2 1467.39,1386.64 1468.02,1386.06 1468.63,1385.46 1469.21,1384.85 1469.77,1384.22 1470.3,1383.57 "/>
     <polygon id="_392624712" class="fil1" points="1466.05,1387.74 2601.93,2523.63 2598.38,2526.24 2594.83,2528.64 2591.31,2530.86 2587.79,2532.89 2584.29,2534.73 2580.8,2536.4 2577.31,2537.9 2573.84,2539.24 2570.38,2540.42 2566.92,2541.45 2563.47,2542.34 2560.02,2543.09 2556.58,2543.71 2553.14,2544.21 2549.71,2544.59 2546.27,2544.86 2542.84,2545.02 2539.4,2545.08 2535.97,2545.05 2532.53,2544.94 2529.09,2544.75 2525.64,2544.48 2522.19,2544.15 2518.73,2543.75 2515.26,2543.31 2511.79,2542.81 2508.3,2542.27 2504.81,2541.7 2501.3,2541.1 2497.78,2540.48 2494.25,2539.84 2490.71,2539.2 1354.83,1403.32 1358.37,1403.96 1361.9,1404.6 1365.42,1405.22 1368.93,1405.82 1372.42,1406.39 1375.91,1406.93 1379.38,1407.42 1382.85,1407.87 1386.31,1408.26 1389.76,1408.6 1393.21,1408.86 1396.65,1409.06 1400.09,1409.17 1403.52,1409.2 1406.96,1409.14 1410.39,1408.97 1413.83,1408.71 1417.26,1408.33 1420.7,1407.83 1424.14,1407.21 1427.59,1406.46 1431.04,1405.57 1434.5,1404.54 1437.96,1403.36 1441.43,1402.02 1444.92,1400.52 1448.41,1398.85 1451.91,1397 1455.43,1394.98 1458.95,1392.76 1462.5,1390.35 "/>
     <polygon id="_392618976" class="fil1" points="1354.83,1403.32 2490.71,2539.2 2488.74,2538.84 2486.78,2538.48 2484.8,2538.13 2482.82,2537.78 2480.84,2537.43 2478.85,2537.09 2476.86,2536.76 2474.86,2536.44 2472.86,2536.13 2470.86,2535.83 2468.85,2535.54 2466.84,2535.28 2464.83,2535.03 2462.82,2534.8 2460.8,2534.59 2458.78,2534.4 2456.76,2534.23 2454.74,2534.09 2452.72,2533.98 2450.7,2533.9 2448.68,2533.85 2446.65,2533.82 2444.63,2533.84 2442.61,2533.88 2440.59,2533.96 2438.57,2534.08 2436.55,2534.24 2434.53,2534.44 2432.52,2534.69 2430.5,2534.97 2428.49,2535.3 2426.49,2535.68 1290.61,1399.8 1292.61,1399.42 1294.62,1399.09 1296.64,1398.8 1298.65,1398.56 1300.67,1398.36 1302.69,1398.2 1304.71,1398.08 1306.73,1398 1308.75,1397.95 1310.77,1397.94 1312.79,1397.96 1314.82,1398.02 1316.84,1398.1 1318.86,1398.21 1320.88,1398.35 1322.9,1398.52 1324.92,1398.7 1326.94,1398.91 1328.95,1399.14 1330.96,1399.39 1332.97,1399.66 1334.98,1399.95 1336.98,1400.24 1338.98,1400.55 1340.98,1400.87 1342.97,1401.21 1344.96,1401.55 1346.94,1401.89 1348.92,1402.25 1350.9,1402.6 1352.86,1402.96 "/>
     <polygon id="_392630952" class="fil1" points="1290.61,1399.8 2426.49,2535.68 2424.36,2536.15 2422.23,2536.68 2420.12,2537.28 2418,2537.94 2415.89,2538.67 2413.78,2539.46 2411.67,2540.31 2409.57,2541.22 2407.47,2542.18 2405.36,2543.2 2403.26,2544.27 2401.15,2545.39 2399.04,2546.56 2396.93,2547.77 2394.82,2549.03 2392.7,2550.33 2390.58,2551.68 2388.45,2553.06 2386.32,2554.48 2384.18,2555.94 2382.03,2557.43 2379.88,2558.95 2377.72,2560.5 2375.54,2562.08 2373.36,2563.69 2371.17,2565.32 2368.97,2566.97 2366.75,2568.64 2364.53,2570.34 2362.29,2572.05 2360.04,2573.77 2357.77,2575.51 1221.89,1439.63 1224.16,1437.89 1226.41,1436.16 1228.65,1434.45 1230.87,1432.76 1233.09,1431.09 1235.29,1429.43 1237.48,1427.81 1239.66,1426.2 1241.83,1424.62 1244,1423.07 1246.15,1421.55 1248.3,1420.06 1250.44,1418.6 1252.57,1417.18 1254.7,1415.8 1256.82,1414.45 1258.94,1413.15 1261.05,1411.89 1263.16,1410.67 1265.27,1409.51 1267.37,1408.38 1269.48,1407.32 1271.58,1406.3 1273.69,1405.33 1275.79,1404.43 1277.9,1403.58 1280.01,1402.79 1282.12,1402.06 1284.23,1401.4 1286.35,1400.8 1288.48,1400.26 "/>
     <polygon id="_392621952" class="fil1" points="761.168,1108.09 1897.05,2243.98 1894.83,2241.94 1892.52,2239.95 756.636,1104.06 758.952,1106.05 "/>
     <polygon id="_392624376" class="fil1" points="785.784,1328.54 1921.67,2464.42 1920.32,2464.64 1918.96,2464.86 1917.58,2465.09 1916.18,2465.32 1914.77,2465.55 1913.34,2465.78 1911.9,2466.02 1910.44,2466.26 1908.96,2466.5 1907.48,2466.74 1905.97,2466.99 1904.46,2467.23 1902.92,2467.48 1901.38,2467.74 1899.82,2467.99 1898.25,2468.25 762.366,1332.37 763.938,1332.11 765.498,1331.85 767.043,1331.6 768.575,1331.35 770.091,1331.1 771.595,1330.86 773.083,1330.61 774.557,1330.37 776.016,1330.13 777.459,1329.9 778.887,1329.67 780.298,1329.43 781.694,1329.21 783.074,1328.98 784.438,1328.76 "/>
     <polygon id="_392629272" class="fil1" points="762.366,1332.37 1898.25,2468.25 1869.28,2671.9 733.399,1536.02 "/>
     <polygon id="_392623512" class="fil1" points="680.442,1067.65 1816.32,2203.53 1814.06,2202.77 1811.8,2202.01 1809.54,2201.25 1807.27,2200.48 1805.01,2199.71 1802.75,2198.93 1800.49,2198.15 1798.23,2197.36 1795.97,2196.55 1793.71,2195.74 1791.45,2194.92 1789.2,2194.08 1786.95,2193.23 1784.69,2192.37 1782.44,2191.49 1780.2,2190.59 1777.95,2189.68 1775.71,2188.74 1773.47,2187.79 1771.23,2186.81 1769,2185.81 1766.76,2184.79 1764.54,2183.74 1762.31,2182.67 1760.09,2181.57 1757.88,2180.44 1755.67,2179.28 1753.46,2178.09 1751.25,2176.87 1749.06,2175.61 1746.86,2174.33 1744.67,2173 608.793,1037.12 610.981,1038.44 613.174,1039.73 615.373,1040.99 617.575,1042.21 619.784,1043.4 621.995,1044.55 624.212,1045.68 626.431,1046.78 628.655,1047.86 630.883,1048.91 633.114,1049.93 635.349,1050.93 637.586,1051.91 639.826,1052.86 642.069,1053.79 644.314,1054.71 646.562,1055.61 648.812,1056.49 651.064,1057.35 653.318,1058.2 655.574,1059.04 657.831,1059.86 660.089,1060.67 662.349,1061.47 664.609,1062.27 666.87,1063.05 669.132,1063.83 671.393,1064.6 673.655,1065.37 675.918,1066.13 678.18,1066.89 "/>
     <polygon id="_392622312" class="fil1" points="907.797,1498.23 2043.68,2634.11 2038.99,2632.1 2034.35,2629.99 2029.77,2627.78 2025.25,2625.46 2020.8,2623.04 2016.4,2620.52 2012.07,2617.89 2007.81,2615.16 2003.62,2612.32 1999.5,2609.37 1995.46,2606.32 1991.49,2603.15 1987.6,2599.88 1983.8,2596.5 847.916,1460.62 851.722,1464 855.61,1467.27 859.576,1470.44 863.62,1473.49 867.739,1476.44 871.929,1479.28 876.19,1482.01 880.52,1484.64 884.914,1487.16 889.372,1489.58 893.892,1491.89 898.471,1494.11 903.107,1496.22 "/>
     <polygon id="_392634912" class="fil1" points="733.399,1536.02 1869.28,2671.9 1868.97,2673.6 1868.54,2675.27 1868,2676.9 1867.34,2678.48 1866.57,2680.01 1865.69,2681.47 1864.71,2682.88 1863.63,2684.21 1862.45,2685.46 1861.18,2686.62 1859.82,2687.7 1858.37,2688.68 1856.85,2689.56 1855.24,2690.33 1853.56,2690.98 1851.81,2691.51 715.93,1555.63 717.681,1555.1 719.36,1554.45 720.966,1553.68 722.492,1552.8 723.936,1551.82 725.295,1550.74 726.566,1549.57 727.744,1548.32 728.825,1546.99 729.806,1545.59 730.685,1544.12 731.456,1542.6 732.116,1541.02 732.663,1539.39 733.092,1537.72 "/>
     <polygon id="_392619912" class="fil1" points="715.93,1555.63 1851.81,2691.51 1848,2692.48 1844.15,2693.39 1840.25,2694.24 1836.31,2695.02 1832.33,2695.75 1828.32,2696.41 1824.27,2697.01 1820.19,2697.55 1816.08,2698.02 1811.95,2698.43 1807.8,2698.77 1803.62,2699.04 1799.43,2699.24 1795.22,2699.38 1791,2699.45 1786.77,2699.44 1782.54,2699.37 1778.29,2699.22 1774.05,2699 1769.81,2698.71 1765.57,2698.34 1761.34,2697.9 1757.11,2697.38 1752.9,2696.78 1748.7,2696.11 1744.52,2695.36 1740.36,2694.53 1736.22,2693.62 1732.1,2692.62 1728.01,2691.55 1723.95,2690.4 1719.92,2689.16 584.039,1553.27 588.067,1554.51 592.127,1555.67 596.217,1556.74 600.335,1557.73 604.476,1558.64 608.639,1559.48 612.821,1560.23 617.02,1560.9 621.233,1561.5 625.457,1562.01 629.69,1562.46 633.928,1562.83 638.17,1563.12 642.413,1563.34 646.654,1563.49 650.891,1563.56 655.12,1563.56 659.34,1563.5 663.547,1563.36 667.74,1563.16 671.914,1562.89 676.069,1562.55 680.201,1562.14 684.308,1561.67 688.386,1561.13 692.435,1560.53 696.449,1559.87 700.427,1559.14 704.367,1558.35 708.266,1557.51 712.121,1556.6 "/>
     <polygon id="_392631144" class="fil1" points="584.039,1553.27 1719.92,2689.16 1716.39,2687.99 1712.89,2686.77 1709.42,2685.48 1705.98,2684.12 1702.58,2682.69 1699.2,2681.2 1695.87,2679.64 1692.57,2678.02 1689.31,2676.32 1686.09,2674.56 1682.91,2672.72 1679.77,2670.82 1676.69,2668.84 1673.64,2666.8 1670.65,2664.68 1667.71,2662.49 1664.82,2660.23 1661.99,2657.9 526.105,1522.01 528.941,1524.35 531.83,1526.61 534.772,1528.8 537.763,1530.92 540.805,1532.96 543.893,1534.94 547.027,1536.84 550.205,1538.67 553.425,1540.44 556.686,1542.13 559.986,1543.76 563.322,1545.32 566.696,1546.81 570.103,1548.24 573.543,1549.59 577.013,1550.89 580.512,1552.11 "/>
     <polygon id="_392635032" class="fil1" points="756.636,1104.06 1892.52,2239.95 1890.46,2238.27 1888.38,2236.65 1886.27,2235.08 1884.13,2233.55 1881.95,2232.07 1879.76,2230.64 1877.53,2229.25 1875.28,2227.9 1873.01,2226.59 1870.72,2225.32 1868.4,2224.08 1866.06,2222.88 1863.7,2221.71 1861.32,2220.57 1858.92,2219.46 1856.51,2218.38 1854.08,2217.32 1851.63,2216.29 1849.17,2215.29 1846.7,2214.3 1844.21,2213.34 1841.71,2212.39 1839.21,2211.46 1836.69,2210.54 1834.16,2209.64 1831.63,2208.74 1829.09,2207.86 1826.54,2206.98 1823.99,2206.12 1821.44,2205.25 1818.88,2204.39 1816.32,2203.53 680.442,1067.65 683,1068.51 685.557,1069.37 688.111,1070.23 690.662,1071.1 693.207,1071.98 695.748,1072.86 698.281,1073.75 700.808,1074.66 703.326,1075.57 705.833,1076.51 708.331,1077.45 710.817,1078.42 713.291,1079.41 715.751,1080.41 718.197,1081.44 720.628,1082.5 723.043,1083.58 725.44,1084.69 727.818,1085.82 730.178,1086.99 732.517,1088.2 734.835,1089.43 737.131,1090.71 739.404,1092.02 741.653,1093.37 743.877,1094.76 746.073,1096.19 748.244,1097.67 750.387,1099.2 752.5,1100.77 754.583,1102.39 "/>
     <polygon id="_392625456" class="fil1" points="1221.89,1439.63 2357.77,2575.51 2354.67,2577.88 2351.54,2580.28 2348.39,2582.68 2345.2,2585.09 2341.98,2587.51 2338.72,2589.93 2335.42,2592.35 2332.08,2594.76 2328.7,2597.17 2325.27,2599.57 2321.79,2601.95 2318.26,2604.32 2314.67,2606.67 2311.03,2608.99 2307.33,2611.29 2303.56,2613.55 2299.73,2615.79 2295.83,2617.99 2291.86,2620.15 2287.82,2622.26 2283.7,2624.33 2279.51,2626.36 2275.23,2628.33 2270.87,2630.24 2266.43,2632.1 2261.9,2633.9 2257.27,2635.63 2252.56,2637.29 2247.74,2638.88 2242.83,2640.4 2237.82,2641.84 2232.7,2643.21 1096.82,1507.32 1101.94,1505.96 1106.95,1504.52 1111.86,1503 1116.68,1501.41 1121.39,1499.75 1126.02,1498.01 1130.55,1496.22 1134.99,1494.36 1139.35,1492.44 1143.63,1490.47 1147.82,1488.45 1151.94,1486.38 1155.98,1484.26 1159.95,1482.1 1163.85,1479.9 1167.68,1477.67 1171.44,1475.4 1175.15,1473.11 1178.79,1470.78 1182.38,1468.44 1185.91,1466.07 1189.39,1463.69 1192.82,1461.29 1196.2,1458.88 1199.54,1456.47 1202.84,1454.05 1206.1,1451.63 1209.32,1449.21 1212.51,1446.8 1215.66,1444.39 1218.79,1442 "/>
     <polygon id="_392624568" class="fil1" points="608.793,1037.12 1744.67,2173 1740.6,2170.4 1736.7,2167.73 1732.98,2164.97 1729.45,2162.15 1726.08,2159.25 590.203,1023.37 593.567,1026.26 597.103,1029.09 600.819,1031.84 604.714,1034.52 "/>
     <polygon id="_392639592" class="fil1" points="1096.82,1507.32 2232.7,2643.21 2226.9,2644.64 2221.05,2645.97 2215.16,2647.2 2209.23,2648.33 2203.28,2649.36 2197.3,2650.28 2191.29,2651.1 2185.26,2651.81 2179.22,2652.42 2173.16,2652.92 2167.09,2653.31 2161.01,2653.59 2154.94,2653.75 2148.86,2653.81 2142.79,2653.75 2136.72,2653.57 2130.67,2653.28 2124.63,2652.87 2118.61,2652.34 2112.61,2651.69 2106.64,2650.92 2100.7,2650.03 2094.79,2649.02 2088.92,2647.87 2083.09,2646.61 2077.3,2645.21 2071.55,2643.69 2065.86,2642.04 2060.23,2640.25 2054.65,2638.34 2049.13,2636.29 2043.68,2634.11 907.797,1498.23 913.249,1500.41 918.767,1502.46 924.346,1504.37 929.982,1506.15 935.674,1507.81 941.415,1509.33 947.205,1510.72 953.037,1511.99 958.909,1513.13 964.82,1514.15 970.762,1515.04 976.733,1515.81 982.73,1516.46 988.75,1516.99 994.788,1517.4 1000.84,1517.69 1006.91,1517.87 1012.98,1517.93 1019.05,1517.87 1025.13,1517.71 1031.21,1517.43 1037.28,1517.04 1043.33,1516.54 1049.38,1515.93 1055.41,1515.22 1061.41,1514.4 1067.4,1513.47 1073.35,1512.45 1079.28,1511.31 1085.16,1510.08 1091.02,1508.75 "/>
    </g>
    <path id="_478207984" class="fil1" d="M733.399 1536.02l0 0zm648.317 -932.909c91.6005,75.0461 161.071,181.728 188.942,308.32 8.69764,39.502 13.3429,80.9245 13.3429,123.905 0,63.8315 -9.78898,126.912 -29.1473,186.39 -18.9201,58.1327 -47.0044,112.746 -84.0509,161.179 -1.31102,1.79055 -2.89725,3.4252 -4.7504,4.84016 -38.0256,28.9335 -73.3264,22.4906 -111.227,15.5728 -20.9032,-3.81378 -42.8244,-7.81536 -64.2201,-3.51614 -22.7362,4.56851 -44.4591,21.2268 -68.7166,39.8256 -32.9433,25.2626 -69.9296,53.6245 -125.066,67.6973 -61.715,15.776 -131.229,14.9043 -189.026,-9.09686 -50.315,-20.8937 -91.6796,-58.9347 -111.936,-118.192 -0.255118,-0.61063 -0.490158,-1.23543 -0.699213,-1.87677 -5.32323,-16.3866 -8.13071,-32.9729 -9.37796,-49.6205 -7.13741,1.16811 -14.9965,2.45315 -23.4189,3.82914l-28.9666 203.652c-1.30866,9.16772 -7.95001,17.1095 -17.4685,19.6134 -40.3701,10.6299 -89.106,11.302 -131.891,-2.3563 -37.7634,-12.0555 -71.1024,-35.0729 -91.0749,-71.9256 -10.4799,-19.3394 -17.661,-36.8587 -22.2638,-54.0626 -4.71733,-17.6291 -6.70158,-34.6004 -6.70158,-52.493l0.0933072 0 0.0011811 -20.1c-0.090945,-1.20709 -0.0897638,-2.40355 0,-3.57992l0.00236221 -92.5749c-0.108662,-11.5831 8.29371,-21.7949 20.0776,-23.6185l115.724 -18.2138c0.536221,-0.103937 1.07953,-0.188977 1.62874,-0.256299l148.03 -23.2984c1.07126,-0.245669 2.16378,-0.421654 3.27756,-0.516142l37.78 -5.94567c-1.09134,-32.5807 -8.72363,-61.6335 -33.978,-82.6264 -21.7252,-18.124 -48.8977,-27.2492 -76.1942,-36.4146 -24.1229,-8.09883 -48.3343,-16.2284 -71.6493,-30.5268 -44.4969,-27.3142 -57.1571,-68.2193 -54.417,-111.665 2.44961,-38.8217 17.8465,-78.9119 32.3457,-111.435 34.852,-77.9989 88.3465,-150.339 154.466,-207.116 62.7544,-53.8855 136.923,-93.8729 217.449,-111.601 33.3485,-7.34174 66.9189,-10.878 100.258,-10.878 116.91,0 231.024,43.4764 322.822,118.682z"/>
   </g>
  </g>
  <path class="fil2" d="M1024 0c565.539,0 1024,458.461 1024,1024 0,565.539 -458.461,1024 -1024,1024 -565.539,0 -1024,-458.461 -1024,-1024 0,-565.539 458.461,-1024 1024,-1024z"/>
  <path class="fil3" d="M1381.72 603.109c91.6005,75.0461 161.071,181.728 188.942,308.32 8.69764,39.502 13.3429,80.9245 13.3429,123.905 0,63.8315 -9.78898,126.912 -29.1473,186.39 -18.9201,58.1327 -47.0044,112.746 -84.0509,161.179 -1.31102,1.79055 -2.89725,3.4252 -4.7504,4.84016 -38.0256,28.9335 -73.3264,22.4906 -111.227,15.5728 -20.9032,-3.81378 -42.8244,-7.81536 -64.2201,-3.51614 -22.7362,4.56851 -44.4591,21.2268 -68.7166,39.8256 -32.9433,25.2626 -69.9296,53.6245 -125.066,67.6973 -61.715,15.776 -131.229,14.9043 -189.026,-9.09686 -50.315,-20.8937 -91.6796,-58.9347 -111.936,-118.192 -0.255118,-0.61063 -0.490158,-1.23543 -0.699213,-1.87677 -14.0811,-43.3489 -10.5567,-88.0879 -7.12323,-131.668 4.38662,-55.6926 8.60198,-109.171 -31.4032,-142.426 -21.7252,-18.124 -48.8977,-27.2492 -76.1942,-36.4146 -24.1229,-8.09883 -48.3343,-16.2284 -71.6493,-30.5268 -44.4969,-27.3142 -57.1571,-68.2193 -54.417,-111.665 2.44961,-38.8217 17.8465,-78.9119 32.3457,-111.435 34.852,-77.9989 88.3465,-150.339 154.466,-207.116 62.7544,-53.8855 136.923,-93.8729 217.449,-111.601 33.3485,-7.34174 66.9189,-10.878 100.258,-10.878 116.91,0 231.024,43.4764 322.822,118.682z"/>
  <path class="fil4" d="M1160.49 1148.37c-10.3087,-10.311 -24.5658,-16.6831 -40.3323,-16.6831 -15.7713,0 -30.026,6.37205 -40.3347,16.6807 -10.311,10.3099 -16.6819,24.5669 -16.6819,40.3359 0,15.7665 6.37205,30.0272 16.6831,40.337 10.3075,10.311 24.5634,16.6831 40.3335,16.6831 15.7654,0 30.0225,-6.37441 40.3323,-16.6843 10.3099,-10.3122 16.6831,-24.5693 16.6831,-40.3359 0,-15.7665 -6.37205,-30.0236 -16.6831,-40.3335zm-40.3323 -54.678c26.2559,0 50.0067,10.624 67.1965,27.8138 17.1898,17.1898 27.815,40.9418 27.815,67.1977 0,26.2536 -10.6252,50.0079 -27.815,67.2001 -17.1898,17.1898 -40.9418,27.815 -67.1965,27.815 -26.2595,0 -50.0091,-10.624 -67.1989,-27.8138 -17.1898,-17.191 -27.8138,-40.9477 -27.8138,-67.2012 0,-26.2559 10.624,-50.0103 27.8138,-67.2001 17.1886,-17.1886 40.9406,-27.8114 67.1989,-27.8114z"/>
  <path class="fil5" d="M1160.49 1148.37c-10.3087,-10.311 -24.5658,-16.6831 -40.3323,-16.6831 -15.7713,0 -30.026,6.37205 -40.3347,16.6807 -10.311,10.3099 -16.6819,24.5669 -16.6819,40.3359 0,15.7665 6.37205,30.0272 16.6831,40.337 10.3075,10.311 24.5634,16.6831 40.3335,16.6831 15.7654,0 30.0225,-6.37441 40.3323,-16.6843 10.3099,-10.3122 16.6831,-24.5693 16.6831,-40.3359 0,-15.7665 -6.37205,-30.0236 -16.6831,-40.3335z"/>
  <path class="fil6" d="M503.816 1458.82c-12.9862,1.89921 -25.0571,-7.09016 -26.9563,-20.0776 -1.89803,-12.9874 7.09134,-25.0571 20.0776,-26.9563 17.3209,-2.59488 217.993,-36.6331 218.615,-36.7429 12.9366,-2.25827 25.2567,6.39686 27.515,19.3335 2.25709,12.9366 -6.39804,25.2555 -19.3347,27.5138 -0.62126,0.108662 -200.343,33.9981 -219.917,36.9296z"/>
  <path class="fil6" d="M637.745 1526.06c0.409843,13.0902 -9.86812,24.0366 -22.9595,24.4465 -13.0913,0.411024 -24.0366,-9.86812 -24.4477,-22.9595l-9.60946 -286.812c-0.409843,-13.0902 9.8693,-24.0366 22.9595,-24.4465 13.0913,-0.411024 24.0378,9.86812 24.4477,22.9595l9.60946 286.812z"/>
  <path class="fil6" d="M833.116 1180c12.9354,-2.00079 25.0477,6.86221 27.0496,19.7988 2.00079,12.9366 -6.86221,25.0477 -19.7988,27.0496l-64.4386 10.141 -42.5221 299.029 -0.00708662 -0.0011811c-1.30866,9.16772 -7.95001,17.1095 -17.4685,19.6134 -40.3701,10.6299 -89.106,11.302 -131.891,-2.3563 -37.7634,-12.0555 -71.1024,-35.0729 -91.0749,-71.9256 -10.4799,-19.3394 -17.661,-36.8587 -22.2638,-54.0626 -4.71733,-17.6291 -6.70158,-34.6004 -6.70158,-52.493l0.0933072 0 0.00354331 -116.255c-0.108662,-11.5831 8.29371,-21.7949 20.0776,-23.6185l265.383 -41.7685c1.07126,-0.245669 2.16378,-0.421654 3.27756,-0.516142l80.282 -12.6354zm-106.272 64.715l-215.342 33.8929 -0.00236221 96.1855 0.0933072 0c0,13.9736 1.48819,26.9977 5.02678,40.2237 3.65315,13.6524 9.51379,27.8551 18.1748,43.8366 13.4941,24.9024 36.8303,40.7126 63.5599,49.2449 28.7858,9.1878 61.2556,10.1173 90.3331,4.94292l38.1567 -268.327z"/>
  <path class="fil6" d="M491.235 1376.44c-12.9874,1.89921 -25.0571,-7.09016 -26.9563,-20.0776 -1.89921,-12.9874 7.09016,-25.0571 20.0776,-26.9563 18.6106,-2.78386 332.575,-53.967 333.52,-54.1619 12.8339,-2.61851 25.3606,5.66221 27.9792,18.4961 2.61851,12.8339 -5.66339,25.3606 -18.4973,27.9792 -0.951969,0.196063 -317.834,51.9851 -336.123,54.7205z"/>
 </g>
</svg>
