<?xml version="1.0" encoding="UTF-8"?>
<!DOCTYPE svg PUBLIC "-//W3C//DTD SVG 1.1//EN" "http://www.w3.org/Graphics/SVG/1.1/DTD/svg11.dtd">
<!-- Creator: CorelDRAW -->
<svg xmlns="http://www.w3.org/2000/svg" xml:space="preserve" width="2048px" height="2048px" style="shape-rendering:geometricPrecision; text-rendering:geometricPrecision; image-rendering:optimizeQuality; fill-rule:evenodd; clip-rule:evenodd"
viewBox="0 0 2048 2048"
 xmlns:xlink="http://www.w3.org/1999/xlink">
 <defs>
  <style type="text/css">
   <![CDATA[
    .fil2 {fill:none}
    .fil6 {fill:none;fill-rule:nonzero}
    .fil1 {fill:#039BE5}
    .fil7 {fill:#327035}
    .fil0 {fill:#4FC3F7}
    .fil5 {fill:#388E3C;fill-rule:nonzero}
    .fil3 {fill:#81D4FA;fill-rule:nonzero}
    .fil8 {fill:#B0BEC5;fill-rule:nonzero}
    .fil4 {fill:white;fill-rule:nonzero}
   ]]>
  </style>
   <clipPath id="id0">
    <path d="M1024 0c565.539,0 1024,458.461 1024,1024 0,565.539 -458.461,1024 -1024,1024 -565.539,0 -1024,-458.461 -1024,-1024 0,-565.539 458.461,-1024 1024,-1024z"/>
   </clipPath>
 </defs>
 <g id="Layer_x0020_1">
  <metadata id="CorelCorpID_0Corel-Layer"/>
  <path class="fil0" d="M1024 0c565.539,0 1024,458.461 1024,1024 0,565.539 -458.461,1024 -1024,1024 -565.539,0 -1024,-458.461 -1024,-1024 0,-565.539 458.461,-1024 1024,-1024z"/>
  <g style="clip-path:url(#id0)">
   <g id="_478223560">
    <g>
     <polygon id="_3807775841" class="fil1" points="634.921,916.413 1770.8,2052.3 1769.88,2051.98 1768.95,2051.71 1768.01,2051.49 1767.07,2051.3 1766.12,2051.16 1765.17,2051.07 1764.23,2051.02 1763.29,2051.02 627.409,915.135 628.348,915.139 629.292,915.188 630.238,915.282 631.184,915.42 632.128,915.603 633.067,915.83 633.999,916.1 "/>
     <polygon id="_380775712" class="fil1" points="677.937,865.926 1813.82,2001.81 1812.9,2001.5 1811.96,2001.23 1811.03,2001 1810.08,2000.82 1809.14,2000.68 1808.19,2000.58 1807.25,2000.54 1806.31,2000.53 670.426,864.649 671.365,864.653 672.309,864.702 673.255,864.797 674.201,864.935 675.145,865.117 676.084,865.344 677.014,865.613 "/>
     <polygon id="_380784760" class="fil1" points="1342.28,907.274 2478.16,2043.16 2719.88,2330.56 1584,1194.68 "/>
     <polygon id="_380764384" class="fil1" points="641.391,920.292 1777.27,2056.17 1776.3,2055.35 1775.28,2054.6 1774.22,2053.92 1773.11,2053.3 1771.97,2052.76 1770.8,2052.3 634.921,916.413 636.09,916.881 637.231,917.422 638.337,918.034 639.402,918.716 640.423,919.469 "/>
     <path id="_380770960" class="fil1" d="M1782.95 2068.04l0 0zm-1135.88 -1135.88l0 0z"/>
     <polygon id="_380777344" class="fil1" points="627.409,915.135 1763.29,2051.02 1762.39,2051.06 1761.51,2051.14 1760.63,2051.27 1759.76,2051.43 1758.92,2051.65 1758.08,2051.91 1757.27,2052.21 1756.48,2052.56 620.6,916.673 621.39,916.326 622.202,916.024 623.034,915.766 623.884,915.552 624.748,915.383 625.624,915.257 626.513,915.174 "/>
     <polygon id="_380760880" class="fil1" points="620.6,916.673 1756.48,2052.56 1755.63,2053 1754.81,2053.51 1754.02,2054.09 1753.28,2054.73 1752.58,2055.44 1751.93,2056.21 1751.34,2057.06 1750.79,2057.97 1750.3,2058.95 1749.88,2060 1749.52,2061.13 1749.23,2062.32 1749.01,2063.59 1748.87,2064.92 1748.8,2066.33 1748.82,2067.82 612.939,931.937 612.922,930.452 612.986,929.042 613.13,927.703 613.348,926.439 613.64,925.244 613.999,924.122 614.423,923.07 614.91,922.087 615.454,921.174 616.053,920.331 616.702,919.555 617.4,918.845 618.143,918.204 618.925,917.629 619.746,917.118 "/>
     <polygon id="_380790712" class="fil1" points="612.939,931.937 1748.82,2067.82 1748.75,2068.96 1748.46,2070.04 1747.98,2071.02 1747.32,2071.89 1746.51,2072.61 1745.57,2073.17 1744.52,2073.54 1743.38,2073.7 607.5,937.82 608.637,937.66 609.687,937.288 610.628,936.728 611.438,936.004 612.097,935.14 612.582,934.157 612.87,933.082 "/>
     <polygon id="_380784280" class="fil1" points="607.5,937.82 1743.38,2073.7 1742.24,2073.63 1741.16,2073.34 1740.18,2072.86 1739.31,2072.2 603.432,936.318 604.297,936.977 605.279,937.462 606.355,937.75 "/>
     <polygon id="_380761264" class="fil1" points="649.327,912.145 1785.21,2048.03 1786.69,2049.5 1788.07,2051.09 1789.34,2052.79 1790.48,2054.61 1791.5,2056.53 1792.37,2058.56 1793.1,2060.7 1793.66,2062.95 1794.07,2065.3 1794.29,2067.75 658.408,931.87 658.184,929.415 657.784,927.064 657.215,924.818 656.489,922.679 655.614,920.646 654.599,918.724 653.455,916.911 652.188,915.209 650.809,913.62 "/>
     <polygon id="_380776552" class="fil1" points="658.408,931.87 1794.29,2067.75 1794.3,2068.04 658.415,932.159 "/>
     <polygon id="_380761528" class="fil1" points="658.431,932.159 1794.31,2068.04 1794.31,2099.35 658.431,963.472 "/>
     <polygon id="_380775472" class="fil1" points="684.408,869.805 1820.29,2005.69 1819.32,2004.86 1818.3,2004.11 1817.23,2003.43 1816.13,2002.82 1814.99,2002.28 1813.82,2001.81 677.937,865.926 679.106,866.394 680.247,866.935 681.352,867.546 682.419,868.23 683.438,868.983 "/>
     <path id="_380777704" class="fil1" d="M1825.96 2017.55l0 0zm-1135.88 -1135.88l0 0z"/>
     <polygon id="_380762584" class="fil1" points="670.426,864.649 1806.31,2000.53 1805.41,2000.57 1804.52,2000.65 1803.65,2000.78 1802.78,2000.95 1801.93,2001.16 1801.1,2001.42 1800.29,2001.72 1799.5,2002.07 663.617,866.187 664.407,865.84 665.219,865.537 666.05,865.28 666.899,865.066 667.764,864.897 668.641,864.771 669.53,864.688 "/>
     <polygon id="_380774920" class="fil1" points="663.617,866.187 1799.5,2002.07 1798.64,2002.51 1797.82,2003.02 1797.04,2003.6 1796.3,2004.24 1795.6,2004.95 1794.95,2005.73 1794.35,2006.57 1793.81,2007.48 1793.32,2008.47 1792.9,2009.52 1792.54,2010.64 1792.25,2011.83 1792.03,2013.1 1791.88,2014.44 1791.82,2015.85 1791.84,2017.33 655.956,881.45 655.939,879.966 656.002,878.555 656.147,877.217 656.365,875.952 656.656,874.758 657.016,873.636 657.44,872.584 657.926,871.602 658.47,870.689 659.07,869.845 659.719,869.069 660.417,868.36 661.159,867.718 661.942,867.142 662.763,866.632 "/>
     <polygon id="_380787712" class="fil1" points="655.956,881.45 1791.84,2017.33 1791.77,2018.48 1791.48,2019.55 1790.99,2020.54 1790.34,2021.4 1789.52,2022.13 1788.58,2022.68 1787.53,2023.06 1786.4,2023.22 650.517,887.333 651.654,887.174 652.704,886.802 653.644,886.243 654.455,885.518 655.113,884.653 655.597,883.671 655.886,882.596 "/>
     <polygon id="_380764144" class="fil1" points="650.517,887.333 1786.4,2023.22 1785.25,2023.15 1784.18,2022.86 1783.19,2022.37 1782.33,2021.71 646.449,885.832 647.313,886.491 648.296,886.975 649.372,887.264 "/>
     <polygon id="_380767960" class="fil1" points="692.343,861.659 1828.22,1997.54 1829.71,1999.02 1831.08,2000.6 1832.35,2002.31 1833.5,2004.12 1834.51,2006.04 1835.39,2008.07 1836.11,2010.21 1836.68,2012.46 1837.08,2014.81 1837.31,2017.27 701.424,881.383 701.2,878.929 700.799,876.577 700.231,874.332 699.505,872.192 698.63,870.16 697.615,868.237 696.471,866.424 695.203,864.722 693.825,863.134 "/>
     <polygon id="_380774344" class="fil1" points="701.424,881.383 1837.31,2017.27 1837.31,2017.55 701.432,881.672 "/>
     <polygon id="_380784904" class="fil1" points="701.448,881.672 1837.33,2017.55 1837.33,2048.2 701.448,912.318 "/>
     <polygon id="_380771416" class="fil1" points="1584,1194.68 2719.88,2330.56 1599.88,2330.56 463.999,1194.68 "/>
    </g>
    <path id="_478224760" class="fil1" d="M647.066 932.159l0 0zm43.017 -50.4863l0 0zm72.7182 25.5331c174.204,-0.244488 348.19,-0.298819 522.397,0l9.51733 -0.0011811 4.58268 0.0011811 42.9768 0.068504 241.726 287.407 -1120 0 183.064 -217.69 0.00354331 -44.8323c-0.542126,-8.01969 -5.84056,-13.4445 -12.1453,-15.7453 -2.4437,-0.892914 -5.01733,-1.32874 -7.51182,-1.27795 -2.39882,0.0472441 -4.73386,0.552756 -6.80906,1.5378 -4.63937,2.20158 -7.9819,7.14922 -7.66064,15.2634 0.122835,3.12638 -2.3126,5.76024 -5.43898,5.88308 -3.12638,0.122835 -5.76142,-2.3126 -5.88426,-5.43898 -0.531496,-13.4339 5.62796,-21.9225 14.1437,-25.9654 3.51614,-1.6689 7.43268,-2.52166 11.4284,-2.60315 3.89882,-0.0767717 7.87087,0.584646 11.5961,1.9441 10.2874,3.75591 18.9142,12.7465 19.624,26.1142l0.00708662 0.288189 0.0153543 0 0 31.3134 31.6488 -37.6347 0.00354331 -44.165c-0.543308,-8.01969 -5.84056,-13.4445 -12.1465,-15.7465 -2.4437,-0.891733 -5.01615,-1.32638 -7.51064,-1.27677 -2.39882,0.0484252 -4.73504,0.551575 -6.80906,1.5378 -4.63937,2.20276 -7.98308,7.14922 -7.66064,15.2634 0.121654,3.12638 -2.3126,5.76142 -5.43898,5.88308 -3.12756,0.122835 -5.76142,-2.3126 -5.88426,-5.43898 -0.532678,-13.4339 5.62678,-21.9225 14.1449,-25.9654 3.51378,-1.6689 7.4315,-2.52166 11.426,-2.60197 3.90118,-0.0791339 7.87205,0.583465 11.5961,1.94291 10.2874,3.75591 18.9142,12.7465 19.624,26.113l0.00826772 0.28937 0.0153543 0 0 30.6461 4.24252 -5.04449 43.0075 -0.0625985 4.55079 -0.00708662 9.55276 0.0011811z"/>
   </g>
  </g>
  <path class="fil2" d="M1024 0c565.539,0 1024,458.461 1024,1024 0,565.539 -458.461,1024 -1024,1024 -565.539,0 -1024,-458.461 -1024,-1024 0,-565.539 458.461,-1024 1024,-1024z"/>
  <path class="fil3" d="M1285.2 907.205l155.518 210.082c-279.821,1.95945 -553.613,1.95945 -833.434,0l155.518 -210.082c174.203,-0.244488 348.19,-0.298819 522.397,0z"/>
  <path class="fil4" d="M1116.27 956.952l-0.0661418 -0.153543 -0.112205 -0.243307c-0.22441,-0.486615 -0.543308,-0.955513 -0.865749,-1.38425l-0.112205 -0.142913 -0.0874016 -0.103937 -0.0921261 -0.106299 -0.132284 -0.147638c-0.882284,-0.959056 -1.97717,-1.6689 -3.20788,-2.09291l-0.10748 -0.0389764 -0.198425 -0.0614174 -0.206693 -0.0602363 -0.19252 -0.0496063 -0.22441 -0.0519685 -0.18189 -0.0366142 -0.186614 -0.034252 -0.209055 -0.0318898 -0.173622 -0.0212599 -0.209055 -0.022441 -0.214961 -0.0153543 -0.183071 -0.00944883 -0.185433 -0.00472441 -0.200788 0 -0.190158 0.00472441 -0.238583 0.0129921 -0.191339 0.0153543 -0.209055 0.022441 -0.155906 0.0200788 -0.200788 0.0318898 -0.196063 0.034252 -0.190158 0.0401575c-0.0625985,0.0141732 -0.122835,0.0283465 -0.187795,0.0425197 -0.0448819,0.0129921 -0.0885827,0.022441 -0.133465,0.034252 -0.0720473,0.0212599 -0.145276,0.0401575 -0.217323,0.0614174l-0.259843 0.0814961 -0.190158 0.0649607 -0.121654 0.0448819c-1.03583,0.386221 -1.96063,0.990946 -2.75079,1.76221l-0.170079 0.173622 -0.0401575 0.0425197 -0.122835 0.133465 -0.11811 0.135827 -0.185433 0.222047c-0.324803,0.387402 -0.597638,0.817323 -0.820867,1.27205l-0.126378 0.257481c-0.164173,0.347244 -0.298819,0.713386 -0.418111,1.07835 -2.19921,6.70512 -6.6815,12.3496 -12.463,16.3394 -6.18426,4.26851 -13.5886,6.4193 -21.0827,6.4193 -7.48819,0 -14.8866,-2.14606 -21.0662,-6.4063 -5.80748,-4.00394 -10.298,-9.67678 -12.5091,-16.4008 -0.0720473,-0.219685 -0.148819,-0.43937 -0.238583,-0.651969 -0.0507874,-0.125197 -0.108662,-0.249213 -0.166536,-0.372048l-0.0755906 -0.154725 -0.121654 -0.233858c-0.135827,-0.259843 -0.317717,-0.525591 -0.485433,-0.775985l-0.0814961 -0.114567 -0.121654 -0.159449 -0.0767717 -0.0968505 -0.101575 -0.125197 -0.12874 -0.15c-0.901182,-1.02756 -2.03858,-1.78937 -3.32953,-2.23465l-0.119291 -0.0401575 -0.19252 -0.0602363 -0.197244 -0.0578741 -0.209055 -0.0543308 -0.21378 -0.0484252 -0.186614 -0.0389764 -0.183071 -0.0318898 -0.218504 -0.034252 -0.18189 -0.0236221 -0.183071 -0.0177165 -0.210236 -0.0153543 -0.196063 -0.0106299 -0.188977 -0.00472441 -0.199606 0 -0.190158 0.00472441 -0.198425 0.0106299 -0.0531496 0.00354331 -0.191339 0.0153543 -0.196063 0.0212599 -0.155906 0.0200788 -0.200788 0.0307087 -0.206693 0.0377953 -0.167717 0.034252 -0.19252 0.0448819 -0.220866 0.056693c-0.0496063,0.0141732 -0.0992127,0.0271654 -0.147638,0.0425197l-0.242126 0.0755906 -0.229134 0.0791339c-1.11378,0.416929 -2.12953,1.05354 -2.95748,1.91221l-0.173622 0.185433 -0.127559 0.144095 -0.0590552 0.0696851 -0.109843 0.133465c-0.134646,0.165354 -0.269292,0.337796 -0.386221,0.517323l-0.0283465 0.0437008c-0.0649607,0.0992127 -0.131102,0.198425 -0.191339,0.3l-0.0248032 0.0413386 -0.0980316 0.166536 -0.0944883 0.173622 -0.115748 0.222047c-0.199606,0.383859 -0.350788,0.818505 -0.485433,1.22717 -2.18977,6.68977 -6.68268,12.3095 -12.4524,16.2886 -6.17953,4.26142 -13.5791,6.41221 -21.0673,6.41221 -7.49646,0 -14.9043,-2.15197 -21.0921,-6.4193 -4.87087,-3.35906 -8.80985,-7.92048 -11.2736,-13.3063l-0.542126 -1.18583 -0.131102 -1.29685c-0.307087,-3.0378 -2.74607,-4.77284 -5.4626,-5.69528l-0.0944883 -0.0330709c-1.62992,-0.491339 -3.33544,-0.549213 -4.96418,-0.0129921 -2.39764,0.788977 -4.23662,2.65158 -5.02323,5.04213 -2.53937,7.71379 -5.97638,11.9764 -12.515,16.4894 -6.13701,4.23544 -13.6453,6.41812 -21.0827,6.41812 -7.43623,0 -14.928,-2.17559 -21.0662,-6.4063 -6.46182,-4.45512 -9.97796,-8.60079 -12.463,-16.265 -0.796064,-2.45669 -2.61378,-4.43032 -5.09174,-5.24646 -1.62165,-0.533859 -3.32126,-0.496063 -4.9441,0.00826772l-0.0720473 0.0248032c-2.72953,0.918898 -5.19922,2.6563 -5.50867,5.70945l-0.131102 1.30394 -0.546851 1.19055c-2.46851,5.37402 -6.41221,9.92245 -11.2736,13.2744 -6.18071,4.26024 -13.5791,6.4063 -21.0662,6.4063 -3.39095,0 -6.79725,-0.396851 -10.0689,-1.29567 -3.21614,-0.882284 -6.30119,-2.21811 -9.16064,-3.93189 -3.69567,-2.21221 -8.52757,-0.992127 -10.7374,2.70118 -2.21339,3.69922 -0.990946,8.52993 2.70355,10.7433 4.09134,2.45079 8.52048,4.31811 13.1173,5.58071 4.6004,1.26378 9.37087,1.96299 14.1461,1.96299 10.6819,0 21.1748,-3.21851 29.974,-9.28465 2.04921,-1.41378 3.99685,-2.9752 5.81693,-4.67363l5.46615 -5.1 5.38111 5.19213c1.72441,1.66536 3.57638,3.21969 5.55,4.5815 8.84646,6.09804 19.2378,9.28465 29.9752,9.28465 10.7386,0 21.1406,-3.1878 29.9847,-9.29174 1.97008,-1.36063 3.81969,-2.91378 5.54056,-4.57796l5.38111 -5.19922 5.47087 5.10473c1.81772,1.69725 3.76181,3.25748 5.80748,4.67008 8.80512,6.07323 19.3075,9.2941 29.9965,9.2941 10.6807,0 21.1772,-3.22205 29.9717,-9.28938 2.01851,-1.39134 3.93662,-2.92796 5.73189,-4.59567l5.36457 -4.98544 5.36339 4.98426c1.79882,1.67244 3.71929,3.20788 5.74016,4.60158 8.8004,6.06615 19.2921,9.28465 29.9752,9.28465 10.6866,0 21.1831,-3.21733 29.9835,-9.29174 2.02087,-1.39488 3.94016,-2.93386 5.73898,-4.6063l5.36575 -4.99016 5.36693 4.99016c1.79764,1.67244 3.71929,3.21142 5.74134,4.6063 8.80158,6.07205 19.298,9.29174 29.9847,9.29174 4.62874,0 9.24922,-0.63189 13.7209,-1.81772 4.46339,-1.18228 8.7567,-2.9752 12.7595,-5.27717 3.73583,-2.14961 5.03268,-6.92835 2.88425,-10.6677 -2.14725,-3.73583 -6.92835,-5.03032 -10.6642,-2.88189 -2.80276,1.60984 -5.82402,2.82166 -8.94568,3.64843 -3.17717,0.843308 -6.47008,1.23543 -9.75473,1.23543 -7.49292,0 -14.8961,-2.14843 -21.0803,-6.41575 -5.83465,-4.0252 -10.3075,-9.74056 -12.535,-16.4894 -0.0696851,-0.211417 -0.153543,-0.421654 -0.23504,-0.629528z"/>
  <path class="fil4" d="M1197.29 1020.35l-0.137008 -0.296457c-0.256299,-0.5563 -0.601182,-1.07835 -0.972048,-1.5626l-0.0153543 -0.0200788 -0.153543 -0.191339 -0.0874016 -0.106299 -0.105118 -0.122835 -0.153543 -0.170079c-1.01693,-1.10551 -2.27953,-1.92284 -3.69803,-2.41299l-0.125197 -0.0437008 -0.227953 -0.0720473 -0.238583 -0.068504 -0.222047 -0.0578741 -0.257481 -0.0590552 -0.211417 -0.0437008 -0.21378 -0.0377953 -0.242126 -0.0377953 -0.198425 -0.0248032 -0.242126 -0.0248032 -0.248032 -0.0188977 -0.207874 -0.00944883 -0.217323 -0.00590552 -0.230315 0 -0.219685 0.00590552 -0.227953 0.0106299 -0.0614174 0.00472441 -0.220866 0.0188977 -0.225591 0.0236221 -0.180709 0.0236221 -0.231496 0.0354331 -0.236221 0.0437008 -0.200788 0.0413386 -0.237402 0.0555119 -0.230315 0.0590552c-0.0637796,0.0177165 -0.126378,0.0354331 -0.190158,0.0543308l-0.011811 0.00354331c-0.103937,0.0318898 -0.206693,0.0661418 -0.31063,0.0980316 -0.141732,0.0496063 0.0472441,-0.0153543 -0.16063,0.056693l-0.146457 0.0543308c-1.15512,0.429922 -2.23229,1.07835 -3.1004,1.95827l-0.236221 0.240945 -0.168898 0.179528 -0.0578741 0.0649607 -0.137008 0.157087 -0.121654 0.146457 -0.170079 0.214961c-0.28937,0.370866 -0.549213,0.762993 -0.766536,1.17874l-0.00590552 0.00826772 -0.131102 0.253937 -0.101575 0.207874c-0.190158,0.399213 -0.343701,0.819686 -0.480709,1.2378 -2.5311,7.7315 -7.70316,14.2406 -14.3717,18.8433 -7.12796,4.92048 -15.6638,7.39843 -24.3036,7.39843 -8.6315,0 -17.1602,-2.47323 -24.2847,-7.38544 -6.69567,-4.61575 -11.8701,-11.1567 -14.4213,-18.9071 -0.133465,-0.405118 -0.292914,-0.801969 -0.47126,-1.19055l-0.0838583 -0.170079 -0.140551 -0.270473c-0.0496063,-0.0956694 -0.106299,-0.190158 -0.161811,-0.284646l-0.12874 -0.209055 -0.108662 -0.168898 -0.147638 -0.21378 -0.114567 -0.16063 -0.11811 -0.155906 -0.10748 -0.135827 -0.133465 -0.165354c-1.06299,-1.27677 -2.45079,-2.20394 -4.01929,-2.74016l-0.0814961 -0.0271654 -0.283465 -0.0885827 -0.194882 -0.0555119 -0.21378 -0.0555119 -0.248032 -0.056693 -0.21378 -0.0437008 -0.210236 -0.0377953 -0.252756 -0.0389764 -0.205512 -0.0259843 -0.219685 -0.022441 -0.248032 -0.0188977 -0.214961 -0.0106299 -0.218504 -0.00472441 -0.231496 0 -0.217323 0.00472441 -0.229134 0.011811 -0.0625985 0.00472441 -0.219685 0.0177165 -0.225591 0.0248032 -0.180709 0.0236221 -0.231496 0.0354331 -0.237402 0.0425197 -0.194882 0.0401575 -0.220866 0.0519685 -0.253937 0.0649607c-0.0578741,0.0165354 -0.114567,0.0318898 -0.17126,0.0484252l-0.27874 0.0885827 -0.263386 0.0921261c-1.28622,0.478347 -2.45551,1.21417 -3.40985,2.20276l-0.200788 0.21378 -0.146457 0.166536 -0.068504 0.080315 -0.127559 0.153543c-0.154725,0.191339 -0.309449,0.389764 -0.444095,0.596457l-0.0330709 0.0507874c-0.0732284,0.113386 -0.151181,0.227953 -0.220866,0.344882l-0.0283465 0.0484252 -0.112205 0.191339 -0.109843 0.200788 -0.132284 0.256299c-0.230315,0.440552 -0.405118,0.940158 -0.558662,1.41142 -2.52284,7.71379 -7.70788,14.1945 -14.3587,18.7831 -7.12441,4.91339 -15.6532,7.39253 -24.2858,7.39253 -8.64331,0 -17.1827,-2.47914 -24.3166,-7.39961 -6.71103,-4.63111 -11.8654,-11.2039 -14.4236,-18.9721 -0.0377953,-0.113386 -0.0732284,-0.229134 -0.113386,-0.341339 -0.0484252,-0.115748 -0.0933072,-0.232677 -0.13937,-0.348425l-0.142913 -0.330709c-0.361418,-0.838583 -0.890552,-1.59803 -1.49528,-2.27835l-0.00590552 -0.00708662 -0.161811 -0.172441 -0.080315 -0.0838583 -0.114567 -0.116929 -0.255118 -0.245669c-0.829134,-0.800788 -1.84725,-1.39252 -2.92559,-1.7941l-0.13937 -0.0519685 -0.214961 -0.0732284 -0.305906 -0.0968505c-0.0555119,-0.0153543 -0.111024,-0.0307087 -0.166536,-0.046063l-0.274016 -0.0708662c-0.0590552,-0.0141732 -0.119291,-0.0271654 -0.178347,-0.0413386l-0.217323 -0.0448819 -0.243307 -0.0425197 -0.216142 -0.034252 -0.229134 -0.0295276 -0.212599 -0.0212599 -0.238583 -0.0188977 -0.240945 -0.011811 -0.214961 -0.00590552 -0.229134 0 -0.229134 0.00590552 -0.0862205 0.00354331 -0.187795 0.011811 -0.193701 0.0153543 -0.262205 0.0271654 -0.178347 0.0236221 -0.229134 0.0354331 -0.238583 0.0437008 -0.200788 0.0413386 -0.237402 0.0555119 -0.230315 0.0590552c-0.0637796,0.0177165 -0.126378,0.0354331 -0.190158,0.0543308l-0.011811 0.00354331c-0.103937,0.0318898 -0.207874,0.0661418 -0.31063,0.0980316 -0.141732,0.0496063 0.0472441,-0.0153543 -0.16063,0.056693l-0.146457 0.0543308c-1.18347,0.440552 -2.25118,1.12087 -3.14764,2.00788l-0.0307087 0.0295276 -0.167717 0.17126 -0.0862205 0.0921261 -0.125197 0.137008c-0.597638,0.670867 -1.12087,1.42441 -1.47756,2.25236l-0.147638 0.341339c-0.046063,0.115748 -0.090945,0.231496 -0.138189,0.347244 -0.0401575,0.109843 -0.0755906,0.225591 -0.111024,0.336614 -2.55709,7.7693 -7.70788,14.3445 -14.4189,18.9768 -7.12914,4.92048 -15.6638,7.39843 -24.3036,7.39843 -8.6315,0 -17.1602,-2.47323 -24.2858,-7.38544 -6.6567,-4.58977 -11.85,-11.0681 -14.3788,-18.7854 -0.190158,-0.583465 -0.420473,-1.16221 -0.709843,-1.70433l-0.15 -0.266929 -0.0602363 -0.102756 -0.111024 -0.179528 -0.121654 -0.187795 -0.125197 -0.18189 -0.13937 -0.19252 -0.0555119 -0.0744095 -0.122835 -0.157087 -0.120473 -0.15 -0.145276 -0.170079c-1.05945,-1.17638 -2.35866,-2.08347 -3.86103,-2.60079l-0.137008 -0.0472441 -0.222047 -0.0696851 -0.227953 -0.0661418 -0.240945 -0.0625985 -0.246851 -0.056693 -0.214961 -0.0437008 -0.210236 -0.0377953 -0.252756 -0.0389764 -0.210236 -0.0259843 -0.211417 -0.0212599 -0.238583 -0.0188977 -0.229134 -0.011811 -0.216142 -0.00472441 -0.232677 0 -0.214961 0.00472441 -0.230315 0.011811 -0.0673229 0.00472441 -0.223229 0.0188977 -0.227953 0.0248032 -0.204331 0.0271654 -0.232677 0.0366142 -0.22441 0.0413386 -0.206693 0.0437008 -0.194882 0.046063 -0.255118 0.0661418 -0.225591 0.0649607 -0.216142 0.068504 -0.134646 0.046063c-1.52599,0.525591 -2.83937,1.45158 -3.90827,2.65394l0.0011811 -0.0011811c-0.0283465,0.0330709 -0.0496063,0.0590552 -0.0744095,0.0885827l-0.170079 0.211417 -0.153543 0.199606 -0.167717 0.23504 -0.120473 0.177165 -0.10748 0.165354 -0.0992127 0.161811 -0.0968505 0.164173 -0.115748 0.207874c-0.28937,0.542126 -0.518504,1.12087 -0.709843,1.70433 -2.52874,7.71733 -7.72205,14.1957 -14.3788,18.7854 -7.12441,4.91221 -15.6532,7.38544 -24.2847,7.38544 -1.72914,0 -3.46063,-0.0874016 -5.17796,-0.290551 -1.70315,-0.201969 -3.42048,-0.467717 -5.08937,-0.870473 -4.82599,-1.16575 -9.72875,1.82362 -10.8969,6.64843 -1.16693,4.82363 1.82362,9.72757 6.64725,10.8945 2.37638,0.574016 4.79528,1.05118 7.22363,1.34055 2.4189,0.287008 4.8567,0.447638 7.29331,0.447638 12.3142,0 24.4099,-3.71103 34.5544,-10.7043 2.3315,-1.60748 4.54725,-3.3815 6.62126,-5.30906l6.18544 -5.74961 6.18426 5.74961c2.07402,1.92756 4.29095,3.70158 6.62245,5.30906 10.1433,6.99331 22.239,10.7043 34.5544,10.7043 12.3189,0 24.4205,-3.70985 34.565,-10.7114 2.32914,-1.60748 4.54134,-3.38032 6.61418,-5.3067l6.18544 -5.75315 6.18544 5.75197c2.07166,1.92638 4.28504,3.69803 6.613,5.30433 10.1492,7.00276 22.2579,10.715 34.5803,10.715 12.3118,0 24.411,-3.71339 34.5508,-10.7091 2.32677,-1.60512 4.53898,-3.37677 6.60945,-5.30079l6.18426 -5.74843 6.18544 5.74843c2.07284,1.92638 4.2874,3.69922 6.61772,5.30552 10.1445,6.99331 22.239,10.7043 34.5544,10.7043 12.3201,0 24.4205,-3.70985 34.5662,-10.7114 2.32914,-1.60748 4.54252,-3.38268 6.61536,-5.31142l6.18544 -5.75434 6.18662 5.75315c2.0752,1.92992 4.29213,3.70512 6.62363,5.31378 10.1457,7.0004 22.2461,10.7102 34.5662,10.7102 2.38465,0 4.77284,-0.162992 7.14095,-0.437008 2.38465,-0.277559 4.75276,-0.69567 7.09134,-1.24134 4.85433,-1.13268 7.90512,-6.02481 6.77363,-10.8815 -1.13032,-4.85315 -6.02481,-7.90158 -10.878,-6.77008 -1.65,0.38504 -3.32244,0.689764 -5.00788,0.885827 -1.69725,0.196063 -3.41103,0.274016 -5.12008,0.274016 -8.63859,0 -17.1732,-2.47677 -24.3024,-7.39489 -6.71457,-4.63229 -11.8784,-11.2039 -14.439,-18.9756 -0.0673229,-0.204331 -0.137008,-0.424016 -0.223229,-0.622441l-0.12874 -0.3z"/>
  <polygon class="fil5" points="1446.15,1127.38 1457.16,1127.31 1450.62,1118.47 1294.72,907.204 1342.28,907.274 1584,1194.68 464,1194.68 705.69,907.274 753.249,907.204 597.383,1118.47 590.842,1127.31 601.851,1127.38 "/>
  <path class="fil6" d="M1023.89 1063.28c0.0744095,0.178347 0.146457,0.356693 0.216142,0.537402"/>
  <path class="fil7" d="M607.283 1117.29l155.518 -210.082 -14.1 0 -157.152 212.29 -6.63071 8.95749 11.1602 0.0791339c287.344,2.01142 568.498,2.01142 855.842,0l11.1602 -0.0791339 -6.63071 -8.95749 -157.152 -212.29 -14.1 0 155.518 210.082c-279.821,1.95945 -553.613,1.95945 -833.434,0z"/>
  <path class="fil8" d="M612.939 931.935c0.122835,3.12756 -2.3126,5.76142 -5.43898,5.88426 -3.12638,0.122835 -5.76142,-2.3126 -5.88426,-5.43898 -0.532678,-13.4339 5.62796,-21.9225 14.1449,-25.9654 3.51496,-1.6689 7.4315,-2.52166 11.426,-2.60315 3.90118,-0.0779528 7.87205,0.584646 11.5973,1.9441 10.2874,3.75591 18.9142,12.7465 19.624,26.113l0.00708662 0.28937 0.0153543 0 0 136.403c0,3.13937 -2.54528,5.68465 -5.68465,5.68465 -3.13819,0 -5.68347,-2.54528 -5.68347,-5.68465l0 -136.403 0.00354331 0c-0.542126,-8.01969 -5.84056,-13.4445 -12.1453,-15.7465 -2.44488,-0.891733 -5.01733,-1.32756 -7.51182,-1.27677 -2.39882,0.0484252 -4.73386,0.552756 -6.80906,1.5378 -4.63937,2.20276 -7.98308,7.14922 -7.66064,15.2622z"/>
  <path class="fil8" d="M655.956 881.45c0.122835,3.12638 -2.3126,5.76024 -5.43898,5.88308 -3.12638,0.122835 -5.76142,-2.3126 -5.88426,-5.43898 -0.532678,-13.4339 5.62678,-21.9225 14.1437,-25.9654 3.51496,-1.6689 7.43268,-2.52166 11.4272,-2.60197 3.9,-0.0791339 7.87205,0.583465 11.5961,1.94291 10.2874,3.75591 18.9142,12.7465 19.624,26.113l0.00826772 0.28937 0.0153543 0 0 136.404c0,3.13819 -2.54528,5.68347 -5.68465,5.68347 -3.13937,0 -5.68347,-2.54528 -5.68347,-5.68347l0 -136.404 0.00354331 0c-0.543308,-8.01969 -5.84056,-13.4445 -12.1465,-15.7465 -2.4437,-0.891733 -5.01615,-1.32638 -7.51064,-1.27677 -2.4,0.0484252 -4.73504,0.552756 -6.80906,1.5378 -4.63937,2.20276 -7.98308,7.14922 -7.66064,15.2634z"/>
 </g>
</svg>
