<?xml version="1.0" encoding="UTF-8"?>
<!DOCTYPE svg PUBLIC "-//W3C//DTD SVG 1.1//EN" "http://www.w3.org/Graphics/SVG/1.1/DTD/svg11.dtd">
<!-- Creator: CorelDRAW -->
<svg xmlns="http://www.w3.org/2000/svg" xml:space="preserve" width="2048px" height="2048px" style="shape-rendering:geometricPrecision; text-rendering:geometricPrecision; image-rendering:optimizeQuality; fill-rule:evenodd; clip-rule:evenodd"
viewBox="0 0 2048 2048"
 xmlns:xlink="http://www.w3.org/1999/xlink">
 <defs>
  <style type="text/css">
   <![CDATA[
    .fil2 {fill:none}
    .fil1 {fill:#757575}
    .fil0 {fill:#BDBDBD}
    .fil8 {fill:#DEE9E9}
    .fil7 {fill:#E98603}
    .fil4 {fill:#F3FFFF}
    .fil3 {fill:#FF9100}
    .fil9 {fill:#3F3F3F;fill-rule:nonzero}
    .fil5 {fill:#424242;fill-rule:nonzero}
    .fil10 {fill:#C30303;fill-rule:nonzero}
    .fil6 {fill:#D50000;fill-rule:nonzero}
   ]]>
  </style>
   <clipPath id="id0">
    <path d="M1024 0c565.539,0 1024,458.461 1024,1024 0,565.539 -458.461,1024 -1024,1024 -565.539,0 -1024,-458.461 -1024,-1024 0,-565.539 458.461,-1024 1024,-1024z"/>
   </clipPath>
 </defs>
 <g id="Layer_x0020_1">
  <metadata id="CorelCorpID_0Corel-Layer"/>
  <path class="fil0" d="M1024 0c565.539,0 1024,458.461 1024,1024 0,565.539 -458.461,1024 -1024,1024 -565.539,0 -1024,-458.461 -1024,-1024 0,-565.539 458.461,-1024 1024,-1024z"/>
  <g style="clip-path:url(#id0)">
   <g id="_478222864">
    <g>
     <polygon id="_3968141921" class="fil1" points="1583.65,464 2719.53,1599.88 2719.53,2462.67 1583.65,1326.79 "/>
     <polygon id="_396807424" class="fil1" points="1583.65,1326.79 2719.53,2462.67 2343.46,2462.67 1207.58,1326.79 "/>
     <polygon id="_396819040" class="fil1" points="1148.7,1404.07 2284.58,2539.96 2186.74,2539.96 1050.86,1404.07 "/>
     <polygon id="_396810880" class="fil1" points="1209.8,1478.4 2345.68,2614.28 2346.02,2617.02 2346.08,2619.72 2345.87,2622.37 2345.4,2624.96 2344.69,2627.47 2343.74,2629.88 2342.57,2632.19 2341.19,2634.37 2339.61,2636.41 2337.84,2638.29 2335.89,2639.99 2333.77,2641.52 2331.49,2642.83 2329.06,2643.93 2326.5,2644.79 2323.82,2645.4 1187.94,1509.51 1190.62,1508.9 1193.18,1508.04 1195.61,1506.95 1197.88,1505.63 1200.01,1504.11 1201.96,1502.4 1203.73,1500.52 1205.31,1498.49 1206.69,1496.31 1207.86,1494 1208.81,1491.59 1209.52,1489.08 1209.98,1486.49 1210.19,1483.83 1210.14,1481.13 "/>
     <polygon id="_396824536" class="fil1" points="1187.94,1509.51 2323.82,2645.4 2321.09,2645.73 2318.39,2645.79 2315.74,2645.58 2313.15,2645.11 2310.64,2644.4 2308.22,2643.46 2305.92,2642.29 2303.74,2640.91 2301.7,2639.33 1165.82,1503.44 1167.86,1505.03 1170.04,1506.41 1172.34,1507.58 1174.76,1508.52 1177.27,1509.23 1179.85,1509.7 1182.51,1509.91 1185.21,1509.85 "/>
     <polygon id="_396802744" class="fil1" points="1207.58,1326.79 2343.46,2462.67 2342.77,2467.32 2342.13,2471.98 2341.54,2476.64 2341,2481.31 2340.5,2485.98 2340.06,2490.66 2339.66,2495.35 2339.31,2500.04 2339.02,2504.74 2338.77,2509.44 2338.57,2514.14 2338.41,2518.86 2338.31,2523.58 2338.26,2528.3 2338.25,2533.03 2338.3,2537.76 2338.39,2542.51 2338.54,2547.25 2338.73,2552 2338.97,2556.76 2339.26,2561.52 2339.6,2566.29 2339.99,2571.07 2340.42,2575.85 2340.91,2580.63 2341.44,2585.42 2342.03,2590.22 2342.66,2595.02 2343.34,2599.83 2344.07,2604.64 2344.85,2609.46 2345.68,2614.28 1209.8,1478.4 1208.97,1473.58 1208.19,1468.76 1207.46,1463.95 1206.78,1459.14 1206.15,1454.34 1205.56,1449.54 1205.03,1444.75 1204.54,1439.96 1204.11,1435.18 1203.72,1430.41 1203.38,1425.64 1203.09,1420.88 1202.85,1416.12 1202.66,1411.37 1202.51,1406.62 1202.42,1401.88 1202.37,1397.15 1202.38,1392.42 1202.43,1387.69 1202.53,1382.98 1202.68,1378.26 1202.89,1373.55 1203.13,1368.85 1203.43,1364.16 1203.78,1359.47 1204.17,1354.78 1204.62,1350.1 1205.12,1345.43 1205.66,1340.76 1206.25,1336.1 1206.89,1331.44 "/>
     <polygon id="_396826000" class="fil1" points="842.971,1326.79 1978.85,2462.67 1600.24,2462.67 464.354,1326.79 "/>
     <polygon id="_396813544" class="fil1" points="901.855,1404.07 2037.74,2539.96 2037.69,2542.55 2037.62,2545.14 2037.55,2547.74 2037.46,2550.33 2037.36,2552.93 2037.24,2555.53 2037.11,2558.13 2036.97,2560.73 2036.81,2563.33 2036.64,2565.94 2036.46,2568.54 2036.27,2571.15 2036.06,2573.76 2035.84,2576.36 2035.61,2578.97 2035.36,2581.59 2035.1,2584.2 2034.82,2586.81 2034.54,2589.43 2034.24,2592.04 2033.92,2594.66 2033.6,2597.28 2033.26,2599.9 2032.9,2602.52 2032.54,2605.14 2032.16,2607.77 2031.76,2610.39 2031.36,2613.02 2030.94,2615.65 2030.51,2618.27 2030.06,2620.9 2029.6,2623.54 893.721,1487.65 894.179,1485.02 894.625,1482.39 895.058,1479.76 895.477,1477.13 895.882,1474.51 896.275,1471.88 896.655,1469.26 897.021,1466.64 897.374,1464.02 897.714,1461.4 898.041,1458.78 898.354,1456.16 898.655,1453.54 898.942,1450.93 899.216,1448.32 899.476,1445.7 899.724,1443.09 899.958,1440.48 900.18,1437.87 900.388,1435.26 900.583,1432.66 900.764,1430.05 900.933,1427.45 901.087,1424.85 901.23,1422.25 901.359,1419.65 901.475,1417.05 901.576,1414.45 901.666,1411.85 901.743,1409.26 901.805,1406.67 "/>
     <polygon id="_396812776" class="fil1" points="1024,1584 2159.88,2719.88 2159.87,2719.88 2159.87,2719.88 2159.86,2719.88 2159.86,2719.88 2159.85,2719.88 2159.85,2719.88 2159.84,2719.88 2159.84,2719.88 1023.95,1584 1023.96,1584 1023.97,1584 1023.97,1584 1023.98,1584 1023.98,1584 1023.99,1584 1023.99,1584 "/>
     <polygon id="_396806536" class="fil1" points="1023.95,1584 2159.84,2719.88 2157.08,2719.74 2154.41,2719.34 2151.83,2718.67 2149.36,2717.77 2147.01,2716.64 2144.79,2715.29 2142.72,2713.74 1006.84,1577.86 1008.91,1579.41 1011.13,1580.75 1013.48,1581.89 1015.95,1582.79 1018.53,1583.45 1021.2,1583.86 "/>
     <polygon id="_396815272" class="fil1" points="997.048,1404.07 2132.93,2539.96 2037.74,2539.96 901.855,1404.07 "/>
     <polygon id="_396803944" class="fil1" points="1050.86,1557.09 2186.74,2692.98 2186.6,2695.72 2186.2,2698.39 2185.54,2700.97 2184.63,2703.44 2183.5,2705.79 2182.16,2708.01 2180.61,2710.08 2178.88,2711.99 2176.97,2713.72 2174.9,2715.27 2172.69,2716.62 2170.34,2717.76 2167.87,2718.66 2165.3,2719.33 2162.63,2719.74 2159.88,2719.88 1024,1584 1026.75,1583.86 1029.41,1583.45 1031.99,1582.78 1034.46,1581.87 1036.81,1580.74 1039.02,1579.39 1041.09,1577.84 1043,1576.1 1044.73,1574.19 1046.28,1572.12 1047.62,1569.91 1048.75,1567.56 1049.65,1565.09 1050.32,1562.51 1050.72,1559.84 "/>
     <polygon id="_396812872" class="fil1" points="893.721,1487.65 2029.6,2623.54 2028.99,2626.22 2028.13,2628.78 2027.04,2631.2 2025.72,2633.48 2024.2,2635.6 2022.49,2637.55 2020.61,2639.33 2018.57,2640.91 2016.39,2642.29 2014.09,2643.46 2011.67,2644.4 2009.16,2645.11 2006.58,2645.58 2003.92,2645.79 2001.22,2645.73 1998.49,2645.4 862.611,1509.51 865.342,1509.85 868.042,1509.91 870.694,1509.7 873.283,1509.23 875.793,1508.52 878.208,1507.58 880.514,1506.41 882.693,1505.03 884.731,1503.44 886.612,1501.67 888.32,1499.72 889.84,1497.6 891.155,1495.32 892.25,1492.9 893.111,1490.34 "/>
     <polygon id="_396799072" class="fil1" points="862.611,1509.51 1998.49,2645.4 1995.81,2644.79 1993.25,2643.93 1990.82,2642.83 1988.55,2641.52 1986.42,2639.99 1984.47,2638.29 848.592,1502.4 850.543,1504.11 852.664,1505.63 854.943,1506.95 857.366,1508.04 859.926,1508.9 "/>
     <polygon id="_396811048" class="fil1" points="1050.86,1404.07 2186.74,2539.96 2186.74,2692.98 1050.86,1557.09 "/>
    </g>
    <path id="_478211080" class="fil1" d="M464.354 464l559.645 0 559.647 0 0 862.79 -376.064 0c-7.62284,49.5851 -6.88347,100.123 2.21929,151.612 2.55236,14.628 -7.23426,28.5579 -21.861,31.1114 -14.628,2.55236 -28.5579,-7.23426 -31.1114,-21.861 -4.96181,-28.0725 -7.67363,-55.9335 -8.1319,-83.5796l-97.8343 0 0 153.02c0,14.8441 -12.0225,26.8831 -26.863,26.9079 -0.0153543,0 -0.0295276,0 -0.0448819,0 -14.8595,0 -26.9055,-12.0484 -26.9055,-26.9079l0 -153.02 -95.1934 0c-0.46063,27.6461 -3.17008,55.5071 -8.13426,83.5796 -2.55355,14.6268 -16.4835,24.4134 -31.1103,21.861 -14.628,-2.55355 -24.4158,-16.4835 -21.8622,-31.1114 9.10394,-51.4902 9.8445,-102.027 2.22284,-151.612l-378.617 0 0 -862.79z"/>
   </g>
  </g>
  <path class="fil2" d="M1024 0c565.539,0 1024,458.461 1024,1024 0,565.539 -458.461,1024 -1024,1024 -565.539,0 -1024,-458.461 -1024,-1024 0,-565.539 458.461,-1024 1024,-1024z"/>
  <rect class="fil3" x="464.354" y="464" width="1119.29" height="862.79"/>
  <rect class="fil4" x="522.651" y="522.296" width="1002.7" height="746.198"/>
  <path class="fil5" d="M647.311 1054.28c-14.8595,0 -26.9067,-12.0473 -26.9067,-26.9067 0,-14.8595 12.0473,-26.9067 26.9067,-26.9067l372.343 0c1.40079,-0.22441 2.83701,-0.343701 4.30158,-0.343701 1.46339,0 2.89961,0.119291 4.3004,0.343701l372.434 0c14.8595,0 26.9067,12.0473 26.9067,26.9067 0,14.8595 -12.0473,26.9067 -26.9067,26.9067l-60.1477 0c-0.43937,0.629528 -0.910631,1.24488 -1.4126,1.84488 -56.5548,67.5414 -95.5536,136.527 -116.994,206.952 -21.2551,69.8209 -25.3677,141.597 -12.3343,215.323 2.55355,14.628 -7.23426,28.5579 -21.861,31.1114 -14.628,2.55236 -28.5579,-7.23426 -31.1114,-21.861 -4.96181,-28.0736 -7.67363,-55.9323 -8.1319,-83.5796l-97.8343 0 0 153.02c0,14.8606 -12.0473,26.9079 -26.9067,26.9079 -14.8606,0 -26.9079,-12.0473 -26.9079,-26.9079l0 -153.02 -95.1922 0c-0.46063,27.6461 -3.17126,55.5059 -8.13426,83.5796 -2.55355,14.6268 -16.4835,24.4134 -31.1103,21.861 -14.628,-2.55355 -24.4146,-16.4835 -21.8622,-31.1114 13.0358,-73.7268 8.92442,-145.5 -12.3307,-215.319 -21.4406,-70.4256 -60.4418,-139.413 -116.998,-206.956 -0.501969,-0.6 -0.972048,-1.21536 -1.4126,-1.84488l-62.6965 0zm252.571 295.976l97.1658 0 0 -53.9363 -105.018 0c3.59764,17.8854 6.21615,35.8654 7.85197,53.9363zm-21.7323 -107.751l118.898 0 0 -53.4792 -138.889 0c7.66772,17.7012 14.3315,35.5276 19.9914,53.4792zm-46.6134 -107.294l165.512 0 0 -80.9316 -218.476 0c20.1095,26.6717 37.7658,53.6481 52.9642,80.9316zm440.442 -80.9316l-221.116 0 0 80.9316 168.152 0c15.1984,-27.2835 32.8524,-54.2599 52.963,-80.9316zm-79.5851 134.746l-141.53 0 0 53.4792 121.54 0c5.65985,-17.9504 12.3213,-35.7768 19.9902,-53.4792zm-33.8705 107.294l-107.66 0 0 53.9363 99.808 0c1.63583,-18.0721 4.25315,-36.0508 7.85197,-53.9363z"/>
  <path class="fil6" d="M639.932 1054.28c-15.1512,0 -27.4347,-12.2835 -27.4347,-27.4335 0,-15.1512 12.2835,-27.4347 27.4347,-27.4347l768.136 0c15.1512,0 27.4335,12.2835 27.4335,27.4347 0,15.15 -12.2823,27.4335 -27.4335,27.4335l-768.136 0z"/>
  <polygon class="fil7" points="1024,464 1583.65,464 1583.65,1326.79 1024,1326.79 1024,1268.49 1057.7,1242.51 "/>
  <polygon class="fil8" points="1024,522.296 1525.35,522.296 1525.35,1268.49 1024,1268.49 "/>
  <path class="fil9" d="M1024 1000.13c1.44803,0.00236221 2.87008,0.121654 4.2567,0.34252l372.433 0c14.8606,0 26.9079,12.0484 26.9079,26.9079 0,14.8595 -12.0473,26.9079 -26.9079,26.9079l-60.1465 0c-0.43937,0.628347 -0.910631,1.2437 -1.4126,1.84252 -56.5548,67.5426 -95.5536,136.528 -116.994,206.953 -21.2551,69.8209 -25.3677,141.598 -12.3343,215.323 2.55236,14.628 -7.23426,28.5579 -21.861,31.1114 -14.628,2.55236 -28.5579,-7.23426 -31.1114,-21.861 -4.96181,-28.0725 -7.67363,-55.9335 -8.1319,-83.5796l-97.8343 0 0 153.02c0,14.8453 -12.0225,26.8831 -26.863,26.9067l0 -583.875zm247.979 54.1583l-221.116 0 0 80.9304 168.152 0c15.1984,-27.2835 32.8524,-54.2599 52.963,-80.9304zm-79.5851 134.745l-141.53 0 0 53.4792 121.54 0c5.65985,-17.9504 12.3213,-35.7768 19.9902,-53.4792zm-33.8705 107.294l-107.66 0 0 53.9363 99.808 0c1.63583,-18.0721 4.25315,-36.0508 7.85197,-53.9363z"/>
  <path class="fil10" d="M1024 999.414l384.07 0c15.15,0 27.4335,12.2835 27.4335,27.4335 0,15.1512 -12.2835,27.4358 -27.4335,27.4358l-384.07 0 0 -54.8693z"/>
 </g>
</svg>
