<?xml version="1.0" encoding="UTF-8"?>
<!DOCTYPE svg PUBLIC "-//W3C//DTD SVG 1.1//EN" "http://www.w3.org/Graphics/SVG/1.1/DTD/svg11.dtd">
<!-- Creator: CorelDRAW -->
<svg xmlns="http://www.w3.org/2000/svg" xml:space="preserve" width="2048px" height="2048px" style="shape-rendering:geometricPrecision; text-rendering:geometricPrecision; image-rendering:optimizeQuality; fill-rule:evenodd; clip-rule:evenodd"
viewBox="0 0 2048 2048"
 xmlns:xlink="http://www.w3.org/1999/xlink">
 <defs>
  <style type="text/css">
   <![CDATA[
    .fil2 {fill:none}
    .fil1 {fill:#43A047}
    .fil0 {fill:#81C784}
    .fil12 {fill:#9C0000;fill-rule:nonzero}
    .fil6 {fill:#B30606;fill-rule:nonzero}
    .fil4 {fill:#C30303;fill-rule:nonzero}
    .fil10 {fill:#C91C1C;fill-rule:nonzero}
    .fil11 {fill:#D50000;fill-rule:nonzero}
    .fil5 {fill:#D58E26;fill-rule:nonzero}
    .fil8 {fill:#D91919;fill-rule:nonzero}
    .fil3 {fill:#E99A26;fill-rule:nonzero}
    .fil9 {fill:#EBA43B;fill-rule:nonzero}
    .fil7 {fill:#FFAF3B;fill-rule:nonzero}
   ]]>
  </style>
   <clipPath id="id0">
    <path d="M1024 0c565.539,0 1024,458.461 1024,1024 0,565.539 -458.461,1024 -1024,1024 -565.539,0 -1024,-458.461 -1024,-1024 0,-565.539 458.461,-1024 1024,-1024z"/>
   </clipPath>
 </defs>
 <g id="Layer_x0020_1">
  <metadata id="CorelCorpID_0Corel-Layer"/>
  <path class="fil0" d="M1024 0c565.539,0 1024,458.461 1024,1024 0,565.539 -458.461,1024 -1024,1024 -565.539,0 -1024,-458.461 -1024,-1024 0,-565.539 458.461,-1024 1024,-1024z"/>
  <g style="clip-path:url(#id0)">
   <g id="_478208512">
    <g>
     <polygon id="_3926186401" class="fil1" points="1157.18,499.307 2293.06,1635.19 2298.32,1641.13 2303.09,1647.43 2307.38,1654.09 2311.21,1661.09 2314.6,1668.42 2317.57,1676.07 2320.14,1684.01 2322.31,1692.23 2324.12,1700.73 2325.58,1709.49 2326.7,1718.49 2327.5,1727.71 2328,1737.16 2328.22,1746.8 2328.17,1756.63 2327.88,1766.64 2327.35,1776.81 2326.61,1787.12 2325.68,1797.57 2324.57,1808.13 2323.29,1818.79 2321.88,1829.55 2320.33,1840.38 2318.68,1851.28 2316.94,1862.22 2315.13,1873.2 1179.25,737.318 1181.06,726.34 1182.8,715.397 1184.45,704.502 1186,693.669 1187.41,682.912 1188.68,672.245 1189.8,661.684 1190.73,651.239 1191.47,640.926 1191.99,630.76 1192.29,620.752 1192.34,610.92 1192.12,601.275 1191.62,591.831 1190.81,582.603 1189.7,573.604 1188.24,564.848 1186.43,556.35 1184.26,548.124 1181.69,540.183 1178.72,532.541 1175.33,525.212 1171.49,518.21 1167.21,511.55 1162.44,505.244 "/>
     <polygon id="_392620224" class="fil1" points="1179.25,737.318 2315.13,1873.2 2314.93,1874.4 2314.72,1875.6 2314.52,1876.8 2314.32,1878 2314.11,1879.21 2313.91,1880.41 2313.7,1881.61 2313.5,1882.81 2313.29,1884.01 2313.08,1885.22 2312.87,1886.42 2312.67,1887.62 2312.46,1888.82 2312.25,1890.03 2312.04,1891.23 2311.83,1892.43 2311.62,1893.63 2311.41,1894.84 2311.2,1896.04 2310.99,1897.24 2310.78,1898.44 2310.57,1899.64 2310.36,1900.84 2310.15,1902.05 2309.94,1903.25 2309.73,1904.45 2309.51,1905.65 2309.3,1906.85 2309.09,1908.05 2308.88,1909.25 2308.67,1910.45 2308.46,1911.65 1172.58,775.766 1172.79,774.568 1173,773.368 1173.21,772.168 1173.42,770.968 1173.63,769.766 1173.84,768.566 1174.06,767.365 1174.27,766.164 1174.48,764.962 1174.69,763.76 1174.9,762.559 1175.11,761.357 1175.32,760.155 1175.53,758.953 1175.74,757.751 1175.95,756.549 1176.16,755.346 1176.37,754.144 1176.58,752.942 1176.79,751.739 1176.99,750.537 1177.2,749.334 1177.41,748.132 1177.61,746.93 1177.82,745.729 1178.03,744.526 1178.23,743.324 1178.44,742.123 1178.64,740.921 1178.84,739.72 1179.04,738.519 "/>
     <polygon id="_392617176" class="fil1" points="826.127,583.674 1962.01,1719.56 1966.06,1724.14 1969.74,1729 1973.05,1734.14 1976.01,1739.55 1978.63,1745.2 1980.92,1751.1 1982.9,1757.23 1984.58,1763.57 1985.97,1770.13 1987.1,1776.89 1987.96,1783.83 1988.58,1790.95 1988.96,1798.24 1989.13,1805.68 1989.1,1813.27 1988.87,1820.99 1988.47,1828.84 1987.89,1836.79 1987.17,1844.85 1986.32,1853 1985.33,1861.23 1984.24,1869.53 1983.05,1877.89 1981.78,1886.3 1980.43,1894.74 1979.03,1903.22 843.152,767.333 844.553,758.862 845.896,750.418 847.17,742.01 848.359,733.652 849.452,725.352 850.435,717.121 851.293,708.97 852.014,700.912 852.584,692.953 852.989,685.108 853.216,677.386 853.253,669.799 853.084,662.357 852.698,655.069 852.079,647.949 851.214,641.005 850.092,634.249 848.697,627.691 847.018,621.344 845.038,615.217 842.746,609.319 840.128,603.664 837.171,598.261 833.86,593.122 830.183,588.256 "/>
     <polygon id="_392643048" class="fil1" points="843.152,767.333 1979.03,1903.22 1978.72,1905.07 1978.41,1906.92 1978.09,1908.78 1977.77,1910.63 1977.45,1912.49 1977.13,1914.34 1976.81,1916.2 1976.49,1918.06 1976.17,1919.91 1975.84,1921.77 1975.52,1923.62 1975.19,1925.47 1974.86,1927.33 1974.54,1929.18 1974.21,1931.03 1973.89,1932.88 838.005,797.003 838.331,795.152 838.658,793.299 838.984,791.447 839.31,789.592 839.635,787.738 839.96,785.884 840.284,784.028 840.608,782.173 840.931,780.317 841.253,778.462 841.573,776.606 841.892,774.751 842.209,772.895 842.526,771.041 842.84,769.186 "/>
     <polygon id="_392635320" class="fil1" points="838.005,797.003 1973.89,1932.88 1970.9,1949.88 835.023,813.999 "/>
     <polygon id="_392627736" class="fil1" points="831.138,837.116 1967.02,1973 1966.83,1974.16 1966.65,1975.32 1966.47,1976.47 1966.29,1977.62 1966.11,1978.76 1965.94,1979.9 1965.76,1981.03 1965.59,1982.16 1965.42,1983.28 1965.26,1984.39 1965.09,1985.5 1964.94,1986.6 1964.78,1987.69 1964.62,1988.78 1964.47,1989.86 1964.32,1990.94 828.439,855.059 828.589,853.983 828.741,852.901 828.896,851.812 829.054,850.717 829.214,849.615 829.377,848.507 829.543,847.393 829.711,846.273 829.881,845.148 830.055,844.016 830.229,842.879 830.407,841.737 830.586,840.59 830.768,839.437 830.952,838.279 "/>
     <polygon id="_392633160" class="fil1" points="828.439,855.059 1964.32,1990.94 1964.07,1992.85 1963.84,1994.74 1963.64,1996.61 1963.47,1998.47 1963.32,2000.32 1963.2,2002.15 1963.1,2003.96 1963.03,2005.76 1962.98,2007.55 1962.96,2009.32 1962.96,2011.08 1962.98,2012.82 1963.02,2014.55 1963.09,2016.27 1963.19,2017.97 1963.3,2019.67 827.418,883.783 827.305,882.09 827.213,880.386 827.143,878.669 827.097,876.938 827.075,875.194 827.075,873.436 827.099,871.665 827.147,869.879 827.22,868.079 827.318,866.265 827.44,864.435 827.587,862.592 827.761,860.731 827.96,858.856 828.186,856.965 "/>
     <polygon id="_392620656" class="fil1" points="866.505,976.583 2002.39,2112.47 2003.78,2114.65 2005.18,2116.83 2006.58,2119.03 2007.98,2121.23 2009.39,2123.44 2010.79,2125.67 2012.19,2127.9 2013.59,2130.15 2014.98,2132.41 2016.37,2134.68 2017.76,2136.97 2019.14,2139.27 2020.51,2141.59 2021.87,2143.92 2023.23,2146.28 2024.57,2148.65 2025.91,2151.04 2027.23,2153.45 2028.54,2155.89 2029.84,2158.34 2031.12,2160.82 2032.39,2163.32 2033.65,2165.85 2034.88,2168.4 2036.1,2170.98 2037.3,2173.59 2038.48,2176.22 2039.64,2178.88 2040.78,2181.58 2041.89,2184.3 2042.99,2187.05 2044.05,2189.84 908.173,1053.96 907.104,1051.17 906.011,1048.42 904.896,1045.69 903.758,1043 902.598,1040.34 901.418,1037.7 900.219,1035.1 899,1032.52 897.765,1029.97 896.512,1027.44 895.243,1024.94 893.959,1022.46 892.661,1020 891.35,1017.57 890.026,1015.16 888.69,1012.77 887.345,1010.39 885.989,1008.04 884.625,1005.7 883.254,1003.39 881.874,1001.08 880.49,998.796 879.1,996.523 877.705,994.265 876.307,992.018 874.907,989.785 873.505,987.562 872.103,985.348 870.701,983.146 869.299,980.95 867.901,978.764 "/>
     <polygon id="_392628144" class="fil1" points="1264.6,1377.47 2400.48,2513.35 2398.76,2519.68 2397,2525.95 2395.19,2532.15 2393.34,2538.28 2391.46,2544.35 2389.55,2550.34 2387.6,2556.25 2385.63,2562.09 2383.64,2567.85 2381.62,2573.53 2379.59,2579.12 2377.55,2584.62 2375.5,2590.04 2373.43,2595.36 2371.37,2600.59 2369.3,2605.72 2367.24,2610.75 2365.18,2615.67 2363.13,2620.5 2361.09,2625.21 2359.06,2629.82 2357.06,2634.31 2355.08,2638.69 2353.11,2642.95 2351.18,2647.09 2349.28,2651.11 2347.41,2655 2345.58,2658.77 2343.79,2662.41 2342.05,2665.91 2340.35,2669.28 2338.7,2672.51 1202.82,1536.63 1204.47,1533.4 1206.17,1530.03 1207.91,1526.52 1209.7,1522.89 1211.53,1519.12 1213.4,1515.23 1215.3,1511.21 1217.23,1507.07 1219.19,1502.81 1221.18,1498.43 1223.18,1493.94 1225.21,1489.33 1227.25,1484.61 1229.3,1479.79 1231.36,1474.86 1233.42,1469.83 1235.49,1464.71 1237.55,1459.48 1239.61,1454.16 1241.67,1448.74 1243.71,1443.24 1245.74,1437.65 1247.76,1431.97 1249.75,1426.21 1251.72,1420.37 1253.66,1414.46 1255.58,1408.46 1257.46,1402.4 1259.31,1396.27 1261.11,1390.07 1262.88,1383.8 "/>
     <polygon id="_392634168" class="fil1" points="827.418,883.783 1963.3,2019.67 1963.59,2023.01 1963.97,2026.31 1964.43,2029.55 1964.97,2032.76 1965.59,2035.93 1966.28,2039.05 1967.05,2042.14 1967.88,2045.19 1968.78,2048.2 1969.75,2051.19 1970.78,2054.14 1971.87,2057.06 1973.02,2059.96 1974.22,2062.83 1975.47,2065.68 1976.78,2068.51 1978.13,2071.32 1979.53,2074.11 1980.97,2076.89 1982.44,2079.65 1983.96,2082.4 1985.51,2085.15 1987.09,2087.88 1988.71,2090.61 1990.35,2093.34 1992.01,2096.06 1993.7,2098.78 1995.41,2101.51 1997.13,2104.24 1998.87,2106.97 2000.62,2109.71 2002.39,2112.47 866.505,976.583 864.744,973.831 862.991,971.09 861.252,968.355 859.527,965.626 857.82,962.9 856.132,960.178 854.467,957.454 852.826,954.729 851.213,952 849.63,949.265 848.079,946.522 846.563,943.77 845.084,941.006 843.646,938.229 842.249,935.437 840.897,932.627 839.593,929.799 838.339,926.95 837.136,924.077 835.99,921.179 834.901,918.256 833.871,915.303 832.903,912.32 832.001,909.304 831.166,906.255 830.401,903.168 829.707,900.043 829.09,896.879 828.55,893.672 828.089,890.423 827.711,887.127 "/>
     <polygon id="_392636616" class="fil1" points="1202.82,1536.63 2338.7,2672.51 2337.3,2675.1 2335.78,2677.63 2334.15,2680.12 2332.41,2682.55 2330.56,2684.92 2328.61,2687.24 2326.56,2689.49 2324.43,2691.69 2322.21,2693.81 2319.91,2695.87 2317.54,2697.86 2315.1,2699.77 2312.59,2701.6 2310.03,2703.36 2307.41,2705.04 2304.74,2706.63 1168.86,1570.75 1171.53,1569.16 1174.14,1567.48 1176.71,1565.72 1179.21,1563.89 1181.66,1561.97 1184.03,1559.99 1186.33,1557.93 1188.55,1555.8 1190.68,1553.61 1192.73,1551.36 1194.68,1549.04 1196.53,1546.67 1198.27,1544.23 1199.9,1541.75 1201.42,1539.21 "/>
     <polygon id="_392614872" class="fil1" points="1168.86,1570.75 2304.74,2706.63 2303.39,2707.39 2302.04,2708.14 2300.67,2708.86 2299.28,2709.56 2297.89,2710.24 2296.48,2710.91 2295.07,2711.55 2293.64,2712.17 2292.21,2712.77 2290.76,2713.35 2289.31,2713.9 2287.86,2714.44 2286.4,2714.95 2284.93,2715.44 2283.46,2715.9 2281.98,2716.34 2280.5,2716.76 2279.02,2717.15 2277.54,2717.52 2276.05,2717.86 2274.57,2718.17 2273.08,2718.47 2271.6,2718.73 2270.11,2718.97 2268.63,2719.18 2267.15,2719.36 2265.68,2719.52 2264.21,2719.65 2262.74,2719.75 2261.29,2719.82 2259.83,2719.87 2258.39,2719.88 1122.51,1584 1123.95,1583.99 1125.4,1583.94 1126.86,1583.87 1128.33,1583.77 1129.8,1583.64 1131.27,1583.48 1132.75,1583.3 1134.23,1583.09 1135.71,1582.85 1137.2,1582.58 1138.68,1582.29 1140.17,1581.98 1141.65,1581.63 1143.14,1581.27 1144.62,1580.87 1146.1,1580.46 1147.58,1580.02 1149.05,1579.55 1150.52,1579.07 1151.98,1578.56 1153.43,1578.02 1154.88,1577.47 1156.32,1576.89 1157.76,1576.29 1159.18,1575.67 1160.6,1575.03 1162.01,1574.36 1163.4,1573.68 1164.78,1572.98 1166.16,1572.25 1167.51,1571.51 "/>
     <polygon id="_392633928" class="fil1" points="1122.51,1584 2258.39,2719.88 2209.17,2719.88 1073.29,1584 "/>
     <polygon id="_392632512" class="fil1" points="1073.29,1584 2209.17,2719.88 2159,2719.88 1023.12,1584 "/>
     <polygon id="_392615616" class="fil1" points="934.092,1519.27 2069.97,2655.16 2065.77,2658.88 2061.48,2662.51 2057.11,2666.05 2052.66,2669.48 2048.14,2672.82 2043.53,2676.06 2038.85,2679.2 2034.1,2682.24 2029.27,2685.17 2024.37,2687.99 2019.41,2690.71 2014.38,2693.31 2009.28,2695.81 2004.11,2698.19 1998.89,2700.45 1993.6,2702.6 1988.26,2704.63 1982.86,2706.55 1977.4,2708.34 1971.88,2710.01 1966.32,2711.55 1960.7,2712.97 1955.03,2714.26 1949.32,2715.42 1943.56,2716.46 1937.75,2717.36 1931.9,2718.12 1926.01,2718.75 1920.08,2719.24 1914.11,2719.6 1908.11,2719.81 1902.06,2719.88 766.183,1584 772.224,1583.93 778.23,1583.72 784.198,1583.36 790.13,1582.87 796.02,1582.24 801.87,1581.47 807.676,1580.57 813.436,1579.54 819.152,1578.38 824.819,1577.09 830.436,1575.67 836.003,1574.13 841.516,1572.46 846.975,1570.67 852.377,1568.75 857.723,1566.72 863.009,1564.57 868.234,1562.3 873.396,1559.92 878.495,1557.43 883.528,1554.82 888.493,1552.11 893.39,1549.29 898.216,1546.36 902.97,1543.32 907.65,1540.18 912.255,1536.94 916.783,1533.6 921.232,1530.16 925.601,1526.63 929.889,1523 "/>
     <polygon id="_392640216" class="fil1" points="976.698,1570.73 2112.58,2706.62 2109.89,2705.01 2107.25,2703.33 2104.67,2701.56 2102.15,2699.72 2099.69,2697.81 2097.3,2695.82 961.423,1559.93 963.81,1561.92 966.266,1563.84 968.789,1565.68 971.372,1567.45 974.011,1569.13 "/>
     <polygon id="_392631360" class="fil1" points="1023.12,1584 2159,2719.88 2157.55,2719.87 2156.1,2719.82 2154.64,2719.75 2153.18,2719.65 2151.71,2719.52 2150.23,2719.36 2148.75,2719.18 2147.27,2718.97 2145.79,2718.73 2144.3,2718.46 2142.81,2718.17 2141.33,2717.86 2139.84,2717.51 2138.35,2717.15 2136.87,2716.75 2135.39,2716.34 2133.91,2715.9 2132.43,2715.43 2130.97,2714.94 2129.5,2714.43 2128.04,2713.9 2126.59,2713.34 2125.14,2712.76 2123.71,2712.16 2122.28,2711.54 2120.86,2710.9 2119.45,2710.23 2118.05,2709.55 2116.66,2708.84 2115.29,2708.12 2113.93,2707.38 2112.58,2706.62 976.698,1570.73 978.047,1571.5 979.409,1572.24 980.782,1572.96 982.17,1573.67 983.568,1574.35 984.978,1575.02 986.396,1575.66 987.825,1576.28 989.261,1576.88 990.707,1577.46 992.16,1578.02 993.618,1578.55 995.084,1579.06 996.554,1579.55 998.029,1580.01 999.507,1580.45 1000.99,1580.87 1002.47,1581.26 1003.96,1581.63 1005.45,1581.97 1006.93,1582.29 1008.42,1582.58 1009.91,1582.85 1011.39,1583.08 1012.87,1583.3 1014.35,1583.48 1015.83,1583.64 1017.3,1583.77 1018.76,1583.87 1020.22,1583.94 1021.67,1583.99 "/>
     <polygon id="_392642856" class="fil1" points="766.183,1584 1902.06,2719.88 1895.61,2719.8 1889.19,2719.56 1882.82,2719.15 1876.49,2718.59 1870.2,2717.87 1863.97,2717 1857.78,2715.98 1851.65,2714.8 1845.57,2713.48 1839.55,2712.01 1833.58,2710.39 1827.67,2708.64 1821.83,2706.74 1816.05,2704.7 1810.34,2702.53 1804.69,2700.22 1799.11,2697.78 1793.61,2695.21 1788.18,2692.52 1782.82,2689.69 1777.55,2686.74 1772.35,2683.67 1767.23,2680.47 1762.2,2677.16 1757.25,2673.73 1752.39,2670.19 1747.62,2666.53 1742.94,2662.76 607.056,1526.88 611.736,1530.64 616.508,1534.3 621.368,1537.85 626.315,1541.28 631.348,1544.59 636.466,1547.78 641.664,1550.86 646.941,1553.81 652.297,1556.63 657.728,1559.33 663.233,1561.9 668.809,1564.34 674.456,1566.65 680.169,1568.82 685.949,1570.86 691.793,1572.75 697.699,1574.51 703.665,1576.12 709.687,1577.59 715.767,1578.92 721.901,1580.09 728.086,1581.12 734.321,1581.99 740.606,1582.71 746.936,1583.27 753.31,1583.67 759.726,1583.92 "/>
     <polygon id="_392618880" class="fil1" points="1158.86,888.23 2294.74,2024.11 2295.12,2028.45 2295.61,2032.72 2296.21,2036.93 2296.91,2041.08 2297.71,2045.19 2298.6,2049.23 2299.6,2053.23 2300.68,2057.19 2301.85,2061.09 2303.1,2064.96 2304.43,2068.79 2305.85,2072.58 2307.33,2076.33 2308.89,2080.05 2310.52,2083.75 2312.21,2087.41 2313.96,2091.05 2315.77,2094.67 2317.63,2098.27 2319.55,2101.85 2321.51,2105.42 2323.52,2108.97 2325.57,2112.52 2327.67,2116.05 2329.79,2119.59 2331.95,2123.12 2334.14,2126.64 2336.35,2130.18 2338.58,2133.71 2340.84,2137.26 2343.11,2140.81 2345.39,2144.38 1209.51,1008.49 1207.23,1004.93 1204.96,1001.37 1202.7,997.83 1200.47,994.294 1198.26,990.763 1196.07,987.233 1193.91,983.704 1191.78,980.172 1189.69,976.635 1187.64,973.091 1185.63,969.537 1183.67,965.97 1181.75,962.389 1179.89,958.79 1178.08,955.171 1176.33,951.53 1174.64,947.864 1173.01,944.172 1171.45,940.449 1169.97,936.694 1168.55,932.904 1167.22,929.078 1165.97,925.211 1164.8,921.304 1163.71,917.351 1162.72,913.352 1161.83,909.303 1161.02,905.202 1160.32,901.046 1159.73,896.834 1159.24,892.563 "/>
     <polygon id="_392632272" class="fil1" points="1468.64,1384.11 2604.52,2520 2603.45,2521.99 2602.28,2523.95 2601.02,2525.86 2599.67,2527.74 2598.24,2529.57 2596.74,2531.36 2595.16,2533.1 2593.51,2534.79 2591.8,2536.43 2590.03,2538.02 2588.2,2539.55 2586.31,2541.03 2584.38,2542.45 2582.4,2543.8 2580.38,2545.1 2578.32,2546.32 1442.44,1410.44 1444.5,1409.21 1446.52,1407.92 1448.5,1406.56 1450.43,1405.15 1452.32,1403.67 1454.15,1402.14 1455.92,1400.55 1457.63,1398.91 1459.28,1397.22 1460.86,1395.48 1462.36,1393.69 1463.79,1391.86 1465.13,1389.98 1466.4,1388.07 1467.57,1386.11 "/>
     <polygon id="_392642088" class="fil1" points="835.023,813.999 1970.9,1949.88 1970.65,1951.36 1970.39,1952.83 1970.14,1954.31 1969.89,1955.77 1969.64,1957.24 1969.39,1958.7 1969.14,1960.15 1968.9,1961.6 1968.65,1963.05 1968.41,1964.49 1968.17,1965.92 1967.94,1967.35 1967.7,1968.77 1967.47,1970.19 1967.24,1971.6 1967.02,1973 831.138,837.116 831.363,835.713 831.592,834.304 831.823,832.888 832.057,831.466 832.293,830.038 832.531,828.604 832.772,827.164 833.014,825.72 833.26,824.271 833.507,822.816 833.756,821.357 834.007,819.892 834.258,818.425 834.512,816.953 834.767,815.477 "/>
     <polygon id="_392614296" class="fil1" points="1442.44,1410.44 2578.32,2546.32 2576.24,2547.49 2574.11,2548.59 2571.95,2549.63 2569.76,2550.6 2567.54,2551.51 2565.29,2552.35 2563.03,2553.12 2560.76,2553.82 2558.47,2554.44 2556.18,2554.99 2553.89,2555.46 2551.6,2555.84 2549.32,2556.15 2547.05,2556.37 2544.79,2556.51 2542.55,2556.55 1406.67,1420.67 1408.91,1420.62 1411.17,1420.49 1413.44,1420.27 1415.72,1419.96 1418.01,1419.57 1420.3,1419.11 1422.59,1418.56 1424.88,1417.93 1427.15,1417.24 1429.41,1416.47 1431.66,1415.63 1433.87,1414.72 1436.07,1413.74 1438.23,1412.7 1440.35,1411.6 "/>
     <polygon id="_392625600" class="fil1" points="1406.67,1420.67 2542.55,2556.55 2504.58,2556.55 1368.7,1420.67 "/>
     <polygon id="_392639616" class="fil1" points="1368.7,1420.67 2504.58,2556.55 2465.86,2556.55 1329.98,1420.67 "/>
     <polygon id="_392632584" class="fil1" points="1329.98,1420.67 2465.86,2556.55 2463.63,2556.51 2461.37,2556.37 2459.1,2556.15 2456.81,2555.84 2454.52,2555.46 2452.23,2554.99 2449.93,2554.44 2447.64,2553.81 2445.36,2553.12 2443.1,2552.34 2440.85,2551.5 2438.63,2550.59 2436.43,2549.62 2434.26,2548.58 2432.13,2547.47 2430.04,2546.31 1294.16,1410.43 1296.25,1411.59 1298.38,1412.69 1300.55,1413.73 1302.75,1414.71 1304.97,1415.62 1307.22,1416.46 1309.48,1417.23 1311.76,1417.93 1314.05,1418.56 1316.34,1419.1 1318.64,1419.57 1320.93,1419.96 1323.22,1420.27 1325.49,1420.49 1327.74,1420.62 "/>
     <polygon id="_392631408" class="fil1" points="1294.16,1410.43 2430.04,2546.31 2427.97,2545.08 2425.93,2543.78 2423.94,2542.41 2421.99,2540.99 2420.1,2539.51 2418.26,2537.98 2416.47,2536.39 2414.75,2534.75 1278.87,1398.87 1280.59,1400.51 1282.37,1402.1 1284.22,1403.63 1286.11,1405.11 1288.06,1406.53 1290.05,1407.89 1292.09,1409.19 "/>
     <polygon id="_392637744" class="fil1" points="1473.81,976.583 2609.69,2112.47 2612.1,2116.24 2614.52,2120.03 2616.95,2123.85 2619.37,2127.7 2621.78,2131.59 2624.18,2135.51 2626.57,2139.48 2628.93,2143.5 2631.27,2147.58 2633.58,2151.71 2635.85,2155.9 2638.09,2160.15 2640.27,2164.48 2642.42,2168.88 2644.5,2173.36 2646.53,2177.93 2648.5,2182.58 2650.39,2187.33 2652.22,2192.17 2653.97,2197.11 2655.64,2202.16 2657.22,2207.31 2658.71,2212.58 2660.1,2217.97 2661.4,2223.49 2662.59,2229.12 2663.67,2234.89 2664.64,2240.8 2665.48,2246.85 2666.21,2253.04 2666.8,2259.38 2667.27,2265.87 1531.39,1129.99 1530.92,1123.49 1530.33,1117.15 1529.6,1110.96 1528.76,1104.92 1527.79,1099.01 1526.71,1093.24 1525.52,1087.6 1524.22,1082.09 1522.83,1076.7 1521.34,1071.43 1519.76,1066.27 1518.09,1061.23 1516.34,1056.29 1514.51,1051.44 1512.62,1046.7 1510.65,1042.05 1508.62,1037.48 1506.54,1033 1504.39,1028.6 1502.21,1024.27 1499.97,1020.01 1497.7,1015.82 1495.39,1011.69 1493.05,1007.62 1490.69,1003.6 1488.3,999.631 1485.9,995.705 1483.49,991.818 1481.07,987.967 1478.64,984.147 1476.22,980.355 "/>
     <polygon id="_392641008" class="fil1" points="1172.58,775.766 2308.46,1911.65 2308.21,1913.03 2307.97,1914.42 2307.73,1915.8 2307.48,1917.18 2307.24,1918.57 2307,1919.95 2306.75,1921.33 2306.51,1922.71 2306.27,1924.08 2306.03,1925.46 2305.79,1926.83 2305.55,1928.2 2305.31,1929.58 2305.07,1930.94 2304.83,1932.31 2304.59,1933.68 1168.71,797.794 1168.95,796.429 1169.19,795.062 1169.43,793.693 1169.67,792.322 1169.91,790.949 1170.15,789.575 1170.39,788.2 1170.63,786.823 1170.87,785.444 1171.11,784.064 1171.36,782.683 1171.6,781.301 1171.84,779.919 1172.09,778.535 1172.33,777.151 "/>
     <polygon id="_392637192" class="fil1" points="1168.71,797.794 2304.59,1933.68 2304.26,1935.59 2303.93,1937.51 2303.6,1939.41 2303.27,1941.31 2302.95,1943.21 2302.63,1945.1 2302.31,1946.99 2301.99,1948.87 2301.67,1950.74 2301.36,1952.6 2301.05,1954.46 2300.75,1956.31 2300.45,1958.16 2300.15,1959.99 2299.85,1961.82 2299.56,1963.64 1163.68,827.754 1163.97,825.936 1164.26,824.109 1164.56,822.273 1164.87,820.431 1165.17,818.58 1165.48,816.722 1165.79,814.856 1166.11,812.984 1166.43,811.105 1166.75,809.22 1167.07,807.329 1167.39,805.432 1167.72,803.531 1168.05,801.623 1168.38,799.711 "/>
     <polygon id="_392619864" class="fil1" points="1163.68,827.754 2299.56,1963.64 2299.32,1965.14 2299.08,1966.64 2298.84,1968.14 2298.61,1969.62 2298.38,1971.1 2298.15,1972.58 2297.93,1974.04 2297.71,1975.5 2297.49,1976.95 2297.28,1978.4 2297.07,1979.83 2296.86,1981.26 2296.65,1982.68 2296.45,1984.09 2296.25,1985.49 2296.06,1986.89 1160.18,851.005 1160.37,849.611 1160.57,848.208 1160.77,846.797 1160.98,845.377 1161.18,843.95 1161.4,842.514 1161.61,841.071 1161.83,839.619 1162.05,838.16 1162.27,836.695 1162.5,835.222 1162.73,833.741 1162.96,832.254 1163.2,830.761 1163.44,829.261 "/>
     <polygon id="_392631912" class="fil1" points="1160.18,851.005 2296.06,1986.89 2295.73,1989.36 2295.44,1991.81 2295.18,1994.24 2294.96,1996.65 2294.77,1999.04 2294.61,2001.41 2294.48,2003.76 2294.39,2006.09 2294.32,2008.41 2294.29,2010.7 2294.29,2012.98 2294.32,2015.24 2294.38,2017.48 2294.47,2019.71 2294.59,2021.92 2294.74,2024.11 1158.86,888.23 1158.71,886.037 1158.59,883.828 1158.5,881.601 1158.44,879.36 1158.41,877.099 1158.41,874.821 1158.44,872.526 1158.51,870.211 1158.6,867.878 1158.73,865.528 1158.89,863.156 1159.08,860.767 1159.3,858.356 1159.56,855.927 1159.85,853.476 "/>
     <polygon id="_392642832" class="fil1" points="1531.39,1129.99 2667.27,2265.87 2667.48,2269.84 2667.65,2273.81 2667.76,2277.77 2667.83,2281.73 2667.86,2285.69 2667.84,2289.64 2667.78,2293.58 2667.67,2297.52 2667.52,2301.46 2667.33,2305.38 2667.1,2309.3 2666.83,2313.21 2666.52,2317.1 2666.17,2320.99 2665.79,2324.87 2665.37,2328.74 2664.91,2332.59 2664.42,2336.43 2663.89,2340.26 2663.34,2344.07 2662.75,2347.87 2662.13,2351.66 2661.48,2355.42 2660.8,2359.17 2660.1,2362.91 2659.37,2366.62 2658.6,2370.32 2657.82,2373.99 2657.01,2377.65 2656.17,2381.28 2655.32,2384.9 2654.44,2388.49 1518.56,1252.61 1519.44,1249.01 1520.29,1245.4 1521.13,1241.77 1521.94,1238.11 1522.72,1234.43 1523.48,1230.74 1524.22,1227.02 1524.92,1223.29 1525.6,1219.54 1526.25,1215.77 1526.87,1211.99 1527.46,1208.19 1528.01,1204.38 1528.54,1200.55 1529.03,1196.71 1529.48,1192.85 1529.9,1188.99 1530.29,1185.11 1530.64,1181.22 1530.95,1177.32 1531.22,1173.42 1531.45,1169.5 1531.64,1165.57 1531.79,1161.64 1531.9,1157.7 1531.96,1153.75 1531.98,1149.8 1531.95,1145.85 1531.88,1141.89 1531.77,1137.92 1531.6,1133.96 "/>
     <polygon id="_392633640" class="fil1" points="1209.51,1008.49 2345.39,2144.38 2346.54,2146.17 2347.69,2147.97 2348.84,2149.76 2349.99,2151.57 2351.15,2153.38 2352.3,2155.19 2353.45,2157.01 2354.61,2158.83 2355.76,2160.65 2356.91,2162.49 2358.06,2164.33 2359.21,2166.17 2360.36,2168.02 2361.51,2169.88 2362.65,2171.75 2363.8,2173.62 1227.92,1037.74 1226.77,1035.87 1225.63,1034 1224.48,1032.14 1223.33,1030.29 1222.18,1028.45 1221.03,1026.61 1219.88,1024.77 1218.72,1022.95 1217.57,1021.12 1216.42,1019.31 1215.26,1017.49 1214.11,1015.69 1212.96,1013.88 1211.81,1012.08 1210.66,1010.29 "/>
     <polygon id="_392618232" class="fil1" points="1518.56,1252.61 2654.44,2388.49 2653.11,2393.72 2651.74,2398.91 2650.32,2404.04 2648.87,2409.12 2647.38,2414.14 2645.86,2419.1 2644.32,2424 2642.74,2428.84 2641.14,2433.61 2639.52,2438.32 2637.89,2442.95 2636.24,2447.51 2634.57,2452 2632.9,2456.4 2631.22,2460.73 2629.54,2464.98 2627.86,2469.14 2626.18,2473.22 2624.5,2477.21 2622.84,2481.11 2621.18,2484.91 2619.54,2488.62 2617.92,2492.24 2616.31,2495.75 2614.73,2499.16 2613.17,2502.47 2611.64,2505.67 2610.14,2508.76 2608.68,2511.74 2607.25,2514.61 2605.87,2517.36 2604.52,2520 1468.64,1384.11 1469.99,1381.48 1471.37,1378.73 1472.8,1375.86 1474.26,1372.88 1475.76,1369.79 1477.29,1366.59 1478.85,1363.28 1480.43,1359.87 1482.04,1356.36 1483.66,1352.74 1485.3,1349.03 1486.96,1345.23 1488.62,1341.33 1490.3,1337.34 1491.98,1333.26 1493.66,1329.1 1495.34,1324.85 1497.02,1320.52 1498.69,1316.11 1500.36,1311.63 1502.01,1307.07 1503.64,1302.43 1505.26,1297.73 1506.86,1292.96 1508.43,1288.12 1509.98,1283.22 1511.5,1278.26 1512.99,1273.24 1514.44,1268.16 1515.85,1263.03 1517.23,1257.84 "/>
     <polygon id="_392618496" class="fil1" points="1437.49,588.256 2573.37,1724.14 2577.05,1729 2580.36,1734.14 2583.31,1739.55 2585.93,1745.2 2588.22,1751.1 2590.2,1757.23 2591.88,1763.57 2593.28,1770.13 2594.4,1776.89 2595.26,1783.83 2595.88,1790.95 2596.27,1798.24 2596.44,1805.68 2596.4,1813.27 2596.17,1820.99 2595.77,1828.84 2595.2,1836.79 2594.48,1844.85 2593.62,1853 2592.64,1861.23 2591.54,1869.53 2590.35,1877.89 2589.08,1886.3 2587.74,1894.74 2586.34,1903.22 1450.46,767.333 1451.86,758.862 1453.2,750.418 1454.47,742.01 1455.66,733.652 1456.76,725.352 1457.74,717.121 1458.6,708.97 1459.32,700.912 1459.89,692.953 1460.29,685.108 1460.52,677.386 1460.56,669.799 1460.39,662.357 1460,655.069 1459.38,647.949 1458.52,641.005 1457.4,634.249 1456,627.691 1454.32,621.344 1452.34,615.217 1450.05,609.319 1447.43,603.664 1444.47,598.261 1441.16,593.122 "/>
     <polygon id="_392615832" class="fil1" points="1450.46,767.333 2586.34,1903.22 2586.02,1905.07 2585.71,1906.92 2585.39,1908.78 2585.08,1910.63 2584.76,1912.49 2584.44,1914.34 2584.12,1916.2 2583.79,1918.06 2583.47,1919.91 2583.14,1921.77 2582.82,1923.62 2582.49,1925.47 2582.17,1927.33 2581.84,1929.18 2581.51,1931.03 2581.19,1932.88 1445.31,797.003 1445.63,795.152 1445.96,793.299 1446.29,791.447 1446.61,789.592 1446.94,787.738 1447.26,785.884 1447.59,784.028 1447.91,782.173 1448.23,780.317 1448.56,778.462 1448.88,776.606 1449.19,774.751 1449.51,772.895 1449.83,771.041 1450.14,769.186 "/>
     <polygon id="_392616840" class="fil1" points="1445.31,797.003 2581.19,1932.88 2578.21,1949.88 1442.33,813.999 "/>
     <polygon id="_392628096" class="fil1" points="1442.33,813.999 2578.21,1949.88 2577.95,1951.36 2577.7,1952.83 2577.44,1954.31 2577.19,1955.77 2576.94,1957.24 2576.69,1958.7 2576.44,1960.15 2576.2,1961.6 2575.96,1963.05 2575.72,1964.49 2575.48,1965.92 2575.24,1967.35 2575.01,1968.77 2574.78,1970.19 2574.55,1971.6 2574.32,1973 1438.44,837.116 1438.67,835.713 1438.9,834.304 1439.13,832.888 1439.36,831.466 1439.6,830.038 1439.83,828.604 1440.08,827.164 1440.32,825.72 1440.56,824.271 1440.81,822.816 1441.06,821.357 1441.31,819.892 1441.56,818.425 1441.82,816.953 1442.07,815.477 "/>
     <polygon id="_392631936" class="fil1" points="1438.44,837.116 2574.32,1973 2574.14,1974.16 2573.95,1975.32 2573.77,1976.47 2573.59,1977.62 2573.41,1978.76 2573.24,1979.9 2573.07,1981.03 2572.9,1982.16 2572.73,1983.28 2572.56,1984.39 2572.4,1985.5 2572.24,1986.6 2572.08,1987.69 2571.93,1988.78 2571.77,1989.86 2571.62,1990.94 1435.74,855.059 1435.89,853.983 1436.04,852.901 1436.2,851.812 1436.36,850.717 1436.52,849.615 1436.68,848.507 1436.85,847.393 1437.01,846.273 1437.18,845.148 1437.36,844.016 1437.53,842.879 1437.71,841.737 1437.89,840.59 1438.07,839.437 1438.26,838.279 "/>
     <polygon id="_392632368" class="fil1" points="1435.74,855.059 2571.62,1990.94 2571.37,1992.85 2571.15,1994.74 2570.95,1996.61 2570.77,1998.47 2570.63,2000.32 2570.5,2002.15 2570.41,2003.96 2570.33,2005.76 2570.28,2007.55 2570.26,2009.32 2570.26,2011.08 2570.28,2012.82 2570.33,2014.55 2570.4,2016.27 2570.49,2017.97 2570.6,2019.67 1434.72,883.783 1434.61,882.09 1434.52,880.386 1434.45,878.669 1434.4,876.938 1434.38,875.194 1434.38,873.436 1434.4,871.665 1434.45,869.879 1434.52,868.079 1434.62,866.265 1434.74,864.435 1434.89,862.592 1435.07,860.731 1435.26,858.856 1435.49,856.965 "/>
     <polygon id="_392635560" class="fil1" points="1434.72,883.783 2570.6,2019.67 2570.9,2023.01 2571.27,2026.31 2571.74,2029.55 2572.28,2032.76 2572.89,2035.93 2573.59,2039.05 2574.35,2042.14 2575.19,2045.19 2576.09,2048.2 2577.06,2051.19 2578.09,2054.14 2579.18,2057.06 2580.32,2059.96 2581.52,2062.83 2582.78,2065.68 2584.08,2068.51 2585.43,2071.32 2586.83,2074.11 2588.27,2076.89 2589.75,2079.65 2591.26,2082.4 2592.81,2085.15 2594.4,2087.88 2596.01,2090.61 2597.65,2093.34 2599.32,2096.06 2601,2098.78 2602.71,2101.51 2604.44,2104.24 2606.18,2106.97 2607.93,2109.71 2609.69,2112.47 1473.81,976.583 1472.05,973.831 1470.3,971.09 1468.56,968.355 1466.83,965.626 1465.12,962.9 1463.44,960.178 1461.77,957.454 1460.13,954.729 1458.52,952 1456.93,949.265 1455.38,946.522 1453.87,943.77 1452.39,941.006 1450.95,938.229 1449.55,935.437 1448.2,932.627 1446.9,929.799 1445.64,926.95 1444.44,924.077 1443.29,921.179 1442.2,918.256 1441.17,915.303 1440.21,912.32 1439.3,909.304 1438.47,906.255 1437.7,903.168 1437.01,900.043 1436.39,896.879 1435.85,893.672 1435.39,890.423 1435.02,887.127 "/>
    </g>
    <path id="_478221352" class="fil1" d="M1473.81 976.583c25.6914,40.1174 53.3587,83.3162 57.5776,153.404 2.53937,42.3437 -3.3378,84.4288 -12.8291,122.619 -13.9417,56.0977 -35.8146,104.043 -49.9146,131.509 -5.48977,10.7315 -15.1358,19.9488 -26.2028,26.3268 -11.0126,6.34725 -23.8973,10.226 -35.7685,10.226l-37.976 0 -38.7154 0c-11.863,0 -24.7795,-3.88347 -35.8193,-10.2378 -11.1543,-6.42166 -20.85,-15.6366 -26.2961,-26.315l0.0720473 -0.0377953c-1.12087,-2.18858 -2.23347,-4.39134 -3.3378,-6.60709 -18.0886,67.8308 -44.4615,125.421 -61.7823,159.16 -7.11497,13.9075 -19.6158,25.8532 -33.9579,34.1185 -14.2713,8.22638 -30.9685,13.252 -46.3536,13.252l-49.2142 0 -50.1733 0c-15.3744,0 -32.113,-5.03268 -46.4197,-13.2673 -14.4567,-8.32205 -27.0201,-20.263 -34.0796,-34.1032l0.0944883 -0.0484252c-2.91733,-5.69882 -5.79331,-11.4697 -8.62087,-17.3079 -44.3906,40.2225 -103.291,64.7268 -167.909,64.7268 -69.0792,0 -131.62,-28.0004 -176.891,-73.2697 -45.2705,-45.2705 -73.2709,-107.81 -73.2709,-176.887 0,-69.0768 28.0004,-131.617 73.2709,-176.888 2.63622,-2.63622 5.3315,-5.21339 8.08229,-7.73032 0.0153543,-6.43938 0.209055,-12.8551 0.589371,-19.2378 4.21772,-70.0902 31.8898,-113.289 57.5871,-153.405 18.8374,-29.4083 36.4299,-56.8737 39.091,-92.7993 0.666142,-8.99174 0.400394,-18.5103 -1.01693,-28.7244 -0.79252,-5.71418 -1.70788,-11.7248 -2.70827,-17.9421 -1.2,-7.46103 -2.52166,-15.2185 -3.89646,-23.1177l-2.94095 -16.7362c-1.75748,-9.95552 -3.52087,-19.9595 -5.19804,-29.9292 -15.2008,-90.456 -22.9784,-178.23 50.1118,-204.566 11.7484,-4.22008 21.6272,-6.33544 32.0292,-6.33662 0.124016,0 0.246851,0 0.370866,0.0011811 10.2626,0.0472441 20.048,2.15669 31.6642,6.33544 73.102,26.3386 65.2878,114.106 50.0953,204.566 -1.65945,9.88347 -3.40748,19.7988 -5.14725,29.6693l-2.9811 16.9961c-1.37126,7.89686 -2.68937,15.6543 -3.88583,23.1177 -0.996851,6.21378 -1.90866,12.2232 -2.69882,17.9421 -1.41732,10.213 -1.68662,19.7339 -1.02047,28.7244 2.66339,35.9268 20.2524,63.3922 39.0863,92.8005 14.8713,23.2205 30.4028,47.4733 41.6681,77.3741 9.0319,-15.9272 18.5941,-30.854 27.9532,-45.4654 24.411,-38.1118 47.2099,-73.7056 50.6622,-120.262 0.863386,-11.6516 0.516142,-23.9894 -1.32165,-37.2248 -1.02638,-7.40434 -2.21339,-15.1937 -3.50906,-23.2512 -1.55551,-9.66851 -3.26811,-19.7232 -5.0504,-29.9599 -1.24606,-7.16339 -2.52638,-14.4154 -3.81024,-21.6886 -2.27835,-12.9036 -4.56378,-25.8662 -6.73701,-38.7874 -19.6996,-117.227 -29.778,-230.974 64.943,-265.106 15.2256,-5.46851 28.0276,-8.20985 41.5075,-8.21221 0.16063,0 0.320079,0 0.480709,0.0011811 13.2992,0.0614174 25.9807,2.79449 41.0351,8.21103 94.7363,34.1339 84.6083,147.875 64.9205,265.106 -2.15079,12.8079 -4.41615,25.6571 -6.67087,38.4485 -1.30158,7.38662 -2.60079,14.7532 -3.86339,22.0276 -1.77756,10.2343 -3.48544,20.2866 -5.03622,29.9599 -1.29095,8.05158 -2.47323,15.8398 -3.49607,23.2512 -1.8378,13.2354 -2.18504,25.5732 -1.32165,37.2248 3.45,46.5591 26.2441,82.1528 50.6528,120.265 6.11693,9.5504 12.3189,19.2354 18.404,29.2465 10.3169,-22.7221 22.8461,-42.2823 34.9382,-61.1587 18.8374,-29.4083 36.4299,-56.8737 39.091,-92.7993 0.666142,-8.99174 0.400394,-18.5103 -1.01693,-28.7244 -0.79252,-5.71418 -1.70788,-11.7248 -2.70827,-17.9421 -1.2,-7.46103 -2.52166,-15.2185 -3.89646,-23.1177l-2.93977 -16.7362c-1.75866,-9.95552 -3.52205,-19.9595 -5.19804,-29.9292 -15.2008,-90.456 -22.9784,-178.23 50.1107,-204.566 11.7496,-4.22008 21.6272,-6.33544 32.0292,-6.33662 0.124016,0 0.246851,0 0.370866,0.0011811 10.2626,0.0472441 20.048,2.15669 31.6654,6.33544 73.1008,26.3386 65.2867,114.106 50.0941,204.566 -1.65945,9.88347 -3.40748,19.7988 -5.14725,29.6693l-2.9811 16.9961c-1.37126,7.89686 -2.68937,15.6543 -3.88583,23.1177 -0.996851,6.21378 -1.90866,12.2232 -2.69764,17.9421 -1.41851,10.213 -1.68662,19.7339 -1.02047,28.7244 2.66221,35.9268 20.2512,63.3922 39.0863,92.8005z"/>
   </g>
  </g>
  <path class="fil2" d="M1024 0c565.539,0 1024,458.461 1024,1024 0,565.539 -458.461,1024 -1024,1024 -565.539,0 -1024,-458.461 -1024,-1024 0,-565.539 458.461,-1024 1024,-1024z"/>
  <path class="fil3" d="M1406.67 1420.67l-76.6914 0c-11.863,0 -24.7795,-3.88347 -35.8193,-10.2378 -11.1543,-6.42166 -20.85,-15.6366 -26.2961,-26.315l0.0720473 -0.0377953c-20.5725,-40.1788 -38.4213,-85.0288 -49.8272,-130.967 -10.1327,-40.8059 -15.2551,-82.6383 -12.8433,-123.123 4.21772,-70.0902 31.8898,-113.289 57.5871,-153.405 23.5524,-36.7677 45.1571,-70.4989 38.074,-121.524 -2.40827,-17.3693 -5.95867,-37.48 -9.5445,-57.7961 -17.7024,-100.291 -36.2327,-205.256 44.9126,-234.495 11.7496,-4.22008 21.6272,-6.33544 32.0292,-6.33662 10.3984,-0.00236221 20.2795,2.10709 32.0362,6.33662 81.0875,29.2158 62.6138,134.017 44.9469,234.235 -3.5941,20.3929 -7.15394,40.5851 -9.56457,58.056 -7.08426,51.026 14.5169,84.7572 38.0658,121.525 25.6914,40.1174 53.3587,83.3162 57.5776,153.404 2.53937,42.3437 -3.3378,84.4288 -12.8291,122.619 -13.9417,56.0977 -35.8146,104.043 -49.9146,131.509 -5.48977,10.7315 -15.1358,19.9488 -26.2028,26.3268 -11.0126,6.34725 -23.8973,10.226 -35.7685,10.226z"/>
  <path class="fil4" d="M1301.94 883.783c0.666142,-8.99174 0.400394,-18.5103 -1.01693,-28.7244 -0.79252,-5.71418 -1.70788,-11.7248 -2.70827,-17.9421l140.222 0c-0.996851,6.21378 -1.90866,12.2232 -2.69764,17.9421 -1.41851,10.2142 -1.68425,19.7327 -1.01811,28.7244l-132.781 0z"/>
  <path class="fil4" d="M1294.32 813.999c-0.962599,-5.52638 -1.95,-11.1236 -2.93977,-16.7362 -1.75866,-9.95552 -3.52205,-19.9595 -5.19685,-29.9292l164.269 0c-1.65945,9.88229 -3.40748,19.7988 -5.14725,29.6693 -1.00394,5.69882 -2.00551,11.3835 -2.9811,16.9961l-148.004 0z"/>
  <path class="fil5" d="M1406.67 1420.67l-37.976 0 0 -864.236c10.2626,0.0484252 20.0492,2.15551 31.6654,6.33544 81.0875,29.2158 62.6138,134.017 44.9469,234.235 -3.5941,20.3929 -7.15394,40.5851 -9.56457,58.056 -7.08426,51.026 14.5169,84.7572 38.0658,121.525 25.6914,40.1174 53.3587,83.3162 57.5776,153.404 2.53937,42.3437 -3.3378,84.4288 -12.8291,122.619 -13.9417,56.0977 -35.8146,104.043 -49.9146,131.509 -5.48977,10.7315 -15.1358,19.9488 -26.2028,26.3268 -11.0126,6.34725 -23.8973,10.226 -35.7685,10.226z"/>
  <path class="fil6" d="M1368.7 837.116l69.7453 0c-0.996851,6.21378 -1.90866,12.2232 -2.69764,17.9421 -1.41851,10.2142 -1.68425,19.7327 -1.01811,28.7244l-66.0296 0 0 -46.6666z"/>
  <path class="fil6" d="M1368.7 767.333l81.7595 0c-1.65945,9.88229 -3.40748,19.7988 -5.14725,29.6693 -1.00394,5.69882 -2.00551,11.3835 -2.9811,16.9961l-73.6312 0 0 -46.6654z"/>
  <path class="fil3" d="M799.368 1420.67l-76.6926 0c-11.8618,0 -24.7784,-3.88347 -35.8193,-10.2378 -11.1543,-6.42166 -20.8488,-15.6366 -26.2961,-26.315l0.0720473 -0.0377953c-20.5713,-40.1788 -38.4201,-85.0288 -49.826,-130.967 -10.1327,-40.8059 -15.2563,-82.6383 -12.8433,-123.123 4.21772,-70.0902 31.8898,-113.289 57.5871,-153.405 23.5512,-36.7677 45.1571,-70.4989 38.074,-121.524 -2.40827,-17.3693 -5.95985,-37.48 -9.54568,-57.7961 -17.7024,-100.291 -36.2327,-205.256 44.9138,-234.495 11.7484,-4.22008 21.6272,-6.33544 32.0292,-6.33662 10.3984,-0.00236221 20.2795,2.10709 32.0351,6.33662 81.0886,29.2158 62.615,134.017 44.9481,234.235 -3.5941,20.3929 -7.15394,40.5851 -9.56576,58.056 -7.08308,51.026 14.5181,84.7572 38.0658,121.525 25.6925,40.1174 53.3587,83.3162 57.5788,153.404 2.53819,42.3437 -3.33898,84.4288 -12.8303,122.619 -13.9417,56.0977 -35.8134,104.043 -49.9134,131.509 -5.49095,10.7315 -15.1358,19.9488 -26.204,26.3268 -11.0126,6.34725 -23.8961,10.226 -35.7674,10.226z"/>
  <path class="fil4" d="M694.641 883.783c0.666142,-8.99174 0.400394,-18.5103 -1.01693,-28.7244 -0.79252,-5.71418 -1.70788,-11.7248 -2.70827,-17.9421l140.222 0c-0.996851,6.21378 -1.90866,12.2232 -2.69882,17.9421 -1.41732,10.2142 -1.68307,19.7327 -1.01811,28.7244l-132.78 0z"/>
  <path class="fil4" d="M687.019 813.999c-0.962599,-5.52638 -1.95,-11.1236 -2.94095,-16.7362 -1.75748,-9.95552 -3.52087,-19.9595 -5.19685,-29.9292l164.27 0c-1.65945,9.88229 -3.40748,19.7988 -5.14725,29.6693 -1.00512,5.69882 -2.00669,11.3835 -2.9811,16.9961l-148.004 0z"/>
  <path class="fil5" d="M799.368 1420.67l-37.976 0 0 -864.236c10.2626,0.0484252 20.048,2.15551 31.6642,6.33544 81.0886,29.2158 62.615,134.017 44.9481,234.235 -3.5941,20.3929 -7.15394,40.5851 -9.56576,58.056 -7.08308,51.026 14.5181,84.7572 38.0658,121.525 25.6925,40.1174 53.3587,83.3162 57.5788,153.404 2.53819,42.3437 -3.33898,84.4288 -12.8303,122.619 -13.9417,56.0977 -35.8134,104.043 -49.9134,131.509 -5.49095,10.7315 -15.1358,19.9488 -26.204,26.3268 -11.0126,6.34725 -23.8961,10.226 -35.7674,10.226z"/>
  <path class="fil6" d="M761.392 837.116l69.7453 0c-0.996851,6.21378 -1.90866,12.2232 -2.69882,17.9421 -1.41732,10.2142 -1.68307,19.7327 -1.01811,28.7244l-66.0284 0 0 -46.6666z"/>
  <path class="fil6" d="M761.392 767.333l81.7595 0c-1.65945,9.88229 -3.40748,19.7988 -5.14725,29.6693 -1.00512,5.69882 -2.00669,11.3835 -2.9811,16.9961l-73.6312 0 0 -46.6654z"/>
  <path class="fil7" d="M1122.51 1584l-99.3887 0c-15.3732,0 -32.1118,-5.03268 -46.4185,-13.2673 -14.4555,-8.32087 -27.0201,-20.263 -34.0796,-34.1032l0.0944883 -0.0472441c-26.6599,-52.0701 -49.7918,-110.193 -64.5733,-169.726 -13.1303,-52.8827 -19.7705,-107.094 -16.6441,-159.561 5.46733,-90.8316 41.328,-146.815 74.6304,-198.803 30.5209,-47.6492 58.5201,-91.3619 49.3406,-157.487 -3.12047,-22.5095 -7.72205,-48.5717 -12.3697,-74.8997 -22.9406,-129.972 -46.9548,-266 58.206,-303.893 15.2256,-5.46851 28.0264,-8.20985 41.5075,-8.21221 13.4752,-0.00236221 26.2807,2.73071 41.5158,8.21221 105.085,37.8626 81.1442,173.68 58.2497,303.554 -4.65827,26.4295 -9.27048,52.5969 -12.3957,75.2386 -9.18072,66.1276 18.8138,109.84 49.3311,157.489 33.2953,51.9886 69.1489,107.972 74.6174,198.801 3.29055,54.8764 -4.32638,109.415 -16.6264,158.907 -18.0673,72.7004 -46.4126,134.836 -64.6855,170.427 -7.11497,13.9075 -19.6158,25.8532 -33.9579,34.1185 -14.2725,8.22638 -30.9685,13.252 -46.3536,13.252z"/>
  <path class="fil8" d="M986.785 888.23c0.864568,-11.6516 0.519685,-23.9882 -1.31811,-37.2248 -1.02638,-7.40552 -2.21339,-15.1949 -3.50906,-23.2524l181.719 0c-1.29095,8.05158 -2.47323,15.841 -3.49607,23.2524 -1.8378,13.2366 -2.18268,25.5732 -1.31929,37.2248l-172.076 0z"/>
  <path class="fil8" d="M976.907 797.794c-1.24606,-7.16339 -2.52638,-14.4154 -3.81024,-21.6886 -2.27717,-12.9036 -4.56378,-25.8673 -6.73465,-38.7874l212.883 0c-2.15079,12.8067 -4.41496,25.6571 -6.66969,38.4485 -1.30158,7.38662 -2.59961,14.7532 -3.86339,22.0276l-191.805 0z"/>
  <path class="fil9" d="M1122.51 1584l-49.2142 0 0 -1120c13.2992,0.0625985 25.9807,2.79331 41.0351,8.20985 105.085,37.8626 81.1442,173.68 58.2497,303.554 -4.65827,26.4295 -9.27048,52.5969 -12.3957,75.2386 -9.18072,66.1276 18.8138,109.84 49.3311,157.489 33.2953,51.9886 69.1489,107.972 74.6174,198.801 3.29055,54.8764 -4.32638,109.415 -16.6264,158.907 -18.0673,72.7004 -46.4126,134.836 -64.6855,170.427 -7.11497,13.9075 -19.6158,25.8532 -33.9579,34.1185 -14.2725,8.22638 -30.9685,13.252 -46.3536,13.252z"/>
  <path class="fil10" d="M1073.29 827.753l90.3851 0c-1.29095,8.05158 -2.47323,15.841 -3.49607,23.2524 -1.8378,13.2366 -2.18268,25.5732 -1.31929,37.2248l-85.5698 0 0 -60.4772z"/>
  <path class="fil10" d="M1073.29 737.318l105.954 0c-2.15079,12.8067 -4.41496,25.6571 -6.66969,38.4485 -1.30158,7.38662 -2.59961,14.7532 -3.86339,22.0276l-95.4213 0 0 -60.476z"/>
  <path class="fil11" d="M766.183 1083.68c69.0768,0 131.616,28.0028 176.886,73.2709 45.2693,45.2693 73.2709,107.811 73.2709,176.888 0,69.0768 -28.0016,131.616 -73.2709,176.886 -45.2693,45.2693 -107.81,73.2709 -176.886,73.2709 -69.0792,0 -131.62,-28.0004 -176.891,-73.2697 -45.2705,-45.2705 -73.2709,-107.81 -73.2709,-176.887 0,-69.0768 28.0004,-131.617 73.2709,-176.888 45.2717,-45.2681 107.812,-73.2709 176.891,-73.2709z"/>
  <path class="fil12" d="M863.112 1209.13c-6.61654,-8.25473 -16.6075,-14.0102 -28.3961,-15.3059 -11.6209,-1.27795 -22.6547,2.27126 -31.0925,9.03662 -8.43544,6.76772 -14.2984,16.7669 -15.5752,28.3878 -1.27677,11.6162 2.27362,22.6512 9.04016,31.089 6.76654,8.43662 16.7646,14.2973 28.3843,15.574 11.6091,1.27677 22.6358,-2.2748 31.0736,-9.04135l0.121654 0.15c8.3504,-6.763 14.1579,-16.8024 15.4476,-28.5307 1.27677,-11.6209 -2.2689,-22.6524 -9.03308,-31.0866l0.0295276 -0.272835z"/>
  <path class="fil12" d="M795.425 1125.8c-4.53898,-5.66339 -11.3929,-9.61182 -19.4788,-10.5 -7.97245,-0.876379 -15.5421,1.55788 -21.3295,6.19961 -5.78741,4.64174 -9.80906,11.5016 -10.6854,19.4728 -0.875198,7.9689 1.56024,15.5386 6.20197,21.3272 4.64174,5.78741 11.5004,9.80788 19.4717,10.6843 7.96418,0.875198 15.528,-1.56142 21.3166,-6.20315l0.0826772 0.103937c5.72953,-4.63937 9.71339,-11.5264 10.598,-19.5732 0.875198,-7.97127 -1.55669,-15.5386 -6.19725,-21.3248l0.0200788 -0.186614z"/>
  <path class="fil12" d="M921.613 1163.29c-4.01929,-5.01378 -10.0878,-8.50985 -17.2477,-9.29764 -7.05827,-0.775985 -13.761,1.37953 -18.8858,5.48977 -5.12363,4.11024 -8.68465,10.1835 -9.46064,17.2417 -0.774804,7.05591 1.38189,13.7587 5.49095,18.8835 4.11024,5.12481 10.1835,8.68465 17.2417,9.45946 7.05001,0.775985 13.748,-1.38189 18.8728,-5.49213l0.0744095 0.0921261c5.07166,-4.10788 8.59961,-10.2059 9.38268,-17.3303 0.775985,-7.05827 -1.37835,-13.7587 -5.48622,-18.8811l0.0177165 -0.165354z"/>
 </g>
</svg>
