<?xml version="1.0" encoding="UTF-8"?>
<!DOCTYPE svg PUBLIC "-//W3C//DTD SVG 1.1//EN" "http://www.w3.org/Graphics/SVG/1.1/DTD/svg11.dtd">
<!-- Creator: CorelDRAW -->
<svg xmlns="http://www.w3.org/2000/svg" xml:space="preserve" width="2048px" height="2048px" style="shape-rendering:geometricPrecision; text-rendering:geometricPrecision; image-rendering:optimizeQuality; fill-rule:evenodd; clip-rule:evenodd"
viewBox="0 0 2048 2048"
 xmlns:xlink="http://www.w3.org/1999/xlink">
 <defs>
  <style type="text/css">
   <![CDATA[
    .fil2 {fill:none}
    .fil1 {fill:#26A69A}
    .fil0 {fill:#4DB6AC}
    .fil4 {fill:#0277BD;fill-rule:nonzero}
    .fil7 {fill:#1B5E20;fill-rule:nonzero}
    .fil5 {fill:#212121;fill-rule:nonzero}
    .fil3 {fill:#D50000;fill-rule:nonzero}
    .fil6 {fill:#F57F17;fill-rule:nonzero}
   ]]>
  </style>
   <clipPath id="id0">
    <path d="M1024 0c565.539,0 1024,458.461 1024,1024 0,565.539 -458.461,1024 -1024,1024 -565.539,0 -1024,-458.461 -1024,-1024 0,-565.539 458.461,-1024 1024,-1024z"/>
   </clipPath>
 </defs>
 <g id="Layer_x0020_1">
  <metadata id="CorelCorpID_0Corel-Layer"/>
  <path class="fil0" d="M1024 0c565.539,0 1024,458.461 1024,1024 0,565.539 -458.461,1024 -1024,1024 -565.539,0 -1024,-458.461 -1024,-1024 0,-565.539 458.461,-1024 1024,-1024z"/>
  <g style="clip-path:url(#id0)">
   <g id="_478208416">
    <g>
     <polygon id="_3926346721" class="fil1" points="1540.35,817.488 2676.23,1953.37 2679,1956.65 2681.7,1960 2684.32,1963.41 2686.86,1966.88 2689.31,1970.42 2691.68,1974.02 2693.97,1977.68 2696.16,1981.4 2698.28,1985.17 2700.3,1989 2702.23,1992.88 2704.07,1996.82 2705.81,2000.81 2707.47,2004.84 2709.02,2008.93 2710.48,2013.06 2711.83,2017.24 2713.09,2021.47 2714.25,2025.73 2715.3,2030.04 2716.25,2034.39 2717.09,2038.77 2717.82,2043.2 2718.44,2047.65 2718.96,2052.15 2719.36,2056.67 2719.65,2061.23 2719.82,2065.82 2719.88,2070.44 1584,934.554 1583.94,929.937 1583.77,925.35 1583.48,920.792 1583.08,916.264 1582.56,911.772 1581.94,907.313 1581.21,902.89 1580.36,898.504 1579.42,894.157 1578.36,889.849 1577.21,885.583 1575.95,881.361 1574.59,877.182 1573.14,873.049 1571.58,868.962 1569.93,864.925 1568.19,860.938 1566.35,857.001 1564.42,853.118 1562.4,849.288 1560.28,845.514 1558.08,841.797 1555.8,838.138 1553.43,834.539 1550.97,831.001 1548.44,827.525 1545.82,824.114 1543.12,820.768 "/>
     <polygon id="_392617728" class="fil1" points="1584,934.554 2719.88,2070.44 2719.82,2075.05 2719.65,2079.64 2719.36,2084.2 2718.96,2088.73 2718.44,2093.22 2717.82,2097.68 2717.09,2102.1 2716.25,2106.49 2715.3,2110.84 2714.25,2115.14 2713.09,2119.41 2711.83,2123.63 2710.48,2127.81 2709.02,2131.94 2707.47,2136.03 2705.81,2140.07 2704.07,2144.06 2702.23,2147.99 2700.3,2151.88 2698.28,2155.71 2696.17,2159.48 2693.97,2163.2 2691.68,2166.86 2689.31,2170.46 2686.86,2173.99 2684.32,2177.47 2681.7,2180.88 2679.01,2184.23 2676.23,2187.51 2673.38,2190.72 2670.45,2193.86 2667.45,2196.93 1531.57,1061.05 1534.57,1057.98 1537.5,1054.84 1540.35,1051.62 1543.12,1048.34 1545.82,1045 1548.44,1041.59 1550.98,1038.11 1553.43,1034.57 1555.8,1030.97 1558.09,1027.32 1560.28,1023.6 1562.4,1019.82 1564.42,1015.99 1566.35,1012.11 1568.19,1008.17 1569.93,1004.19 1571.58,1000.15 1573.14,996.062 1574.59,991.93 1575.95,987.75 1577.21,983.527 1578.36,979.261 1579.42,974.954 1580.36,970.606 1581.21,966.22 1581.94,961.797 1582.56,957.337 1583.08,952.844 1583.48,948.317 1583.77,943.759 1583.94,939.171 "/>
     <polygon id="_392628192" class="fil1" points="1153.57,811.133 2289.45,1947.02 2292.38,1950.16 2295.23,1953.37 2298.01,1956.65 2300.7,1959.99 2303.32,1963.41 2305.86,1966.88 2308.31,1970.42 2310.68,1974.02 2312.97,1977.68 2315.17,1981.4 2317.28,1985.17 2319.3,1989 2321.23,1992.88 2323.07,1996.82 2324.82,2000.81 2326.47,2004.84 2328.02,2008.93 2329.48,2013.06 2330.84,2017.24 2332.09,2021.47 2333.25,2025.73 2334.3,2030.04 2335.25,2034.39 2336.09,2038.77 2336.82,2043.2 2337.44,2047.65 2337.96,2052.15 2338.36,2056.67 2338.65,2061.23 2338.82,2065.82 2338.88,2070.44 1203,934.554 1202.94,929.937 1202.77,925.35 1202.48,920.792 1202.08,916.264 1201.56,911.772 1200.94,907.313 1200.21,902.89 1199.37,898.504 1198.42,894.157 1197.37,889.849 1196.21,885.583 1194.95,881.361 1193.6,877.182 1192.14,873.049 1190.59,868.962 1188.94,864.925 1187.19,860.938 1185.35,857.001 1183.42,853.118 1181.4,849.288 1179.29,845.514 1177.09,841.797 1174.8,838.138 1172.43,834.538 1169.97,831.001 1167.44,827.525 1164.82,824.112 1162.12,820.766 1159.35,817.486 1156.5,814.275 "/>
     <polygon id="_392636688" class="fil1" points="1405,1113.44 2540.88,2249.33 2539.43,2249.32 2537.99,2249.3 2536.55,2249.28 2535.11,2249.24 2533.67,2249.19 2532.24,2249.12 2530.81,2249.05 2529.38,2248.96 1393.5,1113.08 1394.93,1113.17 1396.36,1113.24 1397.79,1113.3 1399.23,1113.35 1400.66,1113.39 1402.11,1113.42 1403.55,1113.44 "/>
     <polygon id="_392624352" class="fil1" points="1393.5,1113.08 2529.38,2248.96 2529.38,2249.01 2529.38,2249.05 2529.38,2249.1 2529.38,2249.15 2529.38,2249.19 2529.38,2249.24 2529.38,2249.28 2529.38,2249.32 1393.5,1113.44 1393.5,1113.4 1393.5,1113.35 1393.5,1113.31 1393.5,1113.26 1393.5,1113.22 1393.5,1113.17 1393.5,1113.13 "/>
     <polygon id="_392641104" class="fil1" points="1203,934.554 2338.88,2070.44 2338.88,2070.48 2338.88,2070.53 2338.88,2070.57 2338.88,2070.62 2338.88,2070.66 2338.88,2070.71 2338.88,2070.76 2338.88,2070.8 1203,934.92 1203,934.874 1203,934.828 1203,934.782 1203,934.737 1203,934.691 1203,934.645 1203,934.6 "/>
     <polygon id="_392635608" class="fil1" points="769.575,808.064 1905.46,1943.95 1908.46,1947.02 1911.38,1950.16 1914.23,1953.37 1917.01,1956.65 1919.71,1960 1922.32,1963.41 1924.86,1966.88 1927.31,1970.42 1929.69,1974.02 1931.97,1977.68 1934.17,1981.4 1936.28,1985.17 1938.3,1989 1940.23,1992.88 1942.07,1996.82 1943.82,2000.81 1945.47,2004.84 1947.02,2008.93 1948.48,2013.06 1949.84,2017.24 1951.1,2021.47 1952.25,2025.73 1953.3,2030.04 1954.25,2034.39 1955.09,2038.77 1955.82,2043.19 1956.45,2047.65 1956.96,2052.15 1957.36,2056.67 1957.65,2061.23 1957.83,2065.82 1957.89,2070.44 822.005,934.554 821.946,929.937 821.773,925.348 821.483,920.79 821.081,916.264 820.567,911.772 819.943,907.312 819.21,902.888 818.369,898.503 817.421,894.155 816.369,889.849 815.214,885.583 813.957,881.359 812.599,877.181 811.143,873.048 809.588,868.962 807.937,864.924 806.192,860.937 804.353,857 802.421,853.117 800.399,849.288 798.289,845.513 796.09,841.796 793.804,838.137 791.432,834.538 788.979,831.001 786.442,827.525 783.825,824.114 781.129,820.766 778.353,817.488 775.502,814.276 772.575,811.134 "/>
     <polygon id="_392621832" class="fil1" points="1024,1113.44 2159.88,2249.33 2158.43,2249.32 2156.99,2249.3 2155.55,2249.28 2154.11,2249.24 2152.67,2249.19 2151.24,2249.12 2149.81,2249.05 2148.38,2248.96 1012.5,1113.08 1013.93,1113.17 1015.36,1113.24 1016.79,1113.3 1018.23,1113.35 1019.67,1113.39 1021.11,1113.42 1022.55,1113.44 "/>
     <polygon id="_392613648" class="fil1" points="1035.5,1113.08 2171.38,2248.96 2169.95,2249.05 2168.52,2249.12 2167.09,2249.18 2165.65,2249.24 2164.21,2249.28 2162.77,2249.3 2161.32,2249.32 2159.88,2249.33 1024,1113.44 1025.44,1113.44 1026.89,1113.42 1028.33,1113.39 1029.77,1113.35 1031.21,1113.3 1032.64,1113.24 1034.07,1113.17 "/>
     <polygon id="_392625336" class="fil1" points="1012.5,1113.08 2148.38,2248.96 2148.38,2249.01 2148.38,2249.05 2148.38,2249.1 2148.38,2249.15 2148.38,2249.19 2148.38,2249.24 2148.38,2249.28 2148.38,2249.32 1012.5,1113.44 1012.5,1113.4 1012.5,1113.35 1012.5,1113.31 1012.5,1113.26 1012.5,1113.22 1012.5,1113.17 1012.5,1113.13 "/>
     <polygon id="_392627064" class="fil1" points="822.005,934.554 1957.89,2070.44 1957.89,2070.48 1957.89,2070.53 1957.89,2070.57 1957.89,2070.62 1957.89,2070.66 1957.89,2070.71 1957.88,2070.76 1957.88,2070.8 822.002,934.919 822.003,934.873 822.004,934.828 822.004,934.782 822.005,934.736 822.005,934.691 822.005,934.645 822.005,934.6 "/>
     <polygon id="_392633784" class="fil1" points="1012.5,1113.44 2148.38,2249.32 2148.33,2253.94 2148.15,2258.53 2147.86,2263.09 2147.46,2267.62 2146.95,2272.11 2146.32,2276.57 2145.59,2280.99 2144.75,2285.38 2143.8,2289.72 2142.75,2294.03 2141.59,2298.3 2140.34,2302.52 2138.98,2306.7 2137.52,2310.83 2135.97,2314.92 2134.32,2318.96 2132.57,2322.94 2130.73,2326.88 2128.8,2330.76 2126.78,2334.59 2124.67,2338.37 2122.47,2342.09 2120.18,2345.74 2117.81,2349.34 2115.36,2352.88 2112.82,2356.36 2110.2,2359.77 2107.51,2363.11 2104.73,2366.39 2101.88,2369.61 2098.95,2372.75 2095.95,2375.82 960.073,1239.94 963.073,1236.87 966,1233.72 968.852,1230.51 971.626,1227.23 974.323,1223.89 976.94,1220.48 979.477,1217 981.931,1213.46 984.302,1209.86 986.587,1206.2 988.787,1202.49 990.897,1198.71 992.919,1194.88 994.85,1191 996.691,1187.06 998.436,1183.07 1000.09,1179.04 1001.64,1174.95 1003.1,1170.82 1004.46,1166.64 1005.71,1162.42 1006.87,1158.15 1007.92,1153.84 1008.87,1149.49 1009.71,1145.11 1010.44,1140.69 1011.06,1136.23 1011.58,1131.73 1011.98,1127.21 1012.27,1122.65 1012.44,1118.06 "/>
     <polygon id="_392622096" class="fil1" points="654.5,1113.08 1790.38,2248.96 1788.95,2249.05 1787.52,2249.12 1786.09,2249.19 1784.66,2249.24 1783.22,2249.28 1781.78,2249.3 1780.33,2249.32 1778.89,2249.33 643.004,1113.44 644.451,1113.44 645.896,1113.42 647.337,1113.39 648.775,1113.35 650.21,1113.3 651.643,1113.24 653.073,1113.17 "/>
     <polygon id="_392636832" class="fil1" points="643.004,1113.44 1778.89,2249.33 1774.27,2249.27 1769.67,2249.09 1765.11,2248.81 1760.58,2248.4 1756.09,2247.89 1751.63,2247.27 1747.2,2246.53 1742.81,2245.69 1738.46,2244.75 1734.15,2243.7 1729.88,2242.54 1725.66,2241.29 1721.47,2239.93 1717.34,2238.47 1713.25,2236.92 1709.21,2235.27 1705.22,2233.52 1701.28,2231.69 1697.39,2229.76 1693.56,2227.74 1689.79,2225.63 1686.07,2223.43 1682.4,2221.15 1678.8,2218.78 1675.26,2216.32 1671.78,2213.79 1668.37,2211.17 1665.02,2208.48 1661.74,2205.7 1658.53,2202.85 522.646,1066.97 525.859,1069.82 529.141,1072.6 532.49,1075.29 535.903,1077.91 539.382,1080.44 542.921,1082.89 546.524,1085.26 550.185,1087.55 553.904,1089.74 557.682,1091.85 561.513,1093.87 565.399,1095.8 569.338,1097.64 573.329,1099.39 577.369,1101.04 581.457,1102.59 585.593,1104.05 589.774,1105.4 594,1106.66 598.269,1107.81 602.579,1108.86 606.93,1109.81 611.318,1110.65 615.745,1111.38 620.207,1112.01 624.703,1112.52 629.232,1112.92 633.793,1113.21 638.384,1113.39 "/>
     <polygon id="_392618760" class="fil1" points="960.073,1239.94 2095.95,2375.82 2092.88,2378.82 2089.74,2381.74 2086.52,2384.59 2083.24,2387.37 2079.89,2390.06 2076.48,2392.68 2073,2395.21 2069.46,2397.66 2065.86,2400.03 2062.2,2402.32 2058.48,2404.51 2054.7,2406.62 2050.87,2408.65 2046.99,2410.58 2043.05,2412.41 2039.06,2414.16 2035.02,2415.81 2030.93,2417.36 2026.79,2418.82 2022.61,2420.17 2018.39,2421.43 2014.12,2422.58 2009.81,2423.63 2005.46,2424.58 2001.07,2425.42 1996.64,2426.16 1992.18,2426.78 1987.68,2427.29 1983.15,2427.69 1978.59,2427.98 1974,2428.16 1969.38,2428.22 833.5,1292.33 838.12,1292.28 842.711,1292.1 847.273,1291.81 851.801,1291.41 856.298,1290.9 860.76,1290.27 865.185,1289.54 869.574,1288.7 873.924,1287.75 878.235,1286.7 882.504,1285.55 886.729,1284.29 890.911,1282.93 895.046,1281.48 899.135,1279.92 903.174,1278.27 907.165,1276.53 911.104,1274.69 914.99,1272.76 918.823,1270.74 922.599,1268.63 926.318,1266.43 929.979,1264.15 933.581,1261.78 937.122,1259.33 940.599,1256.79 944.013,1254.18 947.361,1251.48 950.643,1248.71 953.857,1245.86 957,1242.94 "/>
     <polygon id="_392640816" class="fil1" points="833.5,1292.33 1969.38,2428.22 1964.76,2428.16 1960.17,2427.98 1955.61,2427.69 1951.08,2427.29 1946.58,2426.78 1942.12,2426.16 1937.7,2425.42 1933.31,2424.58 1928.96,2423.63 1924.65,2422.58 1920.38,2421.43 1916.15,2420.17 1911.97,2418.82 1907.84,2417.36 1903.75,2415.81 1899.71,2414.16 1895.72,2412.41 1891.78,2410.58 1887.89,2408.65 1884.06,2406.62 1880.28,2404.51 1876.56,2402.32 1872.9,2400.03 1869.3,2397.66 1865.76,2395.21 1862.28,2392.68 1858.87,2390.06 1855.52,2387.36 1852.24,2384.59 1849.03,2381.74 713.144,1245.86 716.358,1248.71 719.64,1251.48 722.989,1254.18 726.402,1256.79 729.879,1259.33 733.42,1261.78 737.021,1264.15 740.683,1266.43 744.402,1268.63 748.179,1270.74 752.011,1272.76 755.897,1274.69 759.836,1276.53 763.827,1278.27 767.866,1279.92 771.955,1281.48 776.091,1282.93 780.272,1284.29 784.498,1285.55 788.767,1286.7 793.077,1287.75 797.427,1288.7 801.816,1289.54 806.241,1290.27 810.702,1290.9 815.199,1291.41 819.728,1291.81 824.288,1292.1 828.881,1292.28 "/>
     <polygon id="_392626536" class="fil1" points="1341.07,1239.94 2476.95,2375.82 2473.88,2378.82 2470.74,2381.74 2467.52,2384.59 2464.24,2387.36 2460.89,2390.06 2457.48,2392.68 2454,2395.21 2450.46,2397.66 2446.86,2400.03 2443.2,2402.32 2439.48,2404.51 2435.7,2406.62 2431.87,2408.65 2427.98,2410.58 2424.04,2412.41 2420.05,2414.16 2416.01,2415.81 2411.93,2417.36 2407.79,2418.82 2403.61,2420.17 2399.38,2421.43 2395.11,2422.58 2390.8,2423.63 2386.45,2424.58 2382.07,2425.42 2377.64,2426.16 2373.18,2426.78 2368.68,2427.29 2364.15,2427.69 2359.59,2427.98 2355,2428.16 2350.38,2428.22 1214.5,1292.33 1219.12,1292.28 1223.71,1292.1 1228.27,1291.81 1232.8,1291.41 1237.3,1290.9 1241.76,1290.27 1246.18,1289.54 1250.57,1288.7 1254.92,1287.75 1259.23,1286.7 1263.5,1285.55 1267.73,1284.29 1271.91,1282.93 1276.04,1281.48 1280.13,1279.92 1284.17,1278.27 1288.16,1276.53 1292.1,1274.69 1295.99,1272.76 1299.82,1270.74 1303.6,1268.63 1307.32,1266.43 1310.98,1264.15 1314.58,1261.78 1318.12,1259.33 1321.6,1256.79 1325.01,1254.18 1328.36,1251.48 1331.64,1248.71 1334.85,1245.86 1338,1242.93 "/>
     <polygon id="_392635512" class="fil1" points="1214.5,1292.33 2350.38,2428.22 2345.76,2428.16 2341.17,2427.98 2336.61,2427.69 2332.08,2427.29 2327.58,2426.78 2323.12,2426.16 2318.69,2425.42 2314.31,2424.58 2309.96,2423.63 2305.65,2422.58 2301.38,2421.43 2297.15,2420.17 2292.97,2418.82 2288.84,2417.36 2284.75,2415.81 2280.71,2414.16 2276.72,2412.41 2272.78,2410.58 2268.89,2408.65 2265.06,2406.62 2261.28,2404.51 2257.56,2402.32 2253.9,2400.03 2250.3,2397.66 2246.76,2395.21 2243.28,2392.68 2239.87,2390.06 2236.52,2387.37 2233.24,2384.59 2230.02,2381.74 2226.88,2378.82 1091,1242.94 1094.14,1245.86 1097.36,1248.71 1100.64,1251.48 1103.99,1254.18 1107.4,1256.79 1110.88,1259.33 1114.42,1261.78 1118.02,1264.15 1121.68,1266.43 1125.4,1268.63 1129.18,1270.74 1133.01,1272.76 1136.9,1274.69 1140.83,1276.53 1144.82,1278.27 1148.87,1279.92 1152.95,1281.48 1157.09,1282.93 1161.27,1284.29 1165.5,1285.55 1169.76,1286.7 1174.07,1287.75 1178.42,1288.7 1182.81,1289.54 1187.24,1290.27 1191.7,1290.9 1196.2,1291.41 1200.73,1291.81 1205.29,1292.1 1209.88,1292.28 "/>
     <polygon id="_392634720" class="fil1" points="1531.57,1061.05 2667.45,2196.93 2664.38,2199.93 2661.23,2202.85 2658.02,2205.7 2654.74,2208.48 2651.39,2211.17 2647.98,2213.79 2644.5,2216.32 2640.96,2218.78 2637.36,2221.15 2633.7,2223.43 2629.98,2225.63 2626.2,2227.74 2622.37,2229.76 2618.48,2231.69 2614.54,2233.52 2610.55,2235.27 2606.51,2236.92 2602.42,2238.47 2598.29,2239.93 2594.11,2241.29 2589.88,2242.54 2585.61,2243.7 2581.3,2244.75 2576.95,2245.69 2572.56,2246.53 2568.14,2247.27 2563.68,2247.89 2559.18,2248.4 2554.65,2248.81 2550.09,2249.09 2545.5,2249.27 2540.88,2249.33 1405,1113.44 1409.62,1113.39 1414.21,1113.21 1418.77,1112.92 1423.3,1112.52 1427.79,1112.01 1432.26,1111.38 1436.68,1110.65 1441.07,1109.81 1445.42,1108.86 1449.73,1107.81 1454,1106.66 1458.23,1105.4 1462.41,1104.05 1466.54,1102.59 1470.63,1101.04 1474.67,1099.39 1478.66,1097.64 1482.6,1095.8 1486.49,1093.87 1490.32,1091.85 1494.1,1089.74 1497.82,1087.55 1501.48,1085.26 1505.08,1082.89 1508.62,1080.44 1512.1,1077.91 1515.51,1075.29 1518.86,1072.6 1522.14,1069.82 1525.35,1066.97 1528.5,1064.05 "/>
     <polygon id="_392634384" class="fil1" points="1393.5,1113.44 2529.38,2249.32 2529.32,2253.94 2529.15,2258.53 2528.86,2263.09 2528.46,2267.61 2527.94,2272.11 2527.32,2276.57 2526.59,2280.99 2525.75,2285.38 2524.8,2289.72 2523.75,2294.03 2522.59,2298.3 2521.34,2302.52 2519.98,2306.7 2518.52,2310.83 2516.97,2314.92 2515.32,2318.96 2513.57,2322.94 2511.73,2326.88 2509.8,2330.76 2507.78,2334.59 2505.67,2338.37 2503.47,2342.09 2501.18,2345.74 2498.81,2349.34 2496.36,2352.88 2493.82,2356.36 2491.2,2359.77 2488.51,2363.11 2485.73,2366.39 2482.88,2369.6 2479.95,2372.75 2476.95,2375.82 1341.07,1239.94 1344.07,1236.86 1347,1233.72 1349.85,1230.51 1352.63,1227.23 1355.32,1223.89 1357.94,1220.47 1360.48,1217 1362.93,1213.46 1365.3,1209.86 1367.59,1206.2 1369.79,1202.48 1371.9,1198.71 1373.92,1194.88 1375.85,1191 1377.69,1187.06 1379.43,1183.07 1381.09,1179.04 1382.64,1174.95 1384.1,1170.82 1385.45,1166.64 1386.71,1162.41 1387.87,1158.15 1388.92,1153.84 1389.87,1149.49 1390.71,1145.11 1391.44,1140.68 1392.06,1136.23 1392.58,1131.73 1392.98,1127.21 1393.27,1122.65 1393.44,1118.06 "/>
    </g>
    <path id="_478222768" class="fil1" d="M1405 755.666c49.4292,0 94.1812,20.0244 126.574,52.3973 32.3941,32.3729 52.4315,77.0953 52.4315,126.49 0,49.3985 -20.0374,94.1221 -52.4304,126.495 -32.3941,32.3729 -77.1449,52.3961 -126.575,52.3961 -3.86103,0 -7.69371,-0.121654 -11.4933,-0.362599 0,0.120473 0,0.239764 0,0.360236 0,49.3973 -20.0374,94.1209 -52.4304,126.493 -32.3941,32.3752 -77.1449,52.3985 -126.573,52.3985 -49.428,0 -94.1788,-20.0232 -126.573,-52.3973 -32.3929,-32.3717 -52.4292,-77.0953 -52.4292,-126.494 0,-0.120473 0,-0.240945 0,-0.361418 -3.80197,0.240945 -7.63701,0.36378 -11.5004,0.36378 -3.86103,0 -7.69371,-0.121654 -11.4933,-0.362599 0,0.120473 0,0.239764 0,0.360236 0,49.3985 -20.0362,94.1221 -52.4304,126.494 -32.3929,32.374 -77.1438,52.3973 -126.573,52.3973 -49.4268,0 -94.1788,-20.0232 -126.572,-52.3985 -32.3929,-32.3717 -52.4304,-77.0953 -52.4304,-126.493 0,-0.120473 0,-0.239764 0.00236221,-0.360236 -3.80079,0.240945 -7.63347,0.362599 -11.4957,0.362599 -49.4292,0 -94.1812,-20.0232 -126.575,-52.3961 -32.3929,-32.3729 -52.4304,-77.0965 -52.4304,-126.495 0,-49.3961 20.0374,-94.1186 52.4304,-126.491 32.3953,-32.3717 77.1461,-52.3961 126.575,-52.3961 49.4268,0 94.1776,20.0232 126.571,52.3973 32.3929,32.3717 52.4304,77.0942 52.4304,126.49 0,0.121654 0,0.243307 -0.00354331,0.364961 3.80197,-0.239764 7.63583,-0.362599 11.498,-0.362599 3.86221,0 7.69607,0.122835 11.4969,0.362599 0,-0.121654 0,-0.243307 0,-0.364961 0,-49.3949 20.0374,-94.1186 52.4292,-126.49 32.3929,-32.3729 77.1438,-52.3973 126.571,-52.3973 49.4304,0 94.1812,20.0244 126.574,52.3961 32.3953,32.374 52.4315,77.0965 52.4315,126.491 0,0.121654 0,0.243307 -0.00236221,0.366142 3.80197,-0.240945 7.63583,-0.36378 11.4992,-0.36378 3.86221,0 7.69489,0.121654 11.4957,0.362599 0,-0.121654 0,-0.243307 0,-0.364961 0,-49.3949 20.0374,-94.1186 52.4304,-126.49 32.3929,-32.3729 77.1449,-52.3973 126.571,-52.3973z"/>
   </g>
  </g>
  <path class="fil2" d="M1024 0c565.539,0 1024,458.461 1024,1024 0,565.539 -458.461,1024 -1024,1024 -565.539,0 -1024,-458.461 -1024,-1024 0,-565.539 458.461,-1024 1024,-1024z"/>
  <path class="fil3" d="M1405 755.666c49.428,0 94.18,20.0244 126.573,52.3973 32.3941,32.3729 52.4304,77.0953 52.4304,126.49 0,49.3985 -20.0362,94.1221 -52.4292,126.495 -32.3941,32.3729 -77.1449,52.3961 -126.574,52.3961 -49.428,0 -94.1788,-20.0232 -126.573,-52.3973 -32.3929,-32.3729 -52.4292,-77.0953 -52.4292,-126.494 0,-49.3949 20.0374,-94.1186 52.4304,-126.49 32.3929,-32.3729 77.1438,-52.3973 126.572,-52.3973zm94.9324 84.0166c-24.2918,-24.2764 -57.8563,-39.2929 -94.9324,-39.2929 -37.0748,0 -70.6394,15.0165 -94.9312,39.2929 -24.2918,24.2776 -39.3189,57.8197 -39.3189,94.8709 0,37.0536 15.026,70.5957 39.3177,94.8733 24.2929,24.2788 57.8563,39.2941 94.9324,39.2941 37.076,0 70.6406,-15.0154 94.9335,-39.2929 24.2918,-24.2764 39.3189,-57.8209 39.3189,-94.8745 0,-37.0512 -15.026,-70.5934 -39.3201,-94.8709z"/>
  <path class="fil4" d="M643.004 755.666c49.4268,0 94.1776,20.0244 126.571,52.3973 32.3929,32.3717 52.4292,77.0942 52.4292,126.49 0,49.3985 -20.0362,94.1221 -52.428,126.495 -32.3929,32.3729 -77.1438,52.3961 -126.572,52.3961 -49.4292,0 -94.1812,-20.0232 -126.575,-52.3961 -32.3929,-32.3729 -52.4292,-77.0965 -52.4292,-126.495 0,-49.3961 20.0351,-94.1186 52.4304,-126.491 32.3941,-32.3717 77.1449,-52.3961 126.574,-52.3961zm94.93 84.0166c-24.2918,-24.2764 -57.8552,-39.2929 -94.93,-39.2929 -37.0772,0 -70.6418,15.0165 -94.9347,39.2929 -24.2929,24.2776 -39.3189,57.8197 -39.3189,94.8709 0,37.0536 15.0272,70.5981 39.3189,94.8745 24.2929,24.2776 57.8575,39.2929 94.9347,39.2929 37.0748,0 70.6394,-15.0154 94.9312,-39.2929 24.2918,-24.2764 39.3177,-57.8209 39.3177,-94.8745 0,-37.0512 -15.0272,-70.5934 -39.3189,-94.8709z"/>
  <path class="fil5" d="M1024 755.666c49.4304,0 94.1812,20.0244 126.575,52.3961 32.3941,32.374 52.4304,77.0965 52.4304,126.491 0,49.3985 -20.0374,94.1221 -52.4292,126.495 -32.3953,32.3729 -77.1461,52.3961 -126.576,52.3961 -49.4268,0 -94.1776,-20.0232 -126.571,-52.3973 -32.3929,-32.3729 -52.4292,-77.0953 -52.4292,-126.494 0,-49.3949 20.0374,-94.1186 52.4304,-126.49 32.3918,-32.3729 77.1426,-52.3973 126.569,-52.3973zm94.9347 84.0166c-24.2929,-24.2764 -57.8575,-39.2929 -94.9347,-39.2929 -37.0737,0 -70.6382,15.0165 -94.93,39.2929 -24.2918,24.2776 -39.3177,57.8197 -39.3177,94.8709 0,37.0536 15.026,70.5957 39.3177,94.8733 24.2918,24.2788 57.8563,39.2941 94.93,39.2941 37.0772,0 70.6418,-15.0154 94.9359,-39.2929 24.2918,-24.2764 39.3177,-57.8209 39.3177,-94.8745 0,-37.0512 -15.026,-70.5934 -39.3189,-94.8709z"/>
  <path class="fil4" d="M822.002 934.919c-0.0318898,15.7193 -2.09291,30.9614 -5.93386,45.4831 -20.7862,2.69292 -40.0807,10.1374 -56.7556,21.2055 9.97796,-17.2512 16.2225,-36.9319 17.6339,-57.9355 14.302,-4.7563 29.4047,-7.76221 45.0555,-8.75316zm-122.445 169.41c-14.3032,4.7563 -29.4059,7.76221 -45.0555,8.75316 0.0307087,-15.7205 2.09291,-30.9626 5.93386,-45.4831 20.7874,-2.69292 40.0807,-10.1362 56.7556,-21.2043 -9.97796,17.2512 -16.2236,36.9307 -17.6339,57.9343z"/>
  <path class="fil5" d="M1012.5 1113.08c-15.6508,-0.990946 -30.7536,-3.99685 -45.0555,-8.75316 -1.40906,-21.0036 -7.65591,-40.6831 -17.6327,-57.9343 16.676,11.0669 35.967,18.5126 56.7544,21.2043 3.84095,14.5217 5.90315,29.7626 5.93386,45.4831zm-161.567 -132.68c-3.84095,-14.5205 -5.90197,-29.7638 -5.93386,-45.4831 15.6496,0.992127 30.7536,3.99685 45.0555,8.75316 1.41024,21.0047 7.65591,40.6831 17.6327,57.9355 -16.6748,-11.0681 -35.967,-18.5114 -56.7544,-21.2055z"/>
  <path class="fil6" d="M833.5 934.556c49.428,0 94.1788,20.0232 126.573,52.3949 32.3941,32.3729 52.4304,77.0953 52.4304,126.491 0,49.3985 -20.0374,94.1221 -52.4292,126.494 -32.3941,32.374 -77.1461,52.3973 -126.574,52.3973 -49.4268,0 -94.1788,-20.0232 -126.572,-52.3973 -32.3929,-32.3729 -52.4304,-77.0965 -52.4304,-126.494 0,-49.3961 20.0386,-94.1186 52.4304,-126.49 32.3929,-32.3717 77.1449,-52.3961 126.572,-52.3961zm94.9324 84.0154c-24.2929,-24.2764 -57.8563,-39.2929 -94.9324,-39.2929 -37.0748,0 -70.6394,15.0177 -94.9312,39.2941 -24.2918,24.2764 -39.3189,57.8185 -39.3189,94.8698 0,37.0524 15.026,70.5969 39.3177,94.8733 24.2929,24.2788 57.8587,39.2953 94.9324,39.2953 37.076,0 70.6406,-15.0165 94.9335,-39.2941 24.2918,-24.2764 39.3177,-57.8209 39.3177,-94.8745 0,-37.0512 -15.0248,-70.5934 -39.3189,-94.8709z"/>
  <path class="fil7" d="M1214.5 934.556c49.4268,0 94.18,20.0244 126.572,52.3961 32.3929,32.3717 52.4304,77.0942 52.4304,126.49 0,49.3973 -20.0362,94.1209 -52.4292,126.494 -32.3941,32.374 -77.1449,52.3973 -126.573,52.3973 -49.428,0 -94.1788,-20.0232 -126.573,-52.3973 -32.3929,-32.3717 -52.4292,-77.0953 -52.4292,-126.494 0,-49.3961 20.0362,-94.1186 52.4292,-126.491 32.3941,-32.3717 77.1449,-52.3949 126.573,-52.3949zm94.9312 84.0166c-24.2918,-24.2764 -57.8563,-39.2941 -94.9312,-39.2941 -37.076,0 -70.6394,15.0165 -94.9324,39.2929 -24.2918,24.2764 -39.3189,57.8197 -39.3189,94.8709 0,37.0536 15.0272,70.5981 39.3189,94.8745 24.2929,24.2776 57.8563,39.2941 94.9324,39.2941 37.0748,0 70.6394,-15.0177 94.9324,-39.2953 24.2918,-24.2764 39.3189,-57.8209 39.3189,-94.8733 0,-37.0512 -15.0272,-70.5934 -39.3201,-94.8698z"/>
  <path class="fil4" d="M822.002 934.919c-0.0318898,15.7193 -2.09291,30.9614 -5.93386,45.4831 -20.7862,2.69292 -40.0807,10.1374 -56.7556,21.2055 9.97796,-17.2512 16.2225,-36.9319 17.6339,-57.9355 14.302,-4.7563 29.4047,-7.76221 45.0555,-8.75316z"/>
  <path class="fil5" d="M1006.57 1067.6c3.84095,14.5217 5.90315,29.7626 5.93386,45.4831 -15.6508,-0.990946 -30.7536,-3.99685 -45.0555,-8.75316 -1.40906,-21.0036 -7.65591,-40.6831 -17.6327,-57.9343 16.676,11.0669 35.967,18.5126 56.7544,21.2043z"/>
  <path class="fil5" d="M1203 934.919c-0.0318898,15.7193 -2.0941,30.9626 -5.93386,45.4831 -20.7874,2.6941 -40.0796,10.1374 -56.7556,21.2055 9.97678,-17.2524 16.2225,-36.9319 17.6339,-57.9355 14.302,-4.7563 29.4047,-7.76103 45.0555,-8.75316z"/>
  <path class="fil3" d="M1393.5 1113.08c-15.6496,-0.990946 -30.7536,-3.99685 -45.0555,-8.75316 -1.41024,-21.0036 -7.65709,-40.6843 -17.6351,-57.9367 16.676,11.0693 35.9693,18.5138 56.7567,21.2067 3.84095,14.5205 5.90315,29.7638 5.93386,45.4831z"/>
 </g>
</svg>
