<?xml version="1.0" encoding="UTF-8"?>
<!DOCTYPE svg PUBLIC "-//W3C//DTD SVG 1.1//EN" "http://www.w3.org/Graphics/SVG/1.1/DTD/svg11.dtd">
<!-- Creator: CorelDRAW -->
<svg xmlns="http://www.w3.org/2000/svg" xml:space="preserve" width="2048px" height="2048px" style="shape-rendering:geometricPrecision; text-rendering:geometricPrecision; image-rendering:optimizeQuality; fill-rule:evenodd; clip-rule:evenodd"
viewBox="0 0 2048 2048"
 xmlns:xlink="http://www.w3.org/1999/xlink">
 <defs>
  <style type="text/css">
   <![CDATA[
    .fil2 {fill:none}
    .fil1 {fill:#5E35B1}
    .fil0 {fill:#9575CD}
    .fil4 {fill:#EDBE97}
    .fil7 {fill:black;fill-rule:nonzero}
    .fil9 {fill:#03A9F4;fill-rule:nonzero}
    .fil6 {fill:#212121;fill-rule:nonzero}
    .fil3 {fill:#EDE7F6;fill-rule:nonzero}
    .fil8 {fill:#FF9800;fill-rule:nonzero}
    .fil5 {fill:#FFD3AE;fill-rule:nonzero}
   ]]>
  </style>
   <clipPath id="id0">
    <path d="M1024 0c565.539,0 1024,458.461 1024,1024 0,565.539 -458.461,1024 -1024,1024 -565.539,0 -1024,-458.461 -1024,-1024 0,-565.539 458.461,-1024 1024,-1024z"/>
   </clipPath>
 </defs>
 <g id="Layer_x0020_1">
  <metadata id="CorelCorpID_0Corel-Layer"/>
  <path class="fil0" d="M1024 0c565.539,0 1024,458.461 1024,1024 0,565.539 -458.461,1024 -1024,1024 -565.539,0 -1024,-458.461 -1024,-1024 0,-565.539 458.461,-1024 1024,-1024z"/>
  <g style="clip-path:url(#id0)">
   <g id="_478233472">
    <g>
     <polygon id="_3796526721" class="fil1" points="1006.59,598.007 2142.47,1733.89 2143.94,1735.57 2145.23,1737.37 2146.34,1739.29 2147.26,1741.3 2147.98,1743.38 2148.5,1745.53 2148.82,1747.73 2148.92,1749.96 2148.8,1752.2 2148.45,1754.45 2147.88,1756.69 2147.06,1758.9 1011.18,623.018 1012,620.808 1012.57,618.571 1012.92,616.321 1013.04,614.073 1012.94,611.845 1012.62,609.648 1012.1,607.498 1011.38,605.413 1010.46,603.406 1009.35,601.492 1008.06,599.687 "/>
     <polygon id="_379640120" class="fil1" points="1011.18,623.018 2147.06,1758.9 2145.75,1762 2144.47,1765.12 2143.21,1768.27 2141.97,1771.45 2140.76,1774.65 2139.57,1777.89 2138.4,1781.15 2137.26,1784.44 2136.14,1787.75 2135.04,1791.09 2133.97,1794.46 2132.92,1797.86 2131.89,1801.29 2130.89,1804.74 2129.91,1808.22 2128.96,1811.73 2128.02,1815.26 2127.11,1818.82 2126.23,1822.41 2125.37,1826.03 2124.53,1829.68 2123.71,1833.35 2122.92,1837.05 2122.15,1840.77 2121.41,1844.53 2120.69,1848.31 2119.99,1852.12 2119.31,1855.95 2118.66,1859.82 2118.04,1863.71 2117.43,1867.63 2116.85,1871.58 980.97,735.693 981.551,731.747 982.155,727.828 982.782,723.936 983.433,720.073 984.107,716.236 984.805,712.427 985.527,708.645 986.271,704.891 987.04,701.164 987.831,697.465 988.646,693.793 989.485,690.148 990.347,686.532 991.233,682.942 992.141,679.38 993.074,675.845 994.03,672.337 995.009,668.858 996.011,665.405 997.038,661.98 998.087,658.582 999.16,655.212 1000.26,651.869 1001.38,648.553 1002.52,645.265 1003.69,642.005 1004.88,638.771 1006.09,635.566 1007.33,632.387 1008.59,629.237 1009.87,626.113 "/>
     <polygon id="_379634288" class="fil1" points="980.97,735.693 2116.85,1871.58 2116.28,1875.62 2115.74,1879.7 2115.22,1883.79 2114.73,1887.92 2114.26,1892.07 2113.81,1896.24 2113.39,1900.45 2112.99,1904.68 2112.62,1908.93 2112.27,1913.21 2111.95,1917.52 2111.65,1921.85 2111.38,1926.21 2111.13,1930.59 2110.9,1935 2110.7,1939.44 2110.52,1943.9 2110.37,1948.39 2110.24,1952.9 2110.14,1957.44 2110.06,1962 2110,1966.6 2109.97,1971.21 2109.96,1975.86 2109.98,1980.53 2110.02,1985.22 2110.09,1989.94 2110.18,1994.69 2110.29,1999.46 2110.43,2004.26 2110.6,2009.09 2110.79,2013.94 974.905,878.053 974.717,873.203 974.553,868.378 974.414,863.579 974.298,858.806 974.207,854.059 974.141,849.338 974.1,844.644 974.082,839.973 974.088,835.331 974.12,830.714 974.175,826.122 974.254,821.557 974.359,817.016 974.487,812.503 974.641,808.015 974.818,803.554 975.02,799.118 975.245,794.708 975.496,790.325 975.771,785.966 976.07,781.634 976.393,777.328 976.742,773.047 977.114,768.793 977.511,764.565 977.931,760.362 978.378,756.186 978.846,752.036 979.341,747.911 979.86,743.813 980.403,739.739 "/>
     <polygon id="_379637168" class="fil1" points="974.905,878.053 2110.79,2013.94 2110.76,2016.29 2110.5,2018.58 2110.02,2020.8 2109.33,2022.93 2108.44,2024.98 2107.36,2026.91 2106.11,2028.73 2104.69,2030.42 2103.12,2031.96 2101.41,2033.35 2099.56,2034.57 2097.59,2035.61 2095.51,2036.47 2093.34,2037.12 2091.07,2037.55 2088.73,2037.76 952.849,901.88 955.19,901.671 957.454,901.236 959.631,900.585 961.709,899.733 963.678,898.69 965.525,897.467 967.24,896.078 968.812,894.535 970.229,892.848 971.482,891.031 972.558,889.096 973.446,887.052 974.137,884.916 974.617,882.695 974.877,880.404 "/>
     <polygon id="_379630136" class="fil1" points="952.849,901.88 2088.73,2037.76 2086.38,2037.73 2084.09,2037.47 2081.87,2036.99 2079.73,2036.3 2077.69,2035.42 2075.75,2034.34 2073.93,2033.09 2072.25,2031.67 936.368,895.787 938.053,897.204 939.871,898.457 941.807,899.533 943.85,900.421 945.987,901.112 948.207,901.592 950.499,901.851 "/>
     <polygon id="_379632176" class="fil1" points="489.722,976.906 1625.6,2112.79 1625.58,2112.8 489.702,976.919 "/>
     <path id="_379640168" class="fil1" d="M1624.39 2289.36l0 0zm-1135.88 -1135.88l0 0z"/>
     <polygon id="_379635416" class="fil1" points="796.97,932.672 1932.85,2068.55 1933.9,2070.05 1935.01,2071.63 1936.19,2073.29 1937.42,2075.01 1938.7,2076.81 1940.02,2078.65 1941.38,2080.55 1942.78,2082.5 1944.2,2084.48 1945.65,2086.49 1947.12,2088.52 1948.6,2090.57 1950.09,2092.63 1951.58,2094.7 1953.07,2096.76 1954.55,2098.81 1956.03,2100.85 1957.48,2102.86 1958.91,2104.85 1960.31,2106.8 1961.68,2108.7 1963.01,2110.55 1964.3,2112.35 1965.54,2114.09 1966.73,2115.76 1967.86,2117.34 1968.92,2118.85 1969.92,2120.27 1970.84,2121.59 1971.68,2122.81 1972.44,2123.91 1973.1,2124.91 837.223,989.023 836.555,988.032 835.797,986.924 834.956,985.706 834.035,984.386 833.039,982.97 831.975,981.463 830.847,979.873 829.661,978.207 828.421,976.471 827.133,974.672 825.8,972.818 824.43,970.913 823.027,968.965 821.597,966.981 820.144,964.967 818.672,962.931 817.19,960.878 815.699,958.816 814.208,956.75 812.718,954.689 811.237,952.638 809.77,950.604 808.321,948.594 806.897,946.613 805.501,944.671 804.139,942.772 802.816,940.924 801.537,939.132 800.308,937.405 799.133,935.748 798.02,934.168 "/>
     <polygon id="_379633808" class="fil1" points="837.223,989.023 1973.1,2124.91 1975,2127.72 1976.83,2130.4 1978.61,2132.95 1980.33,2135.37 1982.01,2137.67 1983.63,2139.85 1985.19,2141.91 1986.71,2143.86 1988.18,2145.69 1989.61,2147.41 1990.99,2149.02 1992.32,2150.53 1993.62,2151.93 1994.87,2153.23 1996.08,2154.44 860.196,1018.56 858.986,1017.35 857.735,1016.05 856.443,1014.64 855.107,1013.14 853.727,1011.53 852.303,1009.81 850.831,1007.97 849.312,1006.03 847.744,1003.97 846.125,1001.79 844.453,999.49 842.729,997.065 840.949,994.515 839.115,991.835 "/>
     <polygon id="_379646696" class="fil1" points="1083.36,1111.83 2219.24,2247.71 2219.23,2247.74 1083.35,1111.85 "/>
     <polygon id="_379630664" class="fil1" points="1099.66,1124.8 2235.54,2260.68 2237.07,2262.26 2238.56,2263.87 2240,2265.52 2241.4,2267.19 2242.75,2268.9 2244.06,2270.63 2245.32,2272.39 2246.53,2274.18 2247.7,2275.99 2248.83,2277.83 2249.9,2279.69 2250.93,2281.58 2251.91,2283.48 2252.84,2285.41 2253.73,2287.36 2254.57,2289.32 2255.36,2291.31 2256.11,2293.31 2256.8,2295.33 2257.45,2297.36 2258.04,2299.41 2258.59,2301.47 2259.09,2303.54 1123.21,1167.66 1122.71,1165.59 1122.16,1163.53 1121.56,1161.48 1120.92,1159.45 1120.22,1157.43 1119.48,1155.43 1118.69,1153.44 1117.85,1151.48 1116.96,1149.53 1116.03,1147.6 1115.05,1145.69 1114.02,1143.81 1112.94,1141.95 1111.82,1140.11 1110.65,1138.3 1109.44,1136.51 1108.18,1134.75 1106.87,1133.02 1105.52,1131.31 1104.12,1129.64 1102.68,1127.99 1101.19,1126.38 "/>
     <polygon id="_379621160" class="fil1" points="671.334,754.365 1807.22,1890.25 1809.29,1892.52 1811.25,1894.99 1813.1,1897.65 677.222,761.766 675.374,759.103 673.408,756.637 "/>
     <polygon id="_379652984" class="fil1" points="677.222,761.766 1813.1,1897.65 1932.85,2068.55 796.97,932.672 "/>
     <polygon id="_379632536" class="fil1" points="1104.37,1246.23 2240.25,2382.12 2240.11,2382.33 1104.23,1246.45 "/>
     <path id="_379630040" class="fil1" d="M2011.78 2162.53l0 0zm-1135.88 -1135.88l0 0z"/>
     <polygon id="_379637072" class="fil1" points="1260.74,770.968 2396.62,1906.85 2394.77,1908.63 2392.94,1910.44 2391.12,1912.28 2389.32,1914.16 2387.55,1916.07 2385.79,1918.02 2384.05,1920 2382.33,1922.02 2380.62,1924.07 2378.94,1926.16 2377.27,1928.28 2375.62,1930.43 2373.99,1932.62 2372.38,1934.84 2370.78,1937.1 2369.21,1939.39 2367.65,1941.72 2366.11,1944.08 2364.59,1946.47 2363.09,1948.9 2361.61,1951.37 2360.14,1953.87 2358.69,1956.4 2357.27,1958.97 2355.86,1961.57 2354.46,1964.21 2353.09,1966.88 2351.74,1969.58 2350.4,1972.32 2349.08,1975.1 2347.78,1977.9 2346.5,1980.75 1210.62,844.864 1211.9,842.022 1213.2,839.213 1214.52,836.44 1215.85,833.699 1217.21,830.995 1218.58,828.324 1219.97,825.688 1221.38,823.086 1222.81,820.518 1224.26,817.985 1225.73,815.487 1227.21,813.022 1228.71,810.592 1230.23,808.197 1231.77,805.836 1233.33,803.509 1234.9,801.217 1236.5,798.96 1238.11,796.737 1239.74,794.547 1241.39,792.393 1243.05,790.273 1244.74,788.188 1246.44,786.136 1248.17,784.12 1249.91,782.137 1251.67,780.19 1253.44,778.276 1255.24,776.397 1257.05,774.553 1258.89,772.743 "/>
     <polygon id="_379627352" class="fil1" points="1210.62,844.864 2346.5,1980.75 2345.19,1983.73 2343.9,1986.76 2342.63,1989.82 2341.38,1992.91 2340.15,1996.04 2338.94,1999.21 2337.74,2002.41 2336.57,2005.64 2335.42,2008.91 2334.29,2012.22 2333.18,2015.56 2332.09,2018.94 2331.02,2022.35 2329.97,2025.8 2328.94,2029.28 2327.93,2032.8 2326.94,2036.36 2325.97,2039.95 2325.02,2043.57 2324.09,2047.23 2323.18,2050.93 2322.29,2054.66 2321.42,2058.43 2320.57,2062.23 2319.74,2066.06 2318.93,2069.94 2318.14,2073.85 2317.37,2077.79 2316.63,2081.77 2315.9,2085.78 2315.19,2089.83 2314.5,2093.92 1178.62,958.034 1179.31,953.95 1180.02,949.9 1180.74,945.885 1181.49,941.907 1182.26,937.964 1183.05,934.055 1183.86,930.183 1184.69,926.346 1185.54,922.544 1186.41,918.778 1187.3,915.047 1188.21,911.35 1189.14,907.69 1190.09,904.065 1191.06,900.475 1192.05,896.92 1193.06,893.402 1194.09,889.919 1195.14,886.47 1196.21,883.058 1197.3,879.68 1198.41,876.338 1199.54,873.031 1200.69,869.76 1201.86,866.525 1203.05,863.324 1204.26,860.159 1205.5,857.03 1206.75,853.935 1208.02,850.876 1209.31,847.853 "/>
     <polygon id="_379623656" class="fil1" points="1178.62,958.034 2314.5,2093.92 2314,2096.21 2313.29,2098.41 2312.38,2100.48 2311.28,2102.44 2310,2104.26 2308.56,2105.95 2306.97,2107.48 2305.24,2108.84 2303.4,2110.04 2301.44,2111.06 2299.39,2111.89 2297.25,2112.52 2295.05,2112.94 2292.78,2113.14 2290.48,2113.12 2288.14,2112.86 1152.26,976.973 1154.6,977.235 1156.9,977.26 1159.16,977.058 1161.37,976.637 1163.51,976.007 1165.56,975.179 1167.52,974.161 1169.36,972.962 1171.09,971.593 1172.68,970.064 1174.12,968.382 1175.39,966.558 1176.5,964.602 1177.41,962.524 1178.12,960.33 "/>
     <polygon id="_379627136" class="fil1" points="1123.21,1167.66 2259.09,2303.54 2259.54,2305.62 2259.93,2307.7 2260.28,2309.8 2260.58,2311.9 2260.83,2314.02 2261.02,2316.13 2261.17,2318.26 2261.26,2320.39 2261.31,2322.52 2261.3,2324.65 2261.24,2326.79 2261.13,2328.93 2260.96,2331.07 2260.75,2333.2 2260.48,2335.34 2260.16,2337.47 2259.78,2339.6 2259.35,2341.72 2258.87,2343.84 2258.34,2345.95 2257.75,2348.05 2257.1,2350.14 2256.41,2352.23 2255.66,2354.3 2254.85,2356.36 2253.99,2358.41 2253.07,2360.45 2252.1,2362.47 2251.07,2364.48 2249.99,2366.47 2248.85,2368.44 2247.65,2370.39 1111.77,1234.51 1112.96,1232.56 1114.1,1230.58 1115.19,1228.59 1116.22,1226.59 1117.19,1224.57 1118.11,1222.53 1118.97,1220.48 1119.77,1218.42 1120.53,1216.34 1121.22,1214.26 1121.87,1212.17 1122.46,1210.06 1122.99,1207.95 1123.47,1205.84 1123.9,1203.71 1124.27,1201.59 1124.6,1199.45 1124.87,1197.32 1125.08,1195.18 1125.24,1193.05 1125.36,1190.91 1125.42,1188.77 1125.42,1186.64 1125.38,1184.5 1125.29,1182.38 1125.14,1180.25 1124.94,1178.13 1124.7,1176.02 1124.4,1173.92 1124.05,1171.82 1123.66,1169.74 "/>
     <polygon id="_379627568" class="fil1" points="1195.19,1457.03 2331.07,2592.91 2323.65,2592.83 2316.25,2592.67 2308.85,2592.41 2301.46,2592.07 2294.09,2591.63 2286.74,2591.11 2279.39,2590.5 2272.06,2589.81 2264.74,2589.04 2257.44,2588.18 2250.16,2587.24 2242.89,2586.21 2235.63,2585.11 2228.4,2583.93 2221.18,2582.68 2213.98,2581.35 2206.8,2579.94 2199.64,2578.46 2192.49,2576.91 2185.37,2575.28 2178.27,2573.59 2171.19,2571.82 2164.13,2569.99 2157.1,2568.09 2150.08,2566.13 2143.09,2564.1 2136.13,2562.01 2129.18,2559.85 2122.27,2557.64 2115.37,2555.36 2108.51,2553.02 2101.67,2550.63 965.787,1414.75 972.627,1417.14 979.492,1419.48 986.385,1421.75 993.302,1423.97 1000.24,1426.12 1007.21,1428.22 1014.2,1430.25 1021.21,1432.21 1028.25,1434.11 1035.31,1435.94 1042.39,1437.71 1049.49,1439.4 1056.61,1441.02 1063.75,1442.58 1070.92,1444.06 1078.1,1445.46 1085.3,1446.8 1092.52,1448.05 1099.75,1449.23 1107,1450.33 1114.27,1451.35 1121.56,1452.29 1128.86,1453.15 1136.18,1453.93 1143.51,1454.62 1150.85,1455.23 1158.21,1455.75 1165.58,1456.18 1172.97,1456.53 1180.37,1456.79 1187.77,1456.95 "/>
     <polygon id="_379642616" class="fil1" points="692.895,1164.08 1828.78,2299.96 1826.96,2301.53 1825.12,2303.06 1823.25,2304.55 1821.37,2306.01 1819.46,2307.43 1817.53,2308.82 1815.58,2310.17 1813.61,2311.48 1811.62,2312.76 1809.61,2314 1807.59,2315.2 1805.54,2316.37 1803.48,2317.5 1801.4,2318.59 1799.3,2319.65 1797.19,2320.67 1795.06,2321.65 1792.92,2322.6 1790.76,2323.51 1788.59,2324.38 1786.41,2325.21 1784.21,2326 1782,2326.76 1779.78,2327.48 1777.55,2328.16 1775.31,2328.81 1773.05,2329.41 1770.79,2329.98 1768.52,2330.51 1766.24,2331 1763.95,2331.45 1761.65,2331.86 625.772,1195.98 628.068,1195.57 630.357,1195.12 632.638,1194.63 634.909,1194.1 637.172,1193.53 639.426,1192.92 641.669,1192.28 643.901,1191.6 646.121,1190.88 648.331,1190.12 650.528,1189.33 652.712,1188.49 654.883,1187.62 657.039,1186.72 659.182,1185.77 661.31,1184.79 663.422,1183.77 665.519,1182.71 667.599,1181.62 669.661,1180.49 671.706,1179.32 673.733,1178.12 675.742,1176.87 677.731,1175.6 679.701,1174.28 681.651,1172.93 683.58,1171.55 685.488,1170.13 687.374,1168.67 689.238,1167.17 691.078,1165.64 "/>
     <polygon id="_379636904" class="fil1" points="732.67,1294.03 1868.55,2429.91 1866.59,2428.85 1864.66,2427.77 1862.78,2426.68 1860.94,2425.57 1859.14,2424.44 1857.38,2423.29 1855.66,2422.13 1853.99,2420.95 1852.35,2419.76 1850.76,2418.55 1849.2,2417.32 1847.69,2416.08 1846.22,2414.82 1844.79,2413.55 708.91,1277.67 710.34,1278.94 711.812,1280.2 713.324,1281.44 714.877,1282.66 716.471,1283.87 718.107,1285.07 719.783,1286.25 721.501,1287.41 723.259,1288.56 725.059,1289.68 726.901,1290.8 728.782,1291.89 730.706,1292.97 "/>
     <path id="_379649912" class="fil1" d="M1828.57 2332.28l0 0zm-1135.88 -1135.88l0 0z"/>
     <polygon id="_379646384" class="fil1" points="625.772,1195.98 1761.65,2331.86 1758.58,2332.35 1755.49,2332.77 1752.39,2333.13 1749.28,2333.41 1746.17,2333.62 1743.05,2333.76 1739.92,2333.82 1736.79,2333.82 1733.66,2333.75 1730.52,2333.6 1727.39,2333.39 1724.26,2333.1 1721.13,2332.74 1718,2332.3 1714.88,2331.8 1711.76,2331.22 1708.65,2330.56 1705.55,2329.84 1702.46,2329.04 1699.39,2328.16 1696.32,2327.21 1693.27,2326.19 1690.23,2325.09 1687.21,2323.92 1684.21,2322.67 1681.22,2321.34 1678.26,2319.94 1675.31,2318.47 1672.39,2316.92 1669.5,2315.29 1666.63,2313.58 1663.78,2311.8 527.9,1175.92 530.745,1177.7 533.617,1179.41 536.514,1181.03 539.433,1182.59 542.377,1184.06 545.341,1185.46 548.326,1186.79 551.328,1188.03 554.35,1189.21 557.386,1190.31 560.439,1191.33 563.504,1192.28 566.584,1193.15 569.673,1193.95 572.772,1194.68 575.881,1195.33 578.997,1195.91 582.119,1196.42 585.245,1196.85 588.376,1197.22 591.51,1197.51 594.643,1197.72 597.778,1197.87 600.91,1197.94 604.04,1197.94 607.166,1197.87 610.288,1197.73 613.402,1197.52 616.51,1197.24 619.608,1196.89 622.695,1196.47 "/>
     <polygon id="_379633496" class="fil1" points="527.9,1175.92 1663.78,2311.8 1663.36,2311.71 1662.93,2311.62 1662.51,2311.53 1662.09,2311.43 1661.66,2311.34 1661.24,2311.24 1660.82,2311.14 1660.4,2311.03 524.516,1175.15 524.938,1175.25 525.361,1175.35 525.783,1175.45 526.206,1175.55 526.629,1175.65 527.052,1175.74 527.476,1175.83 "/>
     <polygon id="_379641032" class="fil1" points="524.516,1175.15 1660.4,2311.03 1657.63,2310.3 1654.88,2309.48 1652.17,2308.57 1649.51,2307.58 1646.89,2306.5 1644.34,2305.33 1641.86,2304.09 1639.46,2302.76 1637.15,2301.35 1634.95,2299.86 1632.85,2298.3 1630.88,2296.66 494.999,1160.78 496.973,1162.42 499.067,1163.98 501.273,1165.47 503.579,1166.88 505.978,1168.21 508.457,1169.45 511.009,1170.62 513.624,1171.7 516.292,1172.69 519.003,1173.6 521.748,1174.42 "/>
     <polygon id="_379624424" class="fil1" points="965.787,1414.75 2101.67,2550.63 2093.68,2547.75 2085.73,2544.8 2077.82,2541.77 2069.94,2538.67 2062.11,2535.5 2054.32,2532.26 2046.56,2528.95 2038.85,2525.58 2031.18,2522.14 2023.56,2518.65 2015.98,2515.09 2008.44,2511.48 2000.95,2507.81 1993.51,2504.08 1986.11,2500.31 1978.77,2496.48 1971.47,2492.61 1964.23,2488.68 1957.03,2484.72 1949.89,2480.71 1942.8,2476.66 1935.76,2472.57 1928.78,2468.44 1921.86,2464.28 1914.99,2460.08 1908.18,2455.85 1901.42,2451.59 1894.73,2447.31 1888.09,2442.99 1881.52,2438.65 1875,2434.29 1868.55,2429.91 732.67,1294.03 739.121,1298.41 745.635,1302.77 752.209,1307.11 758.845,1311.42 765.54,1315.71 772.295,1319.97 779.107,1324.2 785.976,1328.4 792.902,1332.56 799.883,1336.69 806.919,1340.78 814.009,1344.83 821.151,1348.84 828.346,1352.8 835.592,1356.72 842.888,1360.6 850.234,1364.43 857.629,1368.2 865.071,1371.92 872.56,1375.6 880.096,1379.21 887.677,1382.76 895.302,1386.26 902.97,1389.7 910.681,1393.07 918.435,1396.38 926.229,1399.62 934.064,1402.79 941.938,1405.89 949.85,1408.92 957.8,1411.87 "/>
     <polygon id="_379631576" class="fil1" points="1111.77,1234.51 2247.65,2370.39 2240.25,2382.12 1104.37,1246.23 "/>
     <polygon id="_379631048" class="fil1" points="1104.23,1246.45 2240.11,2382.33 2240.01,2385.43 2240.49,2388.57 2241.52,2391.74 2243.07,2394.92 2245.1,2398.12 2247.59,2401.31 2250.5,2404.5 1114.62,1268.62 1111.71,1265.43 1109.22,1262.24 1107.19,1259.04 1105.64,1255.86 1104.61,1252.69 1104.13,1249.55 "/>
     <polygon id="_379641152" class="fil1" points="1417.66,1413.46 2553.55,2549.34 2545.49,2551.92 2537.39,2554.43 2529.23,2556.86 2521.04,2559.22 2512.84,2561.51 2504.63,2563.73 2496.42,2565.87 2488.23,2567.93 2480.08,2569.92 2471.97,2571.83 2463.91,2573.66 2455.93,2575.42 2448.04,2577.09 2440.23,2578.69 2432.54,2580.2 2424.98,2581.63 2417.54,2582.98 2410.26,2584.25 2403.13,2585.44 2396.19,2586.54 2389.42,2587.55 2382.86,2588.48 2376.51,2589.33 2370.39,2590.08 2364.5,2590.75 2358.87,2591.33 2353.5,2591.82 2348.41,2592.22 2343.61,2592.53 2339.11,2592.75 2334.93,2592.88 2331.07,2592.91 1195.19,1457.03 1199.04,1456.99 1203.23,1456.87 1207.73,1456.65 1212.53,1456.34 1217.62,1455.94 1222.99,1455.45 1228.62,1454.87 1234.51,1454.2 1240.63,1453.44 1246.98,1452.6 1253.54,1451.67 1260.3,1450.66 1267.25,1449.56 1274.38,1448.37 1281.66,1447.1 1289.1,1445.75 1296.66,1444.32 1304.35,1442.8 1312.15,1441.21 1320.05,1439.53 1328.03,1437.78 1336.09,1435.95 1344.19,1434.04 1352.35,1432.05 1360.54,1429.98 1368.74,1427.84 1376.96,1425.63 1385.16,1423.34 1393.35,1420.98 1401.5,1418.54 1409.61,1416.04 "/>
     <polygon id="_379623248" class="fil1" points="1261.68,738.471 2397.56,1874.35 2399.09,1876.14 2400.4,1878.04 2401.5,1880.03 2402.39,1882.1 2403.06,1884.23 2403.53,1886.4 2403.78,1888.59 2403.82,1890.8 2403.65,1893 2403.27,1895.17 2402.68,1897.31 2401.89,1899.39 2400.88,1901.41 2399.67,1903.33 2398.25,1905.15 2396.62,1906.85 1260.74,770.968 1262.37,769.268 1263.79,767.448 1265,765.524 1266.01,763.512 1266.8,761.429 1267.39,759.291 1267.77,757.113 1267.94,754.914 1267.9,752.709 1267.65,750.513 1267.18,748.343 1266.51,746.218 1265.62,744.152 1264.52,742.16 1263.21,740.261 "/>
     <polygon id="_379637240" class="fil1" points="1462.13,959.648 2598.01,2095.53 2598.78,2097.76 2599.31,2100 2599.6,2102.26 2599.67,2104.5 2599.52,2106.73 2599.16,2108.92 2598.59,2111.05 2597.82,2113.12 2596.86,2115.1 2595.71,2116.99 2594.38,2118.76 2592.88,2120.41 2591.2,2121.91 2589.37,2123.26 2587.39,2124.43 2585.25,2125.42 1449.37,989.533 1451.5,988.548 1453.49,987.375 1455.32,986.029 1457,984.525 1458.5,982.88 1459.83,981.106 1460.98,979.218 1461.94,977.234 1462.71,975.167 1463.28,973.033 1463.64,970.846 1463.79,968.622 1463.72,966.374 1463.43,964.119 1462.9,961.873 "/>
     <polygon id="_379620728" class="fil1" points="1449.37,989.533 2585.25,2125.42 2584.13,2125.88 2583,2126.38 2581.87,2126.9 2580.74,2127.46 2579.6,2128.05 2578.46,2128.67 2577.31,2129.32 2576.16,2130 2575.01,2130.71 2573.85,2131.45 2572.69,2132.23 2571.52,2133.03 2570.35,2133.86 2569.18,2134.73 2568,2135.62 2566.82,2136.55 2565.63,2137.51 2564.44,2138.49 2563.25,2139.51 2562.05,2140.56 2560.84,2141.64 2559.64,2142.75 2558.43,2143.89 2557.21,2145.06 2555.99,2146.26 2554.77,2147.49 2553.54,2148.76 2552.31,2150.05 2551.08,2151.37 2549.84,2152.73 2548.59,2154.11 2547.35,2155.53 1411.47,1019.65 1412.71,1018.23 1413.96,1016.84 1415.2,1015.49 1416.43,1014.17 1417.66,1012.87 1418.89,1011.61 1420.11,1010.38 1421.33,1009.18 1422.55,1008.01 1423.76,1006.86 1424.96,1005.76 1426.17,1004.68 1427.36,1003.63 1428.56,1002.61 1429.75,1001.62 1430.94,1000.67 1432.12,999.741 1433.3,998.846 1434.47,997.981 1435.64,997.148 1436.81,996.344 1437.97,995.572 1439.13,994.83 1440.28,994.119 1441.43,993.439 1442.58,992.789 1443.72,992.169 1444.86,991.581 1445.99,991.022 1447.12,990.496 1448.25,990 "/>
     <polygon id="_379620944" class="fil1" points="1411.47,1019.65 2547.35,2155.53 2545.98,2157.11 2544.61,2158.73 2543.23,2160.39 2541.85,2162.08 2540.47,2163.8 2539.09,2165.56 2537.71,2167.35 2536.32,2169.18 2534.93,2171.04 2533.53,2172.94 2532.14,2174.88 2530.74,2176.84 2529.34,2178.85 2527.93,2180.88 2526.53,2182.96 2525.12,2185.06 2523.7,2187.21 2522.29,2189.38 2520.87,2191.6 2519.45,2193.84 2518.03,2196.13 2516.6,2198.44 2515.17,2200.79 2513.74,2203.18 2512.31,2205.6 2510.87,2208.06 2509.43,2210.55 2507.99,2213.07 2506.55,2215.63 2505.1,2218.23 2503.65,2220.86 2502.2,2223.52 1366.32,1087.64 1367.77,1084.98 1369.22,1082.35 1370.67,1079.75 1372.11,1077.19 1373.55,1074.67 1374.99,1072.17 1376.43,1069.72 1377.86,1067.3 1379.29,1064.91 1380.72,1062.56 1382.15,1060.24 1383.57,1057.96 1384.99,1055.71 1386.41,1053.5 1387.82,1051.32 1389.24,1049.18 1390.65,1047.08 1392.05,1045 1393.46,1042.96 1394.86,1040.96 1396.26,1038.99 1397.65,1037.06 1399.05,1035.16 1400.44,1033.3 1401.83,1031.47 1403.21,1029.68 1404.59,1027.92 1405.97,1026.19 1407.35,1024.5 1408.72,1022.85 1410.1,1021.23 "/>
     <polygon id="_379622528" class="fil1" points="1335.17,1096.93 2471.05,2232.82 2469.04,2231.6 2467.2,2230.2 2465.53,2228.66 1329.65,1092.78 1331.32,1094.32 1333.16,1095.71 "/>
     <polygon id="_379629608" class="fil1" points="1366.32,1087.64 2502.2,2223.52 2500.98,2225.54 2499.59,2227.38 2498.04,2229.05 2496.36,2230.54 2494.55,2231.84 2492.64,2232.96 2490.63,2233.89 2488.55,2234.62 2486.41,2235.15 2484.22,2235.47 2482.01,2235.59 2479.78,2235.48 2477.56,2235.16 2475.35,2234.61 2473.18,2233.83 2471.05,2232.82 1335.17,1096.93 1337.29,1097.95 1339.47,1098.73 1341.67,1099.27 1343.9,1099.6 1346.13,1099.7 1348.34,1099.59 1350.53,1099.27 1352.67,1098.74 1354.75,1098.01 1356.76,1097.08 1358.67,1095.96 1360.48,1094.65 1362.16,1093.16 1363.71,1091.5 1365.1,1089.65 "/>
     <polygon id="_379631408" class="fil1" points="1457.13,952.019 2593.01,2087.9 2594.51,2089.57 2595.86,2091.41 2597.03,2093.39 2598.01,2095.53 1462.13,959.648 1461.15,957.511 1459.98,955.523 1458.63,953.691 "/>
     <polygon id="_379621880" class="fil1" points="1568.22,1241.3 2704.1,2377.18 2706.77,2380.39 2709.34,2383.95 2711.81,2387.85 2714.17,2392.12 2716.41,2396.76 2718.55,2401.79 2718.92,2402.84 2719.22,2403.93 2719.46,2405.05 2719.64,2406.2 2719.76,2407.37 2719.84,2408.58 2719.88,2409.81 2719.88,2411.06 2719.85,2412.34 2719.8,2413.64 2719.74,2414.95 2719.66,2416.29 2719.58,2417.64 2719.51,2419 2719.44,2420.38 2719.38,2421.78 1583.5,1285.89 1583.56,1284.5 1583.63,1283.12 1583.7,1281.76 1583.78,1280.41 1583.86,1279.07 1583.92,1277.75 1583.97,1276.46 1584,1275.18 1584,1273.93 1583.96,1272.7 1583.88,1271.49 1583.76,1270.32 1583.58,1269.17 1583.34,1268.05 1583.04,1266.96 1582.67,1265.91 1580.53,1260.88 1578.29,1256.24 1575.93,1251.97 1573.46,1248.06 1570.89,1244.51 "/>
     <polygon id="_379644344" class="fil1" points="1583.5,1285.89 2719.38,2421.78 2719.32,2423.29 2719.21,2424.81 2719.08,2426.33 2718.9,2427.85 2718.69,2429.38 2718.45,2430.91 2718.16,2432.45 2717.84,2433.99 2717.49,2435.53 2717.09,2437.07 2716.66,2438.62 2716.19,2440.16 2715.68,2441.71 2715.13,2443.26 2714.54,2444.81 2713.91,2446.36 2713.25,2447.91 2712.54,2449.47 2711.79,2451.02 2711,2452.57 2710.17,2454.11 2709.3,2455.66 2708.39,2457.21 2707.43,2458.75 2706.44,2460.29 2705.4,2461.83 2704.32,2463.37 2703.19,2464.91 2702.02,2466.44 2700.81,2467.96 2699.55,2469.49 2698.25,2471.01 1562.37,1335.12 1563.67,1333.6 1564.93,1332.08 1566.14,1330.55 1567.31,1329.02 1568.44,1327.49 1569.52,1325.95 1570.56,1324.41 1571.55,1322.87 1572.51,1321.33 1573.42,1319.78 1574.29,1318.23 1575.12,1316.68 1575.91,1315.13 1576.66,1313.58 1577.36,1312.03 1578.03,1310.48 1578.66,1308.93 1579.25,1307.38 1579.8,1305.83 1580.31,1304.28 1580.78,1302.73 1581.21,1301.19 1581.6,1299.65 1581.96,1298.1 1582.28,1296.57 1582.56,1295.03 1582.81,1293.5 1583.02,1291.97 1583.19,1290.44 1583.33,1288.92 1583.43,1287.4 "/>
     <polygon id="_379644272" class="fil1" points="1152.26,976.973 2288.14,2112.86 2285.85,2112.36 2283.66,2111.65 2281.58,2110.73 2279.62,2109.63 2277.8,2108.35 2276.12,2106.91 1140.23,971.032 1141.92,972.472 1143.74,973.75 1145.7,974.852 1147.77,975.766 1149.97,976.477 "/>
     <polygon id="_379627688" class="fil1" points="1562.37,1335.12 2698.25,2471.01 2695.54,2474 2692.68,2476.96 2689.66,2479.89 2686.48,2482.79 2683.16,2485.64 2679.7,2488.47 2676.1,2491.26 2672.37,2494.02 2668.51,2496.74 2664.52,2499.42 2660.41,2502.07 2656.18,2504.69 2651.84,2507.27 2647.4,2509.81 2642.84,2512.32 2638.19,2514.79 2633.44,2517.23 2628.6,2519.63 2623.68,2521.99 2618.66,2524.32 2613.57,2526.61 2608.41,2528.86 2603.17,2531.08 2597.87,2533.26 2592.5,2535.4 2587.08,2537.5 2581.6,2539.57 2576.07,2541.6 2570.5,2543.59 2564.88,2545.55 2559.23,2547.46 2553.55,2549.34 1417.66,1413.46 1423.35,1411.58 1429,1409.66 1434.62,1407.71 1440.19,1405.72 1445.72,1403.69 1451.2,1401.62 1456.62,1399.52 1461.99,1397.38 1467.29,1395.19 1472.53,1392.98 1477.69,1390.73 1482.78,1388.43 1487.79,1386.11 1492.72,1383.74 1497.56,1381.34 1502.31,1378.91 1506.96,1376.44 1511.52,1373.93 1515.96,1371.38 1520.3,1368.8 1524.53,1366.19 1528.64,1363.54 1532.63,1360.85 1536.49,1358.13 1540.22,1355.38 1543.82,1352.59 1547.28,1349.76 1550.6,1346.9 1553.77,1344.01 1556.8,1341.08 1559.66,1338.12 "/>
    </g>
    <path id="_478216552" class="fil1" d="M968.874 604.941c4.99134,-11.6823 18.5091,-17.1059 30.1914,-12.1146 11.6823,4.99134 17.1059,18.5091 12.1146,30.1914 -14.0717,32.8772 -24.1429,70.4363 -30.2103,112.675 -6.18189,43.0276 -8.20276,90.482 -6.06497,142.361 0.488977,12.6697 -9.38623,23.3386 -22.0559,23.8264 -12.6697,0.488977 -23.3386,-9.38623 -23.8276,-22.0559 -2.27362,-55.1611 -0.157087,-105.39 6.34961,-150.683 6.62008,-46.0831 17.7886,-87.4843 33.5032,-124.2zm-276.187 591.452l0 0zm-204.18 -42.9166l0 0zm387.387 -126.829l0 0zm-38.6717 -37.624c20.491,30.704 31.0051,38.4768 38.6811,37.6122 12.5268,-1.41024 17.4602,-25.8295 45.9296,-10.7976 1.16693,0.615355 2.37284,1.29803 3.62008,2.0504l0.61063 0.346063 157.298 93.5953 -0.0129921 0.0236221 0.552756 0.336614c20.7437,13.0654 34.2508,33.2977 39.3059,55.4693 5.03386,22.0855 1.62284,46.102 -11.4402,66.8528l-7.39843 11.7224 -0.138189 0.218504c-4.34528,32.8311 96.6544,73.6501 123.124,72.1725 47.1036,-2.63032 137,-32.8063 246.554,-78.1005 44.4567,-18.3791 86.6316,-30.3402 108.756,25.3831 2.19449,5.52874 1.07835,12.5362 0.836221,19.9854 -0.526772,16.1043 -7.01575,33.052 -21.1299,49.2296 -28.024,32.1378 -83.9009,58.5119 -144.708,78.3355 -85.5201,27.8811 -183.174,43.7115 -222.473,43.5685 -79.1918,-0.294095 -156.588,-16.4469 -229.405,-42.2776 -85.3843,-30.287 -164.64,-73.8733 -233.117,-120.721 -21.1736,-11.2087 -35.3173,-25.4823 -42.5091,-41.4874 -8.09056,-18.0024 -7.29213,-36.9898 2.20512,-55.526l0.288189 -0.565748 0.0330709 -0.056693c1.85551,-3.56103 4.21654,-7.33583 7.21418,-12.1311 1.12441,-1.79764 2.34921,-3.75827 3.6567,-5.87835 -2.62323,-4.93111 -6.38032,-9.71694 -10.663,-14.3032 -19.2603,16.8839 -42.5929,27.7028 -67.1233,31.9004 -32.7508,5.60315 -67.6689,-0.641339 -97.8721,-20.0622 -1.13032,-0.233858 -2.25945,-0.490158 -3.38386,-0.767717 -14.8122,-3.65906 -29.015,-11.1791 -36.0142,-21.6697 -0.681497,-1.02284 -1.31339,-2.11417 -1.88858,-3.27284 -3.00827,-6.06142 -3.44764,-12.3213 -2.10945,-18.5079 -6.96024,-11.4402 -12.2032,-23.8063 -15.6473,-36.6603 -1.17047,-4.36536 -2.13189,-8.78741 -2.88307,-13.2484 -5.863,-34.826 1.22008,-72.1075 22.852,-103.532 1.69252,-2.45197 0.277559,-0.52441 1.26142,-1.89921l0.0437008 0.0307087c21.926,-30.6142 54.6201,-49.1115 89.3481,-54.7229 21.5398,-3.47953 43.9181,-1.9748 65.0245,4.70079l-55.3205 -80.0481 0.0200788 -0.0141732c-32.2051,-46.767 -22.5142,-77.4119 0.923623,-91.8591 28.1362,-17.3421 68.015,-22.1457 87.0957,7.31812l119.747 170.907c10.8307,15.4843 33.6272,46.4221 40.2532,56.3504zm595.026 -42.1418c11.7768,-4.72678 25.1587,0.988583 29.8855,12.7665 4.72678,11.778 -0.988583,25.1587 -12.7665,29.8855 -11.9398,4.80709 -24.5764,14.8465 -37.9016,30.1122 -14.589,16.7162 -29.641,39.3839 -45.1477,67.9973 -6.03426,11.1673 -19.9807,15.326 -31.1469,9.29174 -11.1662,-6.03426 -15.326,-19.9795 -9.29174,-31.1457 17.0162,-31.3973 34.0146,-56.8229 50.9918,-76.2745 18.2445,-20.9032 36.7063,-35.1154 55.3772,-42.6331zm-203.065 -209.352c9.23268,-8.71418 23.7827,-8.29134 32.4969,0.941339 8.713,9.23268 8.29134,23.7839 -0.94252,32.4969 -19.8425,18.7559 -36.5492,43.3902 -50.1189,73.8969 -14.0906,31.6843 -24.7595,69.4099 -32.002,113.17 -2.04685,12.5079 -13.8461,20.987 -26.354,18.939 -12.5067,-2.04803 -20.9858,-13.8473 -18.9378,-26.354 7.92402,-47.8819 19.6725,-89.3292 35.2429,-124.339 16.0925,-36.1819 36.2988,-65.7674 60.6154,-88.7505z"/>
   </g>
  </g>
  <path class="fil2" d="M1024 0c565.539,0 1024,458.461 1024,1024 0,565.539 -458.461,1024 -1024,1024 -565.539,0 -1024,-458.461 -1024,-1024 0,-565.539 458.461,-1024 1024,-1024z"/>
  <path class="fil3" d="M968.874 604.941c4.99134,-11.6823 18.5091,-17.1059 30.1914,-12.1146 11.6823,4.99134 17.1059,18.5091 12.1146,30.1914 -14.0717,32.8772 -24.1429,70.4363 -30.2103,112.675 -6.18189,43.0276 -8.20276,90.482 -6.06497,142.361 0.488977,12.6697 -9.38623,23.3386 -22.0559,23.8264 -12.6697,0.488977 -23.3386,-9.38623 -23.8276,-22.0559 -2.27362,-55.1611 -0.157087,-105.39 6.34961,-150.683 6.62008,-46.0831 17.7886,-87.4843 33.5032,-124.2z"/>
  <path class="fil3" d="M1229.18 737.529c9.23268,-8.71418 23.7827,-8.29134 32.4969,0.941339 8.713,9.23268 8.29134,23.7839 -0.94252,32.4969 -19.8425,18.7559 -36.5492,43.3902 -50.1189,73.8969 -14.0906,31.6843 -24.7595,69.4099 -32.002,113.17 -2.04685,12.5079 -13.8461,20.987 -26.354,18.939 -12.5067,-2.04803 -20.9858,-13.8473 -18.9378,-26.354 7.92402,-47.8819 19.6725,-89.3292 35.2429,-124.339 16.0925,-36.1819 36.2988,-65.7674 60.6154,-88.7505z"/>
  <path class="fil3" d="M1432.25 946.881c11.7768,-4.72678 25.1587,0.988583 29.8855,12.7665 4.72678,11.778 -0.988583,25.1587 -12.7665,29.8855 -11.9398,4.80709 -24.5764,14.8465 -37.9016,30.1122 -14.589,16.7162 -29.641,39.3839 -45.1477,67.9973 -6.03426,11.1673 -19.9807,15.326 -31.1469,9.29174 -11.1662,-6.03426 -15.326,-19.9795 -9.29174,-31.1457 17.0162,-31.3973 34.0146,-56.8229 50.9918,-76.2745 18.2445,-20.9032 36.7063,-35.1154 55.3772,-42.6331z"/>
  <path class="fil4" d="M696.661 1213.62c45.8953,-42.7347 -71.9918,-84.2009 -34.3985,-95.5631l126.619 -38.2701 -75.3508 140.581 -16.8697 -6.74764z"/>
  <path class="fil5" d="M738.328 1035.2c5.863,34.8059 -1.22244,72.0638 -22.8957,103.456l-1.86142 2.70473c-21.7536,30.0614 -53.6126,48.7713 -87.7985,54.6213 -34.0961,5.83347 -70.5402,-1.17402 -101.569,-22.5225l-2.66339 -1.83307 -0.0129921 0.0177165c-30.5634,-21.8752 -49.6276,-54.6544 -55.5532,-89.8513 -5.863,-34.826 1.22008,-72.1075 22.852,-103.532 1.69252,-2.45197 0.277559,-0.52441 1.26142,-1.89921l0.0437008 0.0307087c21.926,-30.6142 54.6201,-49.1115 89.3481,-54.7229 34.5248,-5.57717 71.2064,1.65118 101.346,22.4516 0.848032,0.585827 1.46693,1.01693 1.82008,1.26969 30.6366,21.8752 49.7587,54.6461 55.6831,89.8087z"/>
  <path class="fil6" d="M468.858 1095.04c-1.17047,-4.36654 -2.13307,-8.78741 -2.88425,-13.2484 -5.863,-34.826 1.22008,-72.1075 22.852,-103.532 1.69252,-2.45197 0.277559,-0.52441 1.26142,-1.89921l0.0437008 0.0307087c21.926,-30.6142 54.6201,-49.1115 89.3481,-54.7229 34.5248,-5.57717 71.2064,1.65118 101.346,22.4516 0.848032,0.585827 1.46693,1.01693 1.82008,1.26969 30.6154,21.8587 49.7304,54.5977 55.6689,89.7308 -28.5166,21.9425 -80.139,31.128 -135.928,20.9811 -16.2272,-2.95158 -31.5473,-7.31103 -45.5835,-12.7606 -17.8169,30.8292 -50.5146,51.5374 -87.9438,51.6993z"/>
  <path class="fil7" d="M523.37 1085.27c14.7047,-9.79135 29.2583,-7.30158 40.7563,1.6252l0.0129921 0c4.88859,3.79488 9.19843,8.77087 12.6886,14.4473 3.45709,5.62087 6.1252,11.9693 7.77048,18.5658 4.76575,19.1126 0.903544,40.2803 -17.1732,52.3182 -0.840946,0.559843 -1.74803,1.07953 -2.71181,1.55788 -9.79371,4.86142 -25.4044,5.02087 -40.1977,1.36417 -14.8122,-3.65906 -29.015,-11.1791 -36.0083,-21.6744l-0.00590552 0.00472441c-0.681497,-1.02284 -1.31339,-2.11417 -1.88858,-3.27284 -5.16969,-10.4161 -2.75315,-21.4169 3.23032,-31.6264 8.10591,-13.8295 22.9099,-26.2394 33.5268,-33.3095zm36.8008 6.72993c-9.38623,-7.28268 -21.254,-9.31772 -33.2339,-1.34055 -10.0453,6.68977 -24.0059,18.3543 -31.5272,31.1835 -4.95,8.44725 -7.03583,17.374 -3.00236,25.5024 0.411024,0.827953 0.908268,1.67717 1.48347,2.54055l0 0.0129921c6.03071,9.05434 18.7547,15.6602 32.1685,18.9744 13.4374,3.32008 27.3614,3.30236 35.7945,-0.883465 0.705119,-0.349607 1.37599,-0.734646 2.00433,-1.15276 15.4228,-10.2709 18.6319,-28.6713 14.4638,-45.3851 -1.4752,-5.91615 -3.88347,-11.6339 -7.00985,-16.7185 -3.09331,-5.03032 -6.87993,-9.41457 -11.1473,-12.7276l0.00590552 -0.00590552z"/>
  <path class="fil7" d="M716.129 979.683c-0.0437008,0.133465 -14.2099,43.9583 -49.487,73.2556 -34.7221,28.8366 -88.7044,57.1335 -88.8261,57.2044l-3.65551 -6.18544c0.120473,-0.0708662 53.7059,-28.1339 87.8977,-56.5288 33.6355,-27.9355 49.3713,-74.0646 49.4126,-74.1934l4.65827 6.44764z"/>
  <path class="fil8" d="M1227.36 1318.63c47.1036,-2.63032 137,-32.8063 246.554,-78.1005 44.4567,-18.3791 86.6316,-30.3402 108.756,25.3831 2.19449,5.52874 1.07835,12.5362 0.836221,19.9854 -0.526772,16.1043 -7.01575,33.052 -21.1299,49.2296 -28.024,32.1378 -83.9009,58.5119 -144.708,78.3355 -85.5201,27.8811 -183.174,43.7115 -222.473,43.5685 -79.1918,-0.294095 -156.588,-16.4469 -229.405,-42.2776 -85.3843,-30.287 -164.64,-73.8733 -233.117,-120.721 -21.1736,-11.2087 -35.3173,-25.4823 -42.5091,-41.4874 -8.09056,-18.0024 -7.29213,-36.9898 2.20512,-55.526 0.0944883,-0.190158 0.188977,-0.377953 0.288189,-0.565748l0.0307087 -0.0578741 0.00236221 0.0011811c1.85551,-3.56103 4.21654,-7.33583 7.21418,-12.1311 8.96694,-14.3433 24.4028,-39.0378 36.0945,-72.88 -0.563386,-18.8421 -5.46969,-37.852 -11.6894,-54.802 -6.763,-18.4288 -15.1134,-34.5189 -21.3449,-45.6225l-113.779 -164.636 0.0200788 -0.0141732c-32.2051,-46.767 -22.5142,-77.4119 0.923623,-91.8591 28.1362,-17.3421 68.015,-22.1457 87.0957,7.31812l119.747 170.907c10.8307,15.4843 33.6272,46.4221 40.2532,56.3504 55.3678,82.9654 37.8922,-1.50236 88.2308,28.865 0.205512,0.113386 0.408662,0.226772 0.61063,0.346063l157.298 93.5953 -0.0129921 0.0236221c0.185433,0.108662 0.369685,0.220866 0.552756,0.336614 20.7437,13.0654 34.2508,33.2977 39.3059,55.4693 5.03386,22.0855 1.62284,46.102 -11.4402,66.8528l-7.53662 11.941c-4.34528,32.8311 96.6544,73.6501 123.124,72.1725z"/>
  <path class="fil9" d="M875.904 1026.64c13.0394,-1.46811 17.8512,-27.8693 49.5496,-8.74725 0.205512,0.113386 0.408662,0.226772 0.61063,0.346063l157.298 93.5953 -0.0129921 0.0236221c0.185433,0.108662 0.369685,0.220866 0.552756,0.336614 20.7437,13.0654 34.2508,33.2977 39.3059,55.4693 5.03386,22.0855 1.62284,46.102 -11.4402,66.8528l-7.39843 11.7224c-10.0394,4.74685 -15.4807,14.0587 -15.4807,14.0587 0,0 -196.298,-96.1725 -219.331,-119.206 -23.0339,-23.0327 0,-46.0654 0,-46.0654l6.33662 -68.3741 0.00944883 -0.011811z"/>
 </g>
</svg>
