<?xml version="1.0" encoding="UTF-8"?>
<!DOCTYPE svg PUBLIC "-//W3C//DTD SVG 1.1//EN" "http://www.w3.org/Graphics/SVG/1.1/DTD/svg11.dtd">
<!-- Creator: CorelDRAW -->
<svg xmlns="http://www.w3.org/2000/svg" xml:space="preserve" width="2048px" height="2048px" style="shape-rendering:geometricPrecision; text-rendering:geometricPrecision; image-rendering:optimizeQuality; fill-rule:evenodd; clip-rule:evenodd"
viewBox="0 0 2048 2048"
 xmlns:xlink="http://www.w3.org/1999/xlink">
 <defs>
  <style type="text/css">
   <![CDATA[
    .fil2 {fill:none}
    .fil1 {fill:#039BE5}
    .fil4 {fill:#121111}
    .fil5 {fill:#212121}
    .fil8 {fill:#3E2723}
    .fil0 {fill:#4FC3F7}
    .fil7 {fill:#583C33}
    .fil6 {fill:#5D4037}
    .fil9 {fill:#8D6E63}
    .fil10 {fill:black;fill-rule:nonzero}
    .fil3 {fill:#3E2723;fill-rule:nonzero}
   ]]>
  </style>
   <clipPath id="id0">
    <path d="M1024 0c565.539,0 1024,458.461 1024,1024 0,565.539 -458.461,1024 -1024,1024 -565.539,0 -1024,-458.461 -1024,-1024 0,-565.539 458.461,-1024 1024,-1024z"/>
   </clipPath>
 </defs>
 <g id="Layer_x0020_1">
  <metadata id="CorelCorpID_0Corel-Layer"/>
  <path class="fil0" d="M1024 0c565.539,0 1024,458.461 1024,1024 0,565.539 -458.461,1024 -1024,1024 -565.539,0 -1024,-458.461 -1024,-1024 0,-565.539 458.461,-1024 1024,-1024z"/>
  <g style="clip-path:url(#id0)">
   <g id="_478226272">
    <g>
     <polygon id="_3967975601" class="fil1" points="940.448,766.194 2076.33,1902.08 2078.64,1904.47 2080.84,1906.94 2082.95,1909.47 2084.96,1912.04 2086.91,1914.65 2088.79,1917.29 2090.63,1919.92 2092.44,1922.56 2094.22,1925.17 2095.99,1927.74 2097.77,1930.27 2099.57,1932.74 2101.4,1935.13 2103.27,1937.43 2105.19,1939.63 2107.19,1941.72 971.305,805.834 969.31,803.75 967.384,801.551 965.514,799.248 963.688,796.856 961.892,794.39 960.113,791.861 958.338,789.284 956.555,786.674 954.752,784.042 952.913,781.404 951.028,778.772 949.084,776.161 947.066,773.584 944.963,771.054 942.761,768.586 "/>
     <polygon id="_396827800" class="fil1" points="1093.15,896.734 2229.03,2032.62 2230.39,2034.22 2231.43,2036.1 2232.1,2038.21 1096.22,902.326 1095.55,900.218 1094.51,898.342 "/>
     <polygon id="_396806584" class="fil1" points="1149.99,933.887 2285.87,2069.77 2286.1,2071.97 2285.9,2074.1 2285.29,2076.12 2284.31,2077.97 2283,2079.61 2281.39,2080.97 2279.52,2082.01 2277.41,2082.67 1141.53,946.791 1143.64,946.126 1145.51,945.087 1147.12,943.724 1148.43,942.09 1149.41,940.239 1150.01,938.219 1150.22,936.085 "/>
     <path id="_396826576" class="fil1" d="M2127.97 1958.64l0 0zm-1135.88 -1135.88l0 0z"/>
     <polygon id="_396800128" class="fil1" points="1000.67,840.605 2136.55,1976.49 2136.76,1976.87 2136.97,1977.25 2137.19,1977.64 2137.41,1978.03 2137.63,1978.43 2137.86,1978.83 2138.1,1979.23 2138.34,1979.64 1002.46,843.754 1002.22,843.347 1001.98,842.944 1001.75,842.545 1001.52,842.149 1001.3,841.757 1001.09,841.37 1000.88,840.986 "/>
     <polygon id="_396801736" class="fil1" points="1002.46,843.754 2138.34,1979.64 2138.9,1980.57 2139.49,1981.52 2140.1,1982.49 2140.74,1983.48 2141.41,1984.49 2142.11,1985.52 2142.83,1986.56 2143.58,1987.62 2144.35,1988.7 2145.16,1989.79 2145.99,1990.9 2146.85,1992.02 2147.74,1993.16 2148.66,1994.32 2149.61,1995.49 2150.59,1996.67 1014.7,860.788 1013.73,859.603 1012.78,858.434 1011.86,857.279 1010.97,856.139 1010.11,855.015 1009.28,853.906 1008.47,852.813 1007.69,851.737 1006.95,850.678 1006.22,849.635 1005.53,848.61 1004.86,847.602 1004.22,846.612 1003.61,845.642 1003.02,844.688 "/>
     <polygon id="_396813784" class="fil1" points="1040.14,854.558 2176.02,1990.44 2177.38,1992.05 2178.42,1993.93 2179.09,1996.03 1043.21,860.15 1042.54,858.043 1041.5,856.168 "/>
     <polygon id="_396826072" class="fil1" points="993.948,824.451 2129.83,1960.33 2130.69,1961.25 2131.5,1962.21 2132.25,1963.22 2132.96,1964.26 2133.6,1965.35 2134.19,1966.47 2134.72,1967.62 2135.18,1968.81 2135.58,1970.02 2135.92,1971.27 2136.18,1972.54 2136.38,1973.84 2136.5,1975.15 2136.55,1976.49 1000.67,840.605 1000.62,839.27 1000.5,837.954 1000.3,836.659 1000.04,835.387 999.704,834.142 999.302,832.926 998.837,831.739 998.31,830.584 997.722,829.463 997.076,828.38 996.373,827.334 995.616,826.329 994.808,825.368 "/>
     <polygon id="_396797392" class="fil1" points="1034.75,873.055 2170.63,2008.94 2170.51,2008.97 2170.19,2009.07 2169.68,2009.26 2169.02,2009.58 2168.24,2010.04 2167.34,2010.67 2166.37,2011.48 2165.35,2012.51 1029.47,876.631 1030.49,875.6 1031.46,874.784 1032.35,874.158 1033.14,873.699 1033.8,873.382 1034.31,873.185 1034.63,873.083 "/>
     <polygon id="_396800368" class="fil1" points="1171.37,961.02 2307.26,2096.9 2306.37,2096.56 2305.47,2096.21 2304.58,2095.86 2303.67,2095.51 2302.77,2095.15 2301.85,2094.79 2300.94,2094.42 2300.01,2094.05 1164.13,958.172 1165.06,958.541 1165.97,958.905 1166.89,959.266 1167.79,959.624 1168.7,959.978 1169.59,960.329 1170.49,960.676 "/>
     <polygon id="_396820000" class="fil1" points="1043.21,860.15 2179.09,1996.03 2179.32,1998.23 2179.11,2000.36 2178.5,2002.38 2177.53,2004.24 2176.22,2005.87 2174.61,2007.23 2172.73,2008.27 2170.63,2008.94 1034.75,873.055 1036.85,872.39 1038.73,871.351 1040.34,869.989 1041.65,868.355 1042.62,866.502 1043.23,864.483 1043.44,862.348 "/>
     <polygon id="_396799840" class="fil1" points="1087.76,915.231 2223.64,2051.11 2223.54,2051.14 2223.28,2051.21 2222.87,2051.37 2222.33,2051.61 2221.67,2051.96 2220.92,2052.43 2220.1,2053.05 2219.21,2053.82 1083.33,917.937 1084.21,917.164 1085.04,916.549 1085.79,916.077 1086.44,915.727 1086.99,915.485 1087.4,915.333 1087.66,915.253 "/>
     <polygon id="_396802240" class="fil1" points="1146.92,928.294 2282.8,2064.18 2284.17,2065.79 2285.2,2067.66 2285.87,2069.77 1149.99,933.887 1149.32,931.778 1148.28,929.903 "/>
     <polygon id="_396823528" class="fil1" points="1164.02,958.129 2299.9,2094.01 2299.92,2094.02 2299.93,2094.02 2299.95,2094.03 2299.96,2094.03 2299.97,2094.04 2299.99,2094.04 2300,2094.05 2300.01,2094.05 1164.13,958.172 1164.12,958.166 1164.1,958.162 1164.09,958.156 1164.08,958.15 1164.06,958.145 1164.05,958.139 1164.04,958.135 "/>
     <polygon id="_396818728" class="fil1" points="1096.22,902.326 2232.1,2038.21 2232.33,2040.41 2232.12,2042.54 2231.52,2044.56 2230.54,2046.41 2229.23,2048.05 2227.62,2049.41 2225.75,2050.45 2223.64,2051.11 1087.76,915.231 1089.86,914.566 1091.74,913.527 1093.35,912.164 1094.66,910.53 1095.63,908.678 1096.24,906.659 1096.45,904.524 "/>
     <polygon id="_396813472" class="fil1" points="1223.09,954.959 2358.97,2090.84 2360.33,2092.45 2361.37,2094.33 2362.04,2096.43 1226.15,960.551 1225.49,958.444 1224.45,956.568 "/>
     <polygon id="_396810784" class="fil1" points="1226.15,960.551 2362.04,2096.43 2362.27,2098.63 2362.06,2100.77 2361.45,2102.79 2360.48,2104.64 2359.17,2106.27 2357.56,2107.63 2355.68,2108.67 2353.58,2109.34 1217.69,973.456 1219.8,972.791 1221.68,971.752 1223.29,970.39 1224.6,968.756 1225.57,966.903 1226.18,964.883 1226.38,962.749 "/>
     <polygon id="_396804232" class="fil1" points="1217.69,973.456 2353.58,2109.34 2353.5,2109.36 2353.3,2109.41 2352.98,2109.52 2352.56,2109.7 2352.04,2109.95 2351.45,2110.28 2350.78,2110.71 2350.06,2111.25 1214.18,975.368 1214.9,974.828 1215.56,974.397 1216.16,974.063 1216.68,973.815 1217.1,973.641 1217.42,973.531 1217.62,973.474 "/>
     <polygon id="_396826696" class="fil1" points="1294.01,966.716 2429.89,2102.6 2431.25,2104.21 2432.29,2106.08 2432.96,2108.19 1297.08,972.309 1296.41,970.201 1295.37,968.325 "/>
     <polygon id="_396812824" class="fil1" points="1297.08,972.309 2432.96,2108.19 2433.18,2109.99 2433.1,2111.76 2432.75,2113.46 2432.14,2115.07 2431.29,2116.56 2430.22,2117.9 2428.94,2119.06 2427.48,2120.01 1291.6,984.126 1293.06,983.174 1294.33,982.015 1295.41,980.678 1296.26,979.19 1296.87,977.581 1297.22,975.879 1297.3,974.113 "/>
     <polygon id="_396827776" class="fil1" points="1555.41,1065.2 2691.29,2201.08 2696.04,2206.87 2700.54,2212.98 2704.78,2219.43 2708.74,2226.23 1572.86,1090.34 1568.9,1083.55 1564.66,1077.1 1560.16,1070.99 "/>
     <polygon id="_396818128" class="fil1" points="1572.86,1090.34 2708.74,2226.23 2709.33,2227.32 2709.91,2228.44 2710.49,2229.58 2711.05,2230.75 2711.61,2231.95 2712.15,2233.16 2712.69,2234.39 2713.21,2235.64 2713.72,2236.9 2714.21,2238.18 2714.69,2239.47 2715.15,2240.76 2715.6,2242.07 2716.02,2243.38 2716.43,2244.7 2716.82,2246.02 1580.93,1110.14 1580.55,1108.82 1580.14,1107.5 1579.71,1106.19 1579.27,1104.88 1578.81,1103.58 1578.33,1102.29 1577.83,1101.02 1577.33,1099.75 1576.8,1098.51 1576.27,1097.28 1575.73,1096.06 1575.17,1094.87 1574.6,1093.7 1574.03,1092.56 1573.45,1091.44 "/>
     <polygon id="_396815104" class="fil1" points="1580.93,1110.14 2716.82,2246.02 2717.16,2247.26 2717.49,2248.52 2717.8,2249.79 2718.09,2251.06 2718.36,2252.34 2718.62,2253.63 2718.85,2254.92 2719.06,2256.22 2719.24,2257.52 2719.41,2258.82 2719.55,2260.12 2719.67,2261.42 2719.76,2262.72 2719.83,2264.01 2719.87,2265.31 2719.88,2266.59 1584,1130.71 1583.99,1129.42 1583.95,1128.13 1583.88,1126.84 1583.79,1125.54 1583.67,1124.24 1583.53,1122.94 1583.36,1121.64 1583.18,1120.34 1582.97,1119.04 1582.73,1117.75 1582.48,1116.46 1582.21,1115.18 1581.92,1113.9 1581.61,1112.64 1581.28,1111.38 "/>
     <polygon id="_396815968" class="fil1" points="1584,1130.71 2719.88,2266.59 2719.85,2293.69 1583.97,1157.81 "/>
     <polygon id="_396824560" class="fil1" points="1583.97,1157.81 2719.85,2293.69 2719.84,2304.72 1583.95,1168.84 "/>
     <polygon id="_396799720" class="fil1" points="1583.95,1168.84 2719.84,2304.72 2719.83,2308.53 1583.94,1172.65 "/>
     <polygon id="_396802456" class="fil1" points="1583.94,1172.65 2719.83,2308.53 2719.83,2312.35 1583.94,1176.47 "/>
     <polygon id="_396808576" class="fil1" points="1583.94,1176.47 2719.83,2312.35 2719.82,2316.38 1583.94,1180.5 "/>
     <polygon id="_396827008" class="fil1" points="1583.94,1180.5 2719.82,2316.38 2719.79,2317.93 2719.68,2319.48 2719.51,2321.02 2719.28,2322.55 2718.98,2324.07 2718.63,2325.58 2718.21,2327.08 2717.74,2328.55 2717.21,2330.01 2716.62,2331.44 2715.99,2332.85 2715.3,2334.24 2714.56,2335.59 2713.78,2336.91 2712.95,2338.2 2712.07,2339.45 1576.19,1203.57 1577.07,1202.32 1577.9,1201.03 1578.68,1199.71 1579.42,1198.35 1580.11,1196.97 1580.74,1195.56 1581.33,1194.13 1581.86,1192.67 1582.33,1191.19 1582.75,1189.7 1583.1,1188.19 1583.4,1186.67 1583.63,1185.13 1583.8,1183.59 1583.9,1182.05 "/>
     <polygon id="_396818392" class="fil1" points="1556.45,1218.03 2692.33,2353.91 2692.25,2353.94 1556.37,1218.06 "/>
     <polygon id="_396819664" class="fil1" points="1576.19,1203.57 2712.07,2339.45 2711.14,2340.68 2710.16,2341.88 2709.13,2343.05 2708.06,2344.18 2706.94,2345.26 2705.79,2346.31 2704.59,2347.31 2703.36,2348.27 2702.09,2349.17 2700.79,2350.03 2699.45,2350.83 2698.09,2351.57 2696.69,2352.26 2695.27,2352.88 2693.82,2353.44 2692.34,2353.94 1556.46,1218.06 1557.94,1217.56 1559.39,1217 1560.81,1216.37 1562.21,1215.69 1563.57,1214.95 1564.91,1214.14 1566.21,1213.29 1567.48,1212.38 1568.71,1211.43 1569.91,1210.43 1571.06,1209.38 1572.17,1208.29 1573.25,1207.17 1574.27,1206 1575.26,1204.8 "/>
     <polygon id="_396817552" class="fil1" points="1556.37,1218.06 2692.25,2353.94 2690.8,2354.39 2689.34,2354.84 2687.86,2355.29 2686.37,2355.73 2684.87,2356.18 2683.35,2356.63 2681.82,2357.09 2680.28,2357.54 2678.72,2357.99 2677.14,2358.44 2675.56,2358.89 2673.96,2359.34 2672.35,2359.8 2670.72,2360.25 2669.08,2360.7 2667.43,2361.16 1531.54,1225.27 1533.2,1224.82 1534.84,1224.37 1536.47,1223.91 1538.08,1223.46 1539.68,1223.01 1541.26,1222.56 1542.84,1222.11 1544.39,1221.65 1545.94,1221.2 1547.47,1220.75 1548.99,1220.3 1550.49,1219.85 1551.98,1219.4 1553.46,1218.95 1554.92,1218.51 "/>
     <polygon id="_396798880" class="fil1" points="1531.54,1225.27 2667.43,2361.16 2665.73,2361.62 2664.06,2362.07 2662.41,2362.51 2660.78,2362.95 2659.19,2363.37 2657.61,2363.79 2656.06,2364.19 2654.54,2364.59 2653.03,2364.97 2651.56,2365.35 2650.1,2365.72 2648.68,2366.07 2647.27,2366.42 2645.89,2366.76 2644.54,2367.09 2643.21,2367.41 1507.33,1231.53 1508.66,1231.21 1510.01,1230.88 1511.39,1230.54 1512.79,1230.19 1514.22,1229.83 1515.68,1229.47 1517.15,1229.09 1518.65,1228.71 1520.18,1228.31 1521.73,1227.9 1523.3,1227.49 1524.9,1227.07 1526.53,1226.63 1528.18,1226.19 1529.85,1225.74 "/>
     <polygon id="_396827248" class="fil1" points="1507.33,1231.53 2643.21,2367.41 2642.26,2367.66 1506.38,1231.78 "/>
     <polygon id="_396825784" class="fil1" points="1506.38,1231.78 2642.26,2367.66 2640.94,2367.97 2639.59,2368.28 2638.2,2368.6 2636.77,2368.93 2635.31,2369.26 2633.82,2369.59 2632.29,2369.93 2630.72,2370.27 2629.13,2370.61 2627.5,2370.96 2625.83,2371.32 2624.13,2371.68 2622.4,2372.04 2620.64,2372.41 2618.84,2372.78 2617.02,2373.15 1481.13,1237.27 1482.96,1236.89 1484.76,1236.52 1486.52,1236.16 1488.25,1235.79 1489.95,1235.44 1491.61,1235.08 1493.25,1234.73 1494.84,1234.39 1496.41,1234.04 1497.94,1233.71 1499.43,1233.37 1500.89,1233.05 1502.32,1232.72 1503.71,1232.4 1505.06,1232.09 "/>
     <polygon id="_396798328" class="fil1" points="1481.13,1237.27 2617.02,2373.15 2615.67,2373.42 2614.35,2373.69 2613.04,2373.96 2611.75,2374.22 2610.48,2374.47 2609.23,2374.72 2607.99,2374.96 2606.78,2375.2 1470.9,1239.32 1472.11,1239.08 1473.35,1238.83 1474.6,1238.59 1475.87,1238.33 1477.16,1238.07 1478.46,1237.81 1479.79,1237.54 "/>
     <polygon id="_396816352" class="fil1" points="1470.9,1239.32 2606.78,2375.2 2606.76,2375.29 1470.88,1239.4 "/>
     <polygon id="_396826312" class="fil1" points="1470.88,1239.4 2606.76,2375.29 2606.45,2376.57 1470.57,1240.69 "/>
     <polygon id="_396822832" class="fil1" points="1470.57,1240.69 2606.45,2376.57 2606.41,2376.58 2606.36,2376.58 2606.32,2376.59 2606.27,2376.6 2606.23,2376.6 2606.18,2376.61 2606.14,2376.61 2606.1,2376.62 1470.22,1240.74 1470.26,1240.73 1470.3,1240.73 1470.35,1240.72 1470.39,1240.71 1470.44,1240.71 1470.48,1240.7 1470.53,1240.69 "/>
     <polygon id="_396802816" class="fil1" points="1141.53,946.791 2277.41,2082.67 2277.37,2082.68 2277.26,2082.71 2277.08,2082.77 2276.84,2082.85 2276.54,2082.97 2276.2,2083.12 2275.8,2083.32 2275.36,2083.57 1139.48,947.685 1139.92,947.44 1140.31,947.241 1140.66,947.085 1140.96,946.968 1141.2,946.885 1141.38,946.83 1141.49,946.801 "/>
     <polygon id="_396819880" class="fil1" points="1462.99,1270.92 2598.87,2406.81 2598.47,2408.29 2598.02,2409.74 2597.5,2411.17 2596.92,2412.57 2596.28,2413.95 2595.59,2415.29 2594.84,2416.6 2594.04,2417.87 2593.19,2419.11 2592.29,2420.31 2591.35,2421.47 2590.37,2422.59 2589.34,2423.67 2588.27,2424.7 2587.17,2425.68 2586.04,2426.62 1450.15,1290.74 1451.29,1289.8 1452.39,1288.82 1453.46,1287.79 1454.49,1286.71 1455.47,1285.59 1456.41,1284.43 1457.31,1283.23 1458.16,1281.99 1458.96,1280.71 1459.71,1279.41 1460.4,1278.06 1461.04,1276.69 1461.62,1275.29 1462.14,1273.86 1462.59,1272.4 "/>
     <polygon id="_396819472" class="fil1" points="1450.15,1290.74 2586.04,2426.62 2584.85,2427.53 2583.62,2428.38 2582.36,2429.19 2581.07,2429.95 2579.74,2430.66 2578.39,2431.32 2577.01,2431.92 2575.61,2432.47 2574.19,2432.96 2572.75,2433.38 2571.29,2433.75 2569.81,2434.06 2568.33,2434.3 2566.83,2434.47 2565.32,2434.58 2563.81,2434.61 1427.93,1298.73 1429.44,1298.69 1430.95,1298.59 1432.45,1298.42 1433.93,1298.18 1435.41,1297.87 1436.87,1297.5 1438.31,1297.07 1439.73,1296.59 1441.13,1296.04 1442.51,1295.44 1443.86,1294.78 1445.18,1294.07 1446.48,1293.31 1447.74,1292.5 1448.96,1291.64 "/>
     <polygon id="_396815680" class="fil1" points="1349.25,1254.28 2485.13,2390.16 2484.96,2390.18 2484.79,2390.19 2484.62,2390.2 2484.45,2390.22 2484.28,2390.23 2484.11,2390.24 2483.94,2390.25 2483.78,2390.27 1347.89,1254.38 1348.06,1254.37 1348.23,1254.36 1348.4,1254.34 1348.57,1254.33 1348.74,1254.32 1348.91,1254.31 1349.08,1254.29 "/>
     <polygon id="_396824320" class="fil1" points="1347.89,1254.38 2483.78,2390.27 2479.81,2406.81 1343.93,1270.92 "/>
     <polygon id="_396797320" class="fil1" points="1366.06,1290.74 2501.94,2426.62 2500.81,2425.68 2499.7,2424.7 2498.64,2423.67 1362.76,1287.79 1363.82,1288.82 1364.92,1289.8 "/>
     <polygon id="_396815944" class="fil1" points="1427.93,1298.73 2563.81,2434.61 2524.17,2434.61 1388.29,1298.73 "/>
     <polygon id="_396799528" class="fil1" points="1388.29,1298.73 2524.17,2434.61 2522.66,2434.58 2521.15,2434.47 2519.65,2434.3 2518.17,2434.06 2516.69,2433.75 2515.23,2433.39 2513.79,2432.96 2512.37,2432.47 2510.97,2431.92 2509.59,2431.32 2508.24,2430.66 2506.91,2429.95 2505.62,2429.19 2504.36,2428.38 2503.13,2427.53 2501.94,2426.62 1366.06,1290.74 1367.25,1291.64 1368.48,1292.5 1369.74,1293.31 1371.03,1294.07 1372.35,1294.78 1373.71,1295.44 1375.08,1296.04 1376.48,1296.59 1377.91,1297.07 1379.35,1297.5 1380.81,1297.87 1382.29,1298.18 1383.77,1298.42 1385.27,1298.59 1386.78,1298.69 "/>
     <polygon id="_396817744" class="fil1" points="1343.93,1270.92 2479.81,2406.81 2479.42,2408.29 2478.97,2409.74 2478.45,2411.17 2477.87,2412.57 2477.23,2413.95 2476.54,2415.29 2475.79,2416.6 2474.99,2417.87 2474.14,2419.11 2473.24,2420.31 2472.3,2421.47 2471.31,2422.59 2470.29,2423.67 2469.22,2424.7 2468.12,2425.68 2466.98,2426.62 1331.1,1290.74 1332.24,1289.8 1333.34,1288.82 1334.41,1287.79 1335.43,1286.71 1336.42,1285.59 1337.36,1284.43 1338.26,1283.23 1339.11,1281.99 1339.91,1280.71 1340.65,1279.41 1341.35,1278.06 1341.99,1276.69 1342.56,1275.29 1343.08,1273.86 1343.54,1272.4 "/>
     <polygon id="_396803656" class="fil1" points="1331.1,1290.74 2466.98,2426.62 2465.79,2427.53 2464.57,2428.38 2463.31,2429.19 2462.01,2429.95 2460.69,2430.66 2459.34,2431.32 2457.96,2431.92 2456.56,2432.47 2455.14,2432.96 2453.69,2433.38 2452.24,2433.75 2450.76,2434.06 2449.27,2434.3 2447.78,2434.47 2446.27,2434.58 2444.76,2434.61 1308.87,1298.73 1310.39,1298.69 1311.89,1298.59 1313.39,1298.42 1314.88,1298.18 1316.35,1297.87 1317.81,1297.5 1319.26,1297.07 1320.68,1296.59 1322.08,1296.04 1323.46,1295.44 1324.81,1294.78 1326.13,1294.07 1327.42,1293.31 1328.69,1292.5 1329.91,1291.64 "/>
     <polygon id="_396810568" class="fil1" points="1231.5,1259.75 2367.39,2395.64 2366.64,2395.65 2365.89,2395.67 2365.13,2395.68 2364.38,2395.7 2363.63,2395.71 2362.88,2395.73 2362.13,2395.74 2361.37,2395.75 1225.49,1259.87 1226.25,1259.86 1227,1259.84 1227.75,1259.83 1228.5,1259.81 1229.25,1259.8 1230,1259.78 1230.75,1259.77 "/>
     <polygon id="_396814840" class="fil1" points="1225.49,1259.87 2361.37,2395.75 2358.46,2407.93 1222.57,1272.05 "/>
     <polygon id="_396798544" class="fil1" points="1247.01,1290.74 2382.89,2426.62 2381.75,2425.68 2380.65,2424.7 2379.59,2423.67 1243.7,1287.79 1244.77,1288.82 1245.87,1289.8 "/>
     <polygon id="_396827296" class="fil1" points="1308.87,1298.73 2444.76,2434.61 2405.12,2434.61 1269.24,1298.73 "/>
     <polygon id="_396801352" class="fil1" points="1269.24,1298.73 2405.12,2434.61 2403.61,2434.58 2402.1,2434.47 2400.6,2434.3 2399.11,2434.06 2397.64,2433.75 2396.18,2433.38 2394.74,2432.96 2393.31,2432.47 2391.91,2431.92 2390.54,2431.32 2389.18,2430.66 2387.86,2429.95 2386.57,2429.19 2385.31,2428.38 2384.08,2427.53 2382.89,2426.62 1247.01,1290.74 1248.2,1291.64 1249.43,1292.5 1250.69,1293.31 1251.98,1294.07 1253.3,1294.78 1254.65,1295.44 1256.03,1296.04 1257.43,1296.59 1258.86,1297.07 1260.3,1297.5 1261.76,1297.87 1263.23,1298.18 1264.72,1298.42 1266.22,1298.59 1267.72,1298.69 "/>
     <polygon id="_396811600" class="fil1" points="1222.57,1272.05 2358.46,2407.93 2358.06,2409.41 2357.61,2410.87 2357.09,2412.3 2356.51,2413.7 2355.87,2415.07 2355.18,2416.42 2354.43,2417.72 2353.63,2419 2352.78,2420.24 2351.88,2421.44 2350.94,2422.6 2349.96,2423.72 2348.93,2424.8 2347.86,2425.83 2346.76,2426.81 2345.62,2427.75 1209.74,1291.87 1210.88,1290.93 1211.98,1289.95 1213.05,1288.91 1214.07,1287.84 1215.06,1286.72 1216,1285.56 1216.9,1284.36 1217.75,1283.12 1218.55,1281.84 1219.3,1280.53 1219.99,1279.19 1220.63,1277.82 1221.21,1276.42 1221.73,1274.99 1222.18,1273.53 "/>
     <polygon id="_396800248" class="fil1" points="1209.74,1291.87 2345.62,2427.75 2344.43,2428.65 2343.21,2429.51 2341.95,2430.32 2340.65,2431.08 2339.33,2431.79 2337.98,2432.45 2336.6,2433.05 2335.2,2433.59 2333.78,2434.08 2332.34,2434.51 2330.88,2434.88 2329.4,2435.18 2327.92,2435.43 2326.42,2435.6 2324.91,2435.7 2323.4,2435.74 1187.52,1299.86 1189.03,1299.82 1190.54,1299.72 1192.04,1299.54 1193.52,1299.3 1195,1299 1196.46,1298.63 1197.9,1298.2 1199.32,1297.71 1200.72,1297.17 1202.1,1296.56 1203.45,1295.91 1204.77,1295.2 1206.07,1294.44 1207.33,1293.63 1208.55,1292.77 "/>
     <polygon id="_396826816" class="fil1" points="1110.04,1260.43 2245.92,2396.31 2245.72,2396.31 2245.52,2396.31 2245.32,2396.31 2245.11,2396.31 2244.91,2396.31 2244.71,2396.31 2244.5,2396.31 2244.3,2396.31 1108.42,1260.42 1108.62,1260.43 1108.82,1260.43 1109.03,1260.43 1109.23,1260.43 1109.43,1260.43 1109.64,1260.43 1109.84,1260.43 "/>
     <polygon id="_396806680" class="fil1" points="1108.42,1260.42 2244.3,2396.31 2244.26,2396.31 1108.38,1260.42 "/>
     <polygon id="_396806752" class="fil1" points="1108.38,1260.42 2244.26,2396.31 2239.15,2396.19 2234.05,2396.06 2228.95,2395.93 2223.86,2395.79 2218.77,2395.65 2213.68,2395.5 2208.6,2395.34 2203.53,2395.18 2198.45,2395.02 2193.39,2394.85 2188.32,2394.68 2183.26,2394.5 2178.21,2394.32 2173.15,2394.13 2168.1,2393.94 2163.06,2393.75 2158.01,2393.55 2152.97,2393.35 2147.93,2393.15 2142.89,2392.95 2137.86,2392.74 2132.83,2392.53 2127.79,2392.32 2122.76,2392.1 2117.74,2391.89 2112.71,2391.67 2107.68,2391.46 2102.66,2391.24 2097.63,2391.02 2092.61,2390.8 2087.58,2390.58 2082.56,2390.36 946.68,1254.47 951.703,1254.7 956.728,1254.92 961.751,1255.14 966.776,1255.36 971.801,1255.57 976.827,1255.79 981.855,1256.01 986.883,1256.22 991.913,1256.44 996.944,1256.65 1001.98,1256.86 1007.01,1257.06 1012.05,1257.27 1017.09,1257.47 1022.13,1257.67 1027.17,1257.87 1032.22,1258.06 1037.27,1258.25 1042.33,1258.43 1047.38,1258.62 1052.44,1258.79 1057.51,1258.97 1062.57,1259.14 1067.65,1259.3 1072.72,1259.46 1077.8,1259.62 1082.89,1259.76 1087.97,1259.91 1093.07,1260.05 1098.17,1260.18 1103.27,1260.3 "/>
     <polygon id="_396796960" class="fil1" points="1187.52,1299.86 2323.4,2435.74 2283.76,2435.74 1147.88,1299.86 "/>
     <polygon id="_396819424" class="fil1" points="1147.88,1299.86 2283.76,2435.74 2282.25,2435.7 2280.74,2435.6 2279.25,2435.43 2277.76,2435.19 2276.28,2434.88 2274.82,2434.51 2273.38,2434.08 2271.96,2433.6 2270.56,2433.05 2269.18,2432.45 2267.83,2431.79 2266.5,2431.08 2265.21,2430.32 2263.95,2429.51 2262.72,2428.65 2261.53,2427.75 1125.65,1291.87 1126.84,1292.77 1128.07,1293.63 1129.33,1294.44 1130.62,1295.2 1131.95,1295.91 1133.3,1296.56 1134.68,1297.17 1136.08,1297.71 1137.5,1298.2 1138.94,1298.63 1140.4,1299 1141.88,1299.3 1143.36,1299.54 1144.86,1299.72 1146.37,1299.82 "/>
     <polygon id="_396814744" class="fil1" points="1125.65,1291.87 2261.53,2427.75 2260.39,2426.81 2259.29,2425.83 1123.41,1289.94 1124.51,1290.93 "/>
     <polygon id="_396814312" class="fil1" points="946.68,1254.47 2082.56,2390.36 2067.54,2389.7 931.659,1253.82 "/>
     <polygon id="_396825640" class="fil1" points="931.659,1253.82 2067.54,2389.7 2067.2,2389.69 931.32,1253.8 "/>
     <polygon id="_396825712" class="fil1" points="931.32,1253.8 2067.2,2389.69 2065.94,2394.94 930.062,1259.06 "/>
     <polygon id="_396816256" class="fil1" points="930.062,1259.06 2065.94,2394.94 2065.55,2396.42 2065.1,2397.87 2064.58,2399.3 2064,2400.7 2063.36,2402.08 2062.67,2403.42 2061.92,2404.73 2061.12,2406 2060.27,2407.24 2059.38,2408.44 2058.44,2409.6 2057.45,2410.72 2056.42,2411.8 2055.36,2412.83 2054.25,2413.82 2053.11,2414.76 917.233,1278.87 918.372,1277.94 919.475,1276.95 920.54,1275.92 921.568,1274.84 922.554,1273.72 923.496,1272.56 924.393,1271.36 925.242,1270.12 926.042,1268.85 926.789,1267.54 927.483,1266.19 928.12,1264.82 928.698,1263.42 929.216,1261.99 929.671,1260.54 "/>
     <polygon id="_396810616" class="fil1" points="917.233,1278.87 2053.11,2414.76 2051.92,2415.66 2050.7,2416.52 2049.44,2417.33 2048.15,2418.09 2046.82,2418.8 2045.47,2419.46 2044.09,2420.06 2042.69,2420.61 2041.27,2421.09 2039.83,2421.52 2038.37,2421.89 2036.89,2422.19 2035.4,2422.44 2033.91,2422.61 2032.4,2422.71 2030.89,2422.75 895.005,1286.87 896.518,1286.83 898.025,1286.73 899.524,1286.55 901.011,1286.31 902.486,1286.01 903.946,1285.64 905.388,1285.21 906.811,1284.72 908.212,1284.18 909.589,1283.57 910.941,1282.92 912.264,1282.21 913.557,1281.45 914.818,1280.64 916.044,1279.78 "/>
     <polygon id="_396822760" class="fil1" points="895.005,1286.87 2030.89,2422.75 1991.25,2422.75 855.372,1286.87 "/>
     <polygon id="_396795664" class="fil1" points="817.653,1249.38 1953.53,2385.26 1951.27,2385.19 815.384,1249.31 "/>
     <polygon id="_396809632" class="fil1" points="813.636,1249.88 1949.52,2385.76 1947.59,2393.81 811.707,1257.93 "/>
     <polygon id="_396817384" class="fil1" points="818.149,1250.03 1954.03,2385.91 1953.69,2385.9 817.805,1250.02 "/>
     <polygon id="_396823648" class="fil1" points="815.384,1249.31 1951.27,2385.19 1950,2385.15 814.123,1249.27 "/>
     <polygon id="_396813976" class="fil1" points="814.123,1249.27 1950,2385.15 1949.86,2385.77 813.975,1249.89 "/>
     <polygon id="_396818944" class="fil1" points="813.975,1249.89 1949.86,2385.77 1949.52,2385.76 813.636,1249.88 "/>
     <polygon id="_396818920" class="fil1" points="855.372,1286.87 1991.25,2422.75 1989.74,2422.71 1988.23,2422.61 1986.73,2422.44 1985.24,2422.2 1983.77,2421.89 1982.31,2421.52 1980.87,2421.09 1979.44,2420.61 1978.04,2420.06 1976.67,2419.46 1975.31,2418.8 1973.99,2418.09 1972.7,2417.33 1971.44,2416.52 1970.21,2415.66 1969.03,2414.76 833.146,1278.88 834.334,1279.78 835.559,1280.64 836.819,1281.45 838.111,1282.21 839.434,1282.92 840.785,1283.57 842.162,1284.18 843.563,1284.72 844.985,1285.21 846.428,1285.64 847.887,1286.01 849.362,1286.31 850.85,1286.55 852.349,1286.73 853.857,1286.83 "/>
     <polygon id="_396813040" class="fil1" points="833.146,1278.88 1969.03,2414.76 1967.89,2413.82 1966.79,2412.84 830.905,1276.95 832.008,1277.94 "/>
     <polygon id="_396796024" class="fil1" points="811.707,1257.93 1947.59,2393.81 1947.2,2395.29 1946.74,2396.75 1946.22,2398.18 1945.65,2399.58 1945.01,2400.95 1944.32,2402.29 1943.57,2403.6 1942.77,2404.88 1941.92,2406.11 1941.02,2407.31 1940.08,2408.47 1939.1,2409.59 1938.07,2410.67 1937,2411.7 1935.9,2412.69 1934.76,2413.62 798.881,1277.74 800.018,1276.8 801.121,1275.82 802.186,1274.79 803.214,1273.71 804.199,1272.59 805.142,1271.43 806.038,1270.23 806.887,1268.99 807.687,1267.72 808.434,1266.41 809.128,1265.07 809.764,1263.7 810.343,1262.29 810.862,1260.86 811.316,1259.41 "/>
     <polygon id="_396816424" class="fil1" points="798.881,1277.74 1934.76,2413.62 1933.57,2414.53 1932.35,2415.38 1931.08,2416.19 1929.79,2416.95 1928.47,2417.66 1927.12,2418.32 1925.74,2418.92 1924.34,2419.47 1922.92,2419.96 1921.47,2420.39 1920.01,2420.76 1918.54,2421.06 1917.05,2421.3 1915.55,2421.47 1914.05,2421.58 1912.53,2421.61 776.653,1285.73 778.166,1285.7 779.672,1285.59 781.17,1285.42 782.657,1285.18 784.132,1284.87 785.592,1284.5 787.034,1284.08 788.456,1283.59 789.858,1283.04 791.235,1282.44 792.588,1281.78 793.91,1281.07 795.204,1280.31 796.465,1279.5 797.691,1278.64 "/>
     <polygon id="_396819592" class="fil1" points="698.753,1245.97 1834.63,2381.85 1830.54,2381.72 694.656,1245.84 "/>
     <polygon id="_396798928" class="fil1" points="694.656,1245.84 1830.54,2381.72 1830.31,2381.72 694.427,1245.84 "/>
     <polygon id="_396799936" class="fil1" points="690.525,1245.77 1826.41,2381.65 1824.03,2391.55 688.153,1255.67 "/>
     <polygon id="_396825928" class="fil1" points="699.115,1246.05 1835,2381.94 1834.65,2381.93 698.771,1246.04 "/>
     <polygon id="_396820456" class="fil1" points="776.653,1285.73 1912.53,2421.61 1872.9,2421.61 737.017,1285.73 "/>
     <polygon id="_396801304" class="fil1" points="694.427,1245.84 1830.31,2381.72 1826.76,2381.61 690.877,1245.72 "/>
     <polygon id="_396811192" class="fil1" points="690.877,1245.72 1826.76,2381.61 1826.75,2381.66 690.864,1245.78 "/>
     <polygon id="_396818032" class="fil1" points="690.864,1245.78 1826.75,2381.66 1826.41,2381.65 690.525,1245.77 "/>
     <polygon id="_396808768" class="fil1" points="737.017,1285.73 1872.9,2421.61 1871.38,2421.58 1869.88,2421.47 1868.38,2421.3 1866.89,2421.06 1865.42,2420.76 1863.96,2420.39 1862.51,2419.96 1861.09,2419.47 1859.69,2418.92 1858.31,2418.32 1856.96,2417.67 1855.64,2416.96 1854.35,2416.2 1853.08,2415.39 1851.86,2414.53 1850.67,2413.63 714.788,1277.74 715.978,1278.65 717.204,1279.5 718.464,1280.31 719.757,1281.07 721.08,1281.78 722.431,1282.44 723.81,1283.04 725.21,1283.59 726.632,1284.08 728.076,1284.51 729.534,1284.87 731.01,1285.18 732.497,1285.42 733.995,1285.59 735.503,1285.7 "/>
     <polygon id="_396817696" class="fil1" points="714.788,1277.74 1850.67,2413.63 1849.53,2412.69 1848.43,2411.7 712.548,1275.82 713.651,1276.81 "/>
     <polygon id="_396825376" class="fil1" points="688.153,1255.67 1824.03,2391.55 1823.64,2393.03 1823.19,2394.49 1822.67,2395.92 1822.09,2397.32 1821.45,2398.69 1820.76,2400.04 1820.01,2401.34 1819.21,2402.62 1818.36,2403.86 1817.46,2405.06 1816.52,2406.22 1815.54,2407.34 1814.51,2408.41 1813.44,2409.45 1812.34,2410.43 1811.2,2411.37 675.322,1275.49 676.459,1274.55 677.562,1273.56 678.628,1272.53 679.655,1271.46 680.64,1270.34 681.583,1269.18 682.479,1267.98 683.328,1266.74 684.128,1265.46 684.876,1264.15 685.57,1262.81 686.207,1261.44 686.787,1260.04 687.305,1258.61 687.761,1257.15 "/>
     <polygon id="_396823480" class="fil1" points="675.322,1275.49 1811.2,2411.37 1810.01,2412.27 1808.79,2413.13 1807.53,2413.94 1806.23,2414.7 1804.91,2415.41 1803.56,2416.06 1802.18,2416.66 1800.78,2417.21 1799.36,2417.7 1797.91,2418.13 1796.45,2418.5 1794.98,2418.8 1793.49,2419.04 1791.99,2419.21 1790.49,2419.32 1788.98,2419.36 653.095,1283.47 654.608,1283.44 656.113,1283.33 657.611,1283.16 659.098,1282.92 660.572,1282.61 662.032,1282.25 663.474,1281.82 664.897,1281.33 666.298,1280.78 667.675,1280.18 669.028,1279.52 670.352,1278.81 671.645,1278.05 672.905,1277.25 674.132,1276.39 "/>
     <polygon id="_396804568" class="fil1" points="575.105,1241.91 1710.99,2377.8 1697.88,2377.36 562.002,1241.48 "/>
     <polygon id="_396813712" class="fil1" points="562.002,1241.48 1697.88,2377.36 1685.12,2376.92 549.24,1241.04 "/>
     <polygon id="_396808792" class="fil1" points="591.23,1275.49 1727.11,2411.37 1725.97,2410.43 590.092,1274.55 "/>
     <polygon id="_396796000" class="fil1" points="653.095,1283.47 1788.98,2419.36 1749.34,2419.36 613.458,1283.47 "/>
     <polygon id="_396803440" class="fil1" points="613.458,1283.47 1749.34,2419.36 1747.83,2419.32 1746.32,2419.21 1744.82,2419.04 1743.33,2418.8 1741.86,2418.5 1740.4,2418.13 1738.96,2417.7 1737.53,2417.21 1736.13,2416.67 1734.75,2416.06 1733.4,2415.41 1732.08,2414.7 1730.79,2413.94 1729.53,2413.13 1728.3,2412.27 1727.11,2411.37 591.23,1275.49 592.419,1276.39 593.645,1277.25 594.905,1278.06 596.198,1278.82 597.521,1279.52 598.874,1280.18 600.251,1280.78 601.652,1281.33 603.075,1281.82 604.517,1282.25 605.977,1282.61 607.452,1282.92 608.939,1283.16 610.438,1283.33 611.945,1283.44 "/>
     <polygon id="_396802552" class="fil1" points="549.24,1241.04 1685.12,2376.92 1678.7,2376.7 542.819,1240.82 "/>
     <polygon id="_396821704" class="fil1" points="542.819,1240.82 1678.7,2376.7 1677.11,2376.61 1675.53,2376.45 1673.96,2376.22 1672.41,2375.92 1670.87,2375.56 1669.35,2375.14 1667.85,2374.66 1666.37,2374.12 1664.92,2373.52 1663.5,2372.86 1662.1,2372.15 1660.74,2371.39 1659.41,2370.58 1658.11,2369.73 1656.86,2368.82 1655.64,2367.87 519.761,1231.99 520.975,1232.94 522.231,1233.84 523.525,1234.7 524.855,1235.51 526.219,1236.27 527.615,1236.98 529.04,1237.63 530.493,1238.23 531.97,1238.78 533.47,1239.26 534.99,1239.68 536.528,1240.04 538.082,1240.33 539.651,1240.56 541.23,1240.73 "/>
     <polygon id="_396809728" class="fil1" points="519.761,1231.99 1655.64,2367.87 1654.47,2366.88 518.585,1230.99 "/>
     <polygon id="_396807112" class="fil1" points="1470.22,1240.74 2606.1,2376.62 2598.87,2406.81 1462.99,1270.92 "/>
    </g>
    <path id="_478212664" class="fil1" d="M992.088 822.762l0 0zm171.936 135.366c0.0366142,0.0141732 0.0720473,0.0295276 0.108662,0.0437008 -0.0366142,-0.0141732 -0.0720473,-0.0295276 -0.108662,-0.0437008zm0.108662 0.0437008c0.334252,0.133465 0.667323,0.266929 1.00039,0.399213 1.66063,0.661418 3.30591,1.30866 4.93347,1.94173 0.437008,0.170079 0.874016,0.338977 1.30866,0.506693 -2.36103,-0.911812 -4.77402,-1.86142 -7.24253,-2.84764zm-172.044 -135.41c5.20394,4.2378 8.52638,10.6713 8.58308,17.8429 0.543308,1.00866 1.13858,2.05866 1.78701,3.14882 2.93032,4.93111 6.95197,10.6795 12.2469,17.0339 7.62875,-7.43268 15.5634,-9.09213 15.5965,-9.09804 5.89961,-1.22599 11.6776,2.56063 12.9047,8.46024 1.22599,5.89961 -2.56063,11.6787 -8.46024,12.9047 -0.0106299,0.0011811 -2.50276,0.522048 -5.27835,3.57638 9.43111,9.15827 21.1654,19.0382 35.5807,29.2028 8.31851,-9.8882 18.2268,-11.961 18.2634,-11.9681 5.89961,-1.22717 11.6787,2.56063 12.9047,8.46024 1.22717,5.89961 -2.56063,11.6776 -8.46024,12.9047 -0.00944883,0.0011811 -2.01142,0.419292 -4.42559,2.70591 10.5673,6.5752 22.2839,13.1965 35.2465,19.7504 8.36694,-10.141 18.4689,-12.2539 18.5067,-12.261 5.89961,-1.22717 11.6787,2.56063 12.9047,8.46024 1.22717,5.89961 -2.56063,11.6776 -8.46024,12.9047 -0.00590552,0.0011811 -0.826772,0.172441 -2.04921,0.894095 7.78938,3.52441 15.9662,7.01221 24.5445,10.4433 0.0366142,0.0141732 0.0720473,0.0295276 0.108662,0.0437008 2.00197,0.799607 3.97914,1.58032 5.93386,2.34095 0.437008,0.170079 0.874016,0.338977 1.30866,0.506693 0.0578741,0.022441 0.115748,0.0448819 0.173622,0.0673229 0.101575,0.0389764 0.204331,0.0791339 0.305906,0.11811 0.145276,0.056693 0.291733,0.112205 0.437008,0.167717 6.92127,2.66339 13.3913,5.0126 19.4717,7.08426 8.71772,-13.6961 21.4453,-16.3583 21.4866,-16.3665 5.89961,-1.22599 11.6787,2.56063 12.9047,8.46024 1.22717,5.89961 -2.56063,11.6787 -8.46024,12.9047 -0.00826772,0.00236221 -1.52835,0.318898 -3.51614,1.91221 8.52048,2.31614 16.1977,4.01221 23.3091,5.25591 7.41969,1.05236 14.1555,1.64646 20.6362,2.60079 0.00472441,0.0011811 0.00826772,0.0011811 0.0129921,0.00236221 0.903544,0.0696851 1.80236,0.134646 2.69528,0.193701 8.62914,-16.4953 23.2949,-19.5638 23.3398,-19.5721 5.89843,-1.22717 11.6776,2.56063 12.9047,8.46024 1.00394,4.83071 -1.35354,9.58111 -5.47914,11.8169 18.1772,-0.0165354 22.5083,0.220866 34.0382,1.33228 3.84095,0.314173 7.85552,0.7063 12.078,1.19764 0.0283465,0.00354331 0.0578741,0.00708662 0.0862205,0.00944883 3.71811,0.415748 8.05512,0.99567 13.2225,1.78228 92.589,14.0858 181.028,27.541 221.838,101.897 3.15355,5.74725 6.06615,12.7476 8.07402,19.7906 1.88622,6.61536 3.06851,13.7303 3.06614,20.5736l-0.0307087 27.1028 -0.0153543 11.0244 -0.00944883 3.81496 0 3.81496 -0.00472441 4.03111c-0.00590552,8.27127 -2.96457,16.5 -7.74922,23.0693 -4.85315,6.65788 -11.8028,12.026 -19.7291,14.4898l-0.00826772 -0.0271654 -0.0826772 0.0271654c-7.69134,2.39055 -15.9709,4.79646 -24.8256,7.21654 -9.11694,2.49213 -17.1851,4.57441 -24.2197,6.2563l-0.947245 0.246851c-6.93308,1.6441 -15.411,3.48307 -25.2437,5.49213 -3.60945,0.737008 -7.0193,1.41969 -10.2366,2.04803l-0.022441 0.0885827 -0.305906 1.28268c-0.11811,0.0177165 -0.236221,0.034252 -0.35315,0.0519685l-7.23071 30.1843c-1.91339,7.95473 -6.67678,14.9469 -12.8315,19.8166 -6.24095,4.93465 -14.1413,7.98898 -22.2272,7.98898l-39.6366 0c-8.08229,0 -15.9874,-3.05197 -22.2284,-7.98898 -6.15473,-4.86969 -10.9193,-11.8595 -12.8291,-19.8166l-3.9874 -16.6429c-0.45,0.034252 -0.901182,0.068504 -1.35118,0.102756l-3.96142 16.5402c-1.91339,7.95473 -6.67678,14.9469 -12.8315,19.8166 -6.24213,4.93465 -14.1413,7.98898 -22.2272,7.98898l-39.6366 0c-8.08465,0 -15.9862,-3.05433 -22.2272,-7.98898 -6.15473,-4.86851 -10.9193,-11.8606 -12.8303,-19.8166l-2.6752 -11.1697c-1.99961,0.0413386 -4.00394,0.080315 -6.01182,0.11811l-2.91851 12.1784c-1.91339,7.95473 -6.67678,14.948 -12.8327,19.8189 -6.23859,4.93111 -14.139,7.9878 -22.226,7.9878l-39.6331 0c-8.08229,0 -15.9898,-3.05433 -22.2307,-7.99016 -6.15827,-4.87205 -10.924,-11.8618 -12.8268,-19.8166l-2.78386 -11.6185c-0.539764,-0.00236221 -1.08071,-0.00472441 -1.62165,-0.00708662l-0.0377953 -0.0011811c-54.5327,-1.24134 -108.118,-3.59528 -161.701,-5.94922l-15.0213 -0.659056 -0.338977 -0.011811 -1.25787 5.25355c-1.90512,7.94883 -6.67087,14.9457 -12.8291,19.8177 -6.23977,4.93701 -14.1437,7.99253 -22.2284,7.99253l-39.6331 0c-8.09056,0 -15.991,-3.05551 -22.226,-7.99016 -6.15709,-4.87087 -10.9205,-11.8654 -12.8327,-19.8201l-2.16378 -9.02953 -0.343701 -0.011811 -0.152362 -0.640158 -2.2689 -0.068504 -1.26142 -0.0389764 -0.147638 0.618898 -0.338977 -0.011811 -1.92874 8.05394c-1.9063,7.95473 -6.67087,14.9445 -12.8268,19.813 -6.24095,4.93465 -14.1473,7.98898 -22.2272,7.98898l-39.6366 0c-8.08701,0 -15.9874,-3.05433 -22.2284,-7.98662 -6.15591,-4.86733 -10.9181,-11.8571 -12.8291,-19.8154l-2.8441 -11.8748 -0.343701 -0.011811 -0.0188977 -0.0744095 -4.09607 -0.126378 -0.229134 -0.00472441 -3.5504 -0.112205 -0.0129921 0.0531496 -0.338977 -0.011811 -2.37166 9.90473c-1.91221,7.95709 -6.6756,14.948 -12.8315,19.8142 -6.24331,4.93347 -14.1473,7.9878 -22.2272,7.9878l-39.6366 0c-8.08465,0 -15.9886,-3.05315 -22.2284,-7.98662 -6.15591,-4.86733 -10.9181,-11.8571 -12.8291,-19.8154l-3.29528 -13.7575 -13.1032 -0.437008 -12.7618 -0.438189 -6.42166 -0.222047c-8.49213,-0.297638 -16.6914,-3.64843 -23.0575,-8.82757 -6.36497,-5.18032 -11.3173,-12.5032 -13.3358,-20.7555l-2.73189 -10.9961 -0.296457 -1.18701 -0.68504 -2.74607 -3.86103 -15.4465c-4.57678,-18.3118 -9.15473,-36.6225 -13.6831,-56.4048l-2.36811 -10.2744c-9.23032,-39.9449 -18.952,-82.0111 -18.7973,-124.702 0.0177165,-5.8063 0.411024,-11.7307 1.15158,-17.6398 4.08307,-32.5347 18.7606,-80.8205 39.8575,-120.79 23.4284,-44.3859 55.8709,-79.7823 94.1705,-79.6595 1.69134,0.00590552 3.39213,0.080315 5.1,0.226772 0.818505,0.0129921 1.6441,0.068504 2.47441,0.170079 1.25433,0.157087 2.48622,0.376772 3.70158,0.655512 14.0823,3.23386 25.9181,14.4614 41.3646,29.1189 21.0744,19.9973 51.1205,48.5067 94.8922,61.8461 11.4579,3.48898 23.4071,5.45788 35.4485,6.23741 -5.72481,-8.46379 -5.35867,-20.0256 1.6063,-28.1658 18.189,-21.2351 36.3425,-42.5563 54.1571,-64.1032l0.034252 0.0283465 0.330709 -0.392126c15.7122,-18.1713 31.4481,-27.926 50.8666,-28.767 57.3308,-2.4874 62.6835,42.8681 86.3942,61.3548 5.34567,4.16811 10.9252,8.60198 16.5354,13.1658z"/>
   </g>
  </g>
  <path class="fil2" d="M1024 0c565.539,0 1024,458.461 1024,1024 0,565.539 -458.461,1024 -1024,1024 -565.539,0 -1024,-458.461 -1024,-1024 0,-565.539 458.461,-1024 1024,-1024z"/>
  <path class="fil3" d="M975.552 809.597c5.34567,4.16811 10.9252,8.60198 16.5414,13.1587l-0.00590552 0.00708662c5.40591,4.40197 8.7815,11.1744 8.57481,18.6815 -0.351969,12.8386 -24.939,-4.71142 -37.7776,-5.06339 -10.8142,-0.32126 -18.5705,-0.0696851 -25.389,1.45984 -6.54331,1.46811 -13.3547,4.44449 -22.6465,9.64489 -15.052,8.43544 -33.4418,16.7232 -54.737,22.8721 -17.3433,5.0067 -36.4772,8.53465 -57.0945,9.47127 -5.863,0.394488 -11.8784,-1.41378 -16.6961,-5.53583 -9.76654,-8.35631 -10.9099,-23.0504 -2.55236,-32.817 18.189,-21.2351 36.3425,-42.5563 54.1571,-64.1032l0.034252 0.0283465 0.330709 -0.392126c15.7122,-18.1713 31.4481,-27.926 50.8666,-28.767 57.3308,-2.4874 62.6835,42.8681 86.3942,61.3548z"/>
  <path class="fil4" d="M813.975 1248.46l-2.26772 9.46654c-1.9063,7.95473 -6.67087,14.9445 -12.8268,19.813 -6.24095,4.93465 -14.1473,7.98898 -22.2272,7.98898l-39.6366 0c-8.08701,0 -15.9874,-3.05433 -22.2284,-7.98662 -6.15591,-4.86733 -10.9181,-11.8571 -12.8291,-19.8154l-3.1878 -13.3122 115.204 3.84567z"/>
  <path class="fil4" d="M931.659 1252.39l-1.59685 6.66615c-1.90512,7.94883 -6.67087,14.9457 -12.8291,19.8177 -6.23977,4.93701 -14.1437,7.99253 -22.2284,7.99253l-39.6331 0c-8.09056,0 -15.991,-3.05551 -22.226,-7.99016 -6.15709,-4.87087 -10.9205,-11.8654 -12.8327,-19.8201l-2.50748 -10.4669 113.854 3.80079z"/>
  <path class="fil4" d="M1470.57 1239.26l-7.58386 31.6607c-1.91339,7.95473 -6.67678,14.9469 -12.8315,19.8166 -6.24095,4.93465 -14.1413,7.98898 -22.2272,7.98898l-39.6366 0c-8.08229,0 -15.9874,-3.05197 -22.2284,-7.98898 -6.15473,-4.86969 -10.9193,-11.8595 -12.8291,-19.8166l-4.05945 -16.9453 -1.20473 0.0944883 -4.03583 16.8508c-1.91339,7.95473 -6.67678,14.9469 -12.8315,19.8166 -6.24213,4.93465 -14.1413,7.98898 -22.2272,7.98898l-39.6366 0c-8.08465,0 -15.9862,-3.05433 -22.2272,-7.98898 -6.15473,-4.86851 -10.9193,-11.8606 -12.8303,-19.8166l-2.7567 -11.5099 -2.63504 0.0484252 -3.21024 0.0543308 -3.00355 12.5339c-1.91339,7.95473 -6.67678,14.948 -12.8327,19.8189 -6.23859,4.93111 -14.139,7.9878 -22.226,7.9878l-39.6331 0c-8.08229,0 -15.9898,-3.05433 -22.2307,-7.99016 -6.15827,-4.87205 -10.924,-11.8618 -12.8268,-19.8166l-3.11929 -13.0205 -1.28622 -0.0295276c135.738,0.578741 235.331,-1.16929 362.15,-19.7374z"/>
  <path class="fil5" d="M1583.94 1172.65l-0.00472441 7.84607c-0.00590552,8.27127 -2.96457,16.5 -7.74922,23.0693 -4.85315,6.65788 -11.8028,12.026 -19.7291,14.4898l-0.00826772 -0.0271654 -0.0826772 0.0271654c-7.69134,2.39055 -15.9709,4.79646 -24.8256,7.21654 -9.11694,2.49213 -17.1851,4.57441 -24.2197,6.2563l-0.947245 0.246851c-6.93308,1.6441 -15.411,3.48307 -25.2437,5.49213 -3.60945,0.737008 -7.0193,1.41969 -10.2366,2.04803l-0.022441 0.0885827 -0.305906 1.28268c-126.819,18.5681 -226.412,20.3162 -362.15,19.7374l-0.0377953 -0.0011811 -176.723 -6.60827 -113.854 -3.79961 -0.152362 -0.640158 -2.2689 -0.068504 -1.26142 -0.0389764 -0.147638 0.618898 -115.204 -3.84449 -0.0188977 -0.0744095 -4.09607 -0.126378 -0.229134 -0.00472441 -3.5504 -0.112205 -0.0129921 0.0531496 -128.862 -4.30158 128.862 4.30158 -128.862 -4.30158 -12.7618 -0.438189 -6.42166 -0.222047c-8.49213,-0.297638 -16.6914,-3.64843 -23.0575,-8.82757 -6.36497,-5.18032 -11.3173,-12.5032 -13.3358,-20.7555 -0.370866,-1.52362 -2.36693,-9.53623 -3.71339,-14.9291 626.735,28.9217 948.302,16.226 1081.23,-23.6528z"/>
  <path class="fil6" d="M958.211 826.573c13.35,-0.728741 26.7626,1.21772 39.1559,6.86812l0.011811 0.0330709c7.73505,20.9575 49.9595,77.9812 166.644,124.655 98.654,39.4607 110.073,18.6142 186.998,30.3189 92.589,14.0858 181.028,27.541 221.838,101.897 3.15355,5.74725 6.06615,12.7476 8.07402,19.7906 1.88622,6.61536 3.06851,13.7303 3.06614,20.5736l-0.0307087 27.1028 -0.0153543 11.0244 -0.00944883 7.62993c-117.897,54.2622 -445.92,59.9221 -1080.25,23.7709l-0.296457 -1.18701 -4.54607 -18.1925c-4.57678,-18.3118 -9.15473,-36.6225 -13.6831,-56.4048l-2.36811 -10.2744c-9.23032,-39.9449 -18.952,-82.0111 -18.7973,-124.702 0.0177165,-5.8063 0.411024,-11.7307 1.15158,-17.6398 4.08307,-32.5347 18.7606,-80.8205 39.8575,-120.79 23.4284,-44.3859 55.8709,-79.7823 94.1705,-79.6595 1.69134,0.00590552 3.39213,0.080315 5.1,0.226772 0.818505,0.0129921 1.6441,0.068504 2.47441,0.170079 15.7677,1.97599 28.2862,13.852 45.0662,29.7744 21.0744,19.9973 51.1205,48.5067 94.8922,61.8461 24.6284,7.50001 51.528,7.97481 76.7256,4.71378 34.35,-4.44567 64.8993,-15.691 82.5473,-25.6819 15.0319,-8.52402 33.6177,-14.8465 52.2237,-15.8634z"/>
  <path class="fil7" d="M997.379 833.476c-11.0315,-5.32205 -23.2571,-7.77284 -39.1677,-6.90355 -18.6059,1.01693 -37.1918,7.33938 -52.2237,15.8634 0,0 1.32756,69.019 71.3386,115.693 70.0111,46.6737 326.72,93.3485 326.72,93.3485 0,0 202.484,47.0197 233.371,70.0111 22.5886,16.8142 37.0193,40.5957 43.1433,52.1599 0.718111,1.35591 1.32165,2.5441 1.81063,3.53268 0.529134,-0.237402 1.05354,-0.475985 1.57323,-0.714567l0 -3.81496 0.00944883 -3.81496 0.0153543 -11.0244 0.0307087 -27.1028c0.00236221,-6.84331 -1.17992,-13.9583 -3.06614,-20.5736 -2.00788,-7.04292 -4.92048,-14.0433 -8.07402,-19.7906 -40.8107,-74.3564 -129.249,-87.8115 -221.838,-101.897 -38.2559,-5.82166 -31.0524,-0.346063 -63.5682,-0.261024 -23.4496,0.0602363 -62.5312,-5.69882 -123.43,-30.0579 -116.68,-46.6713 -158.906,-103.694 -166.644,-124.652z"/>
  <path class="fil5" d="M1108.38 1260.42c-54.5327,-1.24134 -108.118,-3.59528 -161.701,-5.94922l-15.0213 -0.659056 176.723 6.60827z"/>
  <path class="fil4" d="M562.002 1240.05l128.862 4.30158 -2.71063 11.3173c-1.91221,7.95709 -6.6756,14.948 -12.8315,19.8142 -6.24331,4.93347 -14.1473,7.9878 -22.2272,7.9878l-39.6366 0c-8.08465,0 -15.9886,-3.05315 -22.2284,-7.98662 -6.15591,-4.86733 -10.9181,-11.8571 -12.8291,-19.8154l-3.63662 -15.1807 -12.7618 -0.438189z"/>
  <path class="fil7" d="M581.739 1203.69c-45.5292,-104.496 -47.8181,-292.234 -1.14449,-385.583 10.1126,-20.2252 20.2252,-34.9725 29.863,-45.6674 -1.21536,-0.27874 -2.44725,-0.498426 -3.70158,-0.655512 -0.830316,-0.101575 -1.65591,-0.157087 -2.47441,-0.170079 -1.70788,-0.146457 -3.40866,-0.220866 -5.1,-0.226772 -38.2996,-0.122835 -70.7422,35.2736 -94.1705,79.6595 -21.0969,39.9697 -35.7744,88.2556 -39.8575,120.79 -0.740552,5.90906 -1.13386,11.8335 -1.15158,17.6398 -0.154725,42.691 9.56694,84.7572 18.7973,124.702l2.36811 10.2744c4.52835,19.7823 9.10631,38.0929 13.6831,56.4048l4.54607 18.1925 0.296457 1.18701c26.563,1.2248 52.5744,2.37638 78.0461,3.45236z"/>
  <path class="fil8" d="M813.967 958.129c64.8367,97.2296 211.988,125.045 280.045,140.023 78.5327,17.2843 143.987,53.9398 210.034,93.3485l-163.361 0c-71.7768,-87.2198 -276.848,-63.7867 -326.719,-233.372z"/>
  <path class="fil9" d="M743.448 958.129c64.8367,97.2296 211.988,125.045 280.045,140.023 78.5327,17.2843 143.988,53.9398 210.034,93.3485l-163.361 0c-71.7768,-87.2198 -276.848,-63.7867 -326.719,-233.372z"/>
  <path class="fil8" d="M1083.33 917.937c-6.52323,-4.06063 -12.6106,-8.10355 -18.2823,-12.1028 -14.4154,-10.1646 -26.1496,-20.0445 -35.5807,-29.2028 -5.74843,-5.58189 -10.6406,-10.8969 -14.7626,-15.8433 -5.29489,-6.35434 -9.31654,-12.1028 -12.2469,-17.0339l-2.78504 0.938977c-1.22362,10.6961 0.983859,20.5677 5.68937,29.9587 3.64607,7.27678 8.79095,14.2665 15,21.1276 5.05985,5.59016 10.8272,11.0965 17.0634,16.6039 5.51221,4.86615 11.2028,9.55158 17.0669,14.048 5.91733,4.5378 12.0095,8.88426 18.2717,13.0335 11.0941,7.35119 22.7197,14.0858 34.8366,20.1721 6.4689,3.24922 13.0784,6.313 19.8225,9.18898 17.7236,7.5567 36.378,13.8071 55.8615,18.6709 7.09489,1.77047 14.2996,3.3567 21.6095,4.75748 11.0232,2.10945 22.2874,3.79252 33.7713,5.03268 5.20867,0.563386 10.4634,1.03583 15.7618,1.41614 7.60985,0.546851 15.3106,0.903544 23.0977,1.06654 12.9803,0.272835 26.2016,0.00708662 39.639,-0.812599 7.51418,-0.458268 12.8232,-6.11339 17.7839,-12.5894 -20.8795,-2.02441 -21.1181,-2.30315 -48.0697,-2.23347 -1.13032,0.00236221 -2.29961,-0.00826772 -3.50433,-0.034252 -6.87166,-0.145276 -15.8268,0.512599 -25.2378,-0.872835 -12.698,-1.87205 -26.3729,-2.35394 -44.2477,-7.62048 -6.95906,-2.05276 -14.3362,-4.41024 -22.148,-7.11497 -6.33898,-2.19331 -12.9638,-4.61575 -19.8862,-7.28623 -2.5689,-0.989765 -5.17914,-2.01614 -7.83071,-3.07677 -8.57835,-3.43111 -16.7551,-6.9189 -24.5445,-10.4433 -7.30276,-3.30473 -14.2665,-6.64252 -20.902,-9.99804 -12.9626,-6.55394 -24.6792,-13.1752 -35.2465,-19.7504z"/>
  <path class="fil10" d="M1030.3 851.69c5.89961,-1.22599 11.6776,2.56063 12.9047,8.46024 1.22599,5.89961 -2.56063,11.6787 -8.46024,12.9047 -0.0153543,0.00236221 -5.70119,1.18937 -9.463,10.5213l-5.9504 14.7579c-2.24173,5.59371 -8.59371,8.30906 -14.1862,6.06733 -5.59371,-2.24055 -8.30906,-8.59371 -6.06733,-14.1862l5.9504 -14.7579c8.13662,-20.1851 25.2236,-23.7579 25.2721,-23.7673z"/>
  <path class="fil10" d="M1083.31 893.866c5.89961,-1.22717 11.6787,2.56063 12.9047,8.46024 1.22717,5.89961 -2.56063,11.6776 -8.46024,12.9047 -0.0153543,0.00236221 -5.7,1.18937 -9.463,10.5201l-5.9504 14.7591c-2.24055,5.59252 -8.59371,8.30906 -14.1862,6.06733 -5.59252,-2.24173 -8.30906,-8.59371 -6.06733,-14.1862l5.9504 -14.7591c8.13662,-20.1827 25.2236,-23.7567 25.2721,-23.7662z"/>
  <path class="fil10" d="M1137.08 925.426c5.89961,-1.22717 11.6787,2.56063 12.9047,8.46024 1.22717,5.89961 -2.56063,11.6776 -8.46024,12.9047 -0.0153543,0.00236221 -5.7,1.18937 -9.463,10.5201l-5.9504 14.7591c-2.24055,5.59252 -8.59371,8.30906 -14.1862,6.06733 -5.59252,-2.24173 -8.30906,-8.59371 -6.06733,-14.1862l5.9504 -14.7591c8.13662,-20.1827 25.2236,-23.7567 25.2721,-23.7662z"/>
  <path class="fil10" d="M1213.25 952.091c5.89961,-1.22599 11.6787,2.56063 12.9047,8.46024 1.22717,5.89961 -2.56063,11.6787 -8.46024,12.9047 -0.0153543,0.00354331 -5.7,1.18937 -9.463,10.5213l-5.9504 14.7579c-2.24055,5.59371 -8.59371,8.30906 -14.1862,6.06733 -5.59252,-2.24055 -8.30906,-8.59371 -6.06733,-14.1862l5.9504 -14.7579c8.13662,-20.1839 25.2236,-23.7579 25.2721,-23.7673z"/>
  <path class="fil10" d="M1284.17 963.849c5.89843,-1.22717 11.6776,2.56063 12.9047,8.46024 1.22599,5.89961 -2.56063,11.6787 -8.46024,12.9047 -0.0153543,0.00236221 -5.70119,1.18937 -9.463,10.5213l-5.9504 14.7579c-2.24173,5.59252 -8.59371,8.30906 -14.1874,6.06733 -5.59252,-2.24055 -8.30788,-8.59371 -6.06733,-14.1862l5.9504 -14.7591c8.1378,-20.1827 25.2248,-23.7567 25.2732,-23.7662z"/>
 </g>
</svg>
