<?xml version="1.0" encoding="UTF-8"?>
<!DOCTYPE svg PUBLIC "-//W3C//DTD SVG 1.1//EN" "http://www.w3.org/Graphics/SVG/1.1/DTD/svg11.dtd">
<!-- Creator: CorelDRAW -->
<svg xmlns="http://www.w3.org/2000/svg" xml:space="preserve" width="2048px" height="2048px" style="shape-rendering:geometricPrecision; text-rendering:geometricPrecision; image-rendering:optimizeQuality; fill-rule:evenodd; clip-rule:evenodd"
viewBox="0 0 2048 2048"
 xmlns:xlink="http://www.w3.org/1999/xlink">
 <defs>
  <style type="text/css">
   <![CDATA[
    .fil2 {fill:none}
    .fil3 {fill:#212121}
    .fil12 {fill:#8C0000}
    .fil11 {fill:#C20202}
    .fil1 {fill:#FDD835}
    .fil13 {fill:#FFAB40}
    .fil0 {fill:#FFF176}
    .fil8 {fill:#212121;fill-rule:nonzero}
    .fil10 {fill:#424242;fill-rule:nonzero}
    .fil7 {fill:#B30000;fill-rule:nonzero}
    .fil6 {fill:#C20202;fill-rule:nonzero}
    .fil4 {fill:#D50000;fill-rule:nonzero}
    .fil5 {fill:#E00B0B;fill-rule:nonzero}
    .fil9 {fill:#E0E0E0;fill-rule:nonzero}
    .fil14 {fill:#FFF3E0;fill-rule:nonzero}
   ]]>
  </style>
   <clipPath id="id0">
    <path d="M1024 0c565.539,0 1024,458.461 1024,1024 0,565.539 -458.461,1024 -1024,1024 -565.539,0 -1024,-458.461 -1024,-1024 0,-565.539 458.461,-1024 1024,-1024z"/>
   </clipPath>
 </defs>
 <g id="Layer_x0020_1">
  <metadata id="CorelCorpID_0Corel-Layer"/>
  <path class="fil0" d="M1024 0c565.539,0 1024,458.461 1024,1024 0,565.539 -458.461,1024 -1024,1024 -565.539,0 -1024,-458.461 -1024,-1024 0,-565.539 458.461,-1024 1024,-1024z"/>
  <g style="clip-path:url(#id0)">
   <g id="_478206880">
    <g>
     <polygon id="_3926125921" class="fil1" points="1584,877.331 2719.88,2013.21 2719.88,2036.55 1584,900.666 "/>
     <polygon id="_392631264" class="fil1" points="1412.71,887.755 2548.59,2023.64 2548.55,2023.59 1412.66,887.71 "/>
     <polygon id="_392639736" class="fil1" points="1584,1065.17 2719.88,2201.05 2659.75,2201.22 1523.87,1065.33 "/>
     <polygon id="_392631288" class="fil1" points="1523.87,1065.33 2659.75,2201.22 2659.94,2202.29 2660.11,2203.36 2660.27,2204.44 2660.43,2205.52 2660.56,2206.6 2660.69,2207.69 2660.81,2208.79 2660.91,2209.88 2661,2210.98 2661.08,2212.08 2661.15,2213.19 2661.2,2214.3 2661.25,2215.41 2661.28,2216.53 2661.3,2217.65 2661.3,2218.77 1525.42,1082.89 1525.42,1081.76 1525.4,1080.64 1525.37,1079.53 1525.32,1078.42 1525.27,1077.31 1525.2,1076.2 1525.12,1075.1 1525.03,1074 1524.93,1072.9 1524.81,1071.81 1524.68,1070.72 1524.54,1069.64 1524.39,1068.55 1524.23,1067.48 1524.06,1066.4 "/>
     <polygon id="_392632608" class="fil1" points="1525.42,1082.89 2661.3,2218.77 2661.27,2221.32 2661.17,2223.87 2661.01,2226.39 2660.79,2228.9 2660.51,2231.39 2660.16,2233.86 2659.75,2236.31 2659.29,2238.74 2658.77,2241.14 2658.18,2243.53 2657.54,2245.89 2656.85,2248.23 2656.1,2250.55 2655.29,2252.84 2654.43,2255.1 2653.52,2257.34 2652.55,2259.54 2651.53,2261.72 2650.46,2263.88 2649.34,2266 2648.17,2268.09 2646.96,2270.15 2645.69,2272.17 2644.38,2274.17 2643.02,2276.13 2641.62,2278.05 2640.17,2279.94 2638.67,2281.79 2637.14,2283.61 2635.56,2285.39 2633.94,2287.13 2632.28,2288.83 1496.4,1152.95 1498.06,1151.25 1499.68,1149.51 1501.26,1147.73 1502.79,1145.91 1504.29,1144.06 1505.73,1142.17 1507.14,1140.24 1508.5,1138.28 1509.81,1136.29 1511.08,1134.26 1512.29,1132.21 1513.46,1130.12 1514.58,1127.99 1515.65,1125.84 1516.67,1123.66 1517.63,1121.45 1518.55,1119.22 1519.41,1116.95 1520.21,1114.66 1520.97,1112.35 1521.66,1110.01 1522.3,1107.65 1522.88,1105.26 1523.41,1102.85 1523.87,1100.42 1524.28,1097.97 1524.63,1095.5 1524.91,1093.02 1525.13,1090.51 1525.29,1087.98 1525.39,1085.44 "/>
     <polygon id="_392627016" class="fil1" points="1496.4,1152.95 2632.28,2288.83 2630.58,2290.49 2628.84,2292.11 2627.06,2293.69 2625.24,2295.23 2623.39,2296.72 2621.5,2298.17 2619.57,2299.57 2617.61,2300.93 2615.62,2302.24 2613.59,2303.51 2611.53,2304.73 2609.44,2305.9 2607.32,2307.01 2605.17,2308.08 2602.99,2309.1 2600.78,2310.07 2598.54,2310.98 2596.28,2311.84 2593.99,2312.65 2591.67,2313.4 2589.33,2314.1 2586.97,2314.74 2584.58,2315.32 2582.18,2315.84 2579.75,2316.31 2577.3,2316.71 2574.83,2317.06 2572.34,2317.34 2569.83,2317.57 2567.31,2317.73 2564.76,2317.82 2562.21,2317.85 1426.33,1181.97 1428.88,1181.94 1431.42,1181.84 1433.95,1181.68 1436.46,1181.46 1438.95,1181.18 1441.41,1180.83 1443.87,1180.43 1446.3,1179.96 1448.7,1179.44 1451.09,1178.85 1453.45,1178.21 1455.79,1177.52 1458.11,1176.77 1460.4,1175.96 1462.66,1175.1 1464.9,1174.19 1467.11,1173.22 1469.29,1172.2 1471.44,1171.13 1473.56,1170.01 1475.65,1168.84 1477.71,1167.63 1479.74,1166.36 1481.73,1165.05 1483.69,1163.69 1485.62,1162.29 1487.51,1160.84 1489.36,1159.34 1491.18,1157.81 1492.95,1156.23 1494.7,1154.61 "/>
     <polygon id="_392637528" class="fil1" points="1093.19,875.07 2229.07,2010.95 2230.81,2012.8 2232.61,2014.79 2234.47,2016.89 2236.37,2019.11 2238.32,2021.44 2240.3,2023.87 2242.32,2026.38 2244.36,2028.96 2246.41,2031.62 2248.48,2034.33 2250.56,2037.09 2252.63,2039.89 2254.7,2042.71 2256.76,2045.56 2258.79,2048.42 2260.8,2051.28 2262.78,2054.13 2264.72,2056.96 2266.62,2059.76 2268.47,2062.52 2270.26,2065.24 2271.99,2067.9 2273.65,2070.5 1137.77,934.614 1136.11,932.019 1134.38,929.358 1132.59,926.64 1130.74,923.876 1128.84,921.073 1126.9,918.243 1124.92,915.394 1122.91,912.536 1120.88,909.679 1118.82,906.831 1116.75,904.003 1114.68,901.205 1112.6,898.445 1110.53,895.735 1108.48,893.081 1106.44,890.493 1104.42,887.983 1102.44,885.561 1100.49,883.233 1098.58,881.01 1096.73,878.903 1094.93,876.92 "/>
     <polygon id="_392623224" class="fil1" points="911.762,953.469 2047.64,2089.35 2048.78,2090.73 2049.64,2092.36 2064.46,2128.98 928.579,993.102 913.755,956.478 912.896,954.851 "/>
     <polygon id="_392635872" class="fil1" points="624.33,1021.48 1760.21,2157.37 1760.19,2157.4 1760.18,2157.43 1760.16,2157.47 1760.15,2157.5 1760.13,2157.53 1760.11,2157.56 1760.1,2157.6 1760.08,2157.63 624.199,1021.75 624.215,1021.71 624.232,1021.68 624.249,1021.65 624.264,1021.62 624.28,1021.58 624.297,1021.55 624.313,1021.52 "/>
     <polygon id="_392635200" class="fil1" points="702.178,1181.97 1838.06,2317.85 1835.79,2317.83 1833.54,2317.75 1831.3,2317.63 1829.08,2317.45 1826.87,2317.23 1824.67,2316.96 1822.49,2316.64 1820.32,2316.27 1818.17,2315.86 1816.04,2315.4 1813.92,2314.89 1811.82,2314.34 1809.74,2313.75 1807.68,2313.11 1805.64,2312.43 1803.62,2311.7 1801.62,2310.94 1799.64,2310.13 1797.68,2309.28 1795.74,2308.39 1793.83,2307.46 1791.94,2306.49 1790.07,2305.48 1788.23,2304.43 1786.42,2303.35 1784.62,2302.22 1782.86,2301.06 1781.12,2299.87 1779.4,2298.63 1777.72,2297.37 1776.06,2296.06 1774.43,2294.73 638.553,1158.85 640.182,1160.18 641.839,1161.48 643.523,1162.75 645.236,1163.98 646.975,1165.18 648.741,1166.34 650.534,1167.46 652.351,1168.55 654.193,1169.6 656.059,1170.61 657.95,1171.58 659.863,1172.51 661.799,1173.4 663.758,1174.25 665.738,1175.06 667.739,1175.82 669.76,1176.55 671.802,1177.23 673.863,1177.87 675.943,1178.46 678.041,1179.01 680.157,1179.52 682.29,1179.98 684.44,1180.39 686.606,1180.76 688.788,1181.07 690.984,1181.35 693.197,1181.57 695.422,1181.75 697.661,1181.87 699.914,1181.95 "/>
     <polygon id="_392613888" class="fil1" points="638.553,1158.85 1774.43,2294.73 1631.87,2294.73 495.99,1158.85 "/>
     <polygon id="_392644344" class="fil1" points="495.99,1158.85 1631.87,2294.73 1619.02,2290.81 483.137,1154.93 "/>
     <polygon id="_392622624" class="fil1" points="483.137,1154.93 1619.02,2290.81 1617.96,2290.08 1616.93,2289.34 1615.94,2288.58 1614.98,2287.81 1614.05,2287.02 478.165,1151.13 479.094,1151.92 480.057,1152.7 481.05,1153.46 482.078,1154.2 "/>
     <polygon id="_392636064" class="fil1" points="765.812,1158.85 1901.69,2294.73 1900.06,2296.06 1898.41,2297.37 1896.72,2298.63 1895.01,2299.87 1893.27,2301.06 1891.5,2302.22 1889.71,2303.35 1887.89,2304.43 1886.05,2305.48 1884.18,2306.49 1882.29,2307.46 1880.38,2308.39 1878.44,2309.28 1876.48,2310.13 1874.5,2310.94 1872.5,2311.7 1870.48,2312.43 1868.44,2313.11 1866.38,2313.75 1864.3,2314.34 1862.2,2314.89 1860.08,2315.4 1857.95,2315.86 1855.8,2316.27 1853.63,2316.64 1851.45,2316.96 1849.25,2317.23 1847.04,2317.45 1844.82,2317.63 1842.58,2317.75 1840.32,2317.83 1838.06,2317.85 702.178,1181.97 704.443,1181.95 706.695,1181.87 708.935,1181.75 711.16,1181.57 713.372,1181.35 715.569,1181.07 717.752,1180.76 719.918,1180.39 722.069,1179.98 724.202,1179.52 726.318,1179.01 728.417,1178.46 730.497,1177.87 732.558,1177.23 734.6,1176.55 736.622,1175.82 738.623,1175.06 740.604,1174.25 742.562,1173.4 744.498,1172.51 746.412,1171.58 748.302,1170.61 750.169,1169.6 752.012,1168.55 753.83,1167.46 755.621,1166.34 757.388,1165.18 759.128,1163.98 760.841,1162.75 762.526,1161.48 764.183,1160.18 "/>
     <polygon id="_392635056" class="fil1" points="1362.7,1158.85 2498.58,2294.73 1901.69,2294.73 765.812,1158.85 "/>
     <polygon id="_392619336" class="fil1" points="1140.2,935.069 2276.08,2070.95 2276.84,2072.17 1140.96,936.291 "/>
     <polygon id="_392632536" class="fil1" points="1426.33,1181.97 2562.21,2317.85 2559.94,2317.83 2557.69,2317.75 2555.45,2317.63 2553.23,2317.45 2551.01,2317.23 2548.82,2316.96 2546.63,2316.64 2544.47,2316.27 2542.32,2315.86 2540.19,2315.4 2538.07,2314.89 2535.97,2314.34 2533.89,2313.75 2531.83,2313.11 2529.79,2312.43 2527.77,2311.7 2525.77,2310.94 2523.79,2310.13 2521.83,2309.28 2519.89,2308.39 2517.98,2307.46 2516.09,2306.49 2514.22,2305.48 2512.38,2304.43 2510.56,2303.35 2508.77,2302.22 2507,2301.06 2505.27,2299.87 2503.55,2298.63 2501.87,2297.37 2500.21,2296.06 2498.58,2294.73 1362.7,1158.85 1364.33,1160.18 1365.99,1161.48 1367.67,1162.75 1369.38,1163.98 1371.12,1165.18 1372.89,1166.34 1374.68,1167.46 1376.5,1168.55 1378.34,1169.6 1380.21,1170.61 1382.1,1171.58 1384.01,1172.51 1385.95,1173.4 1387.91,1174.25 1389.89,1175.06 1391.89,1175.82 1393.91,1176.55 1395.95,1177.23 1398.01,1177.87 1400.09,1178.46 1402.19,1179.01 1404.3,1179.52 1406.44,1179.98 1408.59,1180.39 1410.75,1180.76 1412.93,1181.07 1415.13,1181.35 1417.34,1181.57 1419.57,1181.75 1421.81,1181.87 1424.06,1181.95 "/>
     <polygon id="_392633952" class="fil1" points="1584,900.666 2719.88,2036.55 2719.88,2201.05 1584,1065.17 "/>
    </g>
    <path id="_478216408" class="fil1" d="M1560.66 877.331l23.3362 0 0 23.3351 0 164.504 -60.1288 0.162992c1.01811,5.69646 1.54961,11.563 1.54961,17.5524 0,27.3603 -11.0929,52.1327 -29.0256,70.0642 -17.9339,17.9327 -42.7099,29.0233 -70.0713,29.0233 -24.2185,0 -46.4091,-8.69174 -63.6249,-23.1272l-596.888 0c-17.2169,14.4354 -39.4122,23.1272 -63.6343,23.1272 -24.2185,0 -46.4103,-8.69174 -63.6249,-23.1272l-142.563 0 -12.8528 -3.92008c-5.74016,-3.82441 -10.0665,-8.39646 -13.1563,-13.3429 -4.41496,-7.063 -6.21378,-14.7461 -5.95748,-22.1634 0.0129921,-0.389764 0.0330709,-0.779528 0.0578741,-1.16693l0.0011811 -0.0141732c0.453544,-7.06182 2.75551,-13.7114 6.42166,-19.213 2.99292,-4.48937 6.88819,-8.33741 11.4532,-11.191l0.820867 -0.454725 141.552 -65.8949c-0.0437008,0.0874016 -0.0874016,0.175984 -0.131102,0.263386 2.45906,-3.13229 5.10355,-6.11339 7.91575,-8.9256 17.9327,-17.9327 42.7052,-29.0256 70.063,-29.0256 12.9898,0 25.3961,2.49921 36.7642,7.0441l137.537 -33.4701 28.8614 26.8618 -8.46851 -20.9209c-1.87914,-4.64292 0.381496,-9.97796 5.02441,-11.8571 4.6441,-1.88032 9.97914,0.380315 11.8583,5.02323l14.824 36.6248 72.0213 0 5.4189 -22.141c3.15945,-12.9095 16.3051,-23.4709 29.2146,-23.4709l11.2181 0c0.676772,-1.27441 1.44213,-2.47087 2.29606,-3.59055l0.00944883 -0.0129921c3.63071,-4.75512 8.83938,-8.12717 15.4453,-10.2532 0.937796,-0.302362 1.90512,-0.579922 2.89961,-0.832678 1.25669,-0.318898 2.55591,-0.597638 3.89882,-0.838583 -0.124016,-0.969686 -0.187795,-1.95827 -0.187795,-2.96103l0.00236221 -38.5902c0,-12.8374 -2.35512,-24.3839 10.4823,-24.3839 9.07678,1.08662 39.137,41.2937 56.4756,68.5867 0.818505,0.151181 1.62874,0.302362 2.42835,0.454725l0.753544 1.22244c9.13465,1.41378 18.0992,2.93504 26.928,4.54607 74.3422,13.565 138.901,33.5634 211.786,50.3764l5.85237 1.35c5.35158,-2.42126 10.9559,-4.38189 16.7634,-5.82993l0 -74.0079c0,-9.6756 3.99095,-18.5173 10.4256,-24.9709l-0.046063 -0.0448819c6.40394,-6.40394 15.2575,-10.3795 25.0158,-10.3795l122.985 0z"/>
   </g>
  </g>
  <path class="fil2" d="M1024 0c565.539,0 1024,458.461 1024,1024 0,565.539 -458.461,1024 -1024,1024 -565.539,0 -1024,-458.461 -1024,-1024 0,-565.539 458.461,-1024 1024,-1024z"/>
  <rect class="fil3" transform="matrix(0.491115 -0.198795 0.273609 0.675938 893.456 954.871)" width="34.3748" height="106.25" rx="9.10631" ry="9.10631"/>
  <path class="fil3" d="M1035.23 947.49l12.535 0c6.01536,0 9.73347,4.92048 8.26064,10.9382l-15.0579 61.5272c-1.47284,6.01772 -7.59922,10.9382 -13.6158,10.9382l-25.0666 0c-6.01654,0 -9.73347,-4.92048 -8.26182,-10.9382l11.9917 -48.9945c3.15945,-12.9095 16.3051,-23.4709 29.2146,-23.4709z"/>
  <path class="fil4" d="M482.778 1087.38l141.552 -65.8949c-7.87796,15.8079 -12.0721,33.3579 -12.0721,51.4311 0,30.6981 12.098,59.889 33.8008,81.5918 1.49173,1.49173 3.02244,2.9374 4.58268,4.33819l-154.651 0 -12.8528 -3.92008c-5.74016,-3.82441 -10.0665,-8.39646 -13.1563,-13.3429 -4.41496,-7.063 -6.21378,-14.7461 -5.95748,-22.1634 0.261024,-7.50001 2.61142,-14.5866 6.48071,-20.3941 2.99292,-4.48937 6.88819,-8.33741 11.4532,-11.191l0.820867 -0.454725z"/>
  <path class="fil4" d="M616.402 1103.64l0.0200788 0.0732284c5.25945,19.0347 15.3732,36.5315 29.6362,50.7945 1.49173,1.49173 3.02244,2.9374 4.58268,4.33819l-154.651 0 -12.8528 -3.92008c-5.74016,-3.82441 -10.0665,-8.39646 -13.1563,-13.3429 -4.41496,-7.063 -6.21378,-14.7461 -5.95748,-22.1634 0.0141732,-0.389764 0.0330709,-0.779528 0.0578741,-1.16693l0.0011811 -0.0141732 152.32 -14.5984z"/>
  <path class="fil5" d="M482.778 1087.38l141.552 -65.8949c-7.87796,15.8079 -12.0721,33.3579 -12.0721,51.4311 0,10.4976 1.41496,20.8181 4.14449,30.724l-152.32 14.5984c0.454725,-7.063 2.7567,-13.7114 6.42166,-19.213 2.99292,-4.48937 6.88819,-8.33741 11.4532,-11.191l0.820867 -0.454725z"/>
  <path class="fil4" d="M1402.28 991.848l0 -79.1221c0,-9.6756 3.99095,-18.5173 10.4256,-24.9709l-0.046063 -0.0448819c6.40394,-6.40394 15.2575,-10.3795 25.0158,-10.3795l122.985 0 23.3362 0 0 23.3351 0 164.504 -69.9662 0.190158c-1.81417,-27.9036 -26.9599,-3.39095 -46.8733,-23.3043 -21.7028,-21.7004 -10.1327,-52.7244 -40.8307,-52.7244 -8.15906,0 -16.2118,0.853938 -24.0461,2.51693z"/>
  <path class="fil6" d="M1048.76 943.887c3.63071,-4.75512 8.83938,-8.12717 15.4453,-10.2532 -6.41812,2.22166 -11.7662,5.52638 -15.4453,10.2532z"/>
  <path class="fil4" d="M1140.2 935.069l0.753544 1.22244c9.13465,1.41378 18.0992,2.93504 26.928,4.54607 74.3422,13.565 138.901,33.5634 211.786,50.3764l8.04568 1.85551c-4.0004,3.06969 -7.82245,6.41575 -11.4354,10.0287 -21.7028,21.7016 -40.6382,39.1193 -40.6382,69.8174 0,30.6981 12.098,59.889 33.8008,81.5918 1.49291,1.49173 3.02244,2.9374 4.58268,4.33819l-630.043 0c1.56024,-1.40079 3.08977,-2.84646 4.5815,-4.33701 21.7016,-21.7028 33.7985,-50.8949 33.7985,-81.593 0,-98.5158 -61.5969,-77.517 -61.715,-77.6221l155.832 -37.9229 38.3918 35.7319 115.298 0c4.90985,-7.62284 7.70079,-17.6681 10.65,-28.2862 0.988583,-3.5563 1.99016,-7.16575 3.52914,-12.2055 1.00866,-3.30236 2.48504,-6.19843 4.39961,-8.71064l0.00944883 -0.0129921c3.67914,-4.72678 9.02717,-8.0315 15.4453,-10.2532 0.937796,-0.302362 1.90512,-0.579922 2.89961,-0.832678 1.46339,-0.370866 2.98465,-0.688583 4.56615,-0.954331l-0.0614174 -0.222047c20.3917,-4.21772 47.8465,-0.498426 68.5949,3.4441z"/>
  <path class="fil7" d="M1070.82 890.411c0,-12.8374 -2.35512,-24.3839 10.4823,-24.3839 9.51733,1.13976 42.1004,45.2847 58.904,72.4595 -20.7484,-3.94252 -48.2032,-7.66182 -68.5949,-3.4441 -0.516142,-1.92638 -0.793701,-3.95197 -0.793701,-6.04134l0.00236221 -38.5902z"/>
  <path class="fil8" d="M702.178 983.796c27.3614,0 52.1363,11.0917 70.0713,29.0244 17.9327,17.9303 29.0256,42.7028 29.0256,70.0642 0,27.3603 -11.0929,52.1327 -29.0256,70.063 -17.9351,17.9327 -42.7099,29.0244 -70.0713,29.0244 -27.3579,0 -52.1292,-11.0917 -70.063,-29.0244 -17.9303,-17.9327 -29.0244,-42.704 -29.0244,-70.063 0,-27.3591 11.0941,-52.1304 29.0244,-70.063 17.9339,-17.9327 42.7052,-29.0256 70.063,-29.0256z"/>
  <path class="fil9" d="M743.014 1042.06c-10.448,-10.4469 -24.887,-16.9099 -40.8366,-16.9099 -15.9449,0 -30.3803,6.463 -40.8284,16.911 -10.4469,10.4469 -16.9099,24.8823 -16.9099,40.8284 0,15.9449 6.463,30.3803 16.9099,40.8284 10.448,10.4469 24.8835,16.9099 40.8284,16.9099 15.9496,0 30.3886,-6.46182 40.8366,-16.9099 10.4469,-10.4457 16.911,-24.8823 16.911,-40.8284 0,-15.9461 -6.46418,-30.3827 -16.911,-40.8296z"/>
  <path class="fil10" d="M702.182 1060.59c12.313,0 22.2945,9.9815 22.2945,22.2945 0,12.3118 -9.9815,22.2933 -22.2945,22.2933 -12.313,0 -22.2945,-9.9815 -22.2945,-22.2933 0,-12.313 9.9815,-22.2945 22.2945,-22.2945z"/>
  <path class="fil8" d="M1426.33 983.796c27.3614,0 52.1363,11.0917 70.0713,29.0244 17.9327,17.9303 29.0256,42.7028 29.0256,70.0642 0,27.3603 -11.0929,52.1327 -29.0256,70.063 -17.9351,17.9327 -42.7099,29.0244 -70.0713,29.0244 -27.3567,0 -52.1292,-11.0917 -70.063,-29.0244 -17.9303,-17.9327 -29.0244,-42.704 -29.0244,-70.063 0,-27.3591 11.0941,-52.1304 29.0244,-70.063 17.9339,-17.9327 42.7063,-29.0256 70.063,-29.0256z"/>
  <path class="fil9" d="M1467.16 1042.06c-10.448,-10.4469 -24.887,-16.9099 -40.8366,-16.9099 -15.9449,0 -30.3803,6.463 -40.8284,16.911 -10.4469,10.4469 -16.9099,24.8823 -16.9099,40.8284 0,15.9449 6.463,30.3803 16.9099,40.8284 10.448,10.4469 24.8835,16.9099 40.8284,16.9099 15.9496,0 30.3886,-6.46182 40.8366,-16.9099 10.4469,-10.4457 16.911,-24.8823 16.911,-40.8284 0,-15.9461 -6.46418,-30.3827 -16.911,-40.8296z"/>
  <path class="fil10" d="M1426.33 1060.59c12.313,0 22.2945,9.9815 22.2945,22.2945 0,12.3118 -9.9815,22.2933 -22.2945,22.2933 -12.3118,0 -22.2945,-9.9815 -22.2945,-22.2933 0,-12.313 9.98268,-22.2945 22.2945,-22.2945z"/>
  <path class="fil11" d="M1344.15 1027.51c3.56339,-5.27835 7.62284,-10.1965 12.111,-14.6835 8.39883,-8.39883 18.2977,-15.2965 29.2595,-20.2583l-5.85237 -1.35c-72.8847,-16.813 -137.444,-36.8114 -211.786,-50.3764 -8.82875,-1.61102 -17.7933,-3.13229 -26.928,-4.54607l-0.753544 -1.22244c-20.7484,-3.94252 -48.2032,-7.66182 -68.5949,-3.4441l0.0614174 0.222047c-1.5815,0.265748 -3.10276,0.583465 -4.56615,0.954331 -0.994489,0.252756 -1.96181,0.530315 -2.89961,0.832678 -6.41812,2.22166 -11.7662,5.52638 -15.4453,10.2532l-0.00944883 0.0129921c-1.91457,2.51221 -3.39095,5.40827 -4.39961,8.71064 -1.53898,5.03977 -2.54055,8.64922 -3.52914,12.2055 -2.94921,10.6181 -5.74016,20.6634 -10.65,28.2862l-115.298 0 -38.3918 -35.7319 -137.537 33.4701c5.39174,2.15551 10.5508,4.77166 15.4358,7.80355 1.51536,0.853938 3.02126,1.8378 4.50355,2.96929 4.78111,3.34134 9.25394,7.09489 13.3677,11.2075 5.78268,5.78268 10.8555,12.2764 15.0732,19.3394 186.3,-21.0071 369.257,-8.46733 556.829,-4.65473z"/>
  <path class="fil12" d="M872.239 1054.05l18.1772 0 0 81.5327 -18.1772 0c-9.99686,0 -18.1748,-8.17914 -18.1748,-18.176l0 -45.1807c0,-9.99686 8.17796,-18.176 18.1748,-18.176z"/>
  <path class="fil11" d="M863.144 1056.5c-16.8827,7.78111 -39.7229,11.4295 -39.7229,28.4138 0,15.8847 -5.66693,33.9508 8.25001,37.6784l27.4465 7.35473c-3.12638,-3.26811 -5.05394,-7.69253 -5.05394,-12.5457l0 -45.1807c0,-6.68977 3.66142,-12.5646 9.08032,-15.7205z"/>
  <polygon class="fil13" points="907.326,1041.96 1009.57,1126.87 1334.76,1044.96 1024,1088.63 "/>
  <polygon class="fil13" points="962.331,1044.04 1024,1065.3 1280.68,1041.96 "/>
  <path class="fil14" d="M1509.34 927.112l-44.4827 0 0.046063 13.4906 30.9189 0 0.0259843 7.94883 -30.9189 0 0.0791339 23.4083 -8.75079 0 -0.178347 -52.7953 53.2335 0 0.0271654 7.94764zm20.8725 44.8477l-8.75079 0 -0.148819 -44.0457 -8.44607 3.64607 -0.0248032 -7.58386c3.17953,-1.02047 5.9941,-2.62441 8.44135,-4.81181l8.75079 0 0.178347 52.7953z"/>
 </g>
</svg>
