<?xml version="1.0" encoding="UTF-8"?>
<!DOCTYPE svg PUBLIC "-//W3C//DTD SVG 1.1//EN" "http://www.w3.org/Graphics/SVG/1.1/DTD/svg11.dtd">
<!-- Creator: CorelDRAW -->
<svg xmlns="http://www.w3.org/2000/svg" xml:space="preserve" width="2048px" height="2048px" style="shape-rendering:geometricPrecision; text-rendering:geometricPrecision; image-rendering:optimizeQuality; fill-rule:evenodd; clip-rule:evenodd"
viewBox="0 0 2048 2048"
 xmlns:xlink="http://www.w3.org/1999/xlink">
 <defs>
  <style type="text/css">
   <![CDATA[
    .fil2 {fill:none}
    .fil1 {fill:#FFB300}
    .fil0 {fill:#FFD54F}
    .fil3 {fill:#004D40;fill-rule:nonzero}
    .fil4 {fill:#03493D;fill-rule:nonzero}
    .fil7 {fill:#06453A;fill-rule:nonzero}
    .fil5 {fill:#094138;fill-rule:nonzero}
    .fil6 {fill:#0D3B34;fill-rule:nonzero}
    .fil8 {fill:#113630;fill-rule:nonzero}
   ]]>
  </style>
   <clipPath id="id0">
    <path d="M1024 0c565.539,0 1024,458.461 1024,1024 0,565.539 -458.461,1024 -1024,1024 -565.539,0 -1024,-458.461 -1024,-1024 0,-565.539 458.461,-1024 1024,-1024z"/>
   </clipPath>
 </defs>
 <g id="Layer_x0020_1">
  <metadata id="CorelCorpID_0Corel-Layer"/>
  <path class="fil0" d="M1024 0c565.539,0 1024,458.461 1024,1024 0,565.539 -458.461,1024 -1024,1024 -565.539,0 -1024,-458.461 -1024,-1024 0,-565.539 458.461,-1024 1024,-1024z"/>
  <g style="clip-path:url(#id0)">
   <g id="_478221304">
    <g>
     <polygon id="_3926324401" class="fil1" points="1208.18,480.53 2344.06,1616.41 2346.81,1619.8 2349.22,1623.25 2351.28,1626.78 2353.03,1630.36 2354.47,1633.99 2355.61,1637.67 2356.48,1641.39 2357.08,1645.14 2357.43,1648.92 2357.54,1652.72 2357.43,1656.53 2357.11,1660.35 2356.6,1664.17 2355.9,1667.98 2355.05,1671.77 2354.04,1675.55 2352.89,1679.3 2351.62,1683.02 2350.24,1686.7 2348.76,1690.33 2347.21,1693.91 2345.59,1697.43 2343.91,1700.89 2342.2,1704.27 2340.47,1707.57 2338.72,1710.79 2336.98,1713.92 2335.25,1716.95 1199.37,581.063 1201.1,578.035 1202.84,574.91 1204.58,571.692 1206.32,568.388 1208.03,565.006 1209.71,561.551 1211.33,558.031 1212.88,554.451 1214.36,550.818 1215.74,547.139 1217.01,543.421 1218.16,539.67 1219.17,535.893 1220.02,532.094 1220.72,528.284 1221.23,524.467 1221.55,520.649 1221.66,516.838 1221.54,513.039 1221.19,509.261 1220.59,505.51 1219.73,501.789 1218.58,498.11 1217.15,494.476 1215.4,490.894 1213.33,487.372 1210.93,483.915 "/>
     <polygon id="_392614056" class="fil1" points="1225.4,604.187 2361.29,1740.07 2363.18,1742.27 2365.04,1744.54 2366.87,1746.86 2368.67,1749.25 2370.44,1751.7 2372.17,1754.22 2373.86,1756.79 2375.51,1759.43 2377.12,1762.14 2378.68,1764.9 2380.19,1767.73 1244.31,631.851 1242.8,629.02 1241.24,626.253 1239.63,623.55 1237.98,620.911 1236.29,618.335 1234.56,615.821 1232.79,613.372 1230.99,610.982 1229.16,608.657 1227.3,606.391 "/>
     <polygon id="_392612688" class="fil1" points="1384.19,840.981 2520.07,1976.86 2519.98,1977 2519.89,1977.14 2519.79,1977.28 2519.7,1977.41 2519.6,1977.55 2519.5,1977.68 2519.41,1977.81 2519.31,1977.95 1383.43,842.064 1383.53,841.932 1383.62,841.798 1383.72,841.665 1383.81,841.529 1383.91,841.394 1384.01,841.257 1384.1,841.119 "/>
     <polygon id="_392619480" class="fil1" points="1383.43,842.064 2519.31,1977.95 2518.24,1979.51 2517.13,1981.09 2516.01,1982.68 2514.86,1984.29 2513.68,1985.89 2512.48,1987.51 2511.27,1989.13 2510.03,1990.76 1374.15,854.874 1375.39,853.249 1376.6,851.627 1377.8,850.012 1378.97,848.403 1380.13,846.803 1381.25,845.212 1382.35,843.631 "/>
     <polygon id="_392633328" class="fil1" points="1374.15,854.874 2510.03,1990.76 2183.21,1786.49 1047.32,650.606 "/>
     <polygon id="_392622408" class="fil1" points="1047.32,650.606 2183.21,1786.49 2174.65,1784.65 2166.1,1783.4 2157.57,1782.73 2149.07,1782.61 2140.6,1783.04 2132.19,1784.01 2123.84,1785.49 2115.57,1787.47 2107.37,1789.94 2099.27,1792.88 2091.28,1796.28 2083.4,1800.13 2075.65,1804.4 2068.04,1809.09 2060.58,1814.17 2053.28,1819.65 2046.15,1825.49 2039.21,1831.69 2032.45,1838.23 2025.9,1845.09 2019.57,1852.27 2013.46,1859.74 2007.59,1867.5 2001.96,1875.53 1996.6,1883.8 1991.5,1892.32 1986.69,1901.06 1982.17,1910.01 1977.95,1919.16 1974.04,1928.48 1970.46,1937.98 1967.21,1947.62 831.333,811.734 834.578,802.093 838.159,792.602 842.065,783.276 846.285,774.131 850.808,765.18 855.622,756.439 860.717,747.922 866.082,739.643 871.705,731.619 877.577,723.862 883.686,716.386 890.02,709.209 896.571,702.344 903.324,695.804 910.272,689.606 917.401,683.764 924.702,678.292 932.163,673.205 939.773,668.519 947.522,664.245 955.399,660.401 963.393,657.001 971.491,654.057 979.684,651.588 987.961,649.606 996.311,648.126 1004.72,647.162 1013.18,646.73 1021.69,646.843 1030.22,647.517 1038.77,648.767 "/>
     <polygon id="_392639808" class="fil1" points="831.333,811.734 1967.21,1947.62 1962.92,1962.76 1959.67,1977.66 1957.43,1992.31 1956.15,2006.73 1955.79,2020.93 1956.3,2034.91 1957.64,2048.69 1959.78,2062.27 1962.65,2075.66 1966.23,2088.88 1970.46,2101.93 1975.31,2114.82 1980.72,2127.57 1986.66,2140.17 1993.08,2152.65 1999.94,2165 2007.2,2177.25 2014.81,2189.39 2022.72,2201.44 2030.89,2213.41 2039.29,2225.3 2047.86,2237.14 2056.57,2248.92 2065.36,2260.65 2074.2,2272.35 2083.04,2284.02 2091.84,2295.68 2100.56,2307.33 2109.14,2318.98 2117.55,2330.64 2125.75,2342.33 2133.68,2354.04 997.8,1218.16 989.865,1206.45 981.67,1194.76 973.26,1183.1 964.676,1171.44 955.961,1159.79 947.163,1148.14 938.322,1136.47 929.482,1124.77 920.688,1113.03 911.982,1101.25 903.409,1089.42 895.013,1077.53 886.837,1065.56 878.924,1053.51 871.318,1041.36 864.063,1029.12 857.203,1016.76 850.781,1004.29 844.841,991.684 839.427,978.94 834.581,966.047 830.347,952.997 826.772,939.779 823.896,926.385 821.763,912.804 820.419,899.029 819.905,885.047 820.267,870.851 821.546,856.432 823.788,841.778 827.036,826.882 "/>
     <polygon id="_392635728" class="fil1" points="997.8,1218.16 2133.68,2354.04 2136.21,2719.88 1000.33,1584 "/>
     <polygon id="_392630328" class="fil1" points="742.862,1332.6 1878.74,2468.48 1876.55,2467.74 1874.41,2466.96 1872.3,2466.14 1870.24,2465.28 1868.22,2464.4 1866.24,2463.48 1864.31,2462.53 1862.42,2461.54 1860.57,2460.53 1858.76,2459.49 1857,2458.42 1855.28,2457.33 1853.61,2456.2 1851.98,2455.05 1850.4,2453.88 1848.86,2452.69 1847.36,2451.47 1845.91,2450.23 710.033,1314.35 711.482,1315.59 712.977,1316.8 714.517,1318 716.101,1319.17 717.729,1320.32 719.403,1321.44 721.12,1322.54 722.882,1323.61 724.687,1324.65 726.536,1325.66 728.428,1326.64 730.362,1327.6 732.341,1328.51 734.36,1329.4 736.423,1330.25 738.527,1331.07 740.673,1331.86 "/>
     <polygon id="_392638704" class="fil1" points="716.416,1584 1852.3,2719.88 1849.91,2719.76 1847.59,2719.41 1845.36,2718.83 1843.21,2718.05 1841.17,2717.07 1839.25,2715.9 1837.45,2714.55 701.572,1578.67 703.368,1580.01 705.292,1581.18 707.332,1582.17 709.477,1582.95 711.713,1583.53 714.03,1583.88 "/>
     <polygon id="_392617488" class="fil1" points="1000.33,1584 2136.21,2719.88 1852.3,2719.88 716.416,1584 "/>
     <polygon id="_392613192" class="fil1" points="1390.07,760.477 2525.95,1896.36 2527.36,1898 2528.68,1899.65 2529.92,1901.31 2531.07,1902.98 2532.14,1904.65 2533.13,1906.33 2534.04,1908.02 2534.87,1909.72 2535.63,1911.42 2536.3,1913.14 2536.91,1914.86 2537.44,1916.59 2537.9,1918.34 2538.29,1920.09 2538.62,1921.86 2538.88,1923.63 2539.07,1925.42 1403.19,789.537 1403,787.75 1402.74,785.975 1402.41,784.21 1402.02,782.456 1401.56,780.712 1401.03,778.978 1400.42,777.253 1399.74,775.538 1398.99,773.833 1398.16,772.136 1397.25,770.447 1396.26,768.767 1395.19,767.094 1394.04,765.429 1392.8,763.771 1391.48,762.12 "/>
     <polygon id="_392625720" class="fil1" points="1244.31,631.851 2380.19,1767.73 2380.63,1768.63 1244.75,632.743 "/>
     <polygon id="_392626584" class="fil1" points="1244.75,632.743 2380.63,1768.63 2381.48,1770.15 2382.37,1771.68 2383.32,1773.24 2384.3,1774.82 2385.33,1776.41 2386.4,1778.02 2387.52,1779.65 2388.68,1781.29 2389.87,1782.94 2391.11,1784.61 2392.38,1786.29 2393.69,1787.97 2395.04,1789.67 2396.42,1791.38 2397.84,1793.1 2399.29,1794.83 2400.77,1796.56 2402.28,1798.3 2403.83,1800.04 1267.94,664.158 1266.4,662.415 1264.89,660.676 1263.41,658.945 1261.96,657.219 1260.54,655.501 1259.16,653.791 1257.81,652.092 1256.5,650.403 1255.23,648.725 1253.99,647.058 1252.8,645.404 1251.64,643.764 1250.52,642.139 1249.45,640.53 1248.42,638.937 1247.43,637.36 1246.49,635.802 1245.6,634.263 "/>
     <polygon id="_392614080" class="fil1" points="1403.19,789.537 2539.07,1925.42 2539.21,1927.21 2539.27,1928.98 2539.28,1930.72 2539.23,1932.45 2539.12,1934.15 2538.95,1935.83 2538.73,1937.5 2538.45,1939.15 2538.12,1940.78 2537.75,1942.4 2537.32,1944.01 2536.85,1945.6 2536.33,1947.19 2535.77,1948.76 2535.17,1950.33 2534.52,1951.89 2533.84,1953.44 2533.12,1954.99 2532.37,1956.54 2531.58,1958.08 2530.76,1959.63 2529.91,1961.17 2529.03,1962.71 2528.12,1964.26 2527.19,1965.81 2526.23,1967.36 2525.25,1968.92 2524.25,1970.49 2523.23,1972.07 2522.19,1973.66 2521.14,1975.25 2520.07,1976.86 1384.19,840.981 1385.26,839.371 1386.31,837.774 1387.35,836.187 1388.37,834.61 1389.37,833.042 1390.35,831.481 1391.3,829.926 1392.24,828.376 1393.15,826.829 1394.03,825.285 1394.88,823.743 1395.7,822.2 1396.49,820.657 1397.24,819.11 1397.96,817.562 1398.64,816.008 1399.29,814.449 1399.89,812.881 1400.45,811.306 1400.97,809.722 1401.44,808.126 1401.87,806.52 1402.24,804.899 1402.57,803.266 1402.85,801.616 1403.07,799.949 1403.24,798.265 1403.35,796.563 1403.4,794.84 1403.39,793.095 1403.32,791.327 "/>
    </g>
    <path id="_478234912" class="fil1" d="M1357.29 736.419c31.6973,16.8307 44.1603,34.0004 45.8989,53.1178 1.74803,19.2343 -7.54725,34.2071 -19.0016,51.4441 -0.245669,0.370866 -0.500788,0.731103 -0.762993,1.08307 -2.82284,4.16339 -5.96103,8.47087 -9.27402,12.8102l-326.829 -204.268c-91.2662,-22.8166 -183.199,57.5292 -215.992,161.128 -51.5859,162.959 83.3788,281.256 166.467,406.427l2.5311 365.838 -283.915 0c-12.8882,0 -23.3362,-10.448 -23.3362,-23.3351 0,-1.00984 0.0637796,-2.00551 0.188977,-2.97992 1.53189,-19.1599 4.52481,-31.7551 10.415,-43.6347 3.23386,-6.52323 7.01693,-12.1819 11.6894,-18.1677 -50.8926,-60.6615 -29.1414,-85.7233 0.022441,-119.308 10.1492,-11.687 21.7146,-25.0063 27.4666,-43.9725 -23.5606,-7.76221 -40.0559,-21.9213 -48.2327,-37.3276 -0.283465,-0.533859 -0.542126,-1.07244 -0.780709,-1.61693 -4.34528,-8.78387 -6.23623,-18.0591 -5.54174,-27.176 0.784253,-10.2744 4.70552,-19.989 11.9315,-28.2957 8.07993,-9.29056 20.5323,-16.6736 37.4859,-20.3351 -21.7559,-29.8063 -44.6953,-70.4292 -62.2701,-117.049 -18.6756,-49.5367 -31.5236,-106.285 -30.8315,-164.728 0.387402,-32.6055 4.56851,-64.6288 12.111,-95.4887 21.4347,-87.6969 70.0123,-166.562 135.952,-223.245 66.3768,-57.0615 150.408,-91.7611 242.267,-90.6674 22.7232,0.270473 45.8611,2.72599 69.2575,7.56969 4.213,-4.6441 9.36851,-10.5413 14.8323,-16.7929 17.7614,-20.3221 38.3811,-43.9158 50.1815,-50.5158 7.84961,-4.36418 17.1331,-3.7004 24.1418,0.930709l0.0129921 -0.0200788c48.0426,31.7729 24.2244,81.4796 5.99528,113.218 5.43898,3.70276 10.9158,8.02678 16.2414,13.0099 10.6807,9.9945 20.7555,22.5071 28.6984,37.7788l0.437008 0.891733c8.78387,16.0996 25.7988,35.7189 45.5115,54.1536 21.391,20.0032 45.5918,38.1969 65.8158,48.8351 0.414567,0.218504 0.818505,0.448819 1.21536,0.687402z"/>
   </g>
  </g>
  <path class="fil2" d="M1024 0c565.539,0 1024,458.461 1024,1024 0,565.539 -458.461,1024 -1024,1024 -565.539,0 -1024,-458.461 -1024,-1024 0,-565.539 458.461,-1024 1024,-1024z"/>
  <path class="fil3" d="M1256.24 1224.29c13.7976,6.75473 23.3091,17.0788 28.8414,28.7469 3.89646,8.22048 5.69528,17.1012 5.53937,25.9358 -0.154725,8.80985 -2.24173,17.4803 -6.11693,25.3134 -6.22914,12.5894 -16.8803,23.2158 -31.3394,28.9914 5.82048,18.6059 17.2288,31.7469 27.2563,43.2933 29.165,33.5847 50.915,58.6465 0.0236221,119.308 4.67244,5.98583 8.45434,11.6445 11.6894,18.1677 6.01654,12.1358 9.01064,25.0169 10.5118,44.8819 0.956694,12.8374 -8.67402,24.0201 -21.5114,24.9768 -0.581103,0.0425197 -1.15984,0.0637796 -1.73268,0.0649607l0 0.0259843 -562.986 0c-12.8882,0 -23.3362,-10.448 -23.3362,-23.3351 0,-1.00984 0.0637796,-2.00551 0.188977,-2.97992 1.53189,-19.1599 4.52481,-31.7551 10.415,-43.6347 3.23386,-6.52323 7.01693,-12.1819 11.6894,-18.1677 -50.8926,-60.6615 -29.1414,-85.7233 0.022441,-119.308 10.1492,-11.687 21.7146,-25.0063 27.4666,-43.9725 -23.5606,-7.76221 -40.0559,-21.9213 -48.2327,-37.3276 -0.283465,-0.533859 -0.542126,-1.07244 -0.780709,-1.61693 -4.34528,-8.78387 -6.23623,-18.0591 -5.54174,-27.176 0.784253,-10.2744 4.70552,-19.989 11.9315,-28.2957 8.07993,-9.29056 20.5323,-16.6736 37.4859,-20.3351 -21.7559,-29.8063 -44.6953,-70.4292 -62.2701,-117.049 -18.6756,-49.5367 -31.5236,-106.285 -30.8315,-164.728 0.387402,-32.6055 4.56851,-64.6288 12.111,-95.4887 21.4347,-87.6969 70.0123,-166.562 135.952,-223.245 66.3768,-57.0615 150.408,-91.7611 242.267,-90.6674 22.7232,0.270473 45.8611,2.72599 69.2575,7.56969 4.213,-4.6441 9.36851,-10.5413 14.8323,-16.7929 17.7614,-20.3221 38.3811,-43.9158 50.1815,-50.5158 7.84961,-4.36418 17.1331,-3.7004 24.1418,0.930709l0.0129921 -0.0200788c48.0426,31.7729 24.2244,81.4796 5.99528,113.218 5.43898,3.70276 10.9158,8.02678 16.2414,13.0099 10.6807,9.9945 20.7555,22.5071 28.6984,37.7788 0.152362,0.295276 0.297638,0.592914 0.437008,0.891733 8.78387,16.0996 25.7988,35.7189 45.5115,54.1536 21.391,20.0032 45.5918,38.1969 65.8158,48.8351 0.414567,0.218504 0.818505,0.448819 1.21536,0.687402 31.6973,16.8307 44.1603,34.0004 45.8989,53.1178 1.74803,19.2343 -7.54725,34.2071 -19.0016,51.4441 -0.245669,0.370866 -0.500788,0.731103 -0.762993,1.08307 -21.091,31.0973 -59.6044,70.2957 -59.7154,70.4103 -7.63347,7.84843 -19.4599,9.15709 -28.4894,3.83032 -18.424,-9.53623 -31.4634,-18.9378 -43.0677,-27.3024 -24.5055,-17.6646 -40.8756,-29.465 -102.183,-16.4941 -9.16654,1.93347 -17.7484,3.03898 -25.7681,3.42992 -30.9544,1.51063 -52.9902,-7.6441 -68.3127,-21.1276 -15.528,-13.6654 -23.5571,-31.5248 -26.889,-47.3103 -1.02874,-4.87914 -1.61102,-9.66142 -1.82835,-14.113 -0.080315,-1.71378 -0.563386,2.38229 -1.51181,2.0752 -1.85551,-0.602363 -3.97441,-0.876379 -6.17481,-0.745276 -2.09882,0.124016 -4.25079,0.654331 -6.27402,1.66299 -5.85237,2.91733 -10.6146,10.839 -10.6146,26.3209 0,38.5406 15.6579,74.9552 38.9481,108.26 24.5032,35.0386 57.3981,66.756 89.9741,94.154 11.5429,9.70749 25.6122,19.5425 39.8327,29.4815 11.6551,8.14607 23.4071,16.3618 33.9898,24.561 48.8103,37.8248 84.4902,80.9386 50.8973,145.136z"/>
  <path class="fil4" d="M1256.24 1224.29c13.7976,6.75473 23.3091,17.0788 28.8414,28.7469 3.89646,8.22048 5.69528,17.1012 5.53937,25.9358 -0.154725,8.80985 -2.24173,17.4803 -6.11693,25.3134 -6.22914,12.5894 -16.8803,23.2158 -31.3394,28.9914 0.196063,0.625985 0.398032,1.24606 0.607087,1.85906l-511.726 0c0.283465,-0.833859 0.5563,-1.68071 0.816142,-2.53819 -23.5606,-7.76221 -40.0559,-21.9213 -48.2327,-37.3276 -0.283465,-0.533859 -0.542126,-1.07244 -0.780709,-1.61693 -4.34528,-8.78387 -6.23623,-18.0591 -5.54174,-27.176 0.784253,-10.2744 4.70552,-19.989 11.9315,-28.2957 7.8567,-9.03426 19.8484,-16.2638 36.0945,-20.0244l522.935 0c-0.938977,2.02323 -1.94528,4.06654 -3.02717,6.13229z"/>
  <path class="fil5" d="M1253.77 1335.14c5.97993,17.6291 16.9595,30.2764 26.6492,41.4343 29.165,33.5847 50.915,58.6465 0.0236221,119.308l0.229134 0.292914 -565.53 0 0.229134 -0.292914c-50.8926,-60.6615 -29.1414,-85.7233 0.022441,-119.308 9.69095,-11.1579 20.6705,-23.8051 26.6504,-41.4343l511.726 0z"/>
  <path class="fil6" d="M1280.67 1496.18c4.56733,5.87717 8.27835,11.4591 11.4602,17.8748 6.01654,12.1358 9.01064,25.0169 10.5118,44.8819 0.956694,12.8374 -8.67402,24.0201 -21.5114,24.9768 -0.581103,0.0425197 -1.15984,0.0637796 -1.73268,0.0649607l0 0.0259843 -562.986 0c-12.8882,0 -23.3362,-10.448 -23.3362,-23.3351 0,-1.00984 0.0637796,-2.00551 0.188977,-2.97992 1.53189,-19.1599 4.52481,-31.7551 10.415,-43.6347 3.18071,-6.41693 6.89292,-11.9976 11.4602,-17.8748l565.53 0z"/>
  <path class="fil7" d="M1000.33 1584l-283.915 0c-12.8882,0 -23.3362,-10.448 -23.3362,-23.3351 0,-1.00984 0.0637796,-2.00551 0.188977,-2.97992 1.53189,-19.1599 4.52481,-31.7551 10.415,-43.6347 3.23386,-6.52323 7.01693,-12.1819 11.6894,-18.1677 -50.8926,-60.6615 -29.1414,-85.7233 0.022441,-119.308 10.1492,-11.687 21.7146,-25.0063 27.4666,-43.9725 -23.5606,-7.76221 -40.0559,-21.9213 -48.2327,-37.3276 -0.283465,-0.533859 -0.542126,-1.07244 -0.780709,-1.61693 -4.34528,-8.78387 -6.23623,-18.0591 -5.54174,-27.176 0.784253,-10.2744 4.70552,-19.989 11.9315,-28.2957 8.07993,-9.29056 20.5323,-16.6736 37.4859,-20.3351 -21.7559,-29.8063 -44.6953,-70.4292 -62.2701,-117.049 -18.6756,-49.5367 -31.5236,-106.285 -30.8315,-164.728 0.387402,-32.6055 4.56851,-64.6288 12.111,-95.4887 21.4347,-87.6969 70.0123,-166.562 135.952,-223.245 66.3768,-57.0615 150.408,-91.7611 242.267,-90.6674 22.7232,0.270473 45.8611,2.72599 69.2575,7.56969 4.213,-4.6441 9.36851,-10.5413 14.8323,-16.7929 17.7614,-20.3221 38.3811,-43.9158 50.1815,-50.5158 7.84961,-4.36418 17.1331,-3.7004 24.1418,0.930709l0.0129921 -0.0200788c48.0426,31.7729 24.2244,81.4796 5.99528,113.218 5.43898,3.70276 10.9158,8.02678 16.2414,13.0099 10.6807,9.9945 20.7555,22.5071 28.6984,37.7788 0.152362,0.295276 0.297638,0.592914 0.437008,0.891733 8.78387,16.0996 25.7988,35.7189 45.5115,54.1536 21.391,20.0032 45.5918,38.1969 65.8158,48.8351 0.414567,0.218504 0.818505,0.448819 1.21536,0.687402 31.6973,16.8307 44.1603,34.0004 45.8989,53.1178 1.74803,19.2343 -7.54725,34.2071 -19.0016,51.4441 -0.245669,0.370866 -0.500788,0.731103 -0.762993,1.08307 -2.82284,4.16339 -5.96103,8.47087 -9.27402,12.8102l-326.829 -204.268c-91.2662,-22.8166 -183.199,57.5292 -215.992,161.128 -51.5859,162.959 83.3788,281.256 166.467,406.427l2.5311 365.838z"/>
  <path class="fil5" d="M998.61 1335.14l-256.564 0c0.283465,-0.833859 0.5563,-1.68071 0.816142,-2.53819 -23.5606,-7.76221 -40.0559,-21.9213 -48.2327,-37.3276 -0.283465,-0.533859 -0.542126,-1.07244 -0.780709,-1.61693 -4.34528,-8.78387 -6.23623,-18.0591 -5.54174,-27.176 0.784253,-10.2744 4.70552,-19.989 11.9315,-28.2957 7.8567,-9.03426 19.8484,-16.2638 36.0945,-20.0244l261.467 0 0.810237 116.979z"/>
  <path class="fil6" d="M999.724 1496.18l-284.58 0 0.229134 -0.292914c-50.8926,-60.6615 -29.1414,-85.7233 0.022441,-119.308 9.69095,-11.1579 20.6705,-23.8051 26.6504,-41.4343l256.564 0 1.11378 161.035z"/>
  <path class="fil8" d="M1000.33 1584l-283.915 0c-12.8882,0 -23.3362,-10.448 -23.3362,-23.3351 0,-1.00984 0.0637796,-2.00551 0.188977,-2.97992 1.53189,-19.1599 4.52481,-31.7551 10.415,-43.6347 3.18071,-6.41693 6.89292,-11.9976 11.4602,-17.8748l284.58 0 0.607087 87.8245z"/>
 </g>
</svg>
