<?xml version="1.0" encoding="UTF-8"?>
<!DOCTYPE svg PUBLIC "-//W3C//DTD SVG 1.1//EN" "http://www.w3.org/Graphics/SVG/1.1/DTD/svg11.dtd">
<!-- Creator: CorelDRAW -->
<svg xmlns="http://www.w3.org/2000/svg" xml:space="preserve" width="2048px" height="2048px" style="shape-rendering:geometricPrecision; text-rendering:geometricPrecision; image-rendering:optimizeQuality; fill-rule:evenodd; clip-rule:evenodd"
viewBox="0 0 2048 2048"
 xmlns:xlink="http://www.w3.org/1999/xlink">
 <defs>
  <style type="text/css">
   <![CDATA[
    .fil2 {fill:none}
    .fil7 {fill:none;fill-rule:nonzero}
    .fil10 {fill:#161616}
    .fil8 {fill:#1A1A1A}
    .fil11 {fill:#1B1B1B}
    .fil9 {fill:#212121}
    .fil13 {fill:#4FC3F7}
    .fil1 {fill:#7CB342}
    .fil12 {fill:#81D4FA}
    .fil0 {fill:#AED581}
    .fil6 {fill:#CC4F29}
    .fil4 {fill:#212121;fill-rule:nonzero}
    .fil3 {fill:#B32C04;fill-rule:nonzero}
    .fil5 {fill:#BF360C;fill-rule:nonzero}
   ]]>
  </style>
   <clipPath id="id0">
    <path d="M1024 0c565.539,0 1024,458.461 1024,1024 0,565.539 -458.461,1024 -1024,1024 -565.539,0 -1024,-458.461 -1024,-1024 0,-565.539 458.461,-1024 1024,-1024z"/>
   </clipPath>
 </defs>
 <g id="Layer_x0020_1">
  <metadata id="CorelCorpID_0Corel-Layer"/>
  <path class="fil0" d="M1024 0c565.539,0 1024,458.461 1024,1024 0,565.539 -458.461,1024 -1024,1024 -565.539,0 -1024,-458.461 -1024,-1024 0,-565.539 458.461,-1024 1024,-1024z"/>
  <g style="clip-path:url(#id0)">
   <g id="_478207000">
    <g>
     <polygon id="_3968147921" class="fil1" points="987.966,973.613 2123.85,2109.5 2344.59,2338.08 1208.71,1202.2 "/>
     <polygon id="_396808720" class="fil1" points="1055.25,684.635 2191.14,1820.52 2194.58,1828.9 2197.74,1837.36 2200.6,1845.9 2203.16,1854.52 2205.41,1863.2 2207.35,1871.95 2208.96,1880.76 2210.24,1889.62 2211.19,1898.54 2211.79,1907.51 2212.04,1916.53 2211.94,1925.59 2211.47,1934.68 2210.62,1943.81 2209.4,1952.98 2207.8,1962.16 2205.8,1971.37 2203.4,1980.6 2200.59,1989.84 2197.37,1999.09 2193.72,2008.35 2189.65,2017.61 2185.15,2026.87 2180.2,2036.12 2174.8,2045.37 2168.95,2054.6 2162.63,2063.81 2155.84,2073.01 2148.58,2082.18 2140.83,2091.32 2132.59,2100.42 2123.85,2109.5 987.966,973.613 996.706,964.542 1004.95,955.436 1012.7,946.295 1019.96,937.126 1026.75,927.933 1033.07,918.718 1038.92,909.486 1044.32,900.24 1049.27,890.987 1053.77,881.728 1057.84,872.467 1061.49,863.208 1064.71,853.957 1067.52,844.716 1069.92,835.488 1071.92,826.28 1073.52,817.093 1074.74,807.933 1075.59,798.803 1076.06,789.706 1076.16,780.648 1075.91,771.631 1075.31,762.661 1074.36,753.74 1073.08,744.873 1071.46,736.064 1069.53,727.315 1067.28,718.633 1064.72,710.019 1061.85,701.48 1058.7,693.016 "/>
     <polygon id="_396803176" class="fil1" points="1374.51,1304.2 2510.39,2440.08 2504.16,2446.31 1368.28,1310.43 "/>
     <polygon id="_396804064" class="fil1" points="1562.02,1570.35 2697.9,2706.23 2697.83,2706.31 2697.75,2706.38 2697.68,2706.46 2697.6,2706.53 2697.53,2706.61 2697.45,2706.68 2697.37,2706.75 2697.3,2706.83 1561.41,1570.95 1561.49,1570.87 1561.57,1570.8 1561.64,1570.72 1561.72,1570.65 1561.8,1570.57 1561.87,1570.5 1561.95,1570.43 "/>
     <polygon id="_396814216" class="fil1" points="971.188,989.613 2107.07,2125.5 2097.67,2133.72 2088.26,2141.45 2078.83,2148.7 2069.39,2155.47 2059.95,2161.77 2050.49,2167.6 2041.04,2172.98 2031.59,2177.9 2022.15,2182.38 2012.72,2186.43 2003.3,2190.05 1993.91,2193.24 1984.53,2196.02 1975.18,2198.4 1965.86,2200.37 1956.57,2201.95 1947.32,2203.14 1938.11,2203.95 1928.94,2204.39 1919.82,2204.46 1910.75,2204.18 1901.74,2203.54 1892.79,2202.56 1883.9,2201.24 1875.08,2199.59 1866.32,2197.62 1857.64,2195.33 1849.04,2192.74 1840.52,2189.84 1832.08,2186.65 1823.74,2183.16 1815.48,2179.4 679.603,1043.52 687.857,1047.28 696.204,1050.76 704.639,1053.96 713.16,1056.86 721.762,1059.45 730.442,1061.74 739.195,1063.71 748.018,1065.36 756.908,1066.68 765.86,1067.66 774.872,1068.29 783.94,1068.58 793.059,1068.51 802.225,1068.07 811.436,1067.25 820.687,1066.06 829.975,1064.48 839.297,1062.51 848.648,1060.14 858.024,1057.36 867.422,1054.17 876.839,1050.55 886.269,1046.5 895.711,1042.02 905.16,1037.09 914.612,1031.72 924.064,1025.89 933.512,1019.59 942.952,1012.82 952.38,1005.57 961.794,997.839 "/>
     <polygon id="_396826888" class="fil1" points="1302.1,1376.61 2437.98,2512.49 2431.75,2518.72 1295.87,1382.83 "/>
     <polygon id="_396813256" class="fil1" points="1561.41,1570.95 2697.3,2706.83 2695.55,2708.43 2693.75,2709.92 2691.89,2711.31 2689.98,2712.59 2688.02,2713.77 2686.01,2714.85 2683.97,2715.82 2681.88,2716.69 2679.77,2717.46 2677.63,2718.11 2675.46,2718.67 2673.27,2719.12 2671.07,2719.47 2668.86,2719.71 2666.64,2719.85 2664.42,2719.88 2662.19,2719.81 2659.97,2719.63 2657.77,2719.36 2655.57,2718.97 2653.39,2718.48 2651.23,2717.89 2649.1,2717.19 2647,2716.39 2644.93,2715.49 2642.89,2714.48 2640.9,2713.37 2638.96,2712.15 2637.07,2710.83 2635.23,2709.4 2633.44,2707.87 2631.72,2706.23 1495.84,1570.35 1497.56,1571.99 1499.34,1573.52 1501.18,1574.94 1503.08,1576.26 1505.02,1577.48 1507.01,1578.6 1509.05,1579.61 1511.12,1580.51 1513.22,1581.31 1515.35,1582.01 1517.51,1582.6 1519.69,1583.09 1521.88,1583.47 1524.09,1583.75 1526.31,1583.93 1528.54,1584 1530.76,1583.96 1532.98,1583.83 1535.19,1583.58 1537.39,1583.24 1539.58,1582.79 1541.75,1582.23 1543.89,1581.57 1546,1580.81 1548.08,1579.94 1550.13,1578.97 1552.14,1577.89 1554.1,1576.71 1556.01,1575.43 1557.87,1574.04 1559.67,1572.54 "/>
     <polygon id="_396799816" class="fil1" points="679.603,1043.52 1815.48,2179.4 1811.95,2177.69 1808.43,2175.93 1804.93,2174.12 1801.46,2172.25 1798,2170.34 1794.57,2168.38 1791.15,2166.37 1787.76,2164.32 1784.4,2162.22 1781.05,2160.07 1777.73,2157.87 1774.43,2155.64 1771.15,2153.35 1767.9,2151.03 1764.67,2148.66 1761.46,2146.24 1758.28,2143.79 1755.13,2141.29 1752,2138.75 1748.89,2136.18 1745.81,2133.56 1742.76,2130.9 1739.73,2128.21 1736.73,2125.47 1733.76,2122.7 597.876,986.82 600.85,989.591 603.85,992.324 606.877,995.019 609.93,997.676 613.009,1000.29 616.114,1002.87 619.244,1005.41 622.4,1007.91 625.581,1010.36 628.785,1012.77 632.014,1015.14 635.268,1017.47 638.545,1019.75 641.846,1021.99 645.168,1024.19 648.514,1026.34 651.883,1028.44 655.274,1030.49 658.686,1032.5 662.121,1034.46 665.575,1036.37 669.052,1038.23 672.549,1040.05 676.066,1041.81 "/>
     <polygon id="_396797104" class="fil1" points="993.298,591.935 2129.18,1727.82 2131.97,1730.82 2134.71,1733.84 2137.42,1736.9 2140.1,1739.97 2142.73,1743.07 2145.32,1746.2 2147.88,1749.35 2150.39,1752.53 2152.86,1755.72 2155.29,1758.94 2157.67,1762.19 2160.02,1765.45 2162.31,1768.74 2164.57,1772.05 2166.78,1775.38 2168.94,1778.74 2171.06,1782.11 2173.13,1785.51 2175.15,1788.92 2177.13,1792.36 2179.06,1795.81 2180.93,1799.29 2182.76,1802.78 2184.54,1806.29 2186.27,1809.82 2187.94,1813.37 2189.56,1816.93 2191.14,1820.52 1055.25,684.635 1053.68,681.051 1052.06,677.486 1050.38,673.938 1048.66,670.407 1046.88,666.896 1045.05,663.403 1043.18,659.928 1041.25,656.474 1039.27,653.039 1037.25,649.625 1035.18,646.23 1033.06,642.856 1030.9,639.502 1028.69,636.171 1026.43,632.86 1024.13,629.572 1021.79,626.305 1019.41,623.062 1016.98,619.841 1014.51,616.643 1012,613.469 1009.44,610.319 1006.85,607.192 1004.22,604.091 1001.54,601.014 998.833,597.962 996.085,594.936 "/>
     <polygon id="_396814816" class="fil1" points="1562.02,1504.17 2697.9,2640.05 2699.56,2641.79 2701.1,2643.59 2702.54,2645.46 2703.88,2647.38 2705.1,2649.34 2706.22,2651.36 2707.24,2653.42 2708.14,2655.51 2708.94,2657.64 2709.64,2659.8 2710.22,2661.99 2710.7,2664.19 2711.07,2666.42 2711.34,2668.65 2711.5,2670.89 2711.55,2673.14 2711.5,2675.39 2711.34,2677.64 2711.07,2679.87 2710.7,2682.09 2710.22,2684.3 2709.63,2686.48 2708.94,2688.64 2708.14,2690.77 2707.24,2692.87 2706.22,2694.93 2705.1,2696.94 2703.87,2698.91 2702.54,2700.83 2701.1,2702.69 2699.56,2704.49 2697.9,2706.23 1562.02,1570.35 1563.68,1568.61 1565.22,1566.81 1566.66,1564.95 1567.99,1563.03 1569.22,1561.06 1570.34,1559.04 1571.35,1556.99 1572.26,1554.89 1573.06,1552.76 1573.75,1550.6 1574.34,1548.42 1574.82,1546.21 1575.19,1543.99 1575.46,1541.75 1575.62,1539.51 1575.67,1537.26 1575.62,1535.01 1575.46,1532.77 1575.19,1530.53 1574.82,1528.31 1574.34,1526.1 1573.75,1523.92 1573.06,1521.76 1572.26,1519.63 1571.35,1517.53 1570.34,1515.48 1569.22,1513.46 1567.99,1511.49 1566.66,1509.58 1565.22,1507.71 1563.68,1505.91 "/>
     <polygon id="_396796816" class="fil1" points="951.374,1241.43 2087.26,2377.31 2088.37,2378.5 2089.41,2379.79 2090.37,2381.17 2091.25,2382.66 2092.05,2384.23 2092.76,2385.89 2093.4,2387.63 2093.94,2389.45 2094.41,2391.34 2094.79,2393.3 2095.08,2395.32 2095.28,2397.41 2095.4,2399.56 2095.43,2401.75 2095.37,2404 2095.22,2406.29 2094.97,2408.62 2094.63,2410.98 2094.21,2413.38 2093.68,2415.81 2093.06,2418.25 2092.35,2420.72 2091.54,2423.2 955.655,1287.32 956.467,1284.84 957.181,1282.37 957.8,1279.92 958.325,1277.5 958.753,1275.1 959.09,1272.74 959.335,1270.41 959.487,1268.12 959.548,1265.87 959.52,1263.67 959.403,1261.53 959.199,1259.44 958.906,1257.42 958.528,1255.45 958.063,1253.56 957.515,1251.75 956.881,1250.01 956.166,1248.35 955.368,1246.77 954.49,1245.29 953.529,1243.9 952.491,1242.62 "/>
     <polygon id="_396805408" class="fil1" points="883.066,1242.6 2018.95,2378.49 2020.2,2379.77 2021.39,2381.16 2022.52,2382.64 2023.59,2384.2 2024.58,2385.86 2025.51,2387.6 2026.37,2389.41 2027.15,2391.3 2027.87,2393.26 2028.5,2395.28 2029.07,2397.36 2029.55,2399.5 2029.96,2401.7 2030.28,2403.94 2030.52,2406.23 2030.68,2408.55 2030.75,2410.91 2030.74,2413.31 2030.64,2415.73 2030.44,2418.17 2030.16,2420.63 2029.78,2423.11 893.899,1287.23 894.277,1284.75 894.563,1282.29 894.755,1279.84 894.858,1277.42 894.874,1275.03 894.8,1272.67 894.642,1270.34 894.4,1268.06 894.076,1265.82 893.671,1263.62 893.186,1261.48 892.624,1259.4 891.986,1257.38 891.272,1255.42 890.486,1253.53 889.628,1251.72 888.7,1249.98 887.704,1248.32 886.641,1246.75 885.513,1245.27 884.32,1243.89 "/>
     <polygon id="_396813280" class="fil1" points="815.431,1243.87 1951.31,2379.76 1952.74,2381.14 1954.12,2382.61 1955.45,2384.18 1956.73,2385.83 1957.95,2387.56 1959.12,2389.38 1960.23,2391.26 1961.28,2393.21 1962.27,2395.23 1963.19,2397.31 1964.04,2399.44 1964.83,2401.63 1965.54,2403.86 1966.18,2406.14 1966.74,2408.46 1967.22,2410.82 1967.62,2413.2 1967.94,2415.61 1968.17,2418.05 1968.31,2420.5 1968.37,2422.97 832.486,1287.09 832.433,1284.62 832.29,1282.17 832.059,1279.73 831.742,1277.32 831.341,1274.93 830.859,1272.58 830.298,1270.26 829.66,1267.98 828.948,1265.75 828.164,1263.56 827.309,1261.43 826.387,1259.35 825.4,1257.33 824.35,1255.38 823.24,1253.49 822.07,1251.68 820.846,1249.95 819.568,1248.3 818.238,1246.73 816.858,1245.26 "/>
     <polygon id="_396804088" class="fil1" points="750.089,1246.71 1885.97,2382.59 1887.56,2384.16 1889.12,2385.81 1890.64,2387.54 1892.11,2389.34 1893.54,2391.22 1894.92,2393.17 1896.25,2395.19 1897.52,2397.26 1898.74,2399.39 1899.9,2401.58 1900.99,2403.81 1902.02,2406.08 1902.97,2408.4 1903.86,2410.75 1904.67,2413.13 1905.4,2415.54 1906.05,2417.97 1906.62,2420.42 1907.1,2422.88 771.214,1287 770.735,1284.53 770.169,1282.08 769.518,1279.65 768.787,1277.25 767.977,1274.86 767.092,1272.51 766.134,1270.2 765.108,1267.92 764.016,1265.69 762.859,1263.51 761.642,1261.38 760.367,1259.31 759.038,1257.29 757.659,1255.34 756.23,1253.46 754.756,1251.65 753.239,1249.92 751.682,1248.28 "/>
     <polygon id="_396822784" class="fil1" points="905.104,1433.53 2040.99,2569.42 2032.31,2594.54 2032.24,2594.74 2032.16,2594.95 2032.08,2595.16 2031.99,2595.36 2031.89,2595.56 2031.8,2595.77 2031.7,2595.97 2031.59,2596.17 895.712,1460.28 895.817,1460.08 895.918,1459.88 896.013,1459.68 896.105,1459.48 896.194,1459.27 896.277,1459.07 896.356,1458.86 896.43,1458.65 "/>
     <polygon id="_396795616" class="fil1" points="895.712,1460.28 2031.59,2596.17 2031.59,2615.54 895.712,1479.66 "/>
     <polygon id="_396823384" class="fil1" points="895.712,1479.66 2031.59,2615.54 2028.46,2615.54 892.581,1479.66 "/>
     <polygon id="_396822016" class="fil1" points="773.762,1479.66 1909.64,2615.54 1906.51,2615.54 770.632,1479.66 "/>
     <polygon id="_396796432" class="fil1" points="892.581,1479.66 2028.46,2615.54 2028.46,2651.34 2028.38,2654.38 2028.15,2657.39 2027.77,2660.35 2027.25,2663.27 2026.58,2666.14 2025.78,2668.95 2024.84,2671.71 2023.77,2674.4 2022.58,2677.03 2021.26,2679.59 2019.83,2682.08 2018.28,2684.49 2016.62,2686.82 2014.85,2689.07 2012.98,2691.23 2011.01,2693.29 2008.94,2695.26 2006.79,2697.14 2004.54,2698.9 2002.21,2700.56 1999.8,2702.11 1997.31,2703.55 1994.75,2704.86 1992.12,2706.06 1989.43,2707.13 1986.67,2708.06 1983.86,2708.87 1980.99,2709.53 1978.07,2710.06 1975.1,2710.44 1972.1,2710.67 1969.05,2710.75 1966.01,2710.67 1963,2710.44 1960.04,2710.06 1957.12,2709.53 1954.25,2708.87 1951.44,2708.06 1948.68,2707.13 1945.98,2706.06 1943.36,2704.86 1940.79,2703.55 1938.31,2702.11 1935.9,2700.56 1933.57,2698.9 1931.32,2697.14 795.438,1561.25 797.684,1563.02 800.014,1564.68 802.426,1566.23 804.914,1567.67 807.474,1568.98 810.103,1570.18 812.799,1571.24 815.555,1572.18 818.37,1572.98 821.238,1573.65 824.155,1574.18 827.12,1574.55 830.127,1574.79 833.172,1574.86 836.216,1574.79 839.223,1574.55 842.188,1574.18 845.105,1573.65 847.974,1572.98 850.788,1572.18 853.544,1571.24 856.24,1570.18 858.869,1568.98 861.429,1567.67 863.918,1566.23 866.329,1564.68 868.659,1563.02 870.905,1561.25 873.063,1559.38 875.13,1557.41 877.1,1555.35 878.971,1553.19 880.739,1550.94 882.4,1548.61 883.948,1546.2 885.383,1543.71 886.699,1541.15 887.893,1538.52 888.961,1535.83 889.899,1533.07 890.702,1530.26 891.368,1527.39 891.894,1524.47 892.273,1521.51 892.503,1518.5 892.581,1515.45 "/>
     <polygon id="_396802432" class="fil1" points="916.546,1400.44 2052.43,2536.33 2040.99,2569.42 905.104,1433.53 "/>
     <polygon id="_396801448" class="fil1" points="932.365,1354.67 2068.25,2490.55 2052.43,2536.33 916.546,1400.44 "/>
     <polygon id="_396798160" class="fil1" points="955.655,1287.32 2091.54,2423.2 2068.25,2490.55 932.365,1354.67 "/>
    </g>
    <path id="_478206472" class="fil1" d="M987.966 973.613l220.741 228.584 1.59685 -1.44331 143.198 82.4434 21.0047 21.0047 -6.22678 6.2256 193.743 193.743c18.1996,18.1996 18.1996,47.98 -0.0011811,66.1796 -0.200788,0.200788 -0.402756,0.399213 -0.607087,0.595276 -18.248,17.602 -47.5737,17.4036 -65.5725,-0.595276l-193.742 -193.742 -6.22678 6.2256 -21.0036 -21.0036 -84.8528 -142.733 1.48583 -1.34291 -220.315 -228.141c-100.093,90.3875 -204.047,95.5099 -291.585,53.9067 -37.8366,-17.9823 -72.3048,-44.7473 -101.759,-77.0918 -29.1036,-31.9583 -53.4567,-69.5646 -71.4119,-109.641 -50.5087,-112.73 -50.1189,-245.241 36.6296,-329.14 86.0942,-83.2666 219.748,-78.2197 331.533,-22.9772 39.4193,19.4788 76.206,45.2339 107.197,75.5268 31.4339,30.7276 56.9918,66.1252 73.4623,104.438 38.2406,88.9572 28.6193,192.436 -67.2886,288.978zm-50.1024 262.464l0.056693 0c19.4303,0 26.9091,24.7016 17.7354,51.2445l-23.2902 67.3465 -15.8197 45.7772 -11.4413 33.0886 -8.67402 25.1209c-0.19252,0.5563 -0.433465,1.09961 -0.718111,1.62874l0 19.3725 -3.1311 0 0 35.7981c0,32.6752 -26.7331,59.4095 -59.4095,59.4095 -32.6752,0 -59.4095,-26.7343 -59.4095,-59.4095l0 -35.7981 -3.12992 0 0 -19.6205 0.297638 0c-0.431103,-0.711024 -0.784253,-1.44803 -1.04882,-2.2063l-8.75079 -25.102 -11.5347 -33.0898 -15.9295 -45.6874 -23.3811 -67.0642c-9.16772,-26.2902 -2.09882,-50.8087 17.0504,-50.8087l0.0555119 0c19.1776,0 39.1878,24.5669 43.8237,50.9233 -4.63583,-26.3563 6.83032,-50.9233 26.0351,-50.9233l0.0555119 0c19.2059,0 35.1095,24.6106 35.1815,51.0154 -0.0720473,-26.4047 15.6118,-51.0154 34.9016,-51.0154l0.056693 0c19.3453,0 30.9921,24.652 26.4544,51.1536 4.5378,-26.5016 24.5906,-51.1536 43.9642,-51.1536z"/>
   </g>
  </g>
  <path class="fil2" d="M1024 0c565.539,0 1024,458.461 1024,1024 0,565.539 -458.461,1024 -1024,1024 -565.539,0 -1024,-458.461 -1024,-1024 0,-565.539 458.461,-1024 1024,-1024z"/>
  <polygon class="fil3" points="966.178,951.052 1255.92,1251.09 1241.79,1269.83 952.051,969.796 "/>
  <line class="fil2" x1="598.981" y1="510.729" x2="553.993" y2= "870.338" />
  <polygon class="fil4" points="604.786,511.438 559.798,871.047 548.189,869.631 593.177,510.022 "/>
  <line class="fil2" x1="692.574" y1="494.783" x2="634.791" y2= "978.695" />
  <polygon class="fil4" points="698.379,495.468 640.595,979.381 628.986,978.01 686.77,494.097 "/>
  <line class="fil2" x1="785.415" y1="517.039" x2="723.974" y2= "1033.86" />
  <polygon class="fil4" points="791.219,517.724 729.778,1034.54 718.17,1033.17 779.61,516.352 "/>
  <line class="fil2" x1="509.211" y1="764.176" x2="1027.5" y2= "811.625" />
  <polygon class="fil4" points="509.737,758.372 1028.03,805.82 1026.97,817.429 508.685,769.98 "/>
  <line class="fil2" x1="879.761" y1="534.127" x2="818.321" y2= "1032.66" />
  <polygon class="fil4" points="885.565,534.835 824.125,1033.37 812.518,1031.96 873.956,533.419 "/>
  <line class="fil2" x1="965.599" y1="606.53" x2="918.876" y2= "997.81" />
  <polygon class="fil4" points="971.403,607.216 924.681,998.496 913.072,997.125 959.794,605.843 "/>
  <line class="fil2" x1="510.037" y1="670.658" x2="1028.33" y2= "718.107" />
  <polygon class="fil4" points="510.564,664.854 1028.85,712.302 1027.8,723.911 509.511,676.463 "/>
  <line class="fil2" x1="528.787" y1="580.923" x2="973.984" y2= "626.947" />
  <polygon class="fil4" points="529.381,575.119 974.578,621.142 973.39,632.751 528.193,586.728 "/>
  <line class="fil2" x1="609.389" y1="513.251" x2="879.29" y2= "537.959" />
  <polygon class="fil4" points="609.915,507.447 879.816,532.156 878.763,543.765 608.863,519.056 "/>
  <line class="fil2" x1="540.234" y1="866.668" x2="997.214" y2= "914.117" />
  <polygon class="fil4" points="540.828,860.864 997.808,908.312 996.618,919.921 539.64,872.473 "/>
  <line class="fil2" x1="613.609" y1="965.662" x2="914.177" y2= "996.872" />
  <polygon class="fil4" points="614.203,959.858 914.773,991.068 913.583,1002.68 613.015,971.467 "/>
  <path class="fil5" d="M853.939 546.532c-95.6209,-47.2548 -208.291,-53.1721 -278.521,14.7496 -70.8107,68.4851 -69.5516,180.171 -26.3941,276.494 15.8858,35.4579 37.4953,68.8004 63.3697,97.2119 25.5213,28.0252 55.0548,51.0591 87.1359,66.306 73.6855,35.0197 162.484,28.6488 248.708,-54.0721 85.9796,-82.4859 95.9398,-169.96 64.0583,-244.123 -14.0445,-32.6705 -35.9823,-62.9965 -63.0426,-89.4473 -27.5044,-26.8866 -60.2162,-49.7752 -95.315,-67.1186zm-310.877 -18.8847c86.0942,-83.2666 219.748,-78.2197 331.533,-22.9772 39.4193,19.4788 76.206,45.2339 107.197,75.5268 31.4339,30.7276 56.9918,66.1252 73.4623,104.438 39.1985,91.1859 28.1067,197.63 -74.6599,296.221 -102.961,98.778 -210.708,105.573 -300.991,62.6646 -37.8366,-17.9823 -72.3048,-44.7473 -101.759,-77.0918 -29.1036,-31.9583 -53.4567,-69.5646 -71.4119,-109.641 -50.5087,-112.73 -50.1189,-245.241 36.6296,-329.14z"/>
  <path class="fil6" d="M553.229 538.159c-85.2272,82.428 -78.7678,211.505 -33.4512,312.649 17.2063,38.4048 40.5378,74.654 68.8784,105.775 27.4666,30.1618 60.2788,56.1709 97.2249,73.7292 16.6453,7.91103 34.0819,14.1142 52.0678,18.1713 89.2583,20.1343 168.692,-16.9441 232.521,-78.1808 63.1666,-60.5989 103.743,-137.785 87.4973,-226.984 -3.31418,-18.1973 -8.84646,-35.9221 -16.148,-52.9075 -16.1492,-37.5662 -41.0989,-71.2607 -70.2497,-99.756 -30.1677,-29.4886 -65.6386,-54.1878 -103.454,-72.8741 -98.817,-48.8315 -229.658,-62.0493 -314.887,20.3788zm307.19 -4.73859c36.2233,17.9008 70.1575,41.5217 99.0568,69.7725 27.5185,26.8984 51.013,58.6689 66.2564,94.1292 5.72717,13.324 10.2284,27.1607 13.2732,41.3433 18.3591,85.5473 -19.8106,160.748 -80.6422,219.108 -32.3327,31.0193 -70.3229,56.7508 -113.594,69.5693 -36.352,10.7681 -73.728,11.5441 -110.454,2.11772 -14.1402,-3.63071 -27.8799,-8.6941 -41.0622,-14.9587 -34.8579,-16.5673 -65.7626,-41.217 -91.6713,-69.6674 -27.0981,-29.7567 -49.4481,-64.3548 -65.902,-101.079 -32.1603,-71.7792 -45.2516,-160.507 -11.765,-234.247 10.0287,-22.0831 23.8996,-41.8713 41.3386,-58.7386 79.8296,-77.2064 203.06,-62.863 295.166,-17.3492z"/>
  <line class="fil7" x1="1514.8" y1="1500.89" x2="1514.8" y2= "1500.89" />
  <path class="fil8" d="M1280.76 1355.26l66.1796 -66.1808 215.087 215.087c18.1996,18.1996 18.1996,47.98 0,66.1796l-0.0011811 0c-18.1996,18.1996 -47.98,18.1996 -66.1796,0l-215.086 -215.086z"/>
  <polygon class="fil9" points="1274.87,1361.83 1190.02,1219.1 1210.3,1200.75 1353.5,1283.2 1374.51,1304.2 1295.87,1382.83 "/>
  <path class="fil10" d="M1280.76 1355.26l32.4886 -32.4886 248.168 248.168c-18.2492,17.6008 -47.5725,17.4059 -65.5701,-0.592914l-215.086 -215.086z"/>
  <polygon class="fil11" points="1274.87,1361.83 1190.02,1219.1 1200.28,1209.81 1334.59,1344.12 1295.87,1382.83 "/>
  <path class="fil9" d="M773.762 1456.04l118.819 0 0 59.4095c0,32.6752 -26.7331,59.4095 -59.4095,59.4095l0 0c-32.6752,0 -59.4095,-26.7343 -59.4095,-59.4095l0 -59.4095z"/>
  <path class="fil12" d="M727.335 1236.08c0,0 0,0 0.0555119,0 19.1776,0 39.1878,24.5669 43.8237,50.9233 4.50473,25.6158 8.42717,47.804 11.8311,67.1221 3.00236,17.0398 5.67756,32.211 8.0693,45.7276 2.14961,12.1429 4.08898,23.1189 5.85,33.0957 1.60276,9.08741 3.08386,17.4083 4.43977,25.0772 1.11142,6.29056 -4.73268,11.0705 -12.848,11.015 -0.0236221,0 -0.0248032,0 -0.0248032,0 -8.15079,-0.056693 -16.4575,-4.92166 -18.6508,-11.2087 -2.67047,-7.66064 -5.57717,-16.0004 -8.75079,-25.102 -3.46654,-9.94489 -7.3004,-20.9362 -11.5347,-33.0898 -4.70552,-13.5071 -9.99331,-28.6666 -15.9295,-45.6874 -6.73111,-19.304 -14.4579,-41.4744 -23.3811,-67.0642 -9.16772,-26.2902 -2.09882,-50.8087 17.0504,-50.8087z"/>
  <path class="fil13" d="M797.305 1236.08c-0.0555119,0 -0.0555119,0 -0.0555119,0 -19.2047,0 -30.6709,24.5669 -26.0351,50.9233 4.50473,25.6158 8.42717,47.804 11.8311,67.1221 3.00236,17.0398 5.67756,32.211 8.0693,45.7276 2.14961,12.1429 4.08898,23.1189 5.85,33.0957 1.60276,9.08741 3.08386,17.4083 4.43977,25.0772 1.11142,6.29056 8.62205,11.1626 16.7728,11.2181 0,0 0.0011811,0 0.0236221,0 8.15079,0.0555119 14.8406,-4.70197 14.8146,-11.0232 -0.0318898,-7.65001 -0.0519685,-16.0028 -0.0874016,-25.0996 -0.0377953,-9.93662 -0.0732284,-20.9244 -0.108662,-33.078 -0.0389764,-13.5295 -0.101575,-28.6914 -0.155906,-45.7441 -0.0625985,-19.337 -0.10748,-41.5677 -0.177165,-67.2036 -0.0720473,-26.4047 -15.9756,-51.0154 -35.1815,-51.0154z"/>
  <path class="fil12" d="M867.388 1236.08c0,0 0,0 0.056693,0 19.3453,0 30.9921,24.652 26.4544,51.1536 -4.39607,25.6784 -8.18977,47.8831 -11.4992,67.239 -2.91733,17.0646 -5.50748,32.2441 -7.80945,45.7855 -2.06339,12.1394 -3.94016,23.1154 -5.63977,33.0827 -1.54843,9.08268 -2.96811,17.4425 -4.27205,25.0984 -1.07362,6.30355 -8.59843,11.0658 -16.761,11.0102 -0.0236221,0 -0.0236221,0 -0.0236221,0 -8.17442,-0.056693 -14.8524,-4.90748 -14.8784,-11.2287 -0.0318898,-7.65001 -0.0519685,-16.0028 -0.0874016,-25.0996 -0.0377953,-9.93662 -0.0732284,-20.9244 -0.108662,-33.078 -0.0389764,-13.5295 -0.101575,-28.6914 -0.155906,-45.7441 -0.0625985,-19.337 -0.10748,-41.5677 -0.177165,-67.2036 -0.0720473,-26.4047 15.6118,-51.0154 34.9016,-51.0154z"/>
  <path class="fil13" d="M937.92 1236.08c-0.056693,0 -0.056693,0 -0.056693,0 -19.3736,0 -39.4264,24.652 -43.9642,51.1536 -4.39607,25.6784 -8.18977,47.8831 -11.4992,67.239 -2.91733,17.0646 -5.50748,32.2441 -7.80945,45.7855 -2.06339,12.1394 -3.94016,23.1154 -5.63977,33.0827 -1.54843,9.08268 -2.96811,17.4425 -4.27205,25.0984 -1.07362,6.30355 4.79292,11.1579 12.9791,11.2158 0,0 0,0 0.0248032,0 8.16142,0.0555119 16.5744,-4.71024 18.7477,-10.9973 2.64921,-7.663 5.52756,-16.0087 8.67402,-25.1209 3.43819,-9.95552 7.23662,-20.9162 11.4413,-33.0886 4.67126,-13.5295 9.91654,-28.6973 15.8197,-45.7772 6.69567,-19.3725 14.4047,-41.6398 23.2902,-67.3465 9.17363,-26.5429 1.69488,-51.2445 -17.7354,-51.2445z"/>
  <rect class="fil9" x="770.632" y="1460.03" width="125.08" height="19.6205"/>
 </g>
</svg>
