<?xml version="1.0" encoding="UTF-8"?>
<!DOCTYPE svg PUBLIC "-//W3C//DTD SVG 1.1//EN" "http://www.w3.org/Graphics/SVG/1.1/DTD/svg11.dtd">
<!-- Creator: CorelDRAW -->
<svg xmlns="http://www.w3.org/2000/svg" xml:space="preserve" width="2048px" height="2048px" style="shape-rendering:geometricPrecision; text-rendering:geometricPrecision; image-rendering:optimizeQuality; fill-rule:evenodd; clip-rule:evenodd"
viewBox="0 0 2048 2048"
 xmlns:xlink="http://www.w3.org/1999/xlink">
 <defs>
  <style type="text/css">
   <![CDATA[
    .fil2 {fill:none}
    .fil6 {fill:#0F90D6}
    .fil4 {fill:#10A1E8}
    .fil1 {fill:#C0CA33}
    .fil0 {fill:#DCE775}
    .fil5 {fill:#039BE5;fill-rule:nonzero}
    .fil3 {fill:#29B6F6;fill-rule:nonzero}
    .fil8 {fill:#40C4FF;fill-rule:nonzero}
    .fil7 {fill:#FF6D00;fill-rule:nonzero}
   ]]>
  </style>
   <clipPath id="id0">
    <path d="M1024 0c565.539,0 1024,458.461 1024,1024 0,565.539 -458.461,1024 -1024,1024 -565.539,0 -1024,-458.461 -1024,-1024 0,-565.539 458.461,-1024 1024,-1024z"/>
   </clipPath>
 </defs>
 <g id="Layer_x0020_1">
  <metadata id="CorelCorpID_0Corel-Layer"/>
  <path class="fil0" d="M1024 0c565.539,0 1024,458.461 1024,1024 0,565.539 -458.461,1024 -1024,1024 -565.539,0 -1024,-458.461 -1024,-1024 0,-565.539 458.461,-1024 1024,-1024z"/>
  <g style="clip-path:url(#id0)">
   <g id="_478213336">
    <g>
     <path id="_3926447041" class="fil1" d="M1801.89 2629.29l0 0zm-1135.88 -1135.88l0 0z"/>
     <polygon id="_392618112" class="fil1" points="1048,522.004 2183.88,1657.89 2189.84,1664.48 2195.79,1671.34 2201.76,1678.45 2207.72,1685.82 2213.69,1693.43 2219.65,1701.27 2225.6,1709.33 2231.55,1717.62 2237.49,1726.11 2243.42,1734.8 2249.33,1743.69 2255.23,1752.76 2261.1,1762.01 2266.96,1771.42 2272.79,1781 2278.6,1790.73 2284.38,1800.61 2290.12,1810.62 2295.84,1820.76 2301.52,1831.02 2307.16,1841.39 2312.77,1851.87 1176.88,715.988 1171.28,705.511 1165.64,695.138 1159.96,684.878 1154.24,674.738 1148.5,664.726 1142.72,654.851 1136.91,645.12 1131.08,635.542 1125.22,626.125 1119.35,616.877 1113.45,607.805 1107.54,598.919 1101.61,590.226 1095.67,581.734 1089.72,573.45 1083.77,565.385 1077.81,557.543 1071.84,549.937 1065.88,542.57 1059.91,535.454 1053.95,528.597 "/>
     <polygon id="_392636208" class="fil1" points="915.141,646.824 2051.02,1782.71 2051.82,1783.54 2052.58,1784.41 2053.32,1785.3 2054.03,1786.22 2054.71,1787.16 918.825,651.273 918.147,650.333 917.439,649.418 916.701,648.527 915.936,647.662 "/>
     <polygon id="_392630640" class="fil1" points="925.107,670.283 2060.99,1806.17 2062.73,2377.76 926.853,1241.87 "/>
     <polygon id="_392631624" class="fil1" points="918.825,651.273 2054.71,1787.16 2055.32,1788.07 2055.9,1788.99 2056.46,1789.95 2056.98,1790.92 2057.48,1791.9 2057.95,1792.91 2058.39,1793.94 2058.79,1794.98 2059.16,1796.03 2059.51,1797.11 2059.82,1798.19 2060.09,1799.29 2060.33,1800.41 2060.54,1801.53 2060.72,1802.67 2060.86,1803.82 924.974,667.936 924.836,666.788 924.662,665.651 924.453,664.525 924.211,663.412 923.935,662.312 923.625,661.224 923.284,660.152 922.909,659.095 922.504,658.054 922.067,657.029 921.601,656.023 921.103,655.033 920.577,654.063 920.022,653.112 919.437,652.183 "/>
     <polygon id="_392636592" class="fil1" points="924.974,667.936 2060.86,1803.82 2060.99,1806.17 925.107,670.283 "/>
     <polygon id="_392643648" class="fil1" points="1176.88,715.988 2312.77,1851.87 2320,1865.78 2327.15,1880.04 2334.21,1894.63 2341.18,1909.51 2348.06,1924.66 2354.83,1940.03 2361.5,1955.6 2368.05,1971.34 2374.49,1987.21 2380.81,2003.17 2387.01,2019.21 2393.08,2035.27 2399.02,2051.35 2404.81,2067.39 2410.47,2083.37 2415.98,2099.25 2421.34,2115.01 2426.54,2130.61 2431.58,2146.01 2436.46,2161.2 2441.17,2176.12 2445.7,2190.76 2450.06,2205.07 2454.23,2219.04 2458.22,2232.61 2462.01,2245.77 2465.61,2258.48 2469.01,2270.71 2472.2,2282.42 2475.18,2293.58 2477.95,2304.16 2480.5,2314.13 1344.61,1178.25 1342.07,1168.28 1339.3,1157.7 1336.32,1146.53 1333.13,1134.82 1329.73,1122.6 1326.13,1109.89 1322.34,1096.73 1318.35,1083.15 1314.18,1069.19 1309.82,1054.88 1305.29,1040.24 1300.58,1025.31 1295.7,1010.13 1290.66,994.724 1285.46,979.126 1280.1,963.368 1274.59,947.485 1268.93,931.505 1263.13,915.464 1257.2,899.392 1251.13,883.325 1244.93,867.29 1238.61,851.324 1232.17,835.457 1225.62,819.722 1218.95,804.151 1212.18,788.777 1205.3,773.632 1198.33,758.748 1191.27,744.158 1184.12,729.893 "/>
     <polygon id="_392626512" class="fil1" points="1344.61,1178.25 2480.5,2314.13 2487.4,2341.48 1351.52,1205.6 "/>
     <polygon id="_392631528" class="fil1" points="1471.15,1346.03 2607.04,2481.92 2602,2484.7 2596.9,2487.46 2591.72,2490.21 2586.49,2492.95 2581.2,2495.67 2575.85,2498.37 2570.45,2501.06 2564.99,2503.73 2559.5,2506.38 2553.96,2509.02 2548.38,2511.64 2542.77,2514.24 2537.12,2516.82 2531.45,2519.39 2525.75,2521.93 2520.03,2524.46 2514.29,2526.96 2508.54,2529.45 2502.77,2531.92 2497,2534.36 2491.22,2536.78 2485.44,2539.18 2479.66,2541.56 2473.89,2543.92 2468.13,2546.25 2462.38,2548.56 2456.65,2550.85 2450.93,2553.11 2445.24,2555.35 2439.57,2557.57 2433.93,2559.76 2428.33,2561.92 1292.45,1426.04 1298.05,1423.87 1303.69,1421.68 1309.36,1419.47 1315.05,1417.23 1320.76,1414.97 1326.5,1412.68 1332.25,1410.37 1338.01,1408.04 1343.78,1405.68 1349.56,1403.3 1355.34,1400.9 1361.12,1398.48 1366.89,1396.03 1372.66,1393.57 1378.41,1391.08 1384.15,1388.58 1389.87,1386.05 1395.57,1383.51 1401.24,1380.94 1406.89,1378.36 1412.5,1375.76 1418.08,1373.14 1423.62,1370.5 1429.11,1367.85 1434.56,1365.17 1439.97,1362.49 1445.31,1359.78 1450.61,1357.06 1455.84,1354.33 1461.01,1351.58 1466.12,1348.81 "/>
     <polygon id="_392631456" class="fil1" points="1440.89,1474.06 2576.78,2609.94 2578.33,2611.65 2579.71,2613.5 2580.91,2615.48 2581.93,2617.58 2582.73,2619.79 2583.33,2622.09 2583.69,2624.48 2583.81,2626.94 1447.93,1491.06 1447.81,1488.6 1447.45,1486.21 1446.85,1483.91 1446.04,1481.7 1445.03,1479.6 1443.83,1477.62 1442.44,1475.77 "/>
     <polygon id="_392614920" class="fil1" points="1447.93,1491.06 2583.81,2626.94 2583.69,2629.39 2583.33,2631.78 2582.73,2634.08 2581.93,2636.29 2580.91,2638.39 2579.71,2640.37 2578.33,2642.22 2576.78,2643.93 2575.07,2645.48 2573.22,2646.87 2571.24,2648.07 2569.14,2649.08 2566.93,2649.89 2564.62,2650.48 2562.24,2650.85 2559.78,2650.97 1423.9,1515.09 1426.36,1514.96 1428.74,1514.6 1431.05,1514.01 1433.25,1513.2 1435.35,1512.19 1437.34,1510.98 1439.19,1509.6 1440.89,1508.05 1442.44,1506.34 1443.83,1504.49 1445.03,1502.51 1446.04,1500.41 1446.85,1498.2 1447.45,1495.9 1447.81,1493.51 "/>
     <polygon id="_392619984" class="fil1" points="1423.9,1515.09 2559.78,2650.97 2557.91,2650.96 2556.07,2650.94 2554.26,2650.91 2552.48,2650.86 2550.72,2650.79 2548.99,2650.72 2547.28,2650.63 2545.6,2650.52 2543.94,2650.41 2542.3,2650.28 2540.69,2650.13 2539.1,2649.98 2537.54,2649.81 2535.99,2649.63 2534.47,2649.44 2532.96,2649.23 2531.48,2649.02 2530.01,2648.79 2528.57,2648.55 2527.14,2648.3 2525.73,2648.04 2524.34,2647.76 2522.96,2647.48 2521.6,2647.18 2520.25,2646.88 2518.92,2646.56 2517.6,2646.23 2516.3,2645.9 2515.01,2645.55 2513.73,2645.19 2512.46,2644.82 2511.21,2644.45 1375.33,1508.57 1376.58,1508.94 1377.85,1509.31 1379.13,1509.67 1380.42,1510.01 1381.72,1510.35 1383.04,1510.68 1384.37,1510.99 1385.72,1511.3 1387.08,1511.59 1388.45,1511.88 1389.85,1512.15 1391.26,1512.42 1392.69,1512.67 1394.13,1512.91 1395.6,1513.14 1397.08,1513.35 1398.59,1513.56 1400.11,1513.75 1401.66,1513.93 1403.22,1514.1 1404.81,1514.25 1406.42,1514.39 1408.06,1514.52 1409.71,1514.64 1411.4,1514.74 1413.1,1514.83 1414.84,1514.91 1416.6,1514.98 1418.38,1515.02 1420.19,1515.06 1422.03,1515.08 "/>
     <polygon id="_392623176" class="fil1" points="1375.33,1508.57 2511.21,2644.45 2508.75,2643.67 2506.35,2642.87 2504.03,2642.05 2501.76,2641.2 2499.54,2640.33 2497.37,2639.43 2495.23,2638.52 2493.13,2637.58 2491.06,2636.62 2489.01,2635.64 2486.97,2634.64 2484.94,2633.63 2482.91,2632.59 2480.88,2631.54 2478.84,2630.47 2476.78,2629.39 1340.9,1493.5 1342.96,1494.59 1345,1495.66 1347.03,1496.71 1349.06,1497.75 1351.09,1498.76 1353.13,1499.76 1355.18,1500.74 1357.25,1501.7 1359.35,1502.64 1361.48,1503.55 1363.66,1504.45 1365.88,1505.32 1368.15,1506.17 1370.47,1506.99 1372.86,1507.79 "/>
     <polygon id="_392616624" class="fil1" points="1340.9,1493.5 2476.78,2629.39 2474.06,2627.97 2471.33,2626.6 2468.62,2625.28 2465.9,2624 2463.19,2622.76 2460.47,2621.57 2457.76,2620.43 2455.06,2619.33 2452.35,2618.27 2449.65,2617.26 2446.94,2616.3 2444.24,2615.38 2441.55,2614.5 2438.85,2613.67 2436.16,2612.89 2433.46,2612.14 2430.77,2611.45 2428.08,2610.8 2425.4,2610.19 2422.71,2609.63 2420.03,2609.11 2417.35,2608.64 2414.67,2608.21 2412,2607.83 2409.32,2607.5 2406.65,2607.2 2403.98,2606.96 2401.31,2606.75 2398.64,2606.6 2395.97,2606.48 2393.31,2606.42 2390.65,2606.39 1254.76,1470.51 1257.43,1470.53 1260.09,1470.6 1262.76,1470.71 1265.42,1470.87 1268.1,1471.07 1270.77,1471.32 1273.44,1471.61 1276.11,1471.95 1278.79,1472.33 1281.47,1472.76 1284.15,1473.23 1286.83,1473.75 1289.52,1474.31 1292.2,1474.91 1294.89,1475.57 1297.58,1476.26 1300.27,1477 1302.97,1477.79 1305.66,1478.62 1308.36,1479.49 1311.06,1480.41 1313.76,1481.38 1316.47,1482.39 1319.17,1483.45 1321.88,1484.55 1324.59,1485.69 1327.3,1486.88 1330.02,1488.12 1332.74,1489.4 1335.45,1490.72 1338.17,1492.09 "/>
     <polygon id="_392636280" class="fil1" points="1254.76,1470.51 2390.65,2606.39 2387.98,2606.42 2385.32,2606.48 2382.65,2606.6 2379.98,2606.75 2377.31,2606.96 2374.64,2607.2 2371.97,2607.49 2369.29,2607.83 2366.62,2608.21 2363.94,2608.64 2361.26,2609.11 2358.57,2609.63 2355.89,2610.19 2353.2,2610.79 2350.52,2611.45 2347.83,2612.14 2345.13,2612.88 2342.44,2613.67 2339.74,2614.5 2337.05,2615.37 2334.35,2616.3 2331.64,2617.26 2328.94,2618.27 2326.23,2619.33 2323.53,2620.43 2320.81,2621.57 2318.1,2622.76 2315.39,2624 2312.67,2625.28 2309.95,2626.6 2307.23,2627.97 2304.51,2629.39 1168.63,1493.5 1171.35,1492.09 1174.07,1490.72 1176.79,1489.39 1179.51,1488.11 1182.22,1486.88 1184.93,1485.69 1187.64,1484.54 1190.35,1483.44 1193.06,1482.39 1195.76,1481.38 1198.46,1480.41 1201.16,1479.49 1203.86,1478.62 1206.56,1477.79 1209.25,1477 1211.94,1476.26 1214.63,1475.56 1217.32,1474.91 1220.01,1474.31 1222.69,1473.75 1225.38,1473.23 1228.06,1472.76 1230.74,1472.33 1233.41,1471.95 1236.09,1471.61 1238.76,1471.32 1241.43,1471.07 1244.1,1470.87 1246.77,1470.71 1249.44,1470.6 1252.1,1470.53 "/>
     <polygon id="_392619456" class="fil1" points="1168.63,1493.5 2304.51,2629.39 2301.88,2630.76 2299.25,2632.09 2296.63,2633.37 2294.01,2634.61 2291.4,2635.81 2288.8,2636.96 2286.19,2638.07 2283.6,2639.14 2281,2640.16 2278.42,2641.14 2275.83,2642.07 2273.25,2642.97 2270.67,2643.81 2268.1,2644.62 2265.52,2645.38 2262.95,2646.1 2260.38,2646.77 2257.82,2647.41 2255.26,2647.99 2252.69,2648.54 2250.13,2649.04 2247.57,2649.49 2245.01,2649.91 2242.45,2650.28 2239.89,2650.6 2237.33,2650.89 2234.77,2651.13 2232.21,2651.32 2229.65,2651.48 2227.09,2651.58 2224.53,2651.65 2221.96,2651.67 1086.08,1515.79 1088.65,1515.77 1091.21,1515.7 1093.77,1515.59 1096.33,1515.44 1098.89,1515.24 1101.45,1515.01 1104.01,1514.72 1106.57,1514.4 1109.13,1514.03 1111.69,1513.61 1114.25,1513.16 1116.81,1512.66 1119.37,1512.11 1121.94,1511.52 1124.5,1510.89 1127.07,1510.22 1129.64,1509.5 1132.22,1508.74 1134.79,1507.93 1137.37,1507.08 1139.95,1506.19 1142.53,1505.26 1145.12,1504.28 1147.72,1503.25 1150.31,1502.19 1152.91,1501.08 1155.52,1499.92 1158.13,1498.73 1160.75,1497.49 1163.37,1496.2 1166,1494.88 "/>
     <polygon id="_392636928" class="fil1" points="1086.08,1515.79 2221.96,2651.67 2219.4,2651.65 2216.84,2651.58 2214.28,2651.48 2211.72,2651.32 2209.16,2651.13 2206.6,2650.89 2204.04,2650.6 2201.48,2650.28 2198.92,2649.91 2196.36,2649.49 2193.8,2649.04 2191.24,2648.54 2188.67,2647.99 2186.11,2647.41 2183.54,2646.77 2180.98,2646.1 2178.41,2645.38 2175.83,2644.62 2173.26,2643.81 2170.68,2642.97 2168.1,2642.07 2165.51,2641.14 2162.92,2640.16 2160.33,2639.14 2157.73,2638.07 2155.13,2636.96 2152.53,2635.81 2149.92,2634.61 2147.3,2633.37 2144.68,2632.09 2142.05,2630.76 2139.42,2629.39 1003.54,1493.5 1006.17,1494.88 1008.8,1496.2 1011.42,1497.49 1014.03,1498.73 1016.65,1499.92 1019.25,1501.08 1021.85,1502.19 1024.45,1503.25 1027.04,1504.28 1029.63,1505.26 1032.22,1506.19 1034.8,1507.08 1037.38,1507.93 1039.95,1508.74 1042.52,1509.5 1045.09,1510.22 1047.66,1510.89 1050.23,1511.52 1052.79,1512.11 1055.36,1512.66 1057.92,1513.16 1060.48,1513.61 1063.04,1514.03 1065.6,1514.4 1068.16,1514.72 1070.71,1515.01 1073.27,1515.24 1075.83,1515.44 1078.39,1515.59 1080.96,1515.7 1083.52,1515.77 "/>
     <polygon id="_392634000" class="fil1" points="1003.54,1493.5 2139.42,2629.39 2136.69,2627.97 2133.97,2626.6 2131.26,2625.28 2128.54,2624 2125.83,2622.77 2123.11,2621.58 2120.4,2620.43 2117.7,2619.33 2114.99,2618.28 2112.29,2617.27 2109.58,2616.3 2106.88,2615.38 2104.19,2614.5 2101.49,2613.67 2098.8,2612.89 2096.1,2612.15 2093.41,2611.45 2090.73,2610.8 2088.04,2610.19 2085.36,2609.63 2082.67,2609.11 2079.99,2608.64 2077.31,2608.21 2074.64,2607.83 2071.96,2607.5 2069.29,2607.2 2066.62,2606.96 2063.95,2606.76 2061.28,2606.6 2058.61,2606.48 2055.95,2606.42 2053.29,2606.39 917.404,1470.51 920.066,1470.53 922.731,1470.6 925.398,1470.71 928.065,1470.87 930.735,1471.07 933.407,1471.32 936.08,1471.61 938.755,1471.95 941.433,1472.33 944.111,1472.76 946.791,1473.23 949.475,1473.75 952.158,1474.31 954.845,1474.92 957.533,1475.57 960.223,1476.26 962.916,1477.01 965.61,1477.79 968.305,1478.62 971.003,1479.5 973.703,1480.42 976.405,1481.38 979.109,1482.39 981.815,1483.45 984.523,1484.55 987.232,1485.69 989.944,1486.88 992.658,1488.12 995.375,1489.4 998.092,1490.72 1000.81,1492.09 "/>
     <polygon id="_392624064" class="fil1" points="917.404,1470.51 2053.29,2606.39 2050.62,2606.42 2047.96,2606.48 2045.29,2606.6 2042.62,2606.75 2039.95,2606.96 2037.28,2607.2 2034.61,2607.49 2031.93,2607.83 2029.26,2608.21 2026.58,2608.64 2023.9,2609.11 2021.22,2609.63 2018.53,2610.19 2015.85,2610.79 2013.16,2611.45 2010.47,2612.14 2007.78,2612.88 2005.08,2613.67 2002.39,2614.5 1999.69,2615.38 1996.99,2616.3 1994.29,2617.26 1991.58,2618.28 1988.88,2619.33 1986.17,2620.43 1983.46,2621.58 1980.75,2622.77 1978.04,2624.01 1975.32,2625.29 1972.6,2626.61 1969.88,2627.98 1967.16,2629.4 831.281,1493.52 834.003,1492.1 836.722,1490.73 839.441,1489.4 842.156,1488.12 844.869,1486.89 847.581,1485.7 850.29,1484.55 852.999,1483.45 855.703,1482.39 858.407,1481.38 861.109,1480.42 863.808,1479.49 866.506,1478.62 869.202,1477.79 871.895,1477 874.587,1476.26 877.277,1475.56 879.966,1474.91 882.651,1474.31 885.335,1473.75 888.018,1473.23 890.698,1472.76 893.377,1472.33 896.053,1471.95 898.729,1471.61 901.403,1471.32 904.073,1471.07 906.744,1470.87 909.411,1470.71 912.077,1470.6 914.742,1470.53 "/>
     <polygon id="_392641800" class="fil1" points="831.281,1493.52 1967.16,2629.4 1964.54,2630.76 1961.92,2632.08 1959.31,2633.36 1956.7,2634.6 1954.1,2635.79 1951.5,2636.93 1948.91,2638.04 1946.31,2639.1 1943.73,2640.12 1941.14,2641.09 1938.56,2642.02 1935.98,2642.91 1933.41,2643.76 1930.83,2644.56 1928.26,2645.32 1925.69,2646.03 1923.12,2646.7 1920.56,2647.33 1917.99,2647.92 1915.42,2648.46 1912.86,2648.96 1910.3,2649.41 1907.73,2649.82 1905.17,2650.19 1902.6,2650.52 1900.04,2650.8 1897.47,2651.04 1894.9,2651.23 1892.33,2651.38 1889.76,2651.49 1887.19,2651.56 1884.61,2651.58 748.732,1515.7 751.307,1515.67 753.881,1515.61 756.452,1515.5 759.021,1515.35 761.588,1515.15 764.155,1514.92 766.721,1514.63 769.286,1514.31 771.851,1513.94 774.415,1513.53 776.979,1513.07 779.544,1512.58 782.109,1512.03 784.675,1511.45 787.242,1510.82 789.811,1510.15 792.381,1509.43 794.952,1508.68 797.526,1507.87 800.102,1507.03 802.68,1506.14 805.261,1505.21 807.845,1504.24 810.433,1503.22 813.024,1502.16 815.619,1501.05 818.218,1499.9 820.821,1498.71 823.429,1497.48 826.04,1496.2 828.657,1494.88 "/>
     <polygon id="_392641608" class="fil1" points="748.732,1515.7 1884.61,2651.58 1884.61,2651.67 748.732,1515.79 "/>
     <polygon id="_392642016" class="fil1" points="748.732,1515.79 1884.61,2651.67 1882.05,2651.65 1879.49,2651.59 1876.92,2651.48 1874.36,2651.32 1871.8,2651.13 1869.24,2650.89 1866.69,2650.61 1864.13,2650.28 1861.57,2649.91 1859.01,2649.5 1856.45,2649.04 1853.89,2648.54 1851.32,2648 1848.76,2647.41 1846.19,2646.78 1843.62,2646.1 1841.06,2645.38 1838.48,2644.62 1835.91,2643.82 1833.33,2642.97 1830.75,2642.08 1828.16,2641.14 1825.57,2640.16 1822.98,2639.14 1820.39,2638.07 1817.79,2636.96 1815.18,2635.81 1812.57,2634.61 1809.95,2633.37 1807.33,2632.09 1804.71,2630.76 1802.07,2629.39 666.192,1493.5 668.825,1494.88 671.451,1496.2 674.072,1497.49 676.688,1498.73 679.299,1499.93 681.904,1501.08 684.505,1502.19 687.101,1503.26 689.693,1504.28 692.282,1505.26 694.867,1506.19 697.449,1507.09 700.026,1507.93 702.602,1508.74 705.174,1509.5 707.743,1510.22 710.312,1510.89 712.877,1511.53 715.441,1512.11 718.004,1512.66 720.565,1513.16 723.126,1513.61 725.685,1514.03 728.245,1514.4 730.804,1514.72 733.364,1515.01 735.923,1515.25 738.482,1515.44 741.043,1515.59 743.605,1515.7 746.168,1515.77 "/>
     <polygon id="_392615760" class="fil1" points="666.192,1493.5 1802.07,2629.39 1802.05,2629.37 666.171,1493.49 "/>
     <polygon id="_392625552" class="fil1" points="666.171,1493.49 1802.05,2629.37 1801.88,2629.29 666.003,1493.41 "/>
     <polygon id="_392638368" class="fil1" points="666.003,1493.41 1801.88,2629.29 1801.86,2629.28 665.982,1493.4 "/>
     <polygon id="_392641296" class="fil1" points="665.982,1493.4 1801.86,2629.28 1801.63,2629.15 665.744,1493.27 "/>
     <polygon id="_392643888" class="fil1" points="582.904,1422.76 1718.79,2558.65 1718.18,2558.35 1717.57,2558.06 1716.97,2557.77 1716.36,2557.48 1715.76,2557.19 1715.16,2556.89 1714.56,2556.6 1713.96,2556.31 578.074,1420.42 578.676,1420.72 579.277,1421.01 579.879,1421.3 580.483,1421.6 581.087,1421.89 581.692,1422.18 582.298,1422.47 "/>
     <polygon id="_392626920" class="fil1" points="580.059,1470.81 1715.94,2606.7 1713.48,2606.57 1711.1,2606.21 1708.79,2605.62 1706.59,2604.81 1704.48,2603.8 1702.5,2602.59 1700.65,2601.21 564.772,1465.33 566.622,1466.71 568.603,1467.91 570.704,1468.93 572.912,1469.73 575.215,1470.33 577.602,1470.69 "/>
     <polygon id="_392632296" class="fil1" points="578.074,1420.42 1713.96,2556.31 1708.66,2553.68 1703.43,2551.02 1698.25,2548.31 1693.14,2545.56 1688.11,2542.78 1683.15,2539.96 1678.28,2537.11 1673.5,2534.23 1668.81,2531.31 1664.22,2528.36 1659.75,2525.39 1655.38,2522.38 1651.14,2519.35 1647.02,2516.3 1643.03,2513.22 1639.18,2510.12 1635.47,2507 499.587,1371.12 503.296,1374.24 507.148,1377.34 511.138,1380.42 515.257,1383.47 519.502,1386.5 523.865,1389.5 528.343,1392.48 532.928,1395.43 537.615,1398.34 542.397,1401.23 547.269,1404.08 552.226,1406.9 557.262,1409.68 562.371,1412.43 567.546,1415.13 572.782,1417.8 "/>
     <polygon id="_392642472" class="fil1" points="665.744,1493.27 1801.63,2629.15 1799.74,2628.16 1797.83,2627.16 1795.9,2626.15 1793.95,2625.15 1791.97,2624.15 1789.95,2623.15 1787.9,2622.16 1785.81,2621.18 1783.68,2620.21 1781.5,2619.26 1779.28,2618.32 1777.01,2617.4 1774.68,2616.5 1772.29,2615.63 1769.84,2614.78 1767.33,2613.96 1764.76,2613.17 1762.11,2612.42 1759.39,2611.7 1756.59,2611.01 1753.72,2610.37 1750.76,2609.78 1747.72,2609.22 1744.58,2608.72 1741.36,2608.26 1738.04,2607.86 1734.62,2607.52 1731.1,2607.23 1727.47,2607 1723.74,2606.83 1719.9,2606.73 1715.94,2606.7 580.059,1470.81 584.017,1470.85 587.86,1470.95 591.592,1471.12 595.217,1471.35 598.737,1471.63 602.156,1471.98 605.476,1472.38 608.7,1472.84 611.834,1473.34 614.878,1473.89 617.836,1474.49 620.712,1475.13 623.508,1475.81 626.228,1476.53 628.875,1477.29 631.452,1478.08 633.963,1478.9 636.409,1479.75 638.795,1480.62 641.124,1481.52 643.399,1482.44 645.622,1483.38 647.797,1484.33 649.928,1485.3 652.017,1486.28 654.069,1487.27 656.084,1488.27 658.068,1489.27 660.023,1490.27 661.952,1491.27 663.858,1492.27 "/>
     <polygon id="_392627544" class="fil1" points="1546.14,1188.98 2682.02,2324.86 2682.02,2324.93 1546.14,1189.04 "/>
     <polygon id="_392622648" class="fil1" points="1574.29,1199.92 2710.17,2335.8 2711.41,2337.2 2712.57,2338.66 2713.65,2340.18 2714.65,2341.76 2715.57,2343.39 2716.4,2345.06 2717.15,2346.78 2717.81,2348.53 1581.93,1212.65 1581.27,1210.89 1580.52,1209.18 1579.68,1207.5 1578.77,1205.88 1577.77,1204.3 1576.69,1202.78 1575.53,1201.32 "/>
     <polygon id="_392622768" class="fil1" points="1581.93,1212.65 2717.81,2348.53 2718.1,2349.4 2718.37,2350.28 2718.62,2351.16 2718.85,2352.04 2719.05,2352.94 2719.23,2353.83 2719.39,2354.73 2719.53,2355.64 2719.65,2356.55 2719.74,2357.46 2719.81,2358.37 2719.86,2359.29 2719.88,2360.2 2719.88,2361.12 2719.85,2362.04 2719.81,2362.96 1583.93,1227.07 1583.97,1226.16 1584,1225.24 1584,1224.32 1583.97,1223.4 1583.93,1222.49 1583.86,1221.57 1583.77,1220.66 1583.65,1219.76 1583.51,1218.85 1583.35,1217.95 1583.17,1217.05 1582.97,1216.16 1582.74,1215.27 1582.49,1214.39 1582.22,1213.52 "/>
     <polygon id="_392624832" class="fil1" points="1583.93,1227.07 2719.81,2362.96 2719.42,2367.03 2718.77,2371.08 2717.89,2375.12 2716.75,2379.13 2715.39,2383.12 2713.79,2387.09 2711.96,2391.04 2709.91,2394.96 2707.65,2398.86 2705.17,2402.74 2702.49,2406.6 2699.6,2410.43 2696.52,2414.24 2693.24,2418.03 2689.78,2421.79 2686.14,2425.53 2682.31,2429.25 2678.32,2432.94 2674.15,2436.6 2669.83,2440.24 2665.35,2443.86 2660.71,2447.45 2655.93,2451.01 2651,2454.55 2645.93,2458.07 2640.74,2461.56 2635.41,2465.02 2629.96,2468.45 2624.4,2471.86 2618.72,2475.24 2612.93,2478.59 2607.04,2481.92 1471.15,1346.03 1477.05,1342.71 1482.83,1339.36 1488.51,1335.98 1494.08,1332.57 1499.53,1329.13 1504.86,1325.67 1510.05,1322.18 1515.12,1318.67 1520.05,1315.13 1524.83,1311.57 1529.46,1307.98 1533.95,1304.36 1538.27,1300.72 1542.44,1297.05 1546.43,1293.36 1550.25,1289.65 1553.9,1285.91 1557.36,1282.15 1560.64,1278.36 1563.72,1274.55 1566.61,1270.72 1569.29,1266.86 1571.77,1262.98 1574.03,1259.08 1576.08,1255.15 1577.91,1251.21 1579.51,1247.24 1580.87,1243.25 1582,1239.24 1582.89,1235.2 1583.53,1231.15 "/>
     <path id="_392641488" class="fil1" d="M1798.48 2645.04l0 0zm-1135.88 -1135.88l0 0z"/>
     <polygon id="_392620560" class="fil1" points="1440.45,1538.89 2576.33,2674.77 2577.88,2676.48 2579.26,2678.33 2580.47,2680.31 2581.48,2682.41 2582.29,2684.62 2582.88,2686.92 2583.24,2689.31 2583.37,2691.76 1447.49,1555.88 1447.36,1553.42 1447,1551.04 1446.41,1548.73 1445.6,1546.53 1444.59,1544.42 1443.38,1542.44 1442,1540.59 "/>
     <polygon id="_392628432" class="fil1" points="1447.49,1555.88 2583.37,2691.76 2583.24,2694.22 2582.88,2696.61 2582.29,2698.91 2581.48,2701.12 2580.47,2703.22 2579.26,2705.2 2577.88,2707.05 2576.33,2708.76 2574.62,2710.31 2572.77,2711.69 2570.79,2712.9 2568.69,2713.91 2566.48,2714.72 2564.18,2715.31 2561.79,2715.67 2559.33,2715.8 1423.45,1579.91 1425.91,1579.79 1428.3,1579.43 1430.6,1578.83 1432.81,1578.03 1434.91,1577.01 1436.89,1575.81 1438.74,1574.43 1440.45,1572.88 1442,1571.17 1443.38,1569.32 1444.59,1567.34 1445.6,1565.24 1446.41,1563.03 1447,1560.72 1447.36,1558.34 "/>
     <polygon id="_392612832" class="fil1" points="1423.45,1579.91 2559.33,2715.8 2556.82,2715.79 2554.33,2715.75 2551.88,2715.7 2549.46,2715.62 2547.08,2715.52 2544.73,2715.4 2542.41,2715.26 2540.13,2715.1 2537.87,2714.92 2535.65,2714.72 2533.45,2714.51 2531.29,2714.27 2529.15,2714.02 2527.05,2713.75 2524.97,2713.46 2522.92,2713.15 2520.9,2712.83 2518.9,2712.49 2516.94,2712.14 2515,2711.77 2513.08,2711.39 2511.19,2710.99 2509.32,2710.58 2507.48,2710.16 2505.66,2709.72 2503.87,2709.27 2502.1,2708.8 2500.35,2708.33 2498.62,2707.84 2496.92,2707.34 2495.23,2706.83 2493.57,2706.31 1357.69,1570.43 1359.35,1570.95 1361.03,1571.46 1362.74,1571.96 1364.47,1572.44 1366.22,1572.92 1367.99,1573.38 1369.78,1573.83 1371.6,1574.27 1373.44,1574.7 1375.31,1575.11 1377.2,1575.51 1379.11,1575.89 1381.06,1576.26 1383.02,1576.61 1385.02,1576.95 1387.04,1577.27 1389.09,1577.58 1391.17,1577.87 1393.27,1578.14 1395.41,1578.39 1397.57,1578.62 1399.76,1578.84 1401.99,1579.04 1404.24,1579.22 1406.53,1579.38 1408.85,1579.52 1411.2,1579.64 1413.58,1579.74 1416,1579.81 1418.45,1579.87 1420.93,1579.9 "/>
     <polygon id="_392641392" class="fil1" points="1357.69,1570.43 2493.57,2706.31 2491.92,2705.78 2490.31,2705.24 2488.72,2704.7 2487.15,2704.15 2485.62,2703.6 2484.1,2703.04 2482.61,2702.47 2481.14,2701.9 2479.69,2701.32 2478.27,2700.74 2476.86,2700.16 2475.48,2699.57 2474.11,2698.98 2472.77,2698.39 2471.44,2697.79 2470.13,2697.19 2468.83,2696.59 2467.55,2695.98 2466.28,2695.38 2465.03,2694.77 2463.79,2694.16 2462.57,2693.55 2461.36,2692.94 2460.15,2692.33 2458.96,2691.72 2457.78,2691.11 2456.61,2690.5 2455.44,2689.89 2454.29,2689.29 2453.14,2688.68 2451.99,2688.08 2450.86,2687.48 1314.97,1551.59 1316.11,1552.2 1317.26,1552.8 1318.41,1553.4 1319.56,1554.01 1320.73,1554.62 1321.9,1555.23 1323.08,1555.84 1324.27,1556.45 1325.48,1557.06 1326.69,1557.67 1327.91,1558.28 1329.15,1558.89 1330.4,1559.49 1331.67,1560.1 1332.95,1560.7 1334.25,1561.31 1335.56,1561.91 1336.89,1562.5 1338.23,1563.1 1339.6,1563.69 1340.98,1564.28 1342.39,1564.86 1343.81,1565.44 1345.26,1566.02 1346.73,1566.59 1348.22,1567.15 1349.73,1567.71 1351.27,1568.27 1352.84,1568.82 1354.43,1569.36 1356.04,1569.9 "/>
     <polygon id="_392644368" class="fil1" points="1314.97,1551.59 2450.86,2687.48 2448.88,2686.45 2446.91,2685.45 2444.95,2684.49 2442.99,2683.56 2441.05,2682.66 2439.11,2681.79 2437.17,2680.96 2435.25,2680.16 2433.33,2679.39 2431.42,2678.66 2429.51,2677.95 2427.61,2677.28 2425.72,2676.65 2423.83,2676.04 2421.95,2675.47 2420.07,2674.93 2418.2,2674.42 2416.33,2673.95 2414.47,2673.51 2412.61,2673.1 2410.76,2672.72 2408.91,2672.38 2407.07,2672.07 2405.23,2671.79 2403.4,2671.55 2401.56,2671.33 2399.74,2671.15 2397.91,2671.01 2396.09,2670.89 2394.27,2670.81 2392.46,2670.76 2390.64,2670.74 1254.76,1534.86 1256.58,1534.88 1258.39,1534.93 1260.21,1535.01 1262.03,1535.12 1263.86,1535.27 1265.68,1535.45 1267.52,1535.66 1269.35,1535.91 1271.19,1536.19 1273.03,1536.5 1274.88,1536.84 1276.73,1537.22 1278.59,1537.63 1280.45,1538.07 1282.32,1538.54 1284.19,1539.05 1286.07,1539.59 1287.95,1540.16 1289.84,1540.76 1291.73,1541.4 1293.63,1542.07 1295.54,1542.77 1297.45,1543.51 1299.37,1544.28 1301.29,1545.08 1303.22,1545.91 1305.16,1546.78 1307.11,1547.67 1309.07,1548.61 1311.03,1549.57 1313,1550.57 "/>
     <polygon id="_392621784" class="fil1" points="1254.76,1534.86 2390.64,2670.74 2388.83,2670.76 2387.02,2670.81 2385.2,2670.89 2383.37,2671 2381.55,2671.15 2379.72,2671.33 2377.89,2671.54 2376.05,2671.79 2374.21,2672.07 2372.37,2672.38 2370.52,2672.72 2368.67,2673.09 2366.82,2673.5 2364.95,2673.94 2363.09,2674.42 2361.22,2674.92 2359.34,2675.46 2357.46,2676.04 2355.57,2676.64 2353.68,2677.28 2351.78,2677.95 2349.87,2678.65 2347.96,2679.38 2346.04,2680.15 2344.11,2680.95 2342.18,2681.79 2340.24,2682.65 2338.29,2683.55 2336.34,2684.48 2334.38,2685.45 2332.41,2686.45 2330.43,2687.48 1194.55,1551.59 1196.53,1550.56 1198.5,1549.57 1200.46,1548.6 1202.41,1547.67 1204.36,1546.77 1206.3,1545.91 1208.23,1545.07 1210.16,1544.27 1212.08,1543.5 1213.99,1542.77 1215.89,1542.06 1217.79,1541.4 1219.69,1540.76 1221.58,1540.15 1223.46,1539.58 1225.34,1539.04 1227.21,1538.54 1229.07,1538.06 1230.93,1537.62 1232.79,1537.21 1234.64,1536.84 1236.49,1536.49 1238.33,1536.18 1240.17,1535.91 1242.01,1535.66 1243.84,1535.45 1245.67,1535.27 1247.49,1535.12 1249.32,1535.01 1251.13,1534.93 1252.95,1534.88 "/>
     <polygon id="_392618952" class="fil1" points="1194.55,1551.59 2330.43,2687.48 2327.07,2689.23 2323.7,2690.92 2320.33,2692.56 2316.96,2694.14 2313.59,2695.67 2310.21,2697.14 2306.84,2698.56 2303.46,2699.92 2300.08,2701.23 2296.7,2702.48 2293.32,2703.67 2289.94,2704.81 2286.56,2705.9 2283.17,2706.92 2279.78,2707.9 2276.4,2708.81 2273,2709.67 2269.61,2710.48 2266.22,2711.23 2262.82,2711.92 2259.43,2712.56 2256.03,2713.14 2252.63,2713.67 2249.23,2714.14 2245.83,2714.56 2242.42,2714.92 2239.02,2715.23 2235.61,2715.48 2232.2,2715.67 2228.79,2715.81 2225.37,2715.89 2221.96,2715.92 1086.08,1580.04 1089.49,1580.01 1092.91,1579.93 1096.32,1579.79 1099.73,1579.59 1103.14,1579.35 1106.54,1579.04 1109.95,1578.68 1113.35,1578.26 1116.75,1577.79 1120.15,1577.26 1123.55,1576.68 1126.94,1576.04 1130.34,1575.35 1133.73,1574.6 1137.12,1573.79 1140.51,1572.93 1143.9,1572.01 1147.29,1571.04 1150.68,1570.01 1154.06,1568.93 1157.44,1567.79 1160.82,1566.6 1164.2,1565.35 1167.58,1564.04 1170.96,1562.68 1174.33,1561.26 1177.71,1559.79 1181.08,1558.26 1184.45,1556.68 1187.82,1555.04 1191.18,1553.34 "/>
     <polygon id="_392644752" class="fil1" points="1086.08,1580.04 2221.96,2715.92 2218.55,2715.89 2215.13,2715.81 2211.72,2715.67 2208.31,2715.48 2204.9,2715.23 2201.5,2714.92 2198.09,2714.56 2194.69,2714.14 2191.29,2713.67 2187.89,2713.14 2184.49,2712.56 2181.09,2711.92 2177.7,2711.22 2174.3,2710.47 2170.91,2709.67 2167.52,2708.81 2164.13,2707.89 2160.75,2706.92 2157.36,2705.89 2153.98,2704.81 2150.59,2703.67 2147.21,2702.47 2143.83,2701.22 2140.45,2699.92 2137.08,2698.56 2133.7,2697.14 2130.33,2695.67 2126.96,2694.14 2123.59,2692.56 2120.22,2690.92 2116.85,2689.23 2113.48,2687.48 977.6,1551.59 980.967,1553.34 984.335,1555.04 987.705,1556.68 991.076,1558.26 994.448,1559.79 997.821,1561.26 1001.2,1562.68 1004.57,1564.04 1007.95,1565.34 1011.33,1566.59 1014.71,1567.79 1018.1,1568.92 1021.48,1570.01 1024.87,1571.04 1028.25,1572.01 1031.64,1572.92 1035.03,1573.79 1038.42,1574.59 1041.82,1575.34 1045.21,1576.04 1048.61,1576.67 1052.01,1577.26 1055.41,1577.79 1058.81,1578.26 1062.21,1578.68 1065.62,1579.04 1069.02,1579.34 1072.43,1579.59 1075.84,1579.79 1079.25,1579.93 1082.66,1580.01 "/>
     <polygon id="_392642160" class="fil1" points="977.6,1551.59 2113.48,2687.48 2111.5,2686.45 2109.54,2685.45 2107.57,2684.49 2105.62,2683.55 2103.67,2682.66 2101.73,2681.79 2099.8,2680.96 2097.88,2680.15 2095.96,2679.39 2094.05,2678.65 2092.14,2677.95 2090.24,2677.28 2088.35,2676.64 2086.46,2676.04 2084.58,2675.47 2082.7,2674.93 2080.83,2674.42 2078.96,2673.95 2077.1,2673.51 2075.25,2673.1 2073.4,2672.72 2071.55,2672.38 2069.71,2672.07 2067.87,2671.79 2066.03,2671.54 2064.2,2671.33 2062.37,2671.15 2060.55,2671 2058.73,2670.89 2056.91,2670.81 2055.09,2670.76 2053.28,2670.74 917.4,1534.86 919.213,1534.88 921.028,1534.93 922.846,1535.01 924.667,1535.12 926.492,1535.27 928.32,1535.45 930.151,1535.66 931.986,1535.91 933.825,1536.18 935.668,1536.49 937.515,1536.84 939.367,1537.21 941.224,1537.62 943.084,1538.06 944.95,1538.54 946.821,1539.04 948.698,1539.58 950.58,1540.16 952.468,1540.76 954.361,1541.4 956.26,1542.07 958.165,1542.77 960.078,1543.5 961.996,1544.27 963.921,1545.07 965.853,1545.91 967.792,1546.77 969.739,1547.67 971.692,1548.6 973.654,1549.57 975.623,1550.56 "/>
     <polygon id="_392636472" class="fil1" points="917.4,1534.86 2053.28,2670.74 2051.47,2670.76 2049.65,2670.81 2047.83,2670.89 2046.01,2671.01 2044.19,2671.15 2042.36,2671.33 2040.53,2671.55 2038.7,2671.79 2036.86,2672.07 2035.01,2672.38 2033.17,2672.72 2031.31,2673.1 2029.46,2673.51 2027.6,2673.95 2025.73,2674.42 2023.86,2674.93 2021.98,2675.47 2020.1,2676.04 2018.21,2676.64 2016.32,2677.28 2014.42,2677.95 2012.52,2678.65 2010.6,2679.39 2008.69,2680.16 2006.76,2680.96 2004.83,2681.79 2002.89,2682.66 2000.94,2683.56 1998.99,2684.49 1997.03,2685.45 1995.06,2686.45 1993.08,2687.48 857.201,1551.59 859.178,1550.57 861.147,1549.57 863.109,1548.6 865.062,1547.67 867.009,1546.78 868.947,1545.91 870.879,1545.08 872.805,1544.27 874.723,1543.51 876.635,1542.77 878.541,1542.07 880.44,1541.4 882.334,1540.76 884.221,1540.16 886.103,1539.59 887.979,1539.05 889.85,1538.54 891.716,1538.07 893.578,1537.62 895.433,1537.22 897.285,1536.84 899.133,1536.5 900.975,1536.19 902.814,1535.91 904.65,1535.66 906.48,1535.45 908.309,1535.27 910.132,1535.12 911.953,1535.01 913.771,1534.93 915.587,1534.88 "/>
     <polygon id="_392639856" class="fil1" points="857.201,1551.59 1993.08,2687.48 1989.71,2689.23 1986.33,2690.93 1982.95,2692.58 1979.57,2694.17 1976.19,2695.7 1972.81,2697.18 1969.43,2698.6 1966.05,2699.96 1962.66,2701.27 1959.28,2702.53 1955.9,2703.73 1952.51,2704.87 1949.12,2705.96 1945.74,2706.99 1942.35,2707.96 1938.96,2708.88 1935.57,2709.75 1932.18,2710.56 1928.79,2711.31 1925.39,2712 1922,2712.65 1918.61,2713.23 1915.21,2713.76 1911.82,2714.23 1908.42,2714.65 1905.02,2715.01 1901.62,2715.32 1898.22,2715.57 1894.82,2715.77 1891.42,2715.91 1888.02,2715.99 1884.61,2716.02 748.733,1580.14 752.137,1580.11 755.54,1580.02 758.942,1579.89 762.342,1579.69 765.741,1579.44 769.14,1579.13 772.538,1578.77 775.935,1578.35 779.331,1577.88 782.727,1577.35 786.12,1576.76 789.513,1576.12 792.907,1575.43 796.297,1574.67 799.688,1573.86 803.078,1573 806.467,1572.08 809.854,1571.1 813.242,1570.07 816.628,1568.99 820.014,1567.84 823.398,1566.64 826.782,1565.39 830.166,1564.08 833.547,1562.72 836.929,1561.29 840.309,1559.82 843.689,1558.28 847.068,1556.7 850.446,1555.05 853.824,1553.35 "/>
     <polygon id="_392633520" class="fil1" points="748.733,1580.14 1884.61,2716.02 1881.21,2715.99 1877.81,2715.91 1874.41,2715.77 1871.01,2715.57 1867.61,2715.32 1864.21,2715.02 1860.81,2714.65 1857.41,2714.23 1854.02,2713.76 1850.62,2713.23 1847.23,2712.65 1843.84,2712 1840.45,2711.31 1837.05,2710.56 1833.66,2709.75 1830.28,2708.88 1826.89,2707.96 1823.5,2706.99 1820.11,2705.96 1816.73,2704.87 1813.34,2703.73 1809.96,2702.53 1806.57,2701.28 1803.19,2699.97 1799.81,2698.6 1796.43,2697.18 1793.05,2695.7 1789.67,2694.17 1786.29,2692.58 1782.91,2690.94 1779.53,2689.24 1776.16,2687.48 640.276,1551.6 643.653,1553.35 647.03,1555.05 650.408,1556.7 653.787,1558.29 657.166,1559.82 660.546,1561.3 663.928,1562.72 667.309,1564.08 670.692,1565.39 674.076,1566.65 677.46,1567.85 680.845,1568.99 684.231,1570.07 687.618,1571.11 691.006,1572.08 694.394,1573 697.783,1573.86 701.174,1574.67 704.565,1575.43 707.957,1576.12 711.35,1576.76 714.743,1577.35 718.138,1577.88 721.534,1578.35 724.93,1578.77 728.329,1579.13 731.727,1579.44 735.126,1579.69 738.526,1579.89 741.928,1580.02 745.33,1580.11 "/>
     <polygon id="_392644152" class="fil1" points="640.276,1551.6 1776.16,2687.48 1776.14,2687.47 640.258,1551.59 "/>
     <polygon id="_392634768" class="fil1" points="640.258,1551.59 1776.14,2687.47 1774.54,2686.63 1772.96,2685.8 1771.4,2684.98 1769.84,2684.18 1768.29,2683.39 1766.75,2682.62 1765.2,2681.86 1763.65,2681.12 1762.09,2680.4 1760.52,2679.71 1758.94,2679.03 1757.34,2678.37 1755.71,2677.74 1754.07,2677.13 1752.39,2676.54 1750.68,2675.98 1748.93,2675.45 1747.14,2674.94 1745.31,2674.46 1743.44,2674.01 1741.51,2673.6 1739.53,2673.21 1737.49,2672.86 1735.39,2672.53 1733.22,2672.25 1730.98,2672 1728.68,2671.78 1726.3,2671.6 1723.84,2671.46 1721.29,2671.36 1718.66,2671.3 1715.94,2671.28 580.059,1535.39 582.779,1535.42 585.41,1535.48 587.954,1535.58 590.416,1535.72 592.797,1535.9 595.104,1536.11 597.338,1536.36 599.504,1536.65 601.606,1536.97 603.644,1537.33 605.626,1537.71 607.555,1538.13 609.432,1538.58 611.261,1539.06 613.048,1539.56 614.795,1540.1 616.506,1540.66 618.185,1541.24 619.834,1541.85 621.456,1542.49 623.059,1543.14 624.642,1543.82 626.21,1544.52 627.768,1545.24 629.318,1545.98 630.864,1546.73 632.41,1547.51 633.96,1548.3 635.515,1549.1 637.081,1549.92 638.66,1550.75 "/>
     <polygon id="_392624976" class="fil1" points="580.059,1535.39 1715.94,2671.28 1713.48,2671.15 1711.1,2670.79 1708.79,2670.2 1706.59,2669.39 1704.48,2668.38 1702.5,2667.17 1700.65,2665.79 564.772,1529.91 566.622,1531.29 568.603,1532.49 570.704,1533.51 572.912,1534.31 575.215,1534.91 577.602,1535.27 "/>
    </g>
    <path id="_478209064" class="fil1" d="M666.006 1493.41l0 0zm323.309 -1020.94c61.3311,35.3717 128.017,131.242 187.569,243.525 77.5938,146.3 141.732,359.294 167.73,462.26l6.90473 27.3496 194.616 -16.6228 0.00590552 0.0673229c5.22874,-0.464174 10.4268,0.301181 15.2575,2.17087 4.81063,1.86142 9.19016,4.7752 12.7996,8.61142l0.0933072 0.0944883c3.4004,3.64488 5.98819,7.99961 7.63819,12.7311 1.60984,4.61221 2.31378,9.52678 1.99606,14.4236 -2.80866,43.5756 -49.3902,83.6351 -112.772,118.96 -53.3268,29.7213 -119.114,57.0591 -178.707,80.0032 23.6977,4.28977 47.2867,12.6354 70.793,25.0347 9.09095,4.80473 17.2677,9.02481 25.9819,11.6823 8.7189,2.65866 19.4032,4.26733 34.6772,4.26733 13.2732,0 24.0343,10.761 24.0343,24.0343 0,13.2721 -10.761,24.0331 -24.0343,24.0331 -20.0752,0 -35.2465,-2.45906 -48.5717,-6.52205 -13.3299,-4.06654 -23.3965,-9.2315 -34.4303,-15.0626 -29.054,-15.3248 -57.7406,-22.9914 -86.1331,-22.9914 -28.3937,0 -57.0804,7.66182 -86.1355,22.9914 -28.1185,14.8559 -55.1835,22.2851 -82.5449,22.2851 -27.3614,0 -54.4252,-7.42914 -82.5485,-22.2851 -29.0492,-15.3201 -57.7382,-22.9902 -86.1308,-22.9914 -28.3925,-0.00236221 -57.078,7.66182 -86.1237,23.0043 -28.004,14.7815 -55.0666,22.1788 -82.5485,22.1788l0 0.0944883c-27.3626,0 -54.4264,-7.4256 -82.5402,-22.2862l-0.0212599 -0.011811 -0.167717 -0.0814961 -0.0212599 -0.0106299 -0.237402 -0.132284c-20.0315,-10.5709 -42.8516,-22.4528 -85.6855,-22.4528 -13.2721,0 -24.0331,-10.7599 -24.0331,-24.0331 0,-13.2721 10.761,-24.0331 24.0331,-24.0331 0.956694,0 1.90394,0.00472441 2.84528,0.0141732 -1.61811,-0.774804 -3.22796,-1.55433 -4.82953,-2.33858 -56.7225,-27.7713 -104.981,-62.8512 -113.115,-97.6099 -1.12205,-4.7752 -1.24961,-9.71221 -0.43937,-14.4756 0.822048,-4.85079 2.63858,-9.56694 5.38583,-13.8 2.84882,-4.38307 6.54449,-8.00079 10.7823,-10.6595 4.47048,-2.80394 9.57166,-4.57678 14.9717,-5.10473l0.281103 -0.0933072 167.992 -14.3492 0.11811 -2.71063c2.44488,-56.3859 22.9087,-265.531 71.4508,-400.118 30.8693,-85.5839 73.9536,-166.207 132.965,-216.326 5.05985,-4.29095 11.0516,-6.99213 17.3173,-7.99607 6.27166,-1.00158 12.7524,-0.242126 18.7795,2.38819 0.0129921,0.00472441 0.0259843,0.0106299 0.0389764,0.0165354l0.0933072 0c5.76024,2.53819 10.5933,6.60945 14.1295,11.687 3.3378,4.79055 5.50512,10.513 6.14882,16.663l0.133465 2.34685 1.74567 571.59 24.6945 -2.11063 -0.609449 -25.5366 -13.0949 -704.965c-0.837402,-5.5004 -0.396851,-11.0799 1.17992,-16.2591 1.96063,-6.42166 5.63622,-12.2728 10.7953,-16.7209 5.55,-4.77874 12.2102,-7.55788 19.115,-8.24764 1.14921,-0.114567 2.30315,-0.17126 3.45827,-0.167717 5.78977,0.0188977 11.5984,1.53543 16.924,4.59804zm-326.714 1036.69l0 0zm-82.5426 -21.8303c41.1792,0 59.4308,9.6319 82.5532,21.8351 28.9028,15.2705 57.5989,22.9063 86.1213,22.9063 28.5236,0 57.2197,-7.63583 86.1249,-22.9063 28.0099,-14.7815 55.0678,-22.1776 82.5414,-22.1788 27.476,-0.0011811 54.5327,7.39016 82.5426,22.1788 29.028,15.3284 57.73,22.9973 86.1367,22.9973 28.4067,0.0011811 57.1052,-7.663 86.1284,-22.9973 28.017,-14.7933 55.0784,-22.1823 82.5556,-22.1788 27.4772,0.00354331 54.5374,7.40197 82.5544,22.1788 10.5284,5.56182 21.7595,11.4921 34.826,15.6402 13.0996,4.15985 29.3599,7.04528 51.3095,7.04528 13.2732,0 24.0343,10.761 24.0343,24.0331 0,13.2732 -10.761,24.0343 -24.0343,24.0343 -27.052,0 -48.1276,-3.88583 -65.7662,-9.48662 -17.6752,-5.61142 -30.5988,-12.4358 -42.7122,-18.8339 -21.137,-11.1484 -40.8874,-16.7303 -60.2115,-16.7327 -19.3264,-0.00236221 -39.0768,5.57245 -60.2126,16.7327 -35.8973,18.9673 -72.0414,28.4457 -108.471,28.4445 -36.4299,-0.00236221 -72.5764,-9.48662 -108.478,-28.4445 -21.1323,-11.1567 -40.878,-16.7327 -60.2008,-16.7327 -19.3205,0.0011811 -39.0674,5.58071 -60.1985,16.7327 -36.0154,19.0276 -72.1571,28.5414 -108.468,28.5414 -36.3071,0 -72.4453,-9.51261 -108.457,-28.5366l-0.0177165 -0.00944883c-17.1473,-9.04961 -30.6874,-16.1953 -60.1997,-16.1953 -13.2721,0 -24.0331,-10.761 -24.0331,-24.0343 0,-13.2721 10.761,-24.0331 24.0331,-24.0331z"/>
   </g>
  </g>
  <path class="fil2" d="M1024 0c565.539,0 1024,458.461 1024,1024 0,565.539 -458.461,1024 -1024,1024 -565.539,0 -1024,-458.461 -1024,-1024 0,-565.539 458.461,-1024 1024,-1024z"/>
  <path class="fil3" d="M1176.88 715.988c77.5938,146.3 141.732,359.294 167.73,462.26l6.90473 27.3496 -28.2154 2.41063 -346.454 29.5937 -25.3016 2.16024 -0.609449 -25.5366 -13.0949 -704.965c-0.837402,-5.5004 -0.396851,-11.0799 1.17992,-16.2591 1.96063,-6.42166 5.63622,-12.2728 10.7953,-16.7209 5.55,-4.77874 12.2102,-7.55788 19.115,-8.24764 6.91064,-0.692127 13.9949,0.757087 20.3823,4.43032 61.3311,35.3717 128.017,131.242 187.569,243.525z"/>
  <path class="fil4" d="M937.843 509.261l13.0949 704.965 0.609449 25.5366 25.3016 -2.16024 96.8044 -8.2689c-11.791,-233.216 -9.30355,-453.033 -101.262,-761.468 -1.15512,-0.00354331 -2.30906,0.0531496 -3.45827,0.167717 -6.90473,0.689764 -13.565,3.4689 -19.115,8.24764 -5.15906,4.44803 -8.83465,10.2992 -10.7953,16.7209 -1.57677,5.17914 -2.01732,10.7587 -1.17992,16.2591z"/>
  <path class="fil5" d="M925.107 670.283l1.74921 572.828 0.151181 22.663 -22.689 1.93465 -214.924 18.3213 -26.5016 2.25827 1.15748 -26.6669c2.44488,-56.3859 22.9087,-265.531 71.4508,-400.118 30.8681,-85.5839 73.9548,-166.207 132.965,-216.326 5.05985,-4.29095 11.0516,-6.99213 17.3173,-7.99607 6.28583,-1.00394 12.7807,-0.238583 18.8185,2.40473l0.0933072 0c5.76024,2.53819 10.5933,6.60945 14.1307,11.687 3.3378,4.79055 5.50394,10.513 6.14764,16.663l0.133465 2.34685z"/>
  <path class="fil6" d="M904.562 639.57c-77.7957,236.058 -70.2898,375.495 -72.5847,610.483l94.8757 -8.0882 -1.74567 -571.681 -0.133465 -2.34685c-0.643701,-6.15 -2.80984,-11.8725 -6.14764,-16.663 -3.5374,-5.07756 -8.37048,-9.14883 -14.1307,-11.687l-0.0933072 0c-0.0129921,-0.00472441 -0.0259843,-0.0106299 -0.0401575,-0.0165354z"/>
  <path class="fil7" d="M1561.4 1191.21c4.81063,1.86142 9.19016,4.7752 12.7996,8.61142l0.0933072 0.0944883c3.4004,3.64488 5.98819,7.99961 7.63819,12.7311 1.60984,4.61221 2.31378,9.52678 1.99606,14.4236 -2.80866,43.5756 -49.3902,83.6351 -112.772,118.96 -58.076,32.3681 -130.93,61.9087 -194.466,86.0268l0.011811 0.0307087c-2.00669,0.765355 -4.23662,1.35236 -6.65197,1.75158 -2.17087,0.357874 -4.41969,0.497244 -6.71221,0.409843 -1.85788,-0.0708662 -3.30709,-0.11811 -4.34646,-0.138189l0 -0.00236221c-1.51536,-0.0259843 0.266929,0.0507874 -4.22363,0.0507874 -34.4398,0 -58.7457,10.9902 -82.0241,21.515 -25.9772,11.7461 -50.9056,23.0185 -86.6611,23.0185 -36.7323,0 -61.5036,-11.3847 -87.2422,-23.2122 -22.7327,-10.4469 -46.3949,-21.3213 -81.4347,-21.3213 -36.7642,0 -58.9311,10.8378 -80.0729,21.1748 -20.1933,9.87284 -39.6378,19.3795 -68.0634,22.278 -32.0516,3.26811 -119.993,-22.3311 -191.192,-57.1914 -56.7225,-27.7713 -104.981,-62.8512 -113.115,-97.6099 -1.12205,-4.7752 -1.24961,-9.71221 -0.43937,-14.4756 0.822048,-4.85079 2.63858,-9.56694 5.38583,-13.8 2.84882,-4.38307 6.54449,-8.00079 10.7823,-10.6595 4.47048,-2.80394 9.57166,-4.57678 14.9717,-5.10473l0.281103 -0.0933072 1050.19 -89.706 0.00590552 0.0673229c5.22874,-0.464174 10.4268,0.301181 15.2575,2.17087z"/>
  <path class="fil8" d="M580.059 1535.39c-13.2721,0 -24.0331,-10.761 -24.0331,-24.0343 0,-13.2721 10.761,-24.0331 24.0331,-24.0331 41.1792,0 59.4308,9.6319 82.5426,21.8303l0.0106299 0.00472441c28.9028,15.2705 57.5989,22.9063 86.1213,22.9063 28.5236,0 57.2197,-7.63583 86.1249,-22.9063 28.0099,-14.7815 55.0678,-22.1776 82.5414,-22.1788 27.476,-0.0011811 54.5327,7.39016 82.5426,22.1788 29.028,15.3284 57.73,22.9973 86.1367,22.9973 28.4067,0.0011811 57.1052,-7.663 86.1284,-22.9973 28.017,-14.7933 55.0784,-22.1823 82.5556,-22.1788 27.4772,0.00354331 54.5374,7.40197 82.5544,22.1788 10.5284,5.56182 21.7595,11.4921 34.826,15.6402 13.0996,4.15985 29.3599,7.04528 51.3095,7.04528 13.2732,0 24.0343,10.761 24.0343,24.0331 0,13.2732 -10.761,24.0343 -24.0343,24.0343 -27.052,0 -48.1276,-3.88583 -65.7662,-9.48662 -17.6752,-5.61142 -30.5988,-12.4358 -42.7122,-18.8339 -21.137,-11.1484 -40.8874,-16.7303 -60.2115,-16.7327 -19.3264,-0.00236221 -39.0768,5.57245 -60.2126,16.7327 -35.8973,18.9673 -72.0414,28.4457 -108.471,28.4445 -36.4299,-0.00236221 -72.5764,-9.48662 -108.478,-28.4445 -21.1323,-11.1567 -40.878,-16.7327 -60.2008,-16.7327 -19.3205,0.0011811 -39.0674,5.58071 -60.1985,16.7327 -36.0154,19.0276 -72.1571,28.5414 -108.468,28.5414 -36.3071,0 -72.4453,-9.51261 -108.457,-28.5366l-0.0177165 -0.00944883c-17.1473,-9.04961 -30.6874,-16.1953 -60.1997,-16.1953zm843.84 -68.3729c13.2732,0 24.0343,10.761 24.0343,24.0343 0,13.2721 -10.761,24.0331 -24.0343,24.0331 -20.0752,0 -35.2465,-2.45906 -48.5717,-6.52205 -13.3299,-4.06654 -23.3965,-9.2315 -34.4303,-15.0626 -29.054,-15.3248 -57.7406,-22.9914 -86.1331,-22.9914 -28.3937,0 -57.0804,7.66182 -86.1355,22.9914 -28.1185,14.8559 -55.1835,22.2851 -82.5449,22.2851 -27.3614,0 -54.4252,-7.42914 -82.5485,-22.2851 -29.0492,-15.3201 -57.7382,-22.9902 -86.1308,-22.9914 -28.3925,-0.00236221 -57.078,7.66182 -86.1237,23.0043 -28.004,14.7815 -55.0666,22.1788 -82.5485,22.1788l0 0.0944883c-27.3626,0 -54.4264,-7.4256 -82.5402,-22.2862l-0.0212599 -0.011811 -0.164173 -0.0862205 -0.00354331 0.00472441 -0.0212599 -0.0106299 -0.237402 -0.132284c-20.0315,-10.5709 -42.8516,-22.4528 -85.6855,-22.4528 -13.2721,0 -24.0331,-10.7599 -24.0331,-24.0331 0,-13.2721 10.761,-24.0331 24.0331,-24.0331 54.4831,0 82.9843,14.8725 108.015,28.0795 0.210236,0.106299 0.418111,0.21378 0.627166,0.324803l0.0212599 0.011811 -0.00236221 0.00472441c20.9362,11.0374 40.6229,16.5532 60.0119,16.5532l0 0.0944883c19.3276,0 39.0792,-5.58189 60.2056,-16.7327 35.9233,-18.9756 72.0508,-28.454 108.467,-28.4516 36.4146,0.00236221 72.5422,9.48898 108.474,28.4386 21.0106,11.1 40.7587,16.6512 60.2056,16.6512 19.4457,0 39.1925,-5.55119 60.202,-16.6512 35.9386,-18.9614 72.065,-28.4398 108.478,-28.4386 36.4134,0.00236221 72.541,9.48426 108.476,28.4386 9.09095,4.80473 17.2677,9.02481 25.9819,11.6823 8.7189,2.65866 19.4032,4.26733 34.6772,4.26733z"/>
 </g>
</svg>
