<?xml version="1.0" encoding="UTF-8"?>
<!DOCTYPE svg PUBLIC "-//W3C//DTD SVG 1.1//EN" "http://www.w3.org/Graphics/SVG/1.1/DTD/svg11.dtd">
<!-- Creator: CorelDRAW -->
<svg xmlns="http://www.w3.org/2000/svg" xml:space="preserve" width="2048px" height="2048px" style="shape-rendering:geometricPrecision; text-rendering:geometricPrecision; image-rendering:optimizeQuality; fill-rule:evenodd; clip-rule:evenodd"
viewBox="0 0 2048 2048"
 xmlns:xlink="http://www.w3.org/1999/xlink">
 <defs>
  <style type="text/css">
   <![CDATA[
    .fil2 {fill:none}
    .fil5 {fill:#008D9A}
    .fil3 {fill:#0097A7}
    .fil6 {fill:#B33613}
    .fil4 {fill:#DD2C00}
    .fil14 {fill:#F3FFFF}
    .fil1 {fill:#FFB300}
    .fil0 {fill:#FFD54F}
    .fil13 {fill:#0288D1;fill-rule:nonzero}
    .fil12 {fill:#1B5E20;fill-rule:nonzero}
    .fil8 {fill:#212121;fill-rule:nonzero}
    .fil11 {fill:#6A1B9A;fill-rule:nonzero}
    .fil7 {fill:#D32F2F;fill-rule:nonzero}
    .fil10 {fill:#D50000;fill-rule:nonzero}
    .fil9 {fill:#F57F17;fill-rule:nonzero}
   ]]>
  </style>
   <clipPath id="id0">
    <path d="M1024 0c565.539,0 1024,458.461 1024,1024 0,565.539 -458.461,1024 -1024,1024 -565.539,0 -1024,-458.461 -1024,-1024 0,-565.539 458.461,-1024 1024,-1024z"/>
   </clipPath>
 </defs>
 <g id="Layer_x0020_1">
  <metadata id="CorelCorpID_0Corel-Layer"/>
  <path class="fil0" d="M1024 0c565.539,0 1024,458.461 1024,1024 0,565.539 -458.461,1024 -1024,1024 -565.539,0 -1024,-458.461 -1024,-1024 0,-565.539 458.461,-1024 1024,-1024z"/>
  <g style="clip-path:url(#id0)">
   <g id="_478229008">
    <g>
     <polygon id="_3807676481" class="fil1" points="1312.77,552.807 2448.66,1688.69 2239.52,1959.86 1103.64,823.983 "/>
     <polygon id="_380769904" class="fil1" points="1239.89,837.132 2375.77,1973.01 2376.93,1974.3 2378.07,1975.6 2379.19,1976.93 2380.28,1978.27 2381.35,1979.63 2382.41,1981.01 2383.43,1982.41 2384.44,1983.83 2385.42,1985.26 2386.38,1986.71 2387.31,1988.18 2388.22,1989.66 2389.1,1991.17 2389.96,1992.68 2390.8,1994.22 1254.92,858.334 1254.08,856.801 1253.22,855.283 1252.34,853.782 1251.43,852.296 1250.5,850.829 1249.54,849.377 1248.56,847.944 1247.55,846.527 1246.52,845.129 1245.47,843.749 1244.4,842.388 1243.3,841.045 1242.19,839.722 1241.05,838.417 "/>
     <polygon id="_380790856" class="fil1" points="1067.14,871.303 2203.02,2007.19 1759.7,2582.01 623.822,1446.13 "/>
     <polygon id="_380767864" class="fil1" points="1557.16,1388.23 2693.04,2524.11 2694.22,2525.7 2695.37,2527.31 2696.49,2528.96 2697.58,2530.63 2698.64,2532.32 2699.67,2534.05 2700.67,2535.79 2701.63,2537.56 2702.57,2539.36 2703.47,2541.18 2704.34,2543.02 2705.17,2544.89 2705.97,2546.77 2706.74,2548.69 2707.47,2550.62 2708.17,2552.57 1572.28,1416.69 1571.59,1414.73 1570.86,1412.8 1570.09,1410.89 1569.29,1409 1568.45,1407.14 1567.59,1405.3 1566.69,1403.48 1565.75,1401.68 1564.78,1399.91 1563.79,1398.16 1562.76,1396.44 1561.7,1394.74 1560.61,1393.07 1559.49,1391.43 1558.34,1389.81 "/>
     <polygon id="_380787016" class="fil1" points="1572.28,1416.69 2708.17,2552.57 2708.84,2554.58 2709.47,2556.61 2710.07,2558.65 2710.62,2560.7 2711.13,2562.76 2711.6,2564.83 2712.02,2566.91 2712.41,2569 2712.75,2571.1 2713.04,2573.21 2713.3,2575.33 2713.5,2577.46 2713.67,2579.59 2713.78,2581.73 2713.85,2583.87 2713.88,2586.02 1578,1450.14 1577.97,1447.99 1577.9,1445.84 1577.79,1443.71 1577.62,1441.57 1577.42,1439.45 1577.16,1437.33 1576.87,1435.22 1576.53,1433.12 1576.14,1431.03 1575.72,1428.95 1575.25,1426.88 1574.74,1424.81 1574.19,1422.77 1573.59,1420.73 1572.96,1418.7 "/>
     <polygon id="_380780704" class="fil1" points="1578,1450.14 2713.88,2586.02 2713.84,2588.67 2713.74,2591.3 2713.58,2593.91 2713.35,2596.51 2713.05,2599.08 2712.69,2601.64 2712.27,2604.17 2711.79,2606.69 2711.25,2609.18 2710.65,2611.65 2709.99,2614.1 2709.27,2616.52 2708.49,2618.91 2707.65,2621.28 2706.76,2623.62 2705.82,2625.94 2704.82,2628.23 2703.76,2630.48 2702.66,2632.71 2701.5,2634.9 2700.29,2637.07 2699.03,2639.2 2697.72,2641.3 2696.36,2643.36 2694.95,2645.39 2693.5,2647.38 2692,2649.34 2690.46,2651.26 2688.87,2653.13 2687.23,2654.98 2685.56,2656.78 2683.84,2658.54 1547.96,1522.66 1549.67,1520.89 1551.35,1519.09 1552.98,1517.25 1554.58,1515.37 1556.12,1513.45 1557.62,1511.5 1559.07,1509.51 1560.48,1507.48 1561.84,1505.41 1563.15,1503.32 1564.41,1501.19 1565.62,1499.02 1566.77,1496.83 1567.88,1494.6 1568.94,1492.34 1569.94,1490.06 1570.88,1487.74 1571.77,1485.4 1572.61,1483.03 1573.38,1480.63 1574.1,1478.21 1574.77,1475.77 1575.37,1473.3 1575.91,1470.81 1576.39,1468.29 1576.81,1465.76 1577.17,1463.2 1577.47,1460.62 1577.7,1458.03 1577.86,1455.42 1577.96,1452.79 "/>
     <polygon id="_380769064" class="fil1" points="1547.96,1522.66 2683.84,2658.54 2682.08,2660.26 2680.27,2661.93 2678.43,2663.57 2676.55,2665.16 2674.63,2666.7 2672.68,2668.2 2670.69,2669.65 2668.66,2671.06 2666.59,2672.42 2664.5,2673.73 2662.37,2674.99 2660.2,2676.2 2658.01,2677.36 2655.78,2678.46 2653.52,2679.52 2651.24,2680.52 2648.92,2681.46 2646.58,2682.35 2644.21,2683.19 2641.81,2683.97 2639.39,2684.69 2636.95,2685.35 2634.48,2685.95 2631.99,2686.49 2629.47,2686.97 2626.94,2687.39 2624.38,2687.75 2621.8,2688.05 2619.21,2688.28 2616.59,2688.44 2613.96,2688.54 2611.32,2688.58 1475.44,1552.69 1478.08,1552.66 1480.71,1552.56 1483.33,1552.39 1485.92,1552.16 1488.5,1551.87 1491.05,1551.51 1493.59,1551.09 1496.1,1550.61 1498.6,1550.07 1501.07,1549.46 1503.51,1548.8 1505.93,1548.08 1508.33,1547.31 1510.7,1546.47 1513.04,1545.58 1515.36,1544.63 1517.64,1543.63 1519.9,1542.58 1522.13,1541.47 1524.32,1540.32 1526.48,1539.11 1528.62,1537.85 1530.71,1536.54 1532.78,1535.18 1534.8,1533.77 1536.8,1532.32 1538.75,1530.82 1540.67,1529.27 1542.55,1527.69 1544.39,1526.05 1546.19,1524.37 "/>
     <polygon id="_380788024" class="fil1" points="1475.44,1552.69 2611.32,2688.58 2607.14,2688.57 2602.75,2688.57 2598.14,2688.57 2593.32,2688.56 2588.3,2688.55 2583.1,2688.54 2577.7,2688.53 2572.13,2688.52 2566.39,2688.5 2560.49,2688.49 2554.42,2688.47 2548.21,2688.45 2541.86,2688.43 2535.37,2688.41 2528.75,2688.39 2522.01,2688.37 2515.16,2688.34 2508.2,2688.32 2501.14,2688.29 2493.99,2688.27 2486.75,2688.24 2479.43,2688.21 2472.05,2688.18 2464.6,2688.15 2457.09,2688.12 2449.53,2688.09 2441.93,2688.06 2434.29,2688.03 2426.62,2688 2418.94,2687.97 2411.24,2687.94 2403.53,2687.91 1267.65,1552.03 1275.36,1552.06 1283.06,1552.09 1290.74,1552.12 1298.41,1552.15 1306.05,1552.18 1313.65,1552.21 1321.21,1552.24 1328.71,1552.27 1336.17,1552.3 1343.55,1552.33 1350.87,1552.36 1358.11,1552.38 1365.26,1552.41 1372.32,1552.44 1379.28,1552.46 1386.13,1552.48 1392.87,1552.51 1399.49,1552.53 1405.98,1552.55 1412.33,1552.57 1418.54,1552.59 1424.6,1552.61 1430.51,1552.62 1436.25,1552.64 1441.82,1552.65 1447.22,1552.66 1452.42,1552.67 1457.44,1552.68 1462.26,1552.69 1466.87,1552.69 1471.26,1552.69 "/>
     <polygon id="_380760088" class="fil1" points="1267.65,1552.03 2403.53,2687.91 2390.54,2687.86 2377.54,2687.81 2364.55,2687.75 2351.55,2687.7 2338.56,2687.66 2325.56,2687.61 2312.57,2687.57 2299.57,2687.52 2286.58,2687.49 2273.58,2687.45 2260.59,2687.42 2247.59,2687.4 2234.6,2687.38 2221.61,2687.36 2208.62,2687.35 2195.63,2687.35 2182.64,2687.35 2169.65,2687.36 2156.67,2687.38 2143.68,2687.41 2130.7,2687.44 2117.72,2687.48 2104.74,2687.53 2091.77,2687.59 2078.8,2687.67 2065.83,2687.75 2052.86,2687.84 2039.9,2687.94 2026.94,2688.06 2013.98,2688.18 2001.02,2688.32 1988.07,2688.47 852.192,1552.59 865.143,1552.44 878.097,1552.3 891.054,1552.17 904.015,1552.06 916.979,1551.96 929.945,1551.86 942.915,1551.78 955.888,1551.71 968.863,1551.65 981.841,1551.6 994.82,1551.56 1007.8,1551.52 1020.79,1551.5 1033.77,1551.48 1046.76,1551.47 1059.75,1551.47 1072.74,1551.47 1085.73,1551.48 1098.72,1551.49 1111.71,1551.52 1124.71,1551.54 1137.7,1551.57 1150.7,1551.6 1163.69,1551.64 1176.69,1551.68 1189.68,1551.73 1202.68,1551.77 1215.67,1551.82 1228.67,1551.87 1241.66,1551.92 1254.65,1551.98 "/>
     <polygon id="_380783464" class="fil1" points="852.192,1552.59 1988.07,2688.47 1987.76,2688.58 851.878,1552.69 "/>
     <polygon id="_380772832" class="fil1" points="851.878,1552.69 1987.76,2688.58 1985.11,2688.54 1982.48,2688.44 1979.87,2688.28 1977.27,2688.05 1974.7,2687.75 1972.14,2687.39 1969.61,2686.97 1967.09,2686.49 1964.6,2685.95 1962.13,2685.35 1959.68,2684.69 1957.26,2683.97 1954.87,2683.19 1952.5,2682.35 1950.16,2681.46 1947.84,2680.52 1945.55,2679.52 1943.3,2678.46 1941.07,2677.36 1938.88,2676.2 1936.71,2674.99 1934.58,2673.73 1932.48,2672.42 1930.42,2671.06 1928.39,2669.65 1926.4,2668.2 1924.44,2666.7 1922.52,2665.16 1920.64,2663.57 784.763,1527.69 786.642,1529.27 788.561,1530.82 790.517,1532.32 792.51,1533.77 794.538,1535.18 796.601,1536.54 798.699,1537.85 800.831,1539.11 802.994,1540.32 805.189,1541.47 807.416,1542.58 809.672,1543.63 811.959,1544.63 814.274,1545.58 816.616,1546.47 818.985,1547.31 821.382,1548.08 823.802,1548.8 826.248,1549.46 828.718,1550.07 831.21,1550.61 833.724,1551.09 836.26,1551.51 838.816,1551.87 841.392,1552.16 843.987,1552.39 846.601,1552.56 849.231,1552.66 "/>
     <polygon id="_380761288" class="fil1" points="1456.3,1213.99 2592.18,2349.87 2595.33,2355.27 2598.47,2360.67 2601.62,2366.07 2604.77,2371.47 2607.91,2376.87 2611.06,2382.27 2614.21,2387.67 2617.36,2393.07 2620.5,2398.48 2623.65,2403.89 2626.8,2409.3 2629.94,2414.71 2633.09,2420.12 2636.24,2425.54 2639.39,2430.97 2642.54,2436.4 2645.69,2441.83 2648.84,2447.27 2651.99,2452.71 2655.14,2458.16 2658.29,2463.61 2661.45,2469.07 2664.6,2474.54 2667.76,2480.02 2670.91,2485.5 2674.07,2490.99 2677.23,2496.49 2680.39,2501.99 2683.55,2507.51 2686.71,2513.03 2689.87,2518.56 2693.04,2524.11 1557.16,1388.23 1553.99,1382.68 1550.83,1377.15 1547.67,1371.62 1544.51,1366.11 1541.35,1360.6 1538.19,1355.11 1535.03,1349.62 1531.87,1344.13 1528.72,1338.66 1525.56,1333.19 1522.41,1327.73 1519.26,1322.28 1516.11,1316.83 1512.96,1311.38 1509.81,1305.95 1506.66,1300.51 1503.51,1295.09 1500.36,1289.66 1497.21,1284.24 1494.06,1278.83 1490.92,1273.41 1487.77,1268 1484.62,1262.6 1481.48,1257.19 1478.33,1251.79 1475.18,1246.39 1472.03,1240.99 1468.89,1235.59 1465.74,1230.19 1462.59,1224.79 1459.44,1219.39 "/>
     <polygon id="_380790904" class="fil1" points="623.822,1446.13 1759.7,2582.01 1663.19,2707.16 527.309,1571.27 "/>
     <polygon id="_380767552" class="fil1" points="527.309,1571.27 1663.19,2707.16 1661.96,2708.68 1660.69,2710.1 1659.39,2711.42 1658.06,2712.63 1656.71,2713.74 1655.33,2714.75 1653.93,2715.66 1652.51,2716.48 1651.08,2717.21 1649.63,2717.84 1648.17,2718.39 1646.7,2718.84 1645.22,2719.22 1643.73,2719.5 1642.25,2719.71 1640.76,2719.84 1639.27,2719.88 1637.79,2719.85 1636.31,2719.75 1634.84,2719.57 1633.38,2719.33 1631.94,2719.01 1630.51,2718.63 1629.09,2718.19 1627.7,2717.68 1626.33,2717.1 1624.98,2716.47 1623.66,2715.79 1622.37,2715.05 1621.11,2714.25 1619.88,2713.4 1618.69,2712.5 482.808,1576.62 484,1577.52 485.226,1578.37 486.487,1579.16 487.778,1579.91 489.098,1580.59 490.446,1581.22 491.817,1581.79 493.211,1582.3 494.625,1582.75 496.055,1583.13 497.501,1583.45 498.959,1583.69 500.429,1583.87 501.906,1583.97 503.39,1584 504.877,1583.95 506.366,1583.83 507.853,1583.62 509.338,1583.33 510.818,1582.96 512.289,1582.5 513.75,1581.96 515.2,1581.32 516.633,1580.6 518.052,1579.78 519.45,1578.87 520.826,1577.85 522.18,1576.74 523.507,1575.53 524.806,1574.22 526.074,1572.8 "/>
     <polygon id="_380770552" class="fil1" points="1365.91,472.6 2501.79,1608.48 2502.83,1610.17 2503.56,1611.93 2503.95,1613.71 2503.97,1615.43 2503.6,1617.04 2502.8,1618.48 1366.92,482.596 1367.72,481.163 1368.09,479.55 1368.06,477.824 1367.67,476.047 1366.94,474.284 "/>
     <polygon id="_380764888" class="fil1" points="1366.92,482.596 2502.8,1618.48 2448.95,1688.3 1313.07,552.42 "/>
     <polygon id="_380782144" class="fil1" points="1313.07,552.42 2448.95,1688.3 2448.66,1688.69 1312.77,552.807 "/>
     <polygon id="_380763520" class="fil1" points="1255.02,858.334 2390.9,1994.22 2396.9,2005.45 2402.92,2016.68 2408.97,2027.9 2415.05,2039.1 2421.16,2050.3 2427.29,2061.49 2433.44,2072.67 2439.62,2083.84 2445.82,2095 2452.04,2106.15 2458.28,2117.3 2464.54,2128.44 2470.82,2139.57 2477.11,2150.69 2483.42,2161.8 2489.75,2172.91 2496.09,2184.01 2502.44,2195.11 2508.8,2206.2 2515.18,2217.28 2521.56,2228.36 2527.96,2239.43 2534.36,2250.49 2540.77,2261.55 2547.18,2272.61 2553.6,2283.66 2560.03,2294.71 2566.46,2305.75 2572.89,2316.78 2579.32,2327.82 2585.75,2338.85 2592.18,2349.87 1456.3,1213.99 1449.87,1202.97 1443.43,1191.94 1437,1180.9 1430.57,1169.86 1424.15,1158.82 1417.72,1147.78 1411.3,1136.73 1404.89,1125.67 1398.48,1114.61 1392.08,1103.54 1385.68,1092.47 1379.3,1081.4 1372.92,1070.31 1366.56,1059.23 1360.2,1048.13 1353.87,1037.03 1347.54,1025.92 1341.23,1014.81 1334.94,1003.68 1328.66,992.553 1322.4,981.415 1316.16,970.27 1309.94,959.116 1303.74,947.955 1297.56,936.784 1291.41,925.605 1285.28,914.417 1279.17,903.219 1273.09,892.013 1267.04,880.796 1261.02,869.57 "/>
    </g>
    <path id="_478228096" class="fil1" d="M1217.13 818.561c15.9165,9.55985 29.0256,23.3315 37.7882,39.7725l0.103937 0c63.7997,119.909 132.699,238.06 201.277,355.659 33.5847,57.593 67.0926,115.054 100.863,174.233 6.36615,8.40473 11.5063,17.9894 15.1264,28.4622 3.69922,10.7032 5.71063,21.9697 5.71063,33.4512 0,28.3193 -11.4803,53.9575 -30.0402,72.5174 -18.5599,18.5587 -44.1992,30.0378 -72.5186,30.0378 -43.337,0 -125.551,-0.334252 -207.79,-0.666142 -138.581,-0.559843 -277.335,-1.12087 -415.454,0.561024l-0.314173 0.105118c-28.3193,0 -53.9587,-11.4791 -72.5186,-30.0378 -18.561,-18.5599 -30.0402,-44.1981 -30.0402,-72.5174 0,-9.163 1.2378,-18.1181 3.55748,-26.7 2.41772,-8.9445 5.94922,-17.3268 10.4232,-24.9803l0.0885827 0.0519685 303.754 -527.207 -443.32 574.829 -96.5127 125.141c-12.9921,16.8473 -31.9937,15.1795 -44.5016,5.34804 -12.5091,-9.83268 -18.5232,-27.8315 -5.53819,-43.6429l101.045 -123.034 715.999 -871.817 0.186614 -0.225591 56.4059 -68.6823c4.60512,-2.61969 8.95512,-1.79173 12.1299,0.505512 4.46339,3.22323 6.60827,9.34489 3.88583,12.8717l-53.8489 69.8233 -0.298819 0.387402 -209.137 271.175c1.40315,-1.03701 2.83229,-2.03858 4.28859,-3.00236 16.2721,-10.7776 35.7177,-17.0551 56.5477,-17.0551 19.1622,0 37.1811,5.34567 52.6536,14.6362z"/>
   </g>
  </g>
  <path class="fil2" d="M1024 0c565.539,0 1024,458.461 1024,1024 0,565.539 -458.461,1024 -1024,1024 -565.539,0 -1024,-458.461 -1024,-1024 0,-565.539 458.461,-1024 1024,-1024z"/>
  <path class="fil3" d="M1350.91 469.22l-873.636 1063.76c-25.9689,31.6217 24.0543,71.9906 50.0398,38.2949l839.612 -1088.68c4.66063,-6.03662 -4.94055,-19.6784 -16.0158,-13.376z"/>
  <path class="fil4" d="M578.314 1409.94l-101.045 123.034c-25.9689,31.6217 24.0543,71.9906 50.0398,38.2949l96.5115 -125.141 -45.5067 -36.1878z"/>
  <path class="fil4" d="M1350.91 469.22l-56.4059 68.6812 -0.185433 0.225591 18.4595 14.6799 0.298819 -0.386221 53.8489 -69.8245c4.66063,-6.0378 -4.94055,-19.6784 -16.0158,-13.376z"/>
  <line class="fil4" x1="1361.4" y1="464.002" x2="1361.4" y2= "464.002" />
  <path class="fil5" d="M482.808 1576.62c12.5079,9.83268 31.5095,11.5004 44.5016,-5.34685l839.612 -1088.68c2.72244,-3.52677 0.576378,-9.64725 -3.88583,-12.8717l-880.228 1106.9z"/>
  <path class="fil6" d="M482.808 1576.62c12.5079,9.83268 31.5095,11.5004 44.5016,-5.34685l96.5115 -125.141 -22.8166 -18.1441 -118.197 148.632z"/>
  <path class="fil6" d="M1303.09 545.106l9.68387 7.70079 0.298819 -0.386221 53.8489 -69.8245c2.72244,-3.52677 0.576378,-9.64725 -3.88583,-12.8717l-59.9457 75.3816z"/>
  <path class="fil7" d="M1557.16 1388.23c6.36615,8.40473 11.5063,17.9894 15.1264,28.4622 3.69922,10.7032 5.71063,21.9697 5.71063,33.4524 0,28.3181 -11.4791,53.9563 -30.0402,72.5162 -18.5599,18.5587 -44.1992,30.0378 -72.5197,30.0378 -43.3359,0 -125.55,-0.334252 -207.789,-0.664961 -138.581,-0.561024 -277.335,-1.12205 -415.454,0.559843l-0.314173 0.105118c-28.3193,0 -53.9587,-11.4791 -72.5186,-30.0378 -18.561,-18.5599 -30.0402,-44.1981 -30.0402,-72.5162 0,-9.16418 1.2378,-18.1193 3.55748,-26.7012 2.41654,-8.9445 5.94922,-17.3268 10.4232,-24.9803l0.0897638 0.0519685 307.373 -533.49c7.99843,-18.0449 20.9799,-33.3201 37.1646,-44.0398 16.2709,-10.7787 35.7166,-17.0551 56.5465,-17.0551 19.1622,0 37.1811,5.34567 52.6524,14.6362 15.9177,9.55985 29.0268,23.3315 37.7894,39.7725l0.103937 0c63.7997,119.909 132.699,238.06 201.277,355.659 33.5847,57.593 67.0926,115.052 100.863,174.233zm-35.204 45.7949c-1.74213,-5.03622 -4.42678,-9.83977 -7.87323,-14.2228l-2.19331 -3.34252c-32.5843,-57.1264 -67.128,-116.361 -101.747,-175.73 -69.4583,-119.108 -139.241,-238.775 -202.321,-357.33l0.0814961 -0.0437008c-4.20237,-7.86497 -10.4917,-14.4626 -18.1347,-19.0524 -7.30276,-4.38544 -15.9508,-6.90945 -25.2933,-6.90945 -10.0843,0 -19.3973,2.97284 -27.0992,8.0752 -8.07166,5.34567 -14.4543,12.9225 -18.2126,21.7984l-1.46102 2.92323 -308.246 535.004 0 0.209055c-2.19213,3.74882 -3.88701,7.72205 -4.99489,11.8228 -1.0937,4.04528 -1.67717,8.3752 -1.67717,12.9177 0,13.5602 5.49449,25.8355 14.3764,34.7162 8.88072,8.88072 21.1571,14.3728 34.7185,14.3728l0 0.100394c138.225,-1.67953 277.187,-1.11732 415.977,-0.5563 56.3717,0.226772 112.688,0.455906 207.58,0.455906 13.5626,0 25.839,-5.49213 34.7197,-14.3728 8.8819,-8.88072 14.3764,-21.1559 14.3764,-34.7162 0,-5.87599 -0.90945,-11.2902 -2.57717,-16.1197z"/>
  <path class="fil8" d="M1163.66 964.455c24.0921,0 45.9071,9.76772 61.6985,25.5591 15.7914,15.7914 25.5591,37.6075 25.5591,61.6997 0,24.0921 -9.76772,45.9059 -25.5591,61.6973 -15.7914,15.7925 -37.6063,25.5603 -61.6985,25.5603 -24.0933,0 -45.9083,-9.76891 -61.6997,-25.5579 -15.7914,-15.7925 -25.5591,-37.6075 -25.5591,-61.6997 0,-24.0933 9.76654,-45.9095 25.5591,-61.6997 15.7914,-15.7902 37.6063,-25.5591 61.6997,-25.5591z"/>
  <path class="fil9" d="M963.144 1292.63c24.0921,0 45.9083,9.76772 61.6997,25.5591 15.7914,15.7914 25.5591,37.6075 25.5591,61.6997 0,24.0945 -9.76772,45.9107 -25.5591,61.702 -15.7902,15.7925 -37.6051,25.5603 -61.6997,25.5603 -24.0933,0 -45.9083,-9.76772 -61.6997,-25.5591 -15.7914,-15.7925 -25.5579,-37.6099 -25.5579,-61.7032 0,-24.0933 9.76654,-45.9095 25.5591,-61.7008 15.789,-15.789 37.6051,-25.5579 61.6985,-25.5579z"/>
  <path class="fil10" d="M1163.65 1292.63c24.0933,0 45.9083,9.76772 61.6985,25.5591 15.7914,15.7914 25.5591,37.6075 25.5591,61.6997 0,24.0945 -9.76772,45.9107 -25.5591,61.702 -15.7902,15.7925 -37.604,25.5603 -61.6985,25.5603 -24.0933,0 -45.9083,-9.76772 -61.6985,-25.5603 -15.7914,-15.7914 -25.5591,-37.6075 -25.5591,-61.702 0,-24.0921 9.76772,-45.9083 25.5591,-61.6997 15.7914,-15.7914 37.6063,-25.5591 61.6985,-25.5591z"/>
  <path class="fil11" d="M1364.17 1292.63c24.0921,0 45.9071,9.76772 61.6985,25.5591 15.7914,15.7914 25.5591,37.6075 25.5591,61.6997 0,24.0945 -9.76772,45.9107 -25.5591,61.7008 -15.7902,15.7937 -37.6063,25.5614 -61.6985,25.5614 -24.0945,0 -45.9107,-9.76772 -61.7032,-25.5603 -15.7914,-15.7902 -25.5591,-37.6063 -25.5591,-61.702 0,-24.0945 9.76772,-45.9095 25.5591,-61.6997 15.7925,-15.7914 37.6087,-25.5591 61.7032,-25.5591z"/>
  <path class="fil12" d="M1056.73 1124.84c24.0933,0 45.9083,9.76772 61.6997,25.5591 15.7925,15.7937 25.5579,37.6111 25.5579,61.7044 0,24.0933 -9.76654,45.9083 -25.5591,61.6997 -15.789,15.789 -37.6051,25.5579 -61.6985,25.5579 -24.0921,0 -45.9083,-9.76772 -61.6985,-25.5591 -15.7914,-15.7914 -25.5591,-37.6051 -25.5591,-61.6985 0,-24.0933 9.76772,-45.9107 25.5591,-61.7032 15.7902,-15.7925 37.604,-25.5603 61.6985,-25.5603z"/>
  <path class="fil13" d="M1270.58 1124.84c24.0969,0 45.9095,9.76772 61.7008,25.5591 15.7914,15.7937 25.5579,37.6111 25.5579,61.7044 0,24.0933 -9.76654,45.9083 -25.5579,61.6997 -15.7914,15.7914 -37.6063,25.5579 -61.7008,25.5579 -24.091,0 -45.9059,-9.76772 -61.6985,-25.5591 -15.7914,-15.7914 -25.5591,-37.6063 -25.5591,-61.6985 0,-24.0933 9.76772,-45.9095 25.5591,-61.702 15.7902,-15.7937 37.6075,-25.5614 61.6985,-25.5614z"/>
  <ellipse class="fil14" cx="1163.66" cy="1051.71" rx="40.6498" ry="40.6498"/>
  <ellipse class="fil14" cx="1270.58" cy="1212.1" rx="40.6498" ry="40.6498"/>
  <ellipse class="fil14" cx="1056.73" cy="1212.1" rx="40.6498" ry="40.6498"/>
  <ellipse class="fil14" cx="963.144" cy="1379.9" rx="40.6498" ry="40.6498"/>
  <ellipse class="fil14" cx="1163.66" cy="1379.9" rx="40.6498" ry="40.6498"/>
  <ellipse class="fil14" cx="1364.17" cy="1379.9" rx="40.6498" ry="40.6498"/>
  <path class="fil8" d="M1169.76 1406.34l-10.0913 0 0 -38.0504c-3.69095,3.45709 -8.03268,6.00945 -13.0358,7.65119l0 -9.15946c2.62441,-0.858662 5.49449,-2.48977 8.58426,-4.89331 3.08977,-2.41536 5.21103,-5.22284 6.35197,-8.43544l8.19095 0 0 52.8874z"/>
  <path class="fil8" d="M980.838 1396.96l0 9.38032 -35.3894 0c0.392126,-3.54331 1.53189,-6.90355 3.45827,-10.0795 1.91221,-3.17599 5.70237,-7.3819 11.3433,-12.6307 4.56142,-4.22953 7.3441,-7.11142 8.3752,-8.61969 1.38543,-2.08583 2.08465,-4.14567 2.08465,-6.18071 0,-2.2441 -0.601182,-3.97323 -1.81536,-5.18741 -1.21417,-1.21417 -2.88189,-1.81536 -5.01496,-1.81536 -2.10945,0 -3.77717,0.637796 -5.02796,1.90158 -1.23898,1.27441 -1.96181,3.38386 -2.15788,6.32717l-10.0559 -1.00512c0.601182,-5.55473 2.47677,-9.54095 5.64095,-11.9693 3.16418,-2.41536 7.1126,-3.62835 11.8583,-3.62835 5.19922,0 9.28229,1.40906 12.2504,4.20591 2.96693,2.80748 4.4504,6.29056 4.4504,10.4587 0,2.36693 -0.427559,4.62284 -1.27441,6.77008 -0.846851,2.14488 -2.19567,4.39016 -4.03465,6.73229 -1.22599,1.55669 -3.43347,3.80079 -6.60945,6.7193 -3.18898,2.91851 -5.21221,4.86851 -6.05788,5.8252 -0.84567,0.955513 -1.54488,1.88858 -2.07166,2.79567l20.048 0z"/>
  <path class="fil8" d="M1366.79 1406.34l0 -10.5945 -21.5587 0 0 -8.84056 22.8579 -33.4524 8.47323 0 0 33.4146 6.53623 0 0 8.87835 -6.53623 0 0 10.5945 -9.77245 0zm0 -19.4728l0 -18.0012 -12.1039 18.0012 12.1039 0z"/>
  <path class="fil8" d="M1145.95 1063.69l10.0547 -1.02992c0.281103,2.26772 1.13976,4.07126 2.55118,5.39528 1.41024,1.33701 3.04134,1.99843 4.88032,1.99843 2.10827,0 3.9,-0.858662 5.35867,-2.56181 1.45866,-1.71732 2.19449,-4.30512 2.19449,-7.75158 0,-3.22441 -0.722835,-5.65276 -2.18268,-7.27087 -1.44685,-1.61811 -3.33544,-2.42835 -5.65276,-2.42835 -2.89488,0 -5.49331,1.2874 -7.79882,3.8504l-8.19213 -1.18819 5.17559 -27.4075 26.6953 0 0 9.44174 -19.0441 0 -1.5815 8.95158c2.25591,-1.12795 4.54961,-1.69134 6.90355,-1.69134 4.47638,0 8.27717,1.62992 11.3799,4.88032 3.11457,3.26103 4.67244,7.49174 4.67244,12.691 0,4.32874 -1.25197,8.20394 -3.76418,11.6008 -3.43465,4.64764 -8.18032,6.96497 -14.263,6.96497 -4.86733,0 -8.82875,-1.29921 -11.8949,-3.91063 -3.06496,-2.6126 -4.90394,-6.12048 -5.49213,-10.5343z"/>
  <path class="fil8" d="M1039.47 1195.5l0 -9.36969 34.5189 0 0 7.32048c-2.8441,2.80866 -5.73898,6.8315 -8.6941,12.0791 -2.94213,5.23583 -5.18741,10.8165 -6.73229,16.7138 -1.54488,5.91142 -2.30433,11.1839 -2.27953,15.8315l-9.73702 0c0.17126,-7.28386 1.66772,-14.7024 4.51181,-22.2685 2.83347,-7.57914 6.62245,-14.3351 11.3681,-20.3067l-22.9559 0z"/>
  <path class="fil8" d="M1262.07 1209.67c-2.6126,-1.10315 -4.513,-2.62323 -5.69056,-4.54961 -1.18937,-1.92402 -1.77756,-4.04646 -1.77756,-6.33898 0,-3.92481 1.36063,-7.17402 4.10788,-9.73702 2.74725,-2.56299 6.64725,-3.8504 11.6988,-3.8504 5.00315,0 8.89016,1.2874 11.6492,3.8504 2.77087,2.56299 4.15748,5.81221 4.15748,9.73702 0,2.44016 -0.637796,4.61103 -1.91339,6.52323 -1.2626,1.9004 -3.05315,3.36024 -5.34685,4.36536 2.91851,1.16575 5.1378,2.88307 6.65906,5.13898 1.52008,2.24292 2.28071,4.8437 2.28071,7.78701 0,4.86733 -1.54488,8.81694 -4.64764,11.8571 -3.10158,3.04134 -7.22245,4.56142 -12.3721,4.56142 -4.79528,0 -8.78032,-1.25079 -11.9693,-3.76418 -3.76418,-2.97992 -5.64095,-7.05119 -5.64095,-12.2268 0,-2.8441 0.711024,-5.45552 2.12126,-7.84725 1.41024,-2.37874 3.64252,-4.2189 6.68386,-5.5063zm2.08465 -10.1658c0,2.01142 0.564567,3.58111 1.70433,4.69725 1.14095,1.12795 2.64803,1.69134 4.54961,1.69134 1.91339,0 3.44646,-0.563386 4.59804,-1.70315 1.13976,-1.14095 1.71732,-2.71063 1.71732,-4.72205 0,-1.9004 -0.563386,-3.40866 -1.70551,-4.54843 -1.13976,-1.14213 -2.63622,-1.70551 -4.51181,-1.70551 -1.93701,0 -3.48189,0.576378 -4.63583,1.71732 -1.13976,1.15158 -1.71614,2.67284 -1.71614,4.57323zm-0.93189 22.552c0,2.78268 0.711024,4.95355 2.13425,6.51142 1.42205,1.55669 3.19961,2.32914 5.33386,2.32914 2.08465,0 3.81378,-0.747638 5.17441,-2.24292 1.36063,-1.49646 2.04803,-3.65551 2.04803,-6.4878 0,-2.46496 -0.699213,-4.45158 -2.08465,-5.94685 -1.38543,-1.49646 -3.15118,-2.24528 -5.28544,-2.24528 -2.46496,0 -4.30394,0.858662 -5.50512,2.55118 -1.21417,1.70433 -1.81536,3.54449 -1.81536,5.53111z"/>
 </g>
</svg>
