<?xml version="1.0" encoding="UTF-8"?>
<!DOCTYPE svg PUBLIC "-//W3C//DTD SVG 1.1//EN" "http://www.w3.org/Graphics/SVG/1.1/DTD/svg11.dtd">
<!-- Creator: CorelDRAW -->
<svg xmlns="http://www.w3.org/2000/svg" xml:space="preserve" width="2048px" height="2048px" style="shape-rendering:geometricPrecision; text-rendering:geometricPrecision; image-rendering:optimizeQuality; fill-rule:evenodd; clip-rule:evenodd"
viewBox="0 0 2048 2048"
 xmlns:xlink="http://www.w3.org/1999/xlink">
 <defs>
  <style type="text/css">
   <![CDATA[
    .fil2 {fill:none}
    .fil3 {fill:#1F1F1F}
    .fil17 {fill:#212121}
    .fil10 {fill:#2C6C2F}
    .fil11 {fill:#2E7D32}
    .fil1 {fill:#3949AB}
    .fil6 {fill:#666666}
    .fil0 {fill:#7986CB}
    .fil16 {fill:#B19A75}
    .fil9 {fill:#BF8356}
    .fil14 {fill:#C8C8C8}
    .fil7 {fill:#CC9C74}
    .fil5 {fill:#E0E0E0}
    .fil18 {fill:#E2CDAA}
    .fil13 {fill:#E4E4E4}
    .fil8 {fill:#E8EAF6}
    .fil4 {fill:#FFD3AE}
    .fil12 {fill:white}
    .fil15 {fill:#232323}
   ]]>
  </style>
   <clipPath id="id0">
    <path d="M1024 0c565.539,0 1024,458.461 1024,1024 0,565.539 -458.461,1024 -1024,1024 -565.539,0 -1024,-458.461 -1024,-1024 0,-565.539 458.461,-1024 1024,-1024z"/>
   </clipPath>
    <clipPath id="id1">
     <path d="M1210.39 1546.62c0.641339,-0.640158 1.27677,-1.29095 1.90276,-1.95 15.3225,-16.1102 25.7303,-36.9378 28.8248,-60.0756 0.634252,-4.73977 0.962599,-9.5752 0.962599,-14.4874 0,-6.79725 -0.625985,-13.4504 -1.82362,-19.9016 -2.54528,-13.6725 -7.65709,-26.4437 -14.8193,-37.7906 -4.31103,-6.82678 -9.36379,-13.1398 -15.0461,-18.8244 -8.7378,-8.74016 -18.965,-15.9945 -30.267,-21.3461 -14.028,-6.64371 -29.713,-10.3583 -46.265,-10.3583 -7.37127,0 -14.5701,0.737008 -21.528,2.14252 -0.376772,0.0744095 -0.755906,0.153543 -1.1315,0.233858 -0.744095,0.157087 -1.48583,0.325985 -2.22402,0.498426 -3.27166,0.768898 -6.4878,1.6878 -9.63662,2.74843 -8.32442,2.8004 -16.1941,6.58229 -23.4732,11.211 -6.71693,4.27087 -12.9319,9.26457 -18.5351,14.8701 -5.68229,5.68465 -10.7362,11.9976 -15.0484,18.8244 -7.16221,11.3469 -12.274,24.1181 -14.8169,37.7906 -1.19764,6.45119 -1.82717,13.1043 -1.82717,19.9016 0,4.91221 0.328347,9.74765 0.962599,14.4874 3.09685,23.1378 13.5047,43.9654 28.8248,60.0756 0.625985,0.659056 1.26024,1.30984 1.90276,1.95 5.60434,5.6067 11.8205,10.5992 18.5374,14.8713 7.27914,4.62756 15.1488,8.41182 23.4732,11.2099 3.14882,1.06063 6.36497,1.98189 9.63662,2.75079 0.73819,0.173622 1.47992,0.338977 2.22402,0.498426 0.375591,0.080315 0.754725,0.16063 1.1315,0.233858 6.95788,1.40315 14.1567,2.14252 21.528,2.14252 16.552,0 32.237,-3.71457 46.265,-10.3583 11.302,-5.35394 21.528,-12.6071 30.2658,-21.3484z"/>
    </clipPath>
    <clipPath id="id2">
     <path d="M1193.59 1521.95c0.536221,-0.536221 1.06536,-1.07835 1.58977,-1.62874 12.7866,-13.448 21.4748,-30.828 24.0579,-50.1402 0.527953,-3.95433 0.80315,-7.99371 0.80315,-12.0921 0,-5.6752 -0.523229,-11.2264 -1.5248,-16.611 -2.12244,-11.4106 -6.38977,-22.0713 -12.3662,-31.5414 -3.59882,-5.69764 -7.81654,-10.9665 -12.5587,-15.7099 -7.29213,-7.29567 -15.8268,-13.3512 -25.2614,-17.8169 -11.7083,-5.54528 -24.7984,-8.64568 -38.6138,-8.64568 -6.15119,0 -12.1606,0.614174 -17.9681,1.78937 -0.314173,0.0614174 -0.630709,0.126378 -0.943702,0.193701 -0.62126,0.132284 -1.24016,0.271654 -1.85788,0.418111 -2.72953,0.640158 -5.41418,1.40788 -8.04213,2.2937 -6.94725,2.33504 -13.5142,5.49095 -19.5898,9.35434 -5.60788,3.56811 -10.7941,7.73386 -15.4701,12.4134 -4.74449,4.74331 -8.95985,10.0122 -12.5599,15.7099 -5.97874,9.47009 -10.2449,20.1307 -12.3673,31.5414 -0.999213,5.38465 -1.52244,10.9358 -1.52244,16.611 0,4.09843 0.272835,8.13426 0.800788,12.0898 2.58425,19.3146 11.2713,36.6945 24.0579,50.1426 0.522048,0.550394 1.05236,1.09252 1.58977,1.62874 4.67599,4.67835 9.86339,8.8441 15.4713,12.411 6.0756,3.86221 12.6425,7.02166 19.5898,9.3567 2.62795,0.882284 5.3126,1.65 8.04213,2.29252 0.617717,0.145276 1.23662,0.284646 1.85788,0.418111 0.312992,0.0673229 0.629528,0.131102 0.943702,0.194882 5.80748,1.17165 11.8169,1.78819 17.9681,1.78819 13.8154,0 26.9055,-3.1004 38.6138,-8.64449 9.43229,-4.46929 17.9669,-10.5236 25.2603,-17.8169z"/>
    </clipPath>
    <clipPath id="id3">
     <path d="M1216.69 1471.22c0.0389764,-1.19528 0.0555119,-2.38229 0.0507874,-3.56339 -0.0425197,-10.9724 -1.8189,-21.2244 -3.58465,-28.7374 -1.76693,-7.50945 -3.52205,-12.2752 -3.52205,-12.2752 -5.36103,-3.00118 -10.8437,-5.22874 -15.9331,-6.87993 -6.27402,-2.03504 -11.9492,-3.1937 -16.0547,-3.84567 -4.1067,-0.648426 -6.64607,-0.788977 -6.64607,-0.788977 0,0 -17.087,38.6327 -16.3453,39.7477 0.362599,0.542126 7.0004,8.7756 13.7043,17.0646 1.03701,1.28386 2.07638,2.56654 3.09331,3.82559 5.89134,7.27678 11.0634,13.6536 11.0634,13.6536 16.4563,-6.71103 25.3382,-11.7839 29.8855,-14.8465 3.2563,-2.19095 4.28859,-3.35433 4.28859,-3.35433z"/>
    </clipPath>
    <clipPath id="id4">
     <path d="M1089.28 1504.28c4.29331,-10.4126 8.58544,-20.8229 12.8788,-31.2343 0.871654,-2.11181 1.73858,-4.22126 2.60788,-6.32835 0.388583,-0.929528 0.77126,-1.85788 1.15158,-2.78977 0.274016,-0.664961 0.548032,-1.32992 0.822048,-1.9937 0,0 -21.104,-23.1555 -26.8607,-29.8925 -0.724016,-0.848032 -1.20709,-1.43386 -1.37126,-1.68307 -0.43937,-0.657875 -3.55985,0.916536 -7.74804,3.46299 -0.885827,0.539764 -1.82126,1.12323 -2.78858,1.73858 -7.93465,5.04804 -15.6473,10.4622 -23.2654,15.9744 0.0212599,0.334252 0.0448819,0.673229 0.0732284,1.00984 0.034252,0.47126 0.0708662,0.94252 0.10748,1.41378 0.0874016,1.09724 0.204331,2.52992 0.354331,4.20591 1.0063,11.3126 3.42874,33.7925 7.26497,40.9158 2.78977,0.72756 5.60906,1.33937 8.43544,1.91457 0.483071,0.0980316 0.981497,0.196063 1.49528,0.297638 0.51378,0.100394 1.04173,0.200788 1.58386,0.301181 0.540945,0.100394 1.09488,0.20315 1.66181,0.303544 6.88229,1.2248 15.5291,2.38347 23.5973,2.38347z"/>
    </clipPath>
    <clipPath id="id5">
     <path d="M1173.48 1562.11c-10.7339,7.50355 -25.1362,12.3744 -25.1362,12.3744 -1.49528,-0.10748 -2.96693,-0.249213 -4.4126,-0.420473 -18.3236,-2.16378 -32.361,-8.86418 -32.361,-8.86418 0.362599,-1.11969 0.725197,-2.24055 1.0878,-3.35788 1.2437,-3.83622 2.48622,-7.67363 3.72756,-11.511 1.24252,-3.83386 2.48504,-7.67008 3.72756,-11.5051 8.14489,0.591733 20.5358,-1.35827 30.3047,-3.30591 4.24961,-0.84567 8.00316,-1.69252 10.6937,-2.32559 2.69055,-0.634252 4.32048,-1.05591 4.32048,-1.05591 5.57126,7.30394 11.1437,14.6114 16.715,21.9166 -1.21181,1.68543 -2.75788,3.30355 -4.52008,4.8378 -1.28386,1.11732 -2.6811,2.18977 -4.14685,3.21733z"/>
    </clipPath>
    <clipPath id="id6">
     <path d="M1142.03 1385.05c0,0 0.167717,-0.448819 0.499607,-1.21536 0.788977,-1.83071 2.50866,-5.48386 5.10355,-9.25513 2.59725,-3.7689 6.07087,-7.65827 10.3689,-9.96261 0,0 -16.9453,-5.17678 -39.2079,-2.17441 -10.1539,1.36772 -21.4146,4.43977 -32.6811,10.4787 -2.04095,1.0937 -4.08307,2.28543 -6.11693,3.58465 4.68898,3.6378 9.38032,7.27323 14.0705,10.9134 1.37717,1.06654 2.75315,2.13425 4.1315,3.20079 0,0 1.67717,-0.800788 4.80118,-1.82362 6.85158,-2.23819 20.6634,-5.53347 39.0307,-3.74646z"/>
    </clipPath>
   <clipPath id="id7">
    <path d="M1093 1388.88c0,0 -10.8969,25.7528 -13.8685,29.7166 -2.97047,3.96142 -25.754,18.8185 -29.2217,19.3146 -3.46536,0.496063 16.3429,-16.3429 23.7732,-23.7721 7.42796,-7.4315 19.3169,-25.2591 19.3169,-25.2591z"/>
   </clipPath>
   <clipPath id="id8">
    <path d="M1107.86 1456.74c16.6713,1.27205 41.1071,-8.4189 41.1071,-8.4189l14.8595 -20.8028 -11.8878 24.7642 -44.0788 7.9252 -15.3555 -14.8595c0,0 9.44292,10.9417 15.3555,11.3917z"/>
   </clipPath>
   <clipPath id="id9">
    <path d="M1107.76 1470.6c14.9563,-7.47638 42.1973,-9.40394 42.1973,-9.40394l18.3272 17.3339 -17.0374 -21.4488 -43.8059 9.3189 -9.59174 20.5488c0,0 4.60748,-13.6973 9.91064,-16.3488z"/>
   </clipPath>
   <clipPath id="id10">
    <path d="M1216.89 1534.18l13.5095 -33.7122 -2.43543 -6.00945 -11.074 39.7217z"/>
   </clipPath>
 </defs>
 <g id="Layer_x0020_1">
  <metadata id="CorelCorpID_0Corel-Layer"/>
  <path class="fil0" d="M1024 0c565.539,0 1024,458.461 1024,1024 0,565.539 -458.461,1024 -1024,1024 -565.539,0 -1024,-458.461 -1024,-1024 0,-565.539 458.461,-1024 1024,-1024z"/>
  <g style="clip-path:url(#id0)">
   <g id="_478222504">
    <g>
     <path id="_4620207681" class="fil1" d="M2055.73 1916.2l0 0zm-1135.88 -1135.88l0 0z"/>
     <path id="_462023744" class="fil1" d="M2056.57 1915.56l0 0zm-1135.88 -1135.88l0 0z"/>
     <path id="_462036800" class="fil1" d="M2057.05 1915.23l0 0zm-1135.88 -1135.88l0 0z"/>
     <path id="_462029024" class="fil1" d="M2059.1 1914.04l0 0zm-1135.88 -1135.88l0 0z"/>
     <path id="_462018152" class="fil1" d="M2060.26 1913.49l0 0zm-1135.88 -1135.88l0 0z"/>
     <polygon id="_462013064" class="fil1" points="1036.3,744.255 2172.18,1880.14 2170.69,1880.42 2169.14,1880.69 2167.53,1880.94 2165.88,1881.16 2164.19,1881.36 2162.44,1881.54 2160.66,1881.7 2158.83,1881.84 2156.97,1881.96 2155.07,1882.05 2153.13,1882.13 2151.17,1882.18 2149.17,1882.2 2147.15,1882.21 2145.1,1882.19 2143.03,1882.15 1007.15,746.271 1009.22,746.31 1011.27,746.327 1013.29,746.321 1015.29,746.293 1017.25,746.243 1019.18,746.17 1021.09,746.076 1022.95,745.96 1024.78,745.822 1026.56,745.661 1028.3,745.48 1030,745.277 1031.65,745.053 1033.26,744.808 1034.8,744.542 "/>
     <polygon id="_462042584" class="fil1" points="897.835,686.938 2033.72,1822.82 2032.24,1821.94 2030.84,1820.96 2029.52,1819.91 2028.28,1818.8 2027.12,1817.63 891.243,681.749 892.401,682.914 893.642,684.03 894.961,685.082 896.359,686.057 "/>
     <polygon id="_462030824" class="fil1" points="1068.29,509.233 2204.17,1645.12 2205.97,1647.18 2207.69,1649.43 2209.35,1651.88 1073.47,516.002 1071.81,513.545 1070.09,511.294 "/>
     <polygon id="_462033296" class="fil1" points="1073.47,516.002 2209.35,1651.88 2211.01,1654.67 2212.58,1657.66 2214.06,1660.86 2215.46,1664.24 2216.76,1667.81 2217.98,1671.56 2219.11,1675.46 2220.15,1679.53 2221.1,1683.73 2221.96,1688.08 2222.74,1692.56 2223.43,1697.15 2224.03,1701.85 2224.55,1706.66 2224.98,1711.55 2225.32,1716.53 2225.58,1721.58 2225.75,1726.7 2225.83,1731.87 2225.83,1737.09 2225.75,1742.34 2225.57,1747.62 2225.31,1752.92 2224.97,1758.24 2224.54,1763.55 2224.03,1768.85 2223.43,1774.13 2222.75,1779.39 2221.98,1784.61 2221.13,1789.79 2220.2,1794.91 2219.18,1799.97 1083.3,664.087 1084.32,659.028 1085.25,653.906 1086.1,648.729 1086.87,643.508 1087.55,638.25 1088.15,632.966 1088.66,627.664 1089.09,622.353 1089.43,617.043 1089.69,611.742 1089.86,606.46 1089.95,601.205 1089.95,595.988 1089.87,590.817 1089.7,585.701 1089.44,580.649 1089.1,575.671 1088.67,570.775 1088.15,565.971 1087.55,561.267 1086.86,556.674 1086.08,552.199 1085.22,547.852 1084.26,543.643 1083.22,539.58 1082.1,535.673 1080.88,531.93 1079.57,528.359 1078.18,524.973 1076.7,521.778 1075.13,518.785 "/>
     <polygon id="_462034088" class="fil1" points="1083.3,664.087 2219.18,1799.97 2218.55,1802.81 2217.89,1805.61 2217.19,1808.37 2216.45,1811.09 2215.68,1813.76 2214.88,1816.4 2214.04,1819 2213.17,1821.55 2212.28,1824.07 2211.35,1826.55 2210.41,1828.99 2209.43,1831.39 2208.44,1833.76 2207.42,1836.08 2206.39,1838.37 2205.34,1840.62 2204.27,1842.84 2203.18,1845.02 2202.09,1847.17 2200.98,1849.27 2199.86,1851.35 2198.73,1853.39 2197.59,1855.39 2196.45,1857.36 2195.3,1859.3 2194.16,1861.21 2193.01,1863.08 2191.86,1864.92 2190.71,1866.72 2189.56,1868.5 2188.42,1870.24 2187.29,1871.96 1051.41,736.074 1052.54,734.362 1053.68,732.617 1054.83,730.842 1055.97,729.035 1057.12,727.196 1058.27,725.324 1059.42,723.42 1060.57,721.482 1061.71,719.51 1062.85,717.505 1063.97,715.466 1065.09,713.392 1066.2,711.283 1067.3,709.138 1068.39,706.959 1069.45,704.742 1070.51,702.49 1071.54,700.201 1072.56,697.874 1073.55,695.51 1074.53,693.108 1075.47,690.668 1076.4,688.19 1077.29,685.672 1078.16,683.116 1078.99,680.519 1079.8,677.882 1080.57,675.206 1081.31,672.488 1082.01,669.729 1082.67,666.929 "/>
     <polygon id="_462019736" class="fil1" points="1051.41,736.074 2187.29,1871.96 2187.06,1872.64 2186.72,1873.3 2186.28,1873.94 2185.73,1874.55 2185.08,1875.15 2184.34,1875.72 2183.5,1876.26 2182.57,1876.79 2181.55,1877.29 2180.45,1877.77 2179.26,1878.22 2177.99,1878.65 2176.65,1879.06 2175.23,1879.44 2173.74,1879.8 2172.18,1880.14 1036.3,744.255 1037.86,743.92 1039.35,743.561 1040.77,743.177 1042.11,742.771 1043.38,742.34 1044.56,741.885 1045.67,741.408 1046.69,740.906 1047.62,740.382 1048.45,739.834 1049.2,739.264 1049.85,738.67 1050.39,738.055 1050.84,737.417 1051.18,736.757 "/>
     <polygon id="_462014336" class="fil1" points="1036.3,744.255 2172.18,1880.14 2172.19,1880.28 1036.31,744.395 "/>
     <polygon id="_462023624" class="fil1" points="910.678,688.651 2046.56,1824.53 2046.18,1824.72 2045.78,1824.88 2045.36,1825.02 2044.92,1825.13 2044.46,1825.22 2043.98,1825.28 2043.47,1825.31 2042.94,1825.32 907.064,689.434 907.592,689.427 908.098,689.393 908.581,689.333 909.043,689.246 909.484,689.135 909.903,688.998 910.3,688.836 "/>
     <polygon id="_462041216" class="fil1" points="943.792,733.068 2079.67,1868.95 2077.57,1867.88 2075.61,1866.83 2073.77,1865.8 2072.07,1864.79 2070.48,1863.79 2069,1862.79 2067.63,1861.8 2066.36,1860.8 2065.17,1859.8 2064.07,1858.79 2063.04,1857.76 927.161,721.88 928.187,722.908 929.289,723.921 930.474,724.922 931.749,725.917 933.121,726.909 934.599,727.903 936.186,728.905 937.893,729.917 939.725,730.946 941.689,731.995 "/>
     <polygon id="_462030968" class="fil1" points="907.064,689.434 2042.94,1825.32 2041.68,1825.26 2040.44,1825.12 2039.24,1824.9 2038.06,1824.61 2036.93,1824.25 2035.82,1823.83 2034.75,1823.35 2033.72,1822.82 897.835,686.938 898.87,687.471 899.94,687.949 901.045,688.369 902.183,688.727 903.354,689.017 904.559,689.234 905.795,689.375 "/>
     <polygon id="_462019184" class="fil1" points="1007.15,746.271 2143.03,1882.15 2141,1882.09 2138.96,1882.01 2136.89,1881.91 2134.82,1881.78 2132.73,1881.63 2130.64,1881.47 2128.53,1881.27 2126.43,1881.06 2124.32,1880.82 2122.21,1880.56 2120.1,1880.28 2117.99,1879.98 2115.89,1879.65 2113.79,1879.3 2111.71,1878.93 2109.63,1878.53 2107.57,1878.11 2105.53,1877.67 2103.5,1877.21 2101.49,1876.72 2099.51,1876.2 2097.55,1875.66 2095.61,1875.1 2093.7,1874.52 2091.82,1873.91 2089.98,1873.27 2088.16,1872.61 2086.38,1871.93 2084.64,1871.22 2082.95,1870.49 2081.29,1869.73 2079.67,1868.95 943.792,733.068 945.406,733.85 947.064,734.608 948.764,735.341 950.502,736.048 952.28,736.731 954.094,737.39 955.941,738.024 957.82,738.634 959.729,739.219 961.666,739.782 963.628,740.319 965.613,740.833 967.621,741.323 969.648,741.788 971.694,742.231 973.754,742.651 975.826,743.047 977.912,743.421 980.006,743.77 982.107,744.097 984.215,744.401 986.324,744.682 988.436,744.941 990.546,745.177 992.654,745.391 994.756,745.583 996.851,745.752 998.938,745.9 1001.01,746.025 1003.08,746.129 1005.12,746.21 "/>
     <path id="_462045008" class="fil1" d="M2064.01 1886.64l0 0zm-1135.88 -1135.88l0 0z"/>
     <path id="_462019280" class="fil1" d="M2113.46 1907.33l0 0zm-1135.88 -1135.88l0 0z"/>
     <path id="_462032072" class="fil1" d="M2157.11 1904.97l0 0zm-1135.88 -1135.88l0 0z"/>
     <path id="_462035408" class="fil1" d="M2157.15 1904.97l0 0zm-1135.88 -1135.88l0 0z"/>
     <path id="_462044792" class="fil1" d="M2157.29 1904.97l0 0zm-1135.88 -1135.88l0 0z"/>
     <path id="_462035000" class="fil1" d="M2164.89 1905.25l0 0zm-1135.88 -1135.88l0 0z"/>
     <polygon id="_462035816" class="fil1" points="1038.52,759.312 2174.4,1895.19 2174.95,1896.37 2175.6,1897.52 2176.36,1898.63 2177.24,1899.71 2178.25,1900.78 1042.37,764.893 1041.36,763.83 1040.48,762.746 1039.72,761.634 1039.07,760.491 "/>
     <path id="_462016448" class="fil1" d="M2302.54 2269.89l0 0zm-1135.88 -1135.88l0 0z"/>
     <polygon id="_462043880" class="fil1" points="1163.84,1135.27 2299.72,2271.15 2301.72,2273.55 2303.8,2276.1 2305.95,2278.8 2308.16,2281.62 2310.42,2284.56 2312.72,2287.61 2315.06,2290.74 2317.44,2293.96 2319.84,2297.23 2322.25,2300.57 2324.67,2303.94 2327.1,2307.34 2329.52,2310.75 2331.92,2314.17 2334.31,2317.58 2336.66,2320.96 2338.98,2324.31 2341.26,2327.61 2343.49,2330.84 2345.66,2334.01 2347.77,2337.09 2349.8,2340.07 2351.76,2342.93 2353.63,2345.67 2355.4,2348.28 2357.07,2350.74 2358.64,2353.03 2360.09,2355.15 2361.41,2357.07 2362.6,2358.8 2363.66,2360.32 2364.57,2361.61 1228.69,1225.73 1227.78,1224.44 1226.72,1222.92 1225.53,1221.19 1224.2,1219.26 1222.76,1217.15 1221.19,1214.85 1219.52,1212.4 1217.75,1209.79 1215.88,1207.05 1213.92,1204.18 1211.89,1201.2 1209.78,1198.13 1207.61,1194.96 1205.38,1191.72 1203.1,1188.42 1200.78,1185.08 1198.43,1181.69 1196.04,1178.29 1193.63,1174.87 1191.22,1171.45 1188.79,1168.06 1186.37,1164.68 1183.96,1161.35 1181.56,1158.07 1179.18,1154.86 1176.84,1151.72 1174.53,1148.68 1172.27,1145.74 1170.07,1142.92 1167.92,1140.22 1165.84,1137.67 "/>
     <polygon id="_462038336" class="fil1" points="900.552,926.47 2036.43,2062.35 2036.28,2062.62 2036.15,2062.86 2036.04,2063.06 2035.95,2063.23 2035.87,2063.36 2035.82,2063.46 2035.79,2063.51 2035.78,2063.53 899.896,927.65 899.906,927.631 899.939,927.574 899.992,927.479 900.066,927.347 900.159,927.18 900.271,926.977 900.402,926.741 "/>
     <polygon id="_462043472" class="fil1" points="850.052,890.801 1985.93,2026.68 1984.43,2025.84 1982.98,2025.04 1981.6,2024.27 1980.29,2023.55 1979.05,2022.87 1977.89,2022.24 1976.82,2021.66 1975.84,2021.14 1974.96,2020.66 1974.18,2020.24 1973.5,2019.88 1972.93,2019.58 1972.48,2019.35 1972.16,2019.18 1971.96,2019.07 1971.89,2019.03 836.01,883.152 836.077,883.188 836.278,883.293 836.604,883.464 837.053,883.701 837.618,884.001 838.295,884.362 839.077,884.78 839.962,885.255 840.941,885.783 842.012,886.362 843.168,886.992 844.405,887.669 845.716,888.39 847.098,889.153 848.545,889.959 "/>
     <polygon id="_462037280" class="fil1" points="889.645,920.567 2025.53,2056.45 2022.59,2060.2 2019.85,2064.2 2017.32,2068.44 2014.98,2072.9 2012.82,2077.54 2010.84,2082.36 2009.02,2087.33 2007.37,2092.43 2005.88,2097.64 2004.53,2102.94 2003.33,2108.3 2002.25,2113.71 2001.3,2119.15 2000.47,2124.59 1999.75,2130.01 1999.13,2135.39 1998.6,2140.72 1998.17,2145.96 1997.81,2151.1 1997.53,2156.12 1997.31,2161 1997.15,2165.71 1997.04,2170.24 1996.98,2174.56 1996.95,2178.65 1996.95,2182.49 1996.97,2186.07 1997,2189.35 1997.04,2192.32 1997.08,2194.96 1997.11,2197.25 1997.12,2199.16 861.24,1063.28 861.227,1061.36 861.198,1059.08 861.159,1056.44 861.12,1053.47 861.086,1050.19 861.066,1046.61 861.067,1042.77 861.096,1038.67 861.161,1034.35 861.27,1029.83 861.429,1025.11 861.647,1020.24 861.93,1015.22 862.286,1010.08 862.722,1004.83 863.246,999.509 863.866,994.125 864.588,988.704 865.42,983.265 866.37,977.831 867.445,972.42 868.652,967.057 869.999,961.759 871.494,956.55 873.144,951.45 874.954,946.479 876.936,941.661 879.094,937.013 881.436,932.559 883.971,928.32 886.704,924.315 "/>
     <polygon id="_462044744" class="fil1" points="1094.93,1202.59 2230.82,2338.47 2156.81,2274.31 1020.93,1138.43 "/>
     <polygon id="_462043208" class="fil1" points="911.538,1077.16 2047.42,2213.04 2046.34,2212.53 2045.25,2212.01 2044.15,2211.46 2043.02,2210.89 2041.89,2210.31 2040.73,2209.7 2039.56,2209.07 2038.38,2208.42 902.498,1072.54 903.683,1073.19 904.853,1073.82 906.005,1074.42 907.143,1075.01 908.265,1075.58 909.372,1076.13 910.462,1076.65 "/>
     <polygon id="_462016640" class="fil1" points="861.24,1063.28 1997.12,2199.16 1998.39,2200.46 1999.68,2201.78 2000.97,2203.13 2002.26,2204.5 2003.56,2205.89 2004.86,2207.3 2006.17,2208.74 2007.46,2210.19 2008.76,2211.66 2010.04,2213.15 2011.32,2214.65 2012.58,2216.18 2013.83,2217.71 2015.06,2219.26 2016.27,2220.83 2017.47,2222.4 2018.64,2223.99 2019.78,2225.59 2020.9,2227.2 2021.99,2228.82 2023.04,2230.45 2024.06,2232.08 2025.04,2233.72 2025.99,2235.36 2026.89,2237.02 2027.75,2238.67 2028.56,2240.33 2029.33,2241.99 2030.05,2243.65 2030.71,2245.31 2031.32,2246.97 2031.87,2248.63 895.991,1112.75 895.438,1111.09 894.83,1109.43 894.165,1107.77 893.449,1106.1 892.683,1104.44 891.869,1102.79 891.009,1101.13 890.105,1099.48 889.161,1097.84 888.178,1096.2 887.157,1094.56 886.104,1092.94 885.017,1091.32 883.9,1089.71 882.755,1088.11 881.586,1086.52 880.393,1084.94 879.179,1083.38 877.947,1081.83 876.698,1080.29 875.435,1078.77 874.159,1077.27 872.874,1075.78 871.582,1074.31 870.284,1072.85 868.983,1071.42 867.681,1070.01 866.382,1068.61 865.085,1067.24 863.794,1065.9 862.512,1064.57 "/>
     <polygon id="_462038216" class="fil1" points="895.991,1112.75 2031.87,2248.63 2032.3,2250.04 2032.28,2251.84 2031.78,2253.86 2030.78,2255.93 2029.25,2257.85 2027.17,2259.45 2024.51,2260.55 2021.26,2260.97 885.374,1125.08 888.633,1124.67 891.29,1123.57 893.371,1121.97 894.9,1120.04 895.901,1117.98 896.401,1115.96 896.422,1114.15 "/>
     <polygon id="_462041672" class="fil1" points="1020.93,1138.43 2156.81,2274.31 2137.54,2360.46 1001.66,1224.58 "/>
     <polygon id="_462013352" class="fil1" points="1097.78,1195.95 2233.66,2331.83 2232.96,2333.3 2232.37,2334.61 2231.88,2335.75 2231.49,2336.7 2231.19,2337.46 2230.98,2338.02 2230.86,2338.36 2230.82,2338.47 1094.93,1202.59 1094.97,1202.48 1095.1,1202.14 1095.31,1201.58 1095.61,1200.82 1096,1199.87 1096.49,1198.73 1097.08,1197.42 "/>
     <polygon id="_462019016" class="fil1" points="1150.04,1253.55 2285.92,2389.43 2286.43,2391.55 2286.96,2393.71 2287.5,2395.93 2288.04,2398.17 2288.59,2400.44 2289.14,2402.71 2289.7,2404.99 2290.26,2407.25 2290.81,2409.49 2291.37,2411.69 2291.92,2413.85 2292.47,2415.95 2293.02,2417.98 2293.55,2419.93 2294.08,2421.79 2294.59,2423.54 1158.71,1287.66 1158.2,1285.91 1157.67,1284.05 1157.14,1282.1 1156.59,1280.07 1156.04,1277.97 1155.49,1275.81 1154.93,1273.61 1154.38,1271.37 1153.82,1269.11 1153.26,1266.83 1152.71,1264.55 1152.16,1262.29 1151.61,1260.04 1151.08,1257.83 1150.55,1255.66 "/>
     <polygon id="_462015872" class="fil1" points="1100.87,1242.2 2236.76,2378.09 2234.88,2376.28 2232.95,2374.57 2231,2372.96 2229.06,2371.48 2227.2,2370.12 2225.44,2368.91 2223.83,2367.86 2222.42,2366.97 2221.25,2366.25 2220.35,2365.73 2219.79,2365.4 2219.59,2365.3 1083.71,1229.41 1083.91,1229.52 1084.47,1229.85 1085.37,1230.37 1086.54,1231.08 1087.95,1231.97 1089.56,1233.03 1091.31,1234.24 1093.18,1235.6 1095.12,1237.08 1097.07,1238.68 1099,1240.4 "/>
     <polygon id="_462038480" class="fil1" points="1001.66,1224.58 2137.54,2360.46 2137.44,2360.5 2137.14,2360.62 2136.64,2360.82 2135.97,2361.08 2135.11,2361.4 2134.1,2361.78 2132.93,2362.21 2131.61,2362.69 995.724,1226.81 997.045,1226.33 998.218,1225.9 999.233,1225.52 1000.09,1225.19 1000.76,1224.93 1001.26,1224.74 1001.56,1224.62 "/>
     <polygon id="_462036608" class="fil1" points="854.956,1130.29 1990.84,2266.17 1990.46,2266.47 1990.19,2267.11 1989.99,2268.03 1989.84,2269.18 1989.7,2270.53 1989.54,2272.02 1989.34,2273.6 1989.05,2275.23 1988.65,2276.86 1988.12,2278.44 1987.41,2279.92 1986.5,2281.27 1985.35,2282.42 1983.94,2283.33 1982.24,2283.97 1980.21,2284.26 844.327,1148.38 846.356,1148.08 848.06,1147.45 849.47,1146.54 850.614,1145.38 851.526,1144.04 852.235,1142.55 852.772,1140.97 853.169,1139.35 853.455,1137.72 853.661,1136.14 853.818,1134.65 853.959,1133.3 854.111,1132.15 854.309,1131.23 854.579,1130.59 "/>
     <polygon id="_462024656" class="fil1" points="912.468,1226.78 2048.35,2362.66 2046.54,2361.31 2044.83,2359.96 2043.23,2358.63 2041.73,2357.33 2040.34,2356.06 904.459,1220.18 905.85,1221.45 907.347,1222.75 908.951,1224.08 910.659,1225.42 "/>
     <polygon id="_462039608" class="fil1" points="865.748,1141.48 2001.63,2277.36 1999.16,2276.54 1997.22,2275.71 1995.69,2274.78 1994.47,2273.69 858.592,1137.81 859.804,1138.9 861.335,1139.82 863.284,1140.66 "/>
     <polygon id="_462015368" class="fil1" points="985.65,1413.88 2121.53,2549.76 2121.53,2550.76 2121.51,2551.8 2121.49,2552.89 2121.45,2554.03 2121.41,2555.2 2121.35,2556.42 2121.29,2557.67 2121.22,2558.95 2121.13,2560.27 2121.03,2561.61 2120.93,2562.99 2120.81,2564.39 2120.68,2565.81 2120.54,2567.25 2120.39,2568.72 2120.22,2570.19 2120.05,2571.69 2119.86,2573.19 2119.66,2574.7 2119.45,2576.22 2119.23,2577.75 2118.99,2579.28 2118.74,2580.81 2118.48,2582.33 2118.21,2583.86 2117.92,2585.37 2117.62,2586.88 2117.31,2588.38 2116.98,2589.86 2116.65,2591.33 2116.29,2592.79 2115.93,2594.22 980.044,1458.33 980.411,1456.9 980.765,1455.45 981.104,1453.98 981.429,1452.5 981.742,1451 982.042,1449.49 982.329,1447.97 982.602,1446.45 982.863,1444.92 983.111,1443.39 983.348,1441.87 983.571,1440.34 983.781,1438.82 983.981,1437.31 984.167,1435.8 984.342,1434.31 984.506,1432.83 984.657,1431.37 984.798,1429.93 984.928,1428.51 985.046,1427.11 985.152,1425.73 985.249,1424.39 985.334,1423.07 985.41,1421.78 985.474,1420.53 985.528,1419.32 985.573,1418.15 985.606,1417.01 985.631,1415.92 985.645,1414.88 "/>
     <polygon id="_462017984" class="fil1" points="980.044,1458.33 2115.93,2594.22 2115.67,2595.2 2115.41,2596.31 2115.13,2597.52 2114.84,2598.83 2114.54,2600.24 2114.23,2601.73 2113.91,2603.31 2113.58,2604.95 2113.24,2606.67 2112.89,2608.45 2112.54,2610.27 2112.19,2612.15 2111.82,2614.06 2111.46,2616 2111.09,2617.97 2110.72,2619.95 2110.34,2621.95 2109.97,2623.95 2109.59,2625.94 2109.22,2627.93 2108.85,2629.9 2108.48,2631.84 2108.11,2633.75 2107.75,2635.62 2107.39,2637.45 2107.04,2639.23 2106.69,2640.94 2106.35,2642.59 2106.03,2644.17 2105.7,2645.66 2105.39,2647.07 2105.09,2648.38 969.21,1512.5 969.511,1511.19 969.823,1509.78 970.144,1508.29 970.474,1506.71 970.811,1505.06 971.157,1503.34 971.509,1501.57 971.867,1499.74 972.229,1497.87 972.596,1495.96 972.966,1494.01 973.338,1492.05 973.711,1490.06 974.085,1488.07 974.46,1486.07 974.834,1484.07 975.206,1482.09 975.576,1480.12 975.942,1478.17 976.305,1476.26 976.661,1474.39 977.013,1472.56 977.359,1470.79 977.697,1469.07 978.028,1467.42 978.348,1465.85 978.66,1464.35 978.961,1462.95 979.25,1461.63 979.528,1460.42 979.794,1459.32 "/>
     <polygon id="_462022592" class="fil1" points="969.21,1512.5 2105.09,2648.38 2105.08,2648.42 2105.07,2648.46 2105.06,2648.5 2105.05,2648.55 2105.04,2648.59 2105.03,2648.63 2105.02,2648.67 2105.02,2648.71 969.134,1512.83 969.144,1512.79 969.153,1512.75 969.163,1512.7 969.172,1512.66 969.181,1512.62 969.191,1512.58 969.2,1512.54 "/>
     <polygon id="_462038648" class="fil1" points="973.637,1515.7 2109.52,2651.58 2110.25,2652.29 2110.99,2653.09 2111.74,2653.99 2112.49,2654.98 2113.24,2656.09 2113.98,2657.31 2114.71,2658.65 2115.42,2660.11 2116.12,2661.7 980.237,1525.82 979.542,1524.23 978.829,1522.77 978.1,1521.43 977.359,1520.21 976.612,1519.1 975.862,1518.1 975.113,1517.21 974.37,1516.41 "/>
     <polygon id="_462041912" class="fil1" points="980.237,1525.82 2116.12,2661.7 2116.63,2663.01 2117.12,2664.4 2117.59,2665.86 2118.03,2667.38 2118.45,2668.95 2118.86,2670.57 2119.24,2672.22 2119.6,2673.91 2119.94,2675.61 2120.26,2677.33 2120.56,2679.06 2120.85,2680.79 2121.11,2682.51 2121.36,2684.21 2121.59,2685.89 2121.8,2687.53 2122,2689.14 2122.18,2690.7 2122.35,2692.2 2122.5,2693.64 2122.64,2695.01 2122.76,2696.3 2122.87,2697.51 2122.96,2698.62 2123.04,2699.63 2123.11,2700.53 2123.17,2701.31 2123.22,2701.97 2123.25,2702.49 2123.28,2702.88 2123.29,2703.11 2123.3,2703.19 987.417,1567.31 987.412,1567.23 987.398,1566.99 987.373,1566.61 987.337,1566.08 987.291,1565.43 987.232,1564.64 987.163,1563.74 987.081,1562.74 986.985,1561.62 986.877,1560.42 986.755,1559.13 986.618,1557.76 986.467,1556.32 986.302,1554.81 986.12,1553.26 985.922,1551.65 985.709,1550.01 985.478,1548.33 985.23,1546.63 984.965,1544.91 984.681,1543.18 984.379,1541.45 984.057,1539.73 983.716,1538.02 983.356,1536.34 982.974,1534.68 982.573,1533.07 982.15,1531.5 981.705,1529.98 981.238,1528.52 980.749,1527.13 "/>
     <polygon id="_462038504" class="fil1" points="987.417,1567.31 2123.3,2703.19 2111.86,2704.54 975.982,1568.66 "/>
     <polygon id="_462030608" class="fil1" points="975.982,1568.66 2111.86,2704.54 2112.04,2704.86 2112.2,2705.2 2112.34,2705.55 2112.46,2705.91 2112.55,2706.27 2112.62,2706.65 2112.66,2707.03 2112.68,2707.42 976.796,1571.54 976.782,1571.15 976.739,1570.77 976.671,1570.39 976.578,1570.03 976.461,1569.67 976.321,1569.32 976.162,1568.98 "/>
     <polygon id="_462033416" class="fil1" points="964.575,1570 2100.46,2705.88 2082.6,2707.98 946.723,1572.1 "/>
     <polygon id="_462040712" class="fil1" points="970.566,1577.5 2106.45,2713.38 2105.19,2713.26 2104.02,2712.92 2102.97,2712.37 2102.04,2711.64 966.164,1575.76 967.085,1576.48 968.143,1577.03 969.311,1577.38 "/>
     <polygon id="_462030032" class="fil1" points="976.796,1571.54 2112.68,2707.42 2112.55,2708.63 2112.19,2709.74 2111.61,2710.76 2110.85,2711.64 2109.93,2712.37 2108.87,2712.92 2107.7,2713.26 2106.45,2713.38 970.566,1577.5 971.821,1577.38 972.991,1577.03 974.048,1576.48 974.969,1575.76 975.729,1574.87 976.305,1573.86 976.668,1572.74 "/>
     <polygon id="_462017432" class="fil1" points="946.723,1572.1 2082.6,2707.98 2081.64,2708.09 2080.68,2708.21 2079.74,2708.32 2078.81,2708.44 2077.88,2708.55 2076.97,2708.66 2076.06,2708.78 2075.16,2708.89 939.277,1573.01 940.178,1572.89 941.087,1572.78 942.002,1572.67 942.926,1572.55 943.86,1572.44 944.802,1572.32 945.757,1572.21 "/>
     <polygon id="_462041720" class="fil1" points="939.277,1573.01 2075.16,2708.89 2075.31,2709.15 2075.44,2709.43 2075.56,2709.71 2075.66,2710 2075.74,2710.29 2075.8,2710.6 2075.83,2710.9 2075.84,2711.22 939.963,1575.34 939.952,1575.02 939.916,1574.71 939.858,1574.41 939.779,1574.12 939.681,1573.83 939.563,1573.54 939.428,1573.27 "/>
     <polygon id="_462036848" class="fil1" points="929.26,1574.3 2065.14,2710.18 2062.89,2710.48 2060.68,2710.76 2058.51,2711.04 2056.37,2711.31 2054.25,2711.57 2052.16,2711.82 2050.08,2712.06 2048.02,2712.28 2045.96,2712.49 2043.91,2712.69 2041.85,2712.87 2039.79,2713.04 2037.71,2713.19 2035.62,2713.32 2033.51,2713.43 2031.38,2713.52 895.497,1577.64 897.633,1577.55 899.743,1577.44 901.833,1577.3 903.907,1577.16 905.969,1576.99 908.024,1576.81 910.078,1576.61 912.134,1576.4 914.199,1576.18 916.275,1575.94 918.368,1575.69 920.485,1575.43 922.626,1575.16 924.8,1574.88 927.01,1574.59 "/>
     <polygon id="_462025904" class="fil1" points="934.546,1580.21 2070.43,2716.1 2069.33,2716 2068.32,2715.71 2067.4,2715.26 2066.6,2714.67 930.714,1578.78 931.516,1579.38 932.436,1579.83 933.453,1580.11 "/>
     <polygon id="_462024440" class="fil1" points="939.963,1575.34 2075.84,2711.22 2075.73,2712.2 2075.42,2713.12 2074.92,2713.94 2074.26,2714.67 2073.46,2715.26 2072.54,2715.71 2071.52,2716 2070.43,2716.1 934.546,1580.21 935.637,1580.11 936.654,1579.83 937.574,1579.38 938.376,1578.78 939.039,1578.06 939.537,1577.23 939.853,1576.32 "/>
     <polygon id="_462014384" class="fil1" points="895.497,1577.64 2031.38,2713.52 2031.51,2713.75 2031.62,2713.99 2031.72,2714.24 2031.81,2714.49 2031.88,2714.75 2031.93,2715.01 2031.96,2715.28 2031.97,2715.55 896.087,1579.67 896.076,1579.39 896.045,1579.13 895.996,1578.86 895.927,1578.61 895.842,1578.36 895.742,1578.11 895.626,1577.87 "/>
     <polygon id="_462040664" class="fil1" points="886.835,1577.8 2022.72,2713.68 2021.85,2713.68 2020.98,2713.67 2020.1,2713.66 2019.21,2713.65 2018.32,2713.64 2017.42,2713.62 2016.51,2713.59 2015.58,2713.56 879.703,1577.68 880.625,1577.71 881.535,1577.73 882.438,1577.75 883.331,1577.77 884.218,1577.78 885.096,1577.79 885.968,1577.79 "/>
     <polygon id="_462035648" class="fil1" points="891.211,1584 2027.09,2719.88 2026.11,2719.8 2025.19,2719.54 2024.37,2719.14 2023.64,2718.62 887.763,1582.73 888.485,1583.26 889.313,1583.66 890.228,1583.91 "/>
     <polygon id="_462044768" class="fil1" points="896.087,1579.67 2031.97,2715.55 2031.87,2716.42 2031.59,2717.24 2031.14,2717.97 2030.54,2718.62 2029.82,2719.14 2028.99,2719.54 2028.07,2719.8 2027.09,2719.88 891.211,1584 892.194,1583.91 893.109,1583.66 893.938,1583.26 894.659,1582.73 895.254,1582.09 895.704,1581.36 895.987,1580.54 "/>
     <polygon id="_462043184" class="fil1" points="879.703,1577.68 2015.58,2713.56 2014.06,2713.51 2012.55,2713.45 2011.06,2713.39 2009.6,2713.32 2008.16,2713.24 2006.74,2713.16 2005.35,2713.07 2003.98,2712.98 2002.63,2712.89 2001.31,2712.79 2000.02,2712.68 1998.75,2712.57 1997.51,2712.46 1996.29,2712.34 1995.11,2712.22 1993.95,2712.1 858.069,1576.21 859.227,1576.34 860.414,1576.46 861.627,1576.58 862.868,1576.69 864.135,1576.8 865.43,1576.9 866.749,1577 868.094,1577.1 869.464,1577.19 870.858,1577.28 872.275,1577.36 873.716,1577.44 875.181,1577.51 876.667,1577.57 878.174,1577.63 "/>
     <polygon id="_462018608" class="fil1" points="858.069,1576.21 1993.95,2712.1 1994.09,2712.33 1994.22,2712.57 1994.33,2712.83 1994.42,2713.09 1994.49,2713.36 1994.55,2713.63 1994.58,2713.91 1994.59,2714.2 858.712,1578.31 858.7,1578.03 858.667,1577.75 858.614,1577.47 858.539,1577.21 858.447,1576.95 858.337,1576.69 858.211,1576.45 "/>
     <polygon id="_462024368" class="fil1" points="851.431,1575.35 1987.31,2711.23 1984.4,2710.75 1981.85,2710.25 1979.66,2709.74 1977.86,2709.22 1976.47,2708.7 1975.49,2708.18 839.612,1572.3 840.584,1572.81 841.979,1573.34 843.779,1573.86 845.965,1574.37 848.522,1574.87 "/>
     <polygon id="_462036464" class="fil1" points="854.378,1582.38 1990.26,2718.26 1989.39,2718.18 1988.57,2717.94 1987.84,2717.57 1987.19,2717.07 851.313,1581.19 851.955,1581.69 852.69,1582.06 853.504,1582.3 "/>
     <polygon id="_462031520" class="fil1" points="858.712,1578.31 1994.59,2714.2 1994.5,2715.02 1994.25,2715.78 1993.85,2716.47 1993.32,2717.07 1992.68,2717.57 1991.94,2717.94 1991.13,2718.18 1990.26,2718.26 854.378,1582.38 855.251,1582.3 856.064,1582.06 856.799,1581.69 857.44,1581.19 857.969,1580.59 858.369,1579.9 858.622,1579.13 "/>
     <polygon id="_462028184" class="fil1" points="877.027,1116.85 2012.91,2252.73 2013.11,2253.66 2013.34,2255.03 2013.57,2256.77 2013.76,2258.79 2013.88,2261.02 2013.91,2263.39 2013.8,2265.81 2013.53,2268.21 2013.06,2270.51 2012.37,2272.64 2011.41,2274.51 2010.17,2276.05 2008.6,2277.18 2006.67,2277.83 2004.36,2277.92 2001.63,2277.36 865.748,1141.48 868.479,1142.03 870.791,1141.95 872.716,1141.3 874.286,1140.17 875.532,1138.63 876.486,1136.76 877.181,1134.63 877.647,1132.33 877.919,1129.93 878.026,1127.51 878.003,1125.14 877.88,1122.91 877.688,1120.89 877.461,1119.15 877.23,1117.78 "/>
     <polygon id="_462038912" class="fil1" points="1156.32,1317.18 2292.2,2453.06 2291.75,2453.92 2291.01,2454.71 2290.03,2455.41 2288.84,2456.03 2287.48,2456.57 2285.99,2457.02 2284.39,2457.38 2282.72,2457.65 2281.03,2457.83 2279.35,2457.91 2277.71,2457.89 2276.15,2457.78 2274.71,2457.56 2273.42,2457.23 2272.33,2456.8 2271.45,2456.26 1135.57,1320.37 1136.44,1320.92 1137.54,1321.35 1138.83,1321.67 1140.27,1321.89 1141.83,1322.01 1143.47,1322.03 1145.15,1321.95 1146.84,1321.77 1148.5,1321.5 1150.1,1321.14 1151.6,1320.69 1152.96,1320.15 1154.15,1319.53 1155.13,1318.82 1155.87,1318.04 "/>
     <polygon id="_462037424" class="fil1" points="899.896,927.65 2035.78,2063.53 2035.37,2063.52 2034.67,2063.21 2033.7,2062.63 2032.48,2061.81 2031.02,2060.75 2029.37,2059.49 2027.53,2058.05 2025.53,2056.45 889.645,920.567 891.646,922.169 893.486,923.611 895.143,924.87 896.594,925.924 897.818,926.752 898.791,927.329 899.49,927.636 "/>
     <polygon id="_462030632" class="fil1" points="1228.69,1225.73 2364.57,2361.61 2366.32,2364.21 2367.86,2366.77 2369.2,2369.29 2370.33,2371.76 2371.27,2374.19 2372.01,2376.57 2372.57,2378.91 2372.95,2381.19 2373.15,2383.43 2373.19,2385.61 2373.06,2387.75 2372.77,2389.83 2372.34,2391.86 2371.75,2393.83 2371.03,2395.75 2370.17,2397.61 2369.18,2399.41 2368.07,2401.15 2366.84,2402.83 2365.5,2404.45 2364.05,2406.01 2362.5,2407.51 2360.85,2408.94 2359.11,2410.3 2357.29,2411.6 2355.39,2412.83 2353.42,2413.99 2351.38,2415.08 2349.27,2416.1 2347.11,2417.04 2344.9,2417.92 2342.65,2418.72 1206.77,1282.83 1209.02,1282.04 1211.23,1281.16 1213.39,1280.22 1215.49,1279.2 1217.54,1278.11 1219.51,1276.95 1221.41,1275.72 1223.23,1274.42 1224.97,1273.06 1226.62,1271.63 1228.17,1270.13 1229.62,1268.57 1230.96,1266.95 1232.19,1265.27 1233.3,1263.53 1234.29,1261.73 1235.15,1259.87 1235.87,1257.95 1236.46,1255.98 1236.89,1253.95 1237.18,1251.87 1237.3,1249.73 1237.27,1247.55 1237.07,1245.31 1236.69,1243.02 1236.13,1240.69 1235.38,1238.31 1234.45,1235.88 1233.32,1233.41 1231.98,1230.89 1230.44,1228.33 "/>
     <polygon id="_462020264" class="fil1" points="1206.77,1282.83 2342.65,2418.72 2341.93,2418.74 2341.17,2418.71 2340.36,2418.61 2339.51,2418.46 2338.62,2418.26 2337.7,2418 2336.73,2417.68 2335.73,2417.32 2334.69,2416.9 2333.61,2416.43 2332.51,2415.92 2331.36,2415.36 2330.19,2414.75 2328.99,2414.1 2327.76,2413.4 2326.5,2412.67 2325.21,2411.89 2323.9,2411.08 2322.56,2410.22 2321.2,2409.34 2319.82,2408.41 2318.42,2407.46 2317,2406.47 2315.55,2405.45 2314.1,2404.4 2312.62,2403.32 2311.13,2402.21 2309.63,2401.08 2308.11,2399.93 2306.58,2398.75 2305.04,2397.55 2303.5,2396.33 1167.61,1260.45 1169.16,1261.67 1170.7,1262.87 1172.23,1264.04 1173.75,1265.2 1175.25,1266.33 1176.74,1267.44 1178.21,1268.51 1179.67,1269.56 1181.12,1270.58 1182.54,1271.57 1183.94,1272.53 1185.32,1273.45 1186.68,1274.34 1188.02,1275.19 1189.33,1276.01 1190.62,1276.78 1191.88,1277.52 1193.11,1278.21 1194.31,1278.87 1195.48,1279.47 1196.62,1280.03 1197.73,1280.55 1198.81,1281.02 1199.85,1281.43 1200.85,1281.8 1201.82,1282.11 1202.74,1282.38 1203.63,1282.58 1204.48,1282.73 1205.29,1282.83 1206.05,1282.86 "/>
     <polygon id="_462033944" class="fil1" points="1135.57,1320.37 2271.45,2456.26 2270.62,2455.53 1134.74,1319.65 "/>
     <polygon id="_462039632" class="fil1" points="1158.71,1287.66 2294.59,2423.54 2295.37,2426.45 2295.93,2429.2 2296.29,2431.78 2296.46,2434.21 2296.48,2436.5 2296.36,2438.63 2296.12,2440.63 2295.79,2442.49 2295.38,2444.22 2294.92,2445.83 2294.43,2447.31 2293.92,2448.68 2293.42,2449.93 2292.96,2451.07 2292.54,2452.12 2292.2,2453.06 1156.32,1317.18 1156.66,1316.23 1157.07,1315.19 1157.54,1314.05 1158.04,1312.79 1158.54,1311.43 1159.04,1309.95 1159.5,1308.34 1159.91,1306.61 1160.24,1304.75 1160.48,1302.75 1160.6,1300.61 1160.58,1298.33 1160.41,1295.9 1160.05,1293.32 1159.49,1290.57 "/>
     <polygon id="_462031832" class="fil1" points="885.374,1125.08 2021.26,2260.97 2018.99,2260.87 2017.53,2260.56 2016.65,2259.99 880.771,1124.11 881.649,1124.67 883.107,1124.99 "/>
     <polygon id="_462018272" class="fil1" points="995.724,1226.81 2131.61,2362.69 2131.25,2364.86 2130.89,2366.98 2130.53,2369.07 2130.18,2371.1 2129.84,2373.09 2129.51,2375.02 2129.19,2376.88 2128.88,2378.69 2128.6,2380.42 2128.33,2382.08 2128.08,2383.66 2127.86,2385.15 2127.67,2386.56 2127.5,2387.88 2127.37,2389.09 2127.27,2390.21 991.386,1254.33 991.485,1253.21 991.619,1251.99 991.784,1250.68 991.979,1249.27 992.201,1247.77 992.447,1246.2 992.715,1244.54 993.002,1242.8 993.308,1241 993.628,1239.13 993.96,1237.21 994.302,1235.22 994.652,1233.18 995.007,1231.1 995.365,1228.97 "/>
     <polygon id="_462044408" class="fil1" points="844.327,1148.38 1980.21,2284.26 1978.14,2284.16 1976.23,2283.63 1974.48,2282.73 1972.87,2281.48 836.985,1145.6 838.596,1146.85 840.35,1147.75 842.258,1148.27 "/>
     <polygon id="_462045200" class="fil1" points="991.386,1254.33 2127.27,2390.21 2126.87,2394.91 2126.41,2399.52 2125.89,2404.05 2125.31,2408.5 2124.69,2412.88 2124.02,2417.19 2123.3,2421.44 2122.56,2425.63 2121.78,2429.77 2120.98,2433.87 2120.15,2437.93 2119.31,2441.95 2118.46,2445.95 2117.6,2449.92 2116.73,2453.87 2115.87,2457.81 2115.01,2461.75 2114.17,2465.68 2113.35,2469.62 2112.54,2473.56 2111.76,2477.52 2111.01,2481.51 2110.3,2485.51 2109.63,2489.55 2109,2493.62 2108.42,2497.74 2107.89,2501.9 2107.43,2506.12 2107.03,2510.39 2106.69,2514.73 2106.44,2519.14 2106.25,2523.62 970.372,1387.74 970.554,1383.26 970.814,1378.85 971.147,1374.51 971.548,1370.24 972.014,1366.02 972.538,1361.86 973.117,1357.74 973.745,1353.67 974.418,1349.63 975.132,1345.62 975.881,1341.64 976.659,1337.68 977.465,1333.73 978.291,1329.8 979.133,1325.87 979.989,1321.93 980.85,1317.99 981.714,1314.04 982.575,1310.06 983.429,1306.07 984.27,1302.04 985.096,1297.99 985.9,1293.89 986.677,1289.75 987.424,1285.55 988.135,1281.3 988.805,1276.99 989.43,1272.62 990.007,1268.17 990.528,1263.64 990.988,1259.03 "/>
     <polygon id="_462021416" class="fil1" points="976.064,1389.45 2111.94,2525.33 2112.91,2526.28 2113.89,2527.43 2114.86,2528.78 2115.81,2530.29 2116.73,2531.95 2117.6,2533.73 2118.42,2535.61 2119.17,2537.56 2119.84,2539.58 2120.42,2541.63 2120.89,2543.7 2121.24,2545.75 2121.46,2547.78 2121.53,2549.76 985.65,1413.88 985.574,1411.9 985.354,1409.87 985.005,1407.81 984.536,1405.75 983.961,1403.7 983.292,1401.68 982.542,1399.72 981.724,1397.85 980.848,1396.07 979.929,1394.41 978.98,1392.9 978.01,1391.55 977.033,1390.39 "/>
     <polygon id="_462025808" class="fil1" points="1167.61,1260.45 2303.5,2396.33 2302.33,2395.9 2301.17,2395.48 2300.02,2395.05 2298.87,2394.62 2297.72,2394.19 2296.59,2393.75 2295.46,2393.32 2294.34,2392.88 2293.23,2392.45 2292.14,2392.01 2291.06,2391.58 2290,2391.15 2288.95,2390.72 2287.92,2390.29 2286.91,2389.86 2285.92,2389.43 1150.04,1253.55 1151.03,1253.98 1152.04,1254.4 1153.07,1254.83 1154.11,1255.26 1155.18,1255.7 1156.26,1256.13 1157.35,1256.57 1158.46,1257 1159.58,1257.44 1160.71,1257.87 1161.84,1258.3 1162.99,1258.73 1164.14,1259.17 1165.29,1259.59 1166.45,1260.02 "/>
     <polygon id="_462039248" class="fil1" points="1148.43,820.556 2284.31,1956.44 2285.68,1957.9 2286.99,1959.31 2288.22,1960.65 2289.37,1961.93 2290.43,1963.13 2291.39,1964.24 2292.25,1965.26 2293,1966.18 2293.63,1966.99 2294.13,1967.69 1158.25,831.809 1157.75,831.11 1157.12,830.298 1156.37,829.377 1155.51,828.356 1154.55,827.244 1153.49,826.045 1152.34,824.77 1151.1,823.425 1149.8,822.017 "/>
     <polygon id="_462023192" class="fil1" points="1158.25,831.809 2294.13,1967.69 2295.1,1969.05 2296.23,1970.55 2297.5,1972.16 2298.86,1973.85 2300.3,1975.59 2301.77,1977.34 2303.25,1979.08 2304.71,1980.77 2306.11,1982.38 2307.43,1983.87 2308.63,1985.23 2309.68,1986.41 2310.55,1987.38 2311.21,1988.11 2311.64,1988.58 2311.78,1988.74 1175.9,852.858 1175.75,852.696 1175.33,852.232 1174.67,851.499 1173.8,850.525 1172.75,849.346 1171.55,847.991 1170.23,846.493 1168.83,844.883 1167.37,843.194 1165.89,841.457 1164.42,839.704 1162.98,837.966 1161.62,836.275 1160.35,834.666 1159.22,833.166 "/>
     <polygon id="_462035360" class="fil1" points="1175.9,852.858 2311.78,1988.74 2311.57,1988.95 2310.96,1989.55 2310.01,1990.48 2308.77,1991.7 2307.29,1993.13 2305.63,1994.74 2303.84,1996.46 2301.97,1998.25 1166.09,862.364 1167.96,860.579 1169.75,858.857 1171.41,857.249 1172.89,855.813 1174.13,854.601 1175.08,853.67 1175.69,853.07 "/>
     <path id="_462015416" class="fil1" d="M2183.47 1904.71l0 0zm-1135.88 -1135.88l0 0z"/>
     <polygon id="_462026240" class="fil1" points="1190.7,1049.16 2326.58,2185.04 2326.25,2186.87 2325.92,2188.72 2325.59,2190.58 2325.25,2192.46 2324.91,2194.36 2324.57,2196.26 2324.22,2198.17 2323.86,2200.1 2323.49,2202.02 2323.12,2203.95 2322.73,2205.87 2322.33,2207.8 2321.92,2209.72 2321.5,2211.64 2321.06,2213.55 2320.6,2215.45 1184.72,1079.57 1185.18,1077.67 1185.62,1075.76 1186.04,1073.84 1186.45,1071.92 1186.85,1069.99 1187.23,1068.06 1187.61,1066.14 1187.98,1064.21 1188.34,1062.29 1188.69,1060.38 1189.03,1058.48 1189.37,1056.58 1189.71,1054.7 1190.04,1052.84 1190.37,1050.99 "/>
     <polygon id="_462012608" class="fil1" points="1157.25,1092.72 2293.13,2228.6 2292.78,2228.31 1156.9,1092.42 "/>
     <polygon id="_462029336" class="fil1" points="1156.9,1092.42 2292.78,2228.31 2292.01,2230.5 2291.3,2232.33 2290.6,2233.84 2289.84,2235.1 2288.95,2236.15 2287.87,2237.03 2286.55,2237.81 2284.92,2238.53 1149.03,1102.64 1150.67,1101.93 1151.99,1101.15 1153.07,1100.26 1153.96,1099.22 1154.72,1097.96 1155.42,1096.44 1156.13,1094.61 "/>
     <polygon id="_462019976" class="fil1" points="1184.72,1079.57 2320.6,2215.45 2320.01,2217.91 2319.39,2220.47 2318.73,2223.08 2318.02,2225.72 2317.26,2228.35 2316.44,2230.93 2315.55,2233.43 2314.57,2235.81 2313.51,2238.02 2312.34,2240.05 2311.07,2241.85 2309.68,2243.38 2308.16,2244.6 2306.51,2245.49 2304.72,2246.01 2302.77,2246.11 1166.89,1110.23 1168.84,1110.13 1170.63,1109.61 1172.28,1108.72 1173.8,1107.49 1175.19,1105.96 1176.46,1104.17 1177.62,1102.14 1178.69,1099.92 1179.67,1097.55 1180.56,1095.05 1181.38,1092.47 1182.14,1089.84 1182.85,1087.2 1183.5,1084.58 1184.13,1082.03 "/>
     <polygon id="_462032360" class="fil1" points="1166.89,1110.23 2302.77,2246.11 2300.86,2245.82 2299.26,2245.2 2297.94,2244.3 1162.06,1108.42 1163.38,1109.32 1164.98,1109.94 "/>
     <polygon id="_462041864" class="fil1" points="1149.03,1102.64 2284.92,2238.53 2286.86,2241.64 2288.71,2244.69 2290.47,2247.65 2292.14,2250.5 2293.69,2253.23 2295.14,2255.82 2296.48,2258.24 2297.7,2260.49 2298.79,2262.55 2299.76,2264.39 2300.59,2265.99 2301.28,2267.34 2301.82,2268.43 2302.22,2269.23 2302.46,2269.72 2302.54,2269.89 1166.66,1134 1166.58,1133.84 1166.34,1133.34 1165.94,1132.55 1165.4,1131.46 1164.71,1130.11 1163.88,1128.5 1162.91,1126.67 1161.82,1124.61 1160.6,1122.36 1159.26,1119.94 1157.81,1117.35 1156.25,1114.62 1154.59,1111.77 1152.83,1108.81 1150.98,1105.76 "/>
     <polygon id="_462016040" class="fil1" points="1166.66,1134 2302.54,2269.89 2302.49,2269.91 2302.35,2269.97 2302.12,2270.07 2301.8,2270.21 2301.4,2270.39 2300.92,2270.6 2300.36,2270.86 2299.72,2271.15 1163.84,1135.27 1164.47,1134.98 1165.04,1134.72 1165.52,1134.5 1165.92,1134.32 1166.24,1134.19 1166.47,1134.08 1166.61,1134.02 "/>
     <polygon id="_462014912" class="fil1" points="1208.73,1391.97 2344.61,2527.85 2346.27,2529.48 2347.33,2530.55 2348.37,2531.64 2349.4,2532.74 2350.41,2533.86 2351.41,2534.99 2352.39,2536.13 2353.36,2537.29 2354.31,2538.46 2355.24,2539.64 2356.16,2540.84 2357.06,2542.05 2357.94,2543.28 2358.81,2544.51 2359.66,2545.76 2360.5,2547.03 2361.31,2548.3 1225.43,1412.42 1224.62,1411.14 1223.78,1409.88 1222.93,1408.63 1222.06,1407.4 1221.18,1406.17 1220.28,1404.96 1219.36,1403.76 1218.42,1402.58 1217.47,1401.41 1216.51,1400.25 1215.53,1399.1 1214.53,1397.97 1213.52,1396.86 1212.49,1395.75 1211.45,1394.67 1210.39,1393.59 "/>
     <polygon id="_462041600" class="fil1" points="1225.43,1412.42 2361.31,2548.3 2362.63,2550.44 2363.9,2552.62 2365.12,2554.83 2366.29,2557.07 2367.41,2559.34 2368.48,2561.64 2369.5,2563.97 2370.46,2566.32 2371.36,2568.71 2372.22,2571.12 2373.01,2573.55 2373.75,2576.01 2374.44,2578.5 2375.06,2581.01 2375.63,2583.54 2376.13,2586.09 1240.25,1450.21 1239.75,1447.66 1239.18,1445.12 1238.55,1442.62 1237.87,1440.13 1237.13,1437.67 1236.33,1435.23 1235.48,1432.82 1234.57,1430.44 1233.61,1428.08 1232.6,1425.76 1231.53,1423.46 1230.41,1421.19 1229.24,1418.95 1228.02,1416.74 1226.75,1414.56 "/>
     <polygon id="_462034472" class="fil1" points="1240.25,1450.21 2376.13,2586.09 2376.35,2587.3 2376.56,2588.52 2376.75,2589.74 2376.92,2590.97 2377.09,2592.2 2377.24,2593.43 2377.37,2594.67 2377.49,2595.91 2377.6,2597.16 2377.7,2598.41 2377.78,2599.66 2377.84,2600.92 2377.89,2602.18 2377.93,2603.45 2377.95,2604.72 2377.96,2605.99 2377.95,2606.91 2377.94,2607.83 2377.92,2608.75 2377.9,2609.66 2377.86,2610.57 2377.82,2611.49 2377.77,2612.39 2377.71,2613.3 2377.65,2614.21 2377.58,2615.11 2377.5,2616.01 2377.41,2616.91 2377.32,2617.8 2377.22,2618.7 2377.11,2619.59 2377,2620.48 2376.98,2620.61 2376.96,2620.74 2376.94,2620.87 2376.92,2621 2376.91,2621.13 2376.89,2621.26 2376.87,2621.39 2376.85,2621.51 1240.97,1485.63 1240.99,1485.5 1241.01,1485.37 1241.03,1485.24 1241.04,1485.11 1241.06,1484.99 1241.08,1484.86 1241.1,1484.73 1241.11,1484.6 1241.23,1483.71 1241.34,1482.81 1241.44,1481.92 1241.53,1481.02 1241.62,1480.13 1241.7,1479.23 1241.77,1478.32 1241.83,1477.42 1241.89,1476.51 1241.94,1475.6 1241.98,1474.69 1242.02,1473.78 1242.04,1472.86 1242.06,1471.95 1242.07,1471.03 1242.08,1470.11 1242.07,1468.84 1242.05,1467.57 1242.01,1466.3 1241.96,1465.04 1241.89,1463.78 1241.82,1462.53 1241.72,1461.28 1241.61,1460.03 1241.49,1458.79 1241.36,1457.55 1241.21,1456.31 1241.04,1455.08 1240.87,1453.86 1240.67,1452.64 1240.47,1451.42 "/>
     <polygon id="_462012992" class="fil1" points="1240.97,1485.63 2376.85,2621.51 2376.78,2622.71 2376.68,2623.93 2376.53,2625.17 2376.35,2626.41 2376.13,2627.68 2375.88,2628.95 2375.59,2630.24 2375.28,2631.53 2374.93,2632.83 2374.56,2634.14 2374.16,2635.45 2373.73,2636.76 2373.29,2638.07 2372.82,2639.39 2372.33,2640.7 2371.82,2642.01 1235.94,1506.13 1236.45,1504.82 1236.94,1503.51 1237.41,1502.19 1237.85,1500.88 1238.28,1499.56 1238.68,1498.25 1239.05,1496.95 1239.4,1495.65 1239.71,1494.35 1240,1493.07 1240.25,1491.79 1240.47,1490.53 1240.65,1489.28 1240.8,1488.05 1240.9,1486.83 "/>
     <polygon id="_462031928" class="fil1" points="1235.94,1506.13 2371.82,2642.01 2371.33,2643.37 2370.82,2644.72 2370.3,2646.06 2369.76,2647.39 2369.2,2648.71 2368.62,2650.02 2368.03,2651.33 2367.42,2652.62 2366.8,2653.91 2366.16,2655.18 2365.5,2656.45 2364.83,2657.7 2364.14,2658.95 2363.43,2660.19 2362.71,2661.41 2361.97,2662.63 2361.22,2663.83 2360.45,2665.03 2359.67,2666.21 2358.87,2667.38 2358.06,2668.55 2357.23,2669.7 2356.39,2670.84 2355.53,2671.96 2354.66,2673.08 2353.77,2674.18 2352.87,2675.28 2351.96,2676.36 2351.03,2677.43 2350.09,2678.48 2349.14,2679.52 2348.17,2680.56 2347.94,2680.8 2347.7,2681.05 2347.46,2681.29 2347.22,2681.54 2346.99,2681.78 2346.75,2682.02 2346.51,2682.26 2346.27,2682.51 1210.39,1546.62 1210.63,1546.38 1210.87,1546.14 1211.11,1545.9 1211.34,1545.66 1211.58,1545.41 1211.82,1545.17 1212.05,1544.92 1212.29,1544.67 1213.26,1543.64 1214.21,1542.6 1215.15,1541.54 1216.08,1540.48 1216.99,1539.39 1217.89,1538.3 1218.78,1537.2 1219.65,1536.08 1220.5,1534.95 1221.35,1533.81 1222.17,1532.66 1222.99,1531.5 1223.79,1530.33 1224.57,1529.15 1225.34,1527.95 1226.09,1526.75 1226.83,1525.53 1227.55,1524.3 1228.25,1523.07 1228.94,1521.82 1229.62,1520.57 1230.28,1519.3 1230.92,1518.02 1231.54,1516.74 1232.15,1515.44 1232.74,1514.14 1233.32,1512.83 1233.88,1511.51 1234.42,1510.17 1234.94,1508.83 1235.45,1507.49 "/>
     <polygon id="_462041528" class="fil1" points="1210.39,1546.62 2346.27,2682.51 2344.61,2684.13 2342.92,2685.71 2341.2,2687.26 2339.44,2688.78 2337.65,2690.25 2335.83,2691.69 2333.98,2693.09 2332.1,2694.45 2330.18,2695.77 2328.24,2697.05 2326.27,2698.29 2324.27,2699.49 2322.24,2700.64 2320.19,2701.76 2318.11,2702.83 2316,2703.85 1180.12,1567.97 1182.23,1566.94 1184.31,1565.87 1186.36,1564.76 1188.39,1563.61 1190.39,1562.41 1192.36,1561.17 1194.3,1559.89 1196.22,1558.57 1198.1,1557.21 1199.95,1555.81 1201.77,1554.37 1203.56,1552.89 1205.32,1551.38 1207.04,1549.83 1208.73,1548.24 "/>
     <polygon id="_462016352" class="fil1" points="1180.12,1567.97 2316,2703.85 2314.68,2704.47 2313.35,2705.06 2312.01,2705.64 2310.67,2706.21 2309.31,2706.75 2307.94,2707.28 2306.57,2707.78 2305.18,2708.27 2303.79,2708.75 2302.39,2709.2 2300.98,2709.64 2299.56,2710.05 2298.14,2710.45 2296.7,2710.83 2295.26,2711.18 2293.82,2711.52 2292.36,2711.84 2290.9,2712.14 2289.43,2712.42 2287.95,2712.69 2286.47,2712.93 2284.98,2713.15 2283.48,2713.35 2281.98,2713.53 2280.47,2713.69 2278.95,2713.83 2277.43,2713.94 2275.9,2714.04 2274.37,2714.12 2272.83,2714.17 2271.29,2714.2 2269.74,2714.21 2268.36,2714.2 2266.98,2714.18 2265.61,2714.13 2264.24,2714.07 2262.88,2714 2261.52,2713.9 2260.17,2713.79 2258.82,2713.67 2257.47,2713.52 2256.13,2713.36 2254.8,2713.19 2253.47,2713 2252.15,2712.79 2250.83,2712.56 2249.52,2712.32 2248.21,2712.07 1112.33,1576.19 1113.64,1576.44 1114.95,1576.68 1116.27,1576.91 1117.59,1577.11 1118.92,1577.31 1120.25,1577.48 1121.59,1577.64 1122.94,1577.79 1124.29,1577.91 1125.64,1578.02 1127,1578.12 1128.36,1578.19 1129.73,1578.25 1131.1,1578.3 1132.48,1578.32 1133.86,1578.33 1135.41,1578.32 1136.95,1578.29 1138.49,1578.23 1140.02,1578.16 1141.55,1578.06 1143.07,1577.94 1144.58,1577.8 1146.09,1577.65 1147.6,1577.46 1149.1,1577.27 1150.59,1577.04 1152.07,1576.8 1153.55,1576.54 1155.02,1576.26 1156.48,1575.96 1157.93,1575.64 1159.38,1575.3 1160.82,1574.94 1162.26,1574.57 1163.68,1574.17 1165.1,1573.75 1166.51,1573.32 1167.91,1572.86 1169.3,1572.39 1170.68,1571.9 1172.06,1571.39 1173.43,1570.87 1174.78,1570.32 1176.13,1569.76 1177.47,1569.18 1178.8,1568.59 "/>
     <polygon id="_462023264" class="fil1" points="1112.33,1576.19 2248.21,2712.07 2247.08,2711.84 1111.2,1575.95 "/>
     <polygon id="_462016208" class="fil1" points="1111.2,1575.95 2247.08,2711.84 2244.85,2711.34 1108.97,1575.45 "/>
     <polygon id="_462012704" class="fil1" points="1108.97,1575.45 2244.85,2711.34 2243.63,2711.04 2242.41,2710.73 2241.2,2710.41 2239.99,2710.07 2238.79,2709.72 2237.59,2709.36 2236.4,2708.98 2235.22,2708.59 1099.34,1572.7 1100.52,1573.09 1101.71,1573.47 1102.91,1573.84 1104.11,1574.19 1105.32,1574.53 1106.53,1574.85 1107.75,1575.16 "/>
     <polygon id="_462030680" class="fil1" points="1099.34,1572.7 2235.22,2708.59 2233.66,2708.05 2232.12,2707.49 2230.58,2706.91 2229.06,2706.31 2227.55,2705.68 2226.05,2705.03 2224.56,2704.36 2223.09,2703.67 2221.62,2702.95 2220.17,2702.22 2218.74,2701.46 2217.31,2700.69 2215.9,2699.89 2214.5,2699.07 2213.11,2698.23 2211.74,2697.38 2210.91,2696.84 2210.09,2696.3 2209.27,2695.76 2208.46,2695.2 2207.65,2694.64 2206.84,2694.07 2206.05,2693.49 2205.25,2692.91 1069.37,1557.03 1070.17,1557.61 1070.96,1558.19 1071.77,1558.76 1072.58,1559.32 1073.39,1559.87 1074.21,1560.42 1075.03,1560.96 1075.86,1561.49 1077.23,1562.35 1078.62,1563.19 1080.02,1564.01 1081.43,1564.8 1082.86,1565.58 1084.29,1566.34 1085.74,1567.07 1087.21,1567.78 1088.68,1568.48 1090.17,1569.15 1091.67,1569.8 1093.18,1570.42 1094.7,1571.03 1096.24,1571.61 1097.78,1572.17 "/>
     <polygon id="_462028640" class="fil1" points="1074.05,1560.37 2209.93,2696.26 2209.68,2696.14 2208.97,2695.78 2207.83,2695.18 2206.32,2694.32 2204.5,2693.2 2202.39,2691.81 2200.06,2690.15 2197.56,2688.2 2194.92,2685.97 1059.04,1550.08 1061.67,1552.32 1064.18,1554.27 1066.51,1555.93 1068.61,1557.32 1070.44,1558.44 1071.95,1559.29 1073.09,1559.9 1073.8,1560.26 "/>
     <polygon id="_462018848" class="fil1" points="1047.59,768.826 2183.47,1904.71 2183.52,1904.74 2183.56,1904.77 2183.61,1904.79 2183.66,1904.82 2183.71,1904.85 2183.75,1904.88 2183.8,1904.91 2183.85,1904.94 1047.97,769.055 1047.92,769.027 1047.87,768.999 1047.83,768.97 1047.78,768.941 1047.73,768.912 1047.68,768.884 1047.64,768.855 "/>
     <polygon id="_462028784" class="fil1" points="1049.73,770.526 2185.61,1906.41 2185.61,1906.42 2185.61,1906.43 2185.61,1906.43 2185.6,1906.44 2185.6,1906.45 2185.6,1906.46 2185.6,1906.47 2185.59,1906.48 1049.71,770.594 1049.71,770.586 1049.72,770.578 1049.72,770.569 1049.72,770.56 1049.73,770.552 1049.73,770.544 1049.73,770.534 "/>
     <polygon id="_462014864" class="fil1" points="1046.27,767.991 2182.15,1903.87 2180.71,1902.87 2179.42,1901.87 2178.28,1900.85 2177.27,1899.81 1041.39,763.931 1042.39,764.971 1043.54,765.987 1044.83,766.991 "/>
     <polygon id="_462026984" class="fil1" points="1166.09,862.364 2301.97,1998.25 2305.21,2002.82 2308.32,2007.69 2311.3,2012.85 2314.14,2018.27 2316.85,2023.93 2319.41,2029.81 2321.84,2035.88 2324.11,2042.12 2326.23,2048.51 2328.21,2055.03 2330.02,2061.65 2331.68,2068.35 2333.17,2075.12 2334.5,2081.91 2335.66,2088.73 2336.64,2095.53 2337.45,2102.31 2338.09,2109.03 2338.54,2115.68 2338.81,2122.23 2338.89,2128.66 2338.79,2134.95 2338.49,2141.07 2337.99,2147 2337.29,2152.73 2336.39,2158.22 2335.29,2163.46 2333.98,2168.42 2332.45,2173.08 2330.71,2177.42 2328.76,2181.41 2326.58,2185.04 1190.7,1049.16 1192.87,1045.53 1194.83,1041.54 1196.57,1037.2 1198.09,1032.54 1199.41,1027.58 1200.51,1022.34 1201.41,1016.84 1202.11,1011.12 1202.6,1005.19 1202.91,999.063 1203.01,992.776 1202.93,986.346 1202.66,979.797 1202.21,973.15 1201.57,966.427 1200.76,959.651 1199.77,952.846 1198.62,946.032 1197.29,939.233 1195.8,932.47 1194.14,925.768 1192.32,919.146 1190.35,912.629 1188.23,906.238 1185.96,899.997 1183.53,893.926 1180.97,888.05 1178.26,882.39 1175.42,876.97 1172.44,871.81 1169.33,866.933 "/>
    </g>
    <path id="_478232200" class="fil1" d="M919.853 780.317l0 0zm0.837402 -0.636615l0 0zm0.483071 -0.334252l0 0zm2.04921 -1.19055l0 0zm1.15748 -0.54567l0 0zm111.92 -33.3555l0.00708662 0.140551c-0.0011811,-0.0472441 -0.00354331,-0.0933072 -0.00708662,-0.140551zm-138.465 -57.3166c-8.0752,-4.42205 -12.8894,-13.4799 -13.6949,-16.8248 -3.86929,-16.1055 -0.948426,-23.9374 3.96496,-27.0331 -8.08465,-17.5488 -14.3646,-36.9319 -16.7209,-68.3646 -1.10197,-14.6823 -2.4874,-42.867 11.3315,-45.8174 -10.4764,-52.004 48.4359,-74.7426 66.3603,-60.9343 80.4331,30.8599 106.976,20.6835 124.395,48.0378 18.1748,28.5378 21.1382,94.4942 9.82796,148.086 -6.4441,30.5386 -19.8425,53.8796 -31.8874,71.9871 -0.941339,3.69803 -6.62245,6.46063 -15.1099,8.18032 -7.83308,1.5874 -18.0555,2.2878 -29.1484,2.01614 -21.554,-0.527953 -46.3914,-4.72323 -63.3603,-13.2024 -23.2099,-11.5996 -21.3992,-18.1937 -33.1146,-44.4178 -0.979135,0.525591 -2.17441,0.801969 -3.61418,0.783071 -3.42638,-0.0448819 -6.5126,-1.00748 -9.22914,-2.49567zm30.2906 63.815l0 0zm49.454 20.6941l0 0zm43.6524 -2.35748l0 0zm0.0366142 -0.0011811l0 0zm0.145276 0.00236221l0 0zm7.59568 0.279921l0 0zm20.7036 1.22362l0.0177165 -0.068504c-0.00354331,0.0236221 -0.0106299,0.046063 -0.0177165,0.068504zm116.948 363.409l0 0zm-2.82284 1.26732c20.9492,24.7158 55.9524,77.9481 64.8473,90.4572 19.8886,27.9721 2.36339,48.9874 -21.9201,57.1063 -7.41851,0.597638 -22.5933,-9.26576 -39.1512,-22.389 -6.19725,-2.25236 -12.3567,-4.63465 -17.5784,-6.89292 2.72481,11.0953 5.9563,25.0465 8.67757,34.1091 4.78583,15.9567 -0.799607,24.7347 -2.39646,29.5181 -1.59331,4.79292 -16.7587,6.38623 -20.7449,3.1937 -3.99095,-3.1937 -15.1606,-17.5524 -20.7461,-27.1276 -5.58308,-9.57639 -2.39528,-31.9181 -7.97953,-43.0855 -5.58662,-11.1744 -23.1378,-20.7473 -23.1378,-20.7473 0,0 -3.98977,-9.57757 -0.800788,-17.5547 3.1937,-7.9819 15.9614,-8.77796 15.9614,-8.77796 0,0 3.28583,0.625985 7.4315,1.67008 -0.543308,-0.563386 -1.04173,-1.08662 -1.49291,-1.56496 -3.00945,-3.19607 -5.27008,-5.45788 -7.02875,-7.2378 -2.00315,4.13622 -2.8441,6.64371 -2.8441,6.64371l-74.0032 -64.1587 -19.2697 86.1473c0,0 -2.22638,0.895276 -5.93741,2.2311 -1.90984,11.635 -3.90237,21.8398 -4.33819,27.5185 -3.88111,50.6138 -19.5083,85.1871 -21.0142,133.41 1.75984,0.0897638 3.09567,0.257481 3.81851,0.523229 4.80945,1.76811 11.4591,15.2445 11.4591,25.6158 0,10.3736 -1.61693,29.2949 -5.60552,44.4555 -2.60079,9.88229 -7.6819,40.6937 -10.8343,54.1654 -0.0259843,0.109843 -0.0507874,0.218504 -0.0755906,0.325985 2.80158,1.07126 7.45985,4.14922 11.1024,12.9945 5.58898,13.5602 7.17993,41.491 7.17993,41.491l-11.4343 1.3441c0.50315,0.859843 0.81378,1.83307 0.81378,2.88662 -0.00472441,3.29055 -2.78977,5.95985 -6.23032,5.95985 -3.43701,0 -6.22678,-2.66929 -6.22678,-5.95985 0,-0.53504 0.0968505,-1.05236 0.236221,-1.54606l-17.8524 2.10118c-2.59252,0.303544 -5.0504,0.612993 -7.44568,0.90945 0.424016,0.696851 0.686221,1.48228 0.686221,2.33032 0,2.68937 -2.42599,4.87678 -5.41772,4.87678 -2.99528,0 -5.41654,-2.1874 -5.41654,-4.87678 0,-0.356693 0.0472441,-0.703938 0.131102,-1.03819 -12.1205,1.59095 -22.2945,2.90079 -33.763,3.34252 0.361418,0.607087 0.589371,1.29213 0.589371,2.02677 0,2.39646 -2.1815,4.33229 -4.87559,4.33229 -2.69292,0 -4.87441,-1.93583 -4.87441,-4.33229 0,-0.673229 0.187795,-1.30276 0.498426,-1.87205 -2.30433,-0.0011811 -4.66181,-0.034252 -7.1315,-0.113386 -8.21103,-0.264567 -15.5351,-0.796064 -21.6343,-1.46929 0.398032,0.615355 0.64252,1.33228 0.64252,2.10118 -0.00472441,2.24292 -1.94173,4.06654 -4.33347,4.06654 -2.39646,0 -4.33229,-1.82362 -4.33229,-4.06654 -0.00472441,-1.17402 0.537402,-2.22284 1.38543,-2.96457 -8.21103,-1.24961 -12.8539,-2.76732 -12.4252,-4.05118 0.799607,-2.39292 -2.39292,-5.58308 17.5536,-11.1685 19.9477,-5.58308 38.302,-12.7701 46.2827,-23.1414 7.97481,-10.3736 15.9579,-27.1264 17.55,-31.9134 0.810237,-2.42599 3.7441,-3.09331 6.44174,-3.16181 0.0519685,-14.5228 0.54567,-37.6288 -1.31693,-59.3918 -2.39173,-27.9284 -7.97953,-36.7016 -3.9874,-43.8851 1.31575,-2.37047 2.6315,-4.04528 3.94725,-5.25355 -2.64685,-16.8851 -8.76733,-98.6469 -13.0087,-166.608 -9.91891,-7.19764 -15.5811,-14.6835 -15.5811,-14.6835 0,0 8.44253,-111.071 14.0303,-132.618 0.188977,-0.731103 0.396851,-1.50354 0.620079,-2.31496 -2.84764,-1.32638 -5.85709,-2.85827 -9.04016,-4.62048 -0.858662,-0.474804 -3.06614,-73.7091 -1.94528,-146.068 -0.422835,0.765355 -0.656693,1.17992 -0.656693,1.17992 -0.664961,0.373229 -4.72205,-2.61614 -10.2508,-7.08308 -32.4945,38.5394 -28.4339,124.402 -28.4044,142.708 13.5024,13.7244 29.1697,31.7752 34.7504,49.4741 1.7315,3.05197 -1.10197,12.2906 -10.6169,12.3343 -7.32756,0.0354331 -3.57638,-2.10945 -8.34686,-8.23111 0.949607,3.63425 4.46457,29.426 -11.2795,24.6284 -7.34646,-2.24173 -8.1378,-3.81496 -10.7917,-11.1933 -2.34331,0.650788 1.11969,17.4721 -10.6287,18.0945 -11.4862,0.607087 -15.6402,-18.1559 -18.9543,-31.1575 -2.61969,-10.2626 -4.49646,-21.0402 -6.35434,-30.8953 -27.0567,-38.8205 -9.98268,-150.963 31.0335,-195.528 -8.18505,-4.59213 -14.0421,-7.64882 -14.0421,-7.64882 0,0 4.87559,-6.98268 13.7823,-19.976 18.9284,-27.6107 34.3465,-56.2949 63.5906,-73.9749l0.198425 -0.399213 0.0555119 -0.111024 0.0850394 -0.165354 0.13937 -0.272835 0.0732284 -0.142913 0.0649607 -0.125197 0.140551 -0.265748 0.0921261 -0.175984 0.0484252 -0.0874016 0.253937 -0.462992 0.0271654 -0.0507874 0.142913 -0.252756 0.0295276 -0.0531496 0.180709 -0.315355 0.219685 -0.372048 0.00944883 -0.0141732 0.577559 -0.927166 0.0496063 -0.0744095c0.309449,-0.472441 0.628347,-0.928347 0.956694,-1.36299l0.0295276 -0.0389764 0.0425197 -0.0555119 0.161811 -0.207874 0.13937 -0.175984 0.022441 -0.0283465 0.33189 -0.400394 0.341339 -0.389764 0.022441 -0.0248032 0.327166 -0.35315 0.046063 -0.0496063 0.132284 -0.137008 0.551575 -0.540945 0.0980316 -0.0921261 0.090945 -0.0826772 0.287008 -0.255118 0.0330709 -0.0307087 0.0673229 -0.056693 0.198425 -0.168898 0.158268 -0.131102 0.0543308 -0.0425197 0.826772 -0.627166 0.0129921 -0.00944883 0.0283465 -0.0200788 0.399213 -0.275197 0.0531496 -0.0366142 0.400394 -0.258662 0.0755906 -0.0484252 0.0259843 -0.0141732 0.369685 -0.223229 0.109843 -0.0649607 0.129921 -0.0755906 0.245669 -0.138189 0.146457 -0.080315 0.102756 -0.0555119 0.440552 -0.229134 0.0708662 -0.0366142 0.432284 -0.207874 0.0602363 -0.0295276 0.0377953 -0.0177165 0.271654 -0.125197 0.276378 -0.124016c5.98465,-2.6315 15.2539,-3.913 31.4256,-4.94882 0.167717,-0.0106299 0.335433,-0.0212599 0.504331,-0.0318898 1.87677,-0.119291 3.84449,-0.233858 5.90906,-0.348425l2.43425 -0.133465 0.0177165 -0.0011811 0.491339 -0.0259843 0.106299 -0.00590552 0.587008 -0.0318898 0.0543308 -0.00354331 1.4126 -0.0779528 0.0708662 -0.00236221 0.69567 -0.0389764 0.147638 -0.00590552 0.657875 -0.0366142 0.227953 -0.0129921 0.614174 -0.0330709 0.316536 -0.0153543 0.559843 -0.0318898 0.409843 -0.022441 0.499607 -0.0271654 0.507874 -0.0271654 0.433465 -0.0236221 0.611811 -0.0330709 0.360236 -0.0188977 0.718111 -0.0389764 0.279921 -0.0153543 0.829134 -0.0448819 0.194882 -0.0106299 0.944883 -0.0507874 0.105118 -0.00708662 1.07126 -0.056693 1.09252 -0.0602363 0.0874016 -0.00354331 1.02402 -0.056693 0.188977 -0.00944883 0.938977 -0.0507874 0.294095 -0.0165354 0.850394 -0.046063 0.400394 -0.0200788 0.759449 -0.0413386 0.507874 -0.0271654 0.661418 -0.0366142 0.618898 -0.0330709 0.562205 -0.0295276 0.728741 -0.0401575 0.46063 -0.0259843 0.839764 -0.0437008 0.355512 -0.0212599 0.950788 -0.0507874 0.249213 -0.011811 1.06181 -0.0578741 0.142913 -0.00826772 1.17047 -0.0625985 0.0366142 -0.00236221 1.20473 -0.0649607 0.0720473 -0.00472441 1.1315 -0.0602363 0.179528 -0.00944883 1.02047 -0.0555119 0.284646 -0.0153543 0.90945 -0.0496063 0.390945 -0.0212599 0.796064 -0.0425197 0.49252 -0.0271654 0.686221 -0.0366142 0.591733 -0.0318898 0.576378 -0.0307087 0.688583 -0.0366142 0.466536 -0.0259843 0.78189 -0.0425197 0.357874 -0.0188977 0.871654 -0.046063 0.253937 -0.0141732 0.956694 -0.0531496 0.15 -0.00708662 1.03583 -0.0555119 0.0531496 -0.00354331 1.06772 -0.0578741 0.0401575 -0.0011811 1.00276 -0.0555119 0.132284 -0.00590552 0.885827 -0.0484252 0.219685 -0.0106299 0.773623 -0.0425197 0.3 -0.0165354 0.662599 -0.0366142 0.375591 -0.0188977 0.559843 -0.0295276 0.441733 -0.0236221 0.46063 -0.0259843 0.504331 -0.0271654 0.364961 -0.0200788 0.557481 -0.0307087 0.276378 -0.0141732 0.603544 -0.0318898 0.193701 -0.0106299 0.641339 -0.0354331 0.116929 -0.00590552 0.668504 -0.0366142 0.0496063 -0.0011811 0.67441 -0.0366142 0.0129921 -0.00236221 0.618898 -0.0330709 0.0661418 -0.00354331 0.519685 -0.0283465 0.111024 -0.00472441 0.426378 -0.0236221 0.146457 -0.00826772 0.34252 -0.0177165 0.172441 -0.00944883 0.265748 -0.0141732 0.186614 -0.0106299 0.199606 -0.00944883 0.190158 -0.011811 0.140551 -0.00708662 0.183071 -0.00944883 0.090945 -0.00472441 0.165354 -0.00944883 0.0519685 -0.00236221 0.133465 -0.00826772 0.0236221 -0.0011811 0.0956694 -0.00472441 0.0366142 -0.0011811 0.0129921 0 0.0212599 0.0011811 0.0271654 0 0.0377953 0.0011811 0.0531496 0 0.0472441 0.00236221 0.0602363 0.0011811 0.0696851 0.0011811 0.0165354 0.00236221 0.0614174 0.0011811 0.0838583 0.00236221 0.0944883 0.00236221 0.0248032 0 0.0744095 0.00354331 0.108662 0.00354331 0.115748 0.00236221 0.0401575 0.00236221 0.0814961 0.0011811 0.131102 0.00354331 0.135827 0.00472441 0.0578741 0.0011811 0.0874016 0.00354331 0.15 0.00472441 0.157087 0.00472441 0.0779528 0.00236221 0.0874016 0.00236221 0.173622 0.00590552 0.177165 0.00708662 0.100394 0.00236221 0.0850394 0.00236221 0.191339 0.00708662 0.198425 0.00708662 0.124016 0.00472441 0.080315 0.0011811 0.211417 0.00826772 0.217323 0.00826772 0.148819 0.00590552 0.0732284 0.0011811 0.230315 0.00826772 0.23504 0.00944883 0.179528 0.00590552 0.0614174 0.00354331 0.248032 0.00944883 0.253937 0.00944883 0.209055 0.00826772 0.0496063 0.0011811 0.263386 0.011811 0.270473 0.0106299 0.242126 0.00944883 0.034252 0.00236221 0.281103 0.0106299 0.285827 0.0129921 0.275197 0.0106299 0.0141732 0.0011811 0.297638 0.0129921 0.301181 0.0129921 0.311811 0.0141732 0.305906 0.0129921 0.317717 0.0141732 0.320079 0.0153543 0.0271654 0.00236221 0.298819 0.011811 0.329528 0.0165354 0.336614 0.0153543 0.0507874 0.00354331 0.288189 0.0141732 0.343701 0.0165354 0.348425 0.0165354 0.0779528 0.00472441 0.274016 0.0129921 0.357874 0.0188977 0.360236 0.0177165 0.103937 0.00590552 0.261024 0.0129921 0.368504 0.0212599 0.370866 0.0188977 0.133465 0.00708662 0.243307 0.0129921 0.379134 0.022441 0.383859 0.0200788c4.29803,0.240945 9.25394,0.571654 14.3823,1.01693 12.4819,1.08307 25.9831,2.85118 33.4985,5.68583 0.00354331,-0.106299 0.00472441,-0.16063 0.00472441,-0.16063 0,0 23.6008,6.463 33.2516,13.7398 9.65198,7.27796 37.1551,35.0386 41.8264,41.8406 4.67008,6.79961 17.648,21.0496 17.6469,21.0496 0,0 -4.77048,4.7126 -9.81497,9.50552 35.2347,47.0363 49.0288,150.134 24.6106,186.795 -1.74685,9.70158 -3.51024,20.3067 -5.97402,30.4075 -3.11811,12.7984 -7.02402,31.265 -17.8299,30.6662 -11.0504,-0.611811 -7.79292,-17.1685 -9.99686,-17.8087 -2.18977,6.36733 -3.03071,8.34213 -7.86142,10.2201 10.5862,16.7693 17.6291,31.3595 17.6268,31.3595 0,0 -1.02874,0.434646 -2.82284,1.26732zm-77.726 237.646c11.2665,-6.03898 22.5272,-9.11103 32.6811,-10.4787 20.4567,-2.75906 36.424,1.38898 38.8796,2.07992 7.8378,1.75984 15.3555,4.37008 22.448,7.72914 11.302,5.35158 21.5292,12.6059 30.267,21.3461 5.68229,5.68465 10.735,11.9976 15.0461,18.8244 7.16221,11.3469 12.274,24.1181 14.8193,37.7906 1.19764,6.45119 1.82362,13.1043 1.82362,19.9016 0,4.91221 -0.328347,9.74765 -0.962599,14.4874 -0.046063,0.344882 -0.0944883,0.689764 -0.142913,1.03465 -0.253937,6.34725 -2.27126,13.5248 -5.03386,20.4969 -5.12244,14.5169 -13.2543,27.6166 -23.648,38.5441 -0.625985,0.659056 -1.26142,1.30984 -1.90276,1.95 -8.7378,8.74135 -18.9638,15.9945 -30.2658,21.3484 -14.028,6.64371 -29.713,10.3583 -46.265,10.3583 -7.37127,0 -14.5701,-0.739371 -21.528,-2.14252l-1.1315 -0.233858 -2.22402 -0.498426c-3.27166,-0.768898 -6.4878,-1.69016 -9.63662,-2.75079 -8.32442,-2.79803 -16.1941,-6.58229 -23.4732,-11.2099 -2.21929,-1.41142 -4.38307,-2.90079 -6.48898,-4.46575 1.65236,1.44213 3.23268,2.59843 4.67835,3.34607 0,0 -21.9886,-9.93072 -33.0449,-34.6418 -7.40197,-12.3295 -12.4181,-26.2547 -14.4095,-41.1355 -0.634252,-4.73977 -0.962599,-9.5752 -0.962599,-14.4874 0,-6.79725 0.629528,-13.4504 1.82717,-19.9016 2.54292,-13.6725 7.65473,-26.4437 14.8169,-37.7906 4.31221,-6.82678 9.36615,-13.1398 15.0484,-18.8244 5.60315,-5.60552 11.8181,-10.5992 18.5351,-14.8701 2.97638,-1.89213 6.05079,-3.6437 9.21497,-5.24292 0.344882,-0.191339 0.689764,-0.377953 1.03465,-0.563386zm-38.5205 -604.088l0 0zm-0.00354331 -0.00236221c0.125197,0.0767717 0.252756,0.153543 0.381496,0.229134l-0.362599 -0.217323 -0.0188977 -0.011811zm-9.06969 -9.51379c1.34646,3.19488 3.64961,5.96103 7.7504,8.67875 -4.06181,-2.6752 -6.37323,-5.26063 -7.7504,-8.67875z"/>
   </g>
  </g>
  <path class="fil2" d="M1024 0c565.539,0 1024,458.461 1024,1024 0,565.539 -458.461,1024 -1024,1024 -565.539,0 -1024,-458.461 -1024,-1024 0,-565.539 458.461,-1024 1024,-1024z"/>
  <path class="fil3" d="M1175.9 852.858c0,0 -16.6016,16.3996 -20.615,19.1303 -4.01457,2.73544 -39.4524,34.0441 -39.4524,34.0441 0,0 8.77678,-21.9142 11.3126,-23.9918 2.53701,-2.07874 21.398,-18.3921 26.5335,-21.5575 5.1378,-3.16772 12.0449,-7.02284 15.4016,-7.70552 3.35551,-0.680315 6.82087,0.080315 6.82087,0.080315l-0.0011811 0z"/>
  <path class="fil4" d="M1114.67 876.617c45.2989,34.0925 34.8414,152.199 36.5221,153.267 5.81103,3.68268 32.4638,16.852 38.6622,20.4886 30.2988,-42.1217 5.44489,-181.642 -45.6945,-207.724 -1.91811,-1.68543 -25.0925,25.1362 -29.4898,33.9685z"/>
  <path class="fil4" d="M1118.3 1075.16c-1.62992,3.00355 1.03347,12.098 9.9815,12.1417 6.89528,0.0330709 3.36851,-2.07638 7.85197,-8.10119 -0.890552,3.57638 -4.19882,28.9618 10.6087,24.2398 6.91182,-2.20748 7.65355,-3.75591 10.1516,-11.0185 2.20394,0.640158 -1.05354,17.1969 9.99686,17.8087 10.8059,0.598819 14.7118,-17.8677 17.8299,-30.6662 2.86654,-11.752 4.78465,-24.1866 6.8315,-35.0859 2.25709,-12.0189 -26.2335,-17.5559 -34.2697,-24.5658 -13.663,13.9571 -32.8347,34.839 -38.9823,55.2473z"/>
  <path class="fil4" d="M899.847 911.023c-48.1571,34.6394 -37.0429,154.638 -38.8276,155.72 -6.17717,3.7441 -34.5154,17.1248 -41.1083,20.8193 -32.211,-42.7961 -5.78504,-184.551 48.5859,-211.053 2.0374,-1.71142 26.6799,25.539 31.35,34.513z"/>
  <path class="fil4" d="M895.991 1112.75c1.7315,3.05197 -1.10197,12.2906 -10.6169,12.3343 -7.32756,0.0354331 -3.57638,-2.10945 -8.34686,-8.23111 0.949607,3.63425 4.46457,29.426 -11.2795,24.6284 -7.34646,-2.24173 -8.1378,-3.81496 -10.7917,-11.1933 -2.34331,0.650788 1.11969,17.4721 -10.6287,18.0945 -11.4862,0.607087 -15.6402,-18.1559 -18.9543,-31.1575 -3.04843,-11.941 -5.08937,-24.5776 -7.26733,-35.6481 -2.39646,-12.2138 27.8965,-17.837 36.4394,-24.9591 14.5252,14.1791 34.9087,35.3965 41.4461,56.1319z"/>
  <path class="fil3" d="M839.006 1571.3c0.799607,-2.39292 -2.39292,-5.58308 17.5536,-11.1685 19.9477,-5.58308 38.302,-12.7701 46.2827,-23.1414 7.97481,-10.3736 15.9579,-27.1264 17.55,-31.9134 1.60039,-4.78819 11.4732,-2.72599 11.4732,-2.72599 0,0 3.69095,5.11536 6.88229,13.8933 3.18662,8.77914 8.7756,12.7665 17.5512,9.57757 8.77914,-3.1937 10.3748,-13.5662 10.3748,-13.5662 0,0 7.97599,0 13.5626,13.5662 5.58898,13.5602 7.17993,41.491 7.17993,41.491 0,0 -3.83504,0.45 -11.4343,1.3441 0.50315,0.859843 0.81378,1.83307 0.81378,2.88662 -0.00472441,3.29055 -2.78977,5.95985 -6.23032,5.95985 -3.43701,0 -6.22678,-2.66929 -6.22678,-5.95985 0,-0.53504 0.0968505,-1.05236 0.236221,-1.54606 -5.09292,0.603544 -11.0492,1.29803 -17.8524,2.10118 -2.59252,0.303544 -5.0504,0.612993 -7.44568,0.90945 0.424016,0.696851 0.686221,1.48228 0.686221,2.33032 0,2.68937 -2.42599,4.87678 -5.41772,4.87678 -2.99528,0 -5.41654,-2.1874 -5.41654,-4.87678 0,-0.356693 0.0472441,-0.703938 0.131102,-1.03819 -12.1205,1.59095 -22.2945,2.90079 -33.763,3.34252 0.361418,0.607087 0.589371,1.29213 0.589371,2.02677 0,2.39646 -2.1815,4.33229 -4.87559,4.33229 -2.69292,0 -4.87441,-1.93583 -4.87441,-4.33229 0,-0.673229 0.187795,-1.30276 0.498426,-1.87205 -2.30433,-0.0011811 -4.66181,-0.034252 -7.1315,-0.113386 -8.21103,-0.264567 -15.5351,-0.796064 -21.6343,-1.46929 0.398032,0.615355 0.64252,1.33228 0.64252,2.10118 -0.00472441,2.24292 -1.94173,4.06654 -4.33347,4.06654 -2.39646,0 -4.33229,-1.82362 -4.33229,-4.06654 -0.00472441,-1.17402 0.537402,-2.22284 1.38543,-2.96457 -8.21103,-1.24961 -12.8539,-2.76732 -12.4252,-4.05118z"/>
  <path class="fil5" d="M974.191 1388.26c4.80945,1.76811 11.4591,15.2445 11.4591,25.6158 0,10.3736 -1.61693,29.2949 -5.60552,44.4555 -2.60079,9.88229 -7.6819,40.6937 -10.8343,54.1654 -1.67835,7.19646 -1.07953,8.66575 -6.50079,13.0016 -5.413,4.33229 -14.7969,3.76181 -24.3721,2.16614 -9.5752,-1.59331 -10.8957,-5.62559 -11.3776,-15.7075 -0.542126,-11.3752 0.948426,-41.5134 -1.44213,-69.4382 -2.39173,-27.9284 -7.97953,-36.7016 -3.9874,-43.8851 3.9874,-7.18111 7.97008,-7.97717 11.9622,-8.77796 3.99685,-0.794883 35.889,-3.36142 40.6985,-1.59567z"/>
  <path class="fil6" d="M910.838 1533.51c0,0 10.826,9.65434 16.0949,16.0925 5.26418,6.43819 13.4622,18.1429 13.4622,18.1429l-13.7587 2.33977c0,0 -4.97244,-10.5331 -9.06851,-15.7996 -4.09725,-5.2689 -12.5847,-12.5847 -12.5847,-12.5847l5.85473 -8.19095z"/>
  <path class="fil6" d="M898.842 1547.56c0,0 7.9004,8.77678 9.65788,12.2882 1.75276,3.51024 6.43583,11.4118 6.43583,11.4118l-12.8764 1.46457c0,0 -1.46457,-8.48623 -2.92559,-11.4118 -1.46929,-2.92914 -7.9004,-9.65906 -7.9004,-9.65906l7.60867 -4.0937z"/>
  <path class="fil4" d="M994.22 1165.89c12.9862,16.6677 -1.56024,71.8536 -2.83347,88.4387 -4.07835,53.1933 -21.1311,88.669 -21.1311,140.894 -1.9063,4.15748 -32.0752,1.15512 -44.7508,-1.66772 -4.65237,-29.1544 -20.2925,-263.296 -17.0433,-263.296l1.33701 0c27.1051,0 81.8682,32.361 84.4217,35.6315z"/>
  <path class="fil3" d="M1098.87 1203.08c0,0 -12.7677,0.796064 -15.9614,8.77796 -3.18898,7.97717 0.800788,17.5547 0.800788,17.5547 0,0 17.5512,9.57284 23.1378,20.7473 5.58426,11.1673 2.39646,33.5091 7.97953,43.0855 5.58544,9.5752 16.7551,23.9339 20.7461,27.1276 3.98622,3.19252 19.1516,1.59921 20.7449,-3.1937 1.59685,-4.78347 7.18229,-13.5614 2.39646,-29.5181 -4.79174,-15.9591 -11.1697,-47.0811 -13.565,-51.0674 -2.39528,-3.99095 -18.3508,-22.3429 -23.9386,-26.3303 -5.58544,-3.98977 -22.3406,-7.18347 -22.3406,-7.18347z"/>
  <path class="fil7" d="M1105.04 1214.32c0,0 -1.59567,11.9669 3.98859,17.5547 5.5878,5.58426 22.3429,13.5614 40.6949,21.541 18.3508,7.97953 48.6733,17.5547 51.0674,17.5547 2.39173,0 -2.3941,-21.5433 -5.58426,-25.5343 -3.1937,-3.9874 -21.5469,-24.7347 -39.0981,-29.5229 -17.5571,-4.78465 -35.9067,-7.17993 -42.2882,-5.58308 -6.38504,1.59331 -8.78032,3.98977 -8.78032,3.98977z"/>
  <path class="fil8" d="M1166.66 1134c0,0 -28.963,12.2209 -47.315,31.3701 -18.3543,19.1504 -24.411,37.2177 -24.411,37.2177l-74.0032 -64.1587 -19.2697 86.1473c0,0 -48.3839,19.461 -69.9272,12.2811 -21.5421,-7.18111 -34.8473,-24.7689 -34.8473,-24.7689 0,0 8.44253,-111.071 14.0303,-132.618 5.58308,-21.5457 26.6362,-79.6501 26.6362,-79.6501 0,0 13.4976,19.8095 43.8154,12.626 30.3189,-7.17993 58.2449,-10.3736 63.8315,-11.1697 5.58544,-0.797245 20.7449,7.97953 20.7449,7.97953 0,0 31.9158,35.1059 55.8544,58.2473 23.9351,23.1402 44.863,66.4961 44.863,66.4961l-0.00236221 0z"/>
  <path class="fil9" d="M859.879 878.881l37.1303 20.8205 -22.0323 -35.9032c0,0 -4.35,1.72677 -15.098,15.0827z"/>
  <path class="fil10" d="M932.39 839.234c3.21378,10.1528 -2.65748,9.65198 -6.63189,29.6044 -3.97914,19.95 -25.8626,58.8119 -25.8626,58.8119 -1.59213,0.892914 -22.6382,-17.4921 -36.7642,-29.2996 -14.2476,-8.47914 -27.1217,-15.1984 -27.1217,-15.1984 0,0 4.87559,-6.98268 13.7823,-19.976 19.8272,-28.9217 35.8016,-59.0197 67.8508,-76.4174 -1.52599,-4.57205 -5.82874,8.04568 -0.962599,17.9646 6.29292,12.8291 13.9051,28.7847 15.7099,34.5107z"/>
  <path class="fil11" d="M1021.26 769.088l0.00472441 0 0.0129921 0 0.0200788 0.0011811 0.0011811 0 0.0271654 0 0.0377953 0.0011811 0.046063 0 0.00708662 0 0.0472441 0.00236221 0.0602363 0.0011811 0.0696851 0.0011811 0.0165354 0.00236221 0.0614174 0.0011811 0.0838583 0.00236221 0.0944883 0.00236221 0.0248032 0 0.0744095 0.00354331 0.108662 0.00354331 0.115748 0.00236221 0.0401575 0.00236221 0.0814961 0.0011811 0.131102 0.00354331 0.135827 0.00472441 0.0578741 0.0011811 0.0874016 0.00354331 0.15 0.00472441 0.157087 0.00472441 0.0779528 0.00236221 0.0874016 0.00236221 0.173622 0.00590552 0.177165 0.00708662 0.100394 0.00236221 0.0850394 0.00236221 0.191339 0.00708662 0.198425 0.00708662 0.124016 0.00472441 0.080315 0.0011811 0.211417 0.00826772 0.217323 0.00826772 0.148819 0.00590552 0.0732284 0.0011811 0.230315 0.00826772 0.23504 0.00944883 0.179528 0.00590552 0.0614174 0.00354331 0.248032 0.00944883 0.253937 0.00944883 0.209055 0.00826772 0.0496063 0.0011811 0.263386 0.011811 0.270473 0.0106299 0.242126 0.00944883 0.034252 0.00236221 0.281103 0.0106299 0.285827 0.0129921 0.275197 0.0106299 0.0141732 0.0011811 0.297638 0.0129921 0.301181 0.0129921 0.307087 0.0129921 0.00472441 0.0011811 0.305906 0.0129921 0.317717 0.0141732 0.320079 0.0153543 0.0271654 0.00236221 0.298819 0.011811 0.329528 0.0165354 0.336614 0.0153543 0.0507874 0.00354331 0.288189 0.0141732 0.343701 0.0165354 0.348425 0.0165354 0.0779528 0.00472441 0.274016 0.0129921 0.357874 0.0188977 0.360236 0.0177165 0.103937 0.00590552 0.261024 0.0129921 0.368504 0.0212599 0.370866 0.0188977 0.133465 0.00708662 0.243307 0.0129921 0.379134 0.022441 0.383859 0.0200788c16.9984,0.954331 44.2855,3.29528 51.815,8.67284 11.1709,7.97717 2.77914,25.0406 5.97166,48.9744 3.18898,23.9398 -8.28898,41.7555 -17.0681,72.8729 -13.0571,27.5587 10.0488,99.8954 13.5803,115.622l0.011811 0.0578741 0.0141732 0.0590552 0.0129921 0.0590552 0.0129921 0.0578741 0.0129921 0.0578741 0.011811 0.0555119 0.011811 0.056693 0.0129921 0.0555119 0.0106299 0.0543308 0.0129921 0.0555119 0.00708662 0.0354331 0.00354331 0.0188977 0.011811 0.0519685 0.0106299 0.0543308 0.0106299 0.0507874 0.00944883 0.0519685 0.011811 0.0507874 0.00944883 0.0507874 0.0106299 0.0507874 0.00944883 0.0496063 0.00944883 0.0496063 0.0106299 0.0472441 0.00944883 0.0472441 0.0330709 0.180709 0.0011811 0.00472441 0.00826772 0.046063 0.00826772 0.0448819 0.00708662 0.0425197 0.0141732 0.0862205 0.00826772 0.0425197 0.00708662 0.0413386 0.0141732 0.0814961 0.00590552 0.0389764 0.00590552 0.0401575 0.00236221 0.0129921 0.00236221 0.0248032 0.00708662 0.0377953 0.0484252 0.377953 0.00236221 0.0212599 0.0011811 0.0106299 0.0011811 0.0307087c0.011811,0.119291 0.0177165,0.226772 0.0177165,0.312992 0,6.38504 9.07796,19.1516 -3.68859,14.3634 -12.7677,-4.78583 -90.4642,45.0331 -123.965,48.6213 -10.6559,1.71614 -24.4595,10.6795 -59.8831,-8.9315 -1.56732,-0.86693 -7.62638,-244.04 10.2473,-282.011l0.13937 -0.296457 0.140551 -0.292914 0.0188977 -0.0389764 0.120473 -0.251575 0.13937 -0.285827 0.0366142 -0.0744095 0.240945 -0.485433 0.0555119 -0.111024 0.0850394 -0.165354 0.13937 -0.272835 0.0732284 -0.142913 0.0649607 -0.125197 0.140551 -0.265748 0.0921261 -0.175984 0.0484252 -0.0874016 0.253937 -0.462992 0.0271654 -0.0507874 0.142913 -0.252756 0.0295276 -0.0531496 0.180709 -0.315355 0.219685 -0.372048 0.00944883 -0.0141732c0.190158,-0.316536 0.382677,-0.624804 0.577559,-0.927166l0.0496063 -0.0744095c0.309449,-0.472441 0.628347,-0.928347 0.956694,-1.36299l0.0295276 -0.0389764 0.0425197 -0.0555119 0.161811 -0.207874 0.13937 -0.175984 0.022441 -0.0283465 0.33189 -0.400394 0.341339 -0.389764 0.022441 -0.0248032 0.327166 -0.35315 0.046063 -0.0496063 0.132284 -0.137008c0.179528,-0.184252 0.36378,-0.364961 0.551575,-0.540945l0.0980316 -0.0921261 0.090945 -0.0826772 0.287008 -0.255118 0.0330709 -0.0307087 0.0673229 -0.056693 0.198425 -0.168898 0.158268 -0.131102 0.0437008 -0.0330709 0.0106299 -0.00944883c0.263386,-0.21378 0.536221,-0.419292 0.817323,-0.62126l0.00944883 -0.00590552 0.0129921 -0.00944883 0.0283465 -0.0200788 0.399213 -0.275197 0.0425197 -0.0295276 0.0106299 -0.00708662 0.400394 -0.258662 0.0755906 -0.0484252 0.0259843 -0.0141732 0.369685 -0.223229 0.109843 -0.0649607 0.129921 -0.0755906 0.245669 -0.138189 0.146457 -0.080315 0.102756 -0.0555119 0.432284 -0.22441 0.00826772 -0.00472441 0.0708662 -0.0366142 0.432284 -0.207874 0.0602363 -0.0295276 0.0377953 -0.0177165 0.271654 -0.125197 0.272835 -0.124016 0.00354331 0c6.73465,-2.96103 17.6291,-4.213 37.839,-5.32914l2.43425 -0.133465 0.0177165 -0.0011811 0.491339 -0.0259843 0.106299 -0.00590552 0.587008 -0.0318898 0.0543308 -0.00354331 1.4126 -0.0779528 0.0708662 -0.00236221 0.69567 -0.0389764 0.147638 -0.00590552 0.657875 -0.0366142 0.227953 -0.0129921 0.614174 -0.0330709 0.316536 -0.0153543 0.559843 -0.0318898 0.409843 -0.022441 0.499607 -0.0271654 0.507874 -0.0271654 0.433465 -0.0236221 0.611811 -0.0330709 0.360236 -0.0188977 0.718111 -0.0389764 0.279921 -0.0153543 0.829134 -0.0448819 0.194882 -0.0106299 0.944883 -0.0507874 0.105118 -0.00708662 1.06063 -0.056693 0.0106299 0 1.09252 -0.0602363 0.0874016 -0.00354331 1.02402 -0.056693 0.188977 -0.00944883 0.938977 -0.0507874 0.294095 -0.0165354 0.850394 -0.046063 0.400394 -0.0200788 0.759449 -0.0413386 0.507874 -0.0271654 0.661418 -0.0366142 0.618898 -0.0330709 0.562205 -0.0295276 0.728741 -0.0401575 0.46063 -0.0259843 0.839764 -0.0437008 0.355512 -0.0212599 0.950788 -0.0507874 0.249213 -0.011811 1.06181 -0.0578741 0.142913 -0.00826772 1.17047 -0.0625985 0.0366142 -0.00236221 1.20473 -0.0649607 0.0720473 -0.00472441 1.1315 -0.0602363 0.179528 -0.00944883 1.02047 -0.0555119 0.284646 -0.0153543 0.90945 -0.0496063 0.390945 -0.0212599 0.796064 -0.0425197 0.49252 -0.0271654 0.686221 -0.0366142 0.591733 -0.0318898 0.576378 -0.0307087 0.688583 -0.0366142 0.466536 -0.0259843 0.78189 -0.0425197 0.357874 -0.0188977 0.871654 -0.046063 0.253937 -0.0141732 0.956694 -0.0531496 0.15 -0.00708662 1.03583 -0.0555119 0.0531496 -0.00354331 1.06772 -0.0578741 0.0401575 -0.0011811 1.00276 -0.0555119 0.132284 -0.00590552 0.885827 -0.0484252 0.219685 -0.0106299 0.773623 -0.0425197 0.3 -0.0165354 0.662599 -0.0366142 0.375591 -0.0188977 0.559843 -0.0295276 0.441733 -0.0236221 0.46063 -0.0259843 0.504331 -0.0271654 0.364961 -0.0200788 0.557481 -0.0307087 0.276378 -0.0141732 0.603544 -0.0318898 0.193701 -0.0106299 0.641339 -0.0354331 0.116929 -0.00590552 0.668504 -0.0366142 0.0496063 -0.0011811 0.67441 -0.0366142 0.0129921 -0.00236221 0.618898 -0.0330709 0.0661418 -0.00354331 0.519685 -0.0283465 0.111024 -0.00472441 0.426378 -0.0236221 0.146457 -0.00826772 0.34252 -0.0177165 0.172441 -0.00944883 0.265748 -0.0141732 0.186614 -0.0106299 0.199606 -0.00944883 0.190158 -0.011811 0.140551 -0.00708662 0.183071 -0.00944883 0.090945 -0.00472441 0.165354 -0.00944883 0.0519685 -0.00236221 0.133465 -0.00826772 0.0236221 -0.0011811 0.0897638 -0.00472441 0.00590552 0 0.0318898 -0.0011811z"/>
  <path class="fil10" d="M1083.18 776.228c0,0 23.6008,6.463 33.2516,13.7398 9.65198,7.27796 37.1551,35.0386 41.8264,41.8406 4.67008,6.79961 17.648,21.0496 17.648,21.0496 0,0 -19.839,6.85867 -34.4906,20.9764 -14.6528,14.1225 -25.578,32.1981 -25.578,32.1981l-23.8925 -38.1083c0,0 -7.8756,-18.3177 -8.75316,-35.5524 -0.987402,-19.3169 -0.011811,-56.1426 -0.011811,-56.1437z"/>
  <path class="fil12" d="M950.894 929.676c0,0 6.74292,-6.7441 9.85985,-10.898 3.11103,-4.15158 4.14803,-8.82048 4.14803,-8.82048l9.85985 -0.519685c0,0 0.368504,32.6658 1.03937,43.0748 1.03937,16.0866 1.55788,35.8075 1.55788,35.8075l-10.3807 0.516142c0,0 -0.519685,-19.2012 -1.03583,-34.2508 -0.396851,-11.4591 -1.04055,-27.5032 -1.04055,-27.5032 0,0 -2.5937,3.11221 -4.66772,5.71063 -2.07992,2.5937 -8.82166,5.70591 -8.82166,5.70591l-0.518504 -8.82284z"/>
  <path class="fil13" d="M1131.19 1280.08c0,0 -9.36615,-2.63504 -12.8776,-5.26654 -3.50906,-2.63504 -5.55827,-4.97599 -5.55827,-4.97599 0,0 -0.587008,-6.43819 -0.878741,-8.19213 -0.291733,-1.75748 -0.582284,-3.80551 -0.582284,-3.80551 -0.0011811,0 3.21496,4.97599 7.31103,8.19331 4.09843,3.21851 10.5354,4.39016 10.5354,4.39016l2.0504 9.6567z"/>
  <path class="fil13" d="M1127.09 1262.82c0,0 -5.85119,-2.04685 -9.07087,-4.3878 -3.21733,-2.34331 -10.2402,-9.65906 -10.2402,-9.65906 0,0 -1.46457,-3.80551 -2.63504,-4.68307 -1.17165,-0.876379 -2.92796,-2.63386 -2.92796,-2.63386 0,0 7.61103,5.2689 11.1201,7.60749 3.51142,2.34213 10.5366,4.97599 10.5366,4.97599l3.21733 8.78032z"/>
  <polygon class="fil13" points="1144.35,1266.04 1149.33,1259.6 1151.37,1268.96 1145.82,1276.57 "/>
  <polygon class="fil14" points="1140.26,1251.99 1142.3,1260.19 1146.99,1253.75 "/>
  <path class="fil4" d="M1150.1 1122.64c12.0815,2.88544 67.0973,86.9327 78.5823,103.086 19.8886,27.9721 2.36339,48.9874 -21.9201,57.1063 -18.7358,1.51063 -86.9316,-63.6981 -101.958,-79.6489 -12.2492,-13.0051 -12.0768,-10.5461 -16.2449,-23.0953 -7.63229,-22.9677 38.5536,-62.9398 61.5402,-57.4477z"/>
  <g>
   <g style="clip-path:url(#id1)">
    <image transform="matrix(1 0 0 1 -3.32362 559.288)" x="1024" y="797.643" width="226.358" height="226.357" xlink:href="353 - Football Player_Images\353 - Football Player_ImgID1.png"/>
   </g>
  </g>
  <g>
   <g style="clip-path:url(#id2)">
    <image transform="matrix(1 0 0 1 10.4362 529.368)" x="1024" y="833.436" width="190.563" height="190.564" xlink:href="353 - Football Player_Images\353 - Football Player_ImgID2.png"/>
   </g>
  </g>
  <path class="fil15" d="M1040.25 1523.97l4.83071 2.59961c0,0 18.2008,28.2319 28.9736,33.8044 0,0 -23.0315,-10.402 -33.8044,-36.404z"/>
  <path class="fil15" d="M1204.93 1389.13c0,0 11.0197,14.8571 12.5067,18.5717 0,0 10.7705,7.80237 11.8854,12.2575 0,0 -9.16418,-18.1996 -24.3921,-30.8292z"/>
  <g>
   <g style="clip-path:url(#id3)">
    <image transform="matrix(1 0 0 1 125.675 470.383)" x="1024" y="939.792" width="72.0272" height="84.2079" xlink:href="353 - Football Player_Images\353 - Football Player_ImgID3.png"/>
   </g>
  </g>
  <g>
   <g style="clip-path:url(#id4)">
    <image transform="matrix(1 0 0 1 15.7488 485.242)" x="1024" y="940.012" width="71.9504" height="83.9883" xlink:href="353 - Football Player_Images\353 - Football Player_ImgID4.png"/>
   </g>
  </g>
  <g>
   <g style="clip-path:url(#id5)">
    <image transform="matrix(1 0 0 1 82.6111 555.447)" x="1024" y="971.737" width="80.4934" height="52.2626" xlink:href="353 - Football Player_Images\353 - Football Player_ImgID5.png"/>
   </g>
  </g>
  <g>
   <g style="clip-path:url(#id6)">
    <image transform="matrix(1 0 0 1 51.0367 371.574)" x="1024" y="984.969" width="87.9225" height="39.0307" xlink:href="353 - Football Player_Images\353 - Football Player_ImgID6.png"/>
   </g>
  </g>
  <path class="fil15" d="M1240.84 1481.25c0,0 -4.08544,10.402 -7.42914,13.3725 0,0 -11.6374,33.4311 -15.8492,42.5953 -4.17638,9.08859 25.8792,-32.1933 23.2784,-55.9678z"/>
  <g style="clip-path:url(#id7)">
   <image transform="matrix(-0.537276 -0 0 0.537276 1643.54 889.923)" x="1024" y="932.333" width="83.3327" height="91.6666" xlink:href="353 - Football Player_Images\353 - Football Player_ImgID7.png"/>
  </g>
  <g style="clip-path:url(#id8)">
   <image transform="matrix(-0.537276 -0 0 0.537276 1715.17 910.07)" x="1024" y="965.668" width="133.334" height="58.3323" xlink:href="353 - Football Player_Images\353 - Football Player_ImgID8.png"/>
  </g>
  <g style="clip-path:url(#id9)">
   <image transform="matrix(-0.537276 -0 0 0.537276 1719.65 936.935)" x="1024" y="969.833" width="133.334" height="54.1666" xlink:href="353 - Football Player_Images\353 - Football Player_ImgID9.png"/>
  </g>
  <g style="clip-path:url(#id10)">
   <image transform="matrix(-0.537276 -0 0 0.537276 1782.33 986.185)" x="1024" y="949" width="24.9992" height="75.0001" xlink:href="353 - Football Player_Images\353 - Football Player_ImgID10.png"/>
  </g>
  <path class="fil16" d="M907.275 648.095c-2.88544,-7.71497 -32.3764,-16.4516 -23.1355,22.0181 1.07717,4.47048 9.313,19.1445 22.924,19.3205 14.1225,0.183071 4.62638,-28.011 0.211417,-41.3386z"/>
  <path class="fil17" d="M949.076 467.964c80.4331,30.8599 106.976,20.6835 124.395,48.0378 18.1748,28.5378 21.1382,94.4942 9.82796,148.086 -6.4441,30.5386 -19.8425,53.8796 -31.8874,71.9871 -3.49725,13.741 -72.4536,14.5654 -107.619,-3.00591 -23.6658,-11.8276 -21.3189,-18.4512 -33.8209,-45.9863 -17.3398,-38.1945 -34.3394,-55.6985 -38.5878,-112.367 -1.10197,-14.6823 -2.4874,-42.867 11.3315,-45.8174 -10.4764,-52.004 48.4359,-74.7426 66.3603,-60.9343z"/>
  <path class="fil4" d="M1049.44 548.765c7.76575,20.8642 6.25867,85.9288 0.0389764,138.945 -0.944883,8.05631 -4.71024,19.3547 -7.99843,29.889 -2.9752,9.53032 -5.56063,18.4358 -5.31733,23.7532 0.774804,16.963 1.16457,21.8421 13.6205,28.7481 0.0838583,3.47717 -12.2835,6.07796 -17.2075,9.28583 -8.02796,5.22993 -18.6343,29.0173 -30.7914,30.8209 -9.73702,1.44567 -11.9894,-19.7209 -17.8134,-22.4103 -33.5823,-15.5173 -68.0292,-38.6481 -80.1048,-75.9568 -11.6244,-18.75 -14.8725,-159.398 -0.86693,-175.836 8.82048,-21.0969 39.1099,8.21221 63.3957,1.76102 61.7138,-14.8028 79.5568,0.197244 83.0446,10.9996z"/>
  <path class="fil16" d="M1045.43 704.893l-0.0578741 0.194882 -0.0165354 0.0555119 -0.0425197 0.140551 -0.0590552 0.197244 -0.0472441 0.155906 -0.011811 0.0413386 -0.0590552 0.196063 -0.0602363 0.198425 -0.0177165 0.0590552 -0.0413386 0.138189 -0.0614174 0.198425 -0.0496063 0.159449 -0.0106299 0.0377953 -0.0602363 0.197244 -0.0602363 0.198425 -0.0200788 0.0625985 -0.0401575 0.134646 -0.0614174 0.199606 -0.121654 0.39567 -0.0625985 0.199606 -0.0200788 0.0661418 -0.0401575 0.132284 -0.0614174 0.199606 -0.0614174 0.198425 -0.0614174 0.198425 -0.0625985 0.199606 -0.0212599 0.0696851 -0.0401575 0.12874 -0.0614174 0.200788 -0.0543308 0.170079 -0.00944883 0.0283465 -0.0614174 0.198425 -0.0625985 0.200788 -0.022441 0.0732284 -0.0389764 0.125197 -0.0625985 0.200788 -0.0543308 0.174803 -0.00826772 0.0236221 -0.0614174 0.199606 -0.0625985 0.199606 -0.0248032 0.0767717 -0.0389764 0.122835 -0.0625985 0.199606 -0.0555119 0.178347 -0.00708662 0.0212599 -0.0625985 0.198425 -0.0625985 0.200788 -0.0248032 0.080315 -0.0377953 0.11811 -0.0625985 0.200788 -0.056693 0.18189 -0.00590552 0.0165354 -0.0637796 0.199606 -0.0625985 0.199606 -0.0259843 0.0838583 -0.0366142 0.115748 -0.0625985 0.199606 -0.0578741 0.185433 -0.00472441 0.0129921 -0.0625985 0.199606 -0.0625985 0.199606 -0.0271654 0.0874016 -0.034252 0.111024 -0.0637796 0.199606 -0.0590552 0.187795 -0.00354331 0.0106299 -0.0625985 0.198425 -0.0625985 0.199606 -0.0283465 0.0897638 -0.034252 0.10748 -0.0614174 0.199606 -0.0602363 0.191339 -0.00236221 0.00708662 -0.0625985 0.197244 -0.0625985 0.199606 -0.0295276 0.0933072 -0.0330709 0.103937 -0.0614174 0.198425 -0.0602363 0.193701 -0.0011811 0.00354331 -0.0625985 0.197244 -0.0614174 0.198425 -0.0295276 0.0956694 -0.0318898 0.100394 -0.0614174 0.198425 -0.0625985 0.196063c-2.97402,9.52914 -5.55945,18.4347 -5.31615,23.7532l0.00236221 0.0472441 0.00236221 0.0472441 0.0011811 0.0472441 0.00236221 0.046063 0.00236221 0.0472441 0.00236221 0.0484252 0.00236221 0.046063 0.00236221 0.0472441 0.0011811 0.046063 0.00236221 0.0472441 0.00236221 0.046063 0.00236221 0.046063 0.00236221 0.0472441 0.0011811 0.046063 0.00236221 0.046063 0.00236221 0.0472441 0.0011811 0.0377953 0.0011811 0.00826772 0.00236221 0.046063 0.0011811 0.046063 0.00236221 0.046063 0.00236221 0.046063 0.00236221 0.046063 0.00236221 0.046063 0.00236221 0.0448819 0.0011811 0.046063 0.00236221 0.046063 0.00236221 0.046063 0.00236221 0.046063 0.0011811 0.0448819 0.00236221 0.046063 0.00236221 0.0448819 0.00236221 0.0448819 0.00236221 0.046063 0.0011811 0.0283465 0 0.0165354 0.00236221 0.0448819 0.00236221 0.0448819 0.00236221 0.0448819 0.00236221 0.046063 0.0011811 0.0448819 0.00236221 0.0448819 0.00236221 0.0448819 0.00236221 0.0448819 0.00236221 0.0437008 0.0011811 0.0448819 0.00236221 0.0448819 0.00236221 0.0437008 0.00236221 0.0448819 0.0011811 0.0448819 0.00236221 0.0448819 0.00236221 0.0437008 0.0011811 0.0200788 0.0011811 0.0248032 0.00236221 0.0437008 0.0011811 0.0437008 0.00236221 0.0448819 0.00236221 0.0437008 0.00236221 0.0437008 0.00236221 0.0437008 0.0011811 0.0437008 0.00236221 0.0437008 0.00236221 0.0448819 0.00236221 0.0437008 0.0011811 0.0425197 0.00236221 0.0437008 0.00236221 0.0437008 0.00708662 0.140551 0.0271654 0.538583 0.00944883 0.180709 0.0259843 0.485433 0.011811 0.216142c0.555119,10.1929 1.01221,16.3122 9.92835,22.2024l0.279921 0.18189 0.0602363 0.0377953 0.409843 0.259843 0.0212599 0.0141732 0.148819 0.0933072 0.357874 0.220866 0.00354331 0.00236221 0.377953 0.226772 0.142913 0.0862205 0.0944883 0.0555119 0.445276 0.262205 0.0649607 0.0377953 0.49252 0.281103 0.034252 0.0200788 0.540945 0.302362 0 0.0141732 0 0.0153543 -0.00236221 0.0389764 -0.00590552 0.115748 -0.00826772 0.0590552 -0.0153543 0.0944883 -0.022441 0.0874016 -0.0177165 0.068504 -0.0295276 0.0814961 -0.0318898 0.0838583 -0.00354331 0.00944883 -0.0614174 0.131102 -0.0141732 0.0271654 -0.0283465 0.0484252 -0.0602363 0.102756 -0.0165354 0.0248032 -0.0897638 0.127559 -0.00472441 0.00590552 -0.101575 0.129921 -0.0200788 0.0248032 -0.113386 0.12874 -0.022441 0.0236221 -0.126378 0.127559 -0.0236221 0.0236221 -0.13937 0.12874 -0.0259843 0.022441 -0.15 0.127559 -0.175984 0.140551 -0.011811 0.00944883 -0.0271654 0.0212599 -0.173622 0.127559 -0.0295276 0.0212599 -0.183071 0.126378 -0.0295276 0.0200788 -0.194882 0.127559 -0.0307087 0.0188977 -0.204331 0.126378 -0.245669 0.146457 -0.0318898 0.0188977 -0.223229 0.126378 -0.0330709 0.0177165 -0.232677 0.126378 -0.0330709 0.0177165 -0.239764 0.126378 -0.034252 0.0177165 -0.249213 0.125197 -0.034252 0.0177165 -0.256299 0.125197 -0.0354331 0.0165354 -0.264567 0.125197 -0.0330709 0.0153543 -0.274016 0.127559 -0.0330709 0.0153543 -0.27874 0.125197 -0.0330709 0.0153543 -0.287008 0.125197 -0.0330709 0.0141732 -0.292914 0.127559 -0.0330709 0.0141732 -0.296457 0.125197 -0.0330709 0.0141732 -0.303544 0.125197 -0.0318898 0.0141732 -0.309449 0.125197 -0.0307087 0.0129921 -0.312992 0.127559 -0.0307087 0.0129921 -0.317717 0.126378 -0.0307087 0.011811 -0.32126 0.126378 -0.0295276 0.011811 -0.323622 0.127559 -0.0307087 0.011811 -0.325985 0.127559 -0.0283465 0.0106299 -0.330709 0.127559 -0.0271654 0.0106299 -0.333071 0.127559 -0.0259843 0.0106299 -0.334252 0.12874 -0.0248032 0.00944883 -0.336614 0.12874 -0.0248032 0.00944883 -0.336614 0.129921 -0.0236221 0.00826772 -0.337796 0.131102 -0.022441 0.00826772 -0.336614 0.129921 -0.0212599 0.00944883 -0.337796 0.129921 -0.0200788 0.00826772 -0.336614 0.131102 -0.0188977 0.00708662 -0.335433 0.133465 -0.0188977 0.00708662 -0.333071 0.132284 -0.0165354 0.00708662 -0.333071 0.133465 -0.0153543 0.00590552 -0.329528 0.134646 -0.0141732 0.00708662 -0.325985 0.134646 -0.0129921 0.00472441 -0.323622 0.135827 -0.0129921 0.00590552 -0.318898 0.135827 -0.011811 0.00472441 -0.314173 0.138189 -0.00944883 0.00472441 -0.31063 0.138189 -0.00944883 0.00354331 -0.304725 0.13937 -0.00826772 0.00354331 -0.297638 0.141732 -0.00708662 0.00354331 -0.294095 0.140551 -0.00590552 0.00236221 -0.284646 0.142913 -0.00590552 0.00236221 -0.27874 0.142913 -0.00354331 0.00236221 -0.272835 0.145276 -0.00236221 0.0011811 -0.262205 0.145276 -0.00236221 0.0011811 -0.255118 0.146457 -0.0011811 0.0011811 -0.245669 0.148819 0 0.0011811 -0.236221 0.148819c-8.02796,5.22874 -24.9331,38.4697 -37.0902,40.2733 -1.14685,0.17126 -2.44606,-0.100394 -3.85276,-0.7063 -6.43229,-3.79016 -6.75237,-28.8059 -26.165,-40.5496 -12.3165,-7.4504 -26.3185,-17.2784 -33.4736,-23.8807l-0.0944883 -0.0897638 -0.0177165 -0.0165354 -1.17756 -1.11614 -0.211417 -0.20315c-0.349607,-0.337796 -0.698032,-0.676772 -1.04291,-1.01693l-0.100394 -0.0980316 -0.140551 -0.140551 -1.08543 -1.08898 -0.00472441 -0.00472441 -0.0177165 -0.0177165 -0.0389764 -0.0401575c-0.392126,-0.399213 -0.780709,-0.800788 -1.16693,-1.20473l-0.0578741 -0.0614174 -0.305906 -0.324803c28.4929,24.9792 58.0843,14.2913 80.6197,-2.82874 22.3311,-16.9642 37.7351,-40.2402 38.2784,-41.3776z"/>
  <path class="fil18" d="M1051.49 647.47c2.90197,-8.49804 34.7729,-18.9461 25.904,23.2748 -1.0311,4.90748 -9.54922,21.1606 -24.3815,21.7795 -15.3851,0.641339 -5.91851,-30.3886 -1.52244,-45.0544z"/>
  <path class="fil17" d="M1067.12 639.589l-11.8701 -49.5993c-0.35315,11.4248 -9.97087,81.0154 -17.5488,87.3119 16.0571,4.32638 19.3228,-39.7323 29.4189,-37.7126z"/>
  <path class="fil12" d="M991.516 916.393c0,0 6.7441,-6.74528 9.86103,-10.8992 3.11103,-4.15158 4.14803,-8.8193 4.14803,-8.8193l9.85985 -0.519685c0,0 0.368504,32.6646 1.03937,43.0737 1.03937,16.0878 1.55788,35.8075 1.55788,35.8075l-10.3819 0.517323c0,0 -0.518504,-19.2012 -1.03465,-34.2508 -0.396851,-11.4591 -1.04055,-27.5044 -1.04055,-27.5044 0,0 -2.5937,3.11339 -4.66772,5.71182 -2.07992,2.5937 -8.82166,5.70473 -8.82166,5.70473l-0.519685 -8.82166z"/>
 </g>
</svg>
