<?xml version="1.0" encoding="UTF-8"?>
<!DOCTYPE svg PUBLIC "-//W3C//DTD SVG 1.1//EN" "http://www.w3.org/Graphics/SVG/1.1/DTD/svg11.dtd">
<!-- Creator: CorelDRAW -->
<svg xmlns="http://www.w3.org/2000/svg" xml:space="preserve" width="2048px" height="2048px" style="shape-rendering:geometricPrecision; text-rendering:geometricPrecision; image-rendering:optimizeQuality; fill-rule:evenodd; clip-rule:evenodd"
viewBox="0 0 2048 2048"
 xmlns:xlink="http://www.w3.org/1999/xlink">
 <defs>
  <style type="text/css">
   <![CDATA[
    .fil2 {fill:none}
    .fil1 {fill:#E53935}
    .fil0 {fill:#E57373}
    .fil3 {fill:#FAFAFA}
    .fil7 {fill:#212121;fill-rule:nonzero}
    .fil6 {fill:#66BB6A;fill-rule:nonzero}
    .fil4 {fill:#D50000;fill-rule:nonzero}
    .fil5 {fill:#FF9100;fill-rule:nonzero}
   ]]>
  </style>
   <clipPath id="id0">
    <path d="M1024 0c565.539,0 1024,458.461 1024,1024 0,565.539 -458.461,1024 -1024,1024 -565.539,0 -1024,-458.461 -1024,-1024 0,-565.539 458.461,-1024 1024,-1024z"/>
   </clipPath>
 </defs>
 <g id="Layer_x0020_1">
  <metadata id="CorelCorpID_0Corel-Layer"/>
  <path class="fil0" d="M1024 0c565.539,0 1024,458.461 1024,1024 0,565.539 -458.461,1024 -1024,1024 -565.539,0 -1024,-458.461 -1024,-1024 0,-565.539 458.461,-1024 1024,-1024z"/>
  <g style="clip-path:url(#id0)">
   <g id="_478226176">
    <g>
     <polygon id="_3968253281" class="fil1" points="1467.34,487.333 2603.22,1623.22 2603.22,1716.55 1467.34,580.665 "/>
     <polygon id="_396826264" class="fil1" points="1560.67,580.665 2696.55,1716.55 2653.82,1763.21 1517.94,627.332 "/>
     <polygon id="_392642520" class="fil1" points="1517.94,627.332 2653.82,1763.21 2589.24,1763.21 1453.36,627.332 "/>
     <polygon id="_392616144" class="fil1" points="1453.36,627.332 2589.24,1763.21 2571.84,1780.55 1435.96,644.671 "/>
     <polygon id="_392621976" class="fil1" points="1447.64,657.749 2583.52,1793.63 2584.47,1794.74 2585.42,1795.85 2586.37,1796.96 2587.32,1798.08 1451.44,662.193 1450.49,661.078 1449.54,659.966 1448.59,658.856 "/>
     <polygon id="_392642592" class="fil1" points="1451.44,662.193 2587.32,1798.08 2594.97,1807.31 2602.43,1816.71 2609.69,1826.27 2616.75,1835.98 2623.61,1845.86 2630.26,1855.88 2636.69,1866.06 2642.92,1876.38 2648.92,1886.85 2654.71,1897.45 2660.27,1908.2 2665.6,1919.07 2670.7,1930.08 2675.58,1941.21 2680.21,1952.47 2684.61,1963.85 2688.76,1975.35 2692.67,1986.96 2696.33,1998.69 2699.74,2010.52 2702.89,2022.46 2705.79,2034.5 2708.43,2046.65 2710.8,2058.89 2712.9,2071.22 2714.73,2083.64 2716.29,2096.15 2717.58,2108.74 2718.58,2121.41 2719.3,2134.16 2719.74,2146.99 2719.88,2159.88 1584,1024 1583.85,1011.1 1583.42,998.279 1582.7,985.528 1581.7,972.856 1580.41,960.263 1578.85,947.755 1577.02,935.333 1574.91,923.003 1572.54,910.764 1569.91,898.622 1567.01,886.581 1563.86,874.641 1560.45,862.807 1556.79,851.082 1552.88,839.468 1548.73,827.97 1544.33,816.59 1539.7,805.331 1534.82,794.196 1529.72,783.19 1524.39,772.314 1518.82,761.572 1513.04,750.966 1507.03,740.501 1500.81,730.178 1494.38,720.002 1487.73,709.975 1480.87,700.101 1473.81,690.383 1466.55,680.823 1459.09,671.425 "/>
     <polygon id="_392631672" class="fil1" points="1584,1024 2719.88,2159.88 2719.7,2174.34 2719.15,2188.7 2718.25,2202.97 2716.99,2217.14 2715.38,2231.2 2713.43,2245.16 2711.13,2259.01 2708.5,2272.74 2705.54,2286.35 2702.25,2299.83 2698.64,2313.19 2694.7,2326.41 2690.46,2339.49 2685.9,2352.43 2681.04,2365.22 2675.87,2377.86 2670.41,2390.34 2664.66,2402.66 2658.62,2414.82 2652.29,2426.81 2645.69,2438.62 2638.81,2450.26 2631.66,2461.71 2624.24,2472.98 2616.56,2484.06 2608.63,2494.94 2600.44,2505.62 2592,2516.09 2583.32,2526.36 2574.4,2536.41 2565.25,2546.25 2555.86,2555.86 1419.98,1419.98 1429.36,1410.36 1438.52,1400.53 1447.44,1390.48 1456.12,1380.21 1464.56,1369.73 1472.75,1359.05 1480.68,1348.17 1488.36,1337.1 1495.78,1325.83 1502.93,1314.38 1509.81,1302.74 1516.41,1290.93 1522.74,1278.94 1528.78,1266.78 1534.53,1254.46 1539.99,1241.97 1545.16,1229.33 1550.02,1216.54 1554.58,1203.61 1558.82,1190.52 1562.76,1177.3 1566.37,1163.95 1569.66,1150.47 1572.62,1136.86 1575.25,1123.13 1577.55,1109.28 1579.5,1095.32 1581.11,1081.26 1582.37,1067.09 1583.27,1052.82 1583.82,1038.45 "/>
     <polygon id="_392636952" class="fil1" points="1419.98,1419.98 2555.86,2555.86 2546.24,2565.25 2536.41,2574.4 2526.36,2583.32 2516.09,2592 2505.61,2600.44 2494.93,2608.63 2484.06,2616.56 2472.98,2624.24 2461.71,2631.66 2450.26,2638.81 2438.62,2645.69 2426.81,2652.29 2414.82,2658.62 2402.66,2664.66 2390.34,2670.41 2377.85,2675.87 2365.22,2681.04 2352.42,2685.9 2339.49,2690.46 2326.4,2694.71 2313.18,2698.64 2299.83,2702.25 2286.35,2705.54 2272.74,2708.5 2259.01,2711.14 2245.16,2713.43 2231.2,2715.38 2217.14,2716.99 2202.97,2718.25 2188.7,2719.15 2174.33,2719.7 2159.88,2719.88 1024,1584 1038.45,1583.82 1052.82,1583.27 1067.09,1582.37 1081.26,1581.11 1095.32,1579.5 1109.28,1577.55 1123.13,1575.25 1136.86,1572.62 1150.47,1569.66 1163.95,1566.37 1177.3,1562.76 1190.52,1558.82 1203.61,1554.58 1216.54,1550.02 1229.33,1545.16 1241.97,1539.99 1254.46,1534.53 1266.78,1528.78 1278.94,1522.74 1290.93,1516.41 1302.74,1509.81 1314.38,1502.93 1325.83,1495.78 1337.1,1488.36 1348.17,1480.68 1359.05,1472.75 1369.73,1464.56 1380.21,1456.12 1390.48,1447.44 1400.53,1438.52 1410.36,1429.36 "/>
     <polygon id="_392623896" class="fil1" points="1024,1584 2159.88,2719.88 2145.43,2719.7 2131.06,2719.15 2116.8,2718.25 2102.63,2716.99 2088.56,2715.38 2074.6,2713.43 2060.75,2711.14 2047.02,2708.5 2033.41,2705.54 2019.93,2702.25 2006.58,2698.64 1993.36,2694.71 1980.28,2690.46 1967.34,2685.9 1954.55,2681.04 1941.91,2675.87 1929.42,2670.41 1917.1,2664.66 1904.94,2658.62 1892.96,2652.29 1881.14,2645.69 1869.5,2638.81 1858.05,2631.66 1846.78,2624.24 1835.71,2616.56 1824.83,2608.63 1814.15,2600.44 1803.67,2592 1793.41,2583.32 657.525,1447.44 667.791,1456.12 678.266,1464.56 688.947,1472.75 699.826,1480.68 710.903,1488.36 722.169,1495.78 733.623,1502.93 745.26,1509.81 757.074,1516.41 769.062,1522.74 781.221,1528.78 793.543,1534.53 806.026,1539.99 818.665,1545.16 831.457,1550.02 844.394,1554.58 857.476,1558.82 870.696,1562.76 884.05,1566.37 897.533,1569.66 911.143,1572.62 924.872,1575.25 938.72,1577.55 952.678,1579.5 966.745,1581.11 980.915,1582.37 995.183,1583.27 1009.55,1583.82 "/>
    </g>
    <path id="_478205464" class="fil1" d="M1024 464c137.793,0 263.964,49.767 361.512,132.312 5.95512,5.0315 11.8004,10.1894 17.5347,15.4654l17.6209 -17.563 0 -58.4599 46.6678 -48.4217 0 93.332 93.332 0 -42.7252 46.6678 -64.5839 0 -17.3953 17.3386c5.27835,5.72953 10.4386,11.5701 15.4725,17.5217 82.6926,97.5922 132.565,223.878 132.565,361.807 0,154.636 -62.6812,294.636 -164.023,395.977 -101.341,101.342 -241.341,164.023 -395.977,164.023 -154.636,0 -294.636,-62.6812 -395.977,-164.023 -101.342,-101.341 -164.023,-241.341 -164.023,-395.977 0,-154.636 62.6812,-294.636 164.023,-395.977 101.341,-101.342 241.341,-164.023 395.977,-164.023z"/>
   </g>
  </g>
  <path class="fil2" d="M1024 0c565.539,0 1024,458.461 1024,1024 0,565.539 -458.461,1024 -1024,1024 -565.539,0 -1024,-458.461 -1024,-1024 0,-565.539 458.461,-1024 1024,-1024z"/>
  <circle class="fil3" cx="1024" cy="1024" r="560"/>
  <path class="fil4" d="M1024 463.999c137.79,0 263.96,49.7705 361.512,132.313l-33.1855 33.0768c-88.9938,-74.1249 -203.45,-118.722 -328.327,-118.722 -141.754,0 -270.089,57.4571 -362.981,150.352 -92.895,92.8926 -150.352,221.228 -150.352,362.981 0,141.754 57.4571,270.089 150.352,362.981 92.8926,92.895 221.228,150.352 362.981,150.352 141.754,0 270.089,-57.4571 362.981,-150.352 92.895,-92.8926 150.352,-221.228 150.352,-362.981 0,-125.072 -44.7366,-239.691 -119.071,-328.744l33.1725 -33.0638c82.6938,97.5934 132.566,223.878 132.566,361.807 0,154.635 -62.6823,294.636 -164.025,395.977 -101.341,101.342 -241.342,164.025 -395.977,164.025 -154.635,0 -294.636,-62.6823 -395.977,-164.025 -101.342,-101.341 -164.025,-241.342 -164.025,-395.977 0,-154.635 62.6823,-294.636 164.025,-395.977 101.341,-101.342 241.342,-164.025 395.977,-164.025z"/>
  <path class="fil5" d="M1024 592.333c102.265,0 196.226,35.5666 270.189,95.0032l-33.2788 33.1689c-65.328,-51.0662 -147.563,-81.5044 -236.91,-81.5044 -106.316,0 -202.567,43.0926 -272.236,112.763 -69.6709,69.6686 -112.763,165.92 -112.763,272.236 0,106.316 43.0926,202.567 112.763,272.236 69.6686,69.6709 165.92,112.763 272.236,112.763 106.316,0 202.567,-43.0926 272.236,-112.763 69.6709,-69.6686 112.763,-165.92 112.763,-272.236 0,-89.6965 -30.6733,-172.228 -82.1009,-237.678l33.254 -33.1465c59.7437,74.0611 95.5146,168.267 95.5146,270.825 0,119.197 -48.3178,227.114 -126.436,305.231 -78.117,78.1182 -186.034,126.436 -305.231,126.436 -119.197,0 -227.114,-48.3178 -305.231,-126.436 -78.1182,-78.117 -126.436,-186.034 -126.436,-305.231 0,-119.197 48.3178,-227.114 126.436,-305.231 78.117,-78.1182 186.034,-126.436 305.231,-126.436z"/>
  <path class="fil4" d="M1024 743.999c60.254,0 116.065,19.037 161.747,51.4217l-33.6366 33.5268c-36.7725,-24.1996 -80.7969,-38.2807 -128.111,-38.2807 -64.4351,0 -122.77,26.1166 -164.993,68.3398 -42.2233,42.2233 -68.3398,100.558 -68.3398,164.993 0,64.4351 26.1166,122.77 68.3398,164.993 42.2233,42.2233 100.558,68.3398 164.993,68.3398 64.4351,0 122.77,-26.1166 164.993,-68.3398 42.2233,-42.2233 68.3398,-100.558 68.3398,-164.993 0,-47.85 -14.4071,-92.3351 -39.1122,-129.357l33.5835 -33.4736c32.8547,45.8823 52.1965,102.098 52.1965,162.83 0,77.3162 -31.3418,147.317 -82.0123,197.988 -50.6717,50.6705 -120.672,82.0123 -197.988,82.0123 -77.3162,0 -147.317,-31.3418 -197.988,-82.0123 -50.6705,-50.6717 -82.0123,-120.672 -82.0123,-197.988 0,-77.3162 31.3418,-147.317 82.0123,-197.988 50.6717,-50.6705 120.672,-82.0123 197.988,-82.0123z"/>
  <path class="fil6" d="M1024 860.665c27.8351,0 54.0426,6.96615 76.9796,19.2461l-35.2299 35.1142c-12.9638,-4.97008 -27.0378,-7.69253 -41.7496,-7.69253 -32.2193,0 -61.3867,13.0583 -82.4977,34.1693 -21.111,21.111 -34.1693,50.2784 -34.1693,82.4977 0,32.2193 13.0583,61.3867 34.1693,82.4977 21.111,21.111 50.2784,34.1693 82.4977,34.1693 32.2193,0 61.3867,-13.0583 82.4977,-34.1693 21.111,-21.111 34.1693,-50.2784 34.1693,-82.4977 0,-15.4323 -2.99764,-30.1654 -8.43898,-43.6465l35.0126 -34.8969c12.8079,23.3067 20.0941,50.0741 20.0941,78.5434 0,45.1004 -18.2823,85.9347 -47.8418,115.493 -29.5583,29.5595 -70.3926,47.8418 -115.493,47.8418 -45.1004,0 -85.9347,-18.2823 -115.493,-47.8418 -29.5595,-29.5583 -47.8418,-70.3926 -47.8418,-115.493 0,-45.1004 18.2823,-85.9347 47.8418,-115.493 29.5583,-29.5595 70.3926,-47.8418 115.493,-47.8418z"/>
  <polygon class="fil7" points="1008.15,1005.38 1436.45,578.484 1469.26,611.48 1040.96,1038.38 "/>
  <polygon class="fil7" points="1517.94,627.332 1444,627.332 1420.67,627.332 1420.67,603.998 1420.67,535.754 1467.34,487.331 1467.34,580.665 1560.67,580.665 "/>
  <polygon class="fil7" points="1117.43,1047.33 1000.67,1047.33 1000.67,928.04 "/>
 </g>
</svg>
