<?xml version="1.0" encoding="UTF-8"?>
<!DOCTYPE svg PUBLIC "-//W3C//DTD SVG 1.1//EN" "http://www.w3.org/Graphics/SVG/1.1/DTD/svg11.dtd">
<!-- Creator: CorelDRAW -->
<svg xmlns="http://www.w3.org/2000/svg" xml:space="preserve" width="2048px" height="2048px" style="shape-rendering:geometricPrecision; text-rendering:geometricPrecision; image-rendering:optimizeQuality; fill-rule:evenodd; clip-rule:evenodd"
viewBox="0 0 2048 2048"
 xmlns:xlink="http://www.w3.org/1999/xlink">
 <defs>
  <style type="text/css">
   <![CDATA[
    .fil2 {fill:none}
    .fil1 {fill:#00897B}
    .fil10 {fill:#0D47A1}
    .fil11 {fill:#1A1A1A}
    .fil20 {fill:#212121}
    .fil19 {fill:#333333}
    .fil4 {fill:#424242}
    .fil13 {fill:#4D4D4D}
    .fil0 {fill:#4DB6AC}
    .fil15 {fill:#616161}
    .fil17 {fill:#999999}
    .fil18 {fill:#B3B3B3}
    .fil12 {fill:#BDBDBD}
    .fil8 {fill:#CCCCCC}
    .fil14 {fill:#FFA000}
    .fil21 {fill:#0D47A1;fill-rule:nonzero}
    .fil6 {fill:#333333;fill-rule:nonzero}
    .fil16 {fill:#4D4D4D;fill-rule:nonzero}
    .fil5 {fill:#757575;fill-rule:nonzero}
    .fil7 {fill:#999999;fill-rule:nonzero}
    .fil3 {fill:#B3B3B3;fill-rule:nonzero}
    .fil9 {fill:#E6E6E6;fill-rule:nonzero}
   ]]>
  </style>
   <clipPath id="id0">
    <path d="M1024 0c565.539,0 1024,458.461 1024,1024 0,565.539 -458.461,1024 -1024,1024 -565.539,0 -1024,-458.461 -1024,-1024 0,-565.539 458.461,-1024 1024,-1024z"/>
   </clipPath>
 </defs>
 <g id="Layer_x0020_1">
  <metadata id="CorelCorpID_0Corel-Layer"/>
  <path class="fil0" d="M1024 0c565.539,0 1024,458.461 1024,1024 0,565.539 -458.461,1024 -1024,1024 -565.539,0 -1024,-458.461 -1024,-1024 0,-565.539 458.461,-1024 1024,-1024z"/>
  <g style="clip-path:url(#id0)">
   <g id="_478222888">
    <g>
     <path id="_3926189281" class="fil1" d="M2219.12 1909.36l0 0zm-1135.88 -1135.88l0 0z"/>
     <polygon id="_392621880" class="fil1" points="894.611,681.308 2030.49,1817.19 2031.17,1818 2031.77,1818.87 2032.29,1819.79 2032.71,1820.76 2033.04,1821.77 2033.28,1822.81 2033.41,1823.88 2033.43,1824.96 2033.35,1826.06 2033.15,1827.17 897.268,691.29 897.467,690.182 897.552,689.08 897.527,687.993 897.395,686.924 897.163,685.883 896.832,684.875 896.407,683.906 895.892,682.985 895.292,682.115 "/>
     <polygon id="_392634144" class="fil1" points="897.268,691.29 2033.15,1827.17 2032.7,1828.64 2032.07,1830 2031.27,1831.24 2030.32,1832.35 2029.24,1833.32 2028.05,1834.14 2026.76,1834.79 2025.39,1835.28 889.511,699.395 890.88,698.912 892.17,698.256 893.362,697.438 894.44,696.469 895.386,695.359 896.185,694.119 896.818,692.76 "/>
     <polygon id="_392643240" class="fil1" points="889.511,699.395 2025.39,1835.28 2025.36,1835.44 2025.32,1835.61 2025.28,1835.77 2025.24,1835.94 2025.19,1836.11 2025.15,1836.27 2025.09,1836.44 2025.04,1836.6 889.161,700.719 889.214,700.554 889.264,700.39 889.312,700.224 889.357,700.059 889.399,699.892 889.439,699.727 889.477,699.562 "/>
     <polygon id="_392619792" class="fil1" points="867.664,695.3 2003.55,1831.18 2001.81,1830.68 2000.24,1830.23 1998.82,1829.81 1997.48,1829.44 1996.21,1829.11 1994.95,1828.81 1993.66,1828.54 1992.32,1828.3 1990.87,1828.08 1989.28,1827.88 1987.52,1827.69 1985.53,1827.53 1983.28,1827.37 1980.74,1827.22 1977.85,1827.07 1974.59,1826.92 1972.36,1826.83 1970.15,1826.76 1967.97,1826.71 1965.82,1826.67 1963.69,1826.65 1961.59,1826.66 1959.52,1826.67 1957.47,1826.71 1955.46,1826.77 1953.48,1826.84 1951.53,1826.94 1949.62,1827.05 1947.73,1827.18 1945.89,1827.34 1944.08,1827.51 1942.31,1827.7 1940.57,1827.91 1938.87,1828.15 1937.22,1828.4 1935.6,1828.68 1934.03,1828.97 1932.5,1829.29 1931.01,1829.62 1929.56,1829.98 1928.16,1830.36 1926.81,1830.77 1925.51,1831.19 1924.25,1831.64 1923.04,1832.1 1921.88,1832.6 1920.78,1833.11 1919.72,1833.65 783.84,697.765 784.895,697.228 786.003,696.714 787.16,696.223 788.369,695.754 789.625,695.307 790.931,694.883 792.283,694.48 793.681,694.1 795.126,693.741 796.614,693.404 798.146,693.088 799.72,692.793 801.336,692.519 802.992,692.266 804.689,692.032 806.424,691.819 808.197,691.627 810.008,691.456 811.854,691.302 813.734,691.17 815.65,691.056 817.599,690.962 819.579,690.886 821.592,690.83 823.634,690.792 825.707,690.773 827.808,690.772 829.936,690.79 832.092,690.825 834.272,690.878 836.479,690.948 838.709,691.036 841.971,691.185 844.855,691.333 847.401,691.485 849.648,691.643 851.636,691.812 853.404,691.995 854.991,692.195 856.438,692.414 857.782,692.657 859.065,692.927 860.325,693.227 861.602,693.562 862.934,693.932 864.363,694.343 865.927,694.798 "/>
     <polygon id="_392614512" class="fil1" points="783.84,697.765 1919.72,1833.65 1918.12,1834.53 1916.57,1835.45 1915.09,1836.39 1913.68,1837.35 1912.33,1838.34 1911.04,1839.35 1909.81,1840.38 1908.65,1841.44 1907.56,1842.51 1906.53,1843.61 1905.56,1844.72 1904.66,1845.86 1903.82,1847.01 1903.04,1848.18 1902.33,1849.36 1901.69,1850.56 765.808,714.676 766.453,713.477 767.163,712.293 767.938,711.125 768.777,709.974 769.679,708.84 770.646,707.725 771.677,706.629 772.773,705.554 773.933,704.5 775.157,703.466 776.444,702.455 777.795,701.468 779.212,700.504 780.69,699.565 782.234,698.652 "/>
     <polygon id="_392635176" class="fil1" points="864.248,800.334 2000.13,1936.22 1997.84,1943.04 861.962,807.158 "/>
     <polygon id="_392632656" class="fil1" points="765.808,714.676 1901.69,1850.56 1901.14,1851.7 1900.65,1852.87 1900.21,1854.05 1899.83,1855.25 1899.5,1856.46 1899.23,1857.69 1899.01,1858.93 1898.86,1860.18 1898.76,1861.45 1898.71,1862.73 1898.72,1864.02 1898.79,1865.32 1898.91,1866.63 1899.09,1867.95 1899.33,1869.27 1899.63,1870.61 763.744,734.724 763.45,733.391 763.212,732.064 763.032,730.746 762.908,729.438 762.84,728.137 762.829,726.847 762.875,725.568 762.976,724.301 763.133,723.045 763.348,721.804 763.618,720.577 763.945,719.364 764.326,718.166 764.764,716.986 765.259,715.822 "/>
     <polygon id="_392624544" class="fil1" points="763.744,734.724 1899.63,1870.61 1899.76,1871.14 1899.89,1871.69 1900.04,1872.24 1900.19,1872.8 1900.34,1873.36 1900.5,1873.93 1900.67,1874.5 1900.84,1875.08 764.96,739.198 764.787,738.618 764.62,738.044 764.46,737.476 764.305,736.913 764.156,736.356 764.013,735.806 763.875,735.262 "/>
     <polygon id="_392618424" class="fil1" points="1141.24,838.915 2277.12,1974.8 2270.81,1972.39 1134.93,836.506 "/>
     <polygon id="_392637504" class="fil1" points="1165.12,797.597 2301,1933.48 2297.37,1933.2 2293.71,1932.9 2290.06,1932.58 2286.4,1932.23 2282.76,1931.87 2279.13,1931.48 2275.53,1931.06 2271.97,1930.62 2268.45,1930.16 2264.99,1929.66 2261.58,1929.13 2258.25,1928.58 2254.99,1927.99 2251.82,1927.37 2248.75,1926.72 2245.78,1926.03 2242.92,1925.3 2240.18,1924.54 2237.56,1923.74 2235.09,1922.9 2232.76,1922.02 2230.58,1921.1 2228.57,1920.13 2226.73,1919.13 2225.06,1918.07 2223.58,1916.98 2222.3,1915.83 1086.42,779.947 1087.7,781.093 1089.18,782.192 1090.84,783.244 1092.69,784.251 1094.7,785.216 1096.88,786.138 1099.21,787.018 1101.68,787.857 1104.3,788.657 1107.04,789.42 1109.9,790.145 1112.87,790.834 1115.94,791.488 1119.11,792.108 1122.37,792.696 1125.7,793.251 1129.11,793.777 1132.57,794.273 1136.09,794.742 1139.65,795.183 1143.25,795.597 1146.87,795.986 1150.52,796.352 1154.18,796.694 1157.83,797.016 1161.48,797.316 "/>
     <polygon id="_392623272" class="fil1" points="1233.96,746.288 2369.84,1882.17 2371.06,1883.69 2372.16,1885.37 2373.15,1887.21 2374.02,1889.18 2374.8,1891.28 2375.47,1893.47 2376.06,1895.75 2376.57,1898.11 2377,1900.51 2377.36,1902.95 2377.66,1905.41 2377.91,1907.88 2378.1,1910.33 2378.26,1912.75 2378.38,1915.12 2378.48,1917.43 2378.55,1919.66 2378.61,1921.8 2378.66,1923.82 2378.72,1925.71 2378.78,1927.46 2378.69,1928.87 2378.35,1930.16 2377.76,1931.32 2376.96,1932.36 2375.96,1933.29 2374.8,1934.1 2373.49,1934.8 2372.07,1935.39 2370.55,1935.89 2368.95,1936.28 2367.31,1936.59 2365.64,1936.8 2363.98,1936.92 2362.34,1936.97 2360.75,1936.93 2359.23,1936.82 2357.95,1936.7 2356.5,1936.59 2354.88,1936.48 2353.12,1936.37 2351.2,1936.26 2349.14,1936.15 2346.95,1936.04 2344.64,1935.92 2342.2,1935.81 2339.65,1935.69 2336.99,1935.56 2334.23,1935.43 2331.38,1935.29 2328.44,1935.15 2325.43,1934.99 2322.34,1934.83 1186.46,798.949 1189.55,799.112 1192.56,799.266 1195.5,799.411 1198.35,799.549 1201.11,799.68 1203.77,799.804 1206.32,799.925 1208.75,800.042 1211.07,800.155 1213.26,800.266 1215.32,800.376 1217.23,800.484 1219,800.594 1220.61,800.707 1222.07,800.82 1223.35,800.937 1224.87,801.048 1226.46,801.083 1228.1,801.04 1229.76,800.914 1231.43,800.703 1233.07,800.401 1234.66,800.005 1236.19,799.511 1237.61,798.916 1238.92,798.214 1240.08,797.404 1241.08,796.481 1241.88,795.439 1242.47,794.278 1242.81,792.99 1242.9,791.575 1242.83,789.829 1242.78,787.936 1242.73,785.914 1242.67,783.78 1242.6,781.549 1242.5,779.238 1242.38,776.864 1242.22,774.444 1242.02,771.993 1241.78,769.529 1241.48,767.069 1241.12,764.627 1240.69,762.224 1240.18,759.872 1239.59,757.59 1238.91,755.395 1238.14,753.302 1237.27,751.328 1236.28,749.49 1235.18,747.805 "/>
     <polygon id="_392643600" class="fil1" points="1186.46,798.949 2322.34,1934.83 2307.04,1971.47 1171.16,835.583 "/>
     <polygon id="_392615472" class="fil1" points="1177.28,838.556 2313.16,1974.44 2313.85,1975.38 2314.34,1976.44 2314.62,1977.6 2314.71,1978.81 2314.6,1980.05 2314.29,1981.28 1178.41,845.401 1178.72,844.171 1178.83,842.931 1178.74,841.716 1178.45,840.557 1177.97,839.493 "/>
     <polygon id="_392635824" class="fil1" points="1178.41,845.401 2314.29,1981.28 2312.01,1988.11 1176.12,852.224 "/>
     <polygon id="_392615544" class="fil1" points="1176.12,852.224 2312.01,1988.11 2306.59,1986.04 1170.71,850.158 "/>
     <polygon id="_392643072" class="fil1" points="1170.71,850.158 2306.59,1986.04 2294.18,2017.21 1158.3,881.327 "/>
     <polygon id="_392616192" class="fil1" points="1158.3,881.327 2294.18,2017.21 2351.35,2100.89 1215.47,965.006 "/>
     <polygon id="_392621184" class="fil1" points="1525.92,995.937 2661.8,2131.82 2665.45,2136.03 2669.01,2140.34 2672.47,2144.73 2675.83,2149.23 2679.08,2153.81 2682.23,2158.48 2685.27,2163.25 2688.19,2168.1 2691.01,2173.03 2693.71,2178.05 2696.29,2183.16 2698.75,2188.35 2701.09,2193.61 2703.31,2198.96 2705.4,2204.39 2707.36,2209.89 2709.19,2215.47 2710.89,2221.12 2712.45,2226.85 1576.57,1090.97 1575.01,1085.24 1573.31,1079.59 1571.48,1074.01 1569.52,1068.51 1567.43,1063.08 1565.21,1057.73 1562.87,1052.46 1560.41,1047.28 1557.83,1042.17 1555.13,1037.15 1552.31,1032.21 1549.39,1027.36 1546.35,1022.6 1543.2,1017.93 1539.95,1013.34 1536.59,1008.85 1533.13,1004.45 1529.57,1000.15 "/>
     <polygon id="_392640312" class="fil1" points="1576.57,1090.97 2712.45,2226.85 2713.87,2232.62 2715.14,2238.38 2716.25,2244.15 2717.21,2249.91 2718.02,2255.67 2718.69,2261.42 2719.2,2267.16 2719.57,2272.89 2719.8,2278.61 2719.88,2284.31 2719.82,2289.99 2719.62,2295.65 2719.28,2301.29 2718.81,2306.9 2718.19,2312.49 2717.44,2318.05 2716.56,2323.58 2715.54,2329.07 2714.4,2334.53 2713.12,2339.94 2711.71,2345.32 2710.17,2350.66 2708.51,2355.95 2706.73,2361.19 2704.82,2366.39 2702.78,2371.53 2700.63,2376.62 2698.36,2381.66 2695.97,2386.64 2693.46,2391.55 2690.83,2396.41 2688.09,2401.2 1552.21,1265.32 1554.95,1260.53 1557.58,1255.67 1560.09,1250.75 1562.48,1245.78 1564.75,1240.74 1566.9,1235.65 1568.94,1230.51 1570.85,1225.31 1572.63,1220.07 1574.29,1214.78 1575.83,1209.44 1577.24,1204.06 1578.51,1198.64 1579.66,1193.19 1580.68,1187.69 1581.56,1182.17 1582.31,1176.61 1582.92,1171.02 1583.4,1165.41 1583.74,1159.77 1583.94,1154.11 1584,1148.43 1583.92,1142.73 1583.69,1137.01 1583.32,1131.28 1582.8,1125.54 1582.14,1119.79 1581.33,1114.03 1580.37,1108.27 1579.26,1102.5 1577.99,1096.73 "/>
     <polygon id="_392623968" class="fil1" points="770.377,739.212 1906.26,1875.09 1906.76,1875.7 1907.13,1876.37 1907.35,1877.09 1907.43,1877.83 1907.36,1878.57 1907.16,1879.3 1906.81,1879.98 1906.33,1880.59 1903.77,1883.21 767.886,747.332 770.444,744.71 770.933,744.096 771.279,743.416 771.484,742.692 771.545,741.948 771.465,741.205 771.244,740.487 770.88,739.815 "/>
     <polygon id="_392623848" class="fil1" points="779.323,831.772 1915.2,1967.65 1909.94,1986.38 1909.63,1987.16 1909.18,1987.85 1908.62,1988.43 1907.96,1988.89 1907.23,1989.21 1906.44,1989.39 1905.62,1989.41 1904.79,1989.27 1902.62,1988.66 766.738,852.775 768.908,853.386 769.738,853.531 770.558,853.508 771.345,853.328 772.079,853.003 772.739,852.546 773.303,851.968 773.749,851.28 774.058,850.496 "/>
     <polygon id="_392629536" class="fil1" points="766.738,852.775 1902.62,1988.66 1902.52,1988.63 766.636,852.748 "/>
     <polygon id="_392624856" class="fil1" points="766.636,852.748 1902.52,1988.63 1900.32,1988.01 1899.56,1987.71 1898.91,1987.27 763.026,851.385 763.674,851.825 764.442,852.131 "/>
     <polygon id="_392638008" class="fil1" points="923.845,1139.74 2059.73,2275.62 2059.88,2281.55 2059.89,2287.46 2059.75,2293.33 2059.46,2299.16 2059.03,2304.96 2058.45,2310.72 2057.73,2316.44 2056.87,2322.12 2055.87,2327.75 2054.74,2333.34 2053.47,2338.88 2052.07,2344.36 2050.54,2349.8 2048.87,2355.19 2047.08,2360.51 2045.17,2365.78 2043.13,2371 2040.96,2376.14 2038.68,2381.23 2036.28,2386.25 2033.75,2391.21 2031.12,2396.09 2028.37,2400.91 2025.5,2405.65 2022.53,2410.32 2019.45,2414.92 2016.26,2419.43 2012.97,2423.87 2009.57,2428.22 2006.07,2432.49 2002.47,2436.67 1998.77,2440.77 862.892,1304.89 866.59,1300.79 870.188,1296.61 873.688,1292.34 877.086,1287.98 880.38,1283.55 883.569,1279.03 886.651,1274.44 889.624,1269.77 892.487,1265.03 895.237,1260.21 897.874,1255.33 900.394,1250.37 902.798,1245.35 905.082,1240.26 907.246,1235.11 909.287,1229.9 911.202,1224.63 912.993,1219.3 914.655,1213.92 916.188,1208.48 917.59,1202.99 918.858,1197.46 919.992,1191.87 920.989,1186.24 921.849,1180.56 922.567,1174.84 923.144,1169.08 923.579,1163.28 923.867,1157.44 924.009,1151.57 924.002,1145.67 "/>
     <polygon id="_392637768" class="fil1" points="984.791,1208.1 2120.67,2343.98 2119.37,2342.75 983.489,1206.86 "/>
     <polygon id="_392628384" class="fil1" points="814.153,898.99 1950.03,2034.87 1931.74,2078.34 795.857,942.458 "/>
     <polygon id="_392616480" class="fil1" points="854.169,983.652 1990.05,2119.53 1993.97,2123.42 1997.79,2127.41 2001.52,2131.48 2005.15,2135.64 2008.68,2139.9 2012.11,2144.23 2015.44,2148.66 2018.66,2153.16 2021.78,2157.75 2024.79,2162.41 2027.7,2167.15 2030.48,2171.97 2033.16,2176.87 2035.72,2181.83 2038.16,2186.87 2040.48,2191.97 2042.69,2197.14 2044.76,2202.38 2046.72,2207.68 2048.54,2213.04 2050.24,2218.46 2051.81,2223.95 2053.24,2229.48 2054.54,2235.08 2055.71,2240.72 2056.73,2246.42 2057.62,2252.17 2058.36,2257.96 2058.96,2263.8 2059.42,2269.69 2059.73,2275.62 923.845,1139.74 923.538,1133.81 923.083,1127.92 922.482,1122.08 921.738,1116.28 920.852,1110.54 919.826,1104.84 918.662,1099.19 917.362,1093.6 915.927,1088.06 914.359,1082.58 912.662,1077.16 910.835,1071.8 908.881,1066.5 906.804,1061.26 904.602,1056.09 902.279,1050.98 899.838,1045.95 897.278,1040.98 894.603,1036.09 891.814,1031.27 888.914,1026.53 885.903,1021.86 882.784,1017.28 879.559,1012.77 876.23,1008.35 872.799,1004.01 869.266,999.761 865.635,995.598 861.908,991.524 858.085,987.542 "/>
     <polygon id="_392617992" class="fil1" points="1134.82,1218.7 2270.7,2354.58 2267.6,2354.99 2264.5,2355.39 2261.42,2355.78 2258.34,2356.17 2255.28,2356.55 2252.23,2356.93 2249.19,2357.29 2246.17,2357.65 2243.15,2358.01 2240.16,2358.35 2237.17,2358.69 2234.2,2359.02 2231.25,2359.34 2228.31,2359.65 2225.38,2359.95 2222.47,2360.25 2219.58,2360.53 2216.71,2360.81 2213.85,2361.08 2211.01,2361.33 2208.2,2361.58 2205.4,2361.82 2202.61,2362.04 2199.85,2362.26 2197.11,2362.47 2194.39,2362.66 2191.69,2362.84 2189.02,2363.02 2186.36,2363.18 2183.73,2363.33 2181.12,2363.47 2178.54,2363.59 1042.66,1227.71 1045.24,1227.58 1047.85,1227.45 1050.48,1227.3 1053.14,1227.13 1055.81,1226.96 1058.51,1226.78 1061.23,1226.58 1063.97,1226.38 1066.73,1226.16 1069.51,1225.93 1072.31,1225.7 1075.13,1225.45 1077.97,1225.19 1080.83,1224.93 1083.7,1224.65 1086.59,1224.36 1089.5,1224.07 1092.42,1223.77 1095.36,1223.45 1098.32,1223.13 1101.29,1222.8 1104.27,1222.47 1107.27,1222.12 1110.29,1221.77 1113.31,1221.41 1116.35,1221.04 1119.4,1220.67 1122.46,1220.29 1125.54,1219.9 1128.62,1219.51 1131.71,1219.11 "/>
     <polygon id="_392627832" class="fil1" points="824.894,793.016 1960.78,1928.9 1956.64,1927.32 820.763,791.44 "/>
     <polygon id="_392644536" class="fil1" points="1026.43,1227.41 2162.31,2363.29 2160.82,2363.09 2159.34,2362.87 2157.87,2362.61 2156.41,2362.33 2154.96,2362.02 2153.52,2361.68 2152.09,2361.32 2150.67,2360.92 2149.26,2360.5 2147.87,2360.05 2146.48,2359.58 2145.11,2359.08 2143.75,2358.55 2142.4,2358 2141.07,2357.42 2139.74,2356.82 2138.44,2356.19 2137.14,2355.53 2135.86,2354.86 2134.6,2354.16 2133.35,2353.43 2132.11,2352.68 2130.89,2351.91 2129.69,2351.12 2128.5,2350.3 2127.33,2349.46 2126.18,2348.6 2125.04,2347.72 2123.92,2346.82 2122.82,2345.89 2121.74,2344.94 2120.67,2343.98 984.791,1208.1 985.856,1209.06 986.939,1210.01 988.041,1210.93 989.161,1211.84 990.298,1212.72 991.452,1213.58 992.623,1214.42 993.81,1215.24 995.013,1216.03 996.232,1216.8 997.468,1217.55 998.717,1218.27 999.982,1218.98 1001.26,1219.65 1002.56,1220.31 1003.86,1220.93 1005.19,1221.54 1006.52,1222.11 1007.87,1222.67 1009.23,1223.2 1010.6,1223.7 1011.99,1224.17 1013.38,1224.62 1014.79,1225.04 1016.21,1225.43 1017.64,1225.8 1019.08,1226.14 1020.53,1226.45 1021.99,1226.73 1023.46,1226.99 1024.94,1227.21 "/>
     <polygon id="_392614584" class="fil1" points="862.892,1304.89 1998.77,2440.77 1994.98,2444.78 1991.09,2448.69 1987.11,2452.51 1983.03,2456.24 1978.87,2459.87 1974.62,2463.4 1970.28,2466.84 1965.86,2470.17 1961.35,2473.39 1956.77,2476.51 1952.1,2479.52 1947.36,2482.42 1942.54,2485.21 1937.65,2487.88 1932.68,2490.44 1927.65,2492.89 1922.54,2495.21 1917.37,2497.41 1912.13,2499.49 1906.83,2501.44 1901.47,2503.27 1896.05,2504.97 1890.57,2506.53 1885.03,2507.97 1879.44,2509.27 1873.79,2510.43 1868.09,2511.46 1862.35,2512.34 1856.55,2513.09 1850.71,2513.69 1844.82,2514.14 1838.9,2514.45 703.014,1378.57 708.943,1378.26 714.829,1377.81 720.67,1377.21 726.465,1376.46 732.212,1375.58 737.91,1374.55 743.555,1373.39 749.148,1372.09 754.686,1370.65 760.166,1369.08 765.589,1367.39 770.951,1365.56 776.252,1363.61 781.489,1361.53 786.66,1359.33 791.764,1357 796.801,1354.56 801.765,1352 806.658,1349.33 811.476,1346.54 816.219,1343.64 820.884,1340.63 825.471,1337.51 829.975,1334.28 834.397,1330.95 838.736,1327.52 842.988,1323.99 847.151,1320.36 851.225,1316.63 855.207,1312.81 859.097,1308.89 "/>
     <polygon id="_392644632" class="fil1" points="703.014,1378.57 1838.9,2514.45 1832.96,2514.61 1827.06,2514.62 1821.19,2514.47 1815.35,2514.19 1809.55,2513.75 1803.79,2513.18 1798.07,2512.46 1792.4,2511.6 1786.76,2510.6 1781.18,2509.47 1775.64,2508.2 1770.15,2506.8 1764.71,2505.26 1759.33,2503.6 1754,2501.81 1748.73,2499.89 1743.52,2497.85 1738.37,2495.69 1733.28,2493.41 1728.26,2491 1723.3,2488.48 1718.42,2485.84 1713.6,2483.09 1708.86,2480.23 1704.19,2477.26 1699.6,2474.18 1695.08,2470.99 1690.65,2467.69 1686.29,2464.3 1682.02,2460.8 1677.84,2457.2 541.959,1321.31 546.143,1324.91 550.412,1328.41 554.765,1331.81 559.2,1335.1 563.716,1338.29 568.308,1341.38 572.978,1344.35 577.721,1347.21 582.537,1349.96 587.423,1352.6 592.379,1355.12 597.401,1357.52 602.487,1359.81 607.637,1361.97 612.849,1364.01 618.119,1365.93 623.447,1367.72 628.83,1369.38 634.267,1370.91 639.755,1372.31 645.295,1373.58 650.881,1374.72 656.514,1375.71 662.191,1376.57 667.91,1377.29 673.671,1377.87 679.47,1378.3 685.306,1378.59 691.176,1378.73 697.079,1378.73 "/>
     <polygon id="_392619504" class="fil1" points="889.161,700.719 2025.04,1836.6 1989.93,1925.25 854.044,789.363 "/>
     <polygon id="_392624112" class="fil1" points="863.12,793.49 1999,1929.37 1999.69,1930.31 2000.17,1931.37 2000.46,1932.53 2000.55,1933.75 2000.44,1934.99 2000.13,1936.22 864.248,800.334 864.555,799.105 864.664,797.865 864.577,796.648 864.291,795.491 863.806,794.425 "/>
     <polygon id="_392643504" class="fil1" points="861.962,807.158 1997.84,1943.04 1990.31,1940.16 854.424,804.282 "/>
     <polygon id="_392624808" class="fil1" points="767.886,747.332 1903.77,1883.21 1903.79,1883.28 1903.82,1883.34 1903.85,1883.4 1903.87,1883.46 1903.9,1883.52 1903.92,1883.58 1903.95,1883.64 1903.98,1883.7 768.094,747.823 768.068,747.761 768.042,747.7 768.016,747.638 767.99,747.577 767.964,747.517 767.938,747.455 767.912,747.394 "/>
     <polygon id="_392633424" class="fil1" points="790.44,797.894 1926.32,1933.78 1889.49,1897.85 753.612,761.963 "/>
     <polygon id="_392624304" class="fil1" points="753.612,761.963 1889.49,1897.85 1886.79,1900.61 1886.19,1901.12 1885.52,1901.48 1884.8,1901.7 1884.06,1901.78 1883.31,1901.72 1882.59,1901.52 1881.91,1901.17 1881.29,1900.68 745.412,764.799 746.027,765.288 746.708,765.634 747.432,765.838 748.176,765.899 748.919,765.819 749.637,765.598 750.309,765.236 750.91,764.732 "/>
     <polygon id="_392636184" class="fil1" points="810.269,784.731 1946.15,1920.61 1946.88,1921.49 1947.41,1922.46 1947.73,1923.5 1947.84,1924.58 1947.76,1925.66 1947.46,1926.71 1946.96,1927.7 1946.25,1928.59 1935.76,1939.34 1934.88,1940.07 1933.91,1940.6 1932.87,1940.92 1931.79,1941.04 1930.71,1940.95 1929.66,1940.65 1928.67,1940.15 1927.78,1939.44 791.899,803.559 792.791,804.268 793.778,804.771 794.828,805.066 795.908,805.156 796.986,805.04 798.028,804.719 799.002,804.192 799.876,803.461 810.367,792.708 811.075,791.816 811.579,790.829 811.874,789.779 811.964,788.699 811.848,787.621 811.527,786.579 811,785.605 "/>
     <polygon id="_392624016" class="fil1" points="854.424,804.282 1990.31,1940.16 1972.67,1981.19 836.793,845.312 "/>
     <polygon id="_392613936" class="fil1" points="786.343,806.805 1922.22,1942.69 1918.7,1955.24 782.814,819.356 "/>
     <polygon id="_392629680" class="fil1" points="1552.21,1265.32 2688.09,2401.2 2685.24,2405.92 2682.27,2410.58 2679.19,2415.16 2676.01,2419.67 2672.71,2424.1 2669.31,2428.46 2665.81,2432.74 2662.19,2436.93 2658.48,2441.05 2654.66,2445.07 2650.75,2449 2646.73,2452.85 2642.62,2456.6 2638.41,2460.26 2634.1,2463.82 2629.7,2467.27 2625.21,2470.63 2620.63,2473.88 2615.95,2477.03 2611.19,2480.07 2606.34,2483 2601.4,2485.81 2596.38,2488.51 2591.28,2491.09 2586.09,2493.55 2580.82,2495.89 2575.47,2498.11 2570.05,2500.2 2564.54,2502.16 2558.97,2503.99 2553.31,2505.69 2547.58,2507.26 1411.7,1371.37 1417.43,1369.81 1423.08,1368.11 1428.66,1366.28 1434.17,1364.32 1439.59,1362.23 1444.94,1360.01 1450.21,1357.67 1455.4,1355.21 1460.5,1352.63 1465.52,1349.93 1470.46,1347.11 1475.31,1344.19 1480.07,1341.15 1484.74,1338 1489.33,1334.75 1493.82,1331.39 1498.22,1327.93 1502.53,1324.37 1506.74,1320.72 1510.85,1316.97 1514.87,1313.12 1518.78,1309.19 1522.6,1305.16 1526.31,1301.05 1529.92,1296.86 1533.43,1292.58 1536.83,1288.22 1540.13,1283.79 1543.31,1279.28 1546.39,1274.69 1549.36,1270.04 "/>
     <polygon id="_392637000" class="fil1" points="801.02,829.946 1936.9,1965.83 1933.17,1977.73 797.285,841.846 "/>
     <polygon id="_392638512" class="fil1" points="797.285,841.846 1933.17,1977.73 1915.2,1967.65 779.323,831.772 "/>
     <polygon id="_392629344" class="fil1" points="785.503,802.974 1921.38,1938.86 1921.84,1939.52 1922.17,1940.25 1922.35,1941.04 1922.37,1941.86 1922.22,1942.69 786.343,806.805 786.488,805.974 786.465,805.155 786.285,804.368 785.96,803.633 "/>
     <polygon id="_392630688" class="fil1" points="1237.36,1347.01 2373.24,2482.89 2368.83,2480.23 2364.48,2477.48 2360.19,2474.62 2355.97,2471.67 2351.81,2468.63 2347.72,2465.49 2343.7,2462.26 2339.74,2458.94 2335.86,2455.53 2332.06,2452.03 2328.33,2448.45 1192.44,1312.56 1196.18,1316.15 1199.98,1319.65 1203.86,1323.06 1207.81,1326.38 1211.84,1329.61 1215.93,1332.75 1220.09,1335.79 1224.31,1338.74 1228.6,1341.59 1232.95,1344.35 "/>
     <polygon id="_392632176" class="fil1" points="1042.66,1227.71 2178.54,2363.59 2175.78,2402.36 1039.9,1266.47 "/>
     <polygon id="_392639160" class="fil1" points="1070.66,1268.63 2206.54,2404.52 2207.44,2405.6 2208.12,2406.85 2208.55,2408.23 2208.7,2409.71 2208.7,2423.63 2208.55,2425.11 2208.12,2426.49 2207.44,2427.74 2206.54,2428.83 2205.45,2429.73 2204.2,2430.41 2202.83,2430.84 2201.35,2430.99 2136.74,2430.99 2135.26,2430.84 2133.88,2430.41 2132.63,2429.73 2131.54,2428.83 995.662,1292.94 996.751,1293.84 997.999,1294.52 999.378,1294.95 1000.86,1295.1 1065.47,1295.1 1066.94,1294.95 1068.32,1294.52 1069.57,1293.84 1070.66,1292.94 1071.56,1291.85 1072.24,1290.61 1072.67,1289.23 1072.82,1287.75 1072.82,1273.83 1072.67,1272.35 1072.24,1270.97 1071.56,1269.72 "/>
     <polygon id="_392615640" class="fil1" points="1411.7,1371.37 2547.58,2507.26 2541.82,2508.67 2536.05,2509.94 2530.29,2511.05 2524.52,2512.01 2518.77,2512.82 2513.01,2513.49 2507.27,2514 2501.54,2514.37 2495.83,2514.6 2490.13,2514.68 2484.45,2514.62 2478.78,2514.42 2473.15,2514.08 2467.53,2513.61 2461.94,2512.99 2456.39,2512.24 2450.86,2511.36 2445.37,2510.34 2439.91,2509.2 2434.49,2507.92 2429.11,2506.51 2423.78,2504.98 2418.49,2503.32 2413.24,2501.53 2408.05,2499.62 2402.9,2497.59 2397.81,2495.43 2392.78,2493.16 2387.8,2490.77 2382.88,2488.26 2378.03,2485.63 2373.24,2482.89 1237.36,1347.01 1242.15,1349.75 1247,1352.38 1251.92,1354.88 1256.9,1357.28 1261.93,1359.55 1267.02,1361.7 1272.17,1363.74 1277.36,1365.65 1282.61,1367.43 1287.9,1369.09 1293.23,1370.63 1298.61,1372.04 1304.03,1373.31 1309.49,1374.46 1314.98,1375.48 1320.51,1376.36 1326.06,1377.11 1331.65,1377.72 1337.27,1378.2 1342.9,1378.54 1348.56,1378.74 1354.25,1378.8 1359.95,1378.72 1365.66,1378.49 1371.39,1378.12 1377.13,1377.6 1382.89,1376.94 1388.64,1376.13 1394.41,1375.17 1400.17,1374.06 1405.94,1372.79 "/>
    </g>
    <path id="_478229152" class="fil1" d="M1083.24 773.477l0 0zm-194.193 -95.393c5.91615,1.3748 9.59646,7.28977 8.22048,13.2059 -0.94252,4.05237 -4.01339,7.05591 -7.75631,8.10473 -0.0885827,0.442914 -0.205512,0.884646 -0.350788,1.32402l-35.1166 88.6442 7.09961 2.77677c3.17362,1.24134 4.18465,4.96181 3.10394,8.19449l-2.28543 6.82323 -7.5378 -2.87599 -17.6315 41.0303 301.898 0 2.54882 -6.39686 -6.31418 -2.40945 3.36614 -7.4693c1.39961,-3.10512 5.02087,-4.34528 8.19331,-3.10276l5.84292 2.28543 12.7925 -30.6225c-38.6859,-2.89607 -81.2859,-8.93623 -81.88,-24.1193 -1.30039,-33.1807 93.0438,-10.3193 127.166,-27.9662 33.4004,-17.2725 31.7918,28.2733 32.4886,46.0642 0.309449,7.89804 -11.6835,10.1433 -19.5473,9.36142 -6.3756,-0.634252 -20.2441,-1.09134 -36.887,-1.9878l-15.3036 36.6343 4.14922 1.62284c3.17362,1.24134 4.18465,4.963 3.10394,8.19449l-2.28543 6.82323 -5.413 -2.06575 -12.4158 31.1693 57.1701 83.6788c23.3965,-17.648 50.5748,-31.089 80.7036,-38.9067 61.4752,-15.9508 123.601,-5.47087 174.346,24.365 50.7426,29.8358 90.1064,79.03 106.057,140.505 15.9508,61.4752 5.47205,123.602 -24.3638,174.346 -29.837,50.7437 -79.03,90.1064 -140.506,106.057 -61.4752,15.9508 -123.601,5.47205 -174.345,-24.3638 -47.3422,-27.8362 -84.7796,-72.5221 -102.539,-128.312 -33.1677,4.37244 -64.7162,7.73386 -92.1639,9.01064l-2.75551 38.7662 25.5673 0c4.04528,0 7.35237,3.30709 7.35237,7.35355l0 13.9217c0,4.04528 -3.30709,7.35355 -7.35237,7.35355l-64.6123 0c-4.04528,0 -7.35237,-3.30827 -7.35237,-7.35355l0 -13.9217c0,-4.04646 3.30709,-7.35355 7.35237,-7.35355l27.5362 0 -1.96299 -39.0685c-15.9201,-1.92874 -30.3733,-8.89489 -41.6374,-19.3099 -14.0351,-12.978 -23.1213,-31.311 -23.928,-51.9201 -0.806694,-20.6079 6.81615,-39.5965 19.7941,-53.6315 0.520867,-0.563386 1.05,-1.1185 1.58858,-1.66536l-168.092 -201.89 -18.2965 43.4681c19.8732,9.83505 38.1532,22.4658 54.3048,37.3996 43.2213,39.9638 71.1981,96.4146 73.6831,159.878 2.48622,63.463 -20.9917,121.93 -60.9532,165.151 -39.9638,43.2201 -96.4158,71.1969 -159.878,73.6831 -63.463,2.48622 -121.929,-20.9906 -165.151,-60.9532 -43.2201,-39.9638 -71.1981,-96.4158 -73.6831,-159.878 -2.48504,-63.463 20.9906,-121.93 60.9532,-165.151 39.965,-43.2213 96.4158,-71.1981 159.879,-73.6831 28.5969,-1.12087 56.1804,3.03071 81.8103,11.5878l58.0725 -137.476 -4.1315 -1.57677 3.36496 -7.4693c1.40079,-3.10512 5.02087,-4.34528 8.19568,-3.10276l1.24961 0.488977 34.0914 -86.0564c-9.80434,-2.80866 -10.4811,-3.46654 -28.9559,-4.26378 -23.9103,-1.0311 -43.8922,0.87756 -54.8682,6.72875 -8.73898,4.65827 -14.7626,10.4752 -18.0319,16.911 -3.08032,6.0626 -3.78544,12.9201 -2.06457,20.048 0.343701,1.42441 0.746457,2.92087 1.21654,4.47402 1.50118,-1.45039 3.913,-1.45276 5.41654,0.0141732 1.53071,1.4941 1.56142,3.96733 0.0673229,5.49804l-2.55827 2.62205c0.068504,0.162992 0.138189,0.327166 0.207874,0.490158l36.4772 35.5902c1.93347,-0.629528 4.14803,-0.193701 5.69764,1.31811 2.22166,2.16732 2.26536,5.75552 0.0980316,7.97717l-10.4906 10.7528c-2.16732,2.22166 -5.75552,2.26536 -7.97717,0.0980316 -1.54961,-1.51181 -2.03977,-3.71457 -1.45866,-5.66457l-36.828 -35.9315 -2.70236 2.76969c-1.49173,1.52953 -3.96614,1.56024 -5.49804,0.0661418 -1.53189,-1.4941 -1.56142,-3.96851 -0.068504,-5.49804l3.34607 -3.42874c-2.92914,-5.32205 -5.03386,-10.6913 -6.3189,-16.0169 -2.96929,-12.3 -1.65591,-24.3236 3.84803,-35.1579 5.31496,-10.461 14.4473,-19.565 27.2858,-26.4095 13.6347,-7.26733 37.5189,-9.89646 65.6599,-8.87835 27.176,0.982678 20.1532,1.77756 49.8827,8.6752zm-102.704 128.72l-3.52914 12.5516 18.2055 10.5898 -3.73465 11.8996 -17.9622 -10.0736 -5.26418 18.724c-0.62126,2.21221 -2.93977,3.51142 -5.15079,2.89016l-2.16969 -0.61063 -0.101575 -0.0271654 -2.19449 -0.617717c-2.21103,-0.62126 -3.11457,-2.86536 -2.89016,-5.15079l4.5 -45.88c0.22441,-2.28543 2.93977,-3.5126 5.15197,-2.89016l8.60316 2.42008 0.581103 0.162992 3.06496 0.862205c2.21221,0.62126 3.51142,2.93858 2.89016,5.14961z"/>
   </g>
  </g>
  <path class="fil2" d="M1024 0c565.539,0 1024,458.461 1024,1024 0,565.539 -458.461,1024 -1024,1024 -565.539,0 -1024,-458.461 -1024,-1024 0,-565.539 458.461,-1024 1024,-1024z"/>
  <path class="fil3" d="M868.263 693.788c1.91457,-5.77087 8.14371,-8.89725 13.9146,-6.98386 5.76969,1.91457 8.89607,8.14371 6.98268,13.9146l-38.7225 97.7457c-1.91339,5.77087 -8.14371,8.89725 -13.9146,6.98268 -5.76969,-1.91339 -8.89607,-8.14253 -6.98268,-13.9134l38.7225 -97.7457z"/>
  <polygon class="fil4" points="797.285,841.846 778.398,831.253 781.893,818.82 801.02,829.946 "/>
  <polygon class="fil5" points="868.935,1145.19 508.876,1150.37 509.718,1158.24 869.776,1153.07 "/>
  <polygon class="fil5" points="687.488,969.128 692.66,1329.19 700.536,1328.35 695.364,968.286 "/>
  <polygon class="fil5" points="734.196,973.56 646.002,1322.69 653.827,1323.91 742.021,974.785 "/>
  <polygon class="fil5" points="778.166,989.93 602.617,1304.34 609.858,1307.54 785.408,993.138 "/>
  <polygon class="fil5" points="816.402,1017.12 565.459,1275.38 571.623,1280.35 822.566,1022.09 "/>
  <polygon class="fil5" points="846.296,1053.28 537.062,1237.79 541.728,1244.19 850.962,1059.68 "/>
  <polygon class="fil5" points="865.812,1095.95 519.361,1194.14 522.213,1201.52 868.664,1103.34 "/>
  <polygon class="fil5" points="869.189,1188.92 520.061,1100.73 518.836,1108.55 867.964,1196.75 "/>
  <polygon class="fil5" points="852.82,1232.89 538.414,1057.34 535.205,1064.58 849.611,1240.13 "/>
  <polygon class="fil5" points="825.628,1271.13 567.37,1020.18 562.398,1026.35 820.654,1277.29 "/>
  <polygon class="fil5" points="789.466,1301.02 604.958,991.787 598.558,996.454 783.067,1305.69 "/>
  <polygon class="fil5" points="746.8,1320.54 648.613,974.087 641.225,976.938 739.411,1323.39 "/>
  <path class="fil6" d="M685.01 918.904c-63.4619,2.48504 -119.913,30.4618 -159.878,73.6831 -39.9626,43.2213 -63.4382,101.688 -60.9532,165.151 2.48504,63.4619 30.463,119.914 73.6831,159.878 43.2225,39.9626 101.688,63.4382 165.151,60.9532 63.463,-2.48504 119.914,-30.463 159.878,-73.6831 39.9626,-43.2213 63.4394,-101.688 60.9532,-165.151 -2.48504,-63.463 -30.4618,-119.914 -73.6831,-159.878 -43.2213,-39.9626 -101.687,-63.4394 -165.151,-60.9532zm-126.006 105.001c31.9441,-34.5485 77.0741,-56.9126 127.812,-58.8993 50.739,-1.9878 97.4788,16.7788 132.027,48.7229 34.5485,31.9429 56.9126,77.0741 58.8993,127.812 1.9878,50.7378 -16.7776,97.4776 -48.7229,132.027 -31.9441,34.5485 -77.0741,56.9126 -127.812,58.8993 -50.7378,1.9878 -97.4776,-16.7788 -132.027,-48.7229 -34.5485,-31.9441 -56.9126,-77.0741 -58.8993,-127.812 -1.9878,-50.7378 16.7788,-97.4788 48.7229,-132.027z"/>
  <path class="fil3" d="M686.645 960.63c-103.889,4.0689 -184.808,91.5851 -180.74,195.474 4.0689,103.889 91.5851,184.808 195.474,180.74 103.889,-4.0689 184.808,-91.5851 180.74,-195.474 -4.0689,-103.889 -91.5851,-184.808 -195.474,-180.74zm-117.425 72.7205c29.5276,-31.9347 71.2418,-52.6063 118.141,-54.443 46.8992,-1.83662 90.104,15.5102 122.037,45.0366 31.9335,29.5264 52.6063,71.2418 54.443,118.141 1.83662,46.8992 -15.5091,90.1028 -45.0366,122.037 -29.5276,31.9347 -71.2418,52.6052 -118.141,54.443 -46.8992,1.83662 -90.1028,-15.5091 -122.037,-45.0366 -31.9347,-29.5276 -52.6052,-71.2418 -54.443,-118.141 -1.83662,-46.8992 15.5102,-90.104 45.0366,-122.037z"/>
  <path class="fil7" d="M691.31 1079.74c-19.0512,0.746457 -36,9.14646 -47.9989,22.1232 -11.9988,12.9768 -19.0477,30.5315 -18.3024,49.5815 0.746457,19.0524 9.14646,36 22.1244,47.9965 12.9768,12 30.5303,19.0488 49.5815,18.3024 19.05,-0.746457 35.9988,-9.14646 47.9977,-22.1232 12,-12.9756 19.0488,-30.5292 18.3024,-49.5804 -0.746457,-19.0512 -9.14646,-36 -22.1232,-47.9989 -12.978,-11.9988 -30.5315,-19.0477 -49.5815,-18.3012z"/>
  <polygon class="fil5" points="1398.58,1322.83 1316.81,972.142 1309.29,974.643 1391.07,1325.33 "/>
  <polygon class="fil5" points="1352,1328.45 1363.78,968.55 1355.87,969.02 1344.1,1328.92 "/>
  <polygon class="fil5" points="1305.55,1321.83 1410.08,977.237 1402.32,975.644 1297.79,1320.24 "/>
  <polygon class="fil5" points="1262.4,1303.41 1452.55,997.611 1445.47,994.065 1255.32,1299.86 "/>
  <polygon class="fil5" points="1225.49,1274.45 1488.31,1028.28 1482.38,1023.03 1219.57,1269.19 "/>
  <polygon class="fil5" points="1197.33,1236.92 1514.9,1067.17 1510.54,1060.55 1192.97,1230.31 "/>
  <polygon class="fil5" points="1174.22,1146.8 1534.12,1158.58 1533.65,1150.67 1173.75,1138.89 "/>
  <polygon class="fil5" points="1180.84,1100.35 1525.44,1204.88 1527.03,1197.12 1182.44,1092.59 "/>
  <polygon class="fil5" points="1199.27,1057.2 1505.06,1247.35 1508.61,1240.27 1202.81,1050.12 "/>
  <polygon class="fil5" points="1228.23,1020.29 1474.39,1283.11 1479.65,1277.18 1233.48,1014.37 "/>
  <polygon class="fil5" points="1265.75,992.129 1435.51,1309.7 1442.12,1305.34 1272.37,987.768 "/>
  <path class="fil6" d="M1411.7 1371.37c61.4752,-15.9508 110.668,-55.3134 140.505,-106.057 29.8358,-50.7437 40.3146,-112.871 24.3638,-174.346 -15.9508,-61.4752 -55.3146,-110.669 -106.057,-140.506 -50.7449,-29.8358 -112.871,-40.3146 -174.346,-24.3638 -61.4752,15.9508 -110.669,55.3146 -140.506,106.058 -29.8347,50.7437 -40.3146,112.87 -24.3638,174.346 15.9508,61.4752 55.3146,110.669 106.058,140.505 50.7437,29.8358 112.87,40.3146 174.346,24.3638zm100.739 -129.439c-23.8488,40.5626 -63.1772,72.0284 -112.326,84.7808 -49.1504,12.7536 -98.8158,4.37717 -139.377,-19.4717 -40.5614,-23.8488 -72.0284,-63.1772 -84.7808,-112.326 -12.7524,-49.1493 -4.37717,-98.8146 19.4717,-139.377 23.85,-40.5614 63.1772,-72.0284 112.328,-84.7808 49.1493,-12.7524 98.8146,-4.37717 139.376,19.4717 40.5626,23.85 72.0284,63.1772 84.7808,112.328 12.7536,49.1493 4.37717,98.8158 -19.4717,139.376z"/>
  <path class="fil3" d="M1401.22 1330.95c100.636,-26.1118 161.049,-128.861 134.938,-229.497 -26.1118,-100.635 -128.861,-161.049 -229.497,-134.938 -100.635,26.1118 -161.049,128.861 -134.938,229.497 26.1118,100.636 128.861,161.049 229.497,134.938zm99.2339 -96.0709c-22.0453,37.4929 -58.3973,66.5776 -103.828,78.365 -45.4311,11.7886 -91.3383,4.04646 -128.83,-17.9977 -37.4918,-22.0453 -66.5788,-58.3973 -78.3662,-103.828 -11.7874,-45.43 -4.04646,-91.3371 17.9988,-128.83 22.0441,-37.4929 58.3973,-66.5788 103.827,-78.3662 45.43,-11.7874 91.3383,-4.04646 128.831,17.9988 37.4929,22.0441 66.5776,58.3973 78.365,103.827 11.7886,45.43 4.04646,91.3394 -17.9977,128.831z"/>
  <path class="fil7" d="M1371.28 1215.58c18.4547,-4.78819 33.2244,-16.6075 42.1819,-31.8437 8.95867,-15.2351 12.1051,-33.8882 7.31693,-52.343 -4.78819,-18.4547 -16.6063,-33.2233 -31.8425,-42.1796 -15.2351,-8.95867 -33.8882,-12.1051 -52.343,-7.31693 -18.4536,4.78819 -33.2233,16.6063 -42.1819,31.8425 -8.95867,15.2339 -12.1051,33.8859 -7.31693,52.3418 4.78819,18.4536 16.6075,33.2233 31.8425,42.1819 15.2362,8.95749 33.8882,12.1051 52.343,7.31693z"/>
  <path class="fil8" d="M709.514 1142.2l12.626 -30.3839 -22.741 -9.45001 -12.8055 30.8173c-4.10906,1.73386 -7.56497,5.02205 -9.41103,9.46418 -1.86614,4.49055 -1.73622,9.31418 -0.0141732,13.4799 1.71851,4.16693 5.02914,7.67717 9.51969,9.54331 4.49055,1.86614 9.31182,1.73386 13.4788,0.0129921 4.16693,-1.71851 7.67717,-5.02796 9.54331,-9.51851 1.86614,-4.49055 1.73622,-9.31418 0.0141732,-13.4799 -0.0673229,-0.162992 -0.137008,-0.323622 -0.210236,-0.485433z"/>
  <path class="fil9" d="M1347.32 1113.19c-9.64371,0.376772 -18.2232,4.62992 -24.2977,11.1992 -6.07441,6.5693 -9.64253,15.4559 -9.26457,25.0996 0.376772,9.64371 4.62992,18.2232 11.1992,24.2965 6.5693,6.07441 15.4547,9.64253 25.0996,9.26576 9.64371,-0.377953 18.2232,-4.63111 24.2977,-11.2004 6.07441,-6.56812 9.64253,-15.4536 9.26457,-25.0984 -0.377953,-9.64371 -4.62992,-18.2232 -11.1992,-24.2977 -6.5693,-6.07441 -15.4559,-9.64253 -25.0996,-9.26457z"/>
  <path class="fil4" d="M1343.74 1132.14l-30.2965 -12.8327 -9.60591 22.6748 30.7299 13.0169c1.70551,4.12087 4.9689,7.59922 9.39922,9.47599 4.47756,1.89685 9.30119,1.79882 13.4788,0.105118 4.17874,-1.69016 7.71142,-4.97599 9.60828,-9.45355 1.89685,-4.47756 1.79882,-9.30001 0.105118,-13.4788 -1.68898,-4.17874 -4.97599,-7.71142 -9.45355,-9.60828 -4.47756,-1.89685 -9.30119,-1.79882 -13.4788,-0.106299 -0.162992,0.0661418 -0.324803,0.135827 -0.486615,0.206693z"/>
  <polygon class="fil3" points="1176.06,771.408 1087.92,982.41 1106.71,989.854 1194.86,778.853 "/>
  <path class="fil10" d="M718.792 1125.55l95.3611 -226.559 205.178 246.431 -1.8189 4.08544c-1.67126,3.75237 -1.88268,7.66654 0.124016,11.3291 2.81575,5.13544 9.00827,8.23583 14.7496,8.31733 7.61103,0.108662 12.8551,-4.67599 15.7949,-11.3835l1.82008 -4.15276 239.485 -7.6441c28.3134,-0.903544 37.415,-17.8583 21.3272,-41.4071l-152.517 -223.238 13.826 -34.7103 -29.3244 -11.6138 -110.321 276.951 -204.644 -245.791 6.37205 -14.8288 21.8563 -50.8619 -29.2028 -12.1063 -137.312 325.059 29.2453 12.124zm343.89 -4.19528l81.5292 -204.667 135.112 197.764 -216.642 6.90355z"/>
  <path class="fil11" d="M1175.31 837.206l-28.8201 -11.2736c-3.17362,-1.24134 -6.79489,-0.0011811 -8.19449,3.10394l-3.36614 7.4693 41.1992 15.7193 2.28543 -6.82441c1.08071,-3.2315 0.0696851,-6.95315 -3.10394,-8.19449z"/>
  <path class="fil11" d="M1210.41 745.511c-34.1221,17.6457 -128.465,-5.21457 -127.166,27.9662l0 0.00354331c0.986221,25.1776 117.529,25.2118 140.107,27.4571 7.86379,0.78189 19.8567,-1.46457 19.5473,-9.36261 -0.696851,-17.791 0.910631,-63.3367 -32.4886,-46.0642z"/>
  <path class="fil11" d="M861.144 792.14l-28.8213 -11.2736c-3.17362,-1.24134 -6.79371,-0.0011811 -8.19331,3.10394l-3.36614 7.4693 41.1992 15.7193 2.28543 -6.82441c1.08071,-3.2315 0.0696851,-6.95315 -3.10394,-8.19449z"/>
  <polygon class="fil12" points="1350.8,1141.58 1347.68,1143.55 1344.55,1145.52 1344.7,1149.22 1344.84,1152.91 1348.11,1154.63 1351.38,1156.35 1354.51,1154.38 1357.63,1152.41 1357.49,1148.72 1357.34,1145.02 1354.07,1143.3 "/>
  <polygon class="fil13" points="700.117,1149.34 698.124,1146.23 696.132,1143.11 692.442,1143.28 688.751,1143.45 687.052,1146.73 685.354,1150.02 687.347,1153.13 689.339,1156.24 693.03,1156.07 696.72,1155.9 698.418,1152.62 "/>
  <path class="fil4" d="M783.453 801.654l-12.2504 -3.4441c-2.21103,-0.62126 -4.9252,0.604725 -5.15079,2.89016l-4.5 45.88c-0.22441,2.28543 0.679134,4.52953 2.89016,5.15079l4.46575 1.25551c2.21103,0.62126 4.52953,-0.677953 5.15079,-2.89016l12.2847 -43.6914c0.62126,-2.21103 -0.679134,-4.52835 -2.89016,-5.15079z"/>
  <path class="fil14" d="M780.388 800.793l-0.581103 -0.162992 -8.60434 -2.42008c-2.21103,-0.62126 -4.92638,0.604725 -5.15079,2.89016l-4.5 45.88c-0.22441,2.28543 0.679134,4.52835 2.89016,5.15079l2.19449 0.617717 0.100394 0.0283465c4.32638,-16.6914 10.4705,-40.2839 13.6512,-51.9839z"/>
  <path class="fil4" d="M783.453 801.655l-3.06496 -0.862205c-3.18071,11.7 -9.32481,35.2925 -13.6512,51.9839l2.17087 0.609449c2.21103,0.62126 4.52953,-0.677953 5.15079,-2.89016l12.2847 -43.6914c0.62126,-2.21103 -0.677953,-4.52835 -2.89016,-5.14961z"/>
  <circle class="fil15" transform="matrix(-0.81953 0.0320971 0.0320971 0.81953 1035.5 1153.25)" r="86.6918"/>
  <path class="fil16" d="M1025.48 1079.23c-17.7047,2.3752 -33.3567,10.9134 -44.8241,23.3162 -12.978,14.0351 -20.6008,33.0236 -19.7941,53.6315 0.806694,20.6091 9.89292,38.9422 23.928,51.9201 14.0351,12.978 33.0236,20.602 53.6327,19.7941 58.193,-2.27953 136.011,-14.491 208.649,-25.8898 22.6855,-3.55985 98.4296,-9.9567 117.738,-18.8599l-0.00236221 -0.00472441c4.65355,-2.14606 8.78623,-5.17087 12.1807,-8.84292 3.39567,-3.67205 6.08741,-8.02678 7.86379,-12.8339l0.00472441 0.00236221c1.70788,-4.6252 2.55355,-9.64371 2.34921,-14.8465 -0.20315,-5.20276 -1.43858,-10.1398 -3.50315,-14.6162l-0.00472441 0.00236221c-2.14725,-4.65473 -5.17205,-8.78741 -8.84292,-12.1819l-0.0141732 0.0011811c-3.42992,-3.17008 -7.44095,-5.72481 -11.8488,-7.48938 -4.213,-1.68543 -8.78505,-2.6504 -13.5484,-2.74016l-37.9996 -4.08426 4.31103 7.73741 33.1134 3.4937 0.309449 0.0165354c3.92717,0.0555119 7.69134,0.840946 11.1532,2.22638 3.57874,1.43268 6.84804,3.51614 9.65316,6.10749l-0.00708662 0.00708662c3.01772,2.78977 5.48504,6.14764 7.213,9.89765l0 0.0141732c1.6689,3.61772 2.66811,7.63229 2.83465,11.8902 0.166536,4.25552 -0.516142,8.33623 -1.89567,12.0744l0.0011811 0.0141732c-1.43032,3.87284 -3.62717,7.4126 -6.41693,10.4303 -2.78977,3.01654 -6.14882,5.48386 -9.89765,7.21182l-0.0141732 0c-19.8614,9.15591 -102.586,16.2036 -115.824,18.2799 -72.4004,11.3622 -149.964,23.5347 -207.838,25.8012 -18.6284,0.729922 -35.7898,-6.16063 -48.4725,-17.8878 -12.6839,-11.7272 -20.8949,-28.2981 -21.6248,-46.9264 -0.729922,-18.6284 6.16063,-35.7898 17.8878,-48.4725 10.3866,-11.2335 24.5729,-18.9591 40.6217,-21.0862 15.1193,-1.99961 39.137,2.27835 52.8154,3.62953l189.822 17.4933 5.26772 -0.129921 -4.9937 -7.17993 -191.967 -17.5902c-16.2473,-1.59449 -35.8866,-5.48977 -52.017,-3.33071z"/>
  <circle class="fil17" transform="matrix(-0.717992 0.0281204 0.0281204 0.717992 1035.5 1153.25)" r="32.7957"/>
  <path class="fil18" d="M1035.31 1142.05l-0.0011811 0c-6.89764,0 -12.8858,5.65394 -12.541,12.541l5.75434 114.514c0.477166,9.5256 10.5,9.72402 11.1898,0l8.13898 -114.514c0.487796,-6.87993 -5.64331,-12.541 -12.541,-12.541z"/>
  <rect class="fil19" x="993.502" y="1266.47" width="79.318" height="28.6291" rx="7.35473" ry="7.35473"/>
  <path class="fil3" d="M889.046 678.084c5.91733,1.3748 9.59765,7.28859 8.22166,13.2059 -1.3748,5.91615 -7.28859,9.59646 -13.2059,8.22166 -28.2154,-6.54567 -19.9217,-7.37835 -45.3532,-8.4756 -23.9091,-1.0311 -43.8922,0.87756 -54.867,6.72875 -8.74016,4.65827 -14.7638,10.4752 -18.0331,16.911 -3.08032,6.0626 -3.78544,12.9201 -2.06457,20.048 3.35551,13.9028 12.3366,34.6134 33.7713,47.6587 5.20276,3.15355 10.0913,4.1752 6.9378,9.37914 -3.15473,5.20276 -7.82599,4.61693 -13.0288,1.46339 -14.8228,-9.02127 -22.2768,-23.1095 -30.2729,-33.6733 -1.52835,-2.01969 -8.97166,2.11772 -10.2532,0.0720473 -4.09961,-6.54095 -6.93898,-13.1894 -8.52757,-19.7693 -2.96929,-12.3 -1.65591,-24.3236 3.84803,-35.1579 5.31496,-10.461 14.4473,-19.565 27.2858,-26.4083 13.6347,-7.26851 37.5189,-9.89765 65.6599,-8.87953 27.176,0.982678 20.1532,1.77874 49.8815,8.6752z"/>
  <path class="fil20" d="M804.571 783.412l-39.4311 -38.4709 -14.1307 14.4827 39.4311 38.4721c-0.581103,1.94882 -0.090945,4.15158 1.45866,5.66339l0 0c2.22166,2.16732 5.80985,2.12362 7.97717,-0.0980316l10.4906 -10.7528c2.16732,-2.22166 2.12362,-5.80985 -0.0980316,-7.97717l0 0c-1.54961,-1.51181 -3.76418,-1.94764 -5.69764,-1.31929z"/>
  <rect class="fil19" transform="matrix(-0.0885225 -0.0863684 -0.953848 0.977637 773.16 741.928)" width="62.8914" height="26.1721" rx="3.88937" ry="3.88937"/>
  <polygon class="fil21" points="820.763,845.312 1141.88,845.312 1141.88,870.461 820.763,870.461 "/>
 </g>
</svg>
