<?xml version="1.0" encoding="UTF-8"?>
<!DOCTYPE svg PUBLIC "-//W3C//DTD SVG 1.1//EN" "http://www.w3.org/Graphics/SVG/1.1/DTD/svg11.dtd">
<!-- Creator: CorelDRAW -->
<svg xmlns="http://www.w3.org/2000/svg" xml:space="preserve" width="2048px" height="2048px" style="shape-rendering:geometricPrecision; text-rendering:geometricPrecision; image-rendering:optimizeQuality; fill-rule:evenodd; clip-rule:evenodd"
viewBox="0 0 2048 2048"
 xmlns:xlink="http://www.w3.org/1999/xlink">
 <defs>
  <style type="text/css">
   <![CDATA[
    .fil2 {fill:none}
    .fil9 {fill:#01579B}
    .fil7 {fill:#1F1F1F}
    .fil12 {fill:#212121}
    .fil4 {fill:#2C6C2F}
    .fil10 {fill:#2E7D32}
    .fil1 {fill:#3949AB}
    .fil5 {fill:#424242}
    .fil0 {fill:#7986CB}
    .fil11 {fill:#B19A75}
    .fil8 {fill:#E0E0E0}
    .fil13 {fill:#E2CDAA}
    .fil14 {fill:#E7B691}
    .fil3 {fill:#E9C1A0}
    .fil6 {fill:#FFD3AE}
   ]]>
  </style>
   <clipPath id="id0">
    <path d="M1024 0c565.539,0 1024,458.461 1024,1024 0,565.539 -458.461,1024 -1024,1024 -565.539,0 -1024,-458.461 -1024,-1024 0,-565.539 458.461,-1024 1024,-1024z"/>
   </clipPath>
 </defs>
 <g id="Layer_x0020_1">
  <metadata id="CorelCorpID_0Corel-Layer"/>
  <path class="fil0" d="M1024 0c565.539,0 1024,458.461 1024,1024 0,565.539 -458.461,1024 -1024,1024 -565.539,0 -1024,-458.461 -1024,-1024 0,-565.539 458.461,-1024 1024,-1024z"/>
  <g style="clip-path:url(#id0)">
   <g id="_478226368">
    <g>
     <polygon id="_4618009361" class="fil1" points="1132.12,570.258 2268,1706.14 2269.29,1707.71 2270.51,1709.4 2271.67,1711.23 2272.76,1713.22 1136.88,577.339 1135.79,575.352 1134.63,573.517 1133.41,571.823 "/>
     <polygon id="_461821696" class="fil1" points="1136.88,577.339 2272.76,1713.22 2273.63,1715.09 2274.38,1717.07 2275.01,1719.16 2275.52,1721.35 2275.93,1723.64 2276.22,1726.02 2276.41,1728.49 2276.5,1731.04 2276.5,1733.68 2276.41,1736.39 2276.23,1739.18 2275.96,1742.03 2275.62,1744.95 2275.2,1747.93 2274.72,1750.96 2274.16,1754.05 2273.54,1757.19 2272.87,1760.36 2272.14,1763.58 2271.36,1766.84 2270.53,1770.12 2269.66,1773.43 2268.76,1776.77 2267.82,1780.12 2266.85,1783.49 2265.85,1786.87 2264.83,1790.25 2263.8,1793.64 2262.75,1797.02 2261.69,1800.4 2260.62,1803.77 2259.56,1807.12 1123.68,671.24 1124.74,667.886 1125.81,664.517 1126.87,661.139 1127.92,657.754 1128.95,654.368 1129.97,650.983 1130.97,647.605 1131.94,644.236 1132.88,640.883 1133.78,637.549 1134.65,634.237 1135.48,630.954 1136.26,627.7 1136.99,624.482 1137.66,621.304 1138.28,618.169 1138.83,615.082 1139.32,612.048 1139.74,609.069 1140.08,606.15 1140.34,603.296 1140.53,600.511 1140.62,597.798 1140.62,595.161 1140.53,592.607 1140.34,590.137 1140.04,587.756 1139.64,585.469 1139.13,583.28 1138.5,581.193 1137.75,579.211 "/>
     <polygon id="_461802568" class="fil1" points="1128.58,674.024 2264.46,1809.91 2265.22,1810.9 2265.87,1812.07 2266.4,1813.41 2266.8,1814.92 2267.06,1816.63 2267.17,1818.54 2267.11,1820.66 2266.87,1822.98 2266.44,1825.53 2265.8,1828.31 2264.95,1831.33 1129.07,695.45 1129.92,692.431 1130.56,689.651 1130.99,687.101 1131.23,684.773 1131.29,682.659 1131.18,680.751 1130.92,679.042 1130.52,677.523 1129.99,676.185 1129.33,675.022 "/>
     <polygon id="_461806672" class="fil1" points="1129.07,695.45 2264.95,1831.33 2264.57,1832.31 2263.98,1833.52 2263.17,1834.91 2262.15,1836.41 2260.93,1837.99 2259.52,1839.57 2257.93,1841.1 2256.16,1842.53 1120.28,706.651 1122.05,705.219 1123.64,703.685 1125.05,702.103 1126.27,700.532 1127.29,699.025 1128.1,697.639 1128.69,696.429 "/>
     <polygon id="_461820064" class="fil1" points="1301.56,763.23 2437.44,1899.11 2438.39,1900.23 2439.22,1901.53 2439.92,1903.03 2440.47,1904.73 1304.59,768.844 1304.04,767.143 1303.34,765.647 1302.51,764.345 "/>
     <polygon id="_461820616" class="fil1" points="1304.59,768.844 2440.47,1904.73 2440.94,1907.05 2440.99,1908.6 2440.64,1909.64 2439.93,1910.38 2438.9,1911.08 2437.58,1911.97 2436.01,1913.28 2434.23,1915.26 1298.35,779.376 1300.13,777.396 1301.7,776.083 1303.01,775.197 1304.05,774.5 1304.76,773.755 1305.11,772.721 1305.06,771.165 "/>
     <polygon id="_461819872" class="fil1" points="1324.21,777.589 2460.09,1913.47 2461.23,1915.26 2461.9,1917.58 2462.03,1920.49 1326.15,784.607 1326.02,781.699 1325.35,779.377 "/>
     <polygon id="_461808448" class="fil1" points="1326.15,784.607 2462.03,1920.49 2461.94,1921.91 2461.81,1923.19 2461.66,1924.34 2461.46,1925.38 2461.21,1926.31 2460.91,1927.16 2460.54,1927.94 2460.11,1928.66 2459.6,1929.35 2459.01,1930.01 2458.33,1930.65 2457.56,1931.3 2456.69,1931.97 2455.71,1932.67 2454.61,1933.43 2453.4,1934.24 1317.52,798.361 1318.73,797.545 1319.83,796.792 1320.81,796.09 1321.68,795.42 1322.45,794.769 1323.13,794.123 1323.72,793.465 1324.23,792.782 1324.66,792.058 1325.03,791.279 1325.33,790.43 1325.58,789.495 1325.78,788.461 1325.93,787.31 1326.05,786.031 "/>
     <polygon id="_461818528" class="fil1" points="1336.65,801.028 2472.53,1936.91 2473.6,1938.48 2474.41,1940.46 1338.53,804.578 1337.72,802.596 "/>
     <polygon id="_461802712" class="fil1" points="1338.53,804.578 2474.41,1940.46 2474.69,1941.6 2474.84,1942.73 2474.85,1943.83 2474.74,1944.92 2474.5,1946 2474.16,1947.05 2473.7,1948.09 2473.15,1949.12 1337.27,813.233 1337.82,812.21 1338.28,811.17 1338.62,810.114 1338.85,809.04 1338.97,807.95 1338.96,806.844 1338.81,805.719 "/>
     <polygon id="_461807176" class="fil1" points="1388.64,816.325 2524.52,1952.21 2525.48,1953.56 2526.31,1955.14 1390.43,819.255 1389.6,817.675 "/>
     <polygon id="_461800480" class="fil1" points="1390.43,819.255 2526.31,1955.14 2527.19,1957.34 2527.51,1958.86 2527.34,1959.94 2526.77,1960.8 2525.88,1961.67 2524.74,1962.77 2523.42,1964.34 2522.02,1966.6 1386.14,830.72 1387.54,828.458 1388.86,826.889 1390,825.785 1390.89,824.918 1391.46,824.058 1391.62,822.981 1391.31,821.455 "/>
     <polygon id="_461816392" class="fil1" points="1412.72,825.972 2548.6,1961.85 2549.67,1964.02 2550.31,1966.86 1414.42,830.981 1413.79,828.14 "/>
     <polygon id="_461826016" class="fil1" points="1414.42,830.981 2550.31,1966.86 2550.47,1968.28 2550.57,1969.56 2550.62,1970.72 2550.61,1971.78 2550.53,1972.74 2550.38,1973.63 2550.15,1974.46 2549.86,1975.25 2549.47,1976.01 2549.01,1976.76 2548.46,1977.52 2547.81,1978.29 2547.07,1979.11 2546.23,1979.97 2545.28,1980.9 2544.23,1981.92 1408.35,846.038 1409.4,845.022 1410.35,844.088 1411.19,843.224 1411.93,842.411 1412.57,841.635 1413.13,840.879 1413.59,840.128 1413.97,839.366 1414.27,838.577 1414.5,837.747 1414.65,836.857 1414.72,835.893 1414.74,834.839 1414.69,833.681 1414.58,832.399 "/>
     <polygon id="_461801032" class="fil1" points="1428.98,846.654 2564.86,1982.54 2566.01,1984.34 1430.13,848.462 "/>
     <polygon id="_461829808" class="fil1" points="1430.13,848.462 2566.01,1984.34 2566.79,1986.36 2567.1,1988.41 2566.99,1990.46 2566.49,1992.53 2565.63,1994.6 2564.47,1996.67 2563.03,1998.73 2561.37,2000.77 2559.51,2002.78 2557.5,2004.77 2555.37,2006.72 2553.16,2008.63 2550.93,2010.48 2548.69,2012.28 2546.5,2014.02 2544.38,2015.69 1408.5,879.809 1410.61,878.141 1412.81,876.402 1415.04,874.602 1417.28,872.744 1419.49,870.837 1421.61,868.887 1423.63,866.9 1425.49,864.883 1427.15,862.843 1428.59,860.786 1429.75,858.719 1430.6,856.647 1431.11,854.58 1431.22,852.523 1430.91,850.481 "/>
     <polygon id="_461801200" class="fil1" points="1408.5,879.809 2544.38,2015.69 2542.75,2016.97 2541.1,2018.24 2539.44,2019.5 2537.76,2020.75 2536.08,2021.98 2534.39,2023.21 2532.7,2024.42 2531,2025.63 2529.31,2026.82 2527.62,2028 2525.93,2029.18 2524.25,2030.34 2522.58,2031.49 2520.93,2032.63 2519.29,2033.77 2517.67,2034.89 1381.79,899.006 1383.41,897.883 1385.05,896.75 1386.7,895.608 1388.37,894.455 1390.05,893.293 1391.73,892.12 1393.43,890.937 1395.12,889.744 1396.82,888.54 1398.51,887.325 1400.2,886.1 1401.88,884.864 1403.56,883.616 1405.22,882.359 1406.87,881.089 "/>
     <polygon id="_461803576" class="fil1" points="983.095,648.929 2118.98,1784.81 2106.95,1778.46 2094.99,1772.14 2083.11,1765.84 2071.31,1759.59 2059.6,1753.37 2048,1747.2 2036.53,1741.09 2025.18,1735.03 2013.97,1729.04 2002.92,1723.12 1992.03,1717.28 1981.31,1711.52 1970.78,1705.84 1960.45,1700.26 1950.32,1694.78 1940.42,1689.4 1930.74,1684.13 1921.31,1678.97 1912.13,1673.94 1903.21,1669.03 1894.57,1664.26 1886.21,1659.63 1878.15,1655.14 1870.41,1650.79 1862.98,1646.61 1855.88,1642.58 1849.12,1638.72 1842.72,1635.04 1836.68,1631.53 1831.01,1628.2 1825.74,1625.06 1820.86,1622.12 684.975,486.239 689.854,489.181 695.131,492.318 700.795,495.644 706.835,499.153 713.239,502.841 719.995,506.7 727.094,510.726 734.525,514.913 742.274,519.254 750.332,523.745 758.688,528.38 767.33,533.152 776.246,538.059 785.428,543.091 794.861,548.245 804.537,553.513 814.443,558.893 824.567,564.376 834.901,569.959 845.43,575.633 856.146,581.396 867.037,587.24 878.091,593.161 889.298,599.15 900.646,605.206 912.124,611.32 923.72,617.488 935.424,623.703 947.225,629.96 959.111,636.254 971.071,642.579 "/>
     <polygon id="_461809192" class="fil1" points="684.975,486.239 1820.86,1622.12 1820.03,1621.8 1819.01,1621.71 1817.82,1621.83 1816.45,1622.15 1814.93,1622.65 1813.27,1623.3 1811.46,1624.1 1809.53,1625.02 1807.49,1626.04 1805.34,1627.15 1803.09,1628.33 1800.77,1629.56 1798.36,1630.83 1795.9,1632.11 1793.38,1633.38 1790.83,1634.63 1788.24,1635.84 1785.63,1637 1783.01,1638.08 1780.39,1639.06 1777.79,1639.93 1775.2,1640.67 1772.65,1641.27 1770.14,1641.7 1767.68,1641.94 1765.28,1641.98 1762.97,1641.8 1760.73,1641.38 1758.59,1640.7 1756.56,1639.75 1754.64,1638.5 1752.85,1636.95 616.971,501.065 618.76,502.621 620.677,503.866 622.711,504.818 624.85,505.494 627.084,505.914 629.403,506.096 631.797,506.056 634.255,505.813 636.766,505.386 639.319,504.792 641.905,504.05 644.512,503.178 647.13,502.194 649.749,501.115 652.358,499.961 654.947,498.749 657.504,497.496 660.019,496.223 662.483,494.945 664.884,493.682 667.212,492.452 669.456,491.272 671.606,490.16 673.652,489.136 675.582,488.217 677.385,487.421 679.053,486.766 680.573,486.27 681.936,485.951 683.131,485.827 684.148,485.918 "/>
     <polygon id="_461809288" class="fil1" points="1155.64,905.498 2291.52,2041.38 2291.61,2047.21 2291.7,2053.12 2291.78,2059.11 2291.85,2065.14 2291.91,2071.22 2291.96,2077.32 2292,2083.43 2292.03,2089.54 2292.05,2095.62 2292.06,2101.67 2292.05,2107.68 2292.03,2113.62 2291.99,2119.47 2291.93,2125.24 2291.86,2130.9 2291.77,2136.43 2291.66,2141.83 2291.53,2147.07 2291.38,2152.15 2291.21,2157.04 2291.02,2161.74 2290.8,2166.22 2290.56,2170.48 2290.3,2174.5 2290.01,2178.26 2289.69,2181.75 2289.35,2184.95 2288.98,2187.86 2288.58,2190.45 2288.15,2192.7 2287.69,2194.62 2287.2,2196.17 1151.31,1060.29 1151.81,1058.74 1152.27,1056.82 1152.7,1054.56 1153.1,1051.98 1153.47,1049.07 1153.81,1045.87 1154.13,1042.38 1154.42,1038.62 1154.68,1034.6 1154.92,1030.34 1155.14,1025.86 1155.33,1021.16 1155.5,1016.27 1155.65,1011.19 1155.78,1005.95 1155.89,1000.55 1155.98,995.016 1156.05,989.358 1156.11,983.592 1156.14,977.733 1156.17,971.794 1156.18,965.792 1156.17,959.741 1156.15,953.655 1156.12,947.548 1156.08,941.437 1156.03,935.337 1155.97,929.26 1155.89,923.224 1155.82,917.241 1155.73,911.327 "/>
     <polygon id="_461824288" class="fil1" points="1173.44,922.459 2309.32,2058.34 2308.31,2058.68 2307.39,2058.97 2306.57,2059.2 2305.86,2059.38 2305.26,2059.5 2304.78,2059.56 2304.42,2059.55 2304.19,2059.48 1168.31,923.594 1168.54,923.668 1168.9,923.674 1169.38,923.614 1169.98,923.495 1170.69,923.317 1171.51,923.083 1172.43,922.796 "/>
     <polygon id="_461808136" class="fil1" points="1151.31,1060.29 2287.2,2196.17 2288.24,2199.33 2289.33,2202.76 2290.47,2206.44 2291.65,2210.35 2292.86,2214.45 2294.11,2218.73 2295.37,2223.16 2296.66,2227.72 2297.96,2232.37 2299.27,2237.11 2300.58,2241.9 2301.89,2246.71 2303.19,2251.53 2304.47,2256.33 2305.73,2261.09 2306.97,2265.77 2308.18,2270.36 2309.34,2274.83 2310.47,2279.16 2311.55,2283.32 2312.57,2287.28 2313.53,2291.04 2314.43,2294.55 2315.26,2297.79 2316.01,2300.75 2316.68,2303.39 2317.26,2305.69 2317.75,2307.62 2318.14,2309.17 2318.42,2310.31 2318.6,2311.01 2318.66,2311.25 1182.77,1175.37 1182.72,1175.13 1182.54,1174.43 1182.25,1173.29 1181.87,1171.74 1181.38,1169.8 1180.8,1167.5 1180.13,1164.86 1179.38,1161.91 1178.55,1158.66 1177.65,1155.15 1176.69,1151.4 1175.66,1147.43 1174.59,1143.27 1173.46,1138.95 1172.29,1134.48 1171.09,1129.89 1169.85,1125.2 1168.59,1120.45 1167.31,1115.65 1166.01,1110.83 1164.7,1106.01 1163.39,1101.23 1162.08,1096.49 1160.78,1091.84 1159.49,1087.28 1158.22,1082.85 1156.98,1078.57 1155.76,1074.46 1154.58,1070.56 1153.45,1066.88 1152.35,1063.45 "/>
     <polygon id="_461805352" class="fil1" points="1182.77,1175.37 2318.66,2311.25 2318.57,2311.4 2318.33,2311.85 2317.91,2312.57 2317.34,2313.54 2316.59,2314.72 2315.69,2316.1 2314.62,2317.65 2313.39,2319.35 1177.5,1183.47 1178.74,1181.77 1179.81,1180.22 1180.71,1178.84 1181.45,1177.65 1182.03,1176.69 1182.44,1175.97 1182.69,1175.52 "/>
     <polygon id="_461801584" class="fil1" points="952.991,1053.79 2088.87,2189.67 2088.25,2189.24 2087.63,2188.81 2087.02,2188.38 2086.41,2187.93 2085.8,2187.49 2085.2,2187.03 2084.6,2186.58 2084.01,2186.11 948.126,1050.23 948.719,1050.69 949.318,1051.15 949.919,1051.6 950.525,1052.05 951.135,1052.49 951.75,1052.93 952.368,1053.36 "/>
     <polygon id="_461801824" class="fil1" points="1052.01,1111.33 2187.89,2247.21 2187.57,2261.68 1051.69,1125.79 "/>
     <polygon id="_461822968" class="fil1" points="1051.69,1125.79 2187.57,2261.68 2183.31,2329.75 1047.43,1193.86 "/>
     <polygon id="_461817088" class="fil1" points="961.873,1207.84 2097.75,2343.72 2096.29,2343.47 2094.83,2343.18 2093.37,2342.83 2091.91,2342.44 2090.46,2341.99 2089.01,2341.49 2087.56,2340.93 2086.12,2340.31 2084.69,2339.64 2083.25,2338.9 2081.82,2338.11 2080.4,2337.25 2078.98,2336.32 2077.56,2335.33 2076.15,2334.26 2074.74,2333.13 938.861,1197.25 940.268,1198.38 941.681,1199.44 943.097,1200.44 944.518,1201.36 945.943,1202.22 947.372,1203.02 948.805,1203.76 950.242,1204.43 951.683,1205.05 953.129,1205.61 954.577,1206.11 956.03,1206.55 957.486,1206.95 958.945,1207.29 960.407,1207.59 "/>
     <polygon id="_461826232" class="fil1" points="1049.85,1237.65 2185.73,2373.53 2186.01,2375.78 2186.26,2378.01 2186.49,2380.23 2186.7,2382.44 2186.88,2384.62 2187.04,2386.8 2187.19,2388.96 2187.32,2391.1 2187.43,2393.24 2187.52,2395.36 2187.6,2397.47 2187.67,2399.56 2187.73,2401.65 2187.78,2403.72 2187.82,2405.78 2187.85,2407.84 2187.88,2409.88 2187.9,2411.91 2187.92,2413.93 2187.93,2415.95 2187.95,2417.95 2187.97,2419.95 2187.99,2421.94 2188.01,2423.93 2188.04,2425.9 2188.07,2427.87 2188.11,2429.84 2188.16,2431.79 2188.21,2433.75 2188.28,2435.69 2188.37,2437.64 2188.46,2439.58 2188.52,2440.44 2188.59,2441.34 2188.69,2442.28 2188.81,2443.27 2188.95,2444.29 2189.11,2445.35 2189.29,2446.45 2189.49,2447.59 2189.71,2448.76 2189.95,2449.97 2190.21,2451.22 2190.5,2452.49 2190.8,2453.8 2191.12,2455.14 2191.47,2456.51 2191.83,2457.91 2192.21,2459.35 2192.61,2460.81 2193.04,2462.29 2193.48,2463.8 2193.94,2465.34 2194.42,2466.91 2194.92,2468.49 2195.44,2470.1 2195.98,2471.74 2196.54,2473.39 2197.12,2475.06 2197.71,2476.76 2198.33,2478.47 2198.96,2480.2 2199.62,2481.95 2200.29,2483.71 1064.41,1347.83 1063.74,1346.07 1063.08,1344.32 1062.45,1342.59 1061.83,1340.88 1061.24,1339.18 1060.66,1337.51 1060.1,1335.85 1059.56,1334.22 1059.04,1332.61 1058.54,1331.02 1058.06,1329.46 1057.6,1327.92 1057.15,1326.41 1056.73,1324.92 1056.33,1323.46 1055.95,1322.03 1055.58,1320.63 1055.24,1319.26 1054.92,1317.92 1054.62,1316.61 1054.33,1315.33 1054.07,1314.09 1053.83,1312.88 1053.61,1311.71 1053.41,1310.57 1053.23,1309.47 1053.07,1308.41 1052.93,1307.39 1052.81,1306.4 1052.71,1305.46 1052.64,1304.55 1052.58,1303.69 1052.49,1301.75 1052.4,1299.81 1052.33,1297.86 1052.28,1295.91 1052.23,1293.95 1052.19,1291.99 1052.15,1290.02 1052.13,1288.04 1052.11,1286.06 1052.09,1284.07 1052.07,1282.07 1052.05,1280.07 1052.04,1278.05 1052.02,1276.03 1052,1274 1051.97,1271.95 1051.94,1269.9 1051.9,1267.84 1051.85,1265.77 1051.79,1263.68 1051.72,1261.58 1051.64,1259.48 1051.55,1257.36 1051.43,1255.22 1051.31,1253.08 1051.16,1250.92 1051,1248.74 1050.81,1246.55 1050.61,1244.35 1050.38,1242.13 1050.12,1239.9 "/>
     <polygon id="_461807656" class="fil1" points="1077.21,1355.21 2213.09,2491.09 2214.58,2492.51 2216.02,2494.01 2217.39,2495.58 2218.68,2497.2 2219.87,2498.87 2220.94,2500.58 2221.87,2502.31 1085.99,1366.42 1085.05,1364.69 1083.98,1362.99 1082.8,1361.32 1081.51,1359.69 1080.14,1358.13 1078.7,1356.63 "/>
     <polygon id="_461800576" class="fil1" points="1102.21,1412.73 2238.09,2548.61 2238.33,2549.71 2238.61,2550.92 2238.94,2552.25 2239.3,2553.69 2239.7,2555.22 2240.13,2556.85 2240.59,2558.56 2241.08,2560.34 2241.59,2562.2 2242.13,2564.11 2242.68,2566.08 2243.25,2568.1 2243.84,2570.16 2244.43,2572.25 2245.04,2574.37 2245.65,2576.5 2246.26,2578.65 2246.88,2580.8 2247.49,2582.94 2248.1,2585.08 2248.7,2587.2 2249.3,2589.29 2249.88,2591.35 2250.44,2593.37 2250.99,2595.35 2251.52,2597.26 2252.02,2599.12 2252.5,2600.91 2252.96,2602.63 2253.38,2604.26 2253.77,2605.8 2254.12,2607.24 1118.24,1471.36 1117.88,1469.91 1117.5,1468.37 1117.07,1466.74 1116.62,1465.03 1116.14,1463.24 1115.64,1461.38 1115.11,1459.46 1114.56,1457.49 1113.99,1455.47 1113.41,1453.41 1112.82,1451.31 1112.22,1449.2 1111.61,1447.06 1111,1444.91 1110.38,1442.76 1109.77,1440.62 1109.16,1438.48 1108.55,1436.37 1107.95,1434.28 1107.37,1432.22 1106.8,1430.2 1106.25,1428.23 1105.71,1426.31 1105.2,1424.46 1104.71,1422.67 1104.25,1420.97 1103.82,1419.34 1103.42,1417.81 1103.06,1416.37 1102.73,1415.04 1102.45,1413.82 "/>
     <polygon id="_461829640" class="fil1" points="1047.43,1193.86 2183.31,2329.75 2183.45,2331.4 2183.58,2333.06 2183.7,2334.71 2183.81,2336.36 2183.91,2338.01 2184.01,2339.65 2184.1,2341.28 2184.18,2342.9 2184.26,2344.5 2184.33,2346.1 2184.4,2347.67 2184.47,2349.23 2184.53,2350.77 2184.59,2352.28 2184.64,2353.77 2184.7,2355.23 2184.75,2356.67 2184.8,2358.08 2184.85,2359.45 2184.9,2360.79 2184.96,2362.09 2185.01,2363.36 2185.06,2364.59 2185.12,2365.77 2185.18,2366.91 2185.25,2368.01 2185.31,2369.06 2185.39,2370.06 2185.46,2371.01 2185.55,2371.91 2185.63,2372.75 2185.73,2373.53 1049.85,1237.65 1049.75,1236.86 1049.66,1236.02 1049.58,1235.13 1049.5,1234.18 1049.43,1233.18 1049.37,1232.13 1049.3,1231.03 1049.24,1229.89 1049.18,1228.71 1049.13,1227.48 1049.07,1226.21 1049.02,1224.91 1048.97,1223.57 1048.92,1222.19 1048.87,1220.79 1048.81,1219.35 1048.76,1217.89 1048.71,1216.4 1048.65,1214.88 1048.58,1213.35 1048.52,1211.79 1048.45,1210.21 1048.38,1208.62 1048.3,1207.01 1048.22,1205.4 1048.13,1203.77 1048.03,1202.13 1047.93,1200.48 1047.81,1198.83 1047.7,1197.17 1047.57,1195.52 "/>
     <polygon id="_461815552" class="fil1" points="1095.56,1206.31 2231.44,2342.2 2229.08,2341.81 2226.97,2341.44 2225.11,2341.11 2223.54,2340.81 2222.27,2340.56 2221.34,2340.37 2220.76,2340.25 2220.57,2340.21 1084.68,1204.33 1084.88,1204.37 1085.46,1204.49 1086.39,1204.68 1087.66,1204.93 1089.23,1205.22 1091.09,1205.56 1093.2,1205.93 "/>
     <polygon id="_461809504" class="fil1" points="1177.5,1183.47 2313.39,2319.35 2314.24,2322.6 2315.11,2325.9 2315.97,2329.25 2316.85,2332.65 2317.72,2336.09 2318.59,2339.58 2319.47,2343.1 2320.34,2346.66 2321.22,2350.26 2322.09,2353.88 2322.95,2357.53 2323.81,2361.21 2324.67,2364.9 2325.51,2368.62 2326.35,2372.35 2327.18,2376.09 2328,2379.84 2328.81,2383.6 2329.6,2387.36 2330.38,2391.13 2331.15,2394.89 2331.9,2398.64 2332.63,2402.39 2333.34,2406.13 2334.04,2409.85 2334.71,2413.55 2335.36,2417.24 2335.99,2420.9 2336.6,2424.54 2337.18,2428.15 2337.74,2431.73 2338.27,2435.27 2338.56,2437.36 2338.84,2439.44 2339.08,2441.5 2339.31,2443.55 2339.51,2445.58 2339.69,2447.6 2339.86,2449.59 2340,2451.57 2340.12,2453.53 2340.23,2455.47 2340.31,2457.39 2340.38,2459.28 2340.44,2461.16 2340.47,2463.02 2340.49,2464.85 2340.5,2466.66 2340.5,2468.44 2340.48,2470.2 2340.45,2471.94 2340.4,2473.65 2340.35,2475.33 2340.29,2476.98 2340.21,2478.61 2340.13,2480.21 2340.04,2481.79 2339.95,2483.33 2339.84,2484.84 2339.73,2486.32 2339.61,2487.77 2339.49,2489.19 2339.37,2490.58 2339.24,2491.93 1203.36,1356.05 1203.49,1354.7 1203.61,1353.31 1203.73,1351.89 1203.85,1350.44 1203.96,1348.96 1204.06,1347.45 1204.16,1345.9 1204.25,1344.33 1204.33,1342.73 1204.41,1341.1 1204.47,1339.45 1204.52,1337.76 1204.57,1336.05 1204.6,1334.32 1204.62,1332.56 1204.62,1330.77 1204.61,1328.97 1204.59,1327.13 1204.55,1325.28 1204.5,1323.4 1204.43,1321.5 1204.34,1319.59 1204.24,1317.65 1204.12,1315.69 1203.98,1313.71 1203.81,1311.71 1203.63,1309.7 1203.43,1307.67 1203.2,1305.62 1202.95,1303.56 1202.68,1301.48 1202.39,1299.38 1201.86,1295.84 1201.3,1292.27 1200.72,1288.66 1200.11,1285.02 1199.48,1281.36 1198.83,1277.67 1198.16,1273.97 1197.46,1270.24 1196.75,1266.51 1196.01,1262.76 1195.27,1259 1194.5,1255.24 1193.72,1251.48 1192.93,1247.72 1192.12,1243.96 1191.3,1240.21 1190.47,1236.47 1189.63,1232.74 1188.79,1229.02 1187.93,1225.32 1187.07,1221.65 1186.21,1218 1185.34,1214.38 1184.46,1210.78 1183.59,1207.22 1182.71,1203.7 1181.84,1200.21 1180.96,1196.77 1180.09,1193.37 1179.23,1190.01 1178.36,1186.71 "/>
     <polygon id="_461831080" class="fil1" points="1216.53,1364.21 2352.41,2500.09 2352.9,2500.78 2353.34,2501.5 2353.72,2502.23 2354.05,2502.99 2354.34,2503.78 2354.58,2504.6 2354.79,2505.45 2354.95,2506.34 2355.08,2507.28 2355.18,2508.25 2355.26,2509.28 2355.3,2510.35 2355.33,2511.48 2355.33,2512.66 2355.32,2513.91 2355.3,2515.22 2355.27,2516.6 2355.23,2518.04 2355.19,2519.56 2355.15,2521.16 2355.11,2522.83 2355.08,2524.59 2355.05,2526.44 2355.04,2528.37 2355.04,2530.4 2355.06,2532.52 2355.1,2534.74 2355.17,2537.07 2355.26,2539.5 2355.39,2542.03 2355.55,2544.68 2355.74,2547.45 1219.86,1411.57 1219.66,1408.8 1219.51,1406.15 1219.38,1403.61 1219.29,1401.18 1219.22,1398.86 1219.18,1396.64 1219.16,1394.52 1219.16,1392.49 1219.17,1390.55 1219.2,1388.71 1219.23,1386.95 1219.27,1385.27 1219.31,1383.68 1219.35,1382.16 1219.39,1380.71 1219.42,1379.34 1219.44,1378.03 1219.45,1376.78 1219.45,1375.6 1219.42,1374.47 1219.37,1373.39 1219.3,1372.37 1219.2,1371.39 1219.07,1370.46 1218.91,1369.57 1218.7,1368.72 1218.46,1367.9 1218.17,1367.11 1217.84,1366.35 1217.46,1365.61 1217.02,1364.9 "/>
     <polygon id="_461830192" class="fil1" points="1219.86,1411.57 2355.74,2547.45 2355.93,2549.92 2356.15,2552.4 2356.38,2554.88 2356.63,2557.36 2356.9,2559.84 2357.18,2562.31 2357.47,2564.78 2357.78,2567.24 2358.1,2569.69 2358.42,2572.12 2358.75,2574.53 2359.09,2576.93 2359.44,2579.3 2359.79,2581.64 2360.14,2583.96 2360.5,2586.24 2360.86,2588.49 2361.21,2590.71 2361.57,2592.88 2361.92,2595.01 2362.27,2597.1 2362.61,2599.15 2362.95,2601.14 2363.28,2603.08 2363.6,2604.96 2363.9,2606.79 2364.2,2608.55 2364.49,2610.26 2364.76,2611.89 2365.02,2613.46 2365.26,2614.96 2365.48,2616.38 1229.6,1480.5 1229.38,1479.08 1229.14,1477.58 1228.88,1476.01 1228.61,1474.37 1228.32,1472.67 1228.02,1470.9 1227.71,1469.08 1227.39,1467.19 1227.07,1465.25 1226.73,1463.26 1226.39,1461.22 1226.04,1459.13 1225.69,1457 1225.33,1454.82 1224.98,1452.61 1224.62,1450.36 1224.26,1448.07 1223.91,1445.76 1223.56,1443.41 1223.21,1441.04 1222.87,1438.65 1222.54,1436.24 1222.21,1433.81 1221.9,1431.36 1221.59,1428.9 1221.3,1426.43 1221.02,1423.96 1220.75,1421.48 1220.5,1419 1220.27,1416.52 1220.05,1414.04 "/>
     <polygon id="_461808904" class="fil1" points="1085.99,1366.42 2221.87,2502.31 2222.35,2503.28 2222.84,2504.3 2223.34,2505.37 2223.86,2506.49 2224.38,2507.66 2224.92,2508.87 2225.46,2510.12 2226.01,2511.41 2226.56,2512.74 2227.12,2514.1 2227.69,2515.49 2228.25,2516.92 2228.82,2518.37 2229.38,2519.86 2229.94,2521.36 2230.51,2522.89 2231.06,2524.43 2231.61,2526 2232.16,2527.58 2232.69,2529.17 2233.22,2530.78 2233.74,2532.4 2234.24,2534.02 2234.74,2535.65 2235.22,2537.28 2235.68,2538.91 2236.13,2540.54 2236.56,2542.17 2236.97,2543.79 2237.37,2545.41 2237.74,2547.01 2238.09,2548.61 1102.21,1412.73 1101.86,1411.13 1101.49,1409.53 1101.09,1407.91 1100.68,1406.29 1100.25,1404.66 1099.8,1403.03 1099.34,1401.4 1098.86,1399.76 1098.36,1398.14 1097.86,1396.51 1097.34,1394.9 1096.81,1393.29 1096.28,1391.7 1095.73,1390.12 1095.18,1388.55 1094.62,1387 1094.06,1385.48 1093.5,1383.97 1092.94,1382.49 1092.37,1381.04 1091.8,1379.61 1091.24,1378.22 1090.68,1376.86 1090.13,1375.53 1089.58,1374.24 1089.04,1372.99 1088.5,1371.78 1087.98,1370.61 1087.46,1369.49 1086.96,1368.42 1086.47,1367.4 "/>
     <polygon id="_461804248" class="fil1" points="1118.24,1471.36 2254.12,2607.24 2254.49,2608.72 2254.83,2610.05 2255.15,2611.24 2255.43,2612.33 2255.67,2613.32 2255.86,2614.25 2256,2615.13 2256.08,2615.99 1120.2,1480.11 1120.12,1479.25 1119.98,1478.36 1119.79,1477.44 1119.55,1476.45 1119.27,1475.36 1118.95,1474.17 1118.61,1472.84 "/>
     <polygon id="_461828152" class="fil1" points="1137.37,1486.53 2273.25,2622.41 2273.8,2623.79 2274.32,2625.26 2274.82,2626.8 2275.3,2628.42 2275.76,2630.09 2276.19,2631.81 2276.59,2633.57 2276.98,2635.37 2277.34,2637.2 2277.69,2639.04 2278.01,2640.89 2278.31,2642.74 2278.6,2644.58 2278.86,2646.41 2279.11,2648.21 2279.33,2649.98 2279.54,2651.71 2279.74,2653.38 2279.91,2655 2280.07,2656.55 2280.22,2658.02 2280.35,2659.41 2280.46,2660.71 2280.56,2661.91 2280.65,2663 2280.72,2663.97 2280.78,2664.81 2280.83,2665.52 2280.87,2666.09 2280.9,2666.51 2280.91,2666.76 2280.92,2666.85 1145.04,1530.97 1145.03,1530.88 1145.02,1530.62 1144.99,1530.21 1144.95,1529.64 1144.9,1528.93 1144.84,1528.09 1144.77,1527.12 1144.68,1526.03 1144.58,1524.83 1144.47,1523.53 1144.34,1522.14 1144.19,1520.67 1144.03,1519.12 1143.86,1517.5 1143.66,1515.82 1143.45,1514.1 1143.23,1512.33 1142.98,1510.53 1142.72,1508.7 1142.43,1506.86 1142.13,1505.01 1141.81,1503.16 1141.46,1501.31 1141.1,1499.49 1140.71,1497.69 1140.3,1495.93 1139.87,1494.2 1139.42,1492.53 1138.94,1490.92 1138.44,1489.38 1137.92,1487.91 "/>
     <polygon id="_461814040" class="fil1" points="1131.32,1477.04 2267.2,2612.93 2268.44,2614.26 2269.67,2615.85 2270.9,2617.73 2272.1,2619.91 2273.25,2622.41 1137.37,1486.53 1136.22,1484.02 1135.02,1481.85 1133.79,1479.97 1132.55,1478.38 "/>
     <polygon id="_461809888" class="fil1" points="1239.83,1482.96 2375.71,2618.84 2377.31,2622.08 2378.88,2625.5 2380.41,2629.08 2381.89,2632.81 2383.32,2636.67 2384.67,2640.64 2385.94,2644.69 2387.12,2648.82 2388.19,2653 2389.15,2657.21 2389.97,2661.43 2390.66,2665.65 2391.2,2669.85 2391.57,2674 2391.77,2678.09 2391.79,2682.1 2391.61,2686.01 2391.22,2689.81 2390.62,2693.46 2389.78,2696.96 2388.7,2700.28 2387.37,2703.41 2385.78,2706.33 2383.9,2709.01 2381.75,2711.45 2379.29,2713.61 2376.52,2715.49 2373.43,2717.06 2370.01,2718.3 2366.25,2719.2 2362.13,2719.73 2357.64,2719.88 1221.76,1584 1226.25,1583.85 1230.37,1583.31 1234.13,1582.42 1237.55,1581.17 1240.64,1579.61 1243.41,1577.73 1245.86,1575.56 1248.02,1573.13 1249.89,1570.45 1251.49,1567.53 1252.82,1564.4 1253.9,1561.08 1254.74,1557.58 1255.34,1553.92 1255.73,1550.13 1255.91,1546.22 1255.89,1542.21 1255.69,1538.12 1255.32,1533.97 1254.78,1529.77 1254.09,1525.55 1253.26,1521.33 1252.31,1517.12 1251.24,1512.94 1250.06,1508.81 1248.79,1504.76 1247.44,1500.79 1246.01,1496.93 1244.53,1493.2 1242.99,1489.62 1241.42,1486.2 "/>
     <polygon id="_461800216" class="fil1" points="1221.76,1584 2357.64,2719.88 2355.6,2719.85 2353.61,2719.79 2351.66,2719.7 2349.76,2719.58 2347.9,2719.42 2346.1,2719.21 2344.35,2718.94 2342.65,2718.63 2341.01,2718.25 2339.42,2717.8 2337.89,2717.28 2336.42,2716.68 2335.01,2716 2333.66,2715.23 2332.37,2714.37 2331.15,2713.41 2329.99,2712.35 1194.11,1576.47 1195.27,1577.53 1196.49,1578.49 1197.78,1579.35 1199.13,1580.12 1200.54,1580.8 1202.01,1581.4 1203.54,1581.92 1205.13,1582.36 1206.77,1582.74 1208.47,1583.06 1210.22,1583.32 1212.02,1583.53 1213.87,1583.7 1215.78,1583.82 1217.72,1583.91 1219.72,1583.96 "/>
     <polygon id="_461828176" class="fil1" points="1145.04,1530.97 2280.92,2666.85 2278.98,2667.25 2276.3,2667.83 2272.95,2668.58 2268.96,2669.48 2264.39,2670.51 2259.31,2671.65 2253.75,2672.89 2247.78,2674.21 2241.46,2675.59 2234.82,2677.02 2227.94,2678.47 2220.85,2679.92 2213.63,2681.37 2206.31,2682.78 2198.96,2684.15 2191.62,2685.46 2184.36,2686.68 2177.23,2687.8 2170.27,2688.81 2163.55,2689.68 2157.12,2690.39 2151.02,2690.94 2145.33,2691.29 2140.08,2691.44 2135.34,2691.37 2131.16,2691.05 2127.59,2690.47 2124.68,2689.61 2122.5,2688.46 986.618,1552.58 988.802,1553.73 991.707,1554.59 995.278,1555.17 999.46,1555.48 1004.2,1555.56 1009.45,1555.41 1015.14,1555.05 1021.23,1554.51 1027.67,1553.79 1034.39,1552.92 1041.34,1551.92 1048.48,1550.8 1055.74,1549.57 1063.08,1548.27 1070.43,1546.9 1077.75,1545.48 1084.97,1544.04 1092.06,1542.58 1098.94,1541.14 1105.58,1539.71 1111.9,1538.33 1117.87,1537.01 1123.43,1535.77 1128.51,1534.63 1133.08,1533.59 1137.06,1532.69 1140.42,1531.95 1143.1,1531.36 "/>
     <polygon id="_461812120" class="fil1" points="1239.02,1481.86 2374.91,2617.75 2375.71,2618.84 1239.83,1482.96 "/>
     <polygon id="_461807776" class="fil1" points="1213.79,1361.03 2349.67,2496.91 2350.57,2497.85 2351.48,2498.91 2352.41,2500.09 1216.53,1364.21 1215.6,1363.03 1214.68,1361.97 "/>
     <polygon id="_461804776" class="fil1" points="991.202,695.251 2127.08,1831.13 2126.02,1830.36 2125.02,1829.52 2124.09,1828.63 988.211,692.743 989.143,693.637 990.14,694.477 "/>
     <polygon id="_461818984" class="fil1" points="1029.97,765.038 2165.85,1900.92 2164.58,1899.94 2163.31,1898.95 2162.06,1897.94 2160.82,1896.92 2159.59,1895.88 2158.37,1894.83 2157.17,1893.76 2155.98,1892.68 2154.81,1891.59 2153.65,1890.48 2152.51,1889.35 2151.39,1888.21 2150.28,1887.06 1014.4,751.176 1015.51,752.331 1016.63,753.472 1017.77,754.596 1018.92,755.706 1020.1,756.801 1021.29,757.881 1022.49,758.946 1023.7,759.997 1024.93,761.034 1026.18,762.056 1027.43,763.065 1028.7,764.058 "/>
     <polygon id="_461830480" class="fil1" points="1381.79,899.006 2517.67,2034.89 2514.58,2038.53 2511.37,2042.26 2508.06,2046.06 2504.64,2049.91 2501.12,2053.81 2497.52,2057.75 2493.83,2061.7 2490.08,2065.66 2486.26,2069.62 2482.37,2073.56 2478.44,2077.47 2474.47,2081.34 2470.46,2085.16 2466.42,2088.91 2462.35,2092.59 2458.28,2096.17 2454.2,2099.65 2450.11,2103.02 2446.04,2106.26 2441.98,2109.36 2437.95,2112.31 2433.94,2115.1 2429.98,2117.71 2426.06,2120.12 2422.19,2122.34 2418.38,2124.35 2414.64,2126.13 2410.97,2127.67 2407.39,2128.96 2403.89,2129.99 2400.5,2130.75 2397.2,2131.21 2395.92,2131.32 2394.65,2131.37 2393.39,2131.36 2392.15,2131.31 2390.92,2131.19 2389.71,2131.03 2388.52,2130.8 2387.34,2130.52 2386.18,2130.18 2385.04,2129.78 2383.91,2129.32 2382.8,2128.81 2381.72,2128.22 2380.65,2127.58 2379.6,2126.88 2378.57,2126.11 1242.69,990.223 1243.72,990.993 1244.77,991.699 1245.84,992.342 1246.92,992.923 1248.03,993.441 1249.15,993.9 1250.3,994.299 1251.46,994.638 1252.63,994.92 1253.83,995.143 1255.04,995.311 1256.27,995.423 1257.51,995.481 1258.76,995.483 1260.04,995.434 1261.32,995.332 1264.62,994.865 1268.01,994.11 1271.51,993.081 1275.09,991.789 1278.76,990.246 1282.5,988.467 1286.31,986.461 1290.17,984.242 1294.1,981.823 1298.06,979.214 1302.07,976.429 1306.1,973.481 1310.16,970.379 1314.23,967.139 1318.31,963.772 1322.4,960.29 1326.47,956.707 1330.53,953.031 1334.57,949.279 1338.59,945.46 1342.56,941.59 1346.49,937.677 1350.37,933.735 1354.2,929.779 1357.95,925.817 1361.64,921.864 1365.24,917.931 1368.75,914.031 1372.18,910.176 1375.49,906.379 1378.7,902.651 "/>
     <polygon id="_461818552" class="fil1" points="1242.69,990.223 2378.57,2126.11 2376.11,2125.25 2373.65,2124.29 2371.21,2123.22 2368.79,2122.04 2366.37,2120.76 2363.98,2119.38 2361.59,2117.91 2359.23,2116.34 2356.88,2114.68 2354.54,2112.93 2352.23,2111.1 2349.94,2109.18 2347.66,2107.19 2345.41,2105.12 2343.18,2102.98 2340.97,2100.77 2338.79,2098.5 1202.91,962.613 1205.09,964.891 1207.3,967.102 1209.53,969.242 1211.78,971.31 1214.06,973.302 1216.35,975.216 1218.66,977.048 1221,978.794 1223.35,980.455 1225.71,982.024 1228.09,983.5 1230.49,984.878 1232.91,986.159 1235.33,987.335 1237.77,988.407 1240.23,989.371 "/>
    </g>
    <path id="_478220440" class="fil1" d="M1045.5 532.074c59.0965,29.1142 80.0197,23.2181 91.3761,45.2646 9.97442,19.363 -1.8437,58.2178 -13.2024,93.9013 5.90197,1.2248 10.5402,7.45985 5.38701,24.2103 -0.692127,2.25118 -3.83622,7.56733 -8.78623,11.2004 47.2311,24.0095 96.7749,48.691 148.017,73.5402 6.47835,-7.62048 13.5709,-14.3847 21.1181,-19.0004 2.6563,-2.52402 12.7323,-1.97835 15.1725,7.65355 1.88032,7.41733 -1.2378,4.15512 -6.23977,10.5319 3.44292,-1.87795 28.6973,-11.9339 27.7996,5.23111 -0.422835,8.00906 -1.81772,9.2067 -8.62796,13.7539 1.25079,2.21103 17.426,-5.53347 21.0154,6.21733 0.936615,3.06496 0.34252,5.94922 -1.26496,8.65512 8.84174,4.18347 17.7248,8.36457 26.6445,12.5421 3.16654,-4.27205 6.57402,-8.14016 10.2331,-11.387 2.17205,-2.95158 12.1878,-4.18701 16.2827,4.86615 3.15591,6.97087 -0.487796,4.30866 -4.29095,11.465 3.05906,-2.45315 26.152,-16.7941 28.2862,0.261024 0.993308,7.95945 -0.170079,9.38387 -6.07441,15.0579 1.61929,1.95709 16.1811,-8.51221 21.7807,2.42362 5.47323,10.6925 -10.6465,22.6477 -21.6295,31.3465 -8.65749,6.86103 -18.1193,13.2343 -26.7142,19.1977 -32.2949,38.4024 -85.9253,92.9139 -120.464,96.3261 -6.89764,0.681497 -13.2,-0.829134 -18.6307,-5.10945 -26.3492,-8.48386 -50.8359,-36.4807 -69.2516,-67.7634 -2.8252,0.96378 -4.69607,1.42087 -5.12835,1.13504 0,0 -5.61496,-7.57442 -12.6744,-18.0969 1.01811,61.6855 1.0878,140.192 -4.32284,154.791 10.787,32.1555 31.4599,115.08 31.4599,115.08 0,0 -1.76457,3.39449 -5.27008,8.09764 9.11103,34.3477 19.3843,78.3272 24.8835,115.919 3.27874,22.4114 2.35276,42.404 0.972048,56.6658 4.03229,0.498426 8.14253,1.5189 13.1681,8.15552 5.55237,7.32638 1.05354,17.2347 3.32953,47.3622 1.9878,26.3079 7.46103,54.1536 9.74174,68.9304 3.22559,-0.570473 8.49804,-0.910631 10.2295,2.46142 17.1177,33.4689 31.7835,101.545 -18.0673,101.036 -22.0016,-0.223229 -36.5811,-3.84213 -36.1937,-39.5339 0.0661418,-6.07087 -8.50158,-26.1272 -6.63544,-33.7819 2.03386,-8.34568 5.58544,-12.287 8.34449,-14.1413 -0.657875,-1.53662 -1.30158,-3.42874 -2.3504,-6.01654 -5.73898,-14.1366 -16.5709,-46.663 -21.091,-57.0059 -6.93308,-15.8669 -11.9658,-35.9811 -13.7681,-47.0894 -0.777166,-4.78937 -0.32126,-10.311 0.838583,-15.2291 -14.2736,-25.3925 -42.2788,-116.887 -55.35,-164.884 -6.56693,-1.05118 -10.8721,-1.98662 -10.8721,-1.98662l-31.2331 -76.3087 -1.44331 -16.6902 -0.315355 14.4662 -4.26142 68.0682c1.51299,17.6421 1.37244,35.7343 2.41536,43.7847 3.12047,24.0851 1.63228,45.3827 2.73544,66.0461 0.478347,8.95158 4.55315,25.2414 11.8276,44.1366 5.89607,0.614174 16.9854,9.32599 21.5811,18.5929 5.00079,10.0819 12.6165,29.3658 16.2154,46.304 2.34449,11.041 12.4713,43.7941 16.0323,58.6288 1.00866,4.18701 1.8378,6.46772 1.95945,8.75079 2.03977,-3.78189 2.56418,-7.20945 2.56418,-7.20945 0,0 8.60434,-0.637796 14.6067,13.6311 6.00237,14.2654 7.66772,44.4378 7.66772,44.4378 -16.5378,3.17953 -168.207,41.0386 -160.11,16.1988 0.86693,-2.66103 -2.57008,-5.86654 18.9579,-13.5213 21.5292,-7.65237 41.3433,-16.9169 49.9713,-28.8071 6.1193,-8.4378 12.248,-20.361 15.9083,-28.4752 -6.75709,-13.8685 -15.7961,-32.2595 -25.8862,-48.8717 -15.6862,-25.8213 -25.1114,-31.2603 -24.8622,-40.4481 0.231496,-8.59371 3.15473,-11.7508 6.25512,-14.5654 -8.25591,-11.5642 -21.6815,-31.3784 -31.3051,-57.3993 -12.3732,-33.4536 -23.7496,-73.8627 -32.0918,-107.242 -7.82481,-1.18937 -15.5185,-4.35827 -23.0114,-10.585 0,0 6.13937,-122.1 13.6925,-142.31 0.13937,-0.373229 0.284646,-0.758268 0.437008,-1.15276 -1.66536,-1.12795 -3.28819,-2.31378 -4.86496,-3.55748 -1.1126,-0.755906 -53.7615,-167.243 -30.1713,-252.377 1.05118,-14.9469 5.61851,-37.3642 22.4221,-42.2847 2.77677,-0.81378 5.74843,-1.2378 8.89371,-1.24606 3.43347,-1.67835 7.14686,-2.98819 11.1591,-3.89646 24.4169,-5.53111 56.1012,10.4185 69.5422,14.6126 -6.8315,-5.18977 -13.2425,-10.9689 -18.7701,-17.4213 -0.218504,-0.252756 -0.431103,-0.50315 -0.637796,-0.752363 -0.628347,-0.748819 -1.24488,-1.50709 -1.84843,-2.2748 -6.87756,-8.7378 -12.1122,-18.6579 -14.6575,-29.9551 -1.55197,-3.10394 -2.47323,-10.1114 -2.85591,-19.3843 -5.84056,-3.93071 -8.87481,-11.1662 -9.25513,-13.7693 -1.82244,-12.5339 0.947245,-18.2941 4.9063,-20.3091 -1.39016,-3.92363 -2.65984,-7.94764 -3.75827,-12.2433 -128.547,-67.8461 -248.236,-132.364 -298.12,-162.69 -7.77875,-4.73032 -49.6288,33.1477 -68.0044,14.8264 -3.9874,-3.97559 51.8493,-36.2292 52.115,-37.0666 42.163,22.9229 156.314,88.2036 311.137,170.026 -0.998032,-7.513 -1.49882,-16.0205 -1.33228,-26.0799 0.186614,-11.2571 1.09843,-32.817 11.8276,-34.0996 -4.34882,-40.3323 42.1004,-53.537 54.7867,-41.7709z"/>
   </g>
  </g>
  <path class="fil2" d="M1024 0c565.539,0 1024,458.461 1024,1024 0,565.539 -458.461,1024 -1024,1024 -565.539,0 -1024,-458.461 -1024,-1024 0,-565.539 458.461,-1024 1024,-1024z"/>
  <path class="fil3" d="M1177.34 829.114c-2.96929,20.6988 13.624,35.2807 26.478,52.6701 28.7835,38.9422 72.2528,71.3445 72.4619,71.7745 2.47087,5.06457 -2.57244,30.6189 -0.170079,36.0036 -45.0815,17.3835 -89.8406,-37.467 -115.044,-90.43 -13.1894,-27.7158 -25.474,-54.3721 -20.0835,-71.0587 0.13937,-2.07047 28.787,-1.18701 36.3579,1.04055z"/>
  <path class="fil4" d="M1132.96 833.613c-4.12559,10.3264 -7.80001,-3.35906 -5.19213,17.7248 2.61142,21.0827 40.5485,72.2564 40.5485,72.2564 2.3811,1.57677 48.4477,-19.4327 57.2292,-23.2229 -0.217323,-37.1799 -43.2012,-101.009 -73.1977,-120.276 1.93937,-4.6441 5.45079,8.82638 -0.377953,18.7831 -7.5378,12.8776 -16.6914,28.911 -19.0099,34.7351z"/>
  <path id="path4172" class="fil5" d="M1416.11 849.973c-360.704,-165.465 -670.972,-344.627 -747.024,-385.974 -0.265748,0.837402 -56.1024,33.091 -52.115,37.0666 18.3756,18.3213 60.2256,-19.5567 68.0044,-14.8264 118.815,72.2304 633.639,338.439 720.934,381.572l-0.682678 -1.9311 10.8839 -15.9071z"/>
  <path class="fil6" d="M1088.57 1176.53c-1.94646,4.68898 58.1906,213.201 69.3296,200.822 2.17914,4.01575 31.1823,0.925985 43.2437,-1.88268 0.713386,-9.19725 6.613,-39.4016 1.24606,-76.0819 -10.924,-74.6729 -40.6819,-174.542 -42.7559,-174.08l-1.26496 0.282284c-25.6441,5.71536 -68.3067,47.3599 -69.7985,50.941z"/>
  <path class="fil7" d="M1239.83 1482.96c-2.55709,-4.97953 -12.8398,-1.86378 -12.8398,-1.86378 0,0 -3.08859,5.81811 -5.00315,15.5102 -1.90984,9.69568 -7.23898,14.4791 -17.2524,11.8713 -10.0169,-2.6126 -13.5402,-13.5721 -13.5402,-13.5721 0,0 -8.59607,0.733465 -12.261,15.7748 -1.86614,7.65473 6.70158,27.711 6.63544,33.7819 -0.387402,35.6918 14.1921,39.3107 36.1937,39.5339 49.8508,0.509056 35.1851,-67.5674 18.0673,-101.036z"/>
  <path class="fil8" d="M1157.97 1357.94c-4.87559,2.3374 -9.70158,17.3788 -7.89922,28.4847 1.80236,11.1083 6.83504,31.2225 13.7681,47.0894 4.52008,10.3429 15.352,42.8693 21.091,57.0059 3.06024,7.55197 2.67047,9.17953 9.26694,13.324 6.58701,4.14213 16.6016,2.66693 26.6445,0.0779528 10.0441,-2.5878 10.7658,-7.02638 9.53268,-17.8677 -1.39252,-12.2303 -8.23701,-44.367 -10.513,-74.4886 -2.27599,-30.1276 2.22284,-40.0359 -3.32953,-47.3622 -5.54528,-7.32284 -9.97678,-7.80827 -14.4177,-8.29843 -4.44685,-0.484252 -39.2658,-0.297638 -44.1437,2.03504z"/>
  <path class="fil6" d="M1035.03 1152.71c15.3874,12.3827 12.7311,68.8087 14.8193,84.9355 3.12047,24.0851 1.63228,45.3827 2.73544,66.0461 0.596457,11.1579 6.77953,33.7146 17.7827,58.5107 0.0106299,4.56851 -26.928,15.75 -38.8618,19.0618 -5.0315,-7.7315 -24.678,-31.4197 -37.5378,-66.189 -26.1792,-70.7812 -47.8949,-172.702 -45.854,-173.29l1.24606 -0.357874c25.2473,-7.26615 82.6465,8.85473 85.6701,11.2831z"/>
  <path class="fil7" d="M984.926 1547.16c0.86693,-2.66103 -2.57008,-5.86654 18.9579,-13.5213 21.5292,-7.65237 41.3433,-16.9169 49.9713,-28.8071 8.62323,-11.8913 17.2665,-30.704 18.9933,-36.026 1.73504,-5.32087 12.3815,-3.87402 12.3815,-3.87402 0,0 3.97205,5.25355 7.39843,14.5205 3.42166,9.27048 9.44292,13.1492 18.9154,8.98701 9.47717,-4.16693 11.2181,-15.5469 11.2181,-15.5469 0,0 8.60434,-0.637796 14.6067,13.6311 6.00237,14.2654 7.66772,44.4378 7.66772,44.4378 -16.5378,3.17953 -168.207,41.0386 -160.11,16.1988z"/>
  <path class="fil8" d="M1062.99 1347.86c5.32559,-0.938977 18.0059,8.48268 23.0043,18.5622 5.00079,10.0819 12.6165,29.3658 16.2154,46.304 2.34449,11.041 12.4713,43.7941 16.0323,58.6288 1.90866,7.92284 3.17362,9.0189 0.222047,16.2284 -2.94567,7.20237 -11.9469,11.8335 -21.6213,15.5728 -9.67324,3.74292 -12.8433,0.553937 -18.1512,-8.97875 -5.98701,-10.7551 -19.128,-40.8709 -34.8107,-66.6886 -15.6862,-25.8213 -25.1114,-31.2603 -24.8622,-40.4481 0.246851,-9.18308 3.56811,-12.1583 6.8941,-15.1406 3.33307,-2.98229 31.754,-23.1 37.0772,-24.0402z"/>
  <path class="fil9" d="M1051.69 1125.79l-4.26024 68.0682c-35.8772,-3.56221 -74.3256,31.8449 -108.571,3.3874 0,0 6.13937,-122.1 13.6925,-142.31 7.55079,-20.2087 33.691,-74.106 33.691,-74.106 0,0 11.0197,20.4543 40.9701,16.578 9.60001,-1.24016 18.9189,-2.11181 27.3343,-2.72835l-2.85709 131.111z"/>
  <path class="fil9" d="M1053.45 1128.02l31.2331 76.3087c0,0 49.3985,10.7327 68.817,0.372048 19.4173,-10.363 29.2736,-29.3315 29.2736,-29.3315 0,0 -26.1166,-104.763 -34.9583,-124.445 -8.83583,-19.6807 -38.3953,-71.7816 -38.3953,-71.7816 0,0 -9.67914,21.1229 -39.8174,19.1847 -9.65906,-0.620079 -19.0146,-0.88819 -27.4524,-0.961418l11.2996 130.654z"/>
  <path class="fil10" d="M1089.61 767.835l0.00472441 0.0011811 0.0129921 0.0011811 0.0188977 0.00236221 0.00236221 0 0.0259843 0.00354331 0.0366142 0.00472441 0.0437008 0.00354331 0.00708662 0.0011811 0.0448819 0.00472441 0.0578741 0.00708662 0.0673229 0.00826772 0.0153543 0.00236221 0.0602363 0.00708662 0.080315 0.00944883 0.090945 0.0106299 0.0236221 0.00236221 0.0720473 0.0106299 0.103937 0.011811 0.112205 0.0129921 0.0377953 0.00590552 0.0791339 0.00826772 0.125197 0.0153543 0.132284 0.0165354 0.0543308 0.00590552 0.0838583 0.0106299 0.145276 0.0188977 0.151181 0.0177165 0.0755906 0.0106299 0.0838583 0.00826772 0.166536 0.022441 0.17126 0.0212599 0.0956694 0.011811 0.0826772 0.00944883 0.183071 0.0248032 0.191339 0.0236221 0.119291 0.0153543 0.0779528 0.00826772 0.20315 0.0271654 0.209055 0.0259843 0.142913 0.0200788 0.0708662 0.00826772 0.222047 0.0271654 0.225591 0.0307087 0.172441 0.0212599 0.0590552 0.00826772 0.238583 0.0318898 0.244488 0.0318898 0.200788 0.0259843 0.0484252 0.00590552 0.252756 0.034252 0.259843 0.034252 0.233858 0.0307087 0.0318898 0.00472441 0.270473 0.0354331 0.274016 0.0377953 0.265748 0.034252 0.0141732 0.00354331 0.284646 0.0377953 0.290551 0.0389764 0.294095 0.0401575 0.00472441 0.0011811 0.294095 0.0401575 0.305906 0.0413386 0.308268 0.0437008 0.0259843 0.00354331 0.287008 0.0389764 0.316536 0.0448819 0.323622 0.0448819 0.0484252 0.00708662 0.276378 0.0401575 0.33189 0.0448819 0.333071 0.0484252 0.0755906 0.0106299 0.263386 0.0366142 0.343701 0.0507874 0.346063 0.0484252 0.100394 0.0153543 0.250394 0.0354331 0.35315 0.0519685 0.356693 0.0519685 0.12874 0.0188977 0.232677 0.034252 0.364961 0.0543308 0.368504 0.0543308c16.3228,2.42481 42.4548,7.09725 49.2473,12.9555 10.0748,8.68701 0.465355,24.4146 1.43032,47.7992 0.959056,23.3658 7.03819,237.904 -4.84961,232.158 -40.3607,3.7937 -147.103,30.0248 -200.797,-12.3366 -1.43386,-0.973229 -88.402,-277.012 12.3036,-299.804 25.9878,-5.88662 60.2091,12.5599 71.9044,15.2681l2.36221 0.0862205 0.0165354 0 0.475985 0.0188977 0.103937 0.00354331 0.569292 0.0212599 0.0519685 0.0011811 1.37126 0.0507874 0.068504 0.00236221 0.675591 0.0248032 0.142913 0.00708662 0.637796 0.0236221 0.220866 0.00708662 0.596457 0.022441 0.305906 0.0129921 0.544489 0.0188977 0.396851 0.0141732 0.485433 0.0188977 0.49252 0.0188977 0.420473 0.0153543 0.592914 0.0212599 0.349607 0.0141732 0.69567 0.0259843 0.272835 0.00944883 0.80315 0.0307087 0.190158 0.00708662 0.916536 0.034252 0.101575 0.00354331 1.02874 0.0377953 0.0106299 0.0011811 1.05945 0.0389764 0.0838583 0.00472441 0.993308 0.0354331 0.184252 0.00708662 0.910631 0.034252 0.285827 0.0106299 0.82441 0.0307087 0.388583 0.0153543 0.735827 0.0271654 0.49252 0.0188977 0.64252 0.0236221 0.601182 0.022441 0.544489 0.0200788 0.707481 0.0271654 0.446457 0.0153543 0.81378 0.0318898 0.346063 0.011811 0.921261 0.034252 0.242126 0.0106299 1.02992 0.0389764 0.13937 0.00472441 1.13504 0.0425197 0.0354331 0.0011811 1.16811 0.0437008 0.0696851 0.0011811 1.09724 0.0425197 0.174803 0.00708662 0.989765 0.0366142 0.276378 0.00944883 0.882284 0.0330709 0.377953 0.0141732 0.773623 0.0295276 0.477166 0.0177165 0.664961 0.0248032 0.575197 0.022441 0.558662 0.0200788 0.668504 0.0259843 0.452363 0.0165354 0.758268 0.0271654 0.347244 0.0141732 0.84567 0.0318898 0.246851 0.00944883 0.925985 0.0330709 0.146457 0.00590552 1.00394 0.0377953 0.0531496 0.00236221 1.03465 0.0389764 0.0401575 0.00236221 0.970867 0.034252 0.129921 0.00590552 0.858662 0.0330709 0.212599 0.00826772 0.750001 0.0271654 0.291733 0.0106299 0.643701 0.0236221 0.362599 0.0153543 0.544489 0.0200788 0.427559 0.0165354 0.446457 0.0153543 0.490158 0.0188977 0.354331 0.0129921 0.539764 0.0200788 0.26811 0.0106299 0.585827 0.022441 0.187795 0.00590552 0.62126 0.0236221 0.114567 0.00354331 0.648426 0.0248032 0.0472441 0.00236221 0.654331 0.0248032 0.0129921 -0.0011811 0.6 0.022441 0.0649607 0.00354331 0.50315 0.0177165 0.108662 0.00590552 0.413386 0.0141732 0.141732 0.00590552 0.333071 0.0129921 0.166536 0.00590552 0.258662 0.0106299 0.179528 0.00472441 0.194882 0.00944883 0.184252 0.00590552 0.135827 0.00472441 0.178347 0.00708662 0.0874016 0.00354331 0.16063 0.00472441 0.0507874 0.00354331 0.12874 0.00354331 0.0236221 0.0011811 0.0862205 0.00354331 0.00590552 0 0.0307087 0.0011811z"/>
  <path class="fil11" d="M1001.1 666.329c-1.65827,-6.07678 -23.5063,-14.7874 -19.154,15.1524 0.507874,3.47953 5.75552,15.2291 16.1079,16.3134 10.741,1.12441 5.47796,-21.0083 3.04607,-31.4658z"/>
  <path class="fil12" d="M1045.5 532.074c59.0965,29.1142 80.0197,23.2181 91.3761,45.2646 11.8476,22.9996 -7.05237,73.5001 -19.4055,113.522 -7.03938,22.8047 -2.31732,39.5764 -12.7536,52.5248 -3.62126,10.2201 -56.191,6.03544 -81.7418,-9.79961 -17.198,-10.6583 -14.9469,-15.5386 -22.5461,-37.3796 -10.539,-30.2953 -22.2626,-44.8122 -21.5433,-88.2615 0.186614,-11.2571 1.09843,-32.817 11.8276,-34.0996 -4.34882,-40.3323 42.1004,-53.537 54.7867,-41.7709z"/>
  <path class="fil6" d="M1116.29 600.611c4.4563,16.4291 -1.23189,65.8725 -9.66851,105.81 -1.28268,6.06969 -4.93701,14.4095 -8.17678,22.2024 -2.93032,7.05001 -5.52166,13.6512 -5.70709,17.7177 -0.594095,12.9709 -0.637796,16.7138 8.36575,22.8425 -0.178347,2.65394 -9.77835,3.77126 -13.7516,5.87008 -6.47835,3.42166 -16.2165,20.7957 -25.5992,21.3213 -7.51536,0.421654 -7.75394,-15.8539 -12.0012,-18.3095 -24.4902,-14.1602 -49.1079,-34.1788 -55.6985,-63.4312 -7.54371,-15.0898 -0.200788,-122.423 11.6114,-133.962 8.18859,-15.45 29.2087,8.98229 48.1536,5.76497 48.0284,-6.96497 60.5693,5.70355 62.4721,14.1732z"/>
  <path class="fil11" d="M1102.34 719.223l-0.0578741 0.144095 -0.0165354 0.0413386 -0.0425197 0.103937 -0.0590552 0.146457 -0.0472441 0.115748 -0.011811 0.0307087 -0.0590552 0.145276 -0.0590552 0.146457 -0.0177165 0.0437008 -0.0413386 0.102756 -0.0602363 0.146457 -0.0484252 0.11811 -0.0106299 0.0283465 -0.0602363 0.145276 -0.0590552 0.146457 -0.0200788 0.0472441 -0.0401575 0.0992127 -0.0614174 0.147638 -0.120473 0.292914 -0.0602363 0.147638 -0.0200788 0.0496063 -0.0401575 0.0980316 -0.0602363 0.146457 -0.0614174 0.147638 -0.0602363 0.146457 -0.0614174 0.147638 -0.0212599 0.0519685 -0.0401575 0.0956694 -0.0602363 0.147638 -0.0531496 0.126378 -0.00826772 0.0212599 -0.0614174 0.146457 -0.0614174 0.147638 -0.022441 0.0543308 -0.0389764 0.0933072 -0.0614174 0.147638 -0.0531496 0.129921 -0.00826772 0.0177165 -0.0614174 0.147638 -0.0614174 0.147638 -0.0236221 0.056693 -0.0377953 0.090945 -0.0614174 0.147638 -0.0555119 0.132284 -0.00708662 0.0153543 -0.0614174 0.146457 -0.0614174 0.148819 -0.0248032 0.0590552 -0.0366142 0.0874016 -0.0625985 0.148819 -0.0555119 0.134646 -0.00590552 0.011811 -0.0614174 0.147638 -0.0614174 0.147638 -0.0259843 0.0625985 -0.0366142 0.0850394 -0.0614174 0.147638 -0.056693 0.137008 -0.00472441 0.00944883 -0.0614174 0.148819 -0.0614174 0.146457 -0.0271654 0.0649607 -0.034252 0.0826772 -0.0614174 0.146457 -0.0578741 0.13937 -0.00354331 0.00826772 -0.0625985 0.146457 -0.0614174 0.147638 -0.0271654 0.0661418 -0.034252 0.080315 -0.0602363 0.146457 -0.0602363 0.141732 -0.00236221 0.00590552 -0.0614174 0.145276 -0.0602363 0.147638 -0.0295276 0.0696851 -0.0318898 0.0767717 -0.0614174 0.146457 -0.0590552 0.142913 -0.0011811 0.00354331 -0.0614174 0.145276 -0.0614174 0.146457 -0.0283465 0.0708662 -0.0318898 0.0744095 -0.0602363 0.146457 -0.0614174 0.145276c-2.92914,7.04882 -5.52048,13.65 -5.70591,17.7177l-0.00236221 0.0354331 -0.0011811 0.0366142 -0.00236221 0.0366142 -0.0011811 0.0354331 -0.0011811 0.0354331 -0.00236221 0.0366142 -0.0011811 0.0354331 -0.0011811 0.0354331 -0.00236221 0.0354331 -0.0011811 0.0366142 -0.00236221 0.0354331 -0.0011811 0.0354331 -0.0011811 0.0354331 -0.00236221 0.0354331 -0.0011811 0.0354331 -0.0011811 0.0354331 -0.00236221 0.0295276 0 0.00590552 -0.0011811 0.0354331 -0.00236221 0.0354331 -0.0011811 0.0354331 -0.0011811 0.0354331 -0.0011811 0.0354331 -0.00236221 0.034252 -0.0011811 0.0354331 -0.00236221 0.034252 -0.0011811 0.0354331 -0.0011811 0.034252 -0.0011811 0.0354331 -0.00236221 0.034252 -0.0011811 0.0354331 -0.0011811 0.0354331 -0.00236221 0.034252 -0.0011811 0.0354331 -0.0011811 0.0212599 -0.0011811 0.0129921 -0.0011811 0.034252 -0.0011811 0.034252 -0.0011811 0.034252 -0.0011811 0.034252 -0.00236221 0.034252 -0.0011811 0.034252 -0.0011811 0.0354331 -0.0011811 0.034252 -0.00236221 0.0330709 -0.0011811 0.034252 -0.00236221 0.034252 -0.0011811 0.034252 -0.0011811 0.034252 -0.00236221 0.034252 -0.0011811 0.0330709 -0.0011811 0.034252 0 0.0153543 -0.0011811 0.0188977 -0.0011811 0.0330709 -0.00236221 0.034252 -0.0011811 0.034252 -0.0011811 0.0330709 -0.0011811 0.0330709 -0.0011811 0.034252 -0.00236221 0.0330709 -0.0011811 0.034252 -0.0011811 0.0330709 -0.0011811 0.0330709 -0.00236221 0.0330709 -0.0011811 0.0330709 -0.0011811 0.034252 -0.00472441 0.10748 -0.0165354 0.412205 -0.00590552 0.137008 -0.0129921 0.372048 -0.00708662 0.165354c-0.288189,7.80119 -0.367323,12.4925 6.01182,17.6008l0.199606 0.158268 0.0437008 0.0330709 0.294095 0.225591 0.0153543 0.0129921 0.106299 0.0814961 0.257481 0.19252 0.00236221 0.00236221 0.271654 0.198425 0.102756 0.0767717 0.068504 0.0484252 0.320079 0.230315 0.0472441 0.0330709 0.355512 0.249213 0.0248032 0.0165354 0.390945 0.269292 -0.0011811 0.0106299 -0.0011811 0.011811 -0.00354331 0.0295276 -0.0129921 0.0874016 -0.0106299 0.0437008 -0.0177165 0.0708662 -0.0236221 0.0661418 -0.0188977 0.0507874 -0.0283465 0.0602363 -0.0295276 0.0614174 -0.00354331 0.00708662 -0.0555119 0.0944883 -0.0129921 0.0200788 -0.0248032 0.0354331 -0.0531496 0.0732284 -0.0153543 0.0188977 -0.0755906 0.090945 -0.00472441 0.00354331 -0.0862205 0.090945 -0.0165354 0.0177165 -0.0956694 0.090945 -0.0188977 0.0165354 -0.105118 0.0885827 -0.0200788 0.0165354 -0.114567 0.0874016 -0.0212599 0.0153543 -0.124016 0.0862205 -0.144095 0.0956694 -0.00944883 0.00590552 -0.022441 0.0141732 -0.140551 0.0850394 -0.0236221 0.0141732 -0.148819 0.0838583 -0.0236221 0.0129921 -0.157087 0.0838583 -0.0248032 0.011811 -0.164173 0.0826772 -0.197244 0.0933072 -0.0259843 0.011811 -0.178347 0.0814961 -0.0271654 0.0106299 -0.185433 0.080315 -0.0259843 0.011811 -0.19252 0.0791339 -0.0271654 0.0106299 -0.198425 0.0779528 -0.0271654 0.011811 -0.204331 0.0767717 -0.0271654 0.0106299 -0.210236 0.0767717 -0.0271654 0.00944883 -0.216142 0.0779528 -0.0271654 0.00944883 -0.220866 0.0755906 -0.0271654 0.00944883 -0.226772 0.0755906 -0.0259843 0.00826772 -0.231496 0.0767717 -0.0259843 0.00826772 -0.23504 0.0744095 -0.0259843 0.00826772 -0.239764 0.0744095 -0.0259843 0.00944883 -0.243307 0.0732284 -0.0248032 0.00826772 -0.248032 0.0744095 -0.0236221 0.00826772 -0.250394 0.0744095 -0.0248032 0.00590552 -0.252756 0.0744095 -0.0236221 0.00708662 -0.256299 0.0732284 -0.0236221 0.00708662 -0.257481 0.0744095 -0.022441 0.00708662 -0.259843 0.0744095 -0.0212599 0.00590552 -0.262205 0.0744095 -0.0212599 0.00590552 -0.263386 0.0744095 -0.0200788 0.00472441 -0.264567 0.0755906 -0.0200788 0.00472441 -0.265748 0.0755906 -0.0177165 0.00472441 -0.266929 0.0755906 -0.0177165 0.00472441 -0.265748 0.0755906 -0.0165354 0.00590552 -0.265748 0.0755906 -0.0165354 0.00472441 -0.264567 0.0767717 -0.0153543 0.00472441 -0.265748 0.0767717 -0.0129921 0.00472441 -0.264567 0.0779528 -0.0129921 0.00354331 -0.262205 0.0791339 -0.011811 0.00354331 -0.259843 0.0791339 -0.011811 0.00354331 -0.258662 0.080315 -0.00944883 0.00236221 -0.256299 0.0814961 -0.0106299 0.00354331 -0.251575 0.0814961 -0.00944883 0.00236221 -0.249213 0.0826772 -0.00708662 0.00354331 -0.246851 0.0838583 -0.00708662 0.0011811 -0.240945 0.0862205 -0.00708662 0.0011811 -0.237402 0.0874016 -0.00472441 0.0011811 -0.233858 0.0874016 -0.00472441 0.0011811 -0.226772 0.0897638 -0.00472441 0.0011811 -0.222047 0.0897638 -0.00354331 0.0011811 -0.217323 0.090945 -0.0011811 0.0011811 -0.210236 0.0921261 -0.00236221 0.0011811 -0.204331 0.0933072 -0.0011811 0.0011811 -0.197244 0.0956694 0 0.0011811 -0.190158 0.0968505c-6.47835,3.42166 -21.6721,27.554 -31.0547,28.0795 -0.885827,0.0507874 -1.85669,-0.246851 -2.88544,-0.806694 -4.63465,-3.33544 -3.1311,-22.4079 -17.0953,-32.7047 -8.85946,-6.53386 -18.8362,-14.9953 -23.8229,-20.5229l-0.0661418 -0.0732284 -0.0129921 -0.0141732 -0.818505 -0.933072 -0.146457 -0.168898c-0.242126,-0.281103 -0.484252,-0.563386 -0.722835,-0.848032l-0.0708662 -0.0814961 -0.0968505 -0.115748 -0.750001 -0.905906 -0.00354331 -0.00354331 -0.011811 -0.0141732 -0.0271654 -0.034252c-0.270473,-0.330709 -0.538583,-0.66378 -0.804331,-0.998032l-0.0401575 -0.0507874 -0.210236 -0.269292c19.9536,21.0106 43.2343,14.9362 61.5898,3.47244 18.1902,-11.3599 31.5449,-28.0099 32.0386,-28.8378z"/>
  <path class="fil13" d="M1110.96 675.918c2.80394,-6.2693 27.8032,-12 18.1016,19.5319 -1.12677,3.66496 -8.74843,15.4476 -20.0858,14.8831 -11.7614,-0.584646 -2.38583,-23.5536 1.98425,-34.415z"/>
  <path class="fil12" d="M1123.41 671.007l-5.57717 -38.5985c-1.06654,8.6752 -13.2473,60.9981 -19.4575,65.263 11.9256,4.41615 17.4886,-28.9075 25.0347,-26.6646z"/>
  <path class="fil6" d="M1010.85 826.621c47.23,40.0843 254.47,-33.9496 256.016,-32.4142 5.34922,5.31851 26.0457,30.6685 31.4504,36.4205 -44.954,52.1788 -295.714,104.505 -314.551,36.4548 -2.24646,-1.63347 19.1669,-33.4689 27.0851,-40.4611z"/>
  <path class="fil6" d="M1289.41 761.19c2.6563,-2.52402 12.7323,-1.97835 15.1725,7.65355 1.88032,7.41733 -1.2378,4.15512 -6.23977,10.5319 3.44292,-1.87795 28.6973,-11.9339 27.7996,5.23111 -0.422835,8.00906 -1.81772,9.2067 -8.62796,13.7539 1.25079,2.21103 17.426,-5.53347 21.0154,6.21733 3.50788,11.4874 -14.4638,20.4213 -26.8051,27.0532 -11.3339,6.09567 -23.6268,11.3469 -34.2981,16.3406 -11.7744,5.50394 -25.1008,-23.7803 -34.4693,-30.6449 10.7126,-18.2906 27.0827,-44.2914 46.4528,-56.1367z"/>
  <path class="fil4" d="M1031.99 821.137c-17.7697,8.2689 -52.8898,64.7646 -39.6485,67.0619 -24.2906,-21.3036 -61.8945,-46.48 -74.5064,-77.4296 -0.518504,-6.45709 -1.17638,-48.2563 22.5402,-55.2012 21.8811,-6.40985 55.8308,11.3764 91.6146,65.5689z"/>
  <path class="fil3" d="M1217.95 952.483l6.18662 9.32599 6.43701 10.2921c6.92127,18.0484 17.7851,24.5114 30.7512,23.2311 50.028,-4.94174 140.113,-117.096 147.395,-132.21 7.79056,-52.1233 -155.854,75.9001 -190.769,89.3611z"/>
  <path class="fil14" d="M1374.15 814.388c2.17205,-2.95158 12.1878,-4.18701 16.2827,4.86615 3.15591,6.97087 -0.487796,4.30866 -4.29095,11.465 3.05906,-2.45315 26.152,-16.7941 28.2862,0.261024 0.993308,7.95945 -0.170079,9.38387 -6.07441,15.0579 1.61929,1.95709 16.1811,-8.51221 21.7807,2.42362 5.47323,10.6925 -10.6465,22.6477 -21.6295,31.3465 -10.0866,7.99371 -21.2646,15.3236 -30.8906,22.1173 -10.624,7.48819 -28.891,-18.9969 -39.3225,-24.1075 7.32993,-19.8898 18.874,-48.3626 35.8583,-63.43z"/>
 </g>
</svg>
