<?xml version="1.0" encoding="UTF-8"?>
<!DOCTYPE svg PUBLIC "-//W3C//DTD SVG 1.1//EN" "http://www.w3.org/Graphics/SVG/1.1/DTD/svg11.dtd">
<!-- Creator: CorelDRAW -->
<svg xmlns="http://www.w3.org/2000/svg" xml:space="preserve" width="2048px" height="2048px" style="shape-rendering:geometricPrecision; text-rendering:geometricPrecision; image-rendering:optimizeQuality; fill-rule:evenodd; clip-rule:evenodd"
viewBox="0 0 2048 2048"
 xmlns:xlink="http://www.w3.org/1999/xlink">
 <defs>
  <style type="text/css">
   <![CDATA[
    .fil2 {fill:none}
    .fil1 {fill:#6D4C41}
    .fil9 {fill:#A11A1A}
    .fil0 {fill:#A1887F}
    .fil7 {fill:#AAB2B1}
    .fil4 {fill:#BDBDBD}
    .fil6 {fill:#CAD1D0}
    .fil3 {fill:#E0E0E0}
    .fil8 {fill:#A52120;fill-rule:nonzero}
    .fil5 {fill:#B71C1C;fill-rule:nonzero}
   ]]>
  </style>
   <clipPath id="id0">
    <path d="M1024 0c565.539,0 1024,458.461 1024,1024 0,565.539 -458.461,1024 -1024,1024 -565.539,0 -1024,-458.461 -1024,-1024 0,-565.539 458.461,-1024 1024,-1024z"/>
   </clipPath>
 </defs>
 <g id="Layer_x0020_1">
  <metadata id="CorelCorpID_0Corel-Layer"/>
  <path class="fil0" d="M1024 0c565.539,0 1024,458.461 1024,1024 0,565.539 -458.461,1024 -1024,1024 -565.539,0 -1024,-458.461 -1024,-1024 0,-565.539 458.461,-1024 1024,-1024z"/>
  <g style="clip-path:url(#id0)">
   <g id="_478237672">
    <g>
     <polygon id="_3968141681" class="fil1" points="1456.12,667.788 2592,1803.67 2608.63,1824.82 2624.24,1846.78 2638.81,1869.5 2652.29,1892.95 2664.66,1917.1 2675.87,1941.91 2685.9,1967.34 2694.7,1993.36 2702.25,2019.93 2708.5,2047.02 2713.43,2074.6 2716.99,2102.63 2719.15,2131.06 2719.88,2159.88 2719.15,2188.7 2716.99,2217.14 2713.43,2245.17 2708.5,2272.74 2702.25,2299.83 2694.7,2326.41 2685.9,2352.43 2675.87,2377.86 2664.66,2402.67 2652.29,2426.81 2638.81,2450.26 2624.24,2472.98 2608.63,2494.94 2592,2516.09 2574.4,2536.41 2555.86,2555.86 2536.41,2574.4 2516.09,2592.01 2494.94,2608.63 2472.98,2624.24 2450.26,2638.81 2426.81,2652.29 2402.67,2664.66 2377.86,2675.87 2352.43,2685.9 2326.41,2694.71 2299.83,2702.25 2272.74,2708.5 2245.16,2713.43 2217.14,2716.99 2188.7,2719.15 2159.88,2719.88 2131.06,2719.15 2102.62,2716.99 2074.6,2713.43 2047.02,2708.5 2019.93,2702.25 1993.35,2694.71 1967.33,2685.9 1941.9,2675.87 1917.1,2664.66 1892.95,2652.29 1869.5,2638.81 1846.78,2624.24 1824.82,2608.63 1803.67,2592.01 667.788,1456.12 688.942,1472.75 710.898,1488.36 733.62,1502.93 757.071,1516.41 781.216,1528.78 806.023,1539.99 831.453,1550.02 857.473,1558.82 884.048,1566.37 911.14,1572.62 938.717,1577.55 966.744,1581.11 995.182,1583.27 1024,1584 1052.82,1583.27 1081.26,1581.11 1109.28,1577.55 1136.86,1572.62 1163.95,1566.37 1190.53,1558.82 1216.55,1550.02 1241.98,1539.99 1266.78,1528.78 1290.93,1516.41 1314.38,1502.93 1337.1,1488.36 1359.06,1472.75 1380.21,1456.12 1400.53,1438.52 1419.98,1419.98 1438.52,1400.53 1456.12,1380.21 1472.75,1359.06 1488.36,1337.1 1502.93,1314.38 1516.41,1290.93 1528.78,1266.78 1539.99,1241.98 1550.02,1216.55 1558.82,1190.53 1566.37,1163.95 1572.62,1136.86 1577.55,1109.28 1581.11,1081.26 1583.27,1052.82 1584,1024 1583.27,995.182 1581.11,966.744 1577.55,938.717 1572.62,911.14 1566.37,884.048 1558.82,857.473 1550.02,831.453 1539.99,806.023 1528.78,781.216 1516.41,757.071 1502.93,733.62 1488.36,710.898 1472.75,688.942 "/>
    </g>
    <path id="_478222600" class="fil1" d="M1024 464c309.28,0 560,250.72 560,560 0,309.28 -250.72,560 -560,560 -309.28,0 -560,-250.72 -560,-560 0,-309.28 250.72,-560 560,-560z"/>
   </g>
  </g>
  <path class="fil2" d="M1024 0c565.539,0 1024,458.461 1024,1024 0,565.539 -458.461,1024 -1024,1024 -565.539,0 -1024,-458.461 -1024,-1024 0,-565.539 458.461,-1024 1024,-1024z"/>
  <g id="_381194848">
   <circle id="_381185824" class="fil3" transform="matrix(2.96406 0.000964314 0.000964587 -2.96406 1024 1024)" r="188.93"/>
   <path id="_381206320" class="fil4" d="M1311.92 543.619c-84.0851,-50.5063 -182.512,-79.5851 -287.742,-79.6194 -105.229,-0.034252 -203.675,28.9807 -287.794,79.4316 18.7051,194.059 140.336,343.872 287.655,343.92 147.32,0.0484252 269.048,-149.686 287.88,-343.732z"/>
   <path id="_381205192" class="fil5" d="M722.43 552.057c0.537402,5.59371 0.415748,3.91772 1.11732,9.43111 11.9634,93.8729 47.5229,176.893 98.0587,237.313 53.8122,64.3359 124.618,103.348 202.432,103.373 77.8134,0.0259843 148.642,-38.9374 202.499,-103.24 50.7024,-60.5386 86.3646,-143.802 98.3009,-237.953 0.667323,-5.28544 0.519685,-3.37441 1.03937,-8.73072l-27.6272 -16.5815c-0.0696851,0.724016 -1.1752,8.00906 -1.24488,8.72717 -9.48308,93.6686 -43.6394,176.418 -93.1548,235.542 -48.2989,57.6721 -111.228,92.6139 -179.803,92.5926 -68.5749,-0.022441 -131.48,-35.0067 -179.741,-92.7095 -48.0626,-57.4642 -81.6166,-137.218 -92.132,-227.603 -0.390945,-3.37087 -2.09646,-13.1421 -2.42481,-16.5484l-27.3189 16.389z"/>
   <path id="_381196720" class="fil4" d="M1023.82 1584c105.229,0.034252 203.677,-28.9807 287.794,-79.4316 -18.7051,-194.062 -140.335,-343.876 -287.655,-343.923 -147.319,-0.0484252 -269.048,149.686 -287.879,343.735 84.0839,50.5063 182.512,79.5851 287.74,79.6194z"/>
   <path id="_381185512" class="fil5" d="M722.123 1496.18c0.540945,-5.59371 0.418111,-3.91654 1.12323,-9.42993 12.0248,-93.8646 47.6386,-176.862 98.2135,-237.249 53.8536,-64.3004 124.686,-103.266 202.499,-103.241 77.8134,0.0259843 148.616,39.0343 202.432,103.373 50.6622,60.5717 86.2701,143.857 98.1461,238.017 0.66378,5.28662 0.517323,3.37559 1.03347,8.7319l-27.6378 16.5638c-0.0696851,-0.725197 -1.17047,-8.01024 -1.24016,-8.72835 -9.42166,-93.6757 -43.5248,-176.446 -93.0001,-235.603 -48.2622,-57.7028 -111.168,-92.6859 -179.743,-92.7083 -68.5749,-0.022441 -131.504,34.9205 -179.803,92.5914 -48.0992,57.4335 -81.7052,137.165 -92.2796,227.543 -0.393307,3.37205 -2.10473,13.1421 -2.43543,16.5484l-27.3083 -16.4079z"/>
   <path id="_381195232" class="fil6" d="M1023.82 1584l0.00708662 0 0.364961 -1120 -0.00708662 0c-309.28,-0.100394 -560.083,250.539 -560.183,559.818 -0.100394,309.28 250.539,560.083 559.818,560.183z"/>
   <path id="_381185536" class="fil7" d="M1024.19 464l-0.00708662 0c-105.229,-0.034252 -203.675,28.9807 -287.794,79.4316 18.7051,194.059 140.336,343.872 287.655,343.92l0.00708662 0 0.138189 -423.351z"/>
   <path id="_381201208" class="fil8" d="M722.43 552.057c0.537402,5.59371 0.415748,3.91772 1.11732,9.43111 11.9634,93.8729 47.5229,176.893 98.0587,237.313 53.8122,64.3359 124.618,103.348 202.432,103.373l0.00708662 0 0.00944883 -29.6445 -0.00708662 0c-68.5749,-0.022441 -131.48,-35.0067 -179.741,-92.7095 -48.0626,-57.4642 -81.6166,-137.218 -92.132,-227.603 -0.390945,-3.37087 -2.09646,-13.1421 -2.42481,-16.5484l-27.3189 16.389z"/>
   <path id="_381194896" class="fil7" d="M1023.82 1584l0.00708662 0 0.138189 -423.355 -0.00708662 0c-147.319,-0.0484252 -269.048,149.686 -287.879,343.735 84.0839,50.5063 182.512,79.5851 287.74,79.6194z"/>
   <path id="_381207280" class="fil8" d="M722.123 1496.18c0.540945,-5.59371 0.418111,-3.91654 1.12323,-9.42993 12.0248,-93.8646 47.6386,-176.862 98.2135,-237.249 53.8536,-64.3004 124.686,-103.266 202.499,-103.241l0.00708662 0 -0.00944883 29.6457 -0.00708662 0c-68.5749,-0.022441 -131.504,34.9205 -179.803,92.5914 -48.0992,57.4335 -81.7052,137.165 -92.2796,227.543 -0.393307,3.37205 -2.10473,13.1421 -2.43543,16.5484l-27.3083 -16.4079z"/>
   <ellipse id="_381188128" class="fil9" cx="1023.66" cy="887.458" rx="5.33388" ry="40.5684"/>
   <ellipse id="_381189688" class="fil9" cx="1023.66" cy="1162.67" rx="5.33388" ry="40.5684"/>
   <ellipse id="_381196552" class="fil9" transform="matrix(0.526089 -0.125351 0.125351 0.526088 1076.57 881.546)" rx="9.14174" ry="69.5315"/>
   <ellipse id="_381190144" class="fil9" transform="matrix(0.526089 0.125351 0.125351 -0.526088 1076.57 1168.58)" rx="9.14174" ry="69.5315"/>
   <ellipse id="_381193240" class="fil9" transform="matrix(-0.526089 -0.125351 -0.125351 0.526088 972.415 881.546)" rx="9.14174" ry="69.5315"/>
   <ellipse id="_381188896" class="fil9" transform="matrix(-0.526089 0.125351 -0.125351 -0.526088 972.415 1168.58)" rx="9.14174" ry="69.5315"/>
   <ellipse id="_381193720" class="fil9" transform="matrix(0.481644 -0.24597 0.24597 0.481644 1126.34 866.786)" rx="9.14174" ry="69.5315"/>
   <ellipse id="_381202648" class="fil9" transform="matrix(0.481644 0.24597 0.24597 -0.481644 1126.34 1183.34)" rx="9.14174" ry="69.5315"/>
   <ellipse id="_381185680" class="fil9" transform="matrix(-0.481644 -0.24597 -0.24597 0.481644 922.647 866.786)" rx="9.14174" ry="69.5315"/>
   <ellipse id="_381206848" class="fil9" transform="matrix(-0.481644 0.24597 -0.24597 -0.481644 922.647 1183.34)" rx="9.14174" ry="69.5315"/>
   <ellipse id="_381179920" class="fil9" transform="matrix(0.427623 -0.33109 0.33109 0.427623 1174.33 834.717)" rx="9.14174" ry="69.5315"/>
   <ellipse id="_381206896" class="fil9" transform="matrix(0.427623 0.33109 0.33109 -0.427623 1174.33 1215.41)" rx="9.14174" ry="69.5315"/>
   <ellipse id="_381207232" class="fil9" transform="matrix(-0.427623 -0.33109 -0.33109 0.427623 874.658 834.717)" rx="9.14174" ry="69.5315"/>
   <ellipse id="_381198136" class="fil9" transform="matrix(-0.427623 0.33109 -0.33109 -0.427623 874.658 1215.41)" rx="9.14174" ry="69.5315"/>
   <ellipse id="_381200176" class="fil9" transform="matrix(0.337334 -0.422714 0.422714 0.337334 1210.64 798.663)" rx="9.14174" ry="69.5315"/>
   <ellipse id="_381200752" class="fil9" transform="matrix(0.337334 0.422714 0.422714 -0.337334 1210.64 1251.46)" rx="9.14174" ry="69.5315"/>
   <ellipse id="_381196456" class="fil9" transform="matrix(-0.337334 -0.422714 -0.422714 0.337334 838.343 798.663)" rx="9.14174" ry="69.5315"/>
   <ellipse id="_381181672" class="fil9" transform="matrix(-0.337334 0.422714 -0.422714 -0.337334 838.343 1251.46)" rx="9.14174" ry="69.5315"/>
   <ellipse id="_381179440" class="fil9" transform="matrix(0.250297 -0.479409 0.47941 0.250297 1239.13 759.064)" rx="9.14174" ry="69.5315"/>
   <ellipse id="_381181384" class="fil9" transform="matrix(0.250297 0.479409 0.47941 -0.250297 1239.13 1291.06)" rx="9.14174" ry="69.5315"/>
   <ellipse id="_381188680" class="fil9" transform="matrix(-0.250297 -0.479409 -0.47941 0.250297 809.854 759.064)" rx="9.14174" ry="69.5315"/>
   <ellipse id="_381203848" class="fil9" transform="matrix(-0.250297 0.479409 -0.47941 -0.250297 809.854 1291.06)" rx="9.14174" ry="69.5315"/>
   <ellipse id="_381198280" class="fil9" transform="matrix(0.250297 -0.479409 0.47941 0.250297 1265.5 712.565)" rx="9.14174" ry="69.5315"/>
   <ellipse id="_381197128" class="fil9" transform="matrix(0.250297 0.479409 0.47941 -0.250297 1265.5 1337.56)" rx="9.14174" ry="69.5315"/>
   <ellipse id="_381208288" class="fil9" transform="matrix(-0.250297 -0.479409 -0.47941 0.250297 783.489 712.565)" rx="9.14174" ry="69.5315"/>
   <ellipse id="_381204832" class="fil9" transform="matrix(-0.250297 0.479409 -0.47941 -0.250297 783.489 1337.56)" rx="9.14174" ry="69.5315"/>
   <ellipse id="_381200104" class="fil9" transform="matrix(0.250297 -0.479409 0.47941 0.250297 1293.23 652.818)" rx="9.14174" ry="69.5315"/>
   <ellipse id="_381198256" class="fil9" transform="matrix(0.250297 0.479409 0.47941 -0.250297 1293.23 1397.31)" rx="9.14174" ry="69.5315"/>
   <ellipse id="_381208432" class="fil9" transform="matrix(-0.250297 -0.479409 -0.47941 0.250297 755.751 652.818)" rx="9.14174" ry="69.5315"/>
   <ellipse id="_381181360" class="fil9" transform="matrix(-0.250297 0.479409 -0.47941 -0.250297 755.751 1397.31)" rx="9.14174" ry="69.5315"/>
   <ellipse id="_381206560" class="fil9" transform="matrix(0.250297 -0.479409 0.47941 0.250297 1298.57 601.542)" rx="9.14174" ry="69.5315"/>
   <ellipse id="_381200320" class="fil9" transform="matrix(0.250297 0.479409 0.47941 -0.250297 1298.57 1448.58)" rx="9.14174" ry="69.5315"/>
   <ellipse id="_381208768" class="fil9" transform="matrix(-0.250297 -0.479409 -0.47941 0.250297 750.414 601.542)" rx="9.14174" ry="69.5315"/>
   <ellipse id="_381203272" class="fil9" transform="matrix(-0.250297 0.479409 -0.47941 -0.250297 750.414 1448.58)" rx="9.14174" ry="69.5315"/>
  </g>
 </g>
</svg>
