<?xml version="1.0" encoding="UTF-8"?>
<!DOCTYPE svg PUBLIC "-//W3C//DTD SVG 1.1//EN" "http://www.w3.org/Graphics/SVG/1.1/DTD/svg11.dtd">
<!-- Creator: CorelDRAW -->
<svg xmlns="http://www.w3.org/2000/svg" xml:space="preserve" width="2048px" height="2048px" style="shape-rendering:geometricPrecision; text-rendering:geometricPrecision; image-rendering:optimizeQuality; fill-rule:evenodd; clip-rule:evenodd"
viewBox="0 0 2048 2048"
 xmlns:xlink="http://www.w3.org/1999/xlink"
 xmlns:svg="http://www.w3.org/2000/svg"
 version="1.0">
 <defs>
  <style type="text/css">
   <![CDATA[
    .fil2 {fill:none}
    .fil7 {fill:#212121}
    .fil4 {fill:#424242}
    .fil1 {fill:#43A047}
    .fil6 {fill:#555555}
    .fil0 {fill:#81C784}
    .fil5 {fill:#A7A7A7}
    .fil3 {fill:#CECECE}
   ]]>
  </style>
   <clipPath id="id0">
    <path d="M1024 0c565.539,0 1024,458.461 1024,1024 0,565.539 -458.461,1024 -1024,1024 -565.539,0 -1024,-458.461 -1024,-1024 0,-565.539 458.461,-1024 1024,-1024z"/>
   </clipPath>
 </defs>
 <g id="Layer_x0020_1">
  <metadata id="CorelCorpID_0Corel-Layer"/>
  <path class="fil0" d="M1024 0c565.539,0 1024,458.461 1024,1024 0,565.539 -458.461,1024 -1024,1024 -565.539,0 -1024,-458.461 -1024,-1024 0,-565.539 458.461,-1024 1024,-1024z"/>
  <g style="clip-path:url(#id0)">
   <g id="_478206976">
    <g>
     <polygon id="_3796459041" class="fil1" points="1156.74,686.45 2292.63,1822.33 2293.68,1823.63 2294.63,1825.01 2295.52,1826.45 2296.37,1827.92 2297.2,1829.41 2298.02,1830.87 2298.88,1832.29 2299.79,1833.65 2300.77,1834.9 1164.89,699.022 1163.91,697.764 1163,696.41 1162.14,694.988 1161.32,693.524 1160.49,692.04 1159.64,690.566 1158.75,689.125 1157.8,687.745 "/>
     <polygon id="_379651904" class="fil1" points="1179.67,740.732 2315.55,1876.61 2315.83,1878.34 2315.82,1879.99 2315.57,1881.57 2315.12,1883.09 2314.52,1884.56 2313.82,1885.98 2313.05,1887.38 2312.26,1888.75 2311.49,1890.11 2310.79,1891.46 2310.21,1892.83 2309.78,1894.2 2309.55,1895.61 2309.56,1897.05 2309.86,1898.54 2310.49,1900.08 1174.61,764.199 1173.98,762.656 1173.68,761.169 1173.66,759.728 1173.89,758.323 1174.33,756.943 1174.91,755.58 1175.61,754.224 1176.38,752.865 1177.17,751.493 1177.94,750.1 1178.64,748.675 1179.24,747.208 1179.68,745.69 1179.93,744.112 1179.94,742.462 "/>
     <polygon id="_379651664" class="fil1" points="1174.61,764.199 2310.49,1900.08 2310.93,1901.77 2311.12,1903.48 2311.11,1905.22 2310.94,1906.98 2310.65,1908.74 2310.28,1910.5 2309.89,1912.25 2309.5,1913.99 2309.15,1915.69 2308.9,1917.37 2308.78,1918.99 2308.84,1920.57 2309.11,1922.09 2309.64,1923.54 2310.47,1924.91 2311.64,1926.19 1175.76,790.31 1174.59,789.024 1173.76,787.653 1173.23,786.205 1172.96,784.688 1172.9,783.112 1173.02,781.483 1173.27,779.812 1173.61,778.105 1174,776.371 1174.4,774.621 1174.77,772.858 1175.05,771.096 1175.22,769.34 1175.24,767.6 1175.04,765.883 "/>
     <polygon id="_379649936" class="fil1" points="1175.76,790.31 2311.64,1926.19 2311.91,1927.16 2312.23,1928.08 2312.59,1928.95 2312.99,1929.8 2313.43,1930.6 2313.9,1931.37 2314.41,1932.1 2314.95,1932.81 1179.07,796.923 1178.53,796.22 1178.02,795.484 1177.55,794.716 1177.11,793.913 1176.71,793.072 1176.35,792.193 1176.03,791.273 "/>
     <polygon id="_379625624" class="fil1" points="1179.07,796.923 2314.95,1932.81 2316.07,1934.08 1180.19,798.193 "/>
     <polygon id="_379638992" class="fil1" points="1199.91,812.747 2335.79,1948.63 2336.95,1950 1201.07,814.12 "/>
     <polygon id="_379639448" class="fil1" points="1240.05,831.509 2375.93,1967.39 2377.73,1969.43 2379.45,1971.54 2381.11,1973.7 2382.7,1975.91 2384.2,1978.17 2385.63,1980.48 2386.96,1982.84 2388.22,1985.24 2389.37,1987.68 2390.44,1990.15 1254.55,854.267 1253.49,851.794 1252.33,849.357 1251.08,846.959 1249.74,844.602 1248.32,842.29 1246.81,840.027 1245.23,837.813 1243.57,835.654 1241.85,833.552 "/>
     <polygon id="_379624568" class="fil1" points="1261.77,861.204 2397.65,1997.09 2399.01,1998.57 2400.32,2000.08 2401.58,2001.64 2402.77,2003.23 2403.9,2004.87 2404.95,2006.55 2405.92,2008.28 2406.81,2010.05 2407.59,2011.88 2408.27,2013.76 2408.84,2015.69 1272.96,879.803 1272.39,877.873 1271.71,875.996 1270.92,874.171 1270.04,872.396 1269.07,870.669 1268.02,868.988 1266.89,867.351 1265.69,865.757 1264.44,864.201 1263.13,862.685 "/>
     <polygon id="_379647608" class="fil1" points="1272.96,879.803 2408.84,2015.69 2409.04,2017.36 2409.33,2018.98 2409.7,2020.56 2410.15,2022.1 2410.67,2023.59 2411.26,2025.05 2411.92,2026.47 2412.64,2027.86 2413.41,2029.22 2414.24,2030.56 2415.11,2031.87 2416.02,2033.16 2416.96,2034.44 2417.94,2035.7 2418.94,2036.94 2419.97,2038.18 2421.01,2039.41 2422.06,2040.64 2423.13,2041.87 2424.19,2043.1 2425.25,2044.33 2426.31,2045.58 2427.35,2046.83 2428.37,2048.09 2429.38,2049.38 2430.36,2050.68 2431.31,2052 2432.22,2053.35 2433.09,2054.73 2433.91,2056.14 2434.69,2057.58 2435.41,2059.05 1299.53,923.169 1298.81,921.693 1298.03,920.253 1297.21,918.846 1296.34,917.47 1295.42,916.122 1294.48,914.798 1293.5,913.496 1292.49,912.212 1291.47,910.946 1290.43,909.693 1289.37,908.45 1288.31,907.216 1287.24,905.987 1286.18,904.759 1285.13,903.531 1284.09,902.299 1283.06,901.061 1282.06,899.814 1281.08,898.555 1280.14,897.281 1279.23,895.988 1278.36,894.676 1277.53,893.34 1276.76,891.979 1276.04,890.588 1275.38,889.165 1274.79,887.708 1274.27,886.214 1273.82,884.678 1273.45,883.1 1273.16,881.476 "/>
     <polygon id="_379637120" class="fil1" points="1299.53,923.169 2435.41,2059.05 2435.76,2060.3 2436.1,2061.55 2436.45,2062.8 2436.81,2064.05 2437.16,2065.3 2437.53,2066.54 2437.89,2067.79 2438.26,2069.04 2438.64,2070.28 2439.02,2071.52 2439.41,2072.76 2439.81,2073.99 2440.21,2075.22 2440.61,2076.46 2441.03,2077.68 2441.45,2078.9 2441.87,2080.12 2442.31,2081.34 2442.75,2082.55 2443.2,2083.76 2443.66,2084.96 2444.13,2086.16 2444.61,2087.35 2445.09,2088.54 2445.59,2089.72 2446.09,2090.9 2446.61,2092.07 2447.13,2093.23 2447.67,2094.39 2448.21,2095.54 2448.77,2096.68 2449.33,2097.82 1313.45,961.935 1312.88,960.799 1312.33,959.656 1311.78,958.505 1311.25,957.349 1310.72,956.186 1310.21,955.015 1309.71,953.839 1309.21,952.658 1308.73,951.471 1308.25,950.278 1307.78,949.08 1307.32,947.877 1306.87,946.67 1306.43,945.458 1305.99,944.242 1305.57,943.022 1305.15,941.799 1304.73,940.573 1304.33,939.342 1303.93,938.109 1303.53,936.874 1303.14,935.636 1302.76,934.394 1302.38,933.153 1302.01,931.908 1301.64,930.662 1301.28,929.416 1300.92,928.168 1300.57,926.918 1300.22,925.668 1299.87,924.419 "/>
     <polygon id="_379627328" class="fil1" points="1313.45,961.935 2449.33,2097.82 2450.26,2099.32 2451.22,2100.83 2452.22,2102.35 2453.24,2103.87 2454.29,2105.4 2455.34,2106.93 2456.41,2108.46 2457.48,2110 2458.54,2111.54 2459.59,2113.09 2460.62,2114.64 2461.63,2116.19 2462.62,2117.75 2463.56,2119.31 2464.47,2120.87 2465.32,2122.43 1329.44,986.551 1328.58,984.987 1327.68,983.427 1326.73,981.868 1325.75,980.311 1324.74,978.759 1323.71,977.208 1322.66,975.662 1321.59,974.118 1320.53,972.579 1319.46,971.045 1318.4,969.515 1317.36,967.989 1316.34,966.467 1315.34,964.952 1314.38,963.44 "/>
     <polygon id="_379648472" class="fil1" points="1329.44,986.551 2465.32,2122.43 2466.08,2123.77 2466.85,2125.11 2467.65,2126.45 2468.46,2127.79 2469.29,2129.12 2470.13,2130.46 2470.98,2131.79 2471.83,2133.13 2472.7,2134.47 2473.56,2135.81 2474.42,2137.15 2475.28,2138.49 2476.14,2139.84 2476.99,2141.2 2477.83,2142.56 2478.66,2143.92 2479.47,2145.29 2480.27,2146.67 2481.05,2148.06 2481.81,2149.45 2482.54,2150.86 2483.24,2152.27 2483.92,2153.7 2484.57,2155.13 2485.18,2156.58 2485.76,2158.03 2486.3,2159.5 2486.79,2160.99 2487.25,2162.48 2487.66,2164 2488.02,2165.52 2488.33,2167.07 1352.45,1031.18 1352.14,1029.64 1351.78,1028.11 1351.37,1026.6 1350.91,1025.1 1350.41,1023.62 1349.88,1022.15 1349.3,1020.69 1348.69,1019.25 1348.04,1017.81 1347.36,1016.39 1346.66,1014.98 1345.92,1013.57 1345.17,1012.18 1344.39,1010.79 1343.59,1009.41 1342.78,1008.04 1341.95,1006.67 1341.11,1005.31 1340.26,1003.96 1339.4,1002.61 1338.54,1001.26 1337.68,999.923 1336.81,998.583 1335.95,997.246 1335.1,995.91 1334.25,994.575 1333.41,993.241 1332.58,991.906 1331.77,990.57 1330.97,989.232 1330.19,987.892 "/>
     <polygon id="_379636928" class="fil1" points="1352.45,1031.18 2488.33,2167.07 2489.21,2168.54 2489.97,2170.08 2490.62,2171.68 2491.19,2173.32 2491.69,2175 2492.15,2176.69 2492.59,2178.39 2493.02,2180.09 2493.47,2181.77 2493.96,2183.42 2494.5,2185.04 2495.12,2186.61 2495.84,2188.11 2496.68,2189.55 2497.66,2190.89 2498.8,2192.14 1362.91,1056.26 1361.78,1055.01 1360.8,1053.66 1359.96,1052.23 1359.24,1050.73 1358.62,1049.16 1358.07,1047.54 1357.59,1045.89 1357.14,1044.2 1356.71,1042.51 1356.27,1040.81 1355.81,1039.11 1355.31,1037.44 1354.74,1035.8 1354.09,1034.2 1353.33,1032.66 "/>
     <polygon id="_379652384" class="fil1" points="1362.91,1056.26 2498.8,2192.14 2499.48,2193.52 2500.13,2194.93 2500.75,2196.36 2501.34,2197.8 2501.91,2199.27 2502.45,2200.75 2502.97,2202.24 2503.48,2203.75 2503.97,2205.26 2504.46,2206.78 2504.93,2208.31 2505.41,2209.83 2505.88,2211.36 2506.36,2212.89 2506.85,2214.41 2507.34,2215.93 2507.85,2217.44 2508.37,2218.93 2508.92,2220.42 2509.49,2221.89 2510.08,2223.34 2510.7,2224.77 2511.36,2226.19 2512.05,2227.57 2512.78,2228.94 2513.55,2230.27 2514.37,2231.58 2515.24,2232.85 2516.16,2234.09 2517.14,2235.29 2518.17,2236.46 1382.29,1100.57 1381.26,1099.41 1380.28,1098.21 1379.36,1096.97 1378.49,1095.7 1377.67,1094.39 1376.9,1093.06 1376.17,1091.69 1375.48,1090.3 1374.82,1088.89 1374.2,1087.46 1373.6,1086.01 1373.04,1084.54 1372.49,1083.05 1371.97,1081.55 1371.46,1080.05 1370.97,1078.53 1370.48,1077.01 1370,1075.48 1369.53,1073.95 1369.05,1072.42 1368.58,1070.9 1368.09,1069.38 1367.6,1067.86 1367.09,1066.36 1366.57,1064.87 1366.03,1063.39 1365.46,1061.92 1364.87,1060.47 1364.25,1059.05 1363.6,1057.64 "/>
     <polygon id="_379641920" class="fil1" points="1235.12,959.749 2371,2095.63 2370.36,2097.76 2369.67,2099.9 2368.95,2102.05 2368.23,2104.21 2367.53,2106.38 2366.88,2108.56 2366.32,2110.74 2365.87,2112.92 2365.55,2115.1 2365.4,2117.28 2365.44,2119.45 2365.7,2121.62 2366.21,2123.77 2366.99,2125.91 2368.08,2128.03 2369.5,2130.14 1233.62,994.259 1232.2,992.152 1231.11,990.027 1230.33,987.887 1229.82,985.733 1229.56,983.571 1229.52,981.4 1229.67,979.222 1229.99,977.042 1230.44,974.86 1231,972.68 1231.65,970.502 1232.34,968.331 1233.07,966.167 1233.79,964.014 1234.48,961.874 "/>
     <polygon id="_379640216" class="fil1" points="1233.62,994.259 2369.5,2130.14 2370.38,2135.51 2371.3,2140.57 2372.27,2145.33 2373.27,2149.81 2374.31,2154.02 2375.38,2158 2376.49,2161.74 2377.63,2165.28 2378.79,2168.63 2379.99,2171.8 2381.2,2174.82 2382.45,2177.69 2383.71,2180.45 2385,2183.1 2386.3,2185.67 2387.62,2188.17 2388.95,2190.62 2390.3,2193.03 2391.65,2195.43 2393.02,2197.83 2394.39,2200.25 2395.77,2202.71 2397.15,2205.22 2398.53,2207.81 2399.91,2210.48 2401.29,2213.27 2402.67,2216.17 2404.04,2219.23 2405.4,2222.44 2406.75,2225.82 2408.09,2229.41 2409.42,2233.21 1273.54,1097.32 1272.21,1093.53 1270.87,1089.94 1269.52,1086.55 1268.16,1083.34 1266.79,1080.29 1265.41,1077.38 1264.03,1074.6 1262.65,1071.93 1261.27,1069.34 1259.89,1066.83 1258.51,1064.37 1257.14,1061.95 1255.77,1059.55 1254.42,1057.15 1253.07,1054.73 1251.74,1052.29 1250.42,1049.79 1249.12,1047.22 1247.83,1044.57 1246.57,1041.81 1245.32,1038.93 1244.1,1035.92 1242.91,1032.74 1241.74,1029.4 1240.61,1025.86 1239.5,1022.11 1238.43,1018.14 1237.39,1013.92 1236.39,1009.44 1235.42,1004.68 1234.5,999.629 "/>
     <polygon id="_379623752" class="fil1" points="1381.32,1166.69 2517.2,2302.57 2516.03,2302.08 2514.86,2301.58 2513.71,2301.08 2512.57,2300.58 2511.43,2300.07 2510.3,2299.55 2509.18,2299.03 2508.06,2298.5 2506.95,2297.96 2505.83,2297.41 2504.72,2296.86 2503.61,2296.3 2502.5,2295.72 2501.38,2295.14 2500.26,2294.55 2499.14,2293.94 1363.26,1158.06 1364.38,1158.67 1365.5,1159.26 1366.62,1159.84 1367.73,1160.41 1368.84,1160.98 1369.95,1161.53 1371.07,1162.08 1372.18,1162.61 1373.3,1163.14 1374.42,1163.67 1375.55,1164.18 1376.69,1164.69 1377.83,1165.2 1378.98,1165.7 1380.14,1166.2 "/>
     <polygon id="_379639304" class="fil1" points="1317.94,1089.85 2453.82,2225.73 2452.06,2224.06 2450.37,2222.33 1314.49,1086.45 1316.18,1088.18 "/>
     <polygon id="_379636064" class="fil1" points="1321.19,1092.82 2457.07,2228.71 2455.5,2227.19 2453.82,2225.73 1317.94,1089.85 1319.62,1091.3 "/>
     <polygon id="_379642880" class="fil1" points="1258.7,985.632 2394.58,2121.51 2392.83,2120.16 2391.15,2118.75 2389.52,2117.29 2387.95,2115.78 2386.43,2114.22 1250.55,978.341 1252.07,979.896 1253.64,981.407 1255.27,982.87 1256.95,984.281 "/>
     <polygon id="_379639616" class="fil1" points="1388.8,1105.64 2524.68,2241.52 2526.08,2243.08 2527.29,2244.74 2528.32,2246.5 2529.2,2248.33 2529.93,2250.24 2530.52,2252.21 2530.99,2254.23 2531.35,2256.29 2531.61,2258.37 2531.79,2260.48 2531.89,2262.59 2531.93,2264.7 2531.92,2266.79 1396.04,1130.91 1396.05,1128.82 1396.01,1126.71 1395.9,1124.6 1395.73,1122.49 1395.47,1120.4 1395.11,1118.35 1394.64,1116.33 1394.05,1114.36 1393.32,1112.45 1392.44,1110.61 1391.41,1108.86 1390.2,1107.2 "/>
     <polygon id="_379643504" class="fil1" points="1396.04,1130.91 2531.92,2266.79 2532.19,2269.24 2532.41,2271.86 2532.57,2274.61 2532.64,2277.46 2532.6,2280.35 2532.41,2283.24 2532.06,2286.09 2531.51,2288.86 2530.75,2291.49 2529.75,2293.95 2528.47,2296.19 2526.91,2298.17 2525.02,2299.84 2522.79,2301.16 2520.19,2302.08 2517.2,2302.57 1381.32,1166.69 1384.31,1166.2 1386.91,1165.28 1389.14,1163.96 1391.03,1162.28 1392.59,1160.31 1393.87,1158.07 1394.87,1155.61 1395.63,1152.97 1396.18,1150.21 1396.53,1147.36 1396.72,1144.47 1396.76,1141.58 1396.69,1138.73 1396.53,1135.98 1396.31,1133.35 "/>
     <polygon id="_379622336" class="fil1" points="1273.54,1097.32 2409.42,2233.21 2409.48,2233.58 2409.55,2233.95 2409.61,2234.33 2409.68,2234.7 2409.74,2235.07 2409.81,2235.45 2409.88,2235.82 2409.95,2236.19 1274.07,1100.31 1274,1099.94 1273.93,1099.56 1273.86,1099.19 1273.8,1098.82 1273.73,1098.44 1273.67,1098.07 1273.6,1097.7 "/>
     <polygon id="_379622288" class="fil1" points="1274.07,1100.31 2409.95,2236.19 2410.11,2237.04 2410.28,2237.89 2410.46,2238.73 2410.64,2239.58 2410.83,2240.42 2411.03,2241.25 2411.24,2242.09 2411.46,2242.92 2411.69,2243.74 2411.93,2244.56 2412.19,2245.38 2412.45,2246.18 2412.73,2246.99 2413.03,2247.78 2413.34,2248.57 2413.66,2249.35 1277.78,1113.46 1277.46,1112.68 1277.15,1111.9 1276.85,1111.1 1276.57,1110.3 1276.31,1109.49 1276.05,1108.68 1275.81,1107.86 1275.58,1107.04 1275.36,1106.2 1275.15,1105.37 1274.95,1104.53 1274.76,1103.69 1274.58,1102.85 1274.4,1102.01 1274.23,1101.16 "/>
     <polygon id="_379620992" class="fil1" points="1277.78,1113.46 2413.66,2249.35 2414.15,2250.43 2414.67,2251.49 2415.22,2252.54 2415.82,2253.56 2416.45,2254.56 2417.12,2255.54 2417.84,2256.49 2418.6,2257.42 2419.41,2258.31 1283.53,1122.43 1282.72,1121.53 1281.96,1120.61 1281.24,1119.66 1280.57,1118.68 1279.94,1117.68 1279.34,1116.66 1278.79,1115.61 1278.27,1114.55 "/>
     <polygon id="_379638056" class="fil1" points="1290.68,1127.81 2426.56,2263.69 2428.24,2265.7 2429.93,2267.71 2431.63,2269.72 2433.33,2271.72 2435.05,2273.73 2436.77,2275.73 2438.49,2277.73 2440.23,2279.73 2441.96,2281.73 2443.71,2283.72 2445.46,2285.72 2447.21,2287.71 2448.97,2289.69 2450.74,2291.68 2452.51,2293.66 2454.29,2295.64 2456.06,2297.61 2457.85,2299.58 2459.64,2301.55 2461.43,2303.52 2463.22,2305.48 2465.02,2307.43 2466.82,2309.38 2468.63,2311.33 2470.44,2313.27 2472.25,2315.21 2474.06,2317.14 2475.87,2319.07 2477.69,2320.99 2479.51,2322.91 2481.33,2324.82 2483.15,2326.73 1347.27,1190.84 1345.45,1188.94 1343.63,1187.03 1341.81,1185.11 1339.99,1183.19 1338.18,1181.26 1336.37,1179.33 1334.56,1177.39 1332.75,1175.45 1330.94,1173.5 1329.14,1171.55 1327.34,1169.59 1325.55,1167.63 1323.75,1165.67 1321.97,1163.7 1320.18,1161.73 1318.4,1159.76 1316.63,1157.78 1314.86,1155.8 1313.09,1153.81 1311.33,1151.82 1309.58,1149.83 1307.83,1147.84 1306.08,1145.84 1304.34,1143.85 1302.61,1141.85 1300.89,1139.85 1299.17,1137.84 1297.45,1135.84 1295.75,1133.83 1294.05,1131.83 1292.36,1129.82 "/>
     <polygon id="_379644656" class="fil1" points="1365.75,1199.52 2501.64,2335.4 2502.94,2336.82 2504.16,2338.32 2505.27,2339.9 2506.29,2341.56 2507.19,2343.29 1371.31,1207.41 1370.41,1205.68 1369.39,1204.02 1368.28,1202.44 1367.06,1200.94 "/>
     <polygon id="_379634144" class="fil1" points="1397.88,1219.26 2533.76,2355.14 2536.39,2357.9 1400.51,1222.02 "/>
     <polygon id="_379623848" class="fil1" points="1469.31,1287.98 2605.19,2423.86 2608.08,2426.88 2611.01,2429.99 2613.98,2433.2 2616.99,2436.5 2620.04,2439.92 1484.15,1304.03 1481.11,1300.62 1478.1,1297.32 1475.13,1294.11 1472.2,1291 "/>
     <polygon id="_379623056" class="fil1" points="1490.95,1309.53 2626.83,2445.42 2628.74,2447.56 2630.53,2449.81 2632.23,2452.15 2633.86,2454.54 2635.46,2456.96 2637.06,2459.39 2638.69,2461.79 2640.38,2464.13 2642.16,2466.4 2644.06,2468.57 1508.18,1332.68 1506.28,1330.52 1504.5,1328.25 1502.81,1325.9 1501.18,1323.5 1499.58,1321.08 1497.98,1318.66 1496.34,1316.27 1494.65,1313.93 1492.86,1311.68 "/>
     <polygon id="_379633832" class="fil1" points="1531.44,1343.52 2667.32,2479.4 2668.51,2480.7 2669.65,2482.07 2670.73,2483.5 2671.75,2484.98 2672.72,2486.49 2673.64,2488 1537.76,1352.12 1536.84,1350.6 1535.87,1349.1 1534.84,1347.62 1533.77,1346.19 1532.63,1344.81 "/>
     <polygon id="_379652360" class="fil1" points="1543.19,1356.25 2679.07,2492.13 2680.13,2493.38 2681.13,2494.68 2682.07,2496.01 2682.99,2497.36 2683.9,2498.71 2684.84,2500.03 2685.82,2501.32 2686.86,2502.55 1550.98,1366.66 1549.94,1365.44 1548.96,1364.15 1548.02,1362.83 1547.11,1361.48 1546.19,1360.13 1545.25,1358.8 1544.25,1357.5 "/>
     <polygon id="_379625360" class="fil1" points="1576.04,1385.48 2711.92,2521.36 2713.73,2523.46 2715.37,2525.68 2716.79,2528.03 2717.99,2530.51 2718.92,2533.14 2719.56,2535.91 2719.88,2538.84 1584,1402.96 1583.68,1400.03 1583.04,1397.26 1582.11,1394.63 1580.91,1392.15 1579.48,1389.8 1577.85,1387.58 "/>
     <polygon id="_379626248" class="fil1" points="1042.56,889.12 2178.44,2025 2176,2023.93 2173.45,2023.66 2170.79,2024.13 2168.02,2025.29 2165.16,2027.09 2162.2,2029.47 2159.17,2032.39 2156.06,2035.78 2152.89,2039.6 2149.65,2043.78 2146.36,2048.28 2143.03,2053.04 2139.65,2058.01 2136.24,2063.13 2132.81,2068.36 2129.36,2073.63 2125.9,2078.89 2122.44,2084.1 2118.98,2089.19 2115.53,2094.11 2112.1,2098.81 2108.69,2103.24 2105.32,2107.34 2101.98,2111.05 2098.7,2114.33 2095.46,2117.11 2092.29,2119.36 2089.18,2121.01 2086.15,2122 2083.2,2122.29 2080.34,2121.82 2077.58,2120.54 941.697,984.662 944.461,985.942 947.32,986.41 950.268,986.118 953.3,985.124 956.405,983.476 959.58,981.232 962.814,978.445 966.102,975.166 969.437,971.453 972.811,967.355 976.217,962.93 979.648,958.229 983.097,953.306 986.557,948.216 990.021,943.012 993.48,937.746 996.93,932.475 1000.36,927.251 1003.77,922.127 1007.14,917.157 1010.48,912.396 1013.77,907.898 1017.01,903.713 1020.18,899.899 1023.29,896.507 1026.32,893.592 1029.27,891.207 1032.14,889.407 1034.9,888.245 1037.57,887.774 1040.12,888.048 "/>
     <polygon id="_379628696" class="fil1" points="1479.26,1374.09 2615.14,2509.98 2612.98,2507.78 2610.81,2505.59 2608.63,2503.41 2606.43,2501.25 2604.21,2499.09 1468.33,1363.21 1470.55,1365.36 1472.74,1367.53 1474.93,1369.71 1477.1,1371.9 "/>
     <polygon id="_379633784" class="fil1" points="1468.33,1363.21 2604.21,2499.09 2602.78,2497.71 2601.34,2496.33 2599.89,2494.95 2598.43,2493.58 2596.98,2492.21 2595.52,2490.85 2594.05,2489.5 2592.58,2488.15 2591.11,2486.8 2589.63,2485.46 2588.15,2484.13 2586.66,2482.8 2585.18,2481.47 2583.69,2480.15 2582.19,2478.84 2580.7,2477.53 1444.82,1341.65 1446.31,1342.96 1447.8,1344.27 1449.3,1345.59 1450.78,1346.91 1452.27,1348.24 1453.75,1349.58 1455.23,1350.92 1456.7,1352.27 1458.17,1353.62 1459.63,1354.97 1461.1,1356.33 1462.55,1357.7 1464.01,1359.07 1465.45,1360.44 1466.9,1361.83 "/>
     <polygon id="_379630352" class="fil1" points="1399.05,1310.4 2534.93,2446.29 2533.6,2445.1 2531.88,2443.74 2529.8,2442.21 2527.38,2440.52 2524.64,2438.69 2521.6,2436.73 2518.31,2434.65 2514.77,2432.47 2511.02,2430.19 2507.07,2427.84 2502.97,2425.42 2498.72,2422.95 2494.36,2420.43 2489.91,2417.88 2485.4,2415.32 2480.84,2412.76 2476.28,2410.2 2471.72,2407.67 2467.2,2405.17 2462.75,2402.71 2458.38,2400.32 2454.13,2397.99 2450.01,2395.75 2446.06,2393.61 2442.29,2391.58 2438.74,2389.67 2435.42,2387.9 2432.37,2386.27 2429.61,2384.8 2427.17,2383.51 2425.06,2382.4 1289.18,1246.52 1291.29,1247.63 1293.73,1248.92 1296.49,1250.39 1299.54,1252.02 1302.86,1253.79 1306.41,1255.7 1310.17,1257.73 1314.13,1259.87 1318.25,1262.11 1322.5,1264.43 1326.87,1266.83 1331.32,1269.28 1335.84,1271.78 1340.4,1274.32 1344.96,1276.88 1349.51,1279.44 1354.03,1282 1358.48,1284.55 1362.84,1287.06 1367.09,1289.54 1371.19,1291.96 1375.14,1294.31 1378.89,1296.59 1382.43,1298.77 1385.72,1300.84 1388.75,1302.81 1391.5,1304.63 1393.92,1306.32 1396,1307.85 1397.72,1309.22 "/>
     <polygon id="_379626440" class="fil1" points="1444.82,1341.65 2580.7,2477.53 2579.23,2476.67 2577.78,2475.78 2576.34,2474.88 2574.91,2473.96 2573.49,2473.02 2572.08,2472.07 2570.68,2471.11 2569.28,2470.13 2567.89,2469.15 2566.5,2468.16 2565.12,2467.16 2563.75,2466.16 2562.37,2465.15 2561,2464.14 2559.63,2463.13 2558.26,2462.12 2556.9,2461.11 2555.53,2460.11 2554.16,2459.11 2552.78,2458.12 2551.41,2457.14 2550.03,2456.16 2548.64,2455.2 2547.25,2454.25 2545.85,2453.31 2544.45,2452.39 2543.04,2451.49 2541.62,2450.61 2540.19,2449.74 2538.75,2448.9 2537.3,2448.08 2535.83,2447.28 1399.95,1311.4 1401.42,1312.19 1402.87,1313.01 1404.31,1313.86 1405.74,1314.72 1407.16,1315.61 1408.57,1316.51 1409.97,1317.43 1411.37,1318.37 1412.76,1319.32 1414.14,1320.28 1415.53,1321.26 1416.9,1322.24 1418.27,1323.23 1419.65,1324.23 1421.01,1325.23 1422.38,1326.24 1423.75,1327.25 1425.12,1328.26 1426.49,1329.27 1427.87,1330.28 1429.24,1331.28 1430.62,1332.28 1432.01,1333.27 1433.4,1334.25 1434.8,1335.23 1436.2,1336.19 1437.61,1337.14 1439.03,1338.07 1440.46,1338.99 1441.9,1339.9 1443.35,1340.78 "/>
     <polygon id="_379641128" class="fil1" points="1548.92,1415.73 2684.8,2551.61 2683.73,2552.14 2682.64,2552.65 2681.54,2553.13 2680.41,2553.58 2679.27,2554 2678.1,2554.39 2676.93,2554.75 2675.74,2555.08 2674.54,2555.38 2673.32,2555.65 2672.1,2555.89 2670.87,2556.09 2669.64,2556.26 2668.4,2556.4 2667.15,2556.51 2665.91,2556.58 2664.66,2556.62 2663.41,2556.62 2662.17,2556.59 2660.93,2556.52 2659.69,2556.41 2658.46,2556.27 2657.24,2556.1 2656.03,2555.88 2654.83,2555.63 2653.64,2555.34 2652.47,2555.01 2651.3,2554.64 2650.16,2554.23 2649.03,2553.78 2647.92,2553.29 2646.84,2552.76 1510.96,1416.88 1512.04,1417.41 1513.15,1417.9 1514.28,1418.35 1515.42,1418.76 1516.58,1419.12 1517.76,1419.45 1518.95,1419.75 1520.15,1420 1521.36,1420.21 1522.58,1420.39 1523.81,1420.53 1525.05,1420.64 1526.29,1420.71 1527.53,1420.74 1528.78,1420.73 1530.03,1420.7 1531.27,1420.63 1532.52,1420.52 1533.76,1420.38 1534.99,1420.21 1536.22,1420.01 1537.44,1419.77 1538.66,1419.5 1539.86,1419.2 1541.05,1418.87 1542.22,1418.51 1543.38,1418.12 1544.53,1417.7 1545.66,1417.25 1546.76,1416.77 1547.85,1416.26 "/>
     <polygon id="_379632632" class="fil1" points="1289.18,1246.52 2425.06,2382.4 2422.63,2381 2420.2,2379.6 2417.78,2378.2 2415.37,2376.8 2412.96,2375.41 2410.57,2374.01 2408.17,2372.61 2405.79,2371.22 2403.4,2369.82 2401.03,2368.43 2398.65,2367.03 2396.28,2365.63 2393.92,2364.23 2391.56,2362.83 2389.2,2361.43 2386.84,2360.03 2384.49,2358.62 2382.13,2357.22 2379.78,2355.81 2377.43,2354.39 2375.08,2352.98 2372.73,2351.56 2370.38,2350.14 2368.03,2348.72 2365.68,2347.29 2363.32,2345.86 2360.97,2344.43 2358.61,2342.99 2356.24,2341.55 2353.88,2340.1 2351.51,2338.65 2349.14,2337.2 1213.26,1201.31 1215.63,1202.77 1218,1204.22 1220.36,1205.67 1222.73,1207.11 1225.08,1208.55 1227.44,1209.98 1229.79,1211.41 1232.15,1212.84 1234.5,1214.26 1236.85,1215.68 1239.2,1217.1 1241.55,1218.51 1243.9,1219.92 1246.25,1221.33 1248.61,1222.74 1250.96,1224.14 1253.32,1225.55 1255.68,1226.95 1258.04,1228.35 1260.4,1229.75 1262.77,1231.15 1265.14,1232.54 1267.52,1233.94 1269.9,1235.33 1272.29,1236.73 1274.68,1238.13 1277.08,1239.52 1279.49,1240.92 1281.9,1242.32 1284.32,1243.72 1286.75,1245.12 "/>
     <polygon id="_379624328" class="fil1" points="1213.26,1201.31 2349.14,2337.2 2347.02,2336.6 2344.92,2335.94 2342.83,2335.22 2340.76,2334.45 2338.7,2333.63 2336.65,2332.76 2334.6,2331.87 2332.56,2330.94 2330.53,2329.99 2328.5,2329.02 2326.48,2328.05 2324.45,2327.07 2322.42,2326.1 2320.39,2325.14 2318.36,2324.19 2316.32,2323.27 2314.27,2322.38 2312.21,2321.52 2310.15,2320.71 2308.07,2319.94 2305.98,2319.23 2303.87,2318.58 2301.75,2318.01 2299.6,2317.5 2297.44,2317.08 2295.26,2316.75 2293.05,2316.51 2290.82,2316.37 2288.56,2316.34 2286.28,2316.42 2283.96,2316.62 2281.62,2316.95 1145.74,1181.07 1148.08,1180.74 1150.4,1180.54 1152.68,1180.45 1154.94,1180.49 1157.17,1180.62 1159.38,1180.86 1161.56,1181.2 1163.72,1181.62 1165.86,1182.12 1167.99,1182.7 1170.1,1183.35 1172.19,1184.06 1174.27,1184.82 1176.33,1185.64 1178.39,1186.49 1180.44,1187.39 1182.48,1188.31 1184.51,1189.26 1186.54,1190.22 1188.57,1191.19 1190.59,1192.17 1192.62,1193.14 1194.65,1194.11 1196.68,1195.06 1198.72,1195.98 1200.76,1196.88 1202.82,1197.75 1204.88,1198.57 1206.95,1199.34 1209.04,1200.06 1211.14,1200.72 "/>
     <polygon id="_379627760" class="fil1" points="941.697,984.662 2077.58,2120.54 2077.25,2120.52 2076.92,2120.49 2076.59,2120.46 2076.25,2120.42 2075.92,2120.38 2075.57,2120.34 2075.23,2120.3 2074.88,2120.25 939.001,984.366 939.349,984.414 939.693,984.46 940.035,984.502 940.373,984.541 940.71,984.576 941.042,984.608 941.371,984.636 "/>
     <polygon id="_379651064" class="fil1" points="464.192,615.543 1600.07,1751.42 1604.67,1756.52 1608.95,1761.24 1612.96,1765.64 1616.77,1769.77 1620.42,1773.69 1623.98,1777.47 1627.5,1781.16 1631.04,1784.81 1634.65,1788.49 1638.4,1792.26 1642.35,1796.17 1646.53,1800.29 510.652,664.406 506.464,660.292 502.523,656.379 498.773,652.612 495.156,648.929 491.615,645.273 488.094,641.586 484.536,637.81 480.884,633.885 477.081,629.755 473.068,625.36 468.792,620.641 "/>
     <polygon id="_379643048" class="fil1" points="733.626,917.822 1869.51,2053.7 1853.61,2068.22 717.73,932.336 "/>
     <polygon id="_379622744" class="fil1" points="968.475,1209.36 2104.36,2345.25 2104.08,2347.56 2103.84,2349.89 2103.62,2352.22 2103.42,2354.56 2103.24,2356.91 2103.08,2359.26 2102.92,2361.62 2102.77,2363.99 2102.63,2366.35 2102.48,2368.71 2102.33,2371.08 2102.17,2373.44 2101.99,2375.8 2101.8,2378.16 2101.59,2380.51 2101.35,2382.85 2101.09,2385.18 2100.79,2387.51 2100.46,2389.83 2100.09,2392.13 2099.68,2394.42 2099.21,2396.7 2098.7,2398.96 2098.13,2401.2 2097.5,2403.43 2096.81,2405.64 2096.05,2407.82 2095.23,2409.99 2094.32,2412.13 2093.34,2414.25 2092.28,2416.34 2091.13,2418.41 955.248,1282.52 956.397,1280.46 957.46,1278.37 958.442,1276.25 959.344,1274.11 960.172,1271.94 960.93,1269.75 961.621,1267.55 962.25,1265.32 962.819,1263.08 963.333,1260.82 963.794,1258.54 964.21,1256.25 964.582,1253.94 964.913,1251.63 965.209,1249.3 965.473,1246.97 965.709,1244.62 965.92,1242.27 966.111,1239.92 966.284,1237.56 966.446,1235.2 966.598,1232.83 966.745,1230.47 966.891,1228.1 967.04,1225.74 967.195,1223.38 967.36,1221.03 967.539,1218.68 967.737,1216.34 967.955,1214 968.201,1211.68 "/>
     <polygon id="_379644560" class="fil1" points="955.248,1282.52 2091.13,2418.41 2090.44,2420.93 2089.76,2423.46 2089.09,2425.99 2088.44,2428.52 2087.79,2431.06 2087.16,2433.6 2086.54,2436.15 2085.93,2438.7 2085.33,2441.25 2084.75,2443.81 2084.17,2446.36 2083.6,2448.93 2083.05,2451.49 2082.5,2454.06 2081.97,2456.63 2081.45,2459.2 2080.93,2461.77 2080.43,2464.34 2079.94,2466.92 2079.45,2469.5 2078.98,2472.08 2078.52,2474.66 2078.06,2477.24 2077.62,2479.82 2077.19,2482.4 2076.76,2484.99 2076.35,2487.57 2075.94,2490.15 2075.54,2492.74 2075.15,2495.32 2074.77,2497.91 2074.4,2500.49 938.524,1364.61 938.893,1362.02 939.272,1359.44 939.661,1356.86 940.058,1354.27 940.464,1351.69 940.88,1349.1 941.304,1346.52 941.739,1343.94 942.183,1341.36 942.636,1338.77 943.099,1336.19 943.572,1333.62 944.055,1331.04 944.547,1328.46 945.05,1325.89 945.564,1323.31 946.087,1320.74 946.621,1318.18 947.167,1315.61 947.722,1313.04 948.288,1310.48 948.864,1307.92 949.452,1305.37 950.05,1302.82 950.661,1300.27 951.281,1297.72 951.914,1295.18 952.557,1292.64 953.212,1290.1 953.879,1287.57 954.558,1285.05 "/>
     <polygon id="_379650680" class="fil1" points="938.524,1364.61 2074.4,2500.49 2074.33,2501 938.452,1365.12 "/>
     <polygon id="_379635272" class="fil1" points="938.452,1365.12 2074.33,2501 2075.05,2502.52 2075.73,2504.06 2076.37,2505.61 2076.98,2507.17 2077.56,2508.75 2078.11,2510.34 2078.62,2511.95 2079.1,2513.56 2079.56,2515.19 2079.99,2516.83 2080.39,2518.47 2080.76,2520.13 2081.11,2521.79 2081.43,2523.46 2081.73,2525.14 2082.01,2526.82 2082.26,2528.52 2082.49,2530.21 2082.71,2531.91 2082.9,2533.62 2083.08,2535.32 2083.24,2537.03 2083.39,2538.74 2083.51,2540.46 2083.63,2542.17 2083.73,2543.89 2083.82,2545.6 2083.9,2547.31 2083.96,2549.03 2084.02,2550.73 2084.07,2552.44 2084.11,2554.14 948.23,1418.26 948.189,1416.56 948.14,1414.85 948.082,1413.14 948.016,1411.43 947.938,1409.72 947.85,1408.01 947.748,1406.29 947.633,1404.58 947.505,1402.86 947.361,1401.15 947.2,1399.44 947.023,1397.73 946.827,1396.03 946.613,1394.33 946.379,1392.63 946.124,1390.94 945.848,1389.26 945.548,1387.58 945.225,1385.91 944.878,1384.24 944.505,1382.59 944.105,1380.94 943.678,1379.31 943.223,1377.68 942.739,1376.07 942.224,1374.46 941.678,1372.87 941.101,1371.29 940.49,1369.73 939.846,1368.17 939.166,1366.64 "/>
     <polygon id="_379631480" class="fil1" points="948.23,1418.26 2084.11,2554.14 2084.26,2556.78 2083.98,2559 2083.31,2560.83 2082.3,2562.31 2080.98,2563.48 2079.39,2564.37 2077.58,2565.01 2075.58,2565.44 2073.44,2565.71 2071.2,2565.84 2068.9,2565.86 2066.57,2565.83 2064.27,2565.76 2062.03,2565.71 2059.88,2565.69 2057.88,2565.76 922.003,1429.88 924.003,1429.81 926.144,1429.82 928.387,1429.88 930.692,1429.95 933.016,1429.98 935.319,1429.95 937.561,1429.83 939.7,1429.56 941.696,1429.13 943.508,1428.48 945.095,1427.6 946.417,1426.43 947.431,1424.95 948.1,1423.12 948.379,1420.9 "/>
     <polygon id="_379641848" class="fil1" points="922.003,1429.88 2057.88,2565.76 2055.86,2565.64 2053.83,2565.56 2051.79,2565.52 2049.75,2565.52 2047.69,2565.56 2045.63,2565.62 2043.56,2565.71 2041.48,2565.82 2039.4,2565.95 2037.32,2566.09 2035.24,2566.24 2033.15,2566.39 2031.06,2566.55 2028.97,2566.7 2026.89,2566.85 2024.8,2566.98 2022.72,2567.1 2020.64,2567.21 2018.57,2567.28 2016.5,2567.34 2014.44,2567.36 2012.39,2567.34 2010.34,2567.29 2008.3,2567.19 2006.28,2567.05 2004.26,2566.85 2002.25,2566.6 2000.26,2566.29 1998.28,2565.92 1996.32,2565.48 1994.37,2564.97 1992.43,2564.38 856.553,1428.5 858.486,1429.08 860.436,1429.6 862.401,1430.04 864.38,1430.41 866.372,1430.72 868.378,1430.97 870.395,1431.16 872.422,1431.31 874.459,1431.41 876.506,1431.46 878.56,1431.47 880.622,1431.45 882.69,1431.4 884.763,1431.32 886.841,1431.22 888.923,1431.1 891.008,1430.97 893.094,1430.82 895.181,1430.67 897.268,1430.51 899.355,1430.35 901.439,1430.2 903.522,1430.06 905.601,1429.94 907.676,1429.83 909.745,1429.74 911.808,1429.67 913.866,1429.64 915.914,1429.64 917.953,1429.67 919.984,1429.75 "/>
     <polygon id="_379647416" class="fil1" points="856.553,1428.5 1992.43,2564.38 1990.51,2564.01 1988.56,2563.76 1986.6,2563.62 1984.61,2563.59 1982.61,2563.65 1980.59,2563.78 1978.56,2563.99 1976.52,2564.25 1974.47,2564.57 1972.42,2564.92 1970.35,2565.3 1968.29,2565.7 1966.23,2566.1 1964.17,2566.5 1962.11,2566.89 1960.06,2567.25 1958.01,2567.58 1955.97,2567.86 1953.95,2568.09 1951.94,2568.25 1949.95,2568.33 1947.97,2568.33 1946.01,2568.22 1944.08,2568.01 1942.17,2567.68 1940.28,2567.22 1938.42,2566.62 1936.6,2565.87 1934.8,2564.96 1933.04,2563.88 1931.31,2562.61 1929.63,2561.16 793.745,1425.28 795.433,1426.73 797.157,1428 798.92,1429.08 800.715,1429.99 802.542,1430.74 804.4,1431.34 806.285,1431.8 808.196,1432.13 810.131,1432.34 812.088,1432.44 814.065,1432.45 816.059,1432.37 818.069,1432.21 820.093,1431.98 822.128,1431.7 824.174,1431.37 826.227,1431.01 828.285,1430.62 830.346,1430.22 832.411,1429.82 834.473,1429.42 836.534,1429.04 838.589,1428.68 840.638,1428.37 842.679,1428.11 844.71,1427.9 846.727,1427.76 848.73,1427.71 850.716,1427.74 852.683,1427.88 854.629,1428.13 "/>
     <polygon id="_379652552" class="fil1" points="1584,1402.96 2719.88,2538.84 2719.19,2541.25 2718.12,2543.41 2716.71,2545.34 2715,2547.03 2713.03,2548.51 2710.83,2549.76 2708.45,2550.8 2705.91,2551.64 2703.27,2552.27 2700.55,2552.71 2697.79,2552.97 2695.04,2553.04 2692.32,2552.93 2689.69,2552.65 2687.16,2552.21 2684.8,2551.61 1548.92,1415.73 1551.28,1416.33 1553.81,1416.77 1556.44,1417.05 1559.16,1417.15 1561.91,1417.08 1564.67,1416.83 1567.38,1416.39 1570.03,1415.76 1572.57,1414.92 1574.95,1413.88 1577.15,1412.62 1579.12,1411.15 1580.83,1409.45 1582.24,1407.53 1583.31,1405.37 "/>
     <polygon id="_379650824" class="fil1" points="780.042,875.441 1915.92,2011.32 1904.75,2021.52 768.87,885.642 "/>
     <polygon id="_379636880" class="fil1" points="870.823,972.486 2006.7,2108.37 2004.47,2107.85 2002.22,2107.37 1999.97,2106.92 1997.71,2106.49 1995.44,2106.1 1993.17,2105.72 1990.89,2105.37 1988.6,2105.03 1986.32,2104.7 1984.02,2104.38 1981.73,2104.08 1979.44,2103.77 1977.15,2103.47 1974.85,2103.16 1972.56,2102.85 1970.27,2102.54 1967.98,2102.21 1965.7,2101.86 1963.43,2101.5 1961.15,2101.12 1958.89,2100.72 1956.63,2100.29 1954.38,2099.83 1952.14,2099.33 1949.91,2098.81 1947.69,2098.24 1945.48,2097.63 1943.28,2096.98 1941.1,2096.28 1938.93,2095.53 1936.78,2094.72 1934.64,2093.86 798.76,957.979 800.898,958.84 803.052,959.645 805.221,960.395 807.403,961.096 809.599,961.749 811.808,962.356 814.028,962.923 816.259,963.451 818.5,963.943 820.75,964.403 823.007,964.834 825.272,965.238 827.545,965.618 829.822,965.979 832.104,966.323 834.39,966.653 836.679,966.97 838.971,967.281 841.264,967.586 843.558,967.889 845.852,968.194 848.143,968.502 850.435,968.819 852.722,969.145 855.007,969.484 857.286,969.839 859.56,970.214 861.829,970.612 864.089,971.035 866.343,971.486 868.588,971.969 "/>
     <polygon id="_379633640" class="fil1" points="798.76,957.979 1934.64,2093.86 1933.17,2093.88 1931.71,2093.85 1930.26,2093.77 1928.81,2093.64 1927.38,2093.47 1925.96,2093.25 1924.54,2092.99 1923.14,2092.7 1921.74,2092.36 1920.35,2092 1918.98,2091.6 1917.6,2091.17 1916.24,2090.72 1914.89,2090.24 1913.54,2089.74 1912.2,2089.23 1910.87,2088.69 1909.54,2088.14 1908.22,2087.58 1906.91,2087.01 1905.6,2086.43 1904.3,2085.85 1903.01,2085.26 1901.73,2084.67 1900.44,2084.09 1899.17,2083.51 1897.9,2082.94 1896.63,2082.37 1895.37,2081.82 1894.12,2081.28 1892.87,2080.76 1891.62,2080.26 755.741,944.374 756.987,944.877 758.236,945.399 759.492,945.937 760.752,946.49 762.016,947.053 763.287,947.628 764.562,948.207 765.844,948.792 767.13,949.379 768.423,949.965 769.723,950.55 771.028,951.128 772.34,951.699 773.659,952.261 774.984,952.81 776.317,953.344 777.657,953.863 779.005,954.361 780.36,954.838 781.723,955.29 783.094,955.717 784.473,956.114 785.861,956.48 787.257,956.813 788.663,957.109 790.077,957.368 791.5,957.585 792.932,957.76 794.375,957.889 795.826,957.969 797.288,958 "/>
     <polygon id="_379623632" class="fil1" points="743.957,946.144 1879.84,2082.03 1878.08,2080.77 1876.47,2079.41 740.593,943.527 742.197,944.892 "/>
     <polygon id="_379621088" class="fil1" points="745.76,948.738 1881.64,2084.62 1881.4,2084.43 1881.16,2084.21 745.277,948.329 745.515,948.552 "/>
     <polygon id="_379626536" class="fil1" points="755.741,944.374 1891.62,2080.26 1890.35,2080.9 1889.06,2081.76 1887.76,2082.72 1886.47,2083.65 1885.19,2084.43 1883.96,2084.94 1882.77,2085.04 1881.64,2084.62 745.76,948.738 746.886,949.158 748.075,949.055 749.313,948.551 750.586,947.772 751.881,946.84 753.18,945.879 754.472,945.016 "/>
     <polygon id="_379634168" class="fil1" points="1048.88,1195.1 2184.76,2330.98 2182.99,2331.41 2181.22,2331.83 2179.44,2332.24 2177.66,2332.63 2175.88,2333.01 2174.09,2333.38 2172.3,2333.73 2170.5,2334.07 2168.7,2334.39 2166.9,2334.69 2165.09,2334.98 2163.28,2335.24 2161.47,2335.49 2159.65,2335.72 2157.83,2335.92 2156,2336.11 2154.17,2336.27 2152.34,2336.41 2150.5,2336.52 2148.65,2336.61 2146.81,2336.67 2144.96,2336.71 2143.1,2336.72 2141.24,2336.7 2139.38,2336.66 2137.51,2336.58 2135.64,2336.48 2133.76,2336.34 2131.88,2336.17 2130,2335.97 2128.11,2335.74 2126.21,2335.47 990.33,1199.59 992.225,1199.86 994.115,1200.09 996,1200.29 997.881,1200.46 999.758,1200.59 1001.63,1200.7 1003.5,1200.77 1005.36,1200.82 1007.22,1200.84 1009.08,1200.83 1010.93,1200.79 1012.77,1200.73 1014.62,1200.64 1016.46,1200.52 1018.29,1200.38 1020.12,1200.22 1021.95,1200.04 1023.77,1199.83 1025.59,1199.61 1027.4,1199.36 1029.21,1199.1 1031.02,1198.81 1032.82,1198.51 1034.62,1198.19 1036.42,1197.85 1038.21,1197.5 1040,1197.13 1041.78,1196.75 1043.56,1196.36 1045.34,1195.95 1047.11,1195.53 "/>
     <polygon id="_379646264" class="fil1" points="990.33,1199.59 2126.21,2335.47 2124.85,2336.07 2123.43,2336.6 2121.97,2337.07 2120.47,2337.48 2118.96,2337.88 2117.43,2338.26 2115.91,2338.65 2114.4,2339.06 2112.92,2339.51 2111.48,2340.02 2110.09,2340.6 2108.77,2341.28 2107.52,2342.07 2106.36,2342.98 2105.3,2344.03 2104.36,2345.25 968.475,1209.36 969.422,1208.15 970.482,1207.09 971.641,1206.18 972.889,1205.4 974.213,1204.72 975.601,1204.14 977.041,1203.63 978.52,1203.18 980.028,1202.76 981.55,1202.38 983.076,1201.99 984.594,1201.6 986.089,1201.18 987.552,1200.72 988.97,1200.19 "/>
     <polygon id="_379624736" class="fil1" points="795.944,888.878 1931.83,2024.76 1932.91,2025.98 1933.9,2027.29 1934.8,2028.68 1935.59,2030.15 1936.27,2031.71 800.388,895.825 799.706,894.272 798.916,892.798 798.022,891.405 797.03,890.097 "/>
     <polygon id="_379650704" class="fil1" points="939.001,984.366 2074.88,2120.25 2072.79,2119.95 2070.67,2119.64 2068.5,2119.32 2066.31,2119 2064.08,2118.67 2061.83,2118.34 2059.56,2118 2057.27,2117.65 2054.96,2117.3 2052.65,2116.94 2050.32,2116.58 2048,2116.21 2045.68,2115.84 2043.36,2115.47 2041.05,2115.09 2038.75,2114.71 2036.47,2114.32 2034.2,2113.94 2031.97,2113.55 2029.75,2113.15 2027.57,2112.76 2025.43,2112.36 2023.32,2111.97 2021.25,2111.57 2019.23,2111.17 2017.26,2110.77 2015.35,2110.37 2013.49,2109.97 2011.69,2109.57 2009.96,2109.17 2008.3,2108.77 2006.7,2108.37 870.823,972.486 872.415,972.884 874.079,973.283 875.812,973.684 877.609,974.084 879.467,974.486 881.383,974.886 883.353,975.287 885.373,975.686 887.437,976.085 889.546,976.482 891.692,976.879 893.872,977.272 896.084,977.665 898.322,978.055 900.585,978.442 902.867,978.826 905.166,979.208 907.476,979.586 909.796,979.96 912.119,980.331 914.443,980.697 916.765,981.059 919.08,981.415 921.385,981.767 923.676,982.113 925.948,982.455 928.2,982.789 930.426,983.118 932.623,983.441 934.787,983.756 936.914,984.065 "/>
     <polygon id="_379645760" class="fil1" points="1145.74,1181.07 2281.62,2316.95 2278.56,2317.07 2275.5,2317.23 2272.45,2317.43 2269.4,2317.66 2266.35,2317.94 2263.31,2318.24 2260.28,2318.58 2257.24,2318.95 2254.21,2319.34 2251.19,2319.76 2248.16,2320.2 2245.14,2320.66 2242.12,2321.14 2239.11,2321.64 2236.09,2322.15 2233.07,2322.67 2230.06,2323.21 2227.05,2323.75 2224.03,2324.3 2221.02,2324.85 2218.01,2325.4 2214.99,2325.95 2211.98,2326.5 2208.96,2327.05 2205.95,2327.59 2202.93,2328.12 2199.91,2328.63 2196.88,2329.14 2193.86,2329.63 2190.83,2330.1 2187.8,2330.55 2184.76,2330.98 1048.88,1195.1 1051.92,1194.67 1054.95,1194.22 1057.98,1193.74 1061,1193.26 1064.03,1192.75 1067.05,1192.23 1070.06,1191.7 1073.08,1191.17 1076.1,1190.62 1079.11,1190.07 1082.13,1189.52 1085.14,1188.97 1088.15,1188.41 1091.17,1187.87 1094.18,1187.33 1097.19,1186.79 1100.21,1186.27 1103.22,1185.76 1106.24,1185.26 1109.26,1184.78 1112.28,1184.32 1115.31,1183.88 1118.33,1183.46 1121.36,1183.06 1124.39,1182.7 1127.43,1182.36 1130.47,1182.06 1133.52,1181.78 1136.56,1181.55 1139.62,1181.35 1142.67,1181.19 "/>
     <polygon id="_379646144" class="fil1" points="1168.51,701.967 2304.39,1837.85 2305.02,1838.93 2305.62,1840.03 2306.22,1841.14 2306.8,1842.26 2307.36,1843.39 2307.91,1844.53 2308.44,1845.69 2308.95,1846.85 2309.45,1848.03 2309.93,1849.21 2310.4,1850.4 2310.84,1851.6 2311.27,1852.81 2311.68,1854.02 2312.07,1855.24 2312.45,1856.47 2312.8,1857.7 2313.13,1858.94 2313.45,1860.19 2313.74,1861.44 2314.01,1862.69 2314.26,1863.95 2314.49,1865.21 2314.7,1866.47 2314.89,1867.73 2315.05,1869 2315.2,1870.27 2315.31,1871.54 2315.41,1872.81 2315.48,1874.08 2315.53,1875.35 2315.55,1876.61 1179.67,740.732 1179.65,739.464 1179.6,738.195 1179.53,736.926 1179.43,735.656 1179.31,734.386 1179.17,733.118 1179.01,731.852 1178.82,730.587 1178.61,729.324 1178.38,728.064 1178.13,726.807 1177.86,725.554 1177.56,724.306 1177.25,723.061 1176.92,721.822 1176.57,720.588 1176.19,719.36 1175.8,718.138 1175.39,716.924 1174.96,715.717 1174.52,714.517 1174.05,713.326 1173.57,712.144 1173.07,710.97 1172.56,709.806 1172.03,708.653 1171.48,707.509 1170.92,706.378 1170.34,705.257 1169.74,704.148 1169.14,703.052 "/>
    </g>
    <path id="_478220344" class="fil1" d="M1168.51 701.967c6.71339,11.4898 11.0398,25.2425 11.1579,38.765 2.29488,9.45473 -9.39331,15.0768 -5.06103,23.4662 3.03898,8.88426 -6.07914,19.4953 1.15039,26.1118 0.668504,2.62677 1.82835,4.77402 3.31299,6.613 5.67993,7.03819 16.115,9.56576 21.9933,17.1969 9.84213,-0.742914 17.9091,4.82244 27.0319,6.55749 11.3917,8.43072 21.0555,20.3091 26.4567,33.5894 7.89095,7.03465 15.6768,15.0921 18.404,25.5355 1.6311,18.1169 19.1882,27.4181 26.5725,43.3666 3.64016,13.3323 7.81182,26.6882 13.9205,38.7662 4.81772,8.0126 11.5654,16.2721 15.9874,24.6154 7.92993,14.3339 19.9725,28.0925 23.0067,44.6327 5.08111,7.67245 3.94252,18.6898 10.4681,25.0772 7.53544,14.5925 8.42953,33.6886 20.4732,45.4347 11.4059,5.93032 12.7984,18.0992 12.6543,29.217 1.47165,12.476 2.34567,34.428 -14.7236,35.7768 -6.29528,-2.61851 -12.0496,-5.3752 -18.0591,-8.62796 -5.41654,-14.9788 -18.854,-26.2654 -24.9626,-41.1815 -7.0252,-8.88898 -11.0728,-19.4492 -20.3599,-27.0307 -9.5941,-8.75434 -15.8622,-20.1402 -21.8551,-31.174 -6.7193,-15.3071 -18.8433,-27.8953 -25.4209,-43.252 1.17638,-11.8169 -8.82757,-19.6642 -11.9634,-29.791 -9.49843,-7.04292 -16.0004,-16.7847 -23.5819,-25.8827 -3.17835,11.2902 -10.0004,23.3209 -1.49646,34.5095 9.16772,59.0233 25.8437,61.3619 39.9177,103.065 0.170079,0.994489 0.346063,1.99252 0.532678,2.98819 0.851575,4.52244 1.93701,9.02009 3.71339,13.1504 2.50276,5.82284 6.3756,10.9193 12.8929,14.3445 17.9162,21.4394 37.1611,42.7441 56.5937,63.0367 10.0323,0.612993 19.526,7.15512 24.0414,16.565 9.48898,1.36299 17.0291,10.3512 26.5713,11.8476 28.1244,29.8418 53.537,47.7992 86.2725,84.7772 13.8024,8.24883 17.074,25.7941 30.7607,34.2402l0.64252 0.38504c10.6394,-3.00827 17.4177,5.39056 22.2012,13.4575 8.90198,4.25197 9.85276,14.5476 18.5209,18.5197 11.3055,7.23662 26.9008,16.2591 27.7205,32.3244 -2.62323,13.4811 -22.9335,16.3819 -35.0835,12.7677 -11.2417,5.84528 -26.4815,7.02284 -37.9595,1.15039 -2.7189,-6.73701 -6.92008,-11.3681 -9.20079,-17.8288 -10.2969,-12.4264 -21.5882,-24.3874 -33.4229,-35.8382 -7.65237,-7.40552 -15.5327,-14.5973 -23.5181,-21.5634 -15.6685,-9.11576 -29.1945,-21.8894 -44.8618,-30.2528 -7.37481,-9.50079 -90.2056,-54.0851 -110.773,-64.8768 -26.0138,-14.9528 -50.5973,-29.6445 -75.9213,-45.2055 -22.6795,-5.9315 -42.339,-24.4571 -67.5213,-20.2453 -32.7024,1.02638 -64.4634,9.55985 -96.8564,14.0327 -18.8587,4.64055 -38.3209,7.52599 -58.5508,4.48701 -7.08071,3.4689 -17.1272,2.83937 -21.8551,9.77717 -3.09921,24.6154 -0.497244,51.2729 -13.2272,73.1587 -7.42678,26.8831 -12.8221,54.5304 -16.7244,82.0843l-0.0720473 0.507874c7.82245,16.1445 9.37796,35.0114 9.77835,53.1426 2.0126,15.2811 -16.0158,10.9913 -26.2264,11.6185 -21.4843,-1.57441 -44.9138,5.29843 -65.4508,-1.37953 -20.3882,-4.63937 -45.0201,13.376 -62.8075,-3.22205 -10.4835,-15.7264 9.80552,-33.3579 25.7669,-32.4378 13.7551,-12.1075 30.4949,-21.4725 44.4012,-33.8197 3.26339,-5.93623 7.92402,-17.1579 17.6008,-14.1484l0.127559 -0.52441c6.06615,-25.2579 5.04922,-51.6107 6.42756,-77.6953 -0.413386,-30.3154 9.42402,-58.6843 9.89292,-88.8036 -1.9748,-18.8965 6.55512,-38.4402 24.1559,-47.1626 14.2169,-3.0378 24.3555,-12.4854 38.4201,-16.102 30.6496,-15.6154 65.713,-21.6614 99.0414,-30.0248 3.2811,-0.0814961 4.64528,-1.08898 4.84134,-2.59843 0.409843,-3.12402 -4.1752,-8.39883 -7.10788,-12.0721 -0.718111,-0.89882 -1.33583,-1.70197 -1.75866,-2.35394 -15.0366,-15.6272 -6.25749,-84.0249 -7.79056,-112.269 -2.01142,-25.4658 0.229134,-41.3268 -5.20867,-66.143 -25.324,-15.8953 -71.9221,113.718 -100.858,95.5418 -0.865749,-0.0637796 -1.76457,-0.161811 -2.69646,-0.296457 -22.0311,-3.17362 -51.5977,-7.63701 -68.178,-11.8795 -23.7886,-5.71536 -49.3441,-5.00552 -72.0627,-14.5075 -15.7536,0.522048 -29.7544,-8.34449 -43.0193,-13.6051 -3.34134,1.30984 -7.07599,6.29646 -9.98032,4.36418 -0.669686,-0.445276 -1.22599,-1.2815 -1.80354,-2.5937 -9.79843,-6.35434 -12.9437,-17.9788 -10.3311,-28.3217l-15.8953 14.5134c-6.11811,-8.42127 -4.63583,-30.1961 7.90512,-45.5221 -87.515,-87.5245 -268.353,-262.158 -261.443,-271.271 50.9741,56.6292 37.2851,38.2607 269.798,263.377 16.3595,-11.8512 38.0185,-10.5118 46.0512,-3.47835l-11.1721 10.2012c3.5941,-1.11614 7.18465,-2.13662 10.5425,-3.29055 9.4252,-0.308268 17.6433,4.98898 20.9752,13.474 11.7532,10.0063 25.1492,26.1437 42.2303,18.4878 12.0543,1.1315 23.3103,-3.67441 34.7303,-0.262205 16.5827,1.90158 34.0335,-7.93111 49.6996,0.146457 4.41969,0.233858 7.92284,-2.26299 11.5217,-4.2626 25.363,-32.0032 55.3902,-101.231 102.685,-115.468 -5.74725,-12.0555 -9.21142,-27.6437 -9.21142,-44.6681 0,-35.8288 15.3461,-65.2997 35.015,-68.8548 4.95591,-1.59095 10.4504,-2.0563 16.448,-1.06299 22.2543,1.73622 46.252,-4.01339 67.6371,2.7626 9.3815,3.15236 9.75237,15.4654 17.3693,19.324z"/>
   </g>
  </g>
  <path class="fil2" d="M1024 0c565.539,0 1024,458.461 1024,1024 0,565.539 -458.461,1024 -1024,1024 -565.539,0 -1024,-458.461 -1024,-1024 0,-565.539 458.461,-1024 1024,-1024z"/>
  <path id="path4172" class="fil3" d="M931.624 917.806c27.202,-26.8701 58.6772,-109.689 111.454,-123.858 -0.265748,-10.2886 -9.27639,-41.4414 -7.1941,-54.7111 -2.53819,-27.4335 15.1701,-64.7268 47.6233,-59.3563 22.2543,1.73622 46.252,-4.01339 67.6371,2.7626 9.3815,3.15236 9.75237,15.4654 17.3693,19.324 6.71339,11.4898 11.0398,25.2425 11.1579,38.765 2.29488,9.45473 -9.39331,15.0768 -5.06103,23.4662 3.03898,8.88426 -6.07914,19.4953 1.15039,26.1118 3.22796,12.678 17.8914,14.1851 25.3063,23.8099 9.84213,-0.742914 17.9091,4.82244 27.0319,6.55749 11.3917,8.43072 21.0555,20.3091 26.4567,33.5894 7.89095,7.03465 15.6768,15.0921 18.404,25.5355 1.6311,18.1169 19.1882,27.4181 26.5725,43.3666 3.64016,13.3323 7.81182,26.6882 13.9205,38.7662 4.81772,8.0126 11.5654,16.2721 15.9874,24.6154 7.92993,14.3339 19.9725,28.0925 23.0067,44.6327 5.08111,7.67245 3.94252,18.6898 10.4681,25.0772 7.53544,14.5925 8.42953,33.6886 20.4732,45.4347 11.4059,5.93032 12.7984,18.0992 12.6543,29.217 1.47165,12.476 2.34567,34.428 -14.7236,35.7768 -6.29528,-2.61851 -12.0496,-5.3752 -18.0591,-8.62796 -5.41654,-14.9788 -18.854,-26.2654 -24.9626,-41.1815 -7.0252,-8.88898 -11.0728,-19.4492 -20.3599,-27.0307 -9.5941,-8.75434 -15.8622,-20.1402 -21.8551,-31.174 -6.7193,-15.3071 -18.8433,-27.8953 -25.4209,-43.252 1.17638,-11.8169 -8.82757,-19.6642 -11.9634,-29.791 -9.49843,-7.04292 -16.0004,-16.7847 -23.5819,-25.8827 -3.17835,11.2902 -10.0004,23.3209 -1.49646,34.5095 9.16772,59.0233 25.8437,61.3619 39.9177,103.065 2.02559,11.8807 4.97835,24.0921 17.139,30.4831 17.9162,21.4394 37.1611,42.7441 56.5937,63.0367 10.0323,0.612993 19.526,7.15512 24.0414,16.565 9.48898,1.36299 17.0291,10.3512 26.5713,11.8476 28.1244,29.8418 53.537,47.7992 86.2725,84.7772 14.0162,8.37638 17.1732,26.3386 31.4032,34.6252 10.6394,-3.00827 17.4177,5.39056 22.2012,13.4575 8.90198,4.25197 9.85276,14.5476 18.5209,18.5197 11.3055,7.23662 26.9008,16.2591 27.7205,32.3244 -2.62323,13.4811 -22.9335,16.3819 -35.0835,12.7677 -11.2417,5.84528 -26.4815,7.02284 -37.9595,1.15039 -2.7189,-6.73701 -6.92008,-11.3681 -9.20079,-17.8288 -16.9559,-20.4626 -36.6083,-39.6638 -56.941,-57.4016 -15.6685,-9.11576 -29.1945,-21.8894 -44.8618,-30.2528 -7.37481,-9.50079 -90.2056,-54.0851 -110.773,-64.8768 -26.0138,-14.9528 -50.5973,-29.6445 -75.9213,-45.2055 -22.6795,-5.9315 -42.339,-24.4571 -67.5213,-20.2453 -32.7024,1.02638 -64.4634,9.55985 -96.8564,14.0327 -18.8587,4.64055 -38.3209,7.52599 -58.5508,4.48701 -7.08071,3.4689 -17.1272,2.83937 -21.8551,9.77717 -3.09921,24.6154 -0.497244,51.2729 -13.2272,73.1587 -7.47284,27.0484 -12.8882,54.8705 -16.7965,82.5922 7.82245,16.1445 9.37796,35.0114 9.77835,53.1426 2.0126,15.2811 -16.0158,10.9913 -26.2264,11.6185 -21.4843,-1.57441 -44.9138,5.29843 -65.4508,-1.37953 -20.3882,-4.63937 -45.0201,13.376 -62.8075,-3.22205 -10.4835,-15.7264 9.80552,-33.3579 25.7669,-32.4378 13.7551,-12.1075 30.4949,-21.4725 44.4012,-33.8197 3.26339,-5.93623 7.92402,-17.1579 17.6008,-14.1484 6.20788,-25.4173 5.16733,-51.9544 6.55512,-78.2197 -0.413386,-30.3154 9.42402,-58.6843 9.89292,-88.8036 -1.9748,-18.8965 6.55512,-38.4402 24.1559,-47.1626 14.2169,-3.0378 24.3555,-12.4854 38.4201,-16.102 30.6496,-15.6154 65.713,-21.6614 99.0414,-30.0248 11.7307,-0.290551 -1.04291,-12.4205 -4.0252,-17.0244 -15.0366,-15.6272 -6.25749,-84.0249 -7.79056,-112.269 -2.01142,-25.4658 0.229134,-41.3268 -5.20867,-66.143 -25.324,-15.8953 -71.9221,113.718 -100.858,95.5418l-10.0736 -66.8564z"/>
  <path id="path4172_0" class="fil4" d="M760.228 904.342c-259.826,-251.967 -243.216,-230.12 -296.035,-288.8 -7.67363,10.1221 216.236,224.41 286.681,296.778l0 -1.86732 9.35434 -6.11103z"/>
  <path id="path4172_1" class="fil5" d="M745.76 948.738c2.90433,1.93228 6.63898,-3.05433 9.98032,-4.36418 13.265,5.26063 27.2658,14.1272 43.0193,13.6051 22.7185,9.50198 48.2741,8.79213 72.0627,14.5075 16.5803,4.24252 46.1469,8.70591 68.178,11.8795 35.9138,5.17796 21.9567,-42.8398 41.2784,-73.1138 -10.291,-2.12835 -20.6315,-3.74174 -31.3831,-3.26811 -8.50158,-2.49567 -13.5662,6.65197 -21.848,6.21378 -15.6662,-8.07757 -33.117,1.75512 -49.6996,-0.146457 -11.4201,-3.41221 -22.676,1.3937 -34.7303,0.262205 -17.0811,7.65591 -30.4772,-8.4815 -42.2303,-18.4878 -3.33189,-8.48505 -11.55,-13.7823 -20.9752,-13.474 -8.93977,3.07323 -19.5248,5.19449 -27.4571,10.7067l0 3.81142 -7.50827 6.11103 -2.06575 0 0.294095 0.303544c-13.1209,10.878 -13.7788,33.0933 1.2815,42.8599 0.577559,1.31221 1.13386,2.14843 1.80354,2.5937z"/>
  <path class="fil4" d="M717.73 932.336c-6.78426,-9.3378 -4.22363,-35.0941 12.398,-50.2713 16.6217,-15.176 41.23,-14.2276 49.9134,-6.62363l-62.3115 56.8949z"/>
  <path id="path4172_2" class="fil5" d="M1274.07 1100.31c0.851575,4.52244 1.93701,9.02009 3.71457,13.1504 -79.5438,-30.1748 -150.304,-12.0567 -213.363,-31.5047 0.409843,-3.12402 -4.1752,-8.39883 -7.10788,-12.0721 72.1737,10.3984 150.145,1.74803 216.756,30.4264z"/>
  <ellipse class="fil6" cx="1071.06" cy="749.798" rx="39.0173" ry="69.2149"/>
  <path class="fil7" d="M893.694 1360.71c-9.75001,-4.62992 -11.7425,-12.1925 -12.0532,-16.363 -0.0413386,0.174803 -0.0838583,0.349607 -0.126378,0.52441 -9.67678,-3.00945 -14.3362,8.21221 -17.6008,14.1484 -13.9063,12.3473 -30.6461,21.7122 -44.4012,33.8197 -15.9614,-0.920079 -36.2492,16.7102 -25.7669,32.4378 17.7862,16.5969 42.4205,-1.41732 62.8075,3.22205 20.537,6.67796 43.9666,-0.194882 65.4508,1.37953 10.2106,-0.627166 28.2378,3.6626 26.2264,-11.6185 -0.400394,-18.1311 -1.95473,-36.9981 -9.77835,-53.1426 0.0248032,-0.168898 0.0484252,-0.338977 0.0720473,-0.507874 -1.81063,1.13858 -3.52323,2.14252 -4.81063,2.75315 -4.73859,2.24646 -26.0114,0 -40.0193,-6.65315z"/>
  <path class="fil7" d="M1502.81 1355.72c-10.8142,5.13662 -25.9571,7.64528 -34.4799,7.48938 11.8335,11.4508 23.1248,23.413 33.4217,35.8394 2.28071,6.46063 6.48189,11.0917 9.20079,17.8288 11.478,5.87245 26.7177,4.69489 37.9595,-1.15039 12.15,3.61536 32.4603,0.713386 35.0847,-12.7689 -0.820867,-16.0642 -16.4162,-25.0866 -27.7217,-32.3244 -8.66812,-3.97205 -9.61772,-14.2665 -18.5209,-18.5197 -4.78347,-8.06575 -11.5618,-16.4646 -22.2012,-13.4563 -0.217323,-0.125197 -0.431103,-0.253937 -0.64252,-0.38504 -0.0519685,3.80197 -1.4315,12.3803 -12.1004,17.4473z"/>
  <path class="fil5" d="M1110.08 749.797c0,38.2264 -17.4685,69.2162 -39.0166,69.2162 -0.773623,0 -1.54252,-0.0413386 -2.30433,-0.119291 37.989,14.8335 28.1185,26.3811 35.4603,69.3627 13.7847,-72.7217 -0.304725,-59.8205 67.5449,-86.5347l7.31103 -4.79882c-1.48465,-1.84016 -2.64449,-3.98622 -3.31299,-6.613 -7.22953,-6.61772 1.88858,-17.2276 -1.15039,-26.113 -4.33229,-8.3882 7.35591,-14.0102 5.06103,-23.465 -0.11811,-13.5225 -4.44449,-27.2752 -11.1579,-38.765 -7.61693,-3.85866 -7.9878,-16.1717 -17.3693,-19.3252 -21.3862,-6.77481 -45.3827,-1.0252 -67.6371,-2.76142 -5.99764,-0.993308 -11.4921,-0.527953 -16.448,1.06299 1.31575,-0.238583 2.6504,-0.360236 4.00276,-0.360236 21.548,0 39.0166,30.9886 39.0166,69.2138z"/>
 </g>
</svg>
