<?xml version="1.0" encoding="UTF-8"?>
<!DOCTYPE svg PUBLIC "-//W3C//DTD SVG 1.1//EN" "http://www.w3.org/Graphics/SVG/1.1/DTD/svg11.dtd">
<!-- Creator: CorelDRAW -->
<svg xmlns="http://www.w3.org/2000/svg" xml:space="preserve" width="2048px" height="2048px" style="shape-rendering:geometricPrecision; text-rendering:geometricPrecision; image-rendering:optimizeQuality; fill-rule:evenodd; clip-rule:evenodd"
viewBox="0 0 2048 2048"
 xmlns:xlink="http://www.w3.org/1999/xlink">
 <defs>
  <style type="text/css">
   <![CDATA[
    .fil2 {fill:none}
    .fil8 {fill:#456B1A}
    .fil1 {fill:#FB8C00}
    .fil0 {fill:#FFB74D}
    .fil9 {fill:#424242;fill-rule:nonzero}
    .fil3 {fill:#8BC34A;fill-rule:nonzero}
    .fil7 {fill:#B7B8B8;fill-rule:nonzero}
    .fil5 {fill:#BEC0C0;fill-rule:nonzero}
    .fil6 {fill:#C6C9C9;fill-rule:nonzero}
    .fil4 {fill:#D0D2D2;fill-rule:nonzero}
    .fil10 {fill:#D50000;fill-rule:nonzero}
   ]]>
  </style>
   <clipPath id="id0">
    <path d="M1024 0c565.539,0 1024,458.461 1024,1024 0,565.539 -458.461,1024 -1024,1024 -565.539,0 -1024,-458.461 -1024,-1024 0,-565.539 458.461,-1024 1024,-1024z"/>
   </clipPath>
 </defs>
 <g id="Layer_x0020_1">
  <metadata id="CorelCorpID_0Corel-Layer"/>
  <path class="fil0" d="M1024 0c565.539,0 1024,458.461 1024,1024 0,565.539 -458.461,1024 -1024,1024 -565.539,0 -1024,-458.461 -1024,-1024 0,-565.539 458.461,-1024 1024,-1024z"/>
  <g style="clip-path:url(#id0)">
   <g id="_478206328">
    <g>
     <polygon id="_3807608321" class="fil1" points="1238.66,734.261 2374.54,1870.14 2207.74,1810.28 1071.86,674.402 "/>
     <polygon id="_380787520" class="fil1" points="1071.86,674.402 2207.74,1810.28 2161.39,1793.65 1025.5,657.767 "/>
     <polygon id="_380771368" class="fil1" points="1276,734.434 2411.89,1870.32 2411.89,2338.3 1276,1202.42 "/>
     <polygon id="_380773768" class="fil1" points="1409.4,1472.65 2545.28,2608.54 2535.89,2610.95 2526.28,2613.3 2516.46,2615.59 2506.44,2617.82 2496.22,2619.98 2485.8,2622.09 2475.18,2624.12 2464.38,2626.09 2453.4,2628 2442.23,2629.84 2430.89,2631.6 2419.38,2633.3 2407.7,2634.92 2395.86,2636.47 2383.87,2637.95 2371.71,2639.35 2359.41,2640.68 2346.97,2641.93 2334.38,2643.1 2321.65,2644.19 2308.8,2645.2 2295.81,2646.13 2282.71,2646.97 2269.48,2647.73 2256.14,2648.41 2242.68,2649 2229.12,2649.5 2215.46,2649.91 2201.7,2650.23 2187.85,2650.47 2173.91,2650.61 2159.88,2650.65 1024,1514.77 1038.03,1514.72 1051.97,1514.58 1065.82,1514.35 1079.58,1514.03 1093.24,1513.62 1106.8,1513.11 1120.26,1512.52 1133.6,1511.85 1146.83,1511.09 1159.93,1510.24 1172.92,1509.32 1185.77,1508.31 1198.5,1507.22 1211.09,1506.04 1223.53,1504.8 1235.83,1503.47 1247.98,1502.07 1259.98,1500.59 1271.82,1499.04 1283.5,1497.41 1295.01,1495.72 1306.35,1493.95 1317.52,1492.12 1328.5,1490.21 1339.3,1488.24 1349.92,1486.2 1360.34,1484.1 1370.56,1481.93 1380.58,1479.71 1390.4,1477.41 1400.01,1475.06 "/>
     <polygon id="_380770672" class="fil1" points="1024,1514.77 2159.88,2650.65 2145.85,2650.61 2131.91,2650.47 2118.06,2650.23 2104.3,2649.91 2090.64,2649.5 2077.08,2649 2063.62,2648.41 2050.28,2647.73 2037.06,2646.97 2023.95,2646.13 2010.96,2645.2 1998.11,2644.19 1985.38,2643.1 1972.8,2641.93 1960.35,2640.68 1948.05,2639.35 1935.9,2637.95 1923.9,2636.47 1912.06,2634.92 1900.38,2633.3 1888.87,2631.6 1877.53,2629.84 1866.37,2628 1855.38,2626.09 1844.58,2624.12 1833.97,2622.09 1823.54,2619.98 1813.32,2617.82 1803.3,2615.59 1793.48,2613.3 1783.87,2610.95 1774.48,2608.54 638.597,1472.65 647.991,1475.06 657.598,1477.41 667.417,1479.71 677.439,1481.93 687.663,1484.1 698.084,1486.2 708.697,1488.24 719.499,1490.21 730.484,1492.12 741.648,1493.95 752.989,1495.72 764.5,1497.41 776.177,1499.04 788.017,1500.59 800.016,1502.07 812.167,1503.47 824.468,1504.8 836.914,1506.04 849.503,1507.22 862.227,1508.31 875.082,1509.32 888.067,1510.24 901.175,1511.09 914.402,1511.85 927.744,1512.52 941.196,1513.11 954.757,1513.62 968.417,1514.03 982.177,1514.35 996.03,1514.58 1009.97,1514.72 "/>
     <polygon id="_380787568" class="fil1" points="638.597,1472.65 1774.48,2608.54 1764.49,2605.84 1754.74,2603.05 1745.24,2600.18 1736,2597.24 1727.02,2594.2 1718.31,2591.09 1709.86,2587.91 1701.69,2584.64 1693.79,2581.3 1686.18,2577.88 1678.86,2574.39 1671.83,2570.83 1665.1,2567.2 1658.66,2563.5 1652.54,2559.73 1646.73,2555.89 1641.23,2551.98 1636.05,2548.01 1631.2,2543.98 495.32,1408.1 500.171,1412.13 505.348,1416.1 510.845,1420.01 516.658,1423.84 522.782,1427.61 529.215,1431.32 535.947,1434.95 542.978,1438.51 550.301,1442 557.912,1445.42 565.806,1448.76 573.98,1452.02 582.426,1455.21 591.142,1458.32 600.123,1461.35 609.363,1464.3 618.859,1467.17 628.604,1469.95 "/>
     <polygon id="_380767768" class="fil1" points="1561.39,1301.04 2697.27,2436.92 2701.11,2441.14 2704.62,2445.41 2707.77,2449.75 2710.57,2454.13 2713.01,2458.58 2715.09,2463.08 2716.8,2467.63 2718.14,2472.23 2719.11,2476.88 2719.69,2481.58 2719.88,2486.33 1584,1350.44 1583.81,1345.7 1583.23,1341 1582.26,1336.34 1580.92,1331.74 1579.21,1327.19 1577.13,1322.7 1574.69,1318.25 1571.89,1313.86 1568.74,1309.53 1565.23,1305.25 "/>
     <polygon id="_380771992" class="fil1" points="1584,1350.44 2719.88,2486.33 2719.69,2491.07 2719.11,2495.77 2718.14,2500.43 2716.8,2505.03 2715.09,2509.58 2713.01,2514.07 2710.57,2518.52 2707.77,2522.91 2704.62,2527.24 2701.11,2531.51 2697.27,2535.73 2693.08,2539.89 2688.56,2543.98 2683.71,2548.01 2678.53,2551.98 2673.04,2555.89 2667.22,2559.73 2661.1,2563.5 2654.67,2567.2 2647.93,2570.83 2640.9,2574.39 2633.58,2577.88 2625.97,2581.3 2618.07,2584.64 2609.9,2587.91 2601.46,2591.09 2592.74,2594.2 2583.76,2597.24 2574.52,2600.18 2565.02,2603.05 2555.28,2605.84 2545.28,2608.54 1409.4,1472.65 1419.4,1469.95 1429.14,1467.17 1438.64,1464.3 1447.88,1461.35 1456.86,1458.32 1465.57,1455.21 1474.02,1452.02 1482.19,1448.76 1490.09,1445.42 1497.7,1442 1505.02,1438.51 1512.05,1434.95 1518.79,1431.32 1525.22,1427.61 1531.34,1423.84 1537.16,1420.01 1542.65,1416.1 1547.83,1412.13 1552.68,1408.1 1557.2,1404 1561.39,1399.85 1565.23,1395.63 1568.74,1391.36 1571.89,1387.02 1574.69,1382.63 1577.13,1378.19 1579.21,1373.69 1580.92,1369.14 1582.26,1364.54 1583.23,1359.89 1583.81,1355.19 "/>
     <polygon id="_380783296" class="fil1" points="1276,533.229 2411.89,1669.11 2411.89,1674.68 1276,538.798 "/>
     <polygon id="_380773384" class="fil1" points="1276,538.798 2411.89,1674.68 2411.89,1685.24 1276,549.357 "/>
     <polygon id="_380784976" class="fil1" points="1276,549.357 2411.89,1685.24 2411.89,1850.48 1276,714.602 "/>
     <polygon id="_380773432" class="fil1" points="1276,714.602 2411.89,1850.48 2411.89,1870.32 1276,734.434 "/>
    </g>
    <path id="_478224208" class="fil1" d="M1276 734.434l0 467.983c49.3158,6.80197 94.265,15.5339 133.4,25.8154 107.874,28.3406 174.597,71.3186 174.597,122.212 0,50.8926 -66.7241,93.8694 -174.598,122.21 -99.0461,26.0209 -235.341,42.117 -385.403,42.117 -150.063,0 -286.357,-16.0961 -385.403,-42.117 -107.874,-28.3406 -174.598,-71.3174 -174.598,-122.21 0,-50.8937 66.7229,-93.8717 174.597,-122.212 99.0461,-26.0221 235.342,-42.117 385.405,-42.117 76.1174,0 148.693,4.14095 214.661,11.6185l0 -463.472 -166.801 -59.8595 -46.3548 -16.6347 42.2528 -25.2012 166.546 -99.3367 41.7012 0 0 5.5689 0 10.5591 0 165.245 0 19.8319z"/>
   </g>
  </g>
  <path class="fil2" d="M1024 0c565.539,0 1024,458.461 1024,1024 0,565.539 -458.461,1024 -1024,1024 -565.539,0 -1024,-458.461 -1024,-1024 0,-565.539 458.461,-1024 1024,-1024z"/>
  <path class="fil3" d="M1024 1186.11c150.063,0 286.358,16.0949 385.405,42.117 107.874,28.3406 174.597,71.3186 174.597,122.212 0,50.8926 -66.7241,93.8694 -174.598,122.21 -99.0461,26.0209 -235.341,42.117 -385.403,42.117 -150.063,0 -286.357,-16.0961 -385.403,-42.117 -107.874,-28.3406 -174.598,-71.3174 -174.598,-122.21 0,-50.8937 66.7229,-93.8717 174.597,-122.212 99.0461,-26.0221 235.342,-42.117 385.405,-42.117z"/>
  <path class="fil4" d="M997.618 1312.57l0.00236221 -0.00472441c7.61575,-16.8437 21.3543,-29.0126 37.4067,-35.0693 16.0382,-6.05197 34.4044,-5.97874 51.293,1.65591l0.00472441 0.00236221c16.8437,7.61575 29.0138,21.3543 35.0729,37.4079 6.05197,16.0406 5.97874,34.4079 -1.65591,51.2977 -7.61575,16.8449 -21.3543,29.0162 -37.4091,35.074 -16.0406,6.05315 -34.4091,5.97874 -51.3,-1.65591 -16.8449,-7.61812 -29.0162,-21.3567 -35.0729,-37.4114 -6.05197,-16.0394 -5.97874,-34.4067 1.65827,-51.2965z"/>
  <path class="fil5" d="M1042.18 1326.88l0 0c0.82441,-1.8248 2.31378,-3.14292 4.05237,-3.79961 1.7374,-0.655512 3.72756,-0.647245 5.55709,0.179528l0 0c1.8248,0.825591 3.14292,2.31378 3.79961,4.05237 0.655512,1.73858 0.647245,3.72756 -0.179528,5.55827 -0.82441,1.8248 -2.31378,3.14292 -4.05237,3.79961 -1.7374,0.655512 -3.72756,0.647245 -5.55709,-0.179528 -1.8248,-0.825591 -3.1441,-2.31378 -3.79961,-4.05355 -0.656693,-1.7374 -0.648426,-3.72756 0.179528,-5.55709z"/>
  <path class="fil5" d="M1022.41 1306.18l0 -0.0011811c0.82441,-1.8248 2.31378,-3.14292 4.05237,-3.79961 1.7374,-0.655512 3.72756,-0.647245 5.55709,0.179528l0 0.0011811c1.8248,0.82441 3.14292,2.3126 3.79961,4.05237 0.655512,1.7374 0.647245,3.72756 -0.179528,5.55709 -0.82441,1.8248 -2.3126,3.14292 -4.05237,3.79961 -1.7374,0.655512 -3.72756,0.647245 -5.55709,-0.179528 -1.8248,-0.825591 -3.1441,-2.31378 -3.79961,-4.05237 -0.655512,-1.73858 -0.648426,-3.72756 0.179528,-5.55709z"/>
  <path class="fil5" d="M1081.7 1368.28l0.0011811 0c0.82441,-1.8248 2.3126,-3.14292 4.05237,-3.79961 1.7374,-0.655512 3.72638,-0.647245 5.55591,0.179528l0.0011811 0c1.8248,0.825591 3.14292,2.31378 3.79961,4.05237 0.655512,1.73858 0.647245,3.72756 -0.179528,5.55827 -0.825591,1.8248 -2.31378,3.14292 -4.05237,3.79961 -1.73858,0.655512 -3.72874,0.647245 -5.55827,-0.179528 -1.8248,-0.825591 -3.14292,-2.31378 -3.79961,-4.05355 -0.655512,-1.7374 -0.647245,-3.72638 0.179528,-5.55709z"/>
  <path class="fil5" d="M1061.94 1347.58l0 -0.0011811c0.82441,-1.82362 2.31378,-3.14292 4.05237,-3.79843 1.7374,-0.655512 3.72756,-0.648426 5.55709,0.179528l0 0c1.8248,0.82441 3.14292,2.31378 3.79961,4.05237 0.655512,1.7374 0.647245,3.72756 -0.179528,5.55709 -0.82441,1.8248 -2.31378,3.1441 -4.05237,3.79961 -1.7374,0.656693 -3.72756,0.648426 -5.55709,-0.179528 -1.8248,-0.82441 -3.1441,-2.31378 -3.79961,-4.05237 -0.656693,-1.7374 -0.648426,-3.72756 0.179528,-5.55709z"/>
  <path class="fil5" d="M1033.57 1355.12l0 0c0.82441,-1.8248 2.31378,-3.1441 4.05237,-3.79961 1.7374,-0.655512 3.72756,-0.647245 5.55709,0.179528l0 0c1.8248,0.82441 3.14292,2.31378 3.79961,4.05237 0.655512,1.7374 0.647245,3.72756 -0.179528,5.55709 -0.82441,1.8248 -2.31378,3.1441 -4.05237,3.79961 -1.7374,0.656693 -3.72756,0.648426 -5.55709,-0.179528 -1.8248,-0.82441 -3.1441,-2.3126 -3.79961,-4.05237 -0.656693,-1.7374 -0.648426,-3.72756 0.179528,-5.55709z"/>
  <path class="fil5" d="M1074.41 1316.14l0 0.0011811c-1.86142,0.739371 -3.24685,2.16496 -3.98386,3.87166 -0.734646,1.70551 -0.818505,3.69331 -0.0779528,5.55945l0.0011811 0c0.739371,1.86142 2.16496,3.24685 3.87166,3.98386 1.70551,0.734646 3.69331,0.819686 5.55945,0.0779528 1.86142,-0.739371 3.24685,-2.16614 3.98386,-3.87284 0.734646,-1.70551 0.819686,-3.69331 0.0779528,-5.55945 -0.740552,-1.86142 -2.16614,-3.24685 -3.87284,-3.98386 -1.70551,-0.734646 -3.69331,-0.818505 -5.55945,-0.0779528z"/>
  <path class="fil5" d="M1013.81 1334.42l0 0c0.82441,-1.8248 2.31378,-3.14292 4.05237,-3.79961 1.7374,-0.655512 3.72756,-0.647245 5.55709,0.179528l0 0c1.8248,0.825591 3.14292,2.31378 3.79961,4.05237 0.655512,1.73858 0.647245,3.72756 -0.179528,5.55827 -0.82441,1.8248 -2.31378,3.14292 -4.05237,3.79961 -1.7374,0.655512 -3.72756,0.647245 -5.55709,-0.179528 -1.8248,-0.825591 -3.1441,-2.31378 -3.79961,-4.05355 -0.655512,-1.7374 -0.648426,-3.72756 0.179528,-5.55709z"/>
  <path class="fil5" d="M1054.64 1295.44l0 0c-1.86142,0.739371 -3.24685,2.16496 -3.98386,3.87166 -0.734646,1.70551 -0.818505,3.69331 -0.0779528,5.55945l0.0011811 0c0.739371,1.86142 2.16496,3.24803 3.87166,3.98386 1.70551,0.735827 3.69331,0.819686 5.55945,0.0779528 1.86142,-0.739371 3.24685,-2.16496 3.98386,-3.87284 0.734646,-1.70551 0.819686,-3.69331 0.0779528,-5.55945 -0.740552,-1.86142 -2.16614,-3.24685 -3.87284,-3.98268 -1.70551,-0.735827 -3.69331,-0.819686 -5.55945,-0.0779528z"/>
  <path class="fil5" d="M1053.34 1375.82l0 -0.0011811c0.82441,-1.8248 2.31378,-3.14292 4.05237,-3.79843 1.7374,-0.655512 3.72756,-0.648426 5.55709,0.179528l0 0c1.8248,0.82441 3.14292,2.3126 3.79961,4.05237 0.655512,1.7374 0.647245,3.72756 -0.179528,5.55709 -0.82441,1.8248 -2.31378,3.14292 -4.05237,3.79961 -1.7374,0.655512 -3.72756,0.647245 -5.55709,-0.179528 -1.8248,-0.825591 -3.1441,-2.31378 -3.79961,-4.05237 -0.656693,-1.73858 -0.648426,-3.72756 0.179528,-5.55709z"/>
  <path class="fil5" d="M1094.17 1336.84l-0.0011811 0c-1.86024,0.740552 -3.24567,2.16614 -3.98268,3.87284 -0.734646,1.70433 -0.819686,3.69331 -0.0779528,5.55827l0 0.0011811c0.740552,1.86142 2.16614,3.24685 3.87284,3.98268 1.70551,0.735827 3.69331,0.819686 5.55945,0.0779528 1.86142,-0.739371 3.24685,-2.16496 3.98386,-3.87166 0.734646,-1.70551 0.819686,-3.69331 0.0779528,-5.55945 -0.740552,-1.86142 -2.16614,-3.24803 -3.87284,-3.98386 -1.70551,-0.735827 -3.69331,-0.819686 -5.55945,-0.0779528z"/>
  <path class="fil5" d="M1023.08 1379.12l0 -0.0011811c0.82441,-1.8248 2.31378,-3.14292 4.05237,-3.79843 1.7374,-0.656693 3.72756,-0.648426 5.55709,0.178347l0 0.0011811c1.8248,0.82441 3.14292,2.3126 3.79961,4.05237 0.655512,1.7374 0.647245,3.72756 -0.179528,5.55709 -0.82441,1.8248 -2.31378,3.14292 -4.05237,3.79961 -1.7374,0.655512 -3.72756,0.647245 -5.55709,-0.179528 -1.8248,-0.825591 -3.1441,-2.31378 -3.79961,-4.05237 -0.656693,-1.73858 -0.648426,-3.72756 0.179528,-5.55709z"/>
  <path class="fil5" d="M1098.87 1306.77l0 0c-1.86142,0.739371 -3.24685,2.16496 -3.98268,3.87284 -0.735827,1.70433 -0.819686,3.69213 -0.0791339,5.55827l0.0011811 0.0011811c0.739371,1.86024 2.16496,3.24685 3.87166,3.98268 1.70551,0.735827 3.69331,0.819686 5.55945,0.0779528 1.86142,-0.739371 3.24803,-2.16496 3.98386,-3.87166 0.735827,-1.70551 0.819686,-3.69449 0.0779528,-5.56063 -0.739371,-1.86024 -2.16614,-3.24685 -3.87284,-3.98268 -1.70551,-0.735827 -3.69331,-0.819686 -5.55945,-0.0779528z"/>
  <path class="fil5" d="M1003.32 1358.42l0 -0.0011811c0.82441,-1.82362 2.31378,-3.14292 4.05237,-3.79843 1.7374,-0.655512 3.72756,-0.647245 5.55709,0.179528l0 0c1.8248,0.82441 3.14292,2.31378 3.79961,4.05237 0.655512,1.7374 0.647245,3.72756 -0.179528,5.55709 -0.82441,1.8248 -2.31378,3.1441 -4.05237,3.79961 -1.7374,0.656693 -3.72756,0.648426 -5.55709,-0.179528 -1.8248,-0.82441 -3.1441,-2.31378 -3.79961,-4.05237 -0.656693,-1.7374 -0.648426,-3.72756 0.179528,-5.55709z"/>
  <path class="fil5" d="M1079.1 1286.07l0 0c-1.86142,0.740552 -3.24685,2.16614 -3.98268,3.87284 -0.735827,1.70551 -0.819686,3.69331 -0.0791339,5.55945l0.0011811 0c0.739371,1.86142 2.16496,3.24685 3.87166,3.98268 1.70551,0.735827 3.69331,0.819686 5.55945,0.0791339 1.86142,-0.740552 3.24803,-2.16614 3.98386,-3.87284 0.735827,-1.70551 0.819686,-3.69331 0.0779528,-5.55945 -0.739371,-1.86142 -2.16614,-3.24803 -3.87284,-3.98386 -1.70551,-0.734646 -3.69331,-0.819686 -5.55945,-0.0779528z"/>
  <path class="fil6" d="M997.618 1312.57l0.00236221 -0.00472441c3.82087,-8.45079 9.18308,-15.724 15.6047,-21.6402l92.5867 96.978c-6.73938,6.6567 -14.7685,11.7437 -23.4792,15.0307 -16.0406,6.05315 -34.4091,5.97874 -51.3,-1.65591 -16.8449,-7.61812 -29.0162,-21.3567 -35.0729,-37.4114 -6.05197,-16.0394 -5.97874,-34.4067 1.65827,-51.2965z"/>
  <path class="fil7" d="M1042.18 1326.88l0 0c0.56693,-1.25551 1.44921,-2.27126 2.50984,-2.99646l9.90001 10.3689c-0.839764,1.11496 -1.97008,1.94055 -3.23268,2.41772 -1.73858,0.655512 -3.72756,0.647245 -5.55827,-0.180709 -1.82362,-0.82441 -3.14292,-2.3126 -3.79843,-4.05237 -0.655512,-1.7374 -0.648426,-3.72756 0.179528,-5.55709z"/>
  <path class="fil7" d="M1022.41 1306.18l0 0c0.568111,-1.25551 1.44921,-2.27126 2.50984,-2.99646l9.90001 10.3701c-0.839764,1.11378 -1.97008,1.93937 -3.23268,2.41654 -1.7374,0.655512 -3.72756,0.647245 -5.55709,-0.179528 -1.8248,-0.825591 -3.1441,-2.31378 -3.79961,-4.05237 -0.655512,-1.73858 -0.648426,-3.72756 0.179528,-5.55827z"/>
  <path class="fil7" d="M1081.7 1368.28l0 0c0.56693,-1.25551 1.44803,-2.27126 2.50984,-2.99646l9.90001 10.3689c-0.840946,1.11496 -1.97008,1.94055 -3.23386,2.41772 -1.7374,0.655512 -3.72638,0.647245 -5.55709,-0.179528 -1.8248,-0.825591 -3.14292,-2.31378 -3.79961,-4.05355 -0.655512,-1.7374 -0.647245,-3.72756 0.180709,-5.55709z"/>
  <path class="fil7" d="M1061.94 1347.58l0 0c0.56693,-1.25551 1.44921,-2.27126 2.50984,-2.99646l9.90001 10.3689c-0.839764,1.11496 -1.97008,1.94055 -3.23268,2.41772 -1.7374,0.654331 -3.72756,0.646063 -5.55827,-0.180709 -1.8248,-0.82441 -3.14292,-2.31378 -3.79843,-4.05237 -0.655512,-1.7374 -0.648426,-3.72756 0.179528,-5.55709z"/>
  <path class="fil7" d="M1033.57 1355.12l0 0c0.82441,-1.8248 2.3126,-3.14292 4.05237,-3.79961 1.7374,-0.655512 3.72756,-0.648426 5.55709,0.179528l0 0c1.8248,0.82441 3.14292,2.3126 3.79961,4.05237 0.655512,1.73858 0.647245,3.72756 -0.179528,5.55709 -0.82441,1.82599 -2.3126,3.1441 -4.05237,3.80079 -1.7374,0.654331 -3.72756,0.646063 -5.55827,-0.180709 -1.8248,-0.82441 -3.14292,-2.3126 -3.79843,-4.05237 -0.655512,-1.7374 -0.648426,-3.72756 0.179528,-5.55709z"/>
  <path class="fil7" d="M1013.81 1334.42l0 0c0.82441,-1.8248 2.3126,-3.14292 4.05237,-3.79961 1.7374,-0.655512 3.72756,-0.647245 5.55709,0.179528l0 0c1.8248,0.825591 3.14292,2.31378 3.79961,4.05237 0.655512,1.73858 0.647245,3.72874 -0.179528,5.55827 -0.82441,1.8248 -2.3126,3.14292 -4.05237,3.79961 -1.73858,0.655512 -3.72756,0.647245 -5.55827,-0.179528 -1.82362,-0.825591 -3.14292,-2.31378 -3.79843,-4.05355 -0.655512,-1.7374 -0.648426,-3.72638 0.179528,-5.55709z"/>
  <path class="fil7" d="M1053.34 1375.82l0 0c0.82441,-1.8248 2.3126,-3.14292 4.05237,-3.79961 1.7374,-0.655512 3.72756,-0.647245 5.55709,0.179528l0 0.0011811c1.8248,0.82441 3.14292,2.3126 3.79961,4.05237 0.655512,1.7374 0.647245,3.72756 -0.179528,5.55709 -0.825591,1.8248 -2.31378,3.14292 -4.05237,3.79961 -1.7374,0.655512 -3.72756,0.647245 -5.55709,-0.179528 -1.8248,-0.82441 -3.1441,-2.31378 -3.79961,-4.05237 -0.656693,-1.73858 -0.648426,-3.72756 0.179528,-5.55827z"/>
  <path class="fil7" d="M1023.08 1379.12l0 0c0.82441,-1.8248 2.3126,-3.14292 4.05237,-3.79843 1.7374,-0.655512 3.72756,-0.648426 5.55709,0.179528l0 0c1.8248,0.82441 3.14292,2.3126 3.79961,4.05237 0.655512,1.7374 0.647245,3.72756 -0.179528,5.55709 -0.82441,1.8248 -2.3126,3.14292 -4.05237,3.79961 -1.7374,0.655512 -3.72756,0.647245 -5.55827,-0.179528 -1.8248,-0.825591 -3.14292,-2.31378 -3.79843,-4.05237 -0.655512,-1.73858 -0.648426,-3.72756 0.179528,-5.55827z"/>
  <path class="fil7" d="M1003.32 1358.42l0 0c0.82441,-1.8248 2.3126,-3.14173 4.05237,-3.79843 1.7374,-0.655512 3.72756,-0.648426 5.55709,0.179528l0 0c1.8248,0.82441 3.14292,2.3126 3.79961,4.05237 0.655512,1.7374 0.647245,3.72756 -0.179528,5.55709 -0.82441,1.82599 -2.3126,3.1441 -4.05237,3.79961 -1.73858,0.655512 -3.72756,0.648426 -5.55827,-0.179528 -1.82362,-0.82441 -3.14292,-2.31378 -3.79843,-4.05237 -0.655512,-1.7374 -0.648426,-3.72756 0.179528,-5.55827z"/>
  <ellipse class="fil8" cx="1255.33" cy="1364.25" rx="44.6612" ry="14.3557"/>
  <path class="fil9" d="M1238.66 1349.9l0 -805.893 0 -5.5689 37.3441 -5.20512 0 5.5689 0 811.098c0,23.3351 -37.3429,23.3351 -37.3441,0z"/>
  <polygon class="fil10" points="1067.76,632.566 1234.3,533.229 1276,533.229 1276,549.357 1276,714.602 1276,734.434 1239.14,734.434 1071.86,674.402 1025.5,657.767 "/>
 </g>
</svg>
