<?xml version="1.0" encoding="UTF-8"?>
<!DOCTYPE svg PUBLIC "-//W3C//DTD SVG 1.1//EN" "http://www.w3.org/Graphics/SVG/1.1/DTD/svg11.dtd">
<!-- Creator: CorelDRAW -->
<svg xmlns="http://www.w3.org/2000/svg" xml:space="preserve" width="2048px" height="2048px" style="shape-rendering:geometricPrecision; text-rendering:geometricPrecision; image-rendering:optimizeQuality; fill-rule:evenodd; clip-rule:evenodd"
viewBox="0 0 2048 2048"
 xmlns:xlink="http://www.w3.org/1999/xlink">
 <defs>
  <style type="text/css">
   <![CDATA[
    .fil2 {fill:none}
    .fil1 {fill:#FB8C00}
    .fil0 {fill:#FFB74D}
    .fil4 {fill:#1F988C;fill-rule:nonzero}
    .fil6 {fill:#212121;fill-rule:nonzero}
    .fil3 {fill:#26A69A;fill-rule:nonzero}
    .fil8 {fill:#B80606;fill-rule:nonzero}
    .fil7 {fill:#D50000;fill-rule:nonzero}
    .fil5 {fill:#FFF8E1;fill-rule:nonzero}
   ]]>
  </style>
   <clipPath id="id0">
    <path d="M1024 0c565.539,0 1024,458.461 1024,1024 0,565.539 -458.461,1024 -1024,1024 -565.539,0 -1024,-458.461 -1024,-1024 0,-565.539 458.461,-1024 1024,-1024z"/>
   </clipPath>
 </defs>
 <g id="Layer_x0020_1">
  <metadata id="CorelCorpID_0Corel-Layer"/>
  <path class="fil0" d="M1024 0c565.539,0 1024,458.461 1024,1024 0,565.539 -458.461,1024 -1024,1024 -565.539,0 -1024,-458.461 -1024,-1024 0,-565.539 458.461,-1024 1024,-1024z"/>
  <g style="clip-path:url(#id0)">
   <g id="_478218376">
    <g>
     <polygon id="_3968116241" class="fil1" points="1448.96,516.569 2584.85,1652.45 2584.51,1653.36 2583.57,1655.93 2582.02,1660.15 2579.89,1665.98 2577.18,1673.39 2573.9,1682.34 2570.08,1692.82 2565.72,1704.79 2560.84,1718.22 2555.45,1733.08 2549.56,1749.34 2543.18,1766.97 2536.33,1785.94 2529.02,1806.21 2521.27,1827.77 2513.08,1850.58 2504.47,1874.6 2495.46,1899.81 2486.05,1926.19 2476.26,1953.69 2466.09,1982.29 2455.58,2011.95 2444.71,2042.66 2433.52,2074.37 2422.02,2107.06 2410.2,2140.7 2398.1,2175.26 2385.72,2210.7 2373.07,2247 2360.16,2284.13 2347.02,2322.05 2333.65,2360.75 1197.77,1224.86 1211.14,1186.17 1224.28,1148.25 1237.19,1111.12 1249.83,1074.82 1262.22,1039.38 1274.32,1004.82 1286.14,971.18 1297.64,938.489 1308.83,906.776 1319.7,876.07 1330.21,846.403 1340.37,817.805 1350.17,790.305 1359.58,763.932 1368.59,738.719 1377.2,714.694 1385.39,691.889 1393.14,670.332 1400.45,650.054 1407.3,631.087 1413.67,613.458 1419.57,597.199 1424.96,582.339 1429.84,568.91 1434.2,556.941 1438.02,546.462 1441.29,537.504 1444.01,530.095 1446.14,524.267 1447.69,520.05 1448.63,517.473 "/>
     <polygon id="_396796792" class="fil1" points="1204.13,1226.45 2340.01,2362.34 2320.32,2419.43 1184.44,1283.55 "/>
     <polygon id="_396825400" class="fil1" points="1184.44,1283.55 2320.32,2419.43 2319.81,2420.92 2319.3,2422.42 2318.79,2423.93 2318.28,2425.45 2317.78,2426.98 2317.28,2428.51 2316.77,2430.06 2316.27,2431.62 2315.77,2433.19 2315.27,2434.77 2314.77,2436.36 2314.27,2437.96 2313.77,2439.57 2313.27,2441.19 2312.77,2442.83 2312.27,2444.46 2311.77,2446.12 2311.27,2447.78 2310.77,2449.45 2310.27,2451.13 2309.76,2452.82 2309.26,2454.52 2308.75,2456.23 2308.24,2457.95 2307.73,2459.68 2307.22,2461.42 2306.71,2463.17 2306.19,2464.93 2305.68,2466.7 2305.16,2468.48 2304.63,2470.27 2304.11,2472.07 1168.23,1336.19 1168.75,1334.39 1169.27,1332.6 1169.79,1330.82 1170.31,1329.05 1170.83,1327.29 1171.34,1325.54 1171.85,1323.8 1172.36,1322.07 1172.87,1320.35 1173.38,1318.64 1173.88,1316.93 1174.39,1315.24 1174.89,1313.56 1175.39,1311.89 1175.89,1310.23 1176.39,1308.58 1176.89,1306.94 1177.39,1305.31 1177.89,1303.69 1178.39,1302.08 1178.89,1300.48 1179.39,1298.89 1179.89,1297.31 1180.39,1295.74 1180.89,1294.18 1181.39,1292.63 1181.9,1291.09 1182.4,1289.56 1182.91,1288.05 1183.42,1286.54 1183.92,1285.04 "/>
     <polygon id="_396810520" class="fil1" points="962.3,1309.43 2098.18,2445.31 2098.16,2446.47 2098.1,2447.62 2097.99,2448.77 2097.85,2449.92 2097.67,2451.06 2097.44,2452.2 2097.17,2453.34 2096.87,2454.48 960.988,1318.6 961.293,1317.46 961.559,1316.32 961.784,1315.18 961.97,1314.04 962.114,1312.89 962.218,1311.74 962.279,1310.58 "/>
     <polygon id="_396798736" class="fil1" points="887.938,1362.01 2023.82,2497.89 2020.98,2498.48 2018.09,2499.05 2015.15,2499.61 2012.16,2500.15 2009.13,2500.68 2006.04,2501.19 2002.92,2501.69 1999.75,2502.16 1996.53,2502.63 1993.27,2503.07 1989.98,2503.5 1986.64,2503.91 1983.26,2504.3 1979.84,2504.68 1976.39,2505.03 1972.9,2505.37 1969.38,2505.69 1965.82,2505.99 1962.22,2506.28 1958.6,2506.54 1954.94,2506.78 1951.26,2507 1947.54,2507.21 1943.8,2507.39 1940.03,2507.55 1936.23,2507.69 1932.41,2507.81 1928.56,2507.91 1924.7,2507.99 1920.8,2508.04 1916.89,2508.08 1912.96,2508.09 777.077,1372.21 781.01,1372.2 784.923,1372.16 788.814,1372.11 792.683,1372.03 796.53,1371.93 800.352,1371.81 804.148,1371.67 807.92,1371.51 811.662,1371.32 815.378,1371.12 819.063,1370.9 822.72,1370.65 826.344,1370.39 829.936,1370.11 833.495,1369.81 837.02,1369.49 840.51,1369.15 843.963,1368.79 847.379,1368.42 850.757,1368.03 854.095,1367.62 857.394,1367.19 860.65,1366.74 863.865,1366.28 867.036,1365.8 870.162,1365.31 873.245,1364.8 876.281,1364.27 879.268,1363.73 882.207,1363.17 885.098,1362.6 "/>
     <polygon id="_396818464" class="fil1" points="777.077,1372.21 1912.96,2508.09 1908.62,2508.08 1904.31,2508.03 1900.02,2507.97 1895.76,2507.87 1891.53,2507.75 1887.33,2507.61 1883.16,2507.43 1879.02,2507.24 1874.92,2507.01 1870.85,2506.77 1866.82,2506.49 1862.82,2506.2 1858.87,2505.88 1854.95,2505.54 1851.08,2505.17 1847.25,2504.78 1843.46,2504.37 1839.73,2503.94 1836.03,2503.49 1832.39,2503.01 1828.8,2502.52 1825.26,2502 1821.77,2501.47 1818.33,2500.91 1814.95,2500.33 1811.63,2499.74 1808.36,2499.12 1805.16,2498.49 1802.02,2497.84 1798.93,2497.17 1795.92,2496.48 1792.96,2495.78 657.081,1359.89 660.035,1360.6 663.052,1361.29 666.135,1361.95 669.279,1362.61 672.484,1363.24 675.748,1363.85 679.072,1364.45 682.451,1365.03 685.886,1365.58 689.375,1366.12 692.917,1366.64 696.51,1367.13 700.152,1367.61 703.844,1368.06 707.584,1368.49 711.368,1368.9 715.198,1369.29 719.071,1369.66 722.985,1370 726.941,1370.32 730.935,1370.61 734.967,1370.88 739.036,1371.13 743.141,1371.35 747.279,1371.55 751.45,1371.72 755.651,1371.87 759.882,1371.99 764.142,1372.08 768.428,1372.15 772.74,1372.19 "/>
     <polygon id="_396827104" class="fil1" points="657.081,1359.89 1792.96,2495.78 1789.23,2494.83 1785.59,2493.84 1782.04,2492.8 1778.59,2491.73 1775.23,2490.6 1771.98,2489.43 1768.82,2488.23 1765.77,2486.97 1762.82,2485.68 1759.97,2484.35 1757.24,2482.97 1754.61,2481.55 1752.09,2480.09 1749.69,2478.6 1747.4,2477.06 1745.23,2475.48 1743.18,2473.87 1741.24,2472.22 605.363,1336.33 607.297,1337.99 609.35,1339.6 611.522,1341.18 613.811,1342.71 616.213,1344.21 618.729,1345.67 621.356,1347.09 624.091,1348.46 626.936,1349.8 629.885,1351.09 632.939,1352.34 636.095,1353.55 639.351,1354.72 642.707,1355.84 646.159,1356.92 649.706,1357.96 653.347,1358.95 "/>
     <polygon id="_396824824" class="fil1" points="869.303,1584 2005.18,2719.88 1982.66,2719.88 846.775,1584 "/>
     <polygon id="_396827344" class="fil1" points="846.775,1584 1982.66,2719.88 1959.39,2719.88 823.505,1584 "/>
     <polygon id="_396825616" class="fil1" points="681.7,1458.87 1817.58,2594.75 1817.5,2594.73 681.616,1458.85 "/>
     <polygon id="_396824656" class="fil1" points="800.979,1584 1936.86,2719.88 1915.17,2719.88 779.293,1584 "/>
     <polygon id="_396811552" class="fil1" points="778.204,1583.91 1914.09,2719.79 1912.19,2719.79 1910.36,2719.79 1908.59,2719.79 1906.87,2719.78 1905.2,2719.77 1903.58,2719.75 1902.01,2719.72 1900.49,2719.68 1899.01,2719.64 1897.57,2719.58 1896.16,2719.51 1894.8,2719.42 1893.47,2719.32 1892.17,2719.2 1890.9,2719.06 1889.66,2718.91 1888.45,2718.73 1887.26,2718.53 1886.08,2718.31 1884.93,2718.06 1883.79,2717.79 1882.67,2717.49 1881.56,2717.16 1880.46,2716.8 1879.36,2716.41 1878.27,2715.99 1877.18,2715.54 1876.1,2715.04 1875.01,2714.52 1873.91,2713.95 1872.81,2713.35 1871.71,2712.7 735.825,1576.82 736.933,1577.47 738.032,1578.07 739.126,1578.64 740.215,1579.16 741.303,1579.65 742.39,1580.11 743.48,1580.53 744.575,1580.92 745.678,1581.28 746.789,1581.61 747.912,1581.91 749.049,1582.18 750.203,1582.43 751.374,1582.65 752.567,1582.85 753.782,1583.03 755.023,1583.18 756.291,1583.32 757.589,1583.44 758.919,1583.54 760.283,1583.62 761.685,1583.69 763.125,1583.75 764.605,1583.8 766.13,1583.84 767.699,1583.86 769.318,1583.88 770.985,1583.9 772.706,1583.9 774.481,1583.91 776.313,1583.91 "/>
     <polygon id="_396808480" class="fil1" points="779.293,1584 1915.17,2719.88 1914.09,2719.88 778.204,1584 "/>
     <polygon id="_396808696" class="fil1" points="735.825,1576.82 1871.71,2712.7 1869.78,2711.49 1867.95,2710.22 1866.2,2708.88 1864.52,2707.45 728.643,1571.57 730.321,1572.99 732.067,1574.34 733.896,1575.61 "/>
     <polygon id="_396821632" class="fil1" points="823.505,1584 1959.39,2719.88 1936.86,2719.88 800.979,1584 "/>
     <polygon id="_396800296" class="fil1" points="1456.65,494.302 2592.53,1630.18 2584.85,1652.45 1448.96,516.569 "/>
     <polygon id="_396816928" class="fil1" points="960.988,1318.6 2096.87,2454.48 2096.56,2455.5 2096.21,2456.52 2095.82,2457.54 2095.41,2458.55 2094.95,2459.56 2094.47,2460.55 2093.94,2461.55 2093.39,2462.53 957.509,1326.65 958.064,1325.66 958.585,1324.67 959.071,1323.67 959.525,1322.67 959.943,1321.66 960.326,1320.64 960.675,1319.62 "/>
     <polygon id="_396809680" class="fil1" points="957.509,1326.65 2093.39,2462.53 2092.49,2463.98 2091.5,2465.41 2090.42,2466.83 2089.24,2468.22 2087.97,2469.59 2086.61,2470.94 2085.17,2472.27 2083.64,2473.58 2082.02,2474.87 2080.31,2476.14 2078.52,2477.38 2076.65,2478.61 2074.7,2479.8 2072.67,2480.98 2070.56,2482.13 2068.37,2483.26 2066.11,2484.37 2063.77,2485.45 2061.36,2486.51 2058.87,2487.54 2056.32,2488.55 2053.69,2489.53 2050.99,2490.49 2048.23,2491.42 2045.4,2492.32 2042.5,2493.2 2039.54,2494.05 2036.52,2494.88 2033.43,2495.67 2030.29,2496.44 2027.08,2497.18 2023.82,2497.89 887.938,1362.01 891.201,1361.3 894.406,1360.56 897.552,1359.79 900.637,1358.99 903.66,1358.17 906.621,1357.32 909.517,1356.44 912.347,1355.54 915.112,1354.61 917.807,1353.65 920.435,1352.67 922.992,1351.66 925.477,1350.63 927.89,1349.57 930.229,1348.49 932.493,1347.38 934.68,1346.25 936.79,1345.1 938.821,1343.92 940.772,1342.72 942.642,1341.5 944.43,1340.26 946.135,1338.99 947.754,1337.7 949.287,1336.39 950.733,1335.06 952.09,1333.71 953.358,1332.34 954.535,1330.95 955.62,1329.53 956.611,1328.1 "/>
     <polygon id="_396811912" class="fil1" points="955.771,1234.15 2091.65,2370.03 2092.96,2371.36 2094.14,2372.71 2095.19,2374.08 2096.11,2375.48 2096.89,2376.91 2097.53,2378.36 2098.03,2379.83 2098.39,2381.33 2098.61,2382.85 2098.68,2384.39 962.799,1248.51 962.726,1246.97 962.508,1245.45 962.148,1243.95 961.646,1242.47 961.006,1241.03 960.226,1239.6 959.312,1238.2 958.263,1236.83 957.083,1235.48 "/>
     <polygon id="_396807880" class="fil1" points="1039.31,1569.27 2175.19,2705.15 2173.79,2705.75 2172.39,2706.32 2171.01,2706.89 2169.63,2707.43 2168.27,2707.96 2166.91,2708.48 2165.55,2708.98 2164.21,2709.47 2162.87,2709.94 2161.54,2710.4 2160.21,2710.84 2158.89,2711.27 2157.58,2711.69 2156.27,2712.09 2154.96,2712.49 2153.66,2712.86 2152.37,2713.23 2151.07,2713.58 2149.79,2713.92 2148.5,2714.25 2147.22,2714.57 2145.94,2714.87 2144.66,2715.17 2143.39,2715.45 2142.11,2715.72 2140.84,2715.98 2139.57,2716.24 2138.3,2716.47 2137.03,2716.71 2135.76,2716.92 2134.49,2717.14 2133.22,2717.34 997.334,1581.45 998.605,1581.25 999.876,1581.04 1001.15,1580.82 1002.42,1580.59 1003.69,1580.35 1004.96,1580.1 1006.23,1579.84 1007.5,1579.57 1008.78,1579.29 1010.06,1578.99 1011.34,1578.69 1012.62,1578.37 1013.9,1578.04 1015.19,1577.7 1016.48,1577.35 1017.78,1576.98 1019.08,1576.6 1020.38,1576.21 1021.69,1575.81 1023.01,1575.39 1024.33,1574.96 1025.66,1574.52 1026.99,1574.06 1028.33,1573.59 1029.67,1573.1 1031.03,1572.6 1032.39,1572.08 1033.75,1571.55 1035.13,1571 1036.51,1570.44 1037.91,1569.86 "/>
     <polygon id="_396812800" class="fil1" points="997.334,1581.45 2133.22,2717.34 2131.95,2717.53 2130.68,2717.71 2129.43,2717.88 2128.17,2718.05 2126.93,2718.2 2125.68,2718.35 2124.44,2718.49 2123.2,2718.62 2121.96,2718.74 2120.73,2718.86 2119.5,2718.96 2118.27,2719.06 2117.04,2719.16 2115.81,2719.24 2114.58,2719.32 2113.34,2719.4 2112.11,2719.46 2110.88,2719.52 2109.64,2719.58 2108.41,2719.63 2107.17,2719.67 2105.92,2719.71 2104.67,2719.75 2103.42,2719.78 2102.16,2719.81 2100.9,2719.83 2099.64,2719.85 2098.36,2719.86 2097.08,2719.87 2095.8,2719.88 2094.5,2719.88 2093.2,2719.88 957.321,1584 958.622,1584 959.916,1584 961.202,1583.99 962.481,1583.98 963.754,1583.96 965.022,1583.95 966.283,1583.92 967.54,1583.9 968.792,1583.87 970.039,1583.83 971.284,1583.79 972.524,1583.75 973.762,1583.7 974.997,1583.64 976.231,1583.58 977.463,1583.51 978.694,1583.44 979.925,1583.36 981.155,1583.27 982.386,1583.18 983.617,1583.08 984.85,1582.97 986.083,1582.86 987.32,1582.74 988.559,1582.61 989.8,1582.47 991.045,1582.32 992.293,1582.17 993.545,1582 994.803,1581.83 996.066,1581.65 "/>
     <polygon id="_396806920" class="fil1" points="957.321,1584 2093.2,2719.88 2005.18,2719.88 869.303,1584 "/>
     <polygon id="_396819544" class="fil1" points="962.799,1248.51 2098.68,2384.39 2098.68,2384.46 2098.68,2384.54 2098.68,2384.61 2098.68,2384.68 2098.67,2384.75 2098.67,2384.82 2098.67,2384.9 2098.66,2384.97 962.782,1249.09 962.787,1249.01 962.791,1248.94 962.793,1248.87 962.795,1248.8 962.796,1248.73 962.798,1248.65 962.799,1248.58 "/>
     <polygon id="_396800104" class="fil1" points="962.782,1249.09 2098.66,2384.97 2098.66,2384.99 2098.67,2385.01 2098.67,2385.04 2098.67,2385.06 2098.67,2385.08 2098.66,2385.11 2098.66,2385.13 2098.66,2385.15 962.781,1249.27 962.782,1249.25 962.783,1249.22 962.785,1249.2 962.785,1249.18 962.785,1249.15 962.785,1249.13 962.783,1249.11 "/>
     <polygon id="_396810376" class="fil1" points="962.781,1249.27 2098.66,2385.15 2098.65,2386.76 2098.64,2388.39 2098.63,2390.04 2098.61,2391.71 2098.59,2393.4 2098.58,2395.1 2098.56,2396.82 2098.53,2398.55 2098.51,2400.29 2098.49,2402.04 2098.47,2403.8 2098.44,2405.57 2098.42,2407.34 2098.39,2409.12 2098.37,2410.89 2098.34,2412.67 962.459,1276.79 962.485,1275.01 962.509,1273.23 962.535,1271.46 962.56,1269.69 962.585,1267.92 962.609,1266.16 962.631,1264.41 962.653,1262.67 962.675,1260.94 962.695,1259.22 962.713,1257.52 962.73,1255.83 962.746,1254.16 962.76,1252.51 962.772,1250.88 "/>
     <polygon id="_396816904" class="fil1" points="962.459,1276.79 2098.34,2412.67 2098.33,2413.69 2098.31,2414.74 2098.3,2415.84 2098.28,2417.01 2098.27,2418.27 2098.26,2419.66 2098.24,2421.19 2098.23,2422.88 2098.22,2424.77 2098.21,2426.87 2098.2,2429.21 2098.2,2431.81 2098.19,2434.7 2098.19,2437.89 2098.18,2441.42 2098.18,2445.31 962.3,1309.43 962.302,1305.54 962.304,1302.01 962.309,1298.81 962.315,1295.93 962.322,1293.33 962.33,1290.99 962.339,1288.89 962.35,1287 962.362,1285.3 962.375,1283.78 962.388,1282.39 962.401,1281.13 962.415,1279.96 962.429,1278.86 962.444,1277.81 "/>
     <polygon id="_396801184" class="fil1" points="1168.23,1336.19 2304.11,2472.07 2301.72,2480.25 2299.27,2488.59 2296.76,2497.06 2294.18,2505.65 2291.54,2514.34 2288.81,2523.09 2286,2531.89 2283.11,2540.73 2280.13,2549.57 2277.04,2558.4 2273.86,2567.19 2270.58,2575.92 2267.18,2584.57 2263.66,2593.13 2260.03,2601.55 2256.27,2609.84 2252.39,2617.96 2248.36,2625.89 2244.2,2633.62 2239.89,2641.11 2235.44,2648.35 2230.83,2655.32 2226.06,2661.99 2221.12,2668.34 2216.02,2674.35 2210.75,2680.01 2205.3,2685.28 2199.66,2690.15 2193.84,2694.59 2187.82,2698.59 2181.61,2702.12 2175.19,2705.15 1039.31,1569.27 1045.73,1566.23 1051.94,1562.71 1057.96,1558.71 1063.78,1554.27 1069.41,1549.4 1074.87,1544.13 1080.14,1538.47 1085.24,1532.46 1090.18,1526.1 1094.94,1519.43 1099.56,1512.47 1104.01,1505.23 1108.32,1497.73 1112.48,1490.01 1116.5,1482.08 1120.39,1473.96 1124.15,1465.67 1127.78,1457.24 1131.3,1448.69 1134.7,1440.04 1137.98,1431.3 1141.16,1422.51 1144.24,1413.69 1147.23,1404.85 1150.12,1396.01 1152.93,1387.21 1155.65,1378.45 1158.3,1369.77 1160.88,1361.18 1163.39,1352.71 1165.84,1344.37 "/>
    </g>
    <path id="_478212016" class="fil1" d="M1448.96 516.569c-0.218504,0.636615 -107.423,291.6 -251.192,708.296l6.35788 1.58977 -19.6949 57.0945c-5.45788,15.8244 -10.5874,33.3851 -16.2095,52.643 -25.2012,86.3127 -59.3835,203.373 -128.916,233.079 -15.0071,6.41221 -28.4126,10.089 -41.9752,12.1843 -13.5591,2.0941 -26.0918,2.54646 -40.0134,2.54646l-88.0182 0 -22.5272 0 -23.2701 0 -22.526 0 -21.6862 0 -1.08898 0 0 -0.0921261c-20.4969,0.00236221 -30.502,0.00354331 -42.3792,-7.08662 -10.5732,-6.31063 -16.3016,-14.8961 -27.4866,-31.6642l-2.63977 -3.95197c-9.52087,-14.2311 -18.4914,-30.9142 -22.9181,-46.6607 -3.45709,-12.2906 -4.29685,-24.4914 -1.08071,-35.6752l-0.0838583 -0.0236221c3.89528,-13.5331 12.776,-24.2492 28.4079,-30.4099 7.98544,-3.14646 17.6646,-4.9004 29.2961,-4.9004l61.6595 0 22.526 0 23.2701 0 22.5272 0 81.9142 0c13.5331,0 27.515,-10.7917 40.4008,-25.8898 22.8095,-26.7272 40.624,-65.6493 50.1756,-90.6709l42.2209 -110.55 8.55946 2.14016 263.288 -713.946 7.8756 -20.6209 20.9622 6.83741 29.7461 9.70158 0.732284 0.238583 19.0961 6.22796 22.3772 7.29804 -7.68662 22.2662zm-486.664 792.858c0,3.08622 -0.445276,6.14764 -1.31221,9.1689 -0.788977,2.74252 -1.95473,5.43308 -3.47953,8.05512 -9.06024,15.5752 -34.4587,27.9248 -69.5705,35.3563 -30.0213,6.35434 -68.8064,10.2 -110.861,10.2 -46.3831,0 -88.8426,-4.7067 -119.997,-12.3142 -40.304,-9.84331 -65.2323,-27.4441 -65.2323,-50.4662l0.090945 0 0 -2.22638c0.0011811,-0.908268 0.0011811,-1.53307 -0.00354331,-2.02205l-0.223229 -1.22599 -0.36378 -3.71811 0.0106299 -51.1524c-0.00590552,-0.190158 -0.00944883,-0.380315 -0.00944883,-0.571654 0,-16.591 24.9851,-29.2772 65.3776,-36.3744 31.2425,-5.48859 73.8272,-8.88662 120.346,-8.88662 46.5213,0 89.106,3.39685 120.349,8.88662 40.3926,7.09607 65.3764,19.7835 65.3764,36.3744 0,0.19252 -0.00354331,0.38504 -0.0165354,0.576378 0.00472441,0.0614174 0.00236221,0.121654 -0.0011811,0.183071 -0.0472441,8.52284 -0.185433,18.0378 -0.322441,27.5185 -0.0779528,5.43898 -0.158268,10.9146 -0.158268,32.6386z"/>
   </g>
  </g>
  <path class="fil2" d="M1024 0c565.539,0 1024,458.461 1024,1024 0,565.539 -458.461,1024 -1024,1024 -565.539,0 -1024,-458.461 -1024,-1024 0,-565.539 458.461,-1024 1024,-1024z"/>
  <path class="fil3" d="M1090.44 1204.36l265.425 -719.74 7.8756 -20.6209 20.9622 6.83623 49.5744 16.1681 22.3772 7.29922 -7.68662 22.265c-0.219685,0.638977 -108.02,293.222 -252.391,711.775l-106.136 -23.9835z"/>
  <path class="fil4" d="M1414.45 480.538l0.731103 0.237402 19.0973 6.22914 22.3772 7.29922 -7.68662 22.265c-0.219685,0.638977 -108.02,293.222 -252.391,711.775l-55.2059 -12.4748 -0.0425197 -0.00944883 273.121 -735.322z"/>
  <path class="fil5" d="M1041.79 1306.98l42.2197 -110.551 120.117 30.0284 -19.6949 57.0945c-5.45906,15.8244 -10.5874,33.3851 -16.2095,52.643 -25.2024,86.3127 -59.3835,203.374 -128.917,233.079 -15.0047,6.41339 -28.4103,10.089 -41.9729,12.1843 -13.5591,2.0941 -26.0929,2.54528 -40.0146,2.54528l-178.028 0 -1.08898 0 0 -0.090945c-20.4969,0.00236221 -30.502,0.00236221 -42.3792,-7.08662 -10.5732,-6.31063 -16.3016,-14.8961 -27.4866,-31.6642l-2.63977 -3.95197c-9.52087,-14.2311 -18.4914,-30.9142 -22.9181,-46.6607 -3.45709,-12.2906 -4.29685,-24.4902 -1.08071,-35.6752l-0.0838583 -0.0236221c3.89646,-13.5331 12.776,-24.2492 28.4079,-30.4099 7.98544,-3.14764 17.6646,-4.89922 29.2961,-4.89922l211.897 0c13.5331,0 27.515,-10.7929 40.4008,-25.891 22.8095,-26.726 40.624,-65.6493 50.1756,-90.6698z"/>
  <polygon class="fil6" points="823.505,1584 800.979,1584 800.979,1423.54 823.505,1423.54 "/>
  <polygon class="fil6" points="869.303,1584 846.775,1584 846.775,1423.54 869.303,1423.54 "/>
  <path class="fil7" d="M962.3 1309.43c0,3.08622 -0.445276,6.14764 -1.31339,9.1689 -0.787796,2.74252 -1.95354,5.43308 -3.47717,8.05512 -9.06142,15.5752 -34.4599,27.9236 -69.5705,35.3563 -30.0225,6.35434 -68.8075,10.2 -110.862,10.2 -46.3831,0 -88.8438,-4.7067 -119.997,-12.3142 -40.304,-9.84213 -65.2323,-27.4441 -65.2323,-50.4662l0.090945 0 0 -2.22638c0.0011811,-0.907087 0.0011811,-1.53307 -0.00354331,-2.02205 -0.0779528,-0.393307 -0.154725,-0.811418 -0.223229,-1.22599l-0.36378 -3.71811 0 -51.1619c16.8591,13.9394 40.0866,22.4079 59.8713,27.2398 39.9803,9.76418 84.7926,13.0134 125.855,13.0134 41.0622,0 85.8745,-3.2504 125.854,-13.0134 19.7776,-4.82953 42.9957,-13.2945 59.8536,-27.2256 -0.046063,8.57009 -0.185433,18.1524 -0.323622,27.7016 -0.0791339,5.43898 -0.158268,10.9146 -0.158268,32.6386z"/>
  <path class="fil8" d="M777.075 1203.25c46.5201,0 89.1048,3.39685 120.347,8.88662 40.3926,7.09607 65.3764,19.7847 65.3764,36.3733 0,16.5898 -24.9839,29.2772 -65.3764,36.3744 -31.2425,5.48977 -73.8272,8.88662 -120.347,8.88662 -46.5201,0 -89.1048,-3.39803 -120.347,-8.88662 -40.3926,-7.09843 -65.3776,-19.7835 -65.3776,-36.3744 0,-16.5898 24.9851,-29.276 65.3776,-36.3733 31.2425,-5.48977 73.8272,-8.88662 120.347,-8.88662z"/>
 </g>
</svg>
